<svg xmlns="http://www.w3.org/2000/svg" width="163.89" height="160.15" viewBox="0 0 163.89 160.15"><g id="Layer_2" data-name="Layer 2"><g id="header_footer" data-name="header/footer"><path d="M153.59,71.89H152a221,221,0,0,0-11-28,2.88,2.88,0,0,0-4-1.46,0,0,0,0,1,0,0l-40.32.74c-.19,0-.36,0-.53,0l-.16-.17c-1.85.3-3.74.52-5.65.64-5.35.35-10.67-.09-16,.32a81,81,0,0,1-9.49.21l-.42.38a3.42,3.42,0,0,0-.66-.07l-46.83-.29a3.31,3.31,0,0,0-3.31,3.92,3.46,3.46,0,0,0-.92,1.52A73.56,73.56,0,0,1,.69,72.82C-1,75,.69,77.2,2.84,77.7a3.23,3.23,0,0,0,3.33,2.89c1.72,0,3.43,0,5.15-.07-2.38,23.14-4.33,46.29-.48,69.39-2,1.86-1.23,6.09,2.28,6.06l134.45-.87a3.46,3.46,0,0,0,2.05-.67,2.83,2.83,0,0,0,2.9-3.31,522.27,522.27,0,0,1-3.58-72.25c1.55,0,3.09,0,4.65,0,4.46,0,4.48-7,0-7" style="fill:#576f7f"/><path d="M96.2,81.46C95.36,87.31,91.79,92.68,85.39,93A10.67,10.67,0,0,1,74.5,84.23C73.32,77.93,78.21,73,84,71.88a3.4,3.4,0,0,0,1.4-.61c5.8.92,11.76,3.53,10.81,10.19M80.34,63.87A3.16,3.16,0,0,0,77,67a17.41,17.41,0,0,0,9.91,32.82c9.74-1.16,15.45-9.46,16.33-18.73,1.22-12.9-12.33-17-22.9-17.23" style="fill:#00013a"/><path d="M89.61,81.42H87.4c.15-1,.31-2,.46-3a3.59,3.59,0,0,0-2.43-4.28c-1.64-.45-4,.56-4.28,2.43s-.61,4-.92,6a4.31,4.31,0,0,0,.38,2.65A3.49,3.49,0,0,0,84,88.37h5.57a3.48,3.48,0,1,0,0-7" style="fill:#00013a"/><path d="M103,152.65a4.28,4.28,0,0,0-.05-.49,111.73,111.73,0,0,1-1.84-32.94c.28-3.1-3-4-5.16-2.8l-17-.83a3.13,3.13,0,0,0-2.18.67c-2.11-1-5.17-.06-5,2.95l1.68,33.64-48.83.32c0-.16,0-.31,0-.47-3.85-22.61-1.65-45.49.68-68.14Q39.13,84.17,53,83a3.74,3.74,0,0,0,2.5-6.09,185.8,185.8,0,0,1,33.4-34.42,209.28,209.28,0,0,1,30.56,38.63,3.35,3.35,0,0,0,1.35,1.28,3.23,3.23,0,0,0,2.22.79l26-.14a520,520,0,0,0,3.24,69.24l-49.15.33m-10.37.07a3.61,3.61,0,0,0-.08-1.21,66.64,66.64,0,0,1-.93-28.35l2.25.11A118.14,118.14,0,0,0,96,152.69Zm-12.29.08q-.75-15.13-1.51-30.27l.08,0,5.74.27a74.79,74.79,0,0,0,1.06,29.94Zm-64.76-75A79.16,79.16,0,0,0,26.25,55.7c0-.1,0-.2.06-.3l38.11.23A195.68,195.68,0,0,0,47.93,75.46a3.32,3.32,0,0,0-.5,1q-15.88,1.15-31.81,1.3M102.79,7.06a37.64,37.64,0,0,0-3.12,3.07,3.49,3.49,0,0,0-.87,1.75,3.43,3.43,0,0,0,1.42,3.92l2.37,1.59-10.67.89h0q-.39-5.55-1.31-11.1Zm40,46.53a213.1,213.1,0,0,1,8.81,22.52l-27.09.15a217.72,217.72,0,0,0-15.75-22.05Zm17.73,22.47h-1.62a222.57,222.57,0,0,0-11-28,2.9,2.9,0,0,0-4-1.47h0l-40.32.73a4.12,4.12,0,0,0-.52.06C99.53,43.48,95.93,39.66,92.16,36c-.14-.13-.29-.24-.43-.35.32-3.48.45-7,.43-10.42l20.17-1.69c3.82-.32,4.36-5.55,1.56-6.73a3.64,3.64,0,0,0-.76-.69l-5.69-3.82a32.46,32.46,0,0,1,8-5.13,2.73,2.73,0,0,0,1.4-1.51c1.48-2,.6-5.67-2.65-5.64L88.68.25A3.19,3.19,0,0,0,85.79,1.9,3.55,3.55,0,0,0,83.35,6a104.77,104.77,0,0,1,1.38,30.25,3.66,3.66,0,0,0,0,.74C80,40.75,75.57,44.68,71.27,48.79a3.53,3.53,0,0,0-.67-.07l-46.82-.29a3.32,3.32,0,0,0-3.33,3.92,3.64,3.64,0,0,0-.91,1.51A73.24,73.24,0,0,1,7.64,77C6,79.2,7.64,81.38,9.8,81.87a3.21,3.21,0,0,0,3.31,2.89c1.73,0,3.45,0,5.17-.07-2.37,23.15-4.34,46.29-.49,69.39-2,1.87-1.22,6.09,2.28,6.07l134.44-.89a3.26,3.26,0,0,0,2.06-.67,2.8,2.8,0,0,0,2.9-3.29A520.93,520.93,0,0,1,155.9,83l4.64,0c4.47,0,4.48-7,0-7" style="fill:#00013a"/><path d="M47,127.16c-.05-1.08-.08-2.17-.1-3.26l5.41-.05c0,1-.07,2.07-.1,3.1Zm-10.26.42c-.07-1.2-.11-2.39-.13-3.59l3.34,0c0,1.17.05,2.32.12,3.49Zm3.69-14.3c-.13,1.24-.23,2.49-.31,3.73l-3.4,0c.06-1.27.14-2.54.25-3.81l3.46,0m12.22.19c0,1.14-.07,2.29-.11,3.43l-5.46,0c.07-1.19.17-2.38.29-3.56l5.28.08m6.49,13.88.58-17.29a3.17,3.17,0,0,0-3.43-3.35,3.79,3.79,0,0,0-1-.16l-22.59-.33c-3.32,0-4.17,3.74-2.58,5.74a100.33,100.33,0,0,0-.25,17.59,3.43,3.43,0,0,0,.88,2.12,3.09,3.09,0,0,0,3.33,3L57,133.71c3.59-.15,4.3-4.7,2.09-6.36" style="fill:#00013a"/><path d="M130.4,124.91c.25-1.47.52-2.94.78-4.4,2.38,0,4.77-.07,7.16-.17-.05,1.36-.11,2.72-.17,4.08q-3.88.31-7.77.49m-7,.23c-1.14,0-2.29,0-3.43,0v-4.92c1.4.07,2.79.13,4.19.17-.24,1.33-.47,2.66-.71,4a3.69,3.69,0,0,0,0,.73m2.69-15.62c-.24,1.33-.47,2.66-.71,4-1.8,0-3.6-.1-5.41-.2v-3.82c2,0,4.08,0,6.12,0m12.74-.52c-.06,1.46-.12,2.92-.19,4.38q-3.12.14-6.23.17c.25-1.4.49-2.81.74-4.22,1.9-.09,3.79-.19,5.68-.33m6.3,15.29q.38-8.9.76-17.77a3.79,3.79,0,0,0-.29-3.7c-1-1.81-3.61-2.1-5.25-.89a197.26,197.26,0,0,1-22.81.57,3.89,3.89,0,0,0-.86.07,3.3,3.3,0,0,0-3.66,3.34V126.6a3.81,3.81,0,0,0,.37,4.52,3.68,3.68,0,0,0,5.37,1,233.78,233.78,0,0,0,24.54-1.23c3.69-.38,4.31-5.27,1.83-6.61" style="fill:#00013a"/></g></g></svg>