<svg xmlns="http://www.w3.org/2000/svg" width="73.62" height="81.47" viewBox="0 0 73.62 81.47"><g id="Layer_2" data-name="Layer 2"><g id="Layer_1-2" data-name="Layer 1"><path d="M72.1,9.84A.91.91,0,0,0,72,9.76,75.83,75.83,0,0,1,62.37,4a2.27,2.27,0,0,0-2-.23A2.28,2.28,0,0,0,58.7,5q-6,10.49-12.59,20.68h0q-8.4,13.08-17.67,25.62L28.05,51,28,50.91l-.44-.35c-.3-.23-.6-.47-.89-.72q-1.71-1.44-3.33-3c-1-1-2-2-3-3.14-.5-.57-1-1.15-1.49-1.73l-.66-.79-.35-.46-.17-.22c0-.05-.07-.08-.08-.1a2.6,2.6,0,0,0-3.38-.8,2.43,2.43,0,0,0-.25.2,3.19,3.19,0,0,0-1.62.7,52.58,52.58,0,0,0-7.93,7.64A2.74,2.74,0,0,0,3.63,50a2.64,2.64,0,0,0,.74,1.78,2.2,2.2,0,0,0,.43.3,2.47,2.47,0,0,0,.63,1A113.7,113.7,0,0,1,25.57,80.1a2.15,2.15,0,0,0,2.2,1.23,2.65,2.65,0,0,0,3-.94A568.84,568.84,0,0,0,66.45,25.63h0q3.51-6.1,6.84-12.29A2.5,2.5,0,0,0,72.1,9.84Z" style="fill:#71d82e"/><path d="M24.85,71.36a118.13,118.13,0,0,0-19-25,51.67,51.67,0,0,1,5.35-5A65.35,65.35,0,0,0,23.69,53,2.54,2.54,0,0,0,27,52.39a2.64,2.64,0,0,0,1.29-1A485,485,0,0,0,58.16,6C60.07,7.25,62,8.43,64,9.5A570.12,570.12,0,0,1,24.85,71.36M68.46,6.2l-.12-.08A72.46,72.46,0,0,1,58.74.35a2.32,2.32,0,0,0-2-.23,2.28,2.28,0,0,0-1.68,1.2,485.55,485.55,0,0,1-30.27,46.3l-.39-.28-.06-.05-.45-.36L23,46.21q-1.73-1.43-3.33-3c-1.05-1-2.06-2-3-3.13-.51-.57-1-1.15-1.5-1.73l-.65-.8-.36-.45c-.06-.08-.47-.61-.17-.21A2.6,2.6,0,0,0,10.54,36l-.25.2a3.14,3.14,0,0,0-1.62.7A51.64,51.64,0,0,0,.74,44.53,2.72,2.72,0,0,0,0,46.32,2.54,2.54,0,0,0,.74,48.1a2.53,2.53,0,0,0,.42.31,2.63,2.63,0,0,0,.63,1A113.78,113.78,0,0,1,21.93,76.46a2.18,2.18,0,0,0,2.2,1.24,2.63,2.63,0,0,0,3-.94A570.7,570.7,0,0,0,69.67,9.71,2.51,2.51,0,0,0,68.46,6.2" style="fill:#141f47"/></g></g></svg>