<svg xmlns="http://www.w3.org/2000/svg" width="150.86" height="149.01" viewBox="0 0 150.86 149.01"><g id="Layer_2" data-name="Layer 2"><g id="Layer_1-2" data-name="Layer 1"><path d="M127.39,25C115.38,13.43,99.23,5.55,81.2,2.24,62.43-1.21,41.66-1.81,25.8,8.79,12.89,17.42,5.3,32.33,2,47.51c-6.16,28.41,2,60.11,23,80.28,20,19.28,51.46,25.15,78.12,18.72,25.33-6.11,43.28-38.46,45.56-62.4C151,59.76,142.4,39.5,127.39,25Z" style="fill:#d6d8dc"/><path d="M52.21,65.71a11.41,11.41,0,0,0,1.91-11.39,7.3,7.3,0,0,0-2.1-3,6.67,6.67,0,0,0-4.55-1.28,8.73,8.73,0,0,0-6.14,14.36C43.88,67.44,49.43,69,52.21,65.71Z" style="fill:#071d49"/><path d="M95.63,51.05A8.14,8.14,0,0,0,90,59.78c.47,3.24,3,5.49,5.86,6.66,2.7,1.09,5.37-.36,7.22-2.47a8.44,8.44,0,0,0,1.74-8.2A7.84,7.84,0,0,0,95.63,51.05Z" style="fill:#071d49"/><path d="M53.06,103.53c6.47-8,13.17-15,23.26-17.08s19.59,4.66,28.7,9.46" style="fill:none;stroke:#071d49;stroke-linecap:round;stroke-linejoin:round;stroke-width:7.42204904556274px"/><path d="M17.12,118.92A75.82,75.82,0,0,0,25,127.79c20,19.28,51.46,25.15,78.12,18.72,13.74-3.32,25.3-14.36,33.38-27.59Z" style="fill:#fbb03b"/><path d="M127.23,30.14C116.45,19.75,102,12.68,85.78,9.71,69,6.61,50.31,6.07,36.08,15.58,24.49,23.32,17.68,36.7,14.73,50.32c-5.54,25.49,1.81,53.93,20.6,72,18,17.3,46.16,22.57,70.09,16.79,22.72-5.48,38.82-34.5,40.87-56C148.36,61.31,140.69,43.13,127.23,30.14Z" style="fill:none;stroke:#071d49;stroke-linecap:round;stroke-linejoin:round;stroke-width:8.48234176635742px"/></g></g></svg>