<svg xmlns="http://www.w3.org/2000/svg" width="143.38" height="123.08" viewBox="0 0 143.38 123.08"><g id="Layer_2" data-name="Layer 2"><g id="Layer_1-2" data-name="Layer 1"><path d="M84.16,101.61q-14.49,10.13-29,20.28a.52.52,0,0,0-.07.11c-1.45,2.48-5.32.23-3.87-2.26,3.51-6,7-12.09,10.53-18.13Z" style="fill:#fcb53b"/><path d="M143.3,21.05a2.5,2.5,0,0,1-.45.81,2,2,0,0,1-1,2.21q-13.59,8.12-27.21,16.26a70.41,70.41,0,0,1,11.18,6.86,2.46,2.46,0,0,1,1.07,2,1.84,1.84,0,0,1-.42,2.48Q114.23,62,102,72.32l10.73,5.59a2.29,2.29,0,0,1,.81,3.06,2.11,2.11,0,0,1-1.3,1l-.07,0-28,19.61H61.75q5.34-9.23,10.67-18.4c-1-.67-2-1.3-3-1.88-.85-.49-1.74-1-2.64-1.41l-1.4-.67-.72-.31-.29-.13c-.05,0,0,0-.07,0a2.88,2.88,0,0,1-.91-.6,2,2,0,0,1-.77-2.93,99,99,0,0,1,20.64-22.8C80,50.9,76.69,49.38,73.4,47.84a1.87,1.87,0,0,1-1-1.52,2.36,2.36,0,0,1,.2-2.66Q88.11,24,103.34,4.15A2.51,2.51,0,0,1,107,3.9c.09,0,.18,0,.29.07q17.2,7.18,34.43,14.33a2.31,2.31,0,0,1,1.57,2.75" style="fill:#d6d8dc"/><path d="M106.48,34.84a2,2,0,0,0-1,1.9,2.2,2.2,0,0,0,.86,2.87,71.54,71.54,0,0,1,12.25,7l-24.88,21a1.85,1.85,0,0,0-.25,2.71,2,2,0,0,0,1,1.58l9.53,5L57.24,109.51,73.52,81.45a2.06,2.06,0,0,0,.86-.79,2.31,2.31,0,0,0-.8-3.06,51.45,51.45,0,0,0-9-5.29,93.15,93.15,0,0,1,20.71-21.6,2.31,2.31,0,0,0,.8-3.06A2.39,2.39,0,0,0,85,46.74a2.51,2.51,0,0,0-.31-.26L74.12,41.54Q88.51,23.33,102.65,4.93a1.71,1.71,0,0,0,.23.13l31.49,13.11L106.48,34.84m32-19.75L104.07.75a1.37,1.37,0,0,0-.29-.07,2.48,2.48,0,0,0-3.65.26Q84.88,20.8,69.34,40.43a2.39,2.39,0,0,0-.19,2.68,1.93,1.93,0,0,0,1,1.51L80,49.23A99.47,99.47,0,0,0,59.41,72,2,2,0,0,0,60.17,75a2.9,2.9,0,0,0,.92.61l0,0,.3.13.71.32c.48.21.94.44,1.41.67.9.44,1.78.91,2.65,1.41,1,.58,2,1.21,3,1.86Q58.6,98.25,48,116.52c-1.45,2.5,2.41,4.75,3.86,2.26a.75.75,0,0,1,.07-.12l57-39.88.06,0a2,2,0,0,0,1.29-1,2.27,2.27,0,0,0-.8-3.06L98.79,69.1l24.42-20.62a1.82,1.82,0,0,0,.43-2.47,2.42,2.42,0,0,0-1.07-2,71.06,71.06,0,0,0-11.17-6.86l27.21-16.26a2.05,2.05,0,0,0,1-2.21,2.42,2.42,0,0,0,.44-.8,2.3,2.3,0,0,0-1.57-2.75" style="fill:#141f47"/><path d="M60.05,94.17c-.18,1.49-1.67,2.79-3.19,1.67l-31.73-23a2.41,2.41,0,0,1-.4-3.49A2.34,2.34,0,0,1,25,68a2.57,2.57,0,0,1,1.35-1c1.11-.4,2.25-.82,3.39-1.22a58.39,58.39,0,0,0-14.4-11.38,2.05,2.05,0,0,1-.82-2.8,1.48,1.48,0,0,1,0-.42,2.23,2.23,0,0,1,1-1.32l5.68-2.42L5.41,37.24a2.28,2.28,0,0,1-1.14-4.18,67.26,67.26,0,0,1,22.34-8.9,2.82,2.82,0,0,1,.87,0,2.06,2.06,0,0,1,2.39.47q9.45,12.21,18.91,24.44a2.41,2.41,0,0,1,.39,2.57,2.26,2.26,0,0,1-1.61,2.26c-1.37.33-2.75.69-4.14,1q4.32,6.2,8.61,12.4a1.21,1.21,0,0,1,.2.09,2.12,2.12,0,0,1,1,1.32A2.2,2.2,0,0,1,53,70.44a2.29,2.29,0,0,1-1.32,1c-.91.36-1.83.72-2.75,1q5.94,9.36,11.83,18.72a2,2,0,0,1-.74,2.93" style="fill:#d6d8dc"/><path d="M26.32,67.31,29.81,66a2.35,2.35,0,0,0,2.64-.38,2.29,2.29,0,0,0,0-3.16,62.39,62.39,0,0,0-15-13.29l5.1-2.16c2.22.78,4-2.66,1.75-4.11L6.85,31.7a63.92,63.92,0,0,1,17.28-6.33L40.81,46.93l-3.91,1A2.18,2.18,0,0,0,35.53,49a2.22,2.22,0,0,0-.6,2.88l9.2,13.25-1.76.67a2.5,2.5,0,0,0-1.34,1,2.3,2.3,0,0,0-.22,1.72c0,.06,0,.1.07.16a2,2,0,0,0,.28,1.68q4.48,7.08,9,14.17L26.32,67.31M57.58,88,45.75,69.31l2.74-1a2.39,2.39,0,0,0,1.33-1,2.23,2.23,0,0,0-.8-3.06l-.21-.09-8.6-12.39,4.13-1a2.23,2.23,0,0,0,1.6-2.25,2.39,2.39,0,0,0-.38-2.58Q36.11,33.6,26.65,21.39a2.07,2.07,0,0,0-2.4-.47,2.55,2.55,0,0,0-.87,0A67.06,67.06,0,0,0,1.05,29.84,2.28,2.28,0,0,0,2.2,34L18,44.18l-5.68,2.4a2.22,2.22,0,0,0-1,1.33,2,2,0,0,0,0,.43,2,2,0,0,0,.84,2.78A58.81,58.81,0,0,1,26.49,62.51l-3.4,1.23a2.47,2.47,0,0,0-1.34,1,2.32,2.32,0,0,0-.24,1.36,2.4,2.4,0,0,0,.41,3.48l31.71,23c1.53,1.12,3-.18,3.2-1.68A2,2,0,0,0,57.58,88" style="fill:#152047"/></g></g></svg>