<svg xmlns="http://www.w3.org/2000/svg" width="159.11" height="192.56" viewBox="0 0 159.11 192.56"><g id="Layer_2" data-name="Layer 2"><g id="Layer_1-2" data-name="Layer 1"><path d="M3.63,132.41c2.19-8.87,3-18.36,3.87-27.53,1.15-12.8,2.34-26,7.12-38.32-.38-.3-.77-.59-1.13-.91C2.86,56.15.63,41,8.29,30.41c6-8.25,17.29-11.12,25.16-11.06a21.85,21.85,0,0,1,12.39,4,8.11,8.11,0,0,0,1.52-3.76,32.64,32.64,0,0,0,.26-3.39,25.11,25.11,0,0,1,.69-5.68A14.26,14.26,0,0,1,75.47,9.36a25.73,25.73,0,0,1,1.15,8.71v.69c.05,2.59.19,5.3,1.33,7.44.87,1.61,2.76,3.14,4.57,2.78a2.37,2.37,0,0,1,2.82,2.32c0,3.89-3.59,7.35-7.8,7.59l-.41,0c-3.29,0-6.59-1.63-9.3-4.67-.53-.59-1-1.21-1.51-1.84a14.86,14.86,0,0,0-2.67-2.87,9.08,9.08,0,0,0-6.82-1.24A22.65,22.65,0,0,0,52,29.74a26.53,26.53,0,0,1,2.14,3.76c4.29,9.27,3.45,20.39-2.13,28.32A24.48,24.48,0,0,1,48,66.3,3,3,0,0,1,48.72,68c2.13,24.9,5.08,45.6,12.54,65.69a3,3,0,0,1-2.6,4,2.82,2.82,0,0,1-.91-.09A115.47,115.47,0,0,0,7.07,136a3,3,0,0,1-3.44-3.61Z" style="fill:#d6d8dc"/><path d="M146.42,102.27c-1.36-14.51-4.72-27.47-9.95-38.63.36-.33.74-.64,1.09-1,10-10.11,11.38-25.37,3.11-35.48-6.45-7.89-17.92-10.08-25.78-9.56a21.2,21.2,0,0,0-5.67,1.18,23.33,23.33,0,0,1-.65-5.77,2.37,2.37,0,1,0-4.73-.06,28.07,28.07,0,0,0,.67,6.53,12.43,12.43,0,0,0-5.23-3A2.36,2.36,0,1,0,98,21a7.72,7.72,0,0,1,3.65,2.33c-.33.29-.64.59-1,.91a34.8,34.8,0,0,0-8.41.24,2.37,2.37,0,0,0,.35,4.71,2.19,2.19,0,0,0,.36,0,30.13,30.13,0,0,1,4.13-.34A26.66,26.66,0,0,0,95.05,33c-3.73,9.52-2.24,20.56,3.8,28.15a24.39,24.39,0,0,0,4.32,4.24,2.94,2.94,0,0,0-.65,1.76c0,.73-.1,3-.21,6.24-2,55.6-1.7,55.84-.28,57.19a3,3,0,0,0,2.32.8,178.69,178.69,0,0,1,26.08-.57,36.81,36.81,0,0,1,4.56.64,25.74,25.74,0,0,0,4.54.57,6.89,6.89,0,0,0,4.46-1.39c2.41-1.9,2.84-5.2,2.95-7.51A146.31,146.31,0,0,0,146.42,102.27Z" style="fill:#d6d8dc"/><path d="M100.92,119.83c-.1,9.5.33,9.91,1.11,10.65a3,3,0,0,0,2.32.8,178.69,178.69,0,0,1,26.08-.57,36.81,36.81,0,0,1,4.56.64,24.84,24.84,0,0,0,4.54.57,6.89,6.89,0,0,0,4.46-1.39c2.41-1.9,2.84-5.19,2.95-7.5.05-1.06.07-2.13.1-3.2Z" style="fill:#fbb03b"/><path d="M56.86,119.93H5.91a115.86,115.86,0,0,1-2.28,12.48A3,3,0,0,0,7.07,136a115.42,115.42,0,0,1,50.67,1.59,2.91,2.91,0,0,0,.92.09,3,3,0,0,0,2.6-4C59.57,129.17,58.13,124.58,56.86,119.93Z" style="fill:#fbb03b"/><path d="M41.66,40.27A2.4,2.4,0,0,0,40,41a3.62,3.62,0,0,0-.74,1.4,5.63,5.63,0,0,0,.91,5c1.1,1.37,3.17.44,4.08-1a4.62,4.62,0,0,0,.37-4.09A3.15,3.15,0,0,0,41.66,40.27Z" style="fill:#071d49"/><path d="M27.53,46a4.11,4.11,0,0,0,2.1-3.19,3.42,3.42,0,0,0-2.27-3.66A3.13,3.13,0,0,0,24,41.57a4.16,4.16,0,0,0,.79,3.58C25.5,46,26.53,46.55,27.53,46Z" style="fill:#071d49"/><path d="M86,28.87c-1.81.37-3.71-1.14-4.59-2.75C80.21,24,80,21.29,80,18.7L80,18a25.74,25.74,0,0,0-1.23-8.7,14.26,14.26,0,0,0-27.15,1.44,25.72,25.72,0,0,0-.64,5.69,32.84,32.84,0,0,1-.23,3.39,8.13,8.13,0,0,1-1.48,3.77,21.78,21.78,0,0,0-12.39-3.91h0c-7.88,0-19.17,3-25.07,11.29C4.17,41.63,6.54,56.76,17.26,66.17c.13.12.28.22.42.34a2.91,2.91,0,0,0-1.82,1.22,35,35,0,0,1-5.95,6.21C9,74.79,8,75.64,7.08,76.52,2.5,80.93.19,85.24,0,89.7c-.19,4.7,2.09,8.79,4.1,12.4,1.79,3.21,3.48,6.24,3.36,9.28a3,3,0,0,0,2.84,3.08h.12a3,3,0,0,0,.42,0A138.62,138.62,0,0,1,8,133a3,3,0,0,0,3.47,3.59c2.1-.43,4.2-.8,6.32-1.1A168.36,168.36,0,0,0,16.13,183a22.89,22.89,0,0,0-7.65,4.37,3,3,0,0,0,3.85,4.49,14.21,14.21,0,0,1,7.3-3.56A3,3,0,0,0,22.32,185,162.22,162.22,0,0,1,24,134.78a116,116,0,0,1,25.74.55,283.61,283.61,0,0,0,3.18,48.28l-5.5,2.54a3,3,0,0,0,1.25,5.64,2.89,2.89,0,0,0,1.24-.27L57.38,188a3,3,0,0,0,1.68-3.16,277.38,277.38,0,0,1-3.47-48.6c2.21.42,4.4.89,6.58,1.44a3,3,0,0,0,3.48-3.93,175.74,175.74,0,0,1-8.07-28.55,2.85,2.85,0,0,0,1.51-1l10.13-13a12.35,12.35,0,0,0,2.67-5,9.61,9.61,0,0,0-3.28-8.85,23.4,23.4,0,0,0-5.52-3.51l-.93-.47a52.33,52.33,0,0,1-9.86-6.62,3.17,3.17,0,0,0-.54-.36,24.89,24.89,0,0,0,4-4.48c5.51-8,6.24-19.11,1.87-28.35a25.79,25.79,0,0,0-2.17-3.73,22.67,22.67,0,0,1,4.79-1.5,9.16,9.16,0,0,1,6.83,1.17,14.89,14.89,0,0,1,2.7,2.86c.5.62,1,1.23,1.52,1.82,2.7,3,6,4.58,9.18,4.58h.17c4.38-.08,8.18-3.66,8.14-7.67A2.37,2.37,0,0,0,86,28.87ZM58,23.48a2.83,2.83,0,0,0-.06.57,29.87,29.87,0,0,0-4.36,1.5,13.4,13.4,0,0,0,1.77-5.06c0-.26,0-.51.07-.77l.09,0A3,3,0,0,1,58,23.48ZM36.81,25.61h0c6.55,0,12.32,3.95,15.46,10.57a22.66,22.66,0,0,1,.91,2.23A46.61,46.61,0,0,1,34.78,25.69C35.47,25.64,36.15,25.61,36.81,25.61Zm-10,1.72a6,6,0,0,1-1.51,1.82,6.3,6.3,0,0,1-4.65,1.27A24.87,24.87,0,0,1,26.79,27.33ZM9.28,99.22C7.49,96,5.8,93,5.92,89.94c.12-2.87,1.84-5.86,5.26-9.15.87-.83,1.77-1.63,2.67-2.43L15.4,77C13.28,85.87,12.47,95,11.74,104A51.56,51.56,0,0,0,9.28,99.22Zm46.05,31a3,3,0,0,0-2.51-1.59,3,3,0,0,0-2.17.86A121.68,121.68,0,0,0,14.7,130a224.87,224.87,0,0,0,2.82-24.06c1-12.55,2-24.48,6-35.69a27,27,0,0,0,14.61,2.29,25.71,25.71,0,0,0,8.58-2.64c1.79,18.66,4.36,40,11.54,60.88C57.29,130.58,56.31,130.42,55.33,130.25Zm5.08-51a19,19,0,0,1,4.2,2.59,3.88,3.88,0,0,1,1.49,3.26,7.71,7.71,0,0,1-1.54,2.55L56.28,98.22C55,90.81,54,83.09,53.18,74.93a61.2,61.2,0,0,0,6.26,3.78ZM50.9,58.63a19,19,0,0,1-13.47,8,21,21,0,0,1-12.6-2.39,3,3,0,0,0-1.49-1.42,3,3,0,0,0-1-.23c-.39-.29-.78-.58-1.15-.9C14,55.43,10,43.72,16.56,34.41c.1-.15.22-.28.33-.43a2.26,2.26,0,0,0,.95.64,11.09,11.09,0,0,0,10.39-1.78,10.75,10.75,0,0,0,3.06-3.94A51.19,51.19,0,0,0,54.43,43.82,22.06,22.06,0,0,1,50.9,58.63ZM80.58,34.11c-1.88,0-4-1.07-5.76-3-.47-.51-.9-1.05-1.33-1.59a19.05,19.05,0,0,0-3.63-3.73,12.52,12.52,0,0,0-7-2.25,7.75,7.75,0,0,0-6.55-8.43,2.44,2.44,0,0,0-.54,0,16.2,16.2,0,0,1,.42-3.11,9.53,9.53,0,0,1,18.14-1,22.28,22.28,0,0,1,.93,7.15l0,.7c.08,3,.31,6.51,2,9.56a10.22,10.22,0,0,0,5.7,4.87A4.07,4.07,0,0,1,80.58,34.11Z" style="fill:#071d49"/><path d="M115.45,56a2.37,2.37,0,0,0,4.29,2,6.78,6.78,0,0,1,5.75-3.82l.94,0c1.78-.09,2.1-.11,3.21.69a2.37,2.37,0,0,0,2.77-3.84,8.28,8.28,0,0,0-6.23-1.58l-.88,0A11.64,11.64,0,0,0,115.45,56Z" style="fill:#071d49"/><path d="M157.92,184a22.94,22.94,0,0,0-7.93-3.84,168.31,168.31,0,0,0-4.94-47.42,6.11,6.11,0,0,0,2.29-1.12c2.41-1.9,2.84-5.2,2.95-7.51a146.31,146.31,0,0,0-.52-20.8c-.33-3.57-.8-7-1.37-10.41a9.82,9.82,0,0,0,4.44-4.62c1.24-2.81,1-6.15-.74-10.2a39.48,39.48,0,0,0-10.95-14.66C151,53.33,152.22,38.26,144,28.23c-6.45-7.89-17.92-10.09-25.78-9.56a21.2,21.2,0,0,0-5.67,1.18,23.33,23.33,0,0,1-.65-5.77,2.37,2.37,0,1,0-4.73-.06,28.07,28.07,0,0,0,.67,6.53,12.43,12.43,0,0,0-5.23-3.05,2.36,2.36,0,1,0-1.29,4.55A7.72,7.72,0,0,1,105,24.38c-.33.29-.64.59-.95.91a34.8,34.8,0,0,0-8.41.24,2.36,2.36,0,0,0,.35,4.7,2.17,2.17,0,0,0,.36,0,30.13,30.13,0,0,1,4.13-.34A26.66,26.66,0,0,0,98.4,34c-3.73,9.51-2.24,20.56,3.8,28.15a24.57,24.57,0,0,0,3.91,3.92,38,38,0,0,0-6.2,10.2c-1.9,4.68-1.54,8.64,1,11.15a7.81,7.81,0,0,0,4.2,2.06c-1.37,40.56-1,40.89.24,42.1a3.07,3.07,0,0,0,1.72.79,278.62,278.62,0,0,1,.19,52.62,3,3,0,0,0,1.89,3l7.74,3a2.84,2.84,0,0,0,1.06.2,3,3,0,0,0,1.06-5.72l-5.66-2.17A284.59,284.59,0,0,0,113,132a172.34,172.34,0,0,1,20.78-.17,36.81,36.81,0,0,1,4.56.64l.55.1a162.2,162.2,0,0,1,5.06,50,3,3,0,0,0,2.91,3.12,14.26,14.26,0,0,1,7.53,3.06,3,3,0,0,0,3.53-4.75ZM139.48,83.25a3,3,0,0,0-3.32-2.54q-5.25.71-10.55,1.3a53.1,53.1,0,0,0-12.24-4.92,2.9,2.9,0,0,0-1.89.15c0-1,.07-1.85.09-2.64.08-2.24.15-4,.18-5.14a25.74,25.74,0,0,0,8.74,2c.5,0,1,0,1.49,0a26.84,26.84,0,0,0,13-3.33,100.77,100.77,0,0,1,6.62,20.4,18.18,18.18,0,0,1-7.31-1.67l2.7-.34A3,3,0,0,0,139.48,83.25Zm-28.18-.67a3.13,3.13,0,0,0,.6.24c.55.14,1.07.3,1.59.46l-2.22.2Zm35.36-2.14c1.05,2.46,1.3,4.25.76,5.48a2.52,2.52,0,0,1-.29.46Q145.92,81,144.26,75.9A33.34,33.34,0,0,1,146.66,80.44ZM139.44,32A18,18,0,0,1,142,36.21l-1.45.42c-1.15.17-4.61-4-7.16-9.28A17.8,17.8,0,0,1,139.44,32Zm-20.8-7.4c.61,0,1.25-.07,1.89-.07a31.35,31.35,0,0,1,9.21,1.39,1.32,1.32,0,0,0-.2.12c-2.26,1.82-13.9,3.46-21.45,4a2.32,2.32,0,0,0-.59.15A16.07,16.07,0,0,1,118.64,24.58Zm-16.28,22.2a23.77,23.77,0,0,1,1.55-10.6,21.56,21.56,0,0,1,2-3.83c-1.09,6-2.38,12.54-2.85,14.26A3.81,3.81,0,0,1,102.36,46.78Zm.87,4.67c1.66-.32,3.42-1.07,4.1-2.76.56-1.42,2.14-9.68,3-14.06,4.53-.41,14.43-1.51,19.72-3.58a46,46,0,0,0,2.51,4.16c1.23,1.8,5,7.27,9.39,6l1.43-.43c1,6.92-2,14.1-6.62,18.79-.34.35-.72.66-1.08,1a3.12,3.12,0,0,0-1,.29,2.93,2.93,0,0,0-1.38,1.53,21,21,0,0,1-12.41,3.23,18.93,18.93,0,0,1-14-7.09A20.66,20.66,0,0,1,103.23,51.45Zm1.85,31.75c-.68-.67-.56-2.55.31-4.69a2.92,2.92,0,0,1,.14-.31c-.06,1.78-.13,3.51-.18,5.18A1.06,1.06,0,0,1,105.08,83.2Zm5.09,43c-.06-6.48.45-23.33.89-36.8q6.66-.59,13.34-1.33c1.18.68,2.32,1.39,3.42,2.09a26.09,26.09,0,0,0,13.62,4.31c.41,0,.81,0,1.21,0,.51,3.06.93,6.19,1.23,9.41a139.06,139.06,0,0,1,.5,20c-.13,2.66-.7,3.14-.71,3.15a2,2,0,0,1-1.12.11,2.9,2.9,0,0,0-1.91-.25l-1.22-.22a42,42,0,0,0-5.32-.73A181.83,181.83,0,0,0,110.17,126.24Z" style="fill:#071d49"/><path d="M116.81,46.55a5.6,5.6,0,0,0,.56-5,3.57,3.57,0,0,0-.83-1.35,2.42,2.42,0,0,0-1.74-.64A3.17,3.17,0,0,0,112,41.78a4.64,4.64,0,0,0,.65,4.06C113.67,47.21,115.8,48,116.81,46.55Z" style="fill:#071d49"/><path d="M129.28,44.25c1,.52,2-.09,2.7-1a4.1,4.1,0,0,0,.55-3.62A3.11,3.11,0,0,0,129,37.41a3.39,3.39,0,0,0-2,3.8A4.1,4.1,0,0,0,129.28,44.25Z" style="fill:#071d49"/><path d="M40.4,55.21a36.16,36.16,0,0,0-12.76-2.3,2.37,2.37,0,1,0,0,4.74,31.56,31.56,0,0,1,10.94,1.92,2.51,2.51,0,0,0,.92.18,2.37,2.37,0,0,0,.94-4.54Z" style="fill:#071d49"/></g></g></svg>