<svg xmlns="http://www.w3.org/2000/svg" width="181.21" height="142.83" viewBox="0 0 181.21 142.83"><g id="Layer_2" data-name="Layer 2"><g id="Layer_1-2" data-name="Layer 1"><path d="M179.1,128c-3.18-15.63-6.3-47.7-3.63-64.8a3.71,3.71,0,0,0-3.78-4.28,3.7,3.7,0,0,0-.85-4L146,30.3a3.71,3.71,0,0,0-2.72-1.08L93.61,30.45a3.74,3.74,0,0,0,0-1.53,56.44,56.44,0,0,1,.92-24.26A3.71,3.71,0,0,0,90.94,0L69.27.17a3.73,3.73,0,0,0-3.69,3.69l-.09,11c-3.41-2.45-6.84-4.87-10.3-7.23A3.71,3.71,0,0,0,49.62,12l-.11.09C34.34,28,18.38,43.64,2.07,58.45A3.71,3.71,0,0,0,.86,61.23,3.71,3.71,0,0,0,0,64.13c3.39,23.16,5.76,46.74,7.09,70.15a3.71,3.71,0,0,0,1.24,7.2h.41a3.7,3.7,0,0,0,2.31.83h.2a3.65,3.65,0,0,0,2.3-1c20.39-.66,49.85-1.32,78.41-2,31.06-.7,63.17-1.43,83.59-2.14a3.72,3.72,0,0,0,3.59-3.85,3.68,3.68,0,0,0-.88-2.23A3.66,3.66,0,0,0,179.1,128Z" style="fill:#d6d8dc"/><path d="M179.15,127.57c-.9-4.45-1.8-10.22-2.57-16.6H5.54q1,11.43,1.63,22.86A3.71,3.71,0,0,0,8.42,141h.41a3.7,3.7,0,0,0,2.31.83h.19a3.66,3.66,0,0,0,2.31-1c20.39-.66,49.84-1.32,78.41-2,31.06-.7,63.17-1.43,83.59-2.14a3.71,3.71,0,0,0,3.58-3.85,3.67,3.67,0,0,0-.87-2.23A3.66,3.66,0,0,0,179.15,127.57Z" style="fill:#fbb03b"/><path d="M42.68,105.08c0-1.09-.09-2.18-.1-3.27l5.43,0c0,1-.07,2.08-.1,3.11Zm-10.32.43c-.06-1.21-.11-2.41-.13-3.61l3.36,0c0,1.17.06,2.33.12,3.5Zm3.71-14.38c-.13,1.25-.23,2.5-.31,3.75l-3.42,0c.07-1.28.15-2.55.26-3.83l3.47,0m12.29.19-.12,3.45-5.48,0c.07-1.19.17-2.39.29-3.58l5.31.08m6.52,14,.58-17.39A3.17,3.17,0,0,0,52,84.53a3.72,3.72,0,0,0-1-.16L28.32,84c-3.33,0-4.19,3.76-2.59,5.77a101.46,101.46,0,0,0-.25,17.69,3.57,3.57,0,0,0,.89,2.13,3.09,3.09,0,0,0,3.34,3l23.07-1c3.61-.15,4.32-4.72,2.1-6.38" style="fill:#00013a"/><path d="M86.75,105.08c0-1.09-.09-2.18-.1-3.27l5.43,0c0,1-.07,2.08-.1,3.11Zm-10.32.43c-.06-1.21-.11-2.41-.13-3.61l3.36,0c0,1.17.06,2.33.12,3.5Zm3.71-14.38c-.13,1.25-.23,2.5-.31,3.75l-3.42,0c.06-1.28.15-2.55.26-3.83l3.47,0m12.29.19-.12,3.45-5.49,0c.08-1.19.18-2.39.3-3.58l5.31.08m6.52,14,.58-17.39a3.17,3.17,0,0,0-3.45-3.36,3.72,3.72,0,0,0-1-.16L72.39,84c-3.33,0-4.19,3.76-2.59,5.77a100.48,100.48,0,0,0-.25,17.69,3.46,3.46,0,0,0,.89,2.13,3.09,3.09,0,0,0,3.34,3l23.07-1c3.61-.15,4.32-4.72,2.1-6.38" style="fill:#00013a"/><path d="M181.14,128.84c-3.11-15.3-6.17-46.72-3.56-63.47a3.62,3.62,0,0,0-3.7-4.19,3.63,3.63,0,0,0-.83-3.88L148.71,33.13a3.59,3.59,0,0,0-2.65-1.06l-48.67,1.2a3.55,3.55,0,0,0,0-1.49A55.28,55.28,0,0,1,98.34,8a3.62,3.62,0,0,0-.65-3.16,3.67,3.67,0,0,0-2.9-1.4l-21.23.17A3.63,3.63,0,0,0,70,7.23L69.86,18c-3.35-2.4-6.7-4.78-10.09-7.09a3.64,3.64,0,0,0-5.46,4.29l-.11.09C39.35,30.9,23.71,46.19,7.73,60.7a3.59,3.59,0,0,0-1.18,2.72,3.63,3.63,0,0,0-.81,2.85C9.06,89,11.39,112.05,12.68,135A3.63,3.63,0,0,0,13.91,142h.4a3.59,3.59,0,0,0,2.26.81h.19a3.59,3.59,0,0,0,2.26-1c20-.64,48.82-1.29,76.8-1.92,30.42-.68,61.88-1.39,81.88-2.09a3.64,3.64,0,0,0,3.51-3.77,3.6,3.6,0,0,0-.85-2.19A3.63,3.63,0,0,0,181.14,128.84Zm-7,1.84c-3.89.13-8.14.26-12.68.38a3.68,3.68,0,0,0,.13-2,121.81,121.81,0,0,1-1.82-43.19,3.65,3.65,0,0,0-4.74-4,42.18,42.18,0,0,1-20,1.48,3.63,3.63,0,0,0-4.24,3.39c-.83,15-1,30.11-.59,45.09l-11.46.27A3.58,3.58,0,0,0,119,130c-3-17.17-3.05-35.39-3.11-53,0-1.66,0-3.33,0-5l53.92-3.23C168.09,87,171,115.33,174,130.3,174,130.43,174.07,130.55,174.11,130.68ZM137.85,91.07a49.81,49.81,0,0,0,14.05-.83,129.16,129.16,0,0,0,2.55,40.4,3.11,3.11,0,0,0,.2.61c-5.44.15-11.2.29-17.17.44C137.09,118.2,137.2,104.56,137.85,91.07ZM167,61.58l-51.17,3.06c0-2.92-.09-5.84-.17-8.73a3.63,3.63,0,0,0-2.49-3.33q-6.91-6.15-14.09-12.06l45.58-1.13ZM77.13,19.37l.07-8.5,13.07-.1a62.64,62.64,0,0,0,0,22.31c0,.13.07.25.1.37Q83.13,27.72,75.7,22.22A3.61,3.61,0,0,0,77.13,19.37ZM95.66,132.66c-27.45.61-55.75,1.25-75.7,1.88-1.3-23-3.63-46.08-6.94-68.81C29,51.21,44.63,35.92,59.48,20.28a4,4,0,0,0,.37-.47A532.62,532.62,0,0,1,108.44,58.1c.15,6.26.18,12.66.2,18.87.06,17.92.12,36.45,3.22,54.23a3.56,3.56,0,0,0,.38,1.08Z" style="fill:#00013a"/></g></g></svg>