<svg xmlns="http://www.w3.org/2000/svg" viewBox="0 0 73.92 70.07"><g id="check"><path id="check-grey" d="M72.08,8.43A.42.42,0,0,0,72,8.36a78.29,78.29,0,0,1-9.6-4.95,2.62,2.62,0,0,0-2-.2,2.32,2.32,0,0,0-1.7,1c-4,6-8.2,11.92-12.59,17.73h0q-8.4,11.22-17.67,22L28,43.69l-.07,0-.44-.3c-.3-.2-.6-.4-.89-.62q-1.71-1.23-3.33-2.55c-1-.87-2-1.76-3-2.7-.51-.49-1-1-1.5-1.48-.22-.23-.44-.45-.65-.68l-.36-.39-.16-.18a.36.36,0,0,0-.09-.09A2.86,2.86,0,0,0,14.15,34l-.25.17a3.3,3.3,0,0,0-1.61.61,49.54,49.54,0,0,0-7.94,6.54,2.21,2.21,0,0,0-.74,1.54,2.13,2.13,0,0,0,.74,1.53,1.89,1.89,0,0,0,.44.26,2,2,0,0,0,.62.85,100,100,0,0,1,20.14,23.2,2.25,2.25,0,0,0,2.2,1.06,2.91,2.91,0,0,0,3-.81A486.86,486.86,0,0,0,66.43,22h0c2.34-3.49,4.63-7,6.84-10.54C74.08,10.15,73.26,8.94,72.08,8.43Z" style="fill:#d6d8dc"/><path id="red-fill" d="M31.83,39.94c-1.13,1.33-2.25,2.67-3.39,4l-.39-.25a.14.14,0,0,0-.07,0l-.43-.3c-.31-.2-.61-.41-.89-.62q-1.72-1.23-3.33-2.55c-1-.87-2-1.76-3-2.7-.5-.49-1-1-1.49-1.48l-.66-.68-.35-.39s-.1-.12-.17-.19l-.08-.08A2.86,2.86,0,0,0,14.17,34a2.2,2.2,0,0,0-.25.17,3.43,3.43,0,0,0-1.62.6,49.52,49.52,0,0,0-7.93,6.55,2.19,2.19,0,0,0-.74,1.54,2.11,2.11,0,0,0,.74,1.53,2.58,2.58,0,0,0,.43.26,2.06,2.06,0,0,0,.63.85,99.93,99.93,0,0,1,20.13,23.2,2.24,2.24,0,0,0,2.21,1,2.89,2.89,0,0,0,3-.8q12.13-14.13,23.07-29Z" style="fill:#fc7b75"/><path id="check-outline" d="M24.85,61.18a105.08,105.08,0,0,0-19-21.45,51,51,0,0,1,5.35-4.29,62.75,62.75,0,0,0,12.49,10A2.84,2.84,0,0,0,27,44.92a2.66,2.66,0,0,0,1.28-.82,413.48,413.48,0,0,0,29.92-39c1.9,1.07,3.85,2.08,5.86,3a486.54,486.54,0,0,1-39.17,53M68.46,5.32l-.12-.07A75.55,75.55,0,0,1,58.74.3a2.64,2.64,0,0,0-2-.2,2.31,2.31,0,0,0-1.69,1,414,414,0,0,1-30.26,39.7l-.39-.24-.06-.05-.45-.3L23,39.62c-1.14-.82-2.25-1.67-3.32-2.56s-2.06-1.76-3-2.69c-.51-.49-1-1-1.5-1.48l-.65-.69-.36-.38L14,31.63a2.85,2.85,0,0,0-3.45-.77l-.25.17a3.36,3.36,0,0,0-1.62.6A49.08,49.08,0,0,0,.74,38.18,2.15,2.15,0,0,0,0,39.71a2,2,0,0,0,.74,1.53,2.52,2.52,0,0,0,.42.27,2.26,2.26,0,0,0,.63.84A100.22,100.22,0,0,1,21.93,65.56a2.27,2.27,0,0,0,2.2,1,2.89,2.89,0,0,0,3-.8A486,486,0,0,0,69.66,8.32c.81-1.29,0-2.5-1.2-3" style="fill:#141f47"/></g></svg>