<svg xmlns="http://www.w3.org/2000/svg" width="287.96" height="121.24" viewBox="0 0 287.96 121.24"><g id="Layer_2" data-name="Layer 2"><g id="Layer_1-2" data-name="Layer 1"><path d="M269.94,114.69c.12,2.15-1.79,3.59-3.76,3.77L249.48,120a5.13,5.13,0,0,1-4.43-4.51c.57-10.07.84-20.17.75-30.24h21.54q.59,13.41,1.53,26.8a4.45,4.45,0,0,1,1.07,2.63" style="fill:#fbb03b"/><path d="M143.08,85.26c-2.21,9.47-4.75,18.89-7.59,28.18a3.6,3.6,0,0,1-.36.83,3.38,3.38,0,0,1,0,1c-.51,2.15-2.69,2.93-4.63,2.63s-2.9-.42-4.91-.63c-1.67-.18-3.37-.3-5-.42-3.53-.21-7-.27-10.61-.18a3.69,3.69,0,0,1-3.65-3,3.87,3.87,0,0,1-.44-3.92c3.4-8,6.51-16.16,9.29-24.41Z" style="fill:#fbb03b"/><path d="M195,119.23a3.89,3.89,0,0,1-2.42.93H178a3.52,3.52,0,0,1-2.45-1,3.26,3.26,0,0,1-3-2.66,232.09,232.09,0,0,0-9.71-31.28h27.28q4.79,14.61,9.2,29.4c.93,3.08-2,5-4.42,4.57" style="fill:#fbb03b"/><path d="M82,108.9c-10.4,14.1-30.24,15-45.24,8.36A53.26,53.26,0,0,1,8.19,85.41c0-.06,0-.09-.06-.15H39.89a26.32,26.32,0,0,0,2.84,3C48.67,93.75,58,95.78,65.4,92.37A4.24,4.24,0,0,1,67.11,92a3.91,3.91,0,0,1,2.48-1,4.07,4.07,0,0,1,2.68,1.11,43.87,43.87,0,0,1,9.33,10.9,3.53,3.53,0,0,1,.5,2.15A3,3,0,0,1,82,108.9" style="fill:#fbb03b"/><path d="M288,27.63a3.77,3.77,0,0,1-2.75,3.62,4.23,4.23,0,0,1-2,.6,3.28,3.28,0,0,1-1.76-.45h-15c-.15,18,.12,35.94.89,53.86H245.8a502.18,502.18,0,0,0-3.28-55.63L222.38,30a3.68,3.68,0,0,1-1.25,0c-2.13-.48-3-2.7-2.66-4.64.27-1.43.47-2.83.68-4.27.06-.33.09-.66.15-1a.25.25,0,0,1,0-.14v-.15l.27-2.15c.33-2.78.57-5.59.72-8.4a3.89,3.89,0,0,1,3.76-3.79,3.4,3.4,0,0,1,2,.59q26.17,1.17,52.38,2.28a4.33,4.33,0,0,1,1.19.23,4.48,4.48,0,0,1,2.39-.92,3.88,3.88,0,0,1,3.8,3.79c.29,4.51.62,9,.92,13.57A4,4,0,0,1,288,27.63" style="fill:#d6d8dc"/><path d="M190.17,85.26H162.89q-3.36-8.6-7.41-16.94H146.7c-1.11,5.68-2.3,11.33-3.62,16.94h-28A341.72,341.72,0,0,0,131.16,12.6a4,4,0,0,1,1-2.2,4.49,4.49,0,0,1,3.29-1.89,98.25,98.25,0,0,1,22-.47,4.06,4.06,0,0,1,2.72,1.25,3.86,3.86,0,0,1,3.38,2.48Q178,48.07,190.17,85.26" style="fill:#d6d8dc"/><path d="M82.19,24.94a3.18,3.18,0,0,1-.83,1.29L70,36.42a3.75,3.75,0,0,1-2.15.95,4,4,0,0,1-5.17-1.1c-2-2.78-6-3.32-9.11-2.54-4.15,1-7.44,4.27-10,7.5-5.53,6.9-9.42,15.71-9.72,24.62a29.85,29.85,0,0,0,6.07,19.42H8.13C3.08,69.7,5.35,52.55,12.2,37.94,18.74,23.87,30.6,10.51,46.07,6.48,59.64,3,75.89,8.15,82.37,21.18a3.7,3.7,0,0,1-.18,3.76" style="fill:#d6d8dc"/><path d="M36.32,105.8a45.32,45.32,0,0,1-25.26-25C1.35,56.6,12.43,23.13,36,10.92,46.8,5.3,61.77,6.64,68.92,17L61,24.14C55.91,20,48.79,19.49,42.62,22.38c-8.09,3.79-13.93,12.51-17.48,20.43-7.32,16.36-5.3,37.74,10.6,48.39a29,29,0,0,0,27.52,2.51,41.18,41.18,0,0,1,4.14,4.42c.63.84,1.2,1.71,1.77,2.59-7.8,9.16-22.45,9-32.85,5.08m39.89-8.12a43.26,43.26,0,0,0-9.35-10.91,4.06,4.06,0,0,0-2.67-1.1,3.88,3.88,0,0,0-2.47.94A4.11,4.11,0,0,0,60,87c-7.45,3.38-16.75,1.36-22.71-4.06-6.23-5.68-9.15-14.18-8.88-22.49.29-8.9,4.16-17.72,9.71-24.6,2.6-3.23,5.89-6.48,10-7.51,3.12-.78,7.11-.24,9.12,2.53A4,4,0,0,0,62.46,32a4,4,0,0,0,2.15-1L76,20.82a3.28,3.28,0,0,0,.84-1.28A3.69,3.69,0,0,0,77,15.79C70.5,2.74,54.23-2.45,40.68,1.08c-15.47,4-27.35,17.4-33.9,31.45-6.85,14.69-9.1,31.9-4,47.49a53.23,53.23,0,0,0,28.55,31.83c15,6.62,34.81,5.75,45.21-8.37a3,3,0,0,0,.15-3.66,3.46,3.46,0,0,0-.49-2.14" style="fill:#071d49"/><path d="M156,57.94a5.63,5.63,0,0,0-.38-.6,3.7,3.7,0,0,0-3.25-2H140.54a3.84,3.84,0,0,0-2.41.92A3.15,3.15,0,0,0,134.4,59a443.11,443.11,0,0,1-11.18,45.7,126.18,126.18,0,0,0-14.53-1,355.89,355.89,0,0,0,24.22-93.36,99.42,99.42,0,0,1,18.58-.18q19.06,47.79,34,97.07H174a238.72,238.72,0,0,0-18-49.28M194,109.25Q178.36,57,158.06,6.36a3.92,3.92,0,0,0-3.38-2.49A4.28,4.28,0,0,0,152,2.64a99,99,0,0,0-22,.45A4.57,4.57,0,0,0,126.72,5a3.87,3.87,0,0,0-1,2.2,343.59,343.59,0,0,1-25.37,97.07,3.94,3.94,0,0,0,.43,3.93,3.76,3.76,0,0,0,3.67,3c3.53-.09,7.06,0,10.59.17,1.69.1,3.38.24,5.06.42,2,.21,3,.35,4.88.63s4.15-.49,4.64-2.64a3.78,3.78,0,0,0,.08-1,5.62,5.62,0,0,0,.35-.82,442.89,442.89,0,0,0,11.18-45.12h8.79a230.18,230.18,0,0,1,17.12,48.21,3.26,3.26,0,0,0,2.95,2.67,3.65,3.65,0,0,0,2.48,1h14.49a3.81,3.81,0,0,0,2.44-.94c2.45.41,5.33-1.48,4.41-4.58" style="fill:#071d49"/><path d="M151,35.82a9.81,9.81,0,0,0-1.8-2.8,3.66,3.66,0,0,0-.47-1.6,3.76,3.76,0,0,0-5.16-1.36,3.74,3.74,0,0,0-1.73,2.26,74.16,74.16,0,0,1-2.55,9c0,.33-.09.67-.13,1a2.88,2.88,0,0,0,.32,1.45A3.9,3.9,0,0,0,141,45.57c3.35,2.2,8.27.34,9.89-3.17a7.54,7.54,0,0,0,.79-3.43,8.51,8.51,0,0,0-.71-3.15" style="fill:#071d49"/><path d="M260.19,18.46c-2-2.16-6.6-1.35-6.66,2.46q-.6,42.55,2.35,85.05l-8.52.79A502.61,502.61,0,0,0,244.29,21a2.88,2.88,0,0,0,0-.59,3.83,3.83,0,0,0-3.77-3.78L221.08,17c.39-2.91.74-5.84,1-8.77l51,2.2h.13l.56,8.05Zm22.37,3.77a4,4,0,0,0-1.16-2.68q-.47-6.8-.95-13.58a3.83,3.83,0,0,0-3.76-3.77,4.24,4.24,0,0,0-2.4.92,4.13,4.13,0,0,0-1.2-.25L220.71.61a3.51,3.51,0,0,0-2-.6,3.86,3.86,0,0,0-3.77,3.78q-.24,4.21-.72,8.41c-.08.72-.17,1.43-.26,2.14,0,.08,0,.12,0,.16s0,.08,0,.16c-.05.32-.1.65-.14,1-.21,1.42-.44,2.84-.68,4.25-.34,1.94.51,4.16,2.63,4.64a4,4,0,0,0,1.25.07l20.15-.36a502.74,502.74,0,0,1,2.56,85.87,3.2,3.2,0,0,0,1.49,3.06,3.25,3.25,0,0,0,2.9,1.45l16.72-1.57c2-.18,3.87-1.6,3.77-3.77a4.37,4.37,0,0,0-1.09-2.61q-2.81-40.28-2.4-80.66h15a3.28,3.28,0,0,0,1.77.44,4.21,4.21,0,0,0,2-.61,3.75,3.75,0,0,0,2.75-3.61" style="fill:#071d49"/><path d="M72.58,55l27.36-5.25" style="fill:none;stroke:#242953;stroke-linecap:round;stroke-linejoin:round;stroke-width:8px"/><path d="M198.52,60.44l27.36-6.57" style="fill:none;stroke:#242953;stroke-linecap:round;stroke-linejoin:round;stroke-width:8px"/></g></g></svg>