<svg xmlns="http://www.w3.org/2000/svg" width="131.11" height="90.98" viewBox="0 0 131.11 90.98"><g id="Layer_2" data-name="Layer 2"><g id="Layer_1-2" data-name="Layer 1"><path d="M129.33,79.81a2.38,2.38,0,0,0-2.43-2.36,2.44,2.44,0,0,0-.77.14l-.19,0h-3.26c.61-21.14.43-52.14,1.09-72.65a1.71,1.71,0,0,0-.36-1.07,1.88,1.88,0,0,0,.12-.45,2.43,2.43,0,0,0-2-2.78L112.42,0a2.62,2.62,0,0,0-1.82.43A2.67,2.67,0,0,0,110,1C89,1,31.68.51,10.63.5,8.27.49,8,3.25,9.34,4.59c-1.23,20.6-1.46,51.12-.95,72.64l-4.82,0A2.35,2.35,0,0,0,1.83,78,2.37,2.37,0,0,0,.41,80.06l-.2,5.75a2.39,2.39,0,0,0,2.31,2.48H2.6a2.73,2.73,0,0,0,.5-.05,2.43,2.43,0,0,0,.55.07L126,88.67h0a4.17,4.17,0,0,0,3.39-2.83Z" style="fill:#d6d8dc"/><path d="M126.69,77.51a2.24,2.24,0,0,0-.77.15l-.19,0h-3.26c.26-8.88.37-19.5.47-30.35H8c-.06,10.65,0,21.1.24,30H3.37A2.4,2.4,0,0,0,1.62,78,2.36,2.36,0,0,0,.21,80.12L0,85.87a2.4,2.4,0,0,0,2.31,2.48H2.4a2.63,2.63,0,0,0,.49,0,2.51,2.51,0,0,0,.55.07l122.36.36h0a2.31,2.31,0,0,0,1.37-.44,2.38,2.38,0,0,0,2-2.39l-.08-6A2.38,2.38,0,0,0,126.69,77.51Z" style="fill:#fbb03b"/><path d="M131,82.12a2.39,2.39,0,0,0-2.43-2.36,2.2,2.2,0,0,0-.77.15l-.19,0h-3.26c.61-21.15.43-52.15,1.09-72.66a1.76,1.76,0,0,0-.35-1.07,2.36,2.36,0,0,0,.11-.44,2.44,2.44,0,0,0-2-2.79l-9.13-.59a2.62,2.62,0,0,0-1.83.42,2.48,2.48,0,0,0-.56.6c-21.06,0-78.36-.53-99.41-.54C10,2.81,9.7,5.57,11,6.91,9.81,27.5,9.59,58,10.09,79.54H5.27a2.39,2.39,0,0,0-1.74.75,2.39,2.39,0,0,0-1.42,2.09l-.2,5.75A2.4,2.4,0,0,0,4.22,90.6h.09a2.72,2.72,0,0,0,.49,0,2.43,2.43,0,0,0,.55.07L127.71,91h0a2.33,2.33,0,0,0,1.37-.44,2.38,2.38,0,0,0,2-2.39ZM29.38,77.26a4.91,4.91,0,0,1-.29-1.38h.28l18.3-.71a25,25,0,0,0,.49,3.75,2.14,2.14,0,0,0,.23.61c-7,0-13.64,0-19.5.06A2.4,2.4,0,0,0,29.38,77.26ZM15.81,7.62c20.86,0,78,.52,98.83.53a1.93,1.93,0,0,0,1.74-.86l4.3.27a.68.68,0,0,0,0,.14c-.64,20.15-.4,51.47-1,71.62-14,.25-42.2.19-67,.2a2.34,2.34,0,0,0,.24-1.59,19.6,19.6,0,0,1-.38-5.12A2.37,2.37,0,0,0,51.78,71a2.41,2.41,0,0,0-1.8-.72l-20.8.81a5.62,5.62,0,0,0-2.78.68c-1,.59-3.07,2.43-1.58,7a2.33,2.33,0,0,0,.48.84l-10.37,0C14.43,59.13,14.6,28,15.81,7.62Zm-9,78.21,0-1.5h4.37a2.66,2.66,0,0,0,2.06.12,3.13,3.13,0,0,0,.71.09c4.14-.08,9.46-.13,15.53-.16l96.76.29,0,1.5Z" style="fill:#242953"/><path d="M50.27,46.05l-6.4,1.67a40.52,40.52,0,0,0,1-8.86,16,16,0,0,0-1.23-7.26,8,8,0,0,0-7.13-4.8,6.24,6.24,0,0,0-4.84,2.58,5.38,5.38,0,0,0-.93,4.69,2.4,2.4,0,0,0,4.61-1.33c-.05-.14.06-.36.18-.52a1.52,1.52,0,0,1,1.08-.63,3.34,3.34,0,0,1,2.7,2.08,11.82,11.82,0,0,1,.77,5.13,30.57,30.57,0,0,1-2,11.42,2.4,2.4,0,0,0,.4,2.49,2.43,2.43,0,0,0,1.81.83,2.55,2.55,0,0,0,.61-.08l10.6-2.77a2.4,2.4,0,1,0-1.2-4.64Z" style="fill:#242953"/><path d="M70.11,30.21l-4.74.56c-.08-1.3-.11-2.61-.08-3.91a2.4,2.4,0,1,0-4.79-.12c0,1.53,0,3.06.1,4.59L54.9,32a2.39,2.39,0,0,0,.28,4.77h.28l5.71-.68c.24,1.43.54,2.84.9,4.24a2.4,2.4,0,0,0,2.32,1.79A2.18,2.18,0,0,0,65,42a2.39,2.39,0,0,0,1.71-2.92c-.31-1.19-.57-2.38-.78-3.59L70.67,35a2.4,2.4,0,1,0-.56-4.76Z" style="fill:#242953"/><path d="M97.19,43.8l-.45-.9a2.42,2.42,0,0,0-2.53-1.28A13,13,0,0,0,88,40.48,17.11,17.11,0,0,1,89.2,38.2q.54-.9,1.11-1.77a31.6,31.6,0,0,0,2.6-4.62A10.92,10.92,0,0,0,93.23,23c-1.54-3.44-5.58-5.3-8.81-4.05a2.39,2.39,0,1,0,1.72,4.47c.87-.33,2.22.43,2.72,1.54a6.34,6.34,0,0,1-.36,4.93,26.45,26.45,0,0,1-2.23,3.91c-.4.63-.8,1.26-1.19,1.9a15.34,15.34,0,0,0-2.51,7.9,2.4,2.4,0,0,0,3.3,2.17,8.17,8.17,0,0,1,7.75,1,2.37,2.37,0,0,0,1.43.48,2.4,2.4,0,0,0,2.14-3.48Z" style="fill:#242953"/></g></g></svg>