<svg xmlns="http://www.w3.org/2000/svg" width="162.45" height="133.31" viewBox="0 0 162.45 133.31"><g id="Layer_2" data-name="Layer 2"><g id="Layer_1-2" data-name="Layer 1"><path d="M132.81,67.94c-1.76,2.5-3.53,5-5.29,7.44H42.39A70.92,70.92,0,0,1,35,64.28c-4.39-8.63-5.45-19.45,2.25-26.59,6.3-5.85,16-7.49,24.12-5.25,10,2.78,17.71,10.19,24.44,17.71,7.22-8.6,15.87-16.9,27.35-18.89,9.16-1.62,19,1.56,24,9.76,5.53,9,1.11,19.1-4.39,26.92" style="fill:#d6d8dc"/><path d="M127.52,75.38C115,92.74,101.63,109.62,88.79,126.72c.23,2.2-2.47,4.24-4.14,2.15-.15-.21-.33-.41-.48-.61l-.85-1.08Q70.18,110.51,57,93.9L44.74,78.36l-2.35-3Z" style="fill:#fbb03b"/><path d="M73.28,121a2.19,2.19,0,0,1-.85-1.08l.85,1.08" style="fill:#141f47"/><path d="M82.79,121.68C68.87,104.05,54.81,86.52,41,68.79,35.4,61.58,27.76,51,32.43,41.51c3.45-7,12.52-9.51,19.73-8.37,10.54,1.68,18.67,10.18,25.4,17.79,2.16,2.44,5.72-1.14,3.57-3.57-6.9-7.81-14.87-15.67-25.21-18.54-8.14-2.26-17.8-.63-24.1,5.22-7.7,7.16-6.65,18-2.25,26.6,2.6,5.1,6.19,9.6,9.73,14.08L51.59,90.26q13.81,17.51,27.64,35c2,2.55,5.56-1,3.56-3.56" style="fill:#141f47"/><path d="M131.76,37.37c-5-8.19-14.88-11.35-24-9.76C95.58,29.73,86.63,38.86,79.17,48c-2,2.49,1.5,6.08,3.57,3.56,6-7.36,12.83-14.93,22.13-18,8.36-2.77,18.94-1.06,23.18,7.55,4.43,9-3.27,18.39-8.38,25.2l-19.41,25.9q-11,14.7-22,29.38c-1.94,2.6,2.43,5.12,4.36,2.55,14.92-19.9,30.46-39.48,44.78-59.81,5.5-7.81,9.93-17.91,4.39-26.93" style="fill:#141f47"/><path d="M142.76,13.68a2.56,2.56,0,0,0-3.45-.9l-7.42,5a2.68,2.68,0,0,0-1.15,1.51A2.53,2.53,0,0,0,131,21.2a2.56,2.56,0,0,0,3.45.91l7.41-5A2.65,2.65,0,0,0,143,15.63a2.55,2.55,0,0,0-.25-2" style="fill:#141f47"/><path d="M159.93,50.44l-12.35.35a2.52,2.52,0,0,0,0,5l12.35-.34a2.53,2.53,0,0,0,0-5.05" style="fill:#141f47"/><path d="M138.77,98.63,130.84,92a2.76,2.76,0,0,0-1.79-.73,2.52,2.52,0,0,0-1.78,4.3l7.93,6.62a2.76,2.76,0,0,0,1.79.73,2.52,2.52,0,0,0,1.78-4.3" style="fill:#141f47"/><path d="M107.08,129c.47.61,0,0-.07-.11s-.23-.34-.34-.52-.38-.61-.56-.93-.36-.71-.52-1.07l-.07-.16-.18-.51a14.69,14.69,0,0,1-.58-2.26c0-.17-.05-.36-.09-.53.2.75,0,.11,0-.1,0-.42,0-.83-.06-1.25a2.52,2.52,0,0,0-5,0,17.43,17.43,0,0,0,1,5.63,18.94,18.94,0,0,0,3,5.38,2.5,2.5,0,0,0,1.78.74,2.53,2.53,0,0,0,2.52-2.52,2.92,2.92,0,0,0-.74-1.79" style="fill:#141f47"/><path d="M56.29,117.21a2.59,2.59,0,0,0-3.46-.91,36.94,36.94,0,0,0-9.76,7.45,2.52,2.52,0,0,0,3.56,3.57c.66-.7,1.34-1.38,2-2,.36-.32.72-.64,1.09-.94l.56-.46.19-.15a35.24,35.24,0,0,1,4.86-3.08,2.55,2.55,0,0,0,.91-3.45" style="fill:#141f47"/><path d="M36.51,90.84a2.56,2.56,0,0,0-3.45-.91,76.81,76.81,0,0,1-10.7,6.43,2.53,2.53,0,0,0-.9,3.45,2.6,2.6,0,0,0,3.45.91A76.7,76.7,0,0,0,35.6,94.29a2.59,2.59,0,0,0,.91-3.45" style="fill:#141f47"/><path d="M14.43,55.09,2.52,54.93a2.53,2.53,0,0,0,0,5l11.91.15A2.54,2.54,0,0,0,17,57.61a2.57,2.57,0,0,0-2.52-2.52" style="fill:#141f47"/><path d="M21.79,16.76l-6.1-6.69a2.55,2.55,0,0,0-3.57,0,2.58,2.58,0,0,0,0,3.57l6.1,6.68a2.53,2.53,0,0,0,3.57,0,2.57,2.57,0,0,0,0-3.56" style="fill:#141f47"/><path d="M80.88,2.53a2.53,2.53,0,1,0-5,0,33.69,33.69,0,0,1,0,5.22q0,.6-.12,1.2l0,.26c0,.22-.07.44-.1.66-.14.86-.32,1.72-.53,2.57a2.53,2.53,0,0,0,4.87,1.34,36.75,36.75,0,0,0,1-11.25" style="fill:#141f47"/></g></g></svg>