<svg xmlns="http://www.w3.org/2000/svg" width="269.27" height="125.08" viewBox="0 0 269.27 125.08"><g id="Layer_2" data-name="Layer 2"><g id="Layer_1-2" data-name="Layer 1"><path d="M266.09,124.31q-49,1.35-97.95-1.58c-2,2-6.18,1.61-6.2-2Q162,89.9,162,59H268.11q.54,29.75,1.07,59.53a3.69,3.69,0,0,1-.15,1.07c.71,2-.14,4.6-2.94,4.7" style="fill:#fbb03b"/><path d="M162,59c0-11.25,0-22.52,0-33.76a3.52,3.52,0,0,1-.9-.86,3.88,3.88,0,0,1-.63-2.77l.9-13.8c.12-2.05,2.41-3.19,4.21-3a3.75,3.75,0,0,1,.65.2,2.65,2.65,0,0,1,1.64-.54l95.94,3.07c2,.1,3.83,1.1,4,3.29a3.84,3.84,0,0,1-.54,2.24q.41,23,.83,45.93Z" style="fill:#d6d8dc"/><path d="M138.91,121a3.5,3.5,0,0,1,0,1.41c-.56,2.09-2.46,2.89-4.43,2.65a382.81,382.81,0,0,0-62-2.24,3.19,3.19,0,0,1-2-.51c-2.09.54-4.55-.54-4.47-3.29q.82-30,1.67-60h73a275.68,275.68,0,0,0-1.58,61.24,2.55,2.55,0,0,1,0,.73" style="fill:#fbb03b"/><path d="M141.64,51.46c-.42,2.51-.81,5-1.15,7.55H67.54c.08-2.9.17-5.8.25-8.69a3.6,3.6,0,0,1,3.28-3.56,3,3,0,0,1,2.51-.87,468.76,468.76,0,0,0,62.94.36,3.32,3.32,0,0,1,2.71,1,3.75,3.75,0,0,1,2.41,4.19" style="fill:#d6d8dc"/><path d="M127.61,113a393.48,393.48,0,0,0-58.15-2q.87-31.09,1.75-62.19a471.19,471.19,0,0,0,58.94.4A281.67,281.67,0,0,0,127.61,113m7.81-70.16a3.19,3.19,0,0,0-2.7-1,470.61,470.61,0,0,1-62.95-.36,3,3,0,0,0-2.5.86A3.6,3.6,0,0,0,64,45.83q-1,34.35-1.94,68.69c-.08,2.75,2.4,3.82,4.49,3.3a3.49,3.49,0,0,0,2,.51,384,384,0,0,1,62.05,2.23c2,.24,3.88-.56,4.43-2.65a3.27,3.27,0,0,0,.05-1.4,4.4,4.4,0,0,0,0-.73A274.27,274.27,0,0,1,137.84,47a3.74,3.74,0,0,0-2.42-4.18" style="fill:#071d49"/><path d="M258.07,112.62q-46.33,1.16-92.65-1.59l.06-94.66a3,3,0,0,0-1.31-2.63l.42-6.49.21,0,91.44,2.94q.93,51.21,1.83,102.41m2-109.53L164.08,0a2.69,2.69,0,0,0-1.63.53,3.21,3.21,0,0,0-.66-.17c-1.8-.23-4.09.94-4.22,3l-.9,13.82a4,4,0,0,0,.64,2.76,4.07,4.07,0,0,0,.9.85l-.06,95.53c0,3.56,4.17,4,6.19,2q48.93,2.93,98,1.58c2.77-.08,3.64-2.64,2.93-4.69a4.07,4.07,0,0,0,.14-1.07q-.94-52.74-1.88-105.48A4,4,0,0,0,264,6.36c-.19-2.18-2-3.21-4-3.27" style="fill:#071d49"/><path d="M47.09,85q-1.2,16.14-2.36,32.23a3.92,3.92,0,0,1-2.14,3.31,3.36,3.36,0,0,1-2.87,1.54l-30.62.7a3.32,3.32,0,0,1-3.51-3.26,3.57,3.57,0,0,1-1.8-3.12C4.38,106.22,4.94,96,5.5,85.79A3.92,3.92,0,0,1,7,82.92a3.3,3.3,0,0,1,3-1.63H37.16a3.31,3.31,0,0,1,3.17,2,3.48,3.48,0,0,1,3.11-1.9A3.69,3.69,0,0,1,47.09,85" style="fill:#fbb03b"/><path d="M8.85,84.11H33.37a3.36,3.36,0,0,0,2.43-.94q-1,13.59-2,27.19L7.36,111q.75-13.42,1.49-26.85m30.79-7.22a3.5,3.5,0,0,0-3.12,1.88,3.29,3.29,0,0,0-3.15-2H6.15a3.3,3.3,0,0,0-3,1.63,3.9,3.9,0,0,0-1.45,2.88L0,111.94A3.5,3.5,0,0,0,1.8,115a3.3,3.3,0,0,0,3.5,3.27l30.63-.7a3.4,3.4,0,0,0,2.87-1.53,3.93,3.93,0,0,0,2.13-3.32q1.18-16.11,2.36-32.21a3.69,3.69,0,0,0-3.65-3.66" style="fill:#071d49"/></g></g></svg>