<svg xmlns="http://www.w3.org/2000/svg" width="172.77" height="129.32" viewBox="0 0 172.77 129.32"><g id="Layer_2" data-name="Layer 2"><g id="Layer_1-2" data-name="Layer 1"><path d="M170.45,69.18a2.61,2.61,0,0,0-3.13-2A60.42,60.42,0,0,1,130,63.69a60.42,60.42,0,0,1-28-25,2.61,2.61,0,0,0-4.83.85A2.65,2.65,0,0,0,96,41C89.6,60.63,86.63,80.4,87.61,96.65c1.21,19.88,8,31.25,19.15,32.36a19.78,19.78,0,0,0,2.33.08c13.55-.33,26-6.41,37.08-18.07,11.3-11.92,18.34-26.81,22.26-37.2a2.52,2.52,0,0,0,.1-1.53A2.6,2.6,0,0,0,170.45,69.18Z" style="fill:#d6d8dc"/><path d="M77.76,5.52a2.57,2.57,0,0,0-.84-1.28,2.61,2.61,0,0,0-4-3.3A60.41,60.41,0,0,1,41,20.81,60.36,60.36,0,0,1,3.62,17.88,2.61,2.61,0,0,0,.3,21.5a2.58,2.58,0,0,0-.06,1.86c6.86,19.5,16.49,37,27.13,49.34,8.25,9.55,16.2,15,23.36,16.26a16.2,16.2,0,0,0,13.39-3.5C74.7,77,80.92,64.57,82.63,48.6,84.38,32.26,81,16.15,77.76,5.52Z" style="fill:#d6d8dc"/><path d="M167.36,67.12A60.42,60.42,0,0,1,130,63.6c-.55-.24-1.09-.49-1.63-.75H90.32a135.66,135.66,0,0,0-2.66,33.71c1.2,19.88,8,31.24,19.14,32.36a19.93,19.93,0,0,0,2.33.08c13.55-.33,26-6.41,37.08-18.07,11.3-11.92,18.35-26.81,22.27-37.2a2.68,2.68,0,0,0,.1-1.53,2.61,2.61,0,0,0-1.22-5.08Z" style="fill:#fbb03b"/><path d="M20,62.89a110.69,110.69,0,0,0,7.45,9.72c8.25,9.55,16.21,15,23.36,16.26a16.26,16.26,0,0,0,13.4-3.5A47.84,47.84,0,0,0,79.59,62.89Z" style="fill:#fbb03b"/><path d="M172.71,69.41a2.62,2.62,0,0,0-3.13-2,60.42,60.42,0,0,1-37.36-3.52,60.39,60.39,0,0,1-28-25,2.6,2.6,0,0,0-4.83.86,2.56,2.56,0,0,0-1.17,1.44c-6.39,19.66-9.37,39.44-8.38,55.68,1.2,19.88,8,31.25,19.15,32.36a17.81,17.81,0,0,0,2.33.09c13.55-.33,26-6.41,37.08-18.08,11.29-11.92,18.34-26.81,22.26-37.2a2.56,2.56,0,0,0,.1-1.52A2.62,2.62,0,0,0,172.71,69.41Zm-28.08,38.23c-10.06,10.62-21.3,16.15-33.41,16.45a13.22,13.22,0,0,1-1.56-.06c-11.25-1.12-14-17.51-14.57-27.47-.9-14.83,1.67-32.81,7.24-50.91a65.77,65.77,0,0,0,27.79,23.06,65.08,65.08,0,0,0,19.65,5.11,65.43,65.43,0,0,0,15.51-.29C161.45,83.38,154.86,96.85,144.63,107.64Z" style="fill:#242953"/><path d="M108.5,78.59a1.8,1.8,0,0,1,2.08,1.34,2.61,2.61,0,0,0,2.34,2.37,4,4,0,0,0,.49,0,2.63,2.63,0,0,0,2.38-2.84,7,7,0,0,0-9-5.81,2.62,2.62,0,1,0,1.72,4.94Z" style="fill:#242953"/><path d="M137.27,83.3a8.3,8.3,0,0,0-6.66-.06A2.59,2.59,0,1,0,132.72,88,3.42,3.42,0,0,1,137,89.81a2.58,2.58,0,0,0,2.19,1.72,2.45,2.45,0,0,0,1.1-.13,2.59,2.59,0,0,0,1.6-3.29A8.3,8.3,0,0,0,137.27,83.3Z" style="fill:#242953"/><path d="M81.75,6.2a2.63,2.63,0,0,0-.85-1.27,2.61,2.61,0,0,0-4.05-3.3A60.45,60.45,0,0,1,45,21.5,60.49,60.49,0,0,1,7.61,18.57,2.62,2.62,0,0,0,4.18,20a2.58,2.58,0,0,0,.11,2.21A2.59,2.59,0,0,0,4.23,24c6.85,19.51,16.48,37,27.12,49.35,8.25,9.55,16.21,15,23.36,16.26a16.23,16.23,0,0,0,13.4-3.51c10.57-8.48,16.8-20.88,18.51-36.86C88.37,33,84.93,16.84,81.75,6.2ZM64.83,82.06C55,89.93,42.13,77.86,35.31,70,25.6,58.72,16.73,42.87,10.18,25.1a63.73,63.73,0,0,0,9.45,2.37,65.49,65.49,0,0,0,26.63-.89A65.73,65.73,0,0,0,77.14,9.07C80.06,19.23,83,33.93,81.42,48.72,79.86,63.27,74.28,74.49,64.83,82.06Z" style="fill:#242953"/><path d="M41.39,43.82a7,7,0,0,0-10.69.84,2.62,2.62,0,0,0,.74,3.62,2.66,2.66,0,0,0,1,.4,2.63,2.63,0,0,0,2.63-1.13A1.58,1.58,0,0,1,36.26,47a1.6,1.6,0,0,1,1.27.39,2.62,2.62,0,1,0,3.86-3.53Z" style="fill:#242953"/><path d="M59.11,42a2.79,2.79,0,0,0,.81.28,2.63,2.63,0,0,0,2.74-1.33,3.44,3.44,0,0,1,4.55-1.13,2.62,2.62,0,1,0,2.89-4.36,8.66,8.66,0,0,0-12,3A2.62,2.62,0,0,0,59.11,42Z" style="fill:#242953"/><path d="M119.11,95.27a19.29,19.29,0,0,0-16.29-1.49,2.59,2.59,0,0,0,1.78,4.86,14.19,14.19,0,0,1,11.82,1.06,10.6,10.6,0,0,1,5.1,8,2.6,2.6,0,0,0,2.31,2.25,2.92,2.92,0,0,0,.59,0,2.58,2.58,0,0,0,2.23-2.9A15.82,15.82,0,0,0,119.11,95.27Z" style="fill:#242953"/><path d="M68.05,59.42c0-.5.09-1.08.16-1.69a17,17,0,0,0,0-5,2.53,2.53,0,0,0-4.53-1c-2.66,3.73-8.44,9.81-17.21,8.68a2.53,2.53,0,0,0-1.63.35,2.49,2.49,0,0,0-1.71,1.16A2.54,2.54,0,0,0,44,65.4a24.2,24.2,0,0,1,4.14,3.52c.41.41.83.82,1.26,1.22,1.87,1.78,4.43,3.91,7.67,4.64l.5.1a8.56,8.56,0,0,0,9-3.84,11.56,11.56,0,0,0,1.17-5.26Zm-5.9,9.15c-.68,1.22-2.56,1.61-4,1.28-2-.46-3.91-2-5.31-3.37l-1.16-1.13A22.59,22.59,0,0,0,63,60l-.28,5.52A7.62,7.62,0,0,1,62.15,68.57Z" style="fill:#242953"/></g></g></svg>