<svg xmlns="http://www.w3.org/2000/svg" width="274.47" height="120.33" viewBox="0 0 274.47 120.33"><g id="Layer_2" data-name="Layer 2"><g id="Layer_1-2" data-name="Layer 1"><path d="M55.14,46.22l-3.84.26c.64-2.08,1.28-4.14,1.92-6.2.65,2,1.27,4,1.92,5.94m48.62,61.1C84.2,78.62,87.85,40.17,66.59,12.23A3.32,3.32,0,0,0,64.65,11a3.76,3.76,0,0,0-2.8-1.23l-23-.1A2.81,2.81,0,0,0,37,10.3a3.14,3.14,0,0,0-3,2.57A668.27,668.27,0,0,1,5.42,106.54a4.4,4.4,0,0,0-.23,1.06,3,3,0,0,0-.28,1.56,3.43,3.43,0,0,0,3.6,3.18,88.35,88.35,0,0,1,21,.93,3,3,0,0,0,.89,0,3.59,3.59,0,0,0,2.34.78c2-.12,3.06-1.76,3.17-3.6.37-6.72,3.3-13,5.87-19.11,2.34-5.57,4.46-11.17,5.28-17.14a1.77,1.77,0,0,0,.3,0H59.64a253.19,253.19,0,0,0,12,38,3,3,0,0,0,.66,1,3.42,3.42,0,0,0,3.49,2.53c7.74-.7,15.5-1.42,23.23-2.14a3.66,3.66,0,0,0,2.31-1.15c2.2-.34,4.13-2.8,2.48-5.19" style="fill:#d6d8dc"/><path d="M147.65,37a.52.52,0,0,0,0,.25h0s0,.05,0,.1v0a1.37,1.37,0,0,1,0-.3s0-.06,0-.09M162.81,15c-13.22-7.59-29.42-13.41-44.42-7.9-1.54.07-3.28,1.3-3.29,3q.09,52.88.19,105.77a3.85,3.85,0,0,0,1.6,3.31,2.63,2.63,0,0,0,2.42,1.23,132.1,132.1,0,0,0,26.42-3c8.3-1.66,17.19-3,25-6.52,6.94-3.13,12.43-8.56,14.57-16A31.68,31.68,0,0,0,184,74.14c-3.5-8.45-10-15.15-17.11-20.72,4-6.34,7.79-13.05,7.67-20.78-.15-8-5-13.82-11.7-17.68" style="fill:#d6d8dc"/><path d="M147.63,37.11s0,.06,0,.08,0,.07,0,.1,0,.05,0,.1v0a1.46,1.46,0,0,1,0-.31" style="fill:#586f80"/><path d="M271.3,45.11a3.38,3.38,0,0,1-2.76,3.42,2.68,2.68,0,0,1-1.42.36c-4.58-.21-9.11-.36-13.65-.57A3.44,3.44,0,0,1,250.18,46a2.36,2.36,0,0,1-.65-.86Z" style="fill:#fbb03b"/><path d="M252.42,110.58c-13.15,5.7-29.7,2.67-40-7.27-11.66-11.2-15.62-29.9-15.24-45.52.41-15.92,6.84-32.13,20.7-40.93,11.59-7.36,27.64-7.27,38.19,1.6a4.58,4.58,0,0,1,1.38.73,40.09,40.09,0,0,1,13.87,25.9v0H249.52a3.48,3.48,0,0,1-.29-.86c-1.2-6-8.26-8.08-13.29-5.41-6,3.21-8.6,10.23-9.08,16.66-.49,6.86,0,14.74,2.4,21.23,1.88,4.94,6.5,9.74,12.27,9,6.57-.93,6.75-9.47,6.8-14.54a3.36,3.36,0,0,1,3.14-3.39,3.45,3.45,0,0,1,1.75-.59c5.18,0,10.34-.09,15.55-.16a3.45,3.45,0,0,1,3,1.65,3.46,3.46,0,0,1,2.33,2.83c2.37,16-6.82,32.65-21.67,39.1" style="fill:#d6d8dc"/><path d="M103.77,107.31c1.63,2.4-.29,4.87-2.49,5.21A3.54,3.54,0,0,1,99,113.65q-11.61,1.08-23.23,2.15a3.47,3.47,0,0,1-3.51-2.54,3.11,3.11,0,0,1-.63-1,252,252,0,0,1-11.95-38c-4.1,0-8.22,0-12.34,0-.09,0-.18-.05-.29-.05-.84,6-3,11.57-5.3,17.14-2.56,6.11-5.48,12.38-5.86,19.11-.1,1.85-1.16,3.48-3.17,3.6a3.55,3.55,0,0,1-2.34-.77,2.9,2.9,0,0,1-.88,0,89,89,0,0,0-21-.92,3.44,3.44,0,0,1-3.6-3.17,2.82,2.82,0,0,1,.29-1.56,4.12,4.12,0,0,1,.23-1.07Q17.15,76.32,25.89,45.06H51.75c-.16.47-.3.95-.46,1.42l3.85-.27c-.13-.38-.25-.77-.38-1.15H82c6.2,21.18,9.17,43.76,21.8,62.25" style="fill:#fbb03b"/><path d="M252.41,110.59a37.66,37.66,0,0,1-40-7.26c-11.66-11.21-15.64-29.93-15.26-45.55a60.79,60.79,0,0,1,1.68-12.73h31a25.9,25.9,0,0,0-3,10.46c-.49,6.84,0,14.72,2.4,21.22,1.91,5,6.52,9.75,12.3,9,6.54-1,6.72-9.48,6.77-14.55a3.36,3.36,0,0,1,3.17-3.38,3,3,0,0,1,1.74-.59c5.16-.07,10.34-.11,15.53-.18a3.46,3.46,0,0,1,3,1.66,3.45,3.45,0,0,1,2.35,2.82,37.56,37.56,0,0,1-21.69,39.12" style="fill:#fbb03b"/><path d="M184,74.15a31.82,31.82,0,0,1,1.29,20.76c-2.15,7.4-7.63,12.83-14.56,16-7.76,3.48-16.66,4.86-24.95,6.51a133.11,133.11,0,0,1-26.44,3,2.59,2.59,0,0,1-2.4-1.23,3.8,3.8,0,0,1-1.61-3.3q-.06-35.39-.13-70.74h56.39a80,80,0,0,1-4.71,8.37C173.93,59,180.45,65.7,184,74.15" style="fill:#fbb03b"/><path d="M60.94,66.14a2.79,2.79,0,0,0-1.54-1.83,3.49,3.49,0,0,0-3.12-1.74L42,62.59a3,3,0,0,0-1.73.61A3.34,3.34,0,0,0,38.85,63c-2,.13-3.07,1.77-3.17,3.61-.38,6.7-3.29,13-5.86,19.1a73.2,73.2,0,0,0-5.1,15.89A99.2,99.2,0,0,0,8.2,100.46,677.56,677.56,0,0,0,35.29,11.52l21.12.1C76.24,38.13,74,74.19,90.74,102.26l-18.08,1.67A250.74,250.74,0,0,1,60.94,66.14m37.94,36.28C79.3,73.73,83,35.28,61.69,7.35a3.38,3.38,0,0,0-1.94-1.28A3.76,3.76,0,0,0,57,4.85L34,4.74a2.93,2.93,0,0,0-1.82.67,3.15,3.15,0,0,0-3,2.56A667.16,667.16,0,0,1,.53,101.66a3.61,3.61,0,0,0-.23,1A2.85,2.85,0,0,0,0,104.28a3.44,3.44,0,0,0,3.6,3.17,88.46,88.46,0,0,1,21,.93,3.69,3.69,0,0,0,.88,0,3.64,3.64,0,0,0,2.34.77c2-.12,3.07-1.76,3.17-3.6.38-6.71,3.3-13,5.87-19.1,2.35-5.59,4.46-11.19,5.29-17.15a2.93,2.93,0,0,0,.29.05l12.34,0a249,249,0,0,0,11.95,38,3.35,3.35,0,0,0,.64,1,3.41,3.41,0,0,0,3.49,2.53l23.25-2.14a3.52,3.52,0,0,0,2.29-1.15c2.21-.34,4.14-2.79,2.5-5.2" style="fill:#071d49"/><path d="M48.33,35.38c.64,2,1.28,4,1.91,6l-3.82.25q1-3.11,1.91-6.21M58,43.33l-5.3-16.49a3.48,3.48,0,0,0-3.26-2.29A3,3,0,0,0,48,23.84a3.49,3.49,0,0,0-4,2.63q-2.79,9.06-5.59,18.13c-.66,2.15,1.51,4.21,3.55,4.08L55,47.83a3.44,3.44,0,0,0,3-4.5" style="fill:#071d49"/><path d="M162.86,27.74c.21,6.54-3.63,12.43-7,17.74a3.38,3.38,0,0,0,0,3.76,3.16,3.16,0,0,0,1,3.94c7.17,5.49,14.09,12.31,16.78,21.18,2.11,6.91,1.32,15.31-3.79,20.75-6.24,6.64-16.86,7.86-25.31,9.68-9,1.95-18.2,3.67-27.46,3.87L117,8.15c12-3.91,24.51,1,35.22,6.48,5.46,2.8,10.46,6.44,10.68,13.11m-4.93-17.67C144.71,2.49,128.5-3.34,113.5,2.18c-1.54.07-3.29,1.3-3.29,2.95q.11,52.88.19,105.76A3.83,3.83,0,0,0,112,114.2a2.68,2.68,0,0,0,2.42,1.24,132.75,132.75,0,0,0,26.43-2.94c8.29-1.67,17.2-3,24.95-6.53,6.94-3.12,12.43-8.57,14.56-16a31.59,31.59,0,0,0-1.3-20.74c-3.49-8.44-10-15.16-17.09-20.73,4-6.34,7.78-13.05,7.65-20.77-.13-8-5-13.82-11.68-17.68" style="fill:#071d49"/><path d="M150.9,81.79c0-.05-.18.62-.23.75s-.32.65-.34.72c-.16.25-.32.5-.5.74s-.39.47-.6.7c-.09.07-.52.48-.6.54-.3.26-.63.47-.93.7l-.12.1a1.45,1.45,0,0,0-.22.11,20.14,20.14,0,0,1-8.54,1.8,99.3,99.3,0,0,0-1.18-12.52c.78-.05,1.56-.11,2.34-.14.45,0,.9,0,1.36,0l1,0a20.47,20.47,0,0,1,2.82.33,7.3,7.3,0,0,1,1.77.53c.34.14.68.3,1,.47.08.07.68.44.75.49a9.1,9.1,0,0,1,.83.68c.06.08.52.58.58.66s.45.75.46.73a7.13,7.13,0,0,1,.29.69s.15.72.17.84,0,.19,0,.23a.76.76,0,0,1,0,.15c0,.24-.06.47-.1.71m-2-12.17c-4.08-1.41-8.4-1.19-12.64-.89a3.2,3.2,0,0,0-2.3,1.41,3.87,3.87,0,0,0-.48,0A3.45,3.45,0,0,0,130.53,74a96.28,96.28,0,0,1,1.61,16.86,3,3,0,0,0,1.55,2.39A3.64,3.64,0,0,0,137,94.76c7-.15,15.21-1.14,19.1-7.9a11.08,11.08,0,0,0,.77-10.29,13.84,13.84,0,0,0-8-6.95" style="fill:#232a53"/><path d="M142.76,32.06a1.71,1.71,0,0,0,0,.32h0a.46.46,0,0,0,0,.1c0,.18,0,.36-.07.54s0,.16,0,.28-.13.39-.15.46-.17.41-.26.61-.11.19-.15.29h0c-.24.35-.68.88-.74,1a.46.46,0,0,0-.07.07c-.15.11-.29.28-.42.39-.35.3-.72.55-1.09.81l-.38.19a7.91,7.91,0,0,1-.84.37c-.28.12-.57.2-.86.31l-.07,0-.19,0a16.44,16.44,0,0,1-1.69.26l1.62-7a2.7,2.7,0,0,0,1-.95c.09-.15.21-.29.31-.43l.35-.27.08,0,.43-.16.56-.08h.06a4.07,4.07,0,0,0,.6.06l.45.18.06,0c.16.11.3.24.46.35l0,0c.16.19.3.39.46.59a0,0,0,0,1,0,0v0a6.11,6.11,0,0,1,.27.58c0,.07.08.27.13.39s0,.15,0,.19c0,.22.06.45.09.67,0,0,0-.08,0-.16m-1.33-9.65a9.24,9.24,0,0,0-5.41.92,3,3,0,0,0-.7-.17,3.45,3.45,0,0,0-2.54.71,3.92,3.92,0,0,0-1.26,2.24q-1.49,6.47-3,13a3.42,3.42,0,0,0,.71,2.54,3.48,3.48,0,0,0,1.19.93,3.16,3.16,0,0,0,2.77,2.4,18.08,18.08,0,0,0,9.38-1.88,13.46,13.46,0,0,0,6.09-6.53c2.39-5.74-.76-13.19-7.25-14.11" style="fill:#071d49"/><path d="M142.74,32.49s0-.06,0-.1v-.1s0,0,0-.07c0,.26,0,.33,0,.27" style="fill:#232a53"/><path d="M249,97.25c-10.12,6.55-24,5.77-33.75-1.15-11.05-7.84-14.89-23-16-35.78-1.17-14,1.86-28.56,12.21-38.6s27.61-11.8,37.74-.59a3.13,3.13,0,0,0,1.67,1c.56.58,1.11,1.16,1.62,1.78l.18.23c.16.2.31.41.46.61.34.45.66.91,1,1.37.63.93,1.21,1.88,1.75,2.87.27.49.53,1,.77,1.49,0,0,.13.25.2.4s.19.42.21.47c.44,1,.84,2.08,1.18,3.14.28.86.51,1.73.72,2.61l-8.3-.35c-1.86-7.36-10.1-11.76-17.37-10.6-8.92,1.43-15.05,9.46-17.12,17.82a50.8,50.8,0,0,0-.87,15.85,51.47,51.47,0,0,0,2.45,13.66c2.81,7.81,9.45,14.36,18.22,14.16a13.49,13.49,0,0,0,11.16-6.47c2.24-3.59,2.83-7.91,3-12.12l12.51-.13A31,31,0,0,1,249,97.25m20.19-30.66a3.48,3.48,0,0,0-2.35-2.84,3.43,3.43,0,0,0-3-1.64l-15.54.17a3.24,3.24,0,0,0-1.75.58,3.37,3.37,0,0,0-3.15,3.39c-.05,5.08-.22,13.62-6.78,14.54-5.77.8-10.4-4-12.27-9-2.45-6.49-2.92-14.36-2.4-21.23.48-6.44,3-13.44,9.06-16.64,5-2.68,12.11-.57,13.3,5.4a2.94,2.94,0,0,0,.94,1.72,3.49,3.49,0,0,0,3.29,2.36l13.64.57a2.75,2.75,0,0,0,1.43-.37,3.36,3.36,0,0,0,2.76-3.44,40.16,40.16,0,0,0-13.87-25.9,3.69,3.69,0,0,0-1.36-.71C240.6,4.71,224.54,4.61,213,12c-13.85,8.8-20.3,25-20.7,40.92-.39,15.61,3.59,34.32,15.24,45.55,10.31,9.92,26.88,13,40,7.25,14.83-6.45,24.06-23.09,21.68-39.1" style="fill:#071d49"/></g></g></svg>