<svg xmlns="http://www.w3.org/2000/svg" width="156.84" height="152.82" viewBox="0 0 156.84 152.82"><g id="Layer_2" data-name="Layer 2"><g id="Layer_1-2" data-name="Layer 1"><path d="M105.26,11.4a4.07,4.07,0,0,0-.36-1.12,4.15,4.15,0,0,0-3.05-4.51,170.64,170.64,0,0,0-99,3.35A4.19,4.19,0,0,0,.23,14.44,4.14,4.14,0,0,0,2,16.64a4.9,4.9,0,0,0-.08.77l-.69,99.76c0,6.7-.11,15.86,5.1,22.91,6.12,8.27,16.75,10.35,26.35,11.3s19.44,1.44,29.21,1.44q6,0,12-.24c1.46-.06,3-.1,4.49-.13,5.54-.13,11.27-.26,16.63-1.53a15.39,15.39,0,0,0,10.24-8.22h.12a4.18,4.18,0,0,0,4.16-3.82A529.77,529.77,0,0,0,105.26,11.4Z" style="fill:#d6d8dc"/><path d="M116.48,44.19c8.07,1.65,15.64,6.46,19.71,13.62s4.18,16.64-.52,23.4-14.32,9.93-21.79,6.47" style="fill:none;stroke:#242953;stroke-linecap:round;stroke-linejoin:round;stroke-width:8.3674929373914px"/><path d="M109,27.81A52.43,52.43,0,0,1,150.2,61.14c2.52,6.93,3.49,14.7,1,21.65C148.52,90.31,142,96,134.67,99.18s-15.48,4-23.47,4" style="fill:none;stroke:#242953;stroke-linecap:round;stroke-linejoin:round;stroke-width:8.3674929373914px"/><path d="M1.64,58.41l-.41,58.76c0,6.7-.11,15.86,5.1,22.91,6.12,8.27,16.75,10.35,26.35,11.3s19.44,1.44,29.21,1.44q6,0,12-.24c1.46-.06,3-.1,4.49-.13,5.54-.13,11.27-.26,16.63-1.53a15.39,15.39,0,0,0,10.24-8.22h.11a4.19,4.19,0,0,0,4.17-3.82,530,530,0,0,0,.87-80.48Z" style="fill:#fbb03b"/><path d="M109.88,11.4a4.07,4.07,0,0,0-.36-1.12,4.15,4.15,0,0,0-3-4.51,170.64,170.64,0,0,0-99,3.35,4.18,4.18,0,0,0-2.59,5.32,4.1,4.1,0,0,0,1.77,2.2,3.94,3.94,0,0,0-.08.77l-.69,99.76c0,6.7-.11,15.86,5.1,22.91,6.11,8.27,16.75,10.35,26.34,11.3s19.45,1.44,29.21,1.44q6,0,12-.24c1.47-.06,3-.1,4.5-.13,5.54-.13,11.27-.26,16.63-1.53a15.42,15.42,0,0,0,10.24-8.22H110a4.19,4.19,0,0,0,4.17-3.82A529.77,529.77,0,0,0,109.88,11.4ZM93,11.25a171.33,171.33,0,0,1-69.86,2A162.87,162.87,0,0,1,93,11.25Zm11,123.8c-1.74,6-4.41,7.29-6.26,7.73-4.5,1.07-9.78,1.19-14.89,1.3-1.58,0-3.14.07-4.65.13a288.38,288.38,0,0,1-40.09-1.15c-7.77-.77-16.27-2.32-20.44-8-3.29-4.44-3.51-10.72-3.46-17.87l.67-97.16a176.09,176.09,0,0,0,87.44-2.62,521,521,0,0,1,4.8,102.22,4.14,4.14,0,0,0-1.69,3.17C105.28,127,105.12,131.25,104,135.05Z" style="fill:#242953"/><path d="M60.61,52.27c-3.35-.49-6.72-.89-10.09-1.2q-.48-2.67-.87-5.34a4,4,0,0,0-8,1.17c.17,1.19.36,2.38.56,3.56-2.24-.11-4.47-.18-6.71-.21-.38-1.15-.74-2.31-1.06-3.47a4,4,0,1,0-7.78,2.15c.12.46.26.9.4,1.35q-2.07.06-4.14.15a4,4,0,1,0,.39,8.07q3.26-.15,6.53-.18c.48,1.18,1,2.36,1.51,3.53l-6.29-.6a4,4,0,0,0-.75,8l11.5,1.08c.64,1.07,1.29,2.13,2,3.18a4,4,0,0,0,3.38,1.83,4,4,0,0,0,2.21-.66,4,4,0,0,0,1.82-3.46l1.71.16c.65,2.26,1.33,4.52,2.05,6.75A4,4,0,0,0,52.8,81a4,4,0,0,0,1.26-.2,4,4,0,0,0,2.59-5.09c-.37-1.14-.73-2.29-1.08-3.44l3.75.36.38,0a4,4,0,0,0,.38-8.07l-6.82-.64c-.38-1.51-.74-3-1.08-4.55,2.42.26,4.85.55,7.26.91a3.81,3.81,0,0,0,.59,0,4,4,0,0,0,.58-8ZM44.75,63.11l-4-.37c-.75-1.43-1.47-2.87-2.13-4.33,1.7.06,3.39.14,5.09.24C44.06,60.14,44.4,61.63,44.75,63.11Z" style="fill:#242953"/><path d="M89.7,117.67c-1.58.14-3.16.21-4.74.24l2.15-73.82a4.19,4.19,0,0,0-5.83-4l-13.37,5.7a4.18,4.18,0,0,0,3.28,7.69l7.36-3.13-2,67.2a70.09,70.09,0,0,1-7.37-1.13,4.19,4.19,0,0,0-1.7,8.2A79,79,0,0,0,83.6,126.3c2.27,0,4.55-.1,6.82-.29a4.19,4.19,0,0,0-.72-8.34Z" style="fill:#242953"/></g></g></svg>