<svg xmlns="http://www.w3.org/2000/svg" width="269.44" height="131.39" viewBox="0 0 269.44 131.39"><g id="Layer_2" data-name="Layer 2"><g id="Layer_1-2" data-name="Layer 1"><path d="M260.37,51.88a719.39,719.39,0,0,1-45.15,69.31,3.32,3.32,0,0,1-3.81,1.19,2.73,2.73,0,0,1-2.79-1.55,143.55,143.55,0,0,0-25.49-34.26,3.11,3.11,0,0,1-.79-1.26,2.34,2.34,0,0,1-.55-.38,3.33,3.33,0,0,1-.94-2.25,3.48,3.48,0,0,1,.94-2.28,66,66,0,0,1,10-9.66,4,4,0,0,1,2-.9l.31-.25a3.28,3.28,0,0,1,4.28,1,.54.54,0,0,1,.11.13c.08.1.17.23.21.27l.45.58.83,1Q201,73.7,202,74.78c1.24,1.38,2.51,2.7,3.83,4s2.77,2.55,4.22,3.77c.36.31.74.61,1.12.91.17.15.37.3.56.45l.08.06.49.36Q224,68.45,234.63,51.88Z" style="fill:#fbb03b"/><path d="M269,36.33q-4.21,7.81-8.67,15.55H234.63c5.55-8.57,10.85-17.32,15.94-26.17a3.57,3.57,0,0,1,4.63-1.21,96.48,96.48,0,0,0,12.15,7.29,1,1,0,0,1,.17.11A3.17,3.17,0,0,1,269,36.33" style="fill:#d6d8dc"/><path d="M175.49,51.88a20.12,20.12,0,0,1,0,2.69c-1,16.42-16.21,28.17-16.28,44.64a2.59,2.59,0,0,1-1.34,2.4,13.63,13.63,0,0,1-27.09-1.21,3,3,0,0,1-.85-3.32,3,3,0,0,1-.23-1.77c1.1-7-5.17-11.74-8.94-16.68a35.3,35.3,0,0,1-5.17-9.42,36.44,36.44,0,0,1-1.88-17.33Z" style="fill:#fbb03b"/><path d="M175.49,51.88H113.71A33.06,33.06,0,0,1,115,46.1c4.6-14.18,19.2-23.9,34.09-22.28,14,1.53,25.79,14,26.39,28.06" style="fill:#d6d8dc"/><path d="M150,54.79c1.41-2,3.71-2.11,0,0m12.4,4.06c-3.76,9.88-10.6,18.31-13.17,28.4A60,60,0,0,1,148,68c.12-1.62.12-3.85.27-6.08,4.67-1.46,9.4-4,10.39-8.34,1.22-5.38-4.7-8.48-9.18-6.67-4.05,1.63-5.44,6-6.11,10.33h-.05a28,28,0,0,1-6,.75,8.82,8.82,0,0,1-1.26-.13,12.18,12.18,0,0,0-5.41-5.47c-4.61-2-9.84,2.55-6.85,7.2,1.65,2.56,4.92,3.69,8.41,4.09a25,25,0,0,1,1.07,3,27.33,27.33,0,0,1-3.15,21.81c-.37-4.94-2.9-9.06-6.32-13.13-5.56-6.59-9.67-13.07-9.95-22-.51-15.89,13-29.79,29.18-28.13C159.49,27,168,44.22,162.4,58.85m-22.81,44.39a7.81,7.81,0,0,1-8.17-6.45l15.41-.05a7.65,7.65,0,0,1-7.24,6.5m.13-33.8a40.41,40.41,0,0,0-1.24-5.69c1.29-.09,2.49-.24,3.5-.39l.72-.12-.06.58c-1,9.16-1.06,18.34,1.61,27.17l-8.88,0a32.86,32.86,0,0,0,4.35-21.58m4.1-49.82c-14.9-1.63-29.5,8.1-34.09,22.27a36,36,0,0,0,5.76,32.55c3.77,4.93,10,9.69,8.93,16.68a2.93,2.93,0,0,0,.23,1.76,3.08,3.08,0,0,0,.85,3.32,13.63,13.63,0,0,0,27.09,1.2,2.64,2.64,0,0,0,1.35-2.4c.05-16.47,15.27-28.22,16.26-44.63.92-15.12-11.49-29.12-26.38-30.75" style="fill:#141f47"/><path d="M140.4,2c-1.14-3.51-6.7-2-5.55,1.53a13.24,13.24,0,0,1,.38,7.3c-.84,3.61,4.72,5.15,5.56,1.53A19.1,19.1,0,0,0,140.4,2" style="fill:#141f47"/><path d="M165.31,8.94l-7.83,7.92c-2.61,2.63,1.46,6.71,4.07,4.07L169.39,13c2.61-2.64-1.46-6.72-4.08-4.08" style="fill:#141f47"/><path d="M183.51,28.19c-.72-1.22-2.69-2-3.94-1l-6.15,4.61a3,3,0,0,0-1,3.94c.72,1.22,2.69,2,3.94,1l6.15-4.61a3,3,0,0,0,1-3.94" style="fill:#141f47"/><path d="M117.77,12.25,111.62,6.5c-2.7-2.54-6.78,1.53-4.07,4.07l6.14,5.76c2.71,2.53,6.79-1.54,4.08-4.08" style="fill:#141f47"/><path d="M105.75,31a10.31,10.31,0,0,1-5.64-2.23,3,3,0,0,0-4.08,0,2.9,2.9,0,0,0,0,4.07,17.07,17.07,0,0,0,9.72,3.92,2.88,2.88,0,0,0,0-5.76" style="fill:#141f47"/><path d="M145.07,111.55l-9-1.73c-3.62-.7-5.18,4.86-1.53,5.56l1.66.32a19.4,19.4,0,0,0-2,2.24c-1.42,1.9.56,4.18,2.49,4.33,2.35.18,3.2,3.14,2.07,4.88-2,3.12,3,6,5,2.91a8.73,8.73,0,0,0-2.07-11.53,11.28,11.28,0,0,1,3.35-1.42c2.64-.68,2.85-5,0-5.56" style="fill:#141f47"/><path d="M77.88,116.36c-14.75,15.15-38.58,19.09-55.67,5.51C4.66,107.93,1.42,82.82,7.25,62.31A60.23,60.23,0,0,1,11.3,51.88H92.73A48.26,48.26,0,0,1,94.12,57c4.38,20.34-1.6,44.33-16.24,59.37" style="fill:#fbb03b"/><path d="M92.73,51.88H11.3c6.68-13.47,18.3-24.19,33-27.66a3.12,3.12,0,0,1,.74-.34c10.52-3.43,22.14-1,31.14,5.21A43.7,43.7,0,0,1,92.73,51.88" style="fill:#d6d8dc"/><path d="M73.1,101.08c-10,14.42-29.84,23.1-46.24,14-17-9.41-22.13-30.47-19-48.51,3.43-20.09,17.54-39.81,39.4-41.09a3.54,3.54,0,0,0,2-.74C63.46,24,76.52,34.93,81.17,48.37c5.92,17.15,2.18,37.93-8.07,52.71M89.54,52.4c-2.4-11.21-8.47-21.37-18-27.9-9-6.19-20.62-8.66-31.12-5.21a4,4,0,0,0-.75.34c-18.34,4.31-31.87,19.94-37,38.09-5.84,20.53-2.59,45.6,15,59.56,17.07,13.57,40.92,9.65,55.67-5.51s20.59-39,16.24-59.37" style="fill:#141f47"/><path d="M33.23,59c0-.14-.1-.76-.12-.89h0s0,0,0,0,0,0,0-.05l0,0-.33-.8h0v0l0-.05c-.09-.13-.21-.28-.28-.36l-.27-.36,0,0,0,0c-.11-.09-.3-.24-.34-.26l-.34-.27-.05,0-.42-.18-.42-.17h-.14l-.28,0-.1,0h-.06l-.45-.06h0L29,55.3a2.58,2.58,0,0,0-.45.07h0l-.8.34h0l-.68.52h0l0,0h0l-.13.17-.09.07A3.43,3.43,0,0,0,25.89,58s0,0,0,0l-.06.44-.06.46h0V59c0,.14.07.52.06.45s0,.3.06.44,0,0,0,.06a0,0,0,0,0,0,0c.05.13.15.37.17.4s.11.28.17.41l0,0v0h0l.52.67,0,0,.05,0,.34.26.34.27h0l.05,0h0l.4.17.41.17a.23.23,0,0,0,.11,0l.89.12h.1l.89-.12h.08l.8-.34.05,0,0,0,.68-.52h0l0,0h0L32.7,61l0,0,0,0h0c0-.06.31-.74.33-.8v0a.09.09,0,0,0,0,0c0-.15,0-.35.07-.46s0-.32.06-.47V59" style="fill:#141f47"/><path d="M65.9,57.13l0,0h0l-.26-.34-.27-.34-.06-.07a3.83,3.83,0,0,0-1.61-.93,5.27,5.27,0,0,0-1-.13h-.08l-.89.12h0a2.51,2.51,0,0,0-1.13.59,2.57,2.57,0,0,0-.85.94l-.17.39-.17.41,0,0-.06.14c0,.09-.07.19-.11.28a3.76,3.76,0,0,0,.33,2.56c0,.09.14.13.2.21a3.43,3.43,0,0,0,.57.8l.67.52a3.31,3.31,0,0,0,1.68.45h0a9.25,9.25,0,0,0,.92-.12,6.67,6.67,0,0,0,.88-.36l.08-.05h0l.34-.26.35-.27,0,0a5,5,0,0,0,.57-.73l0,0a8.41,8.41,0,0,0,.35-.82.29.29,0,0,0,0-.09c0-.15,0-.35.06-.46s.06-.3.07-.46v0a3.92,3.92,0,0,0-.5-1.83" style="fill:#141f47"/><path d="M52.09,80a3.33,3.33,0,0,0-1.52-2,3.78,3.78,0,0,0-1.88-.48,31.47,31.47,0,0,1,.3-5.22c.11-.82.25-1.65.41-2.47A3.32,3.32,0,0,0,43,68.1a44.35,44.35,0,0,0-.94,9.75,6.53,6.53,0,0,0,2.32,5.3,5.72,5.72,0,0,0,5.4.95,3.68,3.68,0,0,0,2-1.53A3.41,3.41,0,0,0,52.09,80" style="fill:#141f47"/><path d="M207.72,109.76a149.78,149.78,0,0,0-24.05-31.65,66.49,66.49,0,0,1,6.77-6.34,82.85,82.85,0,0,0,15.81,14.8,3.21,3.21,0,0,0,4.14-.81,3.31,3.31,0,0,0,1.62-1.2A611.39,611.39,0,0,0,249.88,27c2.41,1.57,4.88,3.07,7.42,4.43a724.33,724.33,0,0,1-49.58,78.29m55.2-82.46a1.53,1.53,0,0,0-.16-.11,92.89,92.89,0,0,1-12.15-7.3A3.6,3.6,0,0,0,246,21.11a611.72,611.72,0,0,1-38.31,58.61l-.48-.36-.08-.06-.57-.45-1.12-.92c-1.45-1.2-2.86-2.47-4.22-3.78s-2.6-2.59-3.82-4c-.65-.72-1.28-1.45-1.9-2.19-.28-.34-.56-.67-.83-1l-.45-.56c-.08-.1-.6-.77-.22-.27-1-1.32-2.79-2.16-4.36-1.15l-.32.26a3.81,3.81,0,0,0-2,.88,65.15,65.15,0,0,0-10,9.67,3.41,3.41,0,0,0-.94,2.26,3.25,3.25,0,0,0,.94,2.26,3.11,3.11,0,0,0,.54.39,3.13,3.13,0,0,0,.79,1.25A143.75,143.75,0,0,1,204,116.23a2.76,2.76,0,0,0,2.79,1.56,3.32,3.32,0,0,0,3.81-1.19,722.82,722.82,0,0,0,53.82-84.87,3.16,3.16,0,0,0-1.52-4.43" style="fill:#141f47"/><path d="M63.57,86.68a2.61,2.61,0,0,0-3.17,1.94,28.28,28.28,0,0,1-1.83,5,8.2,8.2,0,0,1-3.2,3.55A10.32,10.32,0,0,1,51,98.57,20.69,20.69,0,0,1,44.79,98a2.62,2.62,0,0,0-3.17,1.94,2.84,2.84,0,0,0,1.8,3.42c4.86,1.11,10.07,1.35,14.55-1.36,4.21-2.54,6-7.18,7.4-11.9a2.86,2.86,0,0,0-1.8-3.42" style="fill:#141f47"/></g></g></svg>