<svg xmlns="http://www.w3.org/2000/svg" width="112.35" height="124.57" viewBox="0 0 112.35 124.57"><g id="Layer_2" data-name="Layer 2"><g id="Layer_1-2" data-name="Layer 1"><path d="M90.64,26.93A32.33,32.33,0,0,0,71.41,23.2c-6.83.71-12.83,4.42-19.55,5.58C40.43,30.76,24.74,23,14.74,31,1.37,41.57-.52,59.69.77,75.55,2,90.31,6.07,106,18.54,115.26c10.18,7.56,24.61,8.08,34-.74,9.89,10.54,25.79,6.52,35-2.75,11.23-11.27,18.24-28.58,19.77-44.23,1.45-14.82-2.83-32.75-16.73-40.61" style="fill:#d6d8dc"/><path d="M.61,57.18A84.5,84.5,0,0,0,.34,75c1.2,14.76,5.29,30.43,17.77,39.71,10.18,7.56,24.61,8.08,34-.73,9.89,10.53,25.79,6.51,35-2.76C98.39,100,105.41,82.65,106.94,67a56.34,56.34,0,0,0,.1-9.82Z" style="fill:#fbb03b"/><path d="M95.36,30.47C85.66,25,74.18,25.76,64,29.64A10.54,10.54,0,0,1,70.54,22c2.61-1,5.56-1.16,7.69-3.22,4-3.86,2.24-10.27-2.45-12.65-5.83-3-12.74.4-16.94,4.65s-6.62,9.94-8.68,15.62A71.9,71.9,0,0,0,12,.13c-3-.85-4.55,2.74-3.09,4.68C7.76,17.64,16.4,25.48,27,30.34a26.44,26.44,0,0,0-7.52,4.16C6.1,45.11,4.19,63.22,5.49,79.09c1.21,14.76,5.29,30.43,17.76,39.7,10.18,7.57,24.61,8.09,34-.73,9.89,10.54,25.79,6.52,35-2.76,11.22-11.26,18.24-28.58,19.77-44.22,1.45-14.83-2.84-32.75-16.73-40.61m-41.8,4c2.14-5.85,3.9-12.23,7.65-17.3a15.52,15.52,0,0,1,7.08-5.7c2-.68,6.74-1,5.62,2.2-.68,1.93-1.68,1.71-3.6,2.31-7.5,2.37-12.68,8.61-12.59,16.53q-2.36,1.26-4.55,2.7a3.24,3.24,0,0,0,.39-.74M14.76,7.21A65.49,65.49,0,0,1,45.6,30.14C32.77,27.38,15.28,22.07,14.76,7.21m91.59,61.91c-.83,12.94-6.13,25.93-13.59,36.45-6.79,9.59-21.45,19.19-31.54,8.07a2.52,2.52,0,0,0-2.88-.74,2.69,2.69,0,0,0-4.09-.08c-8.3,8.81-21.36,7-29.77-.63-9.19-8.33-12.13-21.22-13.1-33.1-1-12.26-.52-25.82,7.58-35.81C26.5,34,40.73,30.76,49.16,40.8c1.35,1.61,3.21,1.05,4.21-.26a2.52,2.52,0,0,0,2.66-.2c9.87-6.51,23.48-11,34.86-5.57,12.61,6,16.28,21.61,15.46,34.35" style="fill:#242953"/><path d="M89,51.49c-2.39-3-6.53,1.24-4.16,4.16a21,21,0,0,1,2.65,22.17c-1.61,3.41,3.47,6.4,5.09,3A27.14,27.14,0,0,0,89,51.49" style="fill:#242953"/></g></g></svg>