<svg xmlns="http://www.w3.org/2000/svg" width="307.89" height="109.99" viewBox="0 0 307.89 109.99"><g id="Layer_2" data-name="Layer 2"><g id="Layer_1-2" data-name="Layer 1"><path d="M307.85,73.68a25.28,25.28,0,0,1-.29,2.62c-.93,5.39-3.93,8.28-9.44,9.09A18.27,18.27,0,0,1,285,82.26l-1.3-.88-.4,1.52c-1.43,5.67-2.64,11.38-3.61,17-.31,1.86-.62,3.71-.88,5.56l0,.22.05.2a3.43,3.43,0,0,1,.06,1.5,3.26,3.26,0,0,1-1.34,2.18,2.73,2.73,0,0,1-2.23.36l-22-4.77h-.05l-.06,0-3.91-.9a3.35,3.35,0,0,1-2.47-3.55,3.07,3.07,0,0,1,.33-.86,19.46,19.46,0,0,0,2.41-6.45c.81-4.74-.82-8.13-4.59-9.57-2.93-1.12-6,.22-7.37,3.29A7.5,7.5,0,0,0,237,88.9a12.23,12.23,0,0,0,1.36,7,3.18,3.18,0,0,1,.29,1.28v.22a3.55,3.55,0,0,1-1.34,3.4,2.73,2.73,0,0,1-2.23.35c-11.29-2.38-22.79-4.52-34.19-6.33a2.69,2.69,0,0,1-1.81-1,2.92,2.92,0,0,1-.42-2.22,3.66,3.66,0,0,1,.86-1.84l.16-.19.06-.22a79.44,79.44,0,0,0,2.54-10.92c.62-3.49,1.08-7,1.52-10.46l.18-1.39.19-1.48-1.47.25a14.93,14.93,0,0,1-12.33-3.38,9.92,9.92,0,0,1-3.05-8.56c.07-.5.14-1,.22-1.5.73-4.25,2.89-9.55,9-10.61a12.56,12.56,0,0,1,10,2.85l1.34,1,.4-1.63c1.1-4.34,2.07-8.78,2.87-13.21H294.9a2.93,2.93,0,0,1,.26,1.17l0,.29.13.22a3,3,0,0,1,.33,2.05l-1.83,11.18L292,56.34l-.23,1.33,1.33,0a20.12,20.12,0,0,1,8.23,1.86c4.89,2.18,6.92,6.55,6.55,14.18" style="fill:#fbb03b"/><path d="M294.9,30.27H211.17c.13-.6.22-1.17.33-1.76.79-4.66,1.43-9.42,1.9-14.17,0-.09,0-.17,0-.26a2.13,2.13,0,0,1,1.28-1.77,3.61,3.61,0,0,1,3.24.51l.36.24.41,0a3.05,3.05,0,0,1,1.66.2c4.65,1.79,9.55,2.51,14.29,3.22,2.47.37,5,.75,7.48,1.26l1.32.28,0-1.34a12.43,12.43,0,0,1,.17-2.19c1.08-6.22,6.71-12.26,13.94-11.14C262.74,4.11,268.76,8,270,13a20.08,20.08,0,0,1,.33,8,15.59,15.59,0,0,1-.33,1.54l-.33,1.17,1.21.2c7.5,1.25,14.92,2.84,22,4.67a2.82,2.82,0,0,1,2,1.68" style="fill:#d6d8dc"/><path d="M183.75,30.27c.13,6,0,12.22-.51,18.44a2.34,2.34,0,0,1-1.19,2l-.15.07-.11.1a2.29,2.29,0,0,1-1.52.69,3,3,0,0,1-1.5-.46,14.46,14.46,0,0,0-7.46-2.21,6.43,6.43,0,0,0-6.44,4.52,5.27,5.27,0,0,0,2.87,6.62,17.54,17.54,0,0,0,5.6,1q2.35-.06,2.76-1.47a3.15,3.15,0,0,1,3.13-2.39,3.34,3.34,0,0,1,2.47.91,2.18,2.18,0,0,1,.64,1.65v.16l0,.15a3.38,3.38,0,0,1,.09.82c0,10.39-.24,21-.82,31.34a3.15,3.15,0,0,1-.57,1.7l-.09.13,0,.16a2.54,2.54,0,0,1-2.54,1.85c-4.72.13-9.5.24-14.25.33-19.08.35-38.42.29-57.5-.15a2.56,2.56,0,0,0-.27,0h0a2.55,2.55,0,0,1-.51.86A3.79,3.79,0,0,1,103,98.4a2.82,2.82,0,0,1-1-.17l-.22-.09h-.22l-2.34,0c-5.36.06-10.75,0-16.1-.18s-9.2.44-10.42-5.56c-1-4.79-1.14-13.41-8-13.41a4.71,4.71,0,0,0-2.37.64c-5.49,3.09-.61,9.88-3.46,14a7.4,7.4,0,0,1-5,2.85c-4.72.75-10,0-14.73-.42L28.57,95.3a3.22,3.22,0,0,1-3-2.72l-.05-.2-.11-.17A3.24,3.24,0,0,1,25,90a81.63,81.63,0,0,0,.33-19.39l-.13-1.32-1.28.39A17.6,17.6,0,0,1,19,70.3a22.41,22.41,0,0,1-5.2-.64c-7.64-1.87-9.14-8-9-12.86.15-7.76,7.1-11.95,13.56-11.95a14.28,14.28,0,0,1,5,.9l1.74.64-.24-1.83c-.13-1-.31-2-.49-3a32,32,0,0,1-.7-7.14c.08-1.39.22-2.78.4-4.15Z" style="fill:#fbb03b"/><path d="M183.75,30.27H24.08c.13-1.1.26-2.19.41-3.24a87.57,87.57,0,0,0,.91-9.14A2.89,2.89,0,0,1,27.76,15l.31-.09.22-.22a3,3,0,0,1,2.14-.91,4.13,4.13,0,0,1,.68.07c9.86,1.87,20,1.94,29.89,2l5.58.06,36.26.49a2.61,2.61,0,0,1,.42,0,2.13,2.13,0,0,1,.51-.75l.09,0,0-.09a2.6,2.6,0,0,1,2.12-.95c8-.15,16.06-.44,24-.84h.13A2.84,2.84,0,0,1,132.6,15l.24.33.4.09a3.33,3.33,0,0,1,2.38,1.79,2.4,2.4,0,0,1-.24,2.31,6.47,6.47,0,0,0-.53,5.76A7.64,7.64,0,0,0,140,29.59a5.84,5.84,0,0,0,1.54.22c1.92,0,2.89-1.44,3.53-2.65.84-1.57,2-4.46.42-6.09l-.22-.22-.27-.09a3.18,3.18,0,0,1-2.12-3.22,2.74,2.74,0,0,1,2-2.71l.1,0,.09-.05a2.64,2.64,0,0,1,.91-.22,2.83,2.83,0,0,1,.7.11l.18,0,.18,0c3.28-.12,6.64-.23,9.9-.27,7.32-.16,14.69-.11,21.9.09a3.17,3.17,0,0,1,1.57.44l.15.09.16,0A2.88,2.88,0,0,1,183,17.72c.4,4.12.62,8.31.71,12.55" style="fill:#d6d8dc"/><path d="M257.22,22.76a3.2,3.2,0,0,1,.07-.33l0-.18v-.17a2.72,2.72,0,0,1,0-.64A3,3,0,0,1,258.1,20a5.76,5.76,0,0,0,1.3-2.87,16.17,16.17,0,0,0,0-4.23c-.32-3.27-2.43-4.53-5-5.73-3.1-1.48-5.85-.72-8.18,2.26a8,8,0,0,0-1.61,3.37,3.8,3.8,0,0,0,.84,3.27,3.18,3.18,0,0,1,.84,2.26v.12l0,.12a2.63,2.63,0,0,1,0,1,3.8,3.8,0,0,1-1.85,2.58,3.11,3.11,0,0,1-2.77.09c-4.91-2.08-10.17-2.86-15.26-3.62a84.4,84.4,0,0,1-10.89-2.11l-1.25-.36-.15,1.28c-.39,3.15-.85,6.32-1.38,9.43-1.08,6.26-2.49,12.55-4.19,18.69a2.94,2.94,0,0,1-2.26,2.21l-.33.08-.23.25a3.89,3.89,0,0,1-2.89,1.2A3.23,3.23,0,0,1,200.42,48c-2.43-2.94-5.12-4.31-7.59-3.85-2.28.42-3.76,3.16-4.17,5.52a6.46,6.46,0,0,0,0,2.49,4.93,4.93,0,0,0,3.3,3.68,10.38,10.38,0,0,0,8.77-1.59,2.35,2.35,0,0,1,2.58-.41,3.7,3.7,0,0,1,1.88,3.2v.34l.2.29a3,3,0,0,1,.51,2.27c-.31,2.11-.58,4.25-.86,6.4-.45,3.41-.91,7-1.5,10.39-.54,3.11-1.13,5.83-1.8,8.31l-.32,1.18,1.2.2c7.48,1.25,15,2.64,22.37,4.12l1.45.3-.14-1.48a17.74,17.74,0,0,1,.19-4.6,13.71,13.71,0,0,1,5.32-9.11,10.5,10.5,0,0,1,8.31-1.49c9.05,1.79,11.78,10.25,10.47,17.83a21.21,21.21,0,0,1-.64,2.73l-.35,1.14,1.17.26L267,99.62l1.15.25.18-1.16c.19-1.26.4-2.52.61-3.78,1.18-6.8,2.66-13.54,4.42-20a3,3,0,0,1,3.42-2.29l.52,0,.36-.37a2.63,2.63,0,0,1,4-.07,12.73,12.73,0,0,0,8.47,4,8.8,8.8,0,0,0,4.67-.72,4.15,4.15,0,0,0,2-3,13.41,13.41,0,0,0,.12-2.18v-.64c.06-3.59.1-6.69-4.36-8.22-2.3-.79-5-1.37-7.38.33a2.59,2.59,0,0,1-2.24.49,3.26,3.26,0,0,1-2-1.85l-.06-.12-.09-.11a3,3,0,0,1-.59-2.44L284.43,32l.17-1-1-.24c-8.1-2-16.23-3.58-24.16-4.75a2.59,2.59,0,0,1-1.8-1,2.91,2.91,0,0,1-.42-2.21M302.8,73.12c-.93,5.39-3.93,8.28-9.44,9.1a18.42,18.42,0,0,1-13.15-3.13l-1.3-.89-.4,1.53c-1.43,5.66-2.64,11.37-3.61,17-.32,1.84-.61,3.7-.88,5.54l0,.22.05.22a3.45,3.45,0,0,1,0,1.47,3.27,3.27,0,0,1-1.33,2.21,2.78,2.78,0,0,1-2.23.35l-22-4.77h0l-.07,0-3.91-.9A3.32,3.32,0,0,1,242,97.48a2.31,2.31,0,0,1,.33-.87,19.81,19.81,0,0,0,2.41-6.43c.82-4.75-.81-8.15-4.59-9.58a5.72,5.72,0,0,0-7.37,3.29,7.28,7.28,0,0,0-.57,1.84c-.44,2.54.5,5.06,1.36,7a3,3,0,0,1,.28,1.28v.1l0,.11a3.6,3.6,0,0,1,0,1.18,3.3,3.3,0,0,1-1.34,2.21,2.8,2.8,0,0,1-2.24.37c-11.29-2.39-22.78-4.52-34.18-6.34a2.61,2.61,0,0,1-1.81-1,3,3,0,0,1-.43-2.23,3.72,3.72,0,0,1,.87-1.83l.16-.18.06-.23a82.48,82.48,0,0,0,2.54-10.92c.6-3.48,1.07-7,1.52-10.47l.18-1.37.19-1.48-1.47.24a14.89,14.89,0,0,1-12.34-3.39,9.86,9.86,0,0,1-3-8.55c.05-.5.12-1,.21-1.49.73-4.25,2.88-9.54,9-10.61a12.55,12.55,0,0,1,10,2.84l1.33,1,.41-1.62c1.26-4.94,2.33-10,3.19-15,.81-4.66,1.45-9.42,1.91-14.16l0-.28A2.14,2.14,0,0,1,210,9.14a3.57,3.57,0,0,1,3.25.51l.35.24.42-.05a3.16,3.16,0,0,1,1.64.2c4.66,1.8,9.57,2.52,14.32,3.23,2.46.36,5,.74,7.47,1.26l1.33.28V13.45a12.4,12.4,0,0,1,.19-2.17C240,5.05,245.62-1,252.85.13,258,.93,264,4.77,265.18,9.82a20.47,20.47,0,0,1,.35,8,15,15,0,0,1-.35,1.54l-.33,1.18,1.21.2c7.5,1.26,14.92,2.83,22,4.67a2.93,2.93,0,0,1,2.3,2.85l0,.27.13.24a3,3,0,0,1,.34,2L289.05,42,287.2,53.17,287,54.48l1.32,0a19.64,19.64,0,0,1,8.21,1.87c4.91,2.17,6.94,6.54,6.56,14.17a22.63,22.63,0,0,1-.28,2.62" style="fill:#141f47"/><path d="M23.6,51.41A3.68,3.68,0,0,1,22,51l-.25-.12h-.5a3.18,3.18,0,0,1-2.6-1.31,5.28,5.28,0,0,0-4.36-2,10,10,0,0,0-4.14,1c-3,1.4-4.07,3.14-3.89,6.21.24,4.41,2.6,5.57,6.31,6a16.91,16.91,0,0,0,1.93.12c3,0,4-1.22,6.29-2.69a3.64,3.64,0,0,1,2.78-.58A3.66,3.66,0,0,1,26,60.35c.94,3.44.85,7.95,1,11.53A91.09,91.09,0,0,1,26.58,85l-.11,1.13,1.13.08a216.32,216.32,0,0,0,22.16,1,6.52,6.52,0,0,0-.36-1.33l-.09-.38c-.14-.54-.28-1.08-.38-1.56a3.05,3.05,0,0,1,0-.81V83l0-.14a11.15,11.15,0,0,1,2.53-9A11.38,11.38,0,0,1,61.6,69.9a14.26,14.26,0,0,1,10,6.7,8.62,8.62,0,0,1,.65,7.82l-.15.35.1.36.05.13c.09.47.16.94.23,1.43.12.71.22,1.42.37,2.12a6.75,6.75,0,0,1,.14.76,62.29,62.29,0,0,0,11.26-.06c3.35-.25,7.7,0,10.85-1a2.88,2.88,0,0,0-.07-1A151.32,151.32,0,0,1,93.7,66.35V65l-1.31.23a17.43,17.43,0,0,1-3.21.28,24,24,0,0,1-3.9-.34c-5.29-.89-8.4-4.82-8.54-10.78a13.38,13.38,0,0,1,3.65-9.92,12.86,12.86,0,0,1,9.28-3.81,14.82,14.82,0,0,1,3,.33l1.5.33-.17-1.52a82.34,82.34,0,0,1,.16-19.21l.15-1.22H93.13l-4.36-.06-29.25-.4-3,0c-9.44-.11-19.2-.23-28.66-1.69L26.7,17l-.11,1.17c-.17,1.72-.41,3.47-.64,5.16a81,81,0,0,0-.9,9.67,41.65,41.65,0,0,0,.68,7c.49,3.13.95,6.09.39,9.21a2.39,2.39,0,0,1-2.52,2.18m2.06-40.79a3.21,3.21,0,0,1,.68.07c9.87,1.86,20.05,1.93,29.89,2,1.87,0,3.73,0,5.6.05l36.25.49a2.82,2.82,0,0,1,2.47,1.3,3.64,3.64,0,0,1,.22,3.35l-.11.23v.27a3.15,3.15,0,0,1,0,.75,72.62,72.62,0,0,0,.57,26.53,3,3,0,0,1-.46,2.45,3.71,3.71,0,0,1-2.48,1.48l-.13,0-.11,0a2,2,0,0,1-.71.14,2.6,2.6,0,0,1-1.51-.56,11.68,11.68,0,0,0-6.62-2.34c-3.62,0-5.94,2.35-6.21,6.29-.2,2.91.21,5.65,4.54,6.05.57,0,1.24.1,1.94.1,2.31,0,4-.62,5.1-1.89a2.68,2.68,0,0,1,2-1,3.18,3.18,0,0,1,2.25,1.08,3.3,3.3,0,0,1,1,2.46v.22l.07.21a3.06,3.06,0,0,1,.17,1.16,144.57,144.57,0,0,0,1.81,29.65,3.18,3.18,0,0,1-.7,2.68,3.86,3.86,0,0,1-2.85,1.34,2.7,2.7,0,0,1-1-.19L97.05,95h-.23l-2.33,0c-5.38.08-10.75.06-16.11-.16s-9.19.44-10.42-5.58c-1-4.76-1.14-13.39-8-13.39a4.75,4.75,0,0,0-2.36.62c-5.5,3.1-.63,9.9-3.46,14a7.47,7.47,0,0,1-5,2.85c-4.72.76-10,0-14.74-.41l-10.54-.79a3.19,3.19,0,0,1-3-2.71l-.05-.2L20.68,89a3.19,3.19,0,0,1-.48-2.24,81,81,0,0,0,.32-19.38l-.14-1.32-1.27.38a17.13,17.13,0,0,1-4.88.67A21.81,21.81,0,0,1,9,66.49c-7.65-1.87-9.13-8-9-12.87.16-7.76,7.11-11.95,13.58-11.95a14.12,14.12,0,0,1,5,.9l1.73.65-.25-1.83c-.14-1-.31-2-.48-3a32.21,32.21,0,0,1-.7-7.15c.15-2.46.49-5,.81-7.38a87.85,87.85,0,0,0,.9-9.14A2.94,2.94,0,0,1,23,11.82l.31-.07.22-.23a3,3,0,0,1,2.13-.9" style="fill:#141f47"/><path d="M98.73,51.33l0-1.1h-.35l-.28.21a3.07,3.07,0,0,1-1.73.62,2.81,2.81,0,0,1-2-.79c-.18-.15-.34-.3-.5-.45a4.77,4.77,0,0,0-3.25-1.69,3.57,3.57,0,0,0-1.44.35,8.17,8.17,0,0,0-3.9,5A3.18,3.18,0,0,0,86,56.15a6.92,6.92,0,0,0,5.14,2,4.48,4.48,0,0,0,3.11-1.1,2.94,2.94,0,0,1,2.1-.95,3.61,3.61,0,0,1,2.54,1.08l.48.48.64-.2a3.37,3.37,0,0,1,1.09-.18,2.84,2.84,0,0,1,2.08.73,2.55,2.55,0,0,1,.69,1.91v.32l-.19,25.61v1.09l1.08,0c18,.38,36.18.41,54.1.08,3.64-.07,7.29-.15,10.93-.24l1,0,0-1c.35-7.45.55-14.24.62-20.73V63.67l-1.32.24a12.53,12.53,0,0,1-2.15.22c-6.06.11-13.23-3.72-14.25-10.11a12.43,12.43,0,0,1,6.5-12.75,13.86,13.86,0,0,1,6.64-1.77,16.23,16.23,0,0,1,4.39.53l1.32.33.05-1.35a174.36,174.36,0,0,0-.31-20.56l-.07-1-1,0c-6.3-.12-12.64-.13-18.84,0l-4.1.1-1.25,0,.19,1.24A13.74,13.74,0,0,1,144.57,29a9.67,9.67,0,0,1-6.86,3.8c-.25,0-.5,0-.75,0a13.22,13.22,0,0,1-10-4.48,13.09,13.09,0,0,1-3.5-10.22l.15-1.28-1.3.05c-5.9.26-11.71.46-17.25.6l-1,0-.1,1-2.86,29.38a2.33,2.33,0,0,1-2.45,2.31Zm26.65-40.71h0a2.79,2.79,0,0,1,2.44,1.18l.25.34.41.09A3.36,3.36,0,0,1,130.86,14a2.43,2.43,0,0,1-.25,2.31,6.46,6.46,0,0,0-.52,5.76,7.57,7.57,0,0,0,5.1,4.31,5.34,5.34,0,0,0,1.55.23A4.1,4.1,0,0,0,140.27,24c.83-1.58,2-4.46.42-6.1l-.21-.21-.28-.09a3.16,3.16,0,0,1-2.1-3.23,2.71,2.71,0,0,1,2-2.71l.1,0,.1-.05a2.37,2.37,0,0,1,.9-.21,2.55,2.55,0,0,1,.72.1l.16,0h.18c3.3-.13,6.63-.22,9.91-.28,7.31-.14,14.68-.11,21.9.09a3.2,3.2,0,0,1,1.57.44l.15.08.16,0a2.87,2.87,0,0,1,2.31,2.66,185.08,185.08,0,0,1,.19,31,2.25,2.25,0,0,1-1.19,2l-.14.08-.12.11a2.24,2.24,0,0,1-1.52.68A2.71,2.71,0,0,1,174,48a14.61,14.61,0,0,0-7.46-2.2,6.45,6.45,0,0,0-6.45,4.51A5.3,5.3,0,0,0,163,56.89a17.66,17.66,0,0,0,5.61,1c1.56,0,2.48-.53,2.74-1.48A3.2,3.2,0,0,1,174.46,54a3.39,3.39,0,0,1,2.47.91,2.17,2.17,0,0,1,.65,1.66v.16l0,.14a3.38,3.38,0,0,1,.1.81c0,10.41-.25,21-.81,31.35a3.38,3.38,0,0,1-.57,1.7l-.09.14-.05.15a2.5,2.5,0,0,1-2.54,1.84c-4.73.14-9.52.26-14.25.34-19.08.35-38.43.3-57.51-.16a1.9,1.9,0,0,1-.25,0l-.17,0-.2,0-.2,0a3.58,3.58,0,0,1-.8.1,2.85,2.85,0,0,1-2.09-.74,2.59,2.59,0,0,1-.69-1.91l.1-13.21.1-13.22V62.33l-1.58.72a12.4,12.4,0,0,1-5,1.1,13.14,13.14,0,0,1-9.61-3.67A8.74,8.74,0,0,1,79,53.81c.22-4.26,3.26-8.69,7.56-11a7.83,7.83,0,0,1,3.63-1,9,9,0,0,1,3.8.84l1.4.62.14-1.52.28-2.86,2.4-24.63A2.54,2.54,0,0,1,99,12.54l.07-.06,0-.08a2.58,2.58,0,0,1,2.11-.94c8-.17,16-.45,24-.83Z" style="fill:#141f47"/></g></g></svg>