<svg xmlns="http://www.w3.org/2000/svg" width="93.18" height="103.12" viewBox="0 0 93.18 103.12"><g id="Layer_2" data-name="Layer 2"><g id="Layer_1-2" data-name="Layer 1"><path d="M84.11,32.44A720.63,720.63,0,0,1,39,101.75a3.34,3.34,0,0,1-3.81,1.19,2.72,2.72,0,0,1-2.79-1.56A143.76,143.76,0,0,0,6.87,67.13a3,3,0,0,1-.79-1.26,2.69,2.69,0,0,1-.55-.38,3.36,3.36,0,0,1-.94-2.26A3.46,3.46,0,0,1,5.53,61a66.07,66.07,0,0,1,10-9.67,4,4,0,0,1,2-.89l.32-.25a3.28,3.28,0,0,1,4.28,1l.11.12c.08.11.17.24.21.28l.45.57c.27.35.55.66.83,1,.61.74,1.25,1.46,1.89,2.19,1.23,1.38,2.51,2.7,3.83,4s2.77,2.55,4.21,3.76c.37.32.75.62,1.13.92.17.15.36.3.55.44l.09.07.49.36Q47.72,49,58.36,32.44Z" style="fill:#fbb03b"/><path d="M92.77,16.88q-4.2,7.83-8.66,15.56H58.36C63.92,23.87,69.22,15.12,74.3,6.27a2.92,2.92,0,0,1,2.15-1.52,2.86,2.86,0,0,1,2.49.3,96.55,96.55,0,0,0,12.15,7.3.62.62,0,0,1,.17.11,3.15,3.15,0,0,1,1.51,4.42" style="fill:#d6d8dc"/><path d="M31.46,90.32a150.1,150.1,0,0,0-24-31.66,64.46,64.46,0,0,1,6.77-6.34A82.54,82.54,0,0,0,30,67.12a3.2,3.2,0,0,0,4.13-.81,3.23,3.23,0,0,0,1.63-1.2A608.8,608.8,0,0,0,73.62,7.59C76,9.17,78.49,10.66,81,12A722.7,722.7,0,0,1,31.46,90.32M86.66,7.85l-.16-.1A92.89,92.89,0,0,1,74.35.45a2.85,2.85,0,0,0-2.5-.3,2.91,2.91,0,0,0-2.14,1.52A613,613,0,0,1,31.4,60.28l-.48-.36-.09-.06c-.18-.16-.37-.3-.56-.46l-1.13-.91Q27,56.68,24.93,54.71c-1.32-1.27-2.6-2.6-3.83-4-.64-.72-1.28-1.46-1.9-2.2l-.82-1L17.93,47c-.08-.1-.6-.77-.22-.27-1-1.32-2.79-2.16-4.36-1.14a2.51,2.51,0,0,0-.32.25A4,4,0,0,0,11,46.7a65.59,65.59,0,0,0-10,9.67A3.43,3.43,0,0,0,0,58.63a3.27,3.27,0,0,0,.93,2.25,3.59,3.59,0,0,0,.54.4,3.17,3.17,0,0,0,.8,1.24A144.15,144.15,0,0,1,27.76,96.78a2.74,2.74,0,0,0,2.79,1.56,3.31,3.31,0,0,0,3.8-1.18A722.41,722.41,0,0,0,88.18,12.29a3.17,3.17,0,0,0-1.52-4.44" style="fill:#141f47"/></g></g></svg>