<svg xmlns="http://www.w3.org/2000/svg" width="143.38" height="192.36" viewBox="0 0 143.38 192.36"><g id="Layer_2" data-name="Layer 2"><g id="Layer_1-2" data-name="Layer 1"><path d="M132.09,113.23a20.79,20.79,0,0,0,3.12-2.79,17,17,0,0,0,4.14-15c-2.74-11.55-16-11.42-20.3-11.37-7.08.08-14.53-.12-21.73-.31-4.76-.12-9.63-.25-14.46-.31a53.3,53.3,0,0,0,5.46-28.36C87.64,47.55,84,38.94,75.74,37.46c-5.18-.94-10.91,1.68-14.58,6.66-2.46,3.33-3.74,7-5,10.59-.18.52-.36,1-.55,1.55C51.79,67.1,46.79,74.88,40.36,80c-6.91,5.54-15.64,7.58-22.82,5.47a4.3,4.3,0,0,0-2.95-1.25,4.44,4.44,0,0,0-2.14.57,4.23,4.23,0,0,0-2.24,5.94c-.39,27.37-.09,55.07.88,82.45a4.27,4.27,0,0,0,2,8.3l.81-.14a4.16,4.16,0,0,0,1.65.34h.17a4.26,4.26,0,0,0,2.49-.94c13.57-1.42,27.25,1.39,41.65,4.35,11.85,2.44,24.07,5,36.42,5,1.27,0,2.55,0,3.82-.09,4.09-.18,8.76-.8,12.33-4.05,3.24-2.94,4.9-7.72,4.44-12.79a28.8,28.8,0,0,0-2-7.76,15.92,15.92,0,0,0,5.79-3.77c3.4-3.51,5-8.77,4.31-14.44a31.09,31.09,0,0,0-1.8-7.12,12.94,12.94,0,0,0,6.94-2.73c4.06-3.35,6-9.54,5-16.15A19.55,19.55,0,0,0,132.09,113.23Z" style="fill:#d6d8dc"/><path d="M139.35,95.47c-2.74-11.55-16-11.42-20.3-11.37-7.08.08-14.53-.12-21.73-.31-4.76-.12-9.63-.25-14.46-.31A53.57,53.57,0,0,0,86.78,73H47.05a38.53,38.53,0,0,1-6.69,7c-6.91,5.54-15.64,7.58-22.82,5.47a4.3,4.3,0,0,0-2.95-1.25,4.44,4.44,0,0,0-2.14.57,4.23,4.23,0,0,0-2.24,5.94c-.39,27.37-.09,55.07.88,82.45a4.27,4.27,0,0,0,2,8.3l.81-.14a4.16,4.16,0,0,0,1.65.34h.17a4.26,4.26,0,0,0,2.49-.94c13.57-1.42,27.25,1.39,41.65,4.35,11.85,2.44,24.07,5,36.42,5,1.27,0,2.55,0,3.82-.09,4.09-.18,8.76-.8,12.33-4.05,3.24-2.94,4.9-7.72,4.44-12.79a28.8,28.8,0,0,0-2-7.76,15.92,15.92,0,0,0,5.79-3.77c3.4-3.51,5-8.77,4.31-14.44a31.09,31.09,0,0,0-1.8-7.12,12.94,12.94,0,0,0,6.94-2.73c4.06-3.35,6-9.54,5-16.15a19.49,19.49,0,0,0-3-8,20.79,20.79,0,0,0,3.12-2.79A17,17,0,0,0,139.35,95.47Z" style="fill:#fbb03b"/><path d="M135.73,115.5a20.23,20.23,0,0,0,3.11-2.79,17,17,0,0,0,4.15-15c-2.75-11.56-16-11.42-20.3-11.37-7.09.07-14.53-.13-21.73-.32-4.76-.12-9.63-.25-14.46-.3A53.34,53.34,0,0,0,92,57.39c-.68-7.56-4.34-16.18-12.58-17.66-5.18-.94-10.91,1.68-14.58,6.66-2.46,3.33-3.74,7-5,10.59-.18.52-.35,1-.54,1.55C55.43,69.37,50.43,77.15,44,82.31c-6.91,5.54-15.65,7.58-22.82,5.47a4.3,4.3,0,0,0-2.95-1.25,4.41,4.41,0,0,0-2.14.57A4.23,4.23,0,0,0,13.85,93c-.39,27.38-.1,55.07.88,82.45a4.27,4.27,0,0,0,2,8.3l.81-.13a4.34,4.34,0,0,0,1.65.33h.17a4.28,4.28,0,0,0,2.49-.94c13.56-1.42,27.25,1.39,41.65,4.35,11.85,2.44,24.07,5,36.42,5,1.27,0,2.55,0,3.82-.08,4.09-.18,8.76-.81,12.33-4.05,3.24-2.95,4.9-7.73,4.44-12.8a28.8,28.8,0,0,0-2-7.76,15.79,15.79,0,0,0,5.79-3.77c3.4-3.51,5-8.77,4.31-14.44a31.15,31.15,0,0,0-1.81-7.11,13,13,0,0,0,7-2.74c4.06-3.35,5.95-9.54,4.95-16.15A19.69,19.69,0,0,0,135.73,115.5ZM128.29,133c-1.32,1.08-4.28,1-6.89.89-1,0-2.09-.08-3.11-.05-5,.13-10.09,0-15-.19l-.75,0a4.28,4.28,0,1,0-.27,8.56l.75,0c4.77.15,9.69.3,14.6.2a28.7,28.7,0,0,1,2.51,8c.36,3.06-.37,5.86-2,7.5-2.37,2.44-6.72,2.82-11.35,3l-14.13.6a4.28,4.28,0,0,0,.18,8.56H93l14.12-.6c.93,0,1.87-.09,2.81-.16a24.46,24.46,0,0,1,2,6.85c.22,2.37-.42,4.55-1.67,5.68-1.55,1.41-4.38,1.72-7,1.83-12.59.55-25.57-2.12-38.14-4.7-13.68-2.82-27.76-5.7-41.93-4.68-.91-25.75-1.21-51.78-.89-77.54,9,1.37,19-1.41,27-7.81,7.71-6.18,13.6-15.21,18-27.59.19-.54.38-1.07.56-1.61,1.08-3.1,2.1-6,3.78-8.32,1.39-1.88,3.91-3.72,6.17-3.32,3.26.59,5.18,5.6,5.57,10a44.54,44.54,0,0,1-8,29.39A4.28,4.28,0,0,0,79,94.31c7.08-.08,14.53.12,21.73.31s14.81.39,22,.32c9.44-.09,11.3,2.36,11.88,4.78a8.45,8.45,0,0,1-2.19,7.27,13.16,13.16,0,0,1-4.76,3.24,4.3,4.3,0,0,0-1.83.66c-.49.14-1,.27-1.5.38a35.46,35.46,0,0,1-10.68.25,4.28,4.28,0,0,0-.83,8.52c1.73.17,3.73.32,5.87.32a36.21,36.21,0,0,0,7.39-.71c.56-.12,1.11-.26,1.66-.41a9.88,9.88,0,0,1,2.43,5.5C130.75,128.23,130,131.63,128.29,133Z" style="fill:#242953"/><path d="M4.27,85.86A4.28,4.28,0,0,0,0,90.15l.33,90.08a4.28,4.28,0,0,0,4.28,4.27h0a4.28,4.28,0,0,0,4.27-4.3L8.56,90.12A4.27,4.27,0,0,0,4.27,85.86Z" style="fill:#242953"/><path d="M45.19,53.44a4.17,4.17,0,0,0,1.87.44A4.28,4.28,0,0,0,49,45.75a43.5,43.5,0,0,1-16-13.46,4.28,4.28,0,0,0-6.93,5A52,52,0,0,0,45.19,53.44Z" style="fill:#242953"/><path d="M71,33.19a4.29,4.29,0,0,0,4.29-4.28V4.28a4.29,4.29,0,0,0-8.57,0V28.91A4.28,4.28,0,0,0,71,33.19Z" style="fill:#242953"/><path d="M103.26,44.37a4.29,4.29,0,0,0,2.2-.6L120,35.1a4.28,4.28,0,1,0-4.39-7.35l-14.5,8.66a4.28,4.28,0,0,0,2.19,8Z" style="fill:#242953"/></g></g></svg>