<svg xmlns="http://www.w3.org/2000/svg" width="151.57" height="149.01" viewBox="0 0 151.57 149.01"><g id="Layer_2" data-name="Layer 2"><g id="Layer_1-2" data-name="Layer 1"><path d="M127.39,124c-12,11.59-28.16,19.47-46.19,22.78-18.77,3.45-39.54,4.06-55.4-6.55C12.89,131.59,5.3,116.68,2,101.51-4.16,73.09,4,41.4,25,21.22,45,1.94,76.42-3.93,103.08,2.5,128.41,8.61,146.36,41,148.64,64.91,151,89.26,142.4,109.52,127.39,124Z" style="fill:#d6d8dc"/><path d="M139.69,35.86H13.14C1.15,55-2.82,79.27,2,101.51c3.3,15.17,10.89,30.08,23.8,38.71,15.86,10.6,36.64,10,55.4,6.55,18-3.31,34.18-11.19,46.19-22.78,15-14.47,23.56-34.73,21.25-59.08A83,83,0,0,0,139.69,35.86Z" style="fill:#fbb03b"/><path d="M127.93,119c-10.77,10.39-25.26,17.47-41.44,20.44C69.65,142.48,51,143,36.78,133.51c-11.58-7.74-18.39-21.12-21.35-34.73C9.9,73.29,17.25,44.85,36,26.75,54,9.44,82.2,4.18,106.12,10c22.72,5.48,38.83,34.51,40.87,56C149.07,87.79,141.4,106,127.93,119Z" style="fill:none;stroke:#071d49;stroke-linecap:round;stroke-linejoin:round;stroke-width:8.48234176635742px"/><path d="M106.71,74.55c.81,10.53-1.48,21.63-8.14,29.81s-18.18,12.77-28.23,9.57C53.64,108.6,53.41,90.75,50,76.36c4.52,4.18,13.79,8.51,19.91,9.46C83,87.82,97.2,83.91,106.71,74.55Z" style="fill:none;stroke:#071d49;stroke-linejoin:round;stroke-width:7.42204904556274px"/><path d="M58.4,57.32a11.41,11.41,0,0,0,1.91-11.39,7.3,7.3,0,0,0-2.1-3,6.66,6.66,0,0,0-4.54-1.28A8.73,8.73,0,0,0,47.52,56C50.07,59.05,55.62,60.65,58.4,57.32Z" style="fill:#071d49"/><path d="M101.82,42.66a8.13,8.13,0,0,0-5.64,8.73c.46,3.24,2.95,5.49,5.86,6.66,2.69,1.09,5.37-.36,7.21-2.47a8.46,8.46,0,0,0,1.75-8.2A7.85,7.85,0,0,0,101.82,42.66Z" style="fill:#071d49"/></g></g></svg>