<svg xmlns="http://www.w3.org/2000/svg" width="88.7" height="131.39" viewBox="0 0 88.7 131.39"><g id="Layer_2" data-name="Layer 2"><g id="Layer_1-2" data-name="Layer 1"><path d="M80.29,51.88a17.26,17.26,0,0,1,0,2.69C79.27,71,64.08,82.74,64,99.21a2.6,2.6,0,0,1-1.35,2.4,13.62,13.62,0,0,1-27.08-1.21,3.05,3.05,0,0,1-.86-3.32,3,3,0,0,1-.23-1.77c1.11-7-5.17-11.74-8.94-16.68a35.59,35.59,0,0,1-5.17-9.42,36.31,36.31,0,0,1-1.87-17.33Z" style="fill:#fbb03b"/><path d="M80.29,51.88H18.52a31.34,31.34,0,0,1,1.3-5.78C24.41,31.92,39,22.2,53.91,23.82c14,1.53,25.79,14,26.38,28.06" style="fill:#d6d8dc"/><path d="M54.8,54.79c1.41-2,3.72-2.11,0,0m12.4,4.06C63.45,68.73,56.61,77.16,54,87.25A60.24,60.24,0,0,1,52.79,68c.13-1.62.13-3.85.28-6.08,4.66-1.46,9.4-4,10.38-8.34,1.22-5.38-4.69-8.48-9.18-6.67-4,1.63-5.44,6-6.1,10.33h-.05a28.14,28.14,0,0,1-6,.75,9,9,0,0,1-1.26-.13,12.16,12.16,0,0,0-5.4-5.47c-4.62-2-9.85,2.55-6.86,7.2,1.65,2.56,4.92,3.69,8.42,4.09a26.81,26.81,0,0,1,1.06,3,27.29,27.29,0,0,1-3.15,21.81c-.37-4.94-2.9-9.06-6.32-13.13-5.55-6.59-9.67-13.07-9.95-22-.51-15.89,13-29.79,29.19-28.13C64.29,27,72.76,44.22,67.2,58.85M44.4,103.24a7.83,7.83,0,0,1-8.18-6.45l15.42-.05c-.72,3.49-3.28,6.34-7.24,6.5m.13-33.8a40.54,40.54,0,0,0-1.25-5.69c1.29-.09,2.49-.24,3.5-.39l.73-.12c0,.19,0,.39-.07.58C46.39,73,46.38,82.16,49.06,91l-8.88,0a33,33,0,0,0,4.35-21.58m4.1-49.82c-14.9-1.63-29.5,8.1-34.1,22.27a36.1,36.1,0,0,0,5.76,32.55c3.77,4.93,10,9.69,8.93,16.68a3.09,3.09,0,0,0,.23,1.76,3.08,3.08,0,0,0,.85,3.32,13.63,13.63,0,0,0,27.09,1.2A2.62,2.62,0,0,0,58.74,95C58.79,78.53,74,66.78,75,50.37c.91-15.12-11.5-29.12-26.38-30.75" style="fill:#141f47"/><path d="M45.21,2c-1.15-3.51-6.71-2-5.56,1.53a13.15,13.15,0,0,1,.39,7.3c-.84,3.61,4.71,5.15,5.55,1.53A19.1,19.1,0,0,0,45.21,2" style="fill:#141f47"/><path d="M70.12,8.94l-7.84,7.92c-2.61,2.63,1.46,6.71,4.08,4.07L74.19,13c2.61-2.64-1.46-6.72-4.07-4.08" style="fill:#141f47"/><path d="M88.31,28.19a2.9,2.9,0,0,0-3.94-1l-6.14,4.61a3,3,0,0,0-1,3.94c.71,1.22,2.69,2,3.94,1l6.14-4.61a3,3,0,0,0,1-3.94" style="fill:#141f47"/><path d="M22.57,12.25,16.42,6.5C13.72,4,9.64,8,12.35,10.57l6.15,5.76c2.7,2.53,6.78-1.54,4.07-4.08" style="fill:#141f47"/><path d="M10.55,31a10.34,10.34,0,0,1-5.64-2.23,3,3,0,0,0-4.07,0,2.88,2.88,0,0,0,0,4.07,17,17,0,0,0,9.71,3.92,2.91,2.91,0,0,0,2.89-2.88A2.94,2.94,0,0,0,10.55,31" style="fill:#141f47"/><path d="M49.87,111.55l-9-1.73c-3.62-.7-5.17,4.86-1.53,5.56l1.66.32a19.33,19.33,0,0,0-2,2.24c-1.43,1.9.56,4.18,2.49,4.33,2.34.18,3.19,3.14,2.06,4.88-2,3.12,3,6,5,2.91a8.73,8.73,0,0,0-2.08-11.53,11.51,11.51,0,0,1,3.35-1.42c2.64-.68,2.86-5,0-5.56" style="fill:#141f47"/></g></g></svg>