<svg xmlns="http://www.w3.org/2000/svg" width="219.14" height="135.15" viewBox="0 0 219.14 135.15"><g id="Layer_2" data-name="Layer 2"><g id="Layer_1-2" data-name="Layer 1"><path d="M215.79,42c-8.36-21.44-28.5-35.1-51.07-37.31-19.11-1.91-39.25,4.57-53,18C98,9.26,77.9,2.78,58.79,4.69,36.19,6.9,16.05,20.56,7.72,42-1,64.29,7.6,91,28.65,102.91c-.09,3.93-.27,7.84-.54,11.78h0c-.34,5.84-.88,11.66-1.58,17.44-.3,2.54,3.58,4.09,5.18,2.15a86.75,86.75,0,0,1,22.87-19.59h0c.39-.25.78-.49,1.21-.73,20.14,2.69,41.4-2.3,56-16.63,14.56,14.33,35.82,19.32,56,16.63.43.24.82.48,1.21.73h0a86.86,86.86,0,0,1,22.86,19.59c1.61,1.94,5.48.39,5.18-2.15q-1-8.67-1.61-17.44h0c-.27-3.94-.42-7.85-.51-11.78C215.91,91,224.45,64.29,215.79,42Z" style="fill:#d6d8dc"/><path d="M212.62,35.24H10.88A58.8,58.8,0,0,0,7.72,42C-1,64.29,7.6,91,28.65,102.91c-.09,3.93-.27,7.84-.54,11.78-.34,5.84-.88,11.66-1.58,17.44-.3,2.54,3.58,4.09,5.18,2.15a86.75,86.75,0,0,1,22.87-19.59h0c.39-.25.78-.49,1.21-.73,20.14,2.69,41.4-2.3,56-16.63,14.56,14.33,35.82,19.32,56,16.63.43.24.82.48,1.21.73h0a86.86,86.86,0,0,1,22.86,19.59c1.61,1.94,5.48.39,5.18-2.15q-1-8.67-1.61-17.44c-.27-3.94-.42-7.85-.51-11.78C215.91,91,224.45,64.29,215.79,42A57.21,57.21,0,0,0,212.62,35.24Z" style="fill:#fbb03b"/><path d="M111.36,78.13a42.9,42.9,0,0,1-4,5.79,39.79,39.79,0,0,1-4.11,4.54c-13.21,13-33,17.93-51.49,15.14a3.09,3.09,0,0,0-1.51.15,2.9,2.9,0,0,0-1.55.4A92.24,92.24,0,0,0,29.17,119c.63-6.94,1-13.87,1.18-20.84a2.6,2.6,0,0,0-.49-1.64,2.54,2.54,0,0,0-1.45-2.57c-17.14-9-25.8-29.47-21.26-48.15C11.93,26,28.38,11.62,47.94,7.41,67.33,3.24,89.1,8.72,103.31,22.77a3,3,0,0,1,.33.3,46.44,46.44,0,0,1,3.75,4.24c11.51,14.54,13.54,34.38,4,50.82m2.88-51.79c-.88-1.24-1.79-2.42-2.76-3.57a48.76,48.76,0,0,0-4.09-4.42C93.67,4.9,73.53-1.58,54.42.33,31.83,2.54,11.69,16.2,3.36,37.64c-8.69,22.29-.12,49,20.93,60.9-.24,9.76-.94,19.54-2.12,29.23-.3,2.54,3.57,4.09,5.18,2.15A87.56,87.56,0,0,1,51.43,109.6c20.14,2.69,41.4-2.3,56-16.63a47.27,47.27,0,0,0,4.09-4.51c.28-.3.52-.61.76-.91,14-18,15.14-42.43,2-61.21" style="fill:#141f47"/><path d="M190.5,98.54c.21,9.76.94,19.54,2.12,29.23.3,2.54-3.58,4.09-5.18,2.15a87.56,87.56,0,0,0-24.08-20.32c-20.14,2.69-41.4-2.3-56-16.63a47.27,47.27,0,0,0,4.09-4.51c13.21,13,33,17.93,51.52,15.14a3.14,3.14,0,0,1,1.51.15,2.9,2.9,0,0,1,1.55.4A92.49,92.49,0,0,1,185.62,119c-.63-6.94-1-13.87-1.18-20.84a2.55,2.55,0,0,1,.49-1.63,2.53,2.53,0,0,1,1.45-2.58c17.14-9,25.8-29.47,21.26-48.15C202.85,26,186.38,11.62,166.84,7.41c-19.38-4.17-41.15,1.31-55.36,15.36a48.76,48.76,0,0,0-4.09-4.42c13.72-13.45,33.86-19.93,53-18,22.57,2.21,42.71,15.87,51.07,37.31,8.66,22.29.12,49-20.93,60.9" style="fill:#141f47"/><path d="M185.24,54.8a2.64,2.64,0,0,0-1.6-1.6,2.24,2.24,0,0,0-1.17-.26l-.8.1a3.18,3.18,0,0,0-1.34.78c-.15.21-.31.41-.47.61a3.08,3.08,0,0,0-.41,1.53v.53a2.91,2.91,0,0,0,1.86,2.77,2.22,2.22,0,0,0,1.16.26l.81-.11a3,3,0,0,0,1.34-.78l.47-.61a3,3,0,0,0,.41-1.53V56a2.22,2.22,0,0,0-.26-1.16" style="fill:#141f47"/><path d="M161.33,52.8a2.24,2.24,0,0,0-.63-1,2.28,2.28,0,0,0-1-.62,2.24,2.24,0,0,0-1.17-.26l-.8.1a3.12,3.12,0,0,0-1.34.78l-.47.61a3.09,3.09,0,0,0-.42,1.53v.53a2.45,2.45,0,0,0,.26,1.17,2.76,2.76,0,0,0,1.61,1.6,2.2,2.2,0,0,0,1.16.26l.81-.11a2.9,2.9,0,0,0,1.33-.78l.48-.61a3,3,0,0,0,.41-1.53V54a2.22,2.22,0,0,0-.26-1.16" style="fill:#141f47"/><path d="M137.42,54.8a2.69,2.69,0,0,0-1.61-1.6,2.2,2.2,0,0,0-1.16-.26l-.81.1a3.15,3.15,0,0,0-1.33.78l-.47.61a3,3,0,0,0-.42,1.53v.53a2.34,2.34,0,0,0,.26,1.17,2.24,2.24,0,0,0,.63,1,2.21,2.21,0,0,0,1,.63,2.24,2.24,0,0,0,1.17.26l.8-.11a2.94,2.94,0,0,0,1.34-.78l.48-.61a3,3,0,0,0,.41-1.53V56a2.32,2.32,0,0,0-.26-1.16" style="fill:#141f47"/><path d="M86,54.8a2.69,2.69,0,0,0-1.61-1.6,2.2,2.2,0,0,0-1.16-.26l-.81.1a3.15,3.15,0,0,0-1.33.78l-.47.61A3,3,0,0,0,80.17,56v.53a2.24,2.24,0,0,0,.26,1.17,2.15,2.15,0,0,0,.63,1,2.21,2.21,0,0,0,1,.63,2.24,2.24,0,0,0,1.17.26l.8-.11a2.94,2.94,0,0,0,1.34-.78l.48-.61a3,3,0,0,0,.41-1.53V56A2.32,2.32,0,0,0,86,54.8" style="fill:#141f47"/><path d="M62.05,56.8a2.64,2.64,0,0,0-1.6-1.6,2.22,2.22,0,0,0-1.16-.26l-.81.1a3.18,3.18,0,0,0-1.34.78c-.15.21-.31.41-.47.61A3.08,3.08,0,0,0,56.26,58v.53a2.91,2.91,0,0,0,1.86,2.77,2.24,2.24,0,0,0,1.17.26l.8-.11a3,3,0,0,0,1.34-.78L61.9,60a2.93,2.93,0,0,0,.41-1.53V58a2.22,2.22,0,0,0-.26-1.16" style="fill:#141f47"/><path d="M38.14,54.8a2.24,2.24,0,0,0-.63-1,2.28,2.28,0,0,0-1-.62,2.24,2.24,0,0,0-1.17-.26l-.8.1a3.18,3.18,0,0,0-1.34.78l-.47.61A3.09,3.09,0,0,0,32.34,56v.53a2.45,2.45,0,0,0,.26,1.17,2.76,2.76,0,0,0,1.61,1.6,2.2,2.2,0,0,0,1.16.26l.81-.11a2.9,2.9,0,0,0,1.33-.78L38,58a3,3,0,0,0,.41-1.53V56a2.22,2.22,0,0,0-.26-1.16" style="fill:#141f47"/></g></g></svg>