<svg xmlns="http://www.w3.org/2000/svg" width="252.15" height="132.42" viewBox="0 0 252.15 132.42"><g id="Layer_2" data-name="Layer 2"><g id="Layer_1-2" data-name="Layer 1"><path d="M48.81,13.92H13.88c1.24-1.82,2.43-3.69,3.62-5.53a1.32,1.32,0,0,1,.24-.29A3.46,3.46,0,0,1,21,5.72L41.35,6a3.46,3.46,0,0,1,2.22.88A3.53,3.53,0,0,1,47.3,9.18a41.35,41.35,0,0,1,1.51,4.74" style="fill:#d6d8dc"/><path d="M106.35,5a39.15,39.15,0,0,0-22.17,8.94h48.34A35.92,35.92,0,0,0,106.35,5" style="fill:#d6d8dc"/><path d="M227,13.92H177.89c7.52-3.35,15.36-6,23.62-6.65A38.43,38.43,0,0,1,227,13.92" style="fill:#d6d8dc"/><path d="M90.71,29.72a1.72,1.72,0,0,0-.19-.24l.14.18,0,.06" style="fill:#232a53"/><path d="M61.7,35.73q0,14.79-.05,29.58l-.09,59.94c0,3-3.3,3.93-5.28,2.72a1.88,1.88,0,0,1-.31,0l-17.27.5a3,3,0,0,1-1.87-.56,2.85,2.85,0,0,1-3-3.21,718,718,0,0,0,2.34-83.49l-.27.2,0,0c-.18.13-.34.27-.5.38-1.23,1-2.43,2-3.57,3.12a59.2,59.2,0,0,0-6.53,7.19,2.8,2.8,0,0,1-2.63.94,4,4,0,0,1-2.34-.38L6.67,46.46A2.86,2.86,0,0,1,5.07,44a2.89,2.89,0,0,1,.3-2.63c6.8-8.89,13.29-18.06,19.45-27.42H59.74c1.8,7.07,2,14.48,2,21.81" style="fill:#fbb03b"/><path d="M96.62,24.68s0,0,0,0,.07.07.07.11-.07-.11-.12-.13m62.47,76.65A3.09,3.09,0,0,0,157,99.09a3.36,3.36,0,0,0-2.63-1.33L135,97.29c5.26-19.16,21.93-34.36,21.84-55.12a37.82,37.82,0,0,0-13.35-28.25H95.12a37.6,37.6,0,0,0-6.81,7.36,2.93,2.93,0,0,0,1.33,4.5,2.66,2.66,0,0,0,.47,1.28A33.23,33.23,0,0,0,103.5,38.6a3,3,0,0,0,.56.23,3.63,3.63,0,0,0,6.42-.61c3-8,13.81-8.94,18.37-1.89,2.65,4.13,1.51,9.19-.4,13.39-2.31,5-5.41,9.73-8.22,14.49Q103.09,93.42,86,122.6a3.39,3.39,0,0,0,2.89,5.08c4.74-.2,9.48-.43,14.22-.63a3.7,3.7,0,0,0,1-.2l49.55-1.31a3.38,3.38,0,0,0,6.2-1.86,74.15,74.15,0,0,0-.74-22.35" style="fill:#fbb03b"/><path d="M251.42,90.62A37,37,0,0,1,232,128.4c-13.65,7.16-30.72,4.47-42-5.82a3.84,3.84,0,0,1-2.89-.22,3.43,3.43,0,0,1-1.22-4.61l6.81-14.64a3.7,3.7,0,0,1,1.55-2.09,3.49,3.49,0,0,1,4.63,1.21c3.3,4.45,8.58,8,14.19,8.51a14.77,14.77,0,0,0,13.43-6.06c3.28-4.81,2.18-10.74-1.26-15.14-4-5.07-10.31-7.52-16.33-9.16a3.08,3.08,0,0,1-2.35-3.21,3.14,3.14,0,0,1-.21-1.13q.24-4.2.48-8.44s0,0,0,0c-.85-1.46-.45-3.87,1.19-4.63A46.2,46.2,0,0,0,222.74,52.5c3.39-3.63,7.39-8.8,5.3-14.06-1.66-4.22-6.36-7.07-10.78-7.34-6.16-.36-11.82,2.54-16.65,6.09a2.85,2.85,0,0,1-2.51.36s-.07.11-.11.15a3.42,3.42,0,0,1-4.79,0,108.82,108.82,0,0,1-10.8-16,3.35,3.35,0,0,1,.18-3.59A2.72,2.72,0,0,1,184.26,16c1.51-.72,3-1.42,4.56-2.09H237.9A33.91,33.91,0,0,1,250,29.73c5.23,13.81.7,29.29-9.21,39.73a37.52,37.52,0,0,1,10.67,21.16" style="fill:#fbb03b"/><path d="M37.84,30.89c-.11-3-3.39-3.92-5.33-2.76a2.83,2.83,0,0,0-1.9.46A64.47,64.47,0,0,0,16.8,41.1L8.3,37.2Q19.15,22.78,28.92,7.6l18.49.29h0c2.54,7.74,2.64,15.86,2.63,24q0,14.84,0,29.68l-.09,54.88-14,.42a725.11,725.11,0,0,0,1.94-85.95M53.34,4.28A3.5,3.5,0,0,0,49.63,2a3.31,3.31,0,0,0-2.22-.88L27,.83a3.45,3.45,0,0,0-3.21,2.38,3.5,3.5,0,0,0-.24.3q-10.84,17-23.06,33a2.85,2.85,0,0,0-.31,2.63,2.93,2.93,0,0,0,1.6,2.49L15.4,47.84a3.76,3.76,0,0,0,2.32.38,2.79,2.79,0,0,0,2.64-.93,61.06,61.06,0,0,1,6.53-7.2C28,39,29.24,38,30.47,37c.16-.13.32-.26.49-.38l0,0a2.92,2.92,0,0,1,.28-.21,724.62,724.62,0,0,1-2.34,83.48,2.86,2.86,0,0,0,3,3.22,3,3,0,0,0,1.85.56l17.28-.5c.1,0,.21,0,.32,0,2,1.21,5.27.31,5.28-2.73l.09-59.94q0-14.78,0-29.57c0-9-.24-18.09-3.48-26.57" style="fill:#071d49"/><path d="M148.63,113.92,92.42,115.4a3.55,3.55,0,0,0-1.44.34l-1,.05Q104.6,91,119.18,66.11c2.69-4.59,5.46-9.14,8.07-13.78,2.33-4.17,4.44-8.62,4.92-13.43a17.45,17.45,0,0,0-11.81-18.28c-7.32-2.52-14.93.88-19.12,6.87A28.15,28.15,0,0,1,98.55,26c-.56-.35-1.1-.72-1.63-1.11l-.29-.21-.73-.6a30.35,30.35,0,0,1-2.77-2.67c-.42-.46-.83-.94-1.22-1.43l0,.07a1.47,1.47,0,0,0-.1-.13h0a1.1,1.1,0,0,1-.13-.18l-.06-.07c-.21-.3-.42-.59-.62-.89a3.6,3.6,0,0,0-.51-.59c11-13.5,32.3-15.37,44.94-3a31.55,31.55,0,0,1,9.65,24.16c-.53,9.21-5.07,17.63-9.49,25.51-5.17,9.22-10.75,18.49-12.83,29a3.4,3.4,0,0,0,2,3.86,3.36,3.36,0,0,0,2.68,1.39l20.41.49a68.3,68.3,0,0,1,.73,14.34m5.58-17.46a3.18,3.18,0,0,0-2.13-2.27,3.33,3.33,0,0,0-2.61-1.31l-19.39-.47C135.33,73.25,152,58,151.92,37.29S133.3-1.5,112.4.1a38.88,38.88,0,0,0-29,16.31c-1.33,1.89-.3,3.71,1.33,4.49a2.72,2.72,0,0,0,.46,1.28A33.5,33.5,0,0,0,98.6,33.72a4.66,4.66,0,0,0,.58.23,3.62,3.62,0,0,0,6.41-.62A10.35,10.35,0,0,1,124,31.45c2.67,4.13,1.51,9.19-.4,13.38-2.31,5-5.42,9.73-8.21,14.5L81.06,117.72A3.4,3.4,0,0,0,84,122.79l14.21-.62a3.55,3.55,0,0,0,1-.21l49.54-1.3a3.58,3.58,0,0,0,2.84,1.51,3.48,3.48,0,0,0,3.37-3.37,73.43,73.43,0,0,0-.73-22.34" style="fill:#071d49"/><path d="M232.35,111.07a30.34,30.34,0,0,1-43.52.9q1.62-3.47,3.22-6.93c7.49,6.95,18.28,10.2,27.87,5,4.91-2.66,9-7.48,10.11-13,1.24-6.41-1.11-12.72-5.29-17.58s-10.3-7.8-16.43-9.7c.12-2.31.24-4.61.37-6.92a51.84,51.84,0,0,0,12.15-8.62c4.09-3.93,8.25-8.87,9.33-14.61,2.12-11.26-8.44-20.18-19.06-20.12-6.85,0-13.35,3.05-18.77,7l-.28.25-.3-.38s0,0,0-.05l-.34-.44-.67-.9c-.92-1.24-1.8-2.5-2.66-3.77-1.14-1.7-2.2-3.44-3.24-5.21,15.26-6.94,35.64-12.14,48.46,2,11.74,12.91,8.1,32.34-3.91,43.61a3,3,0,0,0-.52,3.94,2.87,2.87,0,0,0,1,2.62c12.37,11.14,13.9,30.55,2.48,42.94m3.52-46.48c9.9-10.46,14.43-25.94,9.21-39.75C239.16,9.17,223.94,1.11,207.56,2.4c-9.95.78-19.26,4.45-28.19,8.72a2.77,2.77,0,0,0-1.68,2.1,3.38,3.38,0,0,0-.18,3.61,108.59,108.59,0,0,0,10.82,16,3.36,3.36,0,0,0,4.76,0,.88.88,0,0,0,.12-.15,2.85,2.85,0,0,0,2.52-.35c4.83-3.56,10.48-6.45,16.64-6.09,4.44.26,9.11,3.12,10.79,7.35,2.07,5.24-1.91,10.41-5.31,14a46.26,46.26,0,0,1-14.72,10.46c-1.66.76-2.06,3.16-1.21,4.61l0,0q-.24,4.22-.46,8.45a2.82,2.82,0,0,0,.19,1.11,3.07,3.07,0,0,0,2.37,3.21c6,1.64,12.34,4.08,16.31,9.16,3.45,4.42,4.56,10.33,1.26,15.14a14.74,14.74,0,0,1-13.43,6.07c-5.61-.53-10.89-4.06-14.2-8.52a3.46,3.46,0,0,0-4.61-1.21,3.59,3.59,0,0,0-1.55,2.08L181,112.87a3.44,3.44,0,0,0,1.2,4.61,3.85,3.85,0,0,0,2.91.22c11.27,10.28,28.35,13,42,5.81a37,37,0,0,0,19.4-37.78,37.46,37.46,0,0,0-10.67-21.14" style="fill:#071d49"/></g></g></svg>