<svg xmlns="http://www.w3.org/2000/svg" width="103.57" height="104.1" viewBox="0 0 103.57 104.1"><g id="Layer_2" data-name="Layer 2"><g id="Layer_1-2" data-name="Layer 1"><path d="M54.6,80c-2-2-4.66-4.35-8.15-4.36h0c-3.2,0-5.69,1.9-7.8,4h0A56.43,56.43,0,0,1,21.35,48.87l6.2-3A6.73,6.73,0,0,0,30,44.1c1.74-2.14,1-5,.69-6C28.75,31.19,24.59,25,20.91,19.59a2.22,2.22,0,0,0-3.09-.6,2.27,2.27,0,0,0-.69.76C7.43,21.9,1.21,31.8.2,40.52-1,51.06,3.44,61.21,6.88,67.93l1,1.86C12.12,78.17,17,87.66,23.68,94.35c5.64,5.62,14.56,9.21,23.07,9.21A23.26,23.26,0,0,0,62,98.42a2.14,2.14,0,0,0,.67-1,2.05,2.05,0,0,0,.86-.21,2.24,2.24,0,0,0,1-3A54.84,54.84,0,0,0,54.6,80Z" style="fill:#d6d8dc"/><path d="M64.63,94.24A54.57,54.57,0,0,0,54.66,80c-2-2-4.66-4.35-8.15-4.36h0c-3.19,0-5.69,1.9-7.79,4h0A56.43,56.43,0,0,1,21.41,48.87l6.2-3A6.73,6.73,0,0,0,30,44.1c1.74-2.14.95-5,.69-6a46.25,46.25,0,0,0-5-11.16H6A27.13,27.13,0,0,0,.26,40.52C-.95,51.06,3.49,61.21,6.94,67.93l1,1.86C12.18,78.17,17,87.66,23.74,94.35c5.64,5.62,14.56,9.21,23.07,9.21a23.28,23.28,0,0,0,15.26-5.14,2.22,2.22,0,0,0,.67-1,2.05,2.05,0,0,0,.86-.21A2.23,2.23,0,0,0,64.63,94.24Z" style="fill:#fbb03b"/><path d="M57.34,80.53c-2-2-4.66-4.35-8.15-4.36h0c-3.2,0-5.69,1.9-7.8,4h0A56.4,56.4,0,0,1,24.1,49.41l6.19-3a6.68,6.68,0,0,0,2.42-1.74c1.74-2.15.95-5,.69-6-1.91-6.95-6.07-13.11-9.74-18.54a2.23,2.23,0,0,0-3.79.15C10.17,22.45,4,32.34,3,41.07,1.73,51.6,6.18,61.75,9.63,68.47l.95,1.87c4.28,8.37,9.13,17.87,15.84,24.55,5.65,5.63,14.56,9.21,23.07,9.21A23.28,23.28,0,0,0,64.76,99a2.17,2.17,0,0,0,.66-1,2.41,2.41,0,0,0,.86-.21,2.23,2.23,0,0,0,1-3A54.44,54.44,0,0,0,57.34,80.53ZM29.58,91.73c-6.21-6.19-10.89-15.34-15-23.42l-1-1.87c-3.18-6.21-7.29-15.53-6.22-24.86,1.11-9.64,7.82-15.8,13.88-17,3.21,4.8,6.33,9.79,7.84,15.3.43,1.56.18,1.93.14,2a4,4,0,0,1-.91.54L21,45.94A2.19,2.19,0,0,0,20,47a2.26,2.26,0,0,0-.56,1.9A60.84,60.84,0,0,0,38.31,83.41a2.23,2.23,0,0,0,1.52.6L40,84a2,2,0,0,0,.37.46,2.23,2.23,0,0,0,3.15-.1c1.76-1.88,3.65-3.72,5.64-3.72h0c1.83,0,3.62,1.61,5,3a50.08,50.08,0,0,1,8.38,11.55,2.26,2.26,0,0,0-.65.38C53.22,102.91,37.4,99.53,29.58,91.73Z" style="fill:#242953"/><path d="M43.2,40.64A26.38,26.38,0,0,1,55.94,60.5a2.23,2.23,0,0,0,2.22,2h.22a2.24,2.24,0,0,0,2-2.44A30.91,30.91,0,0,0,45.45,36.78a2.23,2.23,0,0,0-2.25,3.86Z" style="fill:#242953"/><path d="M50,19.4a2.23,2.23,0,1,0-1.33,4.26A38.58,38.58,0,0,1,75.86,61.05a2.23,2.23,0,0,0,2.2,2.27h0a2.23,2.23,0,0,0,2.23-2.2A43,43,0,0,0,50,19.4Z" style="fill:#242953"/><path d="M103.53,60.21C101,45.65,97,34,91.23,24.46,83.94,12.52,73.6,3.87,62.08.11A2.23,2.23,0,1,0,60.7,4.35c10.5,3.43,20,11.4,26.71,22.43,5.5,9,9.33,20.19,11.72,34.19a2.24,2.24,0,0,0,2.2,1.85,2.43,2.43,0,0,0,.38,0A2.23,2.23,0,0,0,103.53,60.21Z" style="fill:#242953"/></g></g></svg>