<svg xmlns="http://www.w3.org/2000/svg" width="111.92" height="124.57" viewBox="0 0 111.92 124.57"><defs><style>.cls-1{fill:#e55e4f;}.cls-2{fill:#242953;}</style></defs><g id="Layer_2" data-name="Layer 2"><g id="Layer_1-2" data-name="Layer 1"><g id="Apple"><path class="cls-1" d="M90.21,26.93A32.33,32.33,0,0,0,71,23.2c-6.83.71-12.83,4.42-19.55,5.58C40,30.76,24.31,23,14.31,31,.94,41.57-.95,59.69.34,75.55,1.55,90.31,5.64,106,18.11,115.26c10.18,7.56,24.61,8.08,34-.74,9.89,10.54,25.79,6.52,35-2.75,11.23-11.27,18.24-28.58,19.77-44.23,1.45-14.82-2.83-32.75-16.73-40.61"/><path class="cls-2" d="M94.93,30.47c-9.7-5.49-21.18-4.71-31.38-.83A10.54,10.54,0,0,1,70.11,22c2.61-1,5.56-1.16,7.69-3.22C81.78,15,80,8.54,75.35,6.16c-5.83-3-12.74.4-16.94,4.65s-6.62,9.94-8.68,15.62A71.9,71.9,0,0,0,11.59.13C8.62-.72,7,2.87,8.5,4.81,7.33,17.64,16,25.48,26.55,30.34A26.44,26.44,0,0,0,19,34.5C5.67,45.11,3.76,63.22,5.06,79.09c1.21,14.76,5.29,30.43,17.76,39.7,10.18,7.57,24.61,8.09,34-.73,9.89,10.54,25.79,6.52,35-2.76,11.22-11.26,18.24-28.58,19.77-44.22,1.45-14.83-2.84-32.75-16.73-40.61m-41.8,4c2.14-5.85,3.9-12.23,7.65-17.3a15.52,15.52,0,0,1,7.08-5.7c2-.68,6.74-1,5.62,2.2-.68,1.93-1.68,1.71-3.6,2.31-7.5,2.37-12.68,8.61-12.59,16.53q-2.35,1.26-4.55,2.7a3.24,3.24,0,0,0,.39-.74M14.33,7.21A65.49,65.49,0,0,1,45.17,30.14C32.34,27.38,14.85,22.07,14.33,7.21m91.59,61.91c-.83,12.94-6.13,25.93-13.59,36.45-6.79,9.59-21.45,19.19-31.54,8.07a2.52,2.52,0,0,0-2.88-.74,2.69,2.69,0,0,0-4.09-.08c-8.3,8.81-21.36,7-29.77-.63C14.86,103.86,11.92,91,11,79.09c-1-12.26-.52-25.82,7.58-35.81C26.07,34,40.3,30.76,48.73,40.8c1.35,1.61,3.21,1.05,4.21-.26a2.52,2.52,0,0,0,2.66-.2c9.87-6.51,23.48-11,34.86-5.57,12.61,6,16.28,21.61,15.46,34.35"/><path class="cls-2" d="M88.52,51.49c-2.39-3-6.53,1.24-4.16,4.16A21,21,0,0,1,87,77.82c-1.61,3.41,3.47,6.4,5.09,3a27.12,27.12,0,0,0-3.58-29.3"/></g></g></g></svg>