<svg xmlns="http://www.w3.org/2000/svg" width="67.32" height="78.22" viewBox="0 0 67.32 78.22"><defs><style>.cls-1{fill:#fff;opacity:0.2;}</style></defs><g id="Layer_2" data-name="Layer 2"><g id="Layer_1-2" data-name="Layer 1"><g id="apple-faded"><path class="cls-1" d="M56.65,19.13c-6.09-3.45-13.3-2.95-19.71-.52a6.66,6.66,0,0,1,4.12-4.78c1.64-.63,3.49-.73,4.83-2,2.5-2.42,1.41-6.45-1.53-7.94-3.67-1.87-8,.25-10.64,2.92s-4.16,6.24-5.45,9.8A45.25,45.25,0,0,0,4.32.08C2.45-.45,1.46,1.8,2.37,3c-.73,8.06,4.7,13,11.34,16A16.48,16.48,0,0,0,9,21.67C.6,28.32-.6,39.7.22,49.66,1,58.93,3.54,68.77,11.37,74.59c6.39,4.76,15.45,5.08,21.37-.46,6.21,6.62,16.2,4.1,22-1.73,7-7.07,11.45-17.94,12.41-27.77.91-9.31-1.78-20.56-10.5-25.5M30.4,21.62c1.35-3.67,2.45-7.68,4.8-10.85a9.72,9.72,0,0,1,4.45-3.59c1.25-.42,4.23-.63,3.53,1.39-.43,1.2-1.06,1.07-2.26,1.45-4.71,1.49-8,5.4-7.91,10.38-1,.52-1.94,1.09-2.85,1.69a2.07,2.07,0,0,0,.24-.47M6,4.53A41.06,41.06,0,0,1,25.4,18.93c-8-1.74-19-5.07-19.36-14.4M63.55,43.4A45.71,45.71,0,0,1,55,66.29c-4.27,6-13.47,12-19.81,5.07a1.59,1.59,0,0,0-1.81-.47,1.69,1.69,0,0,0-2.57,0c-5.21,5.53-13.41,4.4-18.69-.39C6.37,65.21,4.53,57.12,3.92,49.66,3.29,42,3.59,33.45,8.67,27.18c4.74-5.84,13.67-7.87,19-1.56a1.61,1.61,0,0,0,2.64-.16A1.58,1.58,0,0,0,32,25.33c6.2-4.09,14.74-6.87,21.89-3.5,7.92,3.75,10.22,13.57,9.71,21.57"/><path class="cls-1" d="M52.62,32.33c-1.5-1.85-4.1.78-2.61,2.62a13.15,13.15,0,0,1,1.66,13.91c-1,2.15,2.18,4,3.2,1.87a17,17,0,0,0-2.25-18.4"/></g></g></g></svg>