<svg xmlns="http://www.w3.org/2000/svg" width="298.99" height="278.27" viewBox="0 0 298.99 278.27"><defs><style>.cls-1{fill:#ffd520;}.cls-2{fill:#242953;}</style></defs><g id="Layer_2" data-name="Layer 2"><g id="Layer_1-2" data-name="Layer 1"><g id="Bee"><path class="cls-1" d="M243.47,74.24l1,0a24.71,24.71,0,0,0,16.91-6.85c6.22-6.13,9.59-13.68,9.5-21.27a24.72,24.72,0,0,0-8.22-17.95,24.85,24.85,0,0,0-32.63-1.77C223.79,31.23,220,39.28,219.81,48a29.74,29.74,0,0,0,.28,4.64c-19-14.91-46.65-17.92-68.13-6.42-3.69,2-8.9,5.24-11.56,10.79-6,12.44,3.74,26.61,12.53,32.7a42.22,42.22,0,0,0,5,2.95A53.52,53.52,0,0,0,155,103.05h0c-1.44,8.53-.25,16.15,3.51,22.8a60.09,60.09,0,0,0-10.33,24.32,5.8,5.8,0,0,0,.49,3.94,5.14,5.14,0,0,0,4.65,2.58,8,8,0,0,0,2.43-.4,58.73,58.73,0,0,0,23.09-13.47,3.62,3.62,0,0,0,.71-1,37.73,37.73,0,0,0,8.77,1c1,0,2.08,0,3.13-.13A57.39,57.39,0,0,0,202,140.9c.45.75.91,1.49,1.4,2.2,4.76,7,14.54,14.52,24.58,14.52a18.65,18.65,0,0,0,8-1.78c5.56-2.62,8.86-7.81,10.86-11.48,11.79-21.68,8.73-49.82-6.55-68.89-.32-.63-.65-1.24-1-1.85A20.26,20.26,0,0,0,243.47,74.24Z"/><path class="cls-2" d="M298.92,36a3.64,3.64,0,0,0-4.28-2.83,85.2,85.2,0,0,0-23.33,8.48,25.63,25.63,0,0,0-6.21-8.75A25.3,25.3,0,0,0,254.82,27a43.48,43.48,0,0,0-.26-24.43,3.62,3.62,0,0,0-6.93,2.13A36.16,36.16,0,0,1,247.54,26a24.4,24.4,0,0,0-14.35,5.14c-6.12,4.7-9.87,12.58-10,21.08a29.77,29.77,0,0,0,.27,4.54C204.89,42.2,177.81,39.25,156.8,50.5c-3.61,1.93-8.71,5.13-11.31,10.55-5.82,12.17,3.66,26,12.25,32a40.71,40.71,0,0,0,4.91,2.88,52.68,52.68,0,0,0-2.87,10.2h0c-1.41,8.34-.24,15.8,3.43,22.3a58.75,58.75,0,0,0-10.1,23.8,5.66,5.66,0,0,0,.48,3.85,5,5,0,0,0,4.55,2.52,8.32,8.32,0,0,0,2.38-.38A57.75,57.75,0,0,0,183.11,145a3.46,3.46,0,0,0,.69-.93,37.18,37.18,0,0,0,8.58,1q1.51,0,3.06-.12a56.44,56.44,0,0,0,10.32-1.82c.44.73.89,1.45,1.36,2.15,4.66,6.81,14.23,14.21,24,14.21a18.2,18.2,0,0,0,7.86-1.75c5.44-2.56,8.67-7.64,10.63-11.23,11.53-21.21,8.53-48.73-6.42-67.39-.31-.62-.63-1.22-1-1.81a19.59,19.59,0,0,0,4,.6c.33,0,.66,0,1,0a24.22,24.22,0,0,0,16.54-6.7c6.08-6,9.38-13.39,9.29-20.82,0-.49,0-1-.07-1.48a77.67,77.67,0,0,1,23-8.69A3.63,3.63,0,0,0,298.92,36Zm-137,51.09c-6.29-4.37-13.78-14.67-9.84-22.9,1.28-2.67,3.88-5,8.19-7.29A51.62,51.62,0,0,1,184.59,51c15.12,0,30.42,6,40.48,17.15a23,23,0,0,1,1.48,1.78c-.41.49-1.12,1.21-1.76,1.87l-.62.64a91.57,91.57,0,0,1-10,9c-7.6,5.81-15.41,9.56-23.22,11.17C180.73,94.68,169.87,92.62,161.87,87.08Zm-1,63.35a51.55,51.55,0,0,1,6.85-15.82c.86.93,1.77,1.85,2.75,2.73a28.45,28.45,0,0,0,5.85,4A50.57,50.57,0,0,1,160.9,150.43Zm34-12.69c-7.64.6-14.76-1.52-19.54-5.8-7.35-6.57-10.1-14.62-8.41-24.62h0c.2-1.2.48-2.42.81-3.66,10.18,14.82,18.77,23.38,31.38,33.52C197.69,137.44,196.28,137.63,194.88,137.74Zm-21-38a46.85,46.85,0,0,0,9.18.91,98.74,98.74,0,0,0,16.75,17.31,47.69,47.69,0,0,0,.74,11A130.81,130.81,0,0,1,173.83,99.72ZM201,109.47a91.54,91.54,0,0,1-9.34-9.65l.75-.13a58.34,58.34,0,0,0,14.36-5.08A59.38,59.38,0,0,0,201,109.47Zm42.31,33.6c-2.34,4.29-4.67,6.87-7.35,8.13-8.25,3.89-18.51-3.66-22.83-10-5.49-8-7.48-18.9-5.32-29.1,1.65-7.8,5.46-15.59,11.31-23.14a91.47,91.47,0,0,1,9.05-10l.64-.61c.66-.64,1.38-1.34,1.87-1.75a20,20,0,0,1,1.78,1.49h0C249.71,94,254.47,122.49,243.29,143.07Zm15.48-77a16.6,16.6,0,0,1-12.11,4.6,10.29,10.29,0,0,1-7.61-3.44A3.64,3.64,0,0,0,236.27,66a3.7,3.7,0,0,0-1.18.2,20.68,20.68,0,0,1-4.67-13.79c.11-6.31,2.8-12.09,7.18-15.46,7-5.35,16-4.84,22.55,1.27a17.08,17.08,0,0,1,5.75,12.35C266,56,263.43,61.5,258.77,66.09Z"/><path class="cls-2" d="M113.62,168.36a3.62,3.62,0,0,1-.53-7.21l21.46-3.2a3.62,3.62,0,0,1,1.07,7.17l-21.46,3.2A3.27,3.27,0,0,1,113.62,168.36Z"/><path class="cls-2" d="M86.13,171.76a37.31,37.31,0,0,1-14.47-2.9,3.63,3.63,0,1,1,2.82-6.68,30.14,30.14,0,0,0,17,1.85,3.62,3.62,0,1,1,1.31,7.13A36.74,36.74,0,0,1,86.13,171.76Z"/><path class="cls-2" d="M42.36,158.55a3.59,3.59,0,0,1-2.75-1.27L24,139a3.62,3.62,0,1,1,5.51-4.71l15.63,18.24a3.62,3.62,0,0,1-2.75,6Z"/><path class="cls-2" d="M17.16,116.63a3.63,3.63,0,0,1-3.61-3.3,36.28,36.28,0,0,1,3.74-19.51,3.62,3.62,0,1,1,6.47,3.26,29.55,29.55,0,0,0-3,15.61,3.62,3.62,0,0,1-3.29,3.93Z"/><path class="cls-2" d="M35.86,77.29a3.62,3.62,0,0,1-2.53-6.22,33.08,33.08,0,0,1,25.18-9.16A3.63,3.63,0,1,1,58,69.14a25.77,25.77,0,0,0-19.59,7.12A3.57,3.57,0,0,1,35.86,77.29Z"/><path class="cls-2" d="M84.33,92.52a3.62,3.62,0,0,1-3.57-3,23.21,23.21,0,0,0-6.22-12.36,3.62,3.62,0,1,1,5.18-5.06,30.25,30.25,0,0,1,8.19,16.27,3.61,3.61,0,0,1-3,4.15A3.79,3.79,0,0,1,84.33,92.52Z"/><path class="cls-2" d="M69.91,140.64a3.62,3.62,0,0,1-2.22-6.49A31.26,31.26,0,0,0,78.59,118a3.63,3.63,0,0,1,7,2,38.58,38.58,0,0,1-13.45,19.93A3.6,3.6,0,0,1,69.91,140.64Z"/><path class="cls-2" d="M24.59,178.73a3.63,3.63,0,0,1-2.69-6.06,45,45,0,0,1,11.57-9.15A3.62,3.62,0,1,1,37,169.86a37.64,37.64,0,0,0-9.71,7.68A3.6,3.6,0,0,1,24.59,178.73Z"/><path class="cls-2" d="M3.63,238.49l-.52,0A3.63,3.63,0,0,1,0,234.35l3-20.79a3.62,3.62,0,1,1,7.17,1l-3,20.8A3.62,3.62,0,0,1,3.63,238.49Z"/><path class="cls-2" d="M29.6,271a3.87,3.87,0,0,1-1.1-.17,31.58,31.58,0,0,1-15.52-11,3.62,3.62,0,0,1,5.78-4.37,24.28,24.28,0,0,0,11.93,8.43A3.62,3.62,0,0,1,29.6,271Z"/><path class="cls-2" d="M65.43,278.27c-.92,0-1.84,0-2.76,0A3.62,3.62,0,0,1,63,271a65.11,65.11,0,0,0,20.36-2.47,3.63,3.63,0,1,1,2,7A72.36,72.36,0,0,1,65.43,278.27Z"/></g></g></g></svg>