<?xml version="1.0" encoding="utf-8"?>
<!-- Generator: Adobe Illustrator 24.3.0, SVG Export Plug-In . SVG Version: 6.00 Build 0)  -->
<svg version="1.1" id="Layer_1" xmlns="http://www.w3.org/2000/svg" xmlns:xlink="http://www.w3.org/1999/xlink" x="0px" y="0px"
	 viewBox="0 0 111 93" style="enable-background:new 0 0 111 93;" xml:space="preserve">
<style type="text/css">
	.st0{fill:#00843D;}
	.st1{fill:#071D49;}
	.st2{display:none;}
</style>
<g id="background">
</g>
<g id="Layer_1_1_">
	<g>
		<path class="st0" d="M16.3,71.9c0,0.9,0.5,1.7,1.5,1.8c0.3,0,0.7-0.1,1-0.2c15.8,0.3,56.7,0,72.5,0.3c0.2,0,0.3,0,0.5-0.1
			c0.9,0.3,2.1-0.1,2.1-1.3c0.4-14.7,0.3-37.5-0.6-52.1c0.9-0.9,0.7-2.8-0.9-2.8c-5.5,0-19.8,0.1-29.7,0.1c-3.4,0-7,10.4-10.5,10.5
			c-12.9,0.1-20.4,0.2-27.4,0.2c-0.1-0.2-0.2-0.3-0.4-0.4c-0.4-0.3-0.8-0.3-1.2-0.3c-2.1,0.1-4.1,0.3-6.2,0.4
			c-0.9,0.1-1.4,1.1-1.3,1.9c0,0.1,0,0.2,0.1,0.3c-0.1,0.2-0.2,0.5-0.2,0.7C16,45.2,15.8,57.5,16.3,71.9"/>
		<path class="st1" d="M52.1,63.3c-2.5-4.4-5.6-8.5-9.2-12.1c0.8-0.9,1.7-1.7,2.6-2.4c1.8,2.1,3.8,4.1,6.1,5.7
			c0.5,0.3,1.2,0.1,1.6-0.3c0.2-0.1,0.4-0.2,0.6-0.5c5.3-7.1,10.1-14.4,14.5-22c0.9,0.6,1.9,1.2,2.8,1.7
			C65.4,43.7,59,53.7,52.1,63.3 M73.2,31.7L73.2,31.7c-1.7-0.9-3.2-1.8-4.7-2.8c-0.3-0.2-0.6-0.2-1-0.1c-0.3,0-0.6,0.2-0.8,0.6
			c-4.5,7.8-9.4,15.3-14.7,22.5c-0.1,0-0.1-0.1-0.2-0.1l0,0c-0.1-0.1-0.1-0.1-0.2-0.2c-0.1-0.1-0.3-0.2-0.4-0.4
			c-0.6-0.5-1.1-0.9-1.6-1.4s-1-1-1.5-1.5c-0.2-0.3-0.5-0.6-0.7-0.8c-0.1-0.1-0.2-0.3-0.3-0.4C47,47,47,47,46.9,46.9
			c0,0-0.2-0.3-0.1-0.1c-0.4-0.5-1.1-0.8-1.7-0.4L45,46.5c-0.3,0-0.5,0.1-0.8,0.3c-1.4,1.1-2.7,2.3-3.8,3.7C40.2,50.8,40,51,40,51.4
			c0,0.3,0.1,0.7,0.4,0.9c0.1,0.1,0.1,0.1,0.2,0.2c0.1,0.2,0.2,0.3,0.3,0.5c3.9,3.9,7.2,8.3,9.8,13.1c0.3,0.5,0.7,0.6,1.1,0.6
			c0.5,0.2,1.1,0.1,1.5-0.5C60.9,55.9,67.8,45,73.9,33.7C74.2,32.7,73.8,32,73.2,31.7"/>
		<g>
			<path class="st1" d="M92,72.3c-15.3-0.3-55.8,0-71.1-0.3c-0.4-13.7-0.3-25.4-0.7-39v-0.1c1-0.1,1.9-0.1,2.9-0.2
				c0.2,0.3,0.6,0.6,1.2,0.6c7.3,0,17.7-0.1,31.3-0.2c3.5,0,6.9-10.4,10.3-10.5c9-0.1,20.5-0.1,25.6-0.1
				C92.3,36.4,92.4,58.4,92,72.3 M17.7,73.7c0,0.9,0.5,1.7,1.5,1.8c0.3,0,0.7-0.1,1-0.2c15.8,0.3,56.7,0,72.5,0.3
				c0.2,0,0.3,0,0.5-0.1c0.9,0.3,2.1-0.1,2.1-1.3c0.4-14.7,0.3-37.5-0.6-52.1c0.9-0.9,0.7-2.8-0.9-2.8c-5.5,0-19.8,0.1-29.7,0.1
				c-3.4,0-7,10.4-10.5,10.5c-12.9,0-20.4,0.1-27.3,0.1c-0.1-0.2-0.2-0.3-0.4-0.4c-0.4-0.3-0.8-0.3-1.2-0.3
				c-2.1,0.1-4.1,0.3-6.2,0.4c-0.9,0.1-1.4,1.1-1.3,1.9c0,0.1,0,0.2,0.1,0.3c-0.1,0.2-0.2,0.5-0.2,0.7C17.4,47,17.3,59.3,17.7,73.7"
				/>
		</g>
	</g>
</g>
<g id="header_x2F_footer">
</g>
<g id="modal">
</g>
<g id="popup">
</g>
<g id="GRID" class="st2">
</g>
</svg>
