<svg xmlns="http://www.w3.org/2000/svg" width="41.08" height="41.09" viewBox="0 0 41.08 41.09"><defs><style>.cls-1{fill:#fff;}.cls-2{fill:#009a44;}</style></defs><g id="Layer_2" data-name="Layer 2"><g id="Layer_1-2" data-name="Layer 1"><path class="cls-1" d="M18,8.44a16.26,16.26,0,0,0-6.37,3.47,9.37,9.37,0,0,0-2.72,8.31,10.05,10.05,0,0,0,1.66,4c0,.22,0,.44.1.66a11,11,0,0,0,4.47,6.38,10.85,10.85,0,0,0,7.46,1.53,11.28,11.28,0,0,0,6-2.8,5.27,5.27,0,0,0,1.71-3.79,9.2,9.2,0,0,0,.87-2.47c.06-.08.13-.14.19-.22,2.79-3.79,2.15-9.59-1-12.95S22.21,6.93,18,8.44"/><path class="cls-2" d="M28.42,14.58c-.12-.19-.25-.37-.37-.55l.43.66c.17.29.33.57.48.87s.31.59.44.89.13.3.19.46l0,.09c.17.65.36,1.28.49,1.94.06.34.1.67.15,1h0c0,.81,0,1.61-.05,2.41l-.09.8c.15-1.43-.08.28-.16.58a5.88,5.88,0,0,1-.63,1.88l.26-.56c-.11.24-.23.47-.35.71l-.39.68c-.21.34-.45.65-.67,1,0,0,0,0,0,0l-.07.06c-.2.19-.37.39-.57.57s-.39.36-.6.53-.35.28-.23.2a12.74,12.74,0,0,1-1.18.62c-.23.11-.51.26-.78.36l-.23,0c-.7.16-1.38.32-2.08.44l-.35.06c-.36,0-.75,0-1-.06a9.77,9.77,0,0,1-1.77-.15L19,30l-.94-.26-.93-.31-.36-.14c-.55-.23-.48-.19.22.11a6.21,6.21,0,0,1-2-1.15l-.4-.24s0,0-.14-.13L14,27.5q-.4-.41-.78-.84c-.17-.19-.32-.39-.48-.59l.4.56c-.44-.16-.91-1.45-1.16-2.13,0-.07,0-.11-.05-.25q-.21-.86-.39-1.71a.91.91,0,0,0,0-.16c0-.51,0-1,0-1.53s.06-.88.09-1.32v-.2a2.84,2.84,0,0,0,.11-.43,15.15,15.15,0,0,1,.65-2.18,2.41,2.41,0,0,0,.11-.35l.06-.1c.29-.53.56-1,.87-1.55A5.19,5.19,0,0,0,14,13h0a19.62,19.62,0,0,1,2.17-1.16l.29-.14.53-.17c.61-.18,1.22-.34,1.84-.46L20,10.88h.31c.69,0,1.38,0,2.07.07.11,0,1,.21.53.07l.31.09c.63.15,1.23.43,1.85.6h0c.45.27.9.5,1.33.79.08.05.35.28.52.4l.21.19c.23.23,1.3,1.11,1.31,1.49M23.11.14a22.66,22.66,0,0,0-13,2.56A21.68,21.68,0,0,0,.31,13.48,4.73,4.73,0,0,0,1,17.93c-.9,6.1.56,12.49,5.11,17a22,22,0,0,0,24.12,4.32c8.47-3.81,12-13.55,10.58-22.28A20.84,20.84,0,0,0,35.05,5.68,20.23,20.23,0,0,0,23.11.14"/></g></g></svg>