<svg id="Layer_1" data-name="Layer 1" xmlns="http://www.w3.org/2000/svg" viewBox="0 0 73.23 73.21"><path id="green-circle" d="M35.71,73.21c-1.23,0-2.48-.06-3.74-.18a42.2,42.2,0,0,1-18.52-6.9C7,61.8,2.64,56.2,1.23,50.36c-3.35-13.9.26-28.87,9.2-38.15C20,2.29,35.36-2.12,49.6,1,58.1,2.82,64.92,7,68.81,12.87c4.41,6.58,5.5,15.48,3.35,27.2A43.41,43.41,0,0,1,61.05,62.56h0A34.61,34.61,0,0,1,35.71,73.21Zm4.71-69.3c-10.3,0-20.38,4-27.17,11C5.21,23.26,2,36.81,5,49.44c2,8.45,13.49,18.39,27.3,19.7,10.15,1,19.1-2.25,25.89-9.29A39.53,39.53,0,0,0,68.31,39.36c2-10.67,1.06-18.62-2.75-24.32-3.32-5-9.29-8.62-16.79-10.25A40,40,0,0,0,40.42,3.91Z" style="fill:#71d82e"/></svg>