<svg xmlns="http://www.w3.org/2000/svg" width="118.88" height="127.58" viewBox="0 0 118.88 127.58"><g id="Layer_2" data-name="Layer 2"><g id="Layer_1-2" data-name="Layer 1"><path d="M5.86,2.58,0,118.86a8.3,8.3,0,0,0,8.29,8.72H110.58a8.3,8.3,0,0,0,8.28-8.94l-8.47-108.4a8.3,8.3,0,0,0-8.27-7.66Z" style="fill:#71d82e"/><path d="M108,117.73c-24.06.6-77.25.41-101.27-1,0-24.57.61-79.38.63-103.95a2.31,2.31,0,0,0-1-2.05c.1-1.68.21-3.37.32-5h.16c23.74.76,71.53.47,95.26,1.24.48,26.58,5.45,84.25,5.92,110.83m-3-116.38C80.17.55,31.21.8,6.3,0A2.09,2.09,0,0,0,5,.41,2.47,2.47,0,0,0,4.52.28C3.12.1,1.34,1,1.23,2.6,1,6.19.77,9.77.53,13.36A3.1,3.1,0,0,0,1,15.51a2.78,2.78,0,0,0,.7.66C1.72,41,1.12,96,1.1,120.8c0,2.77,3.25,3.1,4.83,1.51,25.39,1.52,80,1.74,105.41,1,2.16-.07,2.83-2.06,2.28-3.66a3.14,3.14,0,0,0,.11-.83c-.49-27.38-5.47-85.85-6-113.23a3,3,0,0,0,.42-1.73,2.91,2.91,0,0,0-3.11-2.55" style="fill:#071d49"/><path d="M45.46,88.06A127.79,127.79,0,0,0,25,61.06a54.75,54.75,0,0,1,5.78-5.41A70.5,70.5,0,0,0,44.21,68.27a2.73,2.73,0,0,0,3.53-.69,2.87,2.87,0,0,0,1.39-1A522.64,522.64,0,0,0,81.43,17.5c2,1.34,4.16,2.62,6.32,3.78A616,616,0,0,1,45.46,88.06M92.55,17.72l-.13-.09A78.91,78.91,0,0,1,82.05,11.4a3.06,3.06,0,0,0-4,1,521.21,521.21,0,0,1-32.67,50l-.42-.3-.07-.06-.48-.38-1-.78c-1.24-1-2.43-2.11-3.59-3.22s-2.22-2.22-3.27-3.39c-.55-.61-1.09-1.23-1.62-1.87l-.7-.86-.39-.48c-.06-.09-.5-.66-.18-.23a2.78,2.78,0,0,0-3.72-1,1.93,1.93,0,0,0-.28.22,3.3,3.3,0,0,0-1.75.75,55.67,55.67,0,0,0-8.56,8.25,2.94,2.94,0,0,0-.8,1.93,2.78,2.78,0,0,0,.8,1.92,2.61,2.61,0,0,0,.46.34,2.81,2.81,0,0,0,.67,1.06A122.72,122.72,0,0,1,42.31,93.57a2.34,2.34,0,0,0,2.38,1.33,2.83,2.83,0,0,0,3.25-1A616.91,616.91,0,0,0,93.85,21.5a2.7,2.7,0,0,0-1.3-3.78" style="fill:#141f47"/><path d="M19.69,103.22l73.91-1.06c3.89-.06,3.89,6,0,6l-73.91,1.06c-3.9.06-3.9-6,0-6" style="fill:#242953"/></g></g></svg>