<svg xmlns="http://www.w3.org/2000/svg" xmlns:xlink="http://www.w3.org/1999/xlink" width="61.5" height="68.4" viewBox="0 0 61.5 68.4"><defs><symbol id="done" data-name="done" viewBox="0 0 53.35 59.34"><path d="M52.19,4.73l-.09-.06A55.9,55.9,0,0,1,44.78.27,1.77,1.77,0,0,0,43.27.09,1.77,1.77,0,0,0,42,1,366.24,366.24,0,0,1,18.91,36.3l-.29-.21-.05,0-.34-.27-.68-.56C16.68,34.5,15.83,33.74,15,33s-1.56-1.57-2.3-2.39q-.59-.64-1.14-1.32c-.17-.2-.34-.4-.5-.61l-.27-.34c-.05-.06-.36-.46-.13-.16A2,2,0,0,0,8,27.44a1.39,1.39,0,0,0-.19.15,2.33,2.33,0,0,0-1.24.53A39.26,39.26,0,0,0,.56,34,2.08,2.08,0,0,0,0,35.31a2,2,0,0,0,.56,1.36,1.5,1.5,0,0,0,.33.23,2.07,2.07,0,0,0,.47.76A86.68,86.68,0,0,1,16.72,58.29a1.66,1.66,0,0,0,1.68.94,2,2,0,0,0,2.29-.72A435.06,435.06,0,0,0,53.11,7.4a1.91,1.91,0,0,0-.92-2.67" style="fill:#71d82e"/></symbol></defs><g id="Layer_2" data-name="Layer 2"><g id="Layer_1-2" data-name="Layer 1"><use width="53.35" height="59.34" transform="scale(1.15)" xlink:href="#done"/></g></g></svg>