<svg xmlns="http://www.w3.org/2000/svg" width="174.92" height="137.7" viewBox="0 0 174.92 137.7"><g id="Layer_2" data-name="Layer 2"><g id="Layer_1-2" data-name="Layer 1"><path d="M164.42,40a2.74,2.74,0,0,1-3,.68c-.07,0-.11.09-.19.14a24,24,0,0,0-8.49,8,2.53,2.53,0,0,1-2.38,1.27A657.89,657.89,0,0,1,86.6,106.84a2.82,2.82,0,0,1-2.06.63l-.11,0Q68.5,110,52.58,112.54c-2.49.4-3.71-2-3.22-3.85a2.45,2.45,0,0,1-.43-2.24q3.93-16.14,7.84-32.27a3.16,3.16,0,0,1,.89-1.58,2.93,2.93,0,0,1,1.08-2.12L122.14,16a5.14,5.14,0,0,1,.53-.37,3.46,3.46,0,0,1,.49-.73,38.09,38.09,0,0,1,9.26-7.64,3.06,3.06,0,0,1,.91-1.09,3,3,0,0,1,1.25-1.86c9.65-6.92,24.25-5.37,31.86,3.93s6.33,23.48-2,31.78" style="fill:#f9893d"/><path d="M169.89,11.68C162.29,2.37,147.69.83,138,7.74a3,3,0,0,0-1.24,1.86,3.18,3.18,0,0,0-.91,1.1,38.52,38.52,0,0,0-9.27,7.63,3,3,0,0,0-.47.74,3.47,3.47,0,0,0-.54.37L62.19,73.94a2.89,2.89,0,0,0-1.06,2.12,3.1,3.1,0,0,0-.91,1.58l-7.83,32.27a2.43,2.43,0,0,0,.43,2.23c-.49,1.89.73,4.26,3.22,3.86l31.84-5,.12,0a2.86,2.86,0,0,0,2.06-.63,657.92,657.92,0,0,0,63.71-56.71,2.56,2.56,0,0,0,2.39-1.27,23.9,23.9,0,0,1,8.49-8l.19-.13a2.76,2.76,0,0,0,3-.68c8.35-8.31,9.59-22.52,2-31.78M127.94,25.4q4.71,5.94,9.56,11.77a3,3,0,0,0-1.15.64L80.71,86.35a3.07,3.07,0,0,0-.89,1.32,3.29,3.29,0,0,0-1.17.18l-5.35-.1a24.62,24.62,0,0,0-3.67-12c0-.06-.08-.09-.11-.14ZM58.68,109.46q.84-3.48,1.69-7c1.72,2,3.43,3.92,5.15,5.87l-6.84,1.09m12.62-2a2.59,2.59,0,0,0-.66-2.41l-7.23-8.24A3,3,0,0,0,62,95.88q1.83-7.5,3.64-15a17.81,17.81,0,0,1,1.6,9.47,2.26,2.26,0,0,0,0,.26c0,.11,0,.22,0,.33a2.81,2.81,0,0,0,.5,1.41,2.68,2.68,0,0,0,2.15,1.36l7.34.13a16.41,16.41,0,0,1-.91,6.22,2.94,2.94,0,0,0-.06,1.89,2.58,2.58,0,0,0,1.87,2.16l4.55,1.55-11.35,1.8m18.86-5a2.7,2.7,0,0,0-1.53-1.18l-5.87-2a22.67,22.67,0,0,0,.35-7.53,2.84,2.84,0,0,0,1.35-.68L140.1,42.56A3,3,0,0,0,141,41.3c2.53,3,5.08,6,7.66,8.94a658.21,658.21,0,0,1-58.47,52.25m63-56.27Q142.4,33.91,132.25,21.1a29.71,29.71,0,0,1,6.6-5.15,213.56,213.56,0,0,1,20.66,24.47,30.27,30.27,0,0,0-6.37,5.8M165,37.63a213.53,213.53,0,0,0-21.83-25.9c7-3.73,16.27-2.82,21.75,3.35S170,31.23,165,37.63" style="fill:#242953"/><path d="M93.51,131.65,19.6,130.59c-3.9-.06-3.9,6,0,6l73.91,1.06c3.89.06,3.89-6,0-6" style="fill:#242953"/><path d="M39.75,120.12H3a3,3,0,0,1,0-6H39.75a3,3,0,0,1,0,6Z" style="fill:#242953"/></g></g></svg>