<svg xmlns="http://www.w3.org/2000/svg" viewBox="0 0 82.73 94.67"><defs><style>.cls-1{fill:#fc7b75;}.cls-2{fill:#071d49;}</style></defs><g id="Layer_2" data-name="Layer 2"><g id="Layer_1-2" data-name="Layer 1"><path class="cls-1" d="M62.41,75.1a13.12,13.12,0,0,1-7-1.92,14.69,14.69,0,0,1-6.53-12.4,10.65,10.65,0,0,1,2.76-7.47c2-2,4.91-3,9-3.1A14.93,14.93,0,0,1,69,52.38a12.17,12.17,0,0,1,5.62,9.17C75,65.86,73,71.71,68.9,73.65A15.27,15.27,0,0,1,62.41,75.1Z"/><path class="cls-1" d="M33.35,52.8a33.17,33.17,0,0,1-6-.6A24.31,24.31,0,0,1,14.74,46h0A19.7,19.7,0,0,1,8.83,29.57c.67-7,5.77-15.63,12.84-17.34,7.81-1.88,16.22.16,21.45,5.19,5.57,5.37,8.05,14,6.31,22-1,4.8-3.43,8.66-6.74,10.87A16.35,16.35,0,0,1,33.35,52.8Z"/><path class="cls-2" d="M45.34,60.9a4.85,4.85,0,0,0,1.72-.32A4.23,4.23,0,0,0,49,59.15a3.58,3.58,0,0,0,.13-4.53A4.68,4.68,0,0,0,44.9,53a25.05,25.05,0,0,1-1.42-2.39A16.52,16.52,0,0,0,49.77,40.4a32.31,32.31,0,0,1,4.87,2A4.32,4.32,0,0,0,54.87,44a4,4,0,0,0,3.2,2.64,2.83,2.83,0,0,0,.41,0,3.59,3.59,0,0,0,3.33-2.25,3.76,3.76,0,0,0-2.16-4.62,4.4,4.4,0,0,0-2.47-.25,1.45,1.45,0,0,0-1.45.18,35.79,35.79,0,0,0-5.5-2.23,23.82,23.82,0,0,0-1.31-10.22,34.79,34.79,0,0,0,7.65-2.44,4.25,4.25,0,0,0,.57.46,4.41,4.41,0,0,0,2.49.81A3.69,3.69,0,0,0,62,25.24a4,4,0,0,0,1-4.74,4.91,4.91,0,0,0-1.63-2.09,4.23,4.23,0,0,0-2.23-.8A3.58,3.58,0,0,0,55.28,20a4.28,4.28,0,0,0-.12,2.22,31.19,31.19,0,0,1-7.46,2.25,20.68,20.68,0,0,0-4-5.37,18.72,18.72,0,0,0-3.86-2.83c.43-1.32.93-2.62,1.48-3.89a3.84,3.84,0,0,0,2.8-1.77,3.82,3.82,0,0,0-.39-4.39,3.81,3.81,0,0,0-4.31-.94,3.73,3.73,0,0,0-2,4.36,3.51,3.51,0,0,0,1.18,1.69c-.52,1.2-1,2.43-1.4,3.68a23.67,23.67,0,0,0-9.76-1.53,46.5,46.5,0,0,0-.7-7,1.42,1.42,0,0,0,0-.36,4.3,4.3,0,0,0,.63-1.44A4,4,0,0,0,26.08.77,3.6,3.6,0,0,0,21.72.7a3.75,3.75,0,0,0-.59,5.06,4.36,4.36,0,0,0,2,1.51,1.43,1.43,0,0,0,.89.58,45.65,45.65,0,0,1,.52,6c-.47.08-.94.18-1.41.29a13.18,13.18,0,0,0-5.84,3.33,19.39,19.39,0,0,1-1.21-1.65,4.79,4.79,0,0,0,.37-.71,4.26,4.26,0,0,0,.29-2.35h0a3.6,3.6,0,0,0-3.19-3.23,4.75,4.75,0,0,0-4.72,3,4,4,0,0,0,1.1,4.7,3.73,3.73,0,0,0,2.3.79,4.25,4.25,0,0,0,1.58-.32,20.49,20.49,0,0,0,1.49,2,23,23,0,0,0-4.08,8.55c-1.14-.26-2.16-.45-3.41-.65a3.74,3.74,0,0,0-1.44-2,3.79,3.79,0,0,0-4.4.13A3.71,3.71,0,0,0,1,30.37a3.53,3.53,0,0,0,2.18,1.57h.08a1.4,1.4,0,0,0,1,.36h0a3.83,3.83,0,0,0,3.18-1.86c1.2.19,2.18.38,3.29.65a19.43,19.43,0,0,0,1.54,9.48,25.58,25.58,0,0,0-6.81,4.73L5.06,45a3.64,3.64,0,0,0-1.88-.53A3,3,0,0,0,.11,46.73a3.88,3.88,0,0,0,1.82,4.2,3.63,3.63,0,0,0,1.85.52,3.11,3.11,0,0,0,3.11-3.4,22.56,22.56,0,0,1,6.77-4.88,19.18,19.18,0,0,0,2.77,3.36h0a21.8,21.8,0,0,0,6.28,4.2,18,18,0,0,1-.88,2.08,3.39,3.39,0,0,0-1.07.28,3.71,3.71,0,0,0-2,4.36,3.49,3.49,0,0,0,1.73,2l.08,0a1.44,1.44,0,0,0,.85.58A3.73,3.73,0,0,0,25.06,54a2.6,2.6,0,0,0-.38-.36c.29-.63.55-1.26.78-1.9a28.43,28.43,0,0,0,3.12.77,32.13,32.13,0,0,0,5.76.57A17.47,17.47,0,0,0,40.88,52c.41.78.84,1.54,1.32,2.27A3.79,3.79,0,0,0,41,57.34a4.42,4.42,0,0,0,4.32,3.56Zm12.72-40c0-.13.14-.4.76-.4H59a1.36,1.36,0,0,1,.7.27,1.77,1.77,0,0,1,.61.77A1.16,1.16,0,0,1,60.13,23a1.13,1.13,0,0,1-1.33-.12A1.88,1.88,0,0,1,58.06,20.93ZM40.64,8a.72.72,0,0,1,.29-.06.77.77,0,0,1,.7,1.18v0a1.52,1.52,0,0,0-.76,0,.45.45,0,0,1-.34-.06.54.54,0,0,1-.28-.3A.75.75,0,0,1,40.64,8ZM23.52,4.05a.86.86,0,0,1,0-1,.46.46,0,0,1,.29-.09.68.68,0,0,1,.42.14,1.05,1.05,0,0,1,.3,1,1.39,1.39,0,0,1-.25.52A1.57,1.57,0,0,1,23.52,4.05ZM3.92,48.46c-.08.07-.27.07-.52-.07a1,1,0,0,1-.46-.9.53.53,0,0,1,.28-.05h0a.54.54,0,0,1,.31.1.86.86,0,0,1,.34.37C4,48.19,4,48.39,3.92,48.46Zm19,8.44v0a1.51,1.51,0,0,0-.76,0,.44.44,0,0,1-.34-.06.56.56,0,0,1-.29-.3.78.78,0,0,1,.41-.81.72.72,0,0,1,.29-.06.84.84,0,0,1,.62.26A.85.85,0,0,1,22.94,56.9ZM58.52,42.46a.88.88,0,0,1,.54.88.66.66,0,0,1-.64.33,1,1,0,0,1-.77-.68,1.29,1.29,0,0,1-.06-.56v0A1.57,1.57,0,0,1,58.52,42.46ZM11.72,14.87a1.13,1.13,0,0,1-.18-1.32,1.89,1.89,0,0,1,1.59-1.15h.09c.15,0,.46,0,.59.8h0a1.4,1.4,0,0,1-.1.74,1.8,1.8,0,0,1-.62.77A1.16,1.16,0,0,1,11.72,14.87ZM4.24,29.06a.53.53,0,0,1-.34,0,.57.57,0,0,1-.35-.23A.78.78,0,0,1,3.74,28a.81.81,0,0,1,.49-.15.74.74,0,0,1,.44.13s.07.07.11.1a1.43,1.43,0,0,0-.18.5,2.16,2.16,0,0,0,0,.36A1.14,1.14,0,0,0,4.24,29.06ZM29.11,49.64a23.26,23.26,0,0,1-2.85-.7c.11-.57.21-1.14.28-1.71a1.47,1.47,0,1,0-2.91-.36c-.05.32-.1.65-.16,1a18.7,18.7,0,0,1-5-3.42h0a16.3,16.3,0,0,1-2-2.34c.44-.13.89-.26,1.34-.37a1.47,1.47,0,0,0-.7-2.86q-1.08.27-2.13.63a16.28,16.28,0,0,1-1.36-7.64h.07a1.48,1.48,0,0,0,1.41-1.06,1.46,1.46,0,0,0-1-1.82L14,29a20.36,20.36,0,0,1,3.31-7.14h0a1.47,1.47,0,1,0,2-2.17l-.07-.06A10,10,0,0,1,23.79,17c.24-.06.49-.1.73-.15a1.47,1.47,0,0,0,1.37,1.14H26a1.47,1.47,0,0,0,1.47-1.41v-.12a20.46,20.46,0,0,1,9,1.42,1.47,1.47,0,0,0,1.07,1.4,1.74,1.74,0,0,0,.39.05,1.47,1.47,0,0,0,.89-.3,16.09,16.09,0,0,1,2.94,2.22,17.69,17.69,0,0,1,2.86,3.62l-.79.05a1.47,1.47,0,0,0,.06,2.94h.06c.68,0,1.37-.08,2.06-.15a20.84,20.84,0,0,1,1.4,9c-.48-.11-1-.2-1.45-.29a1.47,1.47,0,1,0-.53,2.89c.53.1,1,.21,1.57.33h0a14,14,0,0,1-4.71,8.24,1.47,1.47,0,0,0-2.61,1.32s0,.07,0,.11C37,50.33,33.47,50.45,29.11,49.64ZM44,57.05a1.08,1.08,0,0,1,.72-1,.76.76,0,0,0,.21-.08,1.71,1.71,0,0,1,.55-.09,1.73,1.73,0,0,1,1.33.55c.09.12.29.36-.16,1a1.34,1.34,0,0,1-.61.44,1.73,1.73,0,0,1-1,.08C44.38,57.8,44,57.47,44,57.05Z"/><path class="cls-2" d="M82.51,59.54a2.9,2.9,0,0,0-1-1.3,2.69,2.69,0,0,0-1.4-.51h0a2.32,2.32,0,0,0-2.45,1.51,2.66,2.66,0,0,0-.12.79,16.53,16.53,0,0,1-2.26.83A11.52,11.52,0,0,0,70,53.07c-.2-.13-.4-.24-.61-.35.24-.7.51-1.39.81-2.06a2.36,2.36,0,0,0,1.14-1,2.37,2.37,0,0,0-3-3.39,2.34,2.34,0,0,0-1.29,2.78,2.11,2.11,0,0,0,.33.63c-.26.61-.51,1.23-.73,1.87A15.42,15.42,0,0,0,62.05,51a14.37,14.37,0,0,0-6.59,1.47l-.19-.29a2.75,2.75,0,0,0,.14-1.36,2.3,2.3,0,0,0-2-2,3,3,0,0,0-3,1.87,2.53,2.53,0,0,0,.7,3,2.39,2.39,0,0,0,1.46.5,1.9,1.9,0,0,0,.41,0l.15.23a10.4,10.4,0,0,0-2.36,6.83,15.39,15.39,0,0,0,.1,1.8c-.73.06-1.47.09-2.21.09a1.86,1.86,0,0,0-.23-.26A2.67,2.67,0,0,0,44,65.23a2.67,2.67,0,0,0,2.55,2.08h.2a2.53,2.53,0,0,0,1.69-.91l0-.05a1.05,1.05,0,0,0,.48-.41c.86,0,1.73,0,2.59-.13a14.06,14.06,0,0,0,3.65,5.75,15.56,15.56,0,0,0-1.81,3.71,2.66,2.66,0,0,0-1,.3,2.27,2.27,0,0,0-1.27,2.54,2.93,2.93,0,0,0,2.68,2.17h.14a2.46,2.46,0,0,0,2.41-1.6,2.33,2.33,0,0,0-.25-2.05,12.06,12.06,0,0,1,1.51-3.33,12.84,12.84,0,0,0,6.19,1.53,14.75,14.75,0,0,0,5-.88c.25.47.52.94.81,1.4a2.37,2.37,0,0,0-.36,1.5A2.54,2.54,0,0,0,71.32,79a2.78,2.78,0,0,0,.58.06A3,3,0,0,0,73,78.9a2.74,2.74,0,0,0,1.19-.9,2.3,2.3,0,0,0,.07-2.87,2.85,2.85,0,0,0-2-1,14.17,14.17,0,0,1-.9-1.5c2.48-2,3.89-5.51,4.1-8.73a21.28,21.28,0,0,0,3.49-1.24,2.78,2.78,0,0,0,1.42.42,2.33,2.33,0,0,0,1.48-.52A2.51,2.51,0,0,0,82.51,59.54ZM46.58,65.21a.55.55,0,0,1-.52-.41.64.64,0,0,1,.28-.61.5.5,0,0,1,.27-.07.8.8,0,0,1,.15,0,.86.86,0,0,0,0,.28,1.43,1.43,0,0,0,.12.62h0A.42.42,0,0,1,46.58,65.21Zm5.81-13.82a.89.89,0,0,1,.74-.55h0s.12,0,.17.3a.62.62,0,0,1-.05.32l-.06.1-.06,0a1.7,1.7,0,0,0-.37.34.4.4,0,0,1-.37,0C52.31,51.84,52.29,51.63,52.39,51.39Zm1.48,26.79a.83.83,0,0,1-.73-.53s0-.1.19-.22a1.46,1.46,0,0,0,.85.6h.12A.51.51,0,0,1,53.87,78.18Zm18.6-1.43a.65.65,0,0,1-.26.19.84.84,0,0,1-.47,0,.6.6,0,0,1-.43-.25,1.63,1.63,0,0,0,1-.47.55.55,0,0,1,.22.16S72.65,76.51,72.47,76.75Zm-3-6.45a1.56,1.56,0,0,0-.67.09,1.45,1.45,0,0,0-.75.67A11.17,11.17,0,0,1,59.51,71l.28-.27a1.47,1.47,0,0,0-1.94-2.21c-.27.25-.54.5-.8.76a11.21,11.21,0,0,1-2.94-5.14V64A1.68,1.68,0,0,0,54,63.6a12,12,0,0,1-.26-2.46,8,8,0,0,1,1.38-4.62l.07.07a1.47,1.47,0,0,0,2.08-.09,1.45,1.45,0,0,0,.17-1.74,12.7,12.7,0,0,1,4.69-.84h.3a12.31,12.31,0,0,1,3.84.6,1.5,1.5,0,0,0,.89.7,1.31,1.31,0,0,0,.39.05,2,2,0,0,0,.35,0c.2.1.39.21.57.32h0a8.57,8.57,0,0,1,3.92,5.89c-.43.05-.86.09-1.29.1a1.47,1.47,0,0,0,.06,2.94h.06c.41,0,.82,0,1.24-.09A9.12,9.12,0,0,1,69.49,70.3Zm11-9.42c-.12.1-.33.07-.55-.08,0,0,0,0,0,0a1,1,0,0,0-.08-.22,1.51,1.51,0,0,0-.24-.36.61.61,0,0,1,0-.27s0-.1.25-.1H80a.56.56,0,0,1,.31.11.94.94,0,0,1,.29.37C80.66,60.57,80.65,60.79,80.53,60.88Z"/><path class="cls-2" d="M25.61,22.16a6.37,6.37,0,0,0-3.11.58A5.77,5.77,0,0,0,19,26.3a7.63,7.63,0,0,0,1.05,6.29,4.42,4.42,0,0,0,3.3,2.28h.24a4,4,0,0,0,2.7-1.13,9,9,0,0,0,1.48-1.93,13.48,13.48,0,0,0,1.55-3.11,5.47,5.47,0,0,0-.24-4.14A4.54,4.54,0,0,0,25.61,22.16Zm.94,5.68a11.1,11.1,0,0,1-1.24,2.42,6.45,6.45,0,0,1-1,1.32,1.11,1.11,0,0,1-.74.35c-.29,0-.68-.37-1-.89a4.79,4.79,0,0,1-.75-3.83,2.86,2.86,0,0,1,1.78-1.75h0a4.25,4.25,0,0,1,1.5-.38h.18a1.61,1.61,0,0,1,1.21.82A2.63,2.63,0,0,1,26.55,27.84Z"/><path class="cls-2" d="M42.22,38.78A5.22,5.22,0,0,0,42,34.27a4.61,4.61,0,0,0-8.58,2.79,5.63,5.63,0,0,0,2.41,3.83,4.36,4.36,0,0,0,2.45.82,3.22,3.22,0,0,0,.93-.13A4.61,4.61,0,0,0,42.22,38.78Zm-2.72-1.1a1.81,1.81,0,0,1-1.07,1.07,1.26,1.26,0,0,1-.94-.28,2.78,2.78,0,0,1-1.15-1.7,1.83,1.83,0,0,1,1.41-1.87,1.8,1.8,0,0,1,1.71.86A2.28,2.28,0,0,1,39.5,37.68Z"/><path class="cls-2" d="M65.41,55.64a2.85,2.85,0,0,0-3.41.88A4,4,0,0,0,61.8,61a3.59,3.59,0,0,0,3.1,1.87,3.66,3.66,0,0,0,.57,0,3.28,3.28,0,0,0,2.73-2.85h0A4.6,4.6,0,0,0,65.41,55.64ZM65,59.88a.66.66,0,0,1-.65-.4,1.1,1.1,0,0,1,0-1.12,2,2,0,0,1,1,1.28A.39.39,0,0,1,65,59.88Z"/><path class="cls-1" d="M35.73,71.83A13.08,13.08,0,0,1,37.22,79a14.69,14.69,0,0,1-8.06,11.47,10.65,10.65,0,0,1-7.91,1c-2.67-.84-4.92-3-6.86-6.59a14.92,14.92,0,0,1-1.86-8.41,12.14,12.14,0,0,1,5.59-9.18c3.62-2.39,9.76-3.25,13.35-.48A15.26,15.26,0,0,1,35.73,71.83Z"/><path class="cls-2" d="M14.71,62a3,3,0,0,0-.69,1.5A2.71,2.71,0,0,0,14.2,65h0a2.31,2.31,0,0,0,2.47,1.48,2.59,2.59,0,0,0,.76-.24,18,18,0,0,1,1.76,1.62,11.61,11.61,0,0,0-4.55,8.21c0,.24,0,.47,0,.71-.73.1-1.46.18-2.2.22a2.36,2.36,0,1,0-3,3.62,2.23,2.23,0,0,0,3.47-.7c.66,0,1.33-.12,2-.21a15.34,15.34,0,0,0,1.58,4.42,14.54,14.54,0,0,0,4.31,5.19c-.05.11-.11.21-.16.31a2.64,2.64,0,0,0-1.28.49,2.29,2.29,0,0,0-.89,2.74,3,3,0,0,0,3,1.77,2.51,2.51,0,0,0,2.31-2,2.37,2.37,0,0,0-.22-1.53,2.5,2.5,0,0,0-.21-.35c0-.08.08-.16.13-.24a10.37,10.37,0,0,0,7.15-1,15.12,15.12,0,0,0,1.56-.91c.39.62.75,1.27,1.08,1.93a3,3,0,0,0-.12.32,2.67,2.67,0,0,0,4.24,2.82A2.68,2.68,0,0,0,38,90.49l-.09-.17a2.54,2.54,0,0,0-1.58-1.1h-.06A1,1,0,0,0,35.7,89a25.06,25.06,0,0,0-1.3-2.24,14.06,14.06,0,0,0,3.46-5.88A15.36,15.36,0,0,0,42,80.77a2.58,2.58,0,0,0,.75.79,2.25,2.25,0,0,0,2.84,0,2.92,2.92,0,0,0,.7-3.38.34.34,0,0,0-.06-.12,2.45,2.45,0,0,0-2.52-1.41A2.33,2.33,0,0,0,42,77.78a12.48,12.48,0,0,1-3.66.17,12.71,12.71,0,0,0-1.46-6.2,14.64,14.64,0,0,0-3-4c.31-.44.61-.89.88-1.36a2.3,2.3,0,0,0,1.5-.36,2.53,2.53,0,0,0,1-2.89,3,3,0,0,0-.88-1.41A2.8,2.8,0,0,0,35,61.05a2.31,2.31,0,0,0-2.59,1.25,2.85,2.85,0,0,0,0,2.24A14.14,14.14,0,0,1,31.41,66c-2.86-1.32-6.68-1-9.63.34a20.22,20.22,0,0,0-2.7-2.54,2.7,2.7,0,0,0-.27-1.46,2.33,2.33,0,0,0-1.14-1.09A2.52,2.52,0,0,0,14.71,62ZM36.15,91.43a.57.57,0,0,1-.14.65.62.62,0,0,1-.67,0,.74.74,0,0,1-.18-.21.57.57,0,0,1,0-.14l.26-.1a1.5,1.5,0,0,0,.5-.39h0A.43.43,0,0,1,36.15,91.43Zm-15,1.13a.89.89,0,0,1-.82-.41l0,0s0-.12.19-.29a.61.61,0,0,1,.31-.11H21l.05,0a1.4,1.4,0,0,0,.47.17.36.36,0,0,1,.17.33C21.63,92.42,21.45,92.54,21.19,92.56ZM44.37,79a.85.85,0,0,1-.15.89s-.08.06-.28-.07a1.52,1.52,0,0,0,.15-1s0-.07,0-.11A.55.55,0,0,1,44.37,79ZM34.6,63.12a.71.71,0,0,1,.3.15,1,1,0,0,1,.25.4.63.63,0,0,1,0,.5,1.5,1.5,0,0,0-.62-.6,1.53,1.53,0,0,0-.27-.11.54.54,0,0,1,0-.27S34.32,63.08,34.6,63.12Zm-4.37,5.6a1.44,1.44,0,0,0,1.32.92,11.12,11.12,0,0,1,3.83,7.65L35,77.16a1.47,1.47,0,0,0-1.09,2.73c.34.14.69.26,1,.37a11.3,11.3,0,0,1-3.23,5l-.13.07a1.29,1.29,0,0,0-.29.28,11.07,11.07,0,0,1-2.08,1.35,8,8,0,0,1-4.73.89l0-.11a1.48,1.48,0,0,0-.11-1.06,1.44,1.44,0,0,0-.92-.74,1.47,1.47,0,0,0-1.63.63A12.78,12.78,0,0,1,19,82.75c-.05-.09-.1-.18-.14-.27a11.92,11.92,0,0,1-1.21-3.69,1.47,1.47,0,0,0,.21-1.11,1.55,1.55,0,0,0-.13-.38,1.37,1.37,0,0,0-.2-.29c0-.22,0-.43,0-.65h0A8.61,8.61,0,0,1,21,70.18c.24.36.47.73.68,1.11a1.48,1.48,0,0,0,2,.56,1.46,1.46,0,0,0,.59-1.95l0-.06c-.2-.36-.42-.71-.64-1.06A9.09,9.09,0,0,1,30.23,68.72ZM16.81,63.19c.14.06.21.26.18.52v0a1,1,0,0,0-.17.18,1.25,1.25,0,0,0-.2.38.63.63,0,0,1-.24.11s-.11,0-.21-.17l0-.08a.66.66,0,0,1,0-.32,1,1,0,0,1,.2-.43C16.47,63.22,16.67,63.12,16.81,63.19Z"/><path class="cls-2" d="M25.66,73.89a2.82,2.82,0,0,0-.75,3.43,4,4,0,0,0,3.88,2.18,3.59,3.59,0,0,0,3.06-1.93,3.44,3.44,0,0,0,.21-.53,3.29,3.29,0,0,0-1.32-3.72h0A4.57,4.57,0,0,0,25.66,73.89Zm3.6,2.27a.67.67,0,0,1-.66.4,1.08,1.08,0,0,1-1-.46,2,2,0,0,1,1.59-.3A.4.4,0,0,1,29.26,76.16Z"/></g></g></svg>