<svg xmlns="http://www.w3.org/2000/svg" xmlns:xlink="http://www.w3.org/1999/xlink" width="305.9" height="57.12" viewBox="0 0 305.9 57.12"><defs><style>.cls-1,.cls-10,.cls-11,.cls-12,.cls-7,.cls-9{fill:none;}.cls-2{clip-path:url(#clip-path);}.cls-3{fill:#00539f;}.cls-4{fill:#aab5da;}.cls-5{fill:#ffd520;}.cls-6{fill:#fff;}.cls-11,.cls-12,.cls-7,.cls-9{stroke:#ffd520;}.cls-7{stroke-width:0.97px;}.cls-8{fill:#009d57;}.cls-9{stroke-width:0.18px;}.cls-10{stroke:#000;}.cls-10,.cls-11{stroke-width:0.18px;}.cls-12{stroke-width:0.71px;}.cls-13{fill:#576f7f;}</style><clipPath id="clip-path" transform="translate(0 -0.48)"><rect class="cls-1" width="57.39" height="57.97"/></clipPath></defs><g id="Layer_2" data-name="Layer 2"><g id="Layer_1-2" data-name="Layer 1"><g class="cls-2"><path class="cls-3" d="M28.56,57.6A28.56,28.56,0,1,0,0,29,28.56,28.56,0,0,0,28.56,57.6" transform="translate(0 -0.48)"/><path class="cls-4" d="M28.59,49.41A20.41,20.41,0,1,0,8.19,29a20.4,20.4,0,0,0,20.4,20.4" transform="translate(0 -0.48)"/><polyline class="cls-5" points="26.36 33.94 27.07 37.96 27.54 37.9 26.95 34.23"/><polygon class="cls-5" points="35.12 41.16 48.98 31.63 48.62 32.99 35.24 41.52 35.12 41.16"/><polygon class="cls-5" points="34.12 40.01 34.83 39.15 35.12 39.5 34.29 40.21 34.12 40.01"/><polygon class="cls-5" points="32.87 38.97 34.29 37.13 34.32 37.65 33.17 39.15 32.87 38.97"/><polyline class="cls-5" points="46.56 27.1 48.92 24.7 49.1 25.88 47.08 27.79"/><polyline class="cls-5" points="44.66 22.33 46.97 19.13 46.31 17.89 44.06 21.44"/><polyline class="cls-5" points="25.68 38.32 24.95 36.85 25.25 36.39 25.94 38.26 25.68 38.33"/><polygon class="cls-5" points="24.2 38.26 24.52 38.9 24.24 39.06 23.89 38.6 24.2 38.26"/><polygon class="cls-5" points="22.75 39.09 23.23 39.81 22.98 39.98 22.21 39.27 22.75 39.09"/><polygon class="cls-5" points="19.19 38.85 22.14 40.91 21.9 41.28 18.9 39.21 19.19 38.85"/><polygon class="cls-5" points="15.11 36.07 8.24 31.33 8.42 32.52 15.4 37.13 15.11 36.07"/><polygon class="cls-5" points="8.42 24.58 11.85 27.96 11.38 28.73 8.12 25.76 8.42 24.58"/><polygon class="cls-5" points="10.13 19.07 12.21 21.74 12.86 20.91 10.96 17.83 10.13 19.07"/><polyline class="cls-5" points="40.35 16.42 41.46 16.23 42.76 13.33 41.76 12.5 40.16 16.17"/><polygon class="cls-5" points="36.48 9.36 35.24 8.95 34.65 12.68 35.72 12.8 36.48 9.36"/><polygon class="cls-5" points="14.57 13.39 16.31 16.5 17.34 16.22 16 12.21 14.57 13.39"/><polygon class="cls-5" points="22.15 13.15 21.32 9.24 22.86 8.71 23.22 12.86 22.15 13.15"/><polygon class="cls-5" points="29.26 7.76 29.2 11.26 28.14 11.55 28.14 7.82 29.26 7.76"/><polyline class="cls-5" points="32.81 35 33.05 35.83 34.31 33.54 33.92 33.54 33.01 35.28"/><path class="cls-5" d="M28.79,48.36c3.78,0,7.5-.33,7.5-3s-3.73-7.63-7.63-7.16c-3.75.45-7.83,5-7.83,7.63s4.19,2.49,8,2.49" transform="translate(0 -0.48)"/><path d="M13.36,20.82a2.71,2.71,0,0,0,0-.4c0-.29.49-.57.91-.4.16.07.25-.35.54-.47s-.1-.6.27-.76c.14-.07.4.08.43-.14,0-.07-.18-.15-.18-.23,0-.4-.2-.7-.21-1.07s.42-.35.78-.37c.09,0,.15-.1.12-.22.27,0,.69-.17.84.1.11-.28.3-.08.24-.33-.09-.41-.06-.19-.11-.26-.34-.48,0-1.52.56-1.46s1,.19,1.07.8c.26-.45.77-.11,1,.12s.22.55.22.91.15-.13.28-.12c0-.4,0-.68.34-.81s.07-.62.15-.86a1.2,1.2,0,0,1,.68-.8c.31-.16.56.1.05-.05.57.16.2-.06.43-.44s.82-.33,1.31-.35c0,.11.08.06.17.09s.2.59.28.59c0,.9-.26.68.4.63.17,0,.38-.16.31-.22a.92.92,0,0,1-.19-.85c.06-.29.29-.34.56-.41s-.16-.45,0-.64.43-.68.72-.94c.13-.12.37-.25.55-.13.45.32.55.91.9,1.22s.64-.46,1.13-.63c.24-.08.45-.17.59,0,.44-.48,1-.31,1.64-.21s.1.76.2,1.21.46-.18.66.23c.31-.19.41-.52.71-.67s.45.2.56.15c.43-.18.53-.92,1-1,.74-.2,1.15.66,1.28,1.34.06-.08.16-.18.22-.1.34.5.57.32,1.08.37.13,0,.24.21.36.32.32-.66,1.29-.4,1.57,0,.43.56.24,1.3-.24,1.34.15.16.09.27.21.47a.22.22,0,0,1,.24-.12c.32.06.43.38.71.48.08-.68,1-.95,1.3-.52s.49,1,0,1.49c0,0,.11.15.21.08s.19-.16.21-.1.29,0,.36.08a.78.78,0,0,1,1.16,0c.33.32.68,1.16.05,1.48.08.08.2.15.22.24.06.38-.24.75.26.8.07,0,.15-.18.24-.19.48-.06,1,.06,1.15.58s-.34.55-.21.94a.77.77,0,0,0-.59.24l0,0Z" transform="translate(0 -0.48)"/><path d="M43.13,20.82c.23.19.51.5.21.8.51.22,1.39.13,1.15.89-.05.16.31.36.31.54,0,.7.56.5.89.95.17.23,0,.48,0,.72-.15.53.45,1.28-.08,1.75.46.24,0,1,.35,1a1.63,1.63,0,0,1,1,.39c.23.25,0,.86-.15,1.05-.37.43-.06.84-.42,1.23a1.33,1.33,0,0,1-.24.19H10.78a2.23,2.23,0,0,1,.5-.95c.2-.19-.2-.75.79-1,.22-.07.27-.16.19-.3s-.66-.27-.65-.77c0,.2.05,0,.09-.05s-.37-.14-.57-.26c-.67-.43-.73-.84-.56-1.28a1.11,1.11,0,0,1,.79-.63c.33-.06.46.1.71.14s.09-.16.16-.34.54.11.79-.13a3.34,3.34,0,0,1-.68-.73c-.17-.31-.05-.43.23-.64a.89.89,0,0,1-.34-1.1c.17-.29.26-.65.48-.78s.57-.09.64-.43a1.27,1.27,0,0,0,0-.2Z" transform="translate(0 -0.48)"/><path d="M46.14,30.3c-.33.21-.51.17-.73.58a1.47,1.47,0,0,1,.4,1.91c-.26.39,0,.07,0,.77-.06.53-.56.9-1.09.4-.19.53-.3,1.28-.91,1.46a.9.9,0,0,1-.93-.07c-.15.22-.58.33-.52.44.26.49,0,.81-.33,1.07s-.62-.17-.76,0c-.39.38-.82.38-.67,1a1.13,1.13,0,0,1,0,.85c-.13.23,0,.68-.22.58s-.74.17-.93,0-.36-.09-.48-.28c-.26.1-.15-.06-.12.06a2.05,2.05,0,0,1-.74-.17.46.46,0,0,1-.34-.55.14.14,0,0,0-.21-.1c-.1,0-.22.15-.22.22.08.59-.45.71-.62,1a1.47,1.47,0,0,1-1.18.86c-.49,0-.49-.42-.74-.78,0-.06-.28-.35-.29-.39-.33-1-.54-1.59,0-2.4.09,0,.4-.38.27-.55-.34-.43.23-.92.56-1.32a.4.4,0,0,0,0-.42A1.43,1.43,0,0,0,33,34.9c-.24.88.43,2,.13,2.81-.49,1.36-1.5,2.36-2.07,3.7a1,1,0,0,0,.58,1.26c.36.2.87.11,1.12.42.7.86,1.77.91,2.48,1.66.18.19.29.54.54.63,1.24.44,2.41,1.27,3.77,1.11-.33.61-1,.77-1.56,1A25.1,25.1,0,0,1,34,49a21.19,21.19,0,0,1-9.47.26A21.57,21.57,0,0,1,18,46.72s.08-.1.12-.1a3.84,3.84,0,0,0,1.28-.09c1.18-.35,2.3-1,3.4-1.38.86-.34,1.23-1.57,1.63-2.56a2.33,2.33,0,0,1,.73-.81A10.85,10.85,0,0,0,27.85,38,2.45,2.45,0,0,0,27.91,36c-.64-1.31-2.06-1.85-3.41-2.26-.11.65.31,1.23.29,1.89,0,.14.37.15.4.36.08.51.14,1.19-.45,1.42a.33.33,0,0,1,.09.46,3.22,3.22,0,0,1-2.18,1.84c-.29.07-.63.86-1.22.85a1.09,1.09,0,0,1-.78-.65c-.11-.42.22-.79-.29-.78s-.88-.1-1.17.3l.1.11c-.34.15-.46.65-.83.67s-.7-.29-1-.49c-.14-.08.12-.51-.16-.63a4.67,4.67,0,0,0-1-.33c-.25,0-.65-.25-.67-.53,0-.48-.29-.68-.5-1.07-.09-.16,0-.45-.06-.55a1.32,1.32,0,0,1-.42-1.33c0-.1.14-.16.21-.24-.22-.21-.24-.46-.5-.65-.37.58-1.44.71-1.75.22s-.5-1.26.36-1.47c-.37-.21-.16-.49-.41-.81-.67-.84,0-1.05-.34-1.53-.06-.09-.37.16-.44.21a.75.75,0,0,1-.8,0,.8.8,0,0,1-.13-.65Z" transform="translate(0 -0.48)"/><polygon class="cls-6" points="52.04 35.09 53.08 35.09 53.08 35.1 52.24 35.72 52.57 36.71 52.56 36.72 51.73 36.11 50.9 36.72 50.89 36.71 51.22 35.72 50.37 35.1 50.37 35.09 51.41 35.09 51.73 34.12 51.73 34.12 52.04 35.09"/><polygon class="cls-6" points="5.75 35.09 6.8 35.09 6.8 35.1 5.96 35.72 6.28 36.71 6.28 36.72 5.45 36.11 4.62 36.72 4.61 36.71 4.94 35.72 4.09 35.1 4.09 35.09 5.13 35.09 5.44 34.12 5.45 34.12 5.75 35.09"/><path class="cls-7" d="M28.55,56.86A27.86,27.86,0,1,0,.69,29,27.86,27.86,0,0,0,28.55,56.86Z" transform="translate(0 -0.48)"/><polygon class="cls-5" points="35.88 42.58 47.26 37.19 46.85 38.2 35.95 42.82 35.88 42.58"/><polygon class="cls-5" points="36.25 43.88 44 42.23 43.29 43 36.31 44.18 36.25 43.88"/><polygon class="cls-5" points="10.25 37.84 10.79 38.73 21.24 42.67 21.37 42.24 10.25 37.84"/><polygon class="cls-5" points="13.2 42.33 20.9 43.9 20.79 44.3 13.75 43 13.2 42.33"/><path class="cls-6" d="M24.29,28.67s.08.11.12.11.07-.07.11-.11Z" transform="translate(0 -0.48)"/><path class="cls-6" d="M18.37,26.9s-.11.07-.11.11.07.08.11.12Z" transform="translate(0 -0.48)"/><path class="cls-8" d="M36.36,30.18a.8.8,0,0,0,.47-.29c0-.08-.2-.4-.58-.69-.3.25-.84,1.51-.54,1.43s.44-.41.65-.45" transform="translate(0 -0.48)"/><path class="cls-8" d="M13.86,20.5c.12,0,.17.05.25.11s.16,0,.11-.05-.31-.2-.52-.08c-.67.4,2.25,1.85,1.82,1.5.05-.18-.35-.37-.48-.44-.75-.44-.89-.87-1.18-1" transform="translate(0 -0.48)"/><path class="cls-5" d="M20.64,46s-.33-6.6,7.14-7.75" transform="translate(0 -0.48)"/><path class="cls-5" d="M32.37,39.18a8.18,8.18,0,0,1,4.09,6.49" transform="translate(0 -0.48)"/><path class="cls-9" d="M24.59,33.27a2.1,2.1,0,0,1,1.58.2,3.87,3.87,0,0,1,2.94,3,3.45,3.45,0,0,1-.3,2,7.33,7.33,0,0,1-1.06,1.73c-.62.76-1.28,1.39-1.9,2.07a6.78,6.78,0,0,0-1,1.62c-.19.37-.58.69-.76,1.06m-1.6-12.17a1,1,0,0,1,.62-.08c.68.15,1.22.53,1.85.69a7.16,7.16,0,0,1,2.56,1.31,2.88,2.88,0,0,1,.92,3.39,9.39,9.39,0,0,1-2.22,3.21c-.33.3-.84.82-1.12,1.14a7.06,7.06,0,0,0-.75,1.42,1.18,1.18,0,0,0-.13.3,2.36,2.36,0,0,1-1.82,1.68" transform="translate(0 -0.48)"/><path class="cls-5" d="M24.24,45c.27-.35.4-.35.62-.22,0,0,.4-.84,1-.13,0,0,.75-.76,1.07.22,0,0,.75-.67,1.11.89,0,0-2-1.74-3.56-.62Z" transform="translate(0 -0.48)"/><path class="cls-5" d="M24.76,45.28s1-.85,3.41.75c0,0-.38.35-.55-.05,0,0-.8.56-1-.16,0,0-.84.38-1.11-.35,0,0-.26.61-.79-.19" transform="translate(0 -0.48)"/><path class="cls-5" d="M27.66,42.23c.19-.67.33-.83.91-.85.76,0,.82,1,.82,1,0,.27-1.83.23-1.73-.13" transform="translate(0 -0.48)"/><path class="cls-5" d="M27.59,42.51a.82.82,0,0,0-.46.67c-.07.72.38,1.2,1.42,1.2s1.31-.58,1.31-1.09a.75.75,0,0,0-.4-.69,2.92,2.92,0,0,1-.89.11,2.38,2.38,0,0,1-1-.2" transform="translate(0 -0.48)"/><path class="cls-10" d="M27.86,42.63s.11,1.53,1.4,1.73m-1-1.65s.53,1.2,1.51,1.23m-.91-1.25a1.79,1.79,0,0,0,1.11.76m-.69-.8a1.82,1.82,0,0,0,.65.4m-.23-.36a1.51,1.51,0,0,1-.84,1.67m.47-1.71s-.11,1.46-1.4,1.66m.91-1.6S28.19,44,27.22,44m1-1.29a2.3,2.3,0,0,1-1.25.73m.8-.86a2.2,2.2,0,0,1-.68.4" transform="translate(0 -0.48)"/><path class="cls-9" d="M32.31,38.57a.92.92,0,0,0-.19.25,1.73,1.73,0,0,1-.2.32s0,0,0,0c-.17.36-.14.14-.33.53A15,15,0,0,0,30.84,41c-.13.46-.32,1.11,0,1.49a4.08,4.08,0,0,0,1.42.78,2.39,2.39,0,0,1,.35.28c.35.29.82.49,1.53,1a6.7,6.7,0,0,1,1.2,1,1.8,1.8,0,0,0,.37.36,2,2,0,0,0,.48.19s0,0,0,0a2.86,2.86,0,0,1,.65.19,1.2,1.2,0,0,0,.38,0M32,37.39a.35.35,0,0,1,.18.23.52.52,0,0,1-.16.48c-.06.06-.13.15-.24.14s-.11-.06-.17-.09m.44-4.6a2.67,2.67,0,0,0,.15,1.25,2.74,2.74,0,0,0,.09.39,5.51,5.51,0,0,0,.32,1,1.71,1.71,0,0,1,.18,1,3.45,3.45,0,0,1-.27,1,1.55,1.55,0,0,1-.51.6.65.65,0,0,1-.78-.15m.43.28a4.74,4.74,0,0,1-.59.94c-.79,1.38-1.43,2.68-.3,3.26A16.47,16.47,0,0,1,34,44.87c.69.36.93,1.11,1.65,1.44a5.47,5.47,0,0,0,1,.16m-5-12.66a10.42,10.42,0,0,0,.59,2.57,2,2,0,0,1,.08,1.16v-.09" transform="translate(0 -0.48)"/><path class="cls-5" d="M33,45s-.05-1-.71-.33c0,0-.4-1.15-.94-.18,0,0-1.24-.84-1.46.31,0,0-1-.26-.91,1A3.63,3.63,0,0,1,33,45" transform="translate(0 -0.48)"/><path class="cls-5" d="M33.17,45.27a3.9,3.9,0,0,0-4.22.84s1.47.36,1.38-.44c0,0,1,.67,1-.05,0,0,.6.49.95-.13,0,0,1.54.22.87-.22" transform="translate(0 -0.48)"/><path class="cls-5" d="M28.55,47.09c.91,1.7,3.2.53,3.2.53l-.18-.26c-3.78,1.62-2.93-2.85-2.93-2.85h-.38a5.23,5.23,0,0,0,.29,2.58" transform="translate(0 -0.48)"/><path class="cls-10" d="M27.37,42.45a2.44,2.44,0,0,0,.87,2" transform="translate(0 -0.48)"/><path class="cls-8" d="M13.27,21.77a17.6,17.6,0,0,0,3,4.08s0-2-.63-1.15c0,0,.36-2.31-.53-1.6,0,0,0-2-.8-.8,0,0-.26-1.51-1.06-.53" transform="translate(0 -0.48)"/><path class="cls-8" d="M12.82,21.77a32,32,0,0,0,2.67,3.82s-.89-1.16-1.78-.54c0,0-1.51-1.68-.53-1.86a.83.83,0,0,1-.36-1.42" transform="translate(0 -0.48)"/><path class="cls-8" d="M17,26.36s-1-3.94.71-5.39a.43.43,0,0,0-.8.09s-1.33.35-.53,1.86a1.35,1.35,0,0,0,.08,1.87A8.85,8.85,0,0,1,17,26.36" transform="translate(0 -0.48)"/><path class="cls-8" d="M17.26,26.12s-.71-3.73.72-5c0,0,.71.09.08,1.43a.87.87,0,0,1-.17,1.51s.89.17-.63,2" transform="translate(0 -0.48)"/><path class="cls-8" d="M10.93,25.76a23.53,23.53,0,0,0,4.91,1.6s.09-1.06-.62-1.06c0,0-.62-1.33-1.69-.89,0,0-.89-1-1.24,0,0,0-1.38-.42-1.36.35" transform="translate(0 -0.48)"/><path class="cls-8" d="M10.91,25.94s.91.87,4.4,1.69c0,0-2.31,1.24-2,.09,0,0-1.87.09-1.25-.71,0,0-1.55-.36-1.11-1.07" transform="translate(0 -0.48)"/><path class="cls-8" d="M13.29,28.43a3.47,3.47,0,0,0-2,2.11s1.6-1.82,2.75-2l.58-.06s-.85.58.2.2a.26.26,0,0,1,.2-.09c.13,0-1.27.53-1.31,1.11a.49.49,0,0,1-.56.47,1,1,0,0,1-1.26.17s-.45.62-.76.38c0,0-.47-.38.36-1.2a1.26,1.26,0,0,1,1.28-1.2s.43-.22.54.09" transform="translate(0 -0.48)"/><path class="cls-8" d="M13.49,30.74l-.65.89s-.15.27.07.2c0,0,2.09-2.82,3.51-3.16,0,0,.47-.31.42,0,0,0,.11.6-.42.44,0,0,.38,1.14-1,1.23,0,0,.46,1.2-1.11,1.13,0,0-.38.71-.83.29,0,0-.71.78-.91,0,0,0-.15-.93.47-1.11,0,0,.43-.32.51-.18a.18.18,0,0,1,0,.2" transform="translate(0 -0.48)"/><path class="cls-8" d="M13,32.5a3.12,3.12,0,0,0,.35.33s.38-.09-.08.44c0,0-.43.51-.36.74l.13.09s.51-.92.87-1.07c0,0-.13.31.67.35a1.07,1.07,0,0,1-.2.65s-.23-.22-.29-.05a1.1,1.1,0,0,1-1.25.58s-.62-.8.07-1.2c0,0,.33-.38.09-.42a.22.22,0,0,1-.2-.27Z" transform="translate(0 -0.48)"/><path class="cls-8" d="M14.75,32s-.82,0-.71.4l.2,0s-.35.29-.06.57a1.36,1.36,0,0,0,1.42-.08s.29-.43,0-.52c0,0,1.06.54,1.13.07a.75.75,0,0,0-.11-.55,1.31,1.31,0,0,0,.71-1.14s.64-1,.49-1.06a26.37,26.37,0,0,0-2.93,3h-.16a2.08,2.08,0,0,1,.67-.87s-.56.09-.63.09" transform="translate(0 -0.48)"/><path class="cls-8" d="M15.73,34.74c.56-.09,0,1.33,0,1.33.15-.15.35.14.35.14a.65.65,0,0,1-.58.55.51.51,0,0,1-.28-.75c-.34-.09-.36-.38-.36-.65,0,0,.16-.42.29-.44s-.58-.43-.51-.58,0-.82.49-.84c0,0,.82.19.48,1.26" transform="translate(0 -0.48)"/><path class="cls-8" d="M21.13,38.23s-.84.4-.2.82c0,0-.33,1,.27.93,0,0,.06.4.31.33,0,0,.06-.24-.25-.37a.91.91,0,0,0-.22-.87s.38-.6.09-.84" transform="translate(0 -0.48)"/><path class="cls-8" d="M22.71,33.32s-1.31,2.33-.58,2.8c0,0,0,1.48-.93,1,0,0-.27,1.07-.94,1,0,0-.09.69-.49.63,0,0,0-2.23,2.67-5.65,0,0,.27-.24.27.14" transform="translate(0 -0.48)"/><path class="cls-8" d="M21.24,33.05s.73-.67.73.33a4.7,4.7,0,0,0-1.2,1.78s-.95-.64-.44-1.09a.74.74,0,0,1,.76-.13.88.88,0,0,1,0-.62c.13-.31.13-.27.13-.27" transform="translate(0 -0.48)"/><path class="cls-8" d="M18.51,33.92a16.59,16.59,0,0,0-.29,5.31l-.11-.07a2.74,2.74,0,0,1-.27-1s.18-2.2-.73-1.45a.43.43,0,0,1,.35.56,1.93,1.93,0,0,1-.35.91s-.36.53.44.53c0,0,.18,1.13.76,1.16a.76.76,0,0,0,.4-.65s1.06-.38.4-1.82c0,0,1,0,.58-.53,0,0-1-1.45-.8-2.09,0,0,.26-.24-.38-.82" transform="translate(0 -0.48)"/><path class="cls-8" d="M23.31,31.54s-4.89-2.4-3.38-.8c0,0-.18.62.8.45,0,0-.89.88,2.58.35" transform="translate(0 -0.48)"/><path class="cls-8" d="M19,30.21a4.41,4.41,0,0,0-.44,3.46s.62-.17.35-.71c0,0,1.34,0,.18-1.15a.66.66,0,0,0,.09-1Z" transform="translate(0 -0.48)"/><path class="cls-8" d="M18.06,31.45a5.66,5.66,0,0,0,.09,2.4s-.8.53-.62-.35c0,0-1,.08-.09-1.07Z" transform="translate(0 -0.48)"/><path class="cls-8" d="M16.64,33a1.56,1.56,0,0,0-.26,2.13s1-.44.53-1c0,0,.35-.18-.27-1.16" transform="translate(0 -0.48)"/><path class="cls-8" d="M16.2,37.05s-.8.27-.09.8c0,0,.09.89.71.44a3.27,3.27,0,0,1,.27-2.66h-.45s-.44,1.33-.09,1.95Z" transform="translate(0 -0.48)"/><path class="cls-9" d="M19.35,28.3c1.27.54,2.63.69,3.79,1.55a11,11,0,0,1,1.95,1.77,7.7,7.7,0,0,1,.66,1.12m-6.4-3.91A14.79,14.79,0,0,1,22.52,30,8,8,0,0,1,25,32.47" transform="translate(0 -0.48)"/><path class="cls-8" d="M17.44,26.74s.45,1.51,1.16-.26c0,0,1.33.35.89-1.43,0,0,.62-.71,1.15-.71,0,0-1.6-.35-3.2,2.4" transform="translate(0 -0.48)"/><path class="cls-8" d="M23,27.36s-.09-3.37,2.58-2.84c0,0-2.93-1.33-3.11,2.67,0,0-1.07-1.6-.18-1.78,0,0,.18-2.22,1.16-1.16,0,0,.88-1.51,1.68-.26,0,0,1.6-.09,1.42.89,0,0-.17.62-1.77.44,0,0,1.06.8-1,1,0,0,.62.53-.8,1.06" transform="translate(0 -0.48)"/><path class="cls-8" d="M25.35,26a2.34,2.34,0,0,1,2,1.42c.63,1.43-.89-1.69-3-.71,0,0,.54.27-.53.89,0,0,2.13.53,1.78-.18,0,0,.71,1.87,1.51.8,0,0,1.95.54,1.24-.8,0,0,1.07-1.15-1.6-1.42,0,0,.45-.71-.27-.53a1.06,1.06,0,0,1-1.15.53" transform="translate(0 -0.48)"/><path class="cls-9" d="M28.66,16.28a2.89,2.89,0,0,0,.24,1.5,4.05,4.05,0,0,0,.76,1.2,2,2,0,0,0,.4.43,4.92,4.92,0,0,1,.63.66,5.74,5.74,0,0,1,.79,1.11,1.6,1.6,0,0,1,.25.7m-.09-1.56c.11.31.35.55.46.85a1.79,1.79,0,0,1,.13.39c0,.16.15.29.21.45a2.46,2.46,0,0,1,.24,1c0,1.08,0,2.32-.93,3A7.89,7.89,0,0,0,29.86,28c.09-.21,0-.45.06-.66a1.7,1.7,0,0,1,.18-.44,3.86,3.86,0,0,1,1-.91c.37-.27.8-.54.87-1M19.69,23.57a3.58,3.58,0,0,0,1.69.34,15.91,15.91,0,0,1,1.73-.12m-4.49-1.2c.12,0,.24,0,.35.09a5.49,5.49,0,0,0,3.87.59,1.8,1.8,0,0,1,.89.12m-.11-1.58c.87.62,1.4.9,1.69,1.78m-4.8-3.91c1.11.24,1.63,1.43,2.42,2.19.5.48,1.15.75,1.62,1.23.13.13,0-.06.13.13" transform="translate(0 -0.48)"/><path class="cls-11" d="M27.06,22.45a.24.24,0,0,1-.08.19c0,.05,0,.15,0,.21a2.75,2.75,0,0,0-.15.36,2,2,0,0,0,.2,1.62c.19.32.6.44.85.74M30.45,21a6.84,6.84,0,0,0-1.28.48.86.86,0,0,1-.37.18,1.33,1.33,0,0,0-.64.42,2.5,2.5,0,0,0-.94,1.83,2.2,2.2,0,0,0,.31,1.14,4.12,4.12,0,0,0,.51.77" transform="translate(0 -0.48)"/><path class="cls-9" d="M40.34,29.7c-.32,0-.37.24-.65.42-.61.39-1.55,1.59-2.15,2-1,.67-1.6.28-2.65.36a3,3,0,0,0-2,.92c-.07.06-.33.36-.28.45s.08.13.16.23c.11-.08.12-.05.21-.14a3.33,3.33,0,0,1,1.54-.86c.72-.23,1.61.15,2.72-.24.87-.3,1.72-1.47,2.38-2.13a2,2,0,0,1,2.61-.36M38.3,24c-.31.11-.66.23-.78.54a3.45,3.45,0,0,1-.3.61c-.13.22-.27.42-.4.64s-.21.38-.33.54a4.58,4.58,0,0,1-.65.67s-.29.61-.28.6c-.24,1.2-.11,2.35-.74,3.38,0,.09-.29.15-.52.13.12-.11.11-.12.12-.14s0-.21.08-.29A4.27,4.27,0,0,0,35,28.41" transform="translate(0 -0.48)"/><path class="cls-8" d="M35.57,35.09s-.71.76-.4,1l.18.22s-1.38,1.25-.67,1.52c0,0-.4,1.33.31,1.11,0,0-.22,1,.45.88a19.46,19.46,0,0,1,.13-4.71" transform="translate(0 -0.48)"/><path class="cls-8" d="M35.92,34.52A51.38,51.38,0,0,0,35.79,40s.76-.66.49-1c0,0,1.15-.18.22-1.51,0,0,1.11-.49-.26-1.56,0,0,.8-.26-.32-1.37" transform="translate(0 -0.48)"/><path class="cls-8" d="M36.63,34.61a41.74,41.74,0,0,1,3.43,4.22s-.27.49-.76-.18c0,0-1.42.31-1-.85,0,0-1,.58-1.16-.17,0,0,.67-.58-.22-1.65,0,0,.4-.31-.27-1.37" transform="translate(0 -0.48)"/><path class="cls-8" d="M36.19,33.72a13.23,13.23,0,0,1,4,4.8s.28-.14-.13-.85a.77.77,0,0,0-.4-1.29,1.35,1.35,0,0,0-1.51-1.64s.39-1.07-2-1" transform="translate(0 -0.48)"/><path class="cls-8" d="M40.59,32.07s.13,2.89.71,3.78c.38.58.18,0,.18,0s-.4-2.79-.4-4.08c0,0-.18-.76-.27-1.07s.8.58.85.93-.14.36-.14.36,1.33,1.64.4,1.73c0,0,.93,1.29.09,1.65,0,0,0,1.72-.58,1.11a2.32,2.32,0,0,1-.4-.58s0,.93-.44.67a2.08,2.08,0,0,1-.36-2s-1.32.34-.26-2c0,0-.85-.26-.27-1.24a1.4,1.4,0,0,0,.49-.54c.18-.35.4,1.2.4,1.2" transform="translate(0 -0.48)"/><path class="cls-8" d="M42.06,31.27a6,6,0,0,1,1.73,3.51l.13-.17a4.15,4.15,0,0,0-1.51-3.38s.27-.8.84-.13a.79.79,0,0,1,.18.71.86.86,0,0,1,.76,1.11s.18,2-.45,2.13c0,0-.57,0-.49-.67,0,0-.71.54-.44-.75,0,0-.13.89-.75-2.36" transform="translate(0 -0.48)"/><path class="cls-8" d="M43.17,30.61a3.94,3.94,0,0,1,2.22,2.49s.22.75-.22.66c0,0-.72.18-.45-1.51,0,0-.62,0-.75-.89,0,0-.09.36-.8-.75" transform="translate(0 -0.48)"/><path class="cls-8" d="M44.45,30.92s.94-.09,1.07.71l-.13.35s.35-.17.26.36l-.08.13Z" transform="translate(0 -0.48)"/><path class="cls-8" d="M46.59,28.79a2.12,2.12,0,0,1-.58.84c.44.67-1.51.76-1.51.76,0,1-2.27-.58-2.27-.58a5.06,5.06,0,0,0,4.05-1.16l-.8.18a3.6,3.6,0,0,1-2.49.58s.31-1.11,1.29-.62c0,0,.93-1.74,1.51-.8,0,0,.93-.36,1,.22l-.05.35Z" transform="translate(0 -0.48)"/><path class="cls-8" d="M42.54,29.36l-1.15.05a6.28,6.28,0,0,0,3.33-3.56l-.18-.09a13.84,13.84,0,0,1-1.6,2c-.57.49-.66-.8-.22-.93,0,0-.09-1.43.58-1.2,0,0,1.24-2.31,1.86-1.16A3.6,3.6,0,0,1,45.39,26a3.29,3.29,0,0,1-.8,1s.49.13-.05.71c0,0-.4.4-.4.62,0,0-1-.4-1.6,1" transform="translate(0 -0.48)"/><path class="cls-8" d="M43.08,24.08s0-.27,0,.57c0,0,.62.23-.17.89l-.72.58s.72.22-.17,1c0,0,.35.22-.8,1.15a5.71,5.71,0,0,0-.31.94l-.14-.54s1.78-3.15,1.74-4.22h-.27A25.76,25.76,0,0,1,41.12,27s-.89-.36-.35-1.11c0,0-1.25-1.2,0-1.69a.43.43,0,0,1,.49.27s1.11-1.07,1.78-.4" transform="translate(0 -0.48)"/><path class="cls-8" d="M39.43,23.37S42.28,22,43.74,23l0-.22a4.27,4.27,0,0,0-3.2-.14s.71-1.59,1.11-.75c0,0,1.47-.84,1.24.09,0,0,1.51-.09,1,.58,0,0,1.11,1.24.67,1.28,0,0-1.42.4-1.16-.31a3,3,0,0,1-1.91-.09s0,1-2.09-.08" transform="translate(0 -0.48)"/><path class="cls-8" d="M38.59,23.77a7.79,7.79,0,0,1,1.15,5.15S41,27.41,40.46,27s-.14,0-.14,0,.36-1.47-.49-1.47c0,0,.36-1.77-.35-1.29,0,0-.89-.35-.89-.48" transform="translate(0 -0.48)"/><path class="cls-8" d="M38.41,23.85s1.29,3,1,3.78c0,0-1.69-1.24-.49-1.29,0,0-2.18-1.24-.62-1.73,0,0-.45-1.29.13-.76" transform="translate(0 -0.48)"/><path class="cls-8" d="M36.68,27a3.74,3.74,0,0,1,1.15,3.38s-1-.84-.44-1c0,0-1.56-.67-.76-1.16,0,0-1.06-.53-.44-1Z" transform="translate(0 -0.48)"/><path class="cls-8" d="M37.26,25.9s-.45,1,.26,1.29l.36.09s-.67.73.66,1.37c0,0-.66.54.36,1a6,6,0,0,0-1.51-4Z" transform="translate(0 -0.48)"/><path class="cls-8" d="M37.17,30.47s-1.11,1-2.05.8,2.23,1.65,2-.13c0,0,1,0,.09-.67" transform="translate(0 -0.48)"/><path class="cls-8" d="M34.06,29.1a3.57,3.57,0,0,0-4.8,1.37l0-.22s1.37-2.8,4.13-1.82c0,0-.65-1.54-1-.67,0,0-1.74-1-1.65.23,0,0-1.73-.14-1.29,1,0,0-1.42.66-.49,1.42,0,0-.26.89.71.4A.91.91,0,0,0,31,30.12s1,.31,1.29-.62c0,0,0,.62,1.82-.4" transform="translate(0 -0.48)"/><path class="cls-9" d="M26.22,29.56c.07.09.22.49.32.64a2.32,2.32,0,0,1,.45.92s.08.06.1.1a5.68,5.68,0,0,0,1.14,1.43,3.65,3.65,0,0,1,.23.43,7.17,7.17,0,0,1,.18.83c.08.28.39.42.57.65a3,3,0,0,1,.65,1.18c.16-.11.12-.35.31-.45-.13-.11-.21-.45-.29-.56-.34-.51-.81-.59-.93-1.18s-.05-.79-.27-1.17-.66-.57-.9-.87a1.42,1.42,0,0,1-.26-.44,5.44,5.44,0,0,0-.61-1.17,5.46,5.46,0,0,1-.56-1" transform="translate(0 -0.48)"/><path class="cls-8" d="M31.66,30.56S29.79,31.5,30.1,32c0,0,.85-.27.94.8a2.61,2.61,0,0,0,.49-1.2s.57.58.93-.45c0,0,1.69.09,1.15-.84,0,0,.67-.44.67-1a5.66,5.66,0,0,1-2.62,1.2" transform="translate(0 -0.48)"/><path class="cls-8" d="M33.52,24s1.65-2.4,5.78-1.34c0,0,.58.63-.84.54,0,0,.26.66-1.34.22,0,0,.14.84-1.91,0,0,0,.8.4-1.69.54" transform="translate(0 -0.48)"/><path class="cls-8" d="M34.68,22.74a4.86,4.86,0,0,1,4.18-.48.71.71,0,0,0-1.07-.4s-.39-1.56-1.47.08c0,0-.13,0-.13,0s-.76-1.16-1.51.75" transform="translate(0 -0.48)"/><path class="cls-8" d="M34.28,24.61a4.78,4.78,0,0,0,.09,4,.15.15,0,0,0,.13.09s1.51-3,.4-2.71c0,0,2-1.6.36-1.86Z" transform="translate(0 -0.48)"/><path class="cls-8" d="M33.61,24.88a5.11,5.11,0,0,0,.09,2.84s-1.91-.93-.84-1.42c0,0-.22-2.62.75-1.42" transform="translate(0 -0.48)"/><path class="cls-8" d="M28.86,26.25s-1.78-1.68-.44-1.82c0,0-1.25-1.86.44-1.86,0,0,1.15-1.65,1.64-.49,0,0,.8-1.07,1-.14,0,0-2.45.72-2.63,2.4a1.36,1.36,0,0,0,0,1.65Z" transform="translate(0 -0.48)"/><path class="cls-8" d="M29.57,23.5a4.91,4.91,0,0,1,2-1.33l.18.88s-.62.4-.89.05a.55.55,0,0,0-.8.58,1,1,0,0,1-.84.53Z" transform="translate(0 -0.48)"/><path class="cls-8" d="M29.17,25.9a2.87,2.87,0,0,1,2.36-1.6V24s-1.69.27-2.18,1.11c0,0-.05-.89.75-.93,0,0,.27-1.24,1.29-.62,0,0,.22-.27.4-.18a2.66,2.66,0,0,1-.22,1.51s-.31,1.42-2.4,1" transform="translate(0 -0.48)"/><path class="cls-8" d="M25.26,29.1s.93-.05.8,1.2a4.11,4.11,0,0,1,1.16,2.44s-1.43-1.33-1.47-2.44l-.22,0a2.25,2.25,0,0,0,.62,1.73s-1.6-1.2-1.11-1.77c0,0-1.87-.23-1.51-1.29s-.09-.18-.09-.18l.89-.31s.44.62.93.58" transform="translate(0 -0.48)"/><path class="cls-8" d="M22.11,24.3s-.62.18-.27.84c0,0-1.07,1,.53,2.76,0,0-2.4-.71-1.64-2.18,0,0,.27-.4.4-.35s-.53-1.16,1-1.07" transform="translate(0 -0.48)"/><path class="cls-8" d="M20.69,24.65s-.27.4.08.63c0,0-1.46.75.09,2.31,0,0-1.2-.34-1.46-.8l.31-.14s.62-1,.26-1.46c0,0,.32-.54.72-.54" transform="translate(0 -0.48)"/><path class="cls-8" d="M21.22,22.88a10.11,10.11,0,0,0,2-.05,1.56,1.56,0,0,0-1.42-.8s.39-1.52-1.11-.71c0,0-.4-2.17-1.33-.89,0,0-.54.8-.14,1.29A6.6,6.6,0,0,0,20.6,23c.26.13.31-.09.62-.09" transform="translate(0 -0.48)"/><path class="cls-8" d="M19.44,19.86a13.67,13.67,0,0,0-4.49.71v-.31a11.07,11.07,0,0,1,3.16-.67s-.05-1.16-.62-1.2c0,0-.49-.18-.49.62,0,0-1-.8-1.16.4,0,0-.93-.31-.8.58,0,0-1.25.48-.22,1.11a1,1,0,0,0,.93-.27s.67.8,1.51-.49c0,0,.85.63,1.47.09a6.6,6.6,0,0,1,.71-.57" transform="translate(0 -0.48)"/><path class="cls-8" d="M21,17.77s.22-3,1.47-3.91l.31-.09s-2.45,3.78-.45,6.22a2.54,2.54,0,0,0-.08-1.51,1.44,1.44,0,0,0,.26-1.65,1,1,0,0,0,.31-1.51l-.09-.13a1.2,1.2,0,0,0,.14-1.64s-.85-.23-1,.31a.74.74,0,0,0-.13.66s-1.16-.66-.85,1.34c0,0-.93.49.09,1.91" transform="translate(0 -0.48)"/><path class="cls-8" d="M20.6,19.37s-1.06-.29-3-3.82c0,0-.09.22-.09.22a9.76,9.76,0,0,0,1.78,3s-.93-.93-1.11-.93-.8,0-.18-.45c0,0-1.29,0-.4-.75,0,0-.62-1.25-.22-1.51,0,0,1,0,1.06.84,0,0,.67-.58.85-.13a.65.65,0,0,1-.27.93s.62,0,.36.62c0,0,.17-.84,1.2,2" transform="translate(0 -0.48)"/><path class="cls-8" d="M15.89,17.63a2.22,2.22,0,0,0,1.37.54s-.13-.94-.48-.71c0,0-.49-.71-.76-.27,0,0-1,0-.35.84,0,0-.32.63.75.32,0,0,.09,0,.09,0l-.76-.54Z" transform="translate(0 -0.48)"/><path class="cls-8" d="M24.37,18.66a3.65,3.65,0,0,0-.53,2.22l.13-.09s.8-3.24,2.36-3.47c0,0,.66-.17.8-.08s-.22,2.57-.71,1.11c0,0-.49,2.22-1,.93,0,0-.57,2-1,1.24,0,0-.18,1.51-.62.85,0,0-.67-.85-.09-1.38,0,0-.84-.36.71-1.33" transform="translate(0 -0.48)"/><path class="cls-8" d="M26.33,14.39s-3.11,1.91-3.2,4.49c0,0,2.84-1.69,1.33-2.09,0,0,2.4-.62,1.25-1.29,0,0,2.26-2.35-.09-1.42,0,0-.67-.4-1.16.76,0,0-1.11,0-.93,1.33a13.32,13.32,0,0,1,2.53-1.91c.76-.27.27.13.27.13" transform="translate(0 -0.48)"/><path class="cls-8" d="M25.57,23s0-4.13,3.38-3.15c.08,0-.18,0-.18,0l.22-.18a3.38,3.38,0,0,0-2-.18s1.25-1.87,1.83-.67a.51.51,0,0,1-.14.4S30,19,29.84,19.9c0,0,.89.53-.18.58,0,0,0,.71-.93-.09,0,0,0,.8-1.29.13,0,0,.75.36-1.42,1.6,0,0-.27.09-.45.89" transform="translate(0 -0.48)"/><path class="cls-8" d="M24.68,14s-.48-.84.32-.75c0,0-.4-1.11.26-.94,0,0,.36-1.37.85-.17l.08.62A2.52,2.52,0,0,1,27,13a.69.69,0,0,0-.62.67s-.4-.18-.58,0c0,0-.13-1.24.05-1.33h-.22a5.47,5.47,0,0,0-.18,1.42.66.66,0,0,0-.76.22" transform="translate(0 -0.48)"/><path class="cls-8" d="M26.77,13.68s.45.09.27.71c0,0,.89-1.69,2.18-1.86l.22.13a3.37,3.37,0,0,0-1.91,4.22l.26.62s.58-.84.27-1.07.93-1.42,0-1.51c0,0,1.69-.35.93-1.33,0,0,1.25-.53,1.11-1.38,0,0-.53-.44-.88-.17a1.41,1.41,0,0,0-.8.4s-.54-.4-1,.66a1,1,0,0,0-.67.58" transform="translate(0 -0.48)"/><path class="cls-8" d="M29.66,17.81A5.3,5.3,0,0,1,28.9,16s.49-.71.14-.93c0,0,1.2-.67.71-1.33,0,0,1.06-.67,1.29.13,0,0,.66-1.51,1.11-1,0,0,.66,0,.31.85,0,0,.53.66-.62,1.24,0,0,1.2.62-1,1.78,0,0,.62.66-.76,2.08a7,7,0,0,1,1.83-5.37H31.7a5.23,5.23,0,0,0-2,4.35" transform="translate(0 -0.48)"/><path class="cls-8" d="M33.3,21.63a13.86,13.86,0,0,0-.53-4.57H33a8.12,8.12,0,0,1,.57,6s1.83-3,.67-2.71c0,0,1.42-2.58-.18-1.6,0,0,.58-2.09-.31-1.38,0,0-.8-2-1.2-1.15,0,0-.26.27,0,.89,0,0-.44-.09-.22.66,0,0-1.29-.17-.35,1.25a2.9,2.9,0,0,0,.44.58s-1.16.44.93,2.08" transform="translate(0 -0.48)"/><path class="cls-8" d="M32.86,13.9s.31-.66,0-1.06c0,0,0-.49.32-.49,0,0,.62-1.11,1.11.75,0,0,.57.58.13.89a2,2,0,0,1-.31,1.82s.62.23.13.85c0,0-.49-.49-.67-.62,0,0,.67-2.36.14-3.51h-.18a7.27,7.27,0,0,1-.27,3.33.47.47,0,0,0-.8-.09s.45-.49,0-.8c0,0,.89-.71.45-1.07" transform="translate(0 -0.48)"/><path class="cls-8" d="M35,15.72s-.36-1.46-.14-1.51c0,0,.58-1.24,1.38-.22,0,0,.13-.53.49-.49s.71-.13.89.18.18,1-.36,1.11c0,0,.68.57-.84,1,0,0,1.33.8-1.33,2a1.82,1.82,0,0,1-.4-.71S36.46,14.3,37.17,14L37,13.86a7.83,7.83,0,0,0-2,1.86" transform="translate(0 -0.48)"/><path class="cls-8" d="M38.59,16.57s-.44-1.42-1.07-.22c0,0-.22.22,0,.75,0,0-1.28-.53-1,1.07,0,0,.88.66,1,.8a12.85,12.85,0,0,0,.31-2.18h.18a9.92,9.92,0,0,1-.49,3.78s1.69-1.56.84-2.18c0,0,1.2-1.33.13-1.33Z" transform="translate(0 -0.48)"/><path class="cls-8" d="M39,16.17s.22-.8.58-.76.44.49.26,1.16L39.7,17H40l-.67.62s.14-.75-.13-.84l.31-.53-.13-.14-.4.45Z" transform="translate(0 -0.48)"/><path class="cls-8" d="M38.46,21s-.45-1.51.35-1.07c0,0-.18-2.71.89-1.6,0,0,.22-1.73,1.07-1.07,0,0,1.37-.66.89.8,0,0,.79,1.25-.72,1.34,0,0,.89,1-.8,1.42,0,0,.58.75-.71,1.33,0,0-.35-.89-.22-1.15s1.09-2.92,2.22-3.42l-.17-.18a8.38,8.38,0,0,0-2.49,3.95Z" transform="translate(0 -0.48)"/><path class="cls-8" d="M41.52,20.34s-.31-.53,0-.71,1.11.05,1.24-.08,1.2-.58.31.84a1,1,0,0,0-.35.75s-.67.09-1.65.32c0,0,1-1.47,1.65-1.52l-.18-.13s-1,.27-1.07.53" transform="translate(0 -0.48)"/><path class="cls-8" d="M35.84,18.52A3.92,3.92,0,0,1,36,21.19s1.38-.8.8-1.33c0,0,.71-.85-1.16-1.83,0,0-.49-.17-.53.27,0,0-.18.62.22.62,0,0-.93,1,0,1.51,0,0-.58.45.18.85,0,0,.67-.58.18-2.8Z" transform="translate(0 -0.48)"/><path class="cls-8" d="M24.11,34s.66,1.33.08,1.29c0,0,1.52,1.73.18,1.69,0,0,.09,2-1,1.33,0,0,.23.93-.71.93a2.13,2.13,0,0,0,.49-1.86,2.22,2.22,0,0,0,.54-2.27s.44-.18.4-1.11" transform="translate(0 -0.48)"/><path class="cls-8" d="M23.35,33.9s.45.84-.27,1.11c0,0,.94,1.68-.35,2.22,0,0,.27,1.51-.31,1.73,0,0,0,1-.71,1,0,0-.71-1.73-.09-2.27,0,0,1.24-.09.71-2.26a3.55,3.55,0,0,1,.71-2Z" transform="translate(0 -0.48)"/><path class="cls-6" d="M6.3,30.83a1.4,1.4,0,0,0,0-.45c0-.7-.42-1.2-2-1.13s-1.9.6-1.87,1.29a1.67,1.67,0,0,0,.07.45Zm-3.71.9,0,.33H2.37L2.3,30.45a1.92,1.92,0,0,1,2-2,1.92,1.92,0,0,1,2.19,1.81l.07,1.62H6.4l-.06-.33Z" transform="translate(0 -0.48)"/><path class="cls-6" d="M6.88,25.27a1.26,1.26,0,0,0-.15.55l-.27,2.31-.19,0v-.33l-3.72-.43-.09.32-.19,0,.26-2.27a1.43,1.43,0,0,0,0-.57l1.25-.13,0,.22a1.4,1.4,0,0,0-1.16,1.4,1.08,1.08,0,0,0,0,.31l1.61.19,0-.24c0-.41-.13-.59-.6-.74l0-.19,1.54.18,0,.19c-.49,0-.7.17-.75.58l0,.24L6.34,27a1.11,1.11,0,0,0,.09-.31A1.55,1.55,0,0,0,5.49,25l.07-.22Z" transform="translate(0 -0.48)"/><path class="cls-6" d="M5.06,23.08a1.46,1.46,0,0,0,.13-.28.94.94,0,0,0-.66-1.29.84.84,0,0,0-1.14.68,1.15,1.15,0,0,0-.05.41Zm-1.93.23-.14.3-.18-.05.42-1.51c.22-.81.71-1.53,1.48-1.32,1,.27.9,1.25.66,2.14l-.08.27,1.64.45.14-.3.19.05-.38,1.35-.18-.05,0-.34Z" transform="translate(0 -0.48)"/><path class="cls-6" d="M7,19.4l-2.06-.2h0l1.56,1.36Zm.52,2.8-.18-.08A.73.73,0,0,0,7,21.37L4.57,19.21H4.18l.28-.77,4.21.38.2-.28.18.08-.57,1.32-.18-.07.06-.34-1.12-.1-.57,1.32.45.39a1,1,0,0,0,.23.15c.19.08.31-.1.45-.26L8,21.1Z" transform="translate(0 -0.48)"/><path class="cls-6" d="M7.72,16.49l.15-.23c.42-.67.33-1.08-.16-1.39a.84.84,0,0,0-1.25.34c-.06.09-.12.22-.19.35Zm-1.83-.3-.22.25-.16-.1L6.34,15c.43-.67,1-1.33,1.85-.81a1.06,1.06,0,0,1,.3,1.33l2.13.19.22-.26.17.11-.56.86-2.34-.22-.23.35,1.56,1,.22-.25.16.1-.76,1.18-.16-.1L9,18.21Z" transform="translate(0 -0.48)"/><path class="cls-6" d="M9.49,11a1.34,1.34,0,0,0,.3-.48l1.14.65-.1.18a1.31,1.31,0,0,0-1.58.21L12.09,14l.26-.21.15.12L11.57,15l-.15-.13.19-.28L8.76,12.08c-.45.52-.28,1.05,0,1.6l-.17.11-.78-1a1.38,1.38,0,0,0,.44-.36Z" transform="translate(0 -0.48)"/><path class="cls-6" d="M13.1,13.2,13,13.05c.16-.26.26-.41,0-.76L11.06,9.72l-.29.17-.12-.15.86-.69,2.15,1.27-.75-2.38.85-.68.12.15-.23.25,2.44,2.85.29-.17.12.15-1.11.88-.12-.15L15.5,11,13.33,8.41h0l.88,2.86-.12.1L11.52,9.87h0l1.72,2.28a.46.46,0,0,0,.72.12l.12.15Z" transform="translate(0 -0.48)"/><path class="cls-6" d="M19.35,9.08a1.52,1.52,0,0,0-.54.19l-2,1.1-.09-.17.27-.2L15.17,6.7l-.31.11-.1-.17,2-1.08a1.37,1.37,0,0,0,.45-.34l.82,1-.17.14a1.4,1.4,0,0,0-1.81-.15.92.92,0,0,0-.25.19l.77,1.43.21-.12c.37-.19.41-.44.27-.91l.17-.09L18,8l-.17.1c-.32-.39-.54-.48-.91-.29L16.68,8l.91,1.7a1,1,0,0,0,.3-.1,1.55,1.55,0,0,0,.86-1.75L19,7.74Z" transform="translate(0 -0.48)"/><path class="cls-6" d="M22.25,6.63h0l-.75-2.25c-.11-.32-.29-.33-.59-.28l-.06-.18L22,3.54l.07.18a.49.49,0,0,0-.28.64l1.15,3.42-.27.09L19.4,5.32h0l.85,2.52a.5.5,0,0,0,.65.32l.06.18-1.22.42-.06-.19a.56.56,0,0,0,.3-.71l-.86-2.53a.54.54,0,0,0-.67-.4l-.06-.18,1.05-.36Z" transform="translate(0 -0.48)"/><path class="cls-6" d="M25.23,3a1.3,1.3,0,0,0,.54-.18L26.24,4l-.18.08c-.33-.52-.69-.95-1.37-.84L25.31,7h.34l0,.19-1.39.23,0-.19.32-.1L24,3.37c-.68.11-.89.64-1,1.23l-.19,0,.05-1.3a1.52,1.52,0,0,0,.57,0Z" transform="translate(0 -0.48)"/><path class="cls-6" d="M31,5c.08-1.49-.27-2-.88-2s-1,.53-1.09,1.91.27,2,.87,2,1-.52,1.1-1.9M28.2,4.82c.06-1,.87-2.16,1.91-2.1A2,2,0,0,1,31.76,5c-.05,1-.87,2.16-1.9,2.11A2,2,0,0,1,28.2,4.82" transform="translate(0 -0.48)"/><path class="cls-6" d="M31.79,7.18l0-.19.34,0,.77-3.66-.32-.12,0-.19,2.15.45a1.28,1.28,0,0,0,.57,0l.06,1.33H35.2C35,4.13,34.78,3.68,34,3.51a.8.8,0,0,0-.31,0l-.34,1.64.34.08c.39.08.58-.17.7-.51l.19,0-.31,1.5-.19,0c0-.42,0-.72-.42-.81l-.35-.07-.39,1.83.32.12,0,.19Z" transform="translate(0 -0.48)"/><path class="cls-6" d="M38.67,9.47a1.26,1.26,0,0,0-.47-.31l-2.13-.94.08-.17.32.09L38,4.71l-.28-.18.07-.17,2.09.92a1.29,1.29,0,0,0,.55.14l-.24,1.24-.22,0a1.4,1.4,0,0,0-1-1.52A1.09,1.09,0,0,0,38.65,5L38,6.49l.22.1c.38.17.6,0,.88-.35l.18.08-.62,1.41-.18-.08c.11-.48.05-.72-.34-.89l-.22-.09-.78,1.77a.92.92,0,0,0,.27.16,1.55,1.55,0,0,0,1.91-.39l.18.14Z" transform="translate(0 -0.48)"/><path class="cls-6" d="M40.19,10a2.1,2.1,0,0,0,.35.29c.58.38,1.22.34,2.07-.95s.61-1.9,0-2.27a1.42,1.42,0,0,0-.41-.21Zm1.43-3.54-.26-.22.11-.16,1.36.88a1.92,1.92,0,0,1,.44,2.81,1.92,1.92,0,0,1-2.74.74l-1.37-.89.11-.16.3.14Z" transform="translate(0 -0.48)"/><path class="cls-6" d="M46.11,9.41,46,9.55l-.28-.18-1.92,2.09a1,1,0,0,0,0,1.36,1,1,0,0,0,1.42-.05L46.84,11a.52.52,0,0,0,0-.73l.13-.14,1,.87-.13.15a.51.51,0,0,0-.73,0l-1.48,1.62a1.27,1.27,0,0,1-2,.07c-.67-.61-.92-1.26-.29-1.95l1.92-2.09-.22-.26.13-.15Z" transform="translate(0 -0.48)"/><path class="cls-6" d="M47.83,15.89a1.7,1.7,0,0,1-1.94-.43,1.86,1.86,0,0,1,.58-2.65c.81-.65,2.17-1,2.88-.1a2,2,0,0,1,.23.39,2.15,2.15,0,0,0,.16.31,1.55,1.55,0,0,0,.37.26l-.84,1.05-.18-.14c.24-.54.47-1.22.11-1.67s-1.33-.28-1.89.17c-.73.59-1.42,1.58-.84,2.31a1.17,1.17,0,0,0,1.29.3Z" transform="translate(0 -0.48)"/><path class="cls-6" d="M49.39,17.67l1.39-1.53h0l-2,.43Zm-2.56-1.26.16-.1a.73.73,0,0,0,.78.22L51,15.85l.23-.3.45.68-2.83,3.14.11.33-.17.1-.72-1.26.17-.09.23.25.75-.84-.71-1.25-.59.13a.93.93,0,0,0-.25.1c-.18.1-.11.31-.06.51l-.17.1Z" transform="translate(0 -0.48)"/><path class="cls-6" d="M53.56,20.57a1.34,1.34,0,0,0,.29.49l-1.11.71-.11-.17c.44-.42.79-.86.54-1.5l-3.54,1.36.07.33-.18.07L49,20.55l.18-.07.17.29,3.54-1.36c-.24-.63-.8-.73-1.41-.75l0-.2,1.29-.21a1.39,1.39,0,0,0,.11.56Z" transform="translate(0 -0.48)"/><polygon class="cls-6" points="49.88 22.52 50.07 22.47 50.2 22.78 53.83 21.86 53.8 21.53 53.98 21.48 54.33 22.84 54.14 22.89 54.01 22.58 50.38 23.5 50.42 23.83 50.23 23.88 49.88 22.52"/><path class="cls-6" d="M52.78,27.11c1.48-.18,1.91-.61,1.83-1.21s-.69-.91-2.07-.74-1.9.62-1.82,1.22.69.9,2.06.73m-.33-2.74c1-.12,2.28.47,2.4,1.5s-.8,1.89-2,2c-1,.12-2.28-.48-2.4-1.5s.8-1.9,2-2" transform="translate(0 -0.48)"/><path class="cls-6" d="M51.87,31.34h0l2.37.11c.34,0,.41-.15.47-.45h.19l0,1.19h-.19a.49.49,0,0,0-.5-.49l-3.6-.16v-.29l3.55-2.12h0L51.47,29a.51.51,0,0,0-.54.49h-.19l0-1.29H51a.55.55,0,0,0,.55.54l2.67.12a.57.57,0,0,0,.62-.49H55L55,29.51Z" transform="translate(0 -0.48)"/><path class="cls-6" d="M9,40.75l-.11.07-.15-.18-1.63,1a.67.67,0,0,0-.23.9.65.65,0,0,0,.94.23l1.35-.83a.34.34,0,0,0,.12-.48l.11-.06.45.74-.11.07a.34.34,0,0,0-.48-.11L8,42.87a.86.86,0,0,1-1.33-.33c-.32-.52-.36-1,.18-1.32l1.63-1L8.41,40l.12-.07Z" transform="translate(0 -0.48)"/><path class="cls-6" d="M9.52,45h0l1.27-1c.18-.14.15-.26,0-.44l.11-.08.49.64-.1.08a.33.33,0,0,0-.47,0l-1.92,1.5-.12-.15.89-2.65h0L8.29,44a.34.34,0,0,0-.06.48l-.1.08-.54-.69.1-.08a.39.39,0,0,0,.53,0L9.64,42.7a.38.38,0,0,0,.1-.52l.11-.08.46.59Z" transform="translate(0 -0.48)"/><polygon class="cls-6" points="9.46 45.69 9.55 45.6 9.73 45.74 11.59 44.02 11.46 43.84 11.56 43.75 12.2 44.44 12.11 44.53 11.93 44.39 10.07 46.11 10.2 46.3 10.1 46.38 9.46 45.69"/><path class="cls-6" d="M13.6,46.26a.9.9,0,0,0,.32.21l-.46.76-.12-.06c.14-.39.22-.76-.12-1.08L11.48,48l.14.18-.09.1-.69-.65.09-.09.19.12,1.74-1.88a.9.9,0,0,0-1.08,0l-.07-.12.72-.51a.77.77,0,0,0,.23.3Z" transform="translate(0 -0.48)"/><path class="cls-6" d="M13.84,50.17a.81.81,0,0,0-.26-.28l-1.26-1,.08-.1.2.11,1.52-2L14,46.77l.08-.11,1.23.93a.86.86,0,0,0,.34.18l-.35.78-.14-.07a.93.93,0,0,0-.41-1.15.69.69,0,0,0-.19-.1l-.66.87.13.1c.23.17.39.13.64-.09l.1.07L14.1,49l-.1-.08c.14-.3.14-.47-.09-.64l-.13-.09-.78,1a.67.67,0,0,0,.14.15,1.05,1.05,0,0,0,1.32,0l.1.11Z" transform="translate(0 -0.48)"/><path class="cls-6" d="M15.11,50.73a.91.91,0,0,0,.24.18c.41.25.84.21,1.37-.69s.37-1.29,0-1.53a1.05,1.05,0,0,0-.28-.13ZM16,48.3l-.18-.14.07-.11.94.56a1.44,1.44,0,0,1-1.47,2.45l-.94-.56.06-.11.21.08Z" transform="translate(0 -0.48)"/><path class="cls-6" d="M20.25,51.17l-.15,0c0-.34-.07-.81-.44-1a.42.42,0,0,0-.6.21c-.31.74,1.24,1,.81,2a.87.87,0,0,1-1.16.43,4.62,4.62,0,0,1-.56-.38,1.17,1.17,0,0,0-.27,0l.19-.86.15,0a1.17,1.17,0,0,0,.58,1.1.49.49,0,0,0,.66-.26c.3-.71-1.21-1-.76-2a.75.75,0,0,1,1-.38,1,1,0,0,1,.25.14.55.55,0,0,0,.18.13.49.49,0,0,0,.3,0Z" transform="translate(0 -0.48)"/><path class="cls-6" d="M22.46,51.07a.94.94,0,0,0,.38,0l-.09.88h-.13c0-.41-.13-.78-.57-.91l-.76,2.44.2.1,0,.13-.9-.28,0-.13.22,0,.76-2.45c-.44-.14-.72.12-1,.43l-.11-.07.42-.77a.94.94,0,0,0,.35.17Z" transform="translate(0 -0.48)"/><path class="cls-6" d="M23.82,53.21l-.14-1.39h0L23,53ZM22,53.94l0-.13a.5.5,0,0,0,.46-.29l1.1-1.93-.05-.25.54.08.33,2.84.2.09,0,.13-1-.2,0-.13h.23l-.08-.76-1-.2-.19.36a.36.36,0,0,0-.07.17c0,.14.11.19.23.26l0,.13Z" transform="translate(0 -0.48)"/><path class="cls-6" d="M26.7,51.83a.88.88,0,0,0,.38,0l.08.88-.13,0c-.11-.4-.27-.74-.73-.79L26,54.46l.22.06v.13l-.94-.1v-.13h.23l.28-2.55c-.46,0-.69.25-.89.61l-.12,0,.27-.84a.9.9,0,0,0,.37.11Z" transform="translate(0 -0.48)"/><path class="cls-6" d="M29.29,54.82a.94.94,0,0,0-.38-.06H27.33v-.13l.22,0,0-2.54-.22,0v-.13H28.9a.91.91,0,0,0,.38-.06l.18.83-.15,0a.93.93,0,0,0-1-.67.51.51,0,0,0-.21,0v1.09h.16c.28,0,.39-.12.45-.45h.14v1h-.13c-.07-.32-.17-.45-.45-.46h-.16v1.31l.21,0a1.05,1.05,0,0,0,1.08-.75l.15,0Z" transform="translate(0 -0.48)"/><path class="cls-6" d="M31.55,52.52l-.14,0c-.18-.29-.44-.69-.84-.65a.42.42,0,0,0-.44.46c.07.8,1.56.28,1.66,1.41a.86.86,0,0,1-.82.92,4,4,0,0,1-.68-.07.75.75,0,0,0-.25.09l-.23-.85.15,0a1.16,1.16,0,0,0,1,.71.52.52,0,0,0,.47-.54c-.07-.77-1.53-.31-1.63-1.44a.75.75,0,0,1,.71-.81.88.88,0,0,1,.29,0,.91.91,0,0,0,.23,0,.62.62,0,0,0,.27-.11Z" transform="translate(0 -0.48)"/><path class="cls-6" d="M34.78,52.54c-.22-1-.55-1.23-1-1.14s-.56.53-.34,1.45.55,1.23.95,1.14.56-.54.34-1.45M33,53a1.45,1.45,0,0,1,.84-1.73c.74-.17,1.33.4,1.51,1.18a1.46,1.46,0,0,1-.84,1.73A1.33,1.33,0,0,1,33,53" transform="translate(0 -0.48)"/><path class="cls-6" d="M36.06,53.68,36,53.55l.21-.1-.83-2.39-.22,0,0-.12,1.4-.49a1,1,0,0,0,.34-.18l.49.75-.13.09c-.38-.35-.65-.54-1.18-.36l-.19.1L36.23,52l.23-.08c.25-.09.27-.3.23-.53l.12,0,.34,1-.12,0c-.13-.25-.27-.41-.53-.32l-.23.08.42,1.2.22,0,0,.13Z" transform="translate(0 -0.48)"/><path class="cls-6" d="M39.92,50.93l-1-1h0l.22,1.38ZM39,52.61l-.06-.12A.48.48,0,0,0,39.1,52l-.35-2.19-.2-.17.48-.27,2,2,.23-.06.06.12-.87.44-.06-.12.17-.14-.53-.54-.87.44.06.4a.85.85,0,0,0,.06.17c.06.13.21.08.35.06l.05.12Z" transform="translate(0 -0.48)"/><path class="cls-6" d="M41.51,51.33l-.08-.1a.36.36,0,0,0,0-.51l-1.14-1.85-.21.1-.07-.11.62-.41,1.37,1-.36-1.65.61-.4.07.11-.17.15,1.47,2.06.21-.1.07.11-.79.53-.08-.11.17-.15-1.31-1.86h0l.42,2-.09.06L40.64,49h0l1,1.63a.31.31,0,0,0,.48.13l.08.11Z" transform="translate(0 -0.48)"/><path class="cls-6" d="M45.88,48.18a.76.76,0,0,0-.33.19l-1.2,1-.09-.1.15-.17-1.63-1.93-.19.12-.09-.1,1.18-1a.88.88,0,0,0,.25-.29l.68.51-.1.12a.93.93,0,0,0-1.21.16.36.36,0,0,0-.14.16l.7.83.13-.1c.21-.19.21-.35,0-.64l.1-.09.67.8-.1.08c-.26-.2-.42-.24-.64,0l-.12.1.84,1a.78.78,0,0,0,.18-.11,1,1,0,0,0,.33-1.28l.14-.07Z" transform="translate(0 -0.48)"/><path class="cls-6" d="M45.74,46.07l.12-.13c.37-.39.36-.67.08-.94a.56.56,0,0,0-.87.06.92.92,0,0,0-.17.21Zm-1.18-.43-.18.14-.09-.09.72-.76c.37-.39.86-.74,1.33-.3a.74.74,0,0,1,0,.93l1.39.39.18-.14.09.09-.48.51L46,46l-.2.2.91.87.17-.14L47,47l-.66.68-.09-.09.13-.18Z" transform="translate(0 -0.48)"/><polygon class="cls-6" points="48.19 45.2 48.09 45.11 48.21 44.92 46.25 43.32 46.08 43.47 45.98 43.39 46.58 42.66 46.68 42.74 46.56 42.93 48.52 44.53 48.69 44.38 48.79 44.46 48.19 45.2"/><path class="cls-6" d="M49.68,42.36a1.13,1.13,0,0,1,.1,1.34,1.25,1.25,0,0,1-1.82.14c-.58-.4-1.06-1.22-.63-1.85a1.49,1.49,0,0,1,.21-.22l.17-.16a1.73,1.73,0,0,0,.1-.3l.84.34-.06.15c-.39,0-.88-.07-1.1.25s.08.91.47,1.19,1.3.61,1.66.1a.79.79,0,0,0-.06-.9Z" transform="translate(0 -0.48)"/><path class="cls-6" d="M50.24,40.76l-1.37-.27h0l1,1Zm.17,1.92-.11-.06a.51.51,0,0,0-.15-.53l-1.51-1.61-.26,0,.24-.49,2.8.52.16-.17.11.06-.47.86-.12-.07.07-.21-.75-.15-.47.85.28.3a.49.49,0,0,0,.14.11c.13.07.22-.05.32-.15l.11.07Z" transform="translate(0 -0.48)"/><circle class="cls-12" cx="28.61" cy="28.49" r="20.77"/></g><path class="cls-13" d="M72.52,31V25.4c0-1-.15-1-.64-1.15l-.59-.13V23.5h5.29v.62l-.54.13c-.54.13-.66.18-.66,1.15v5.94c0,1.62.64,2.26,2.53,2.26,1.67,0,2.39-.88,2.39-2.48V25.63c0-1.17-.12-1.24-.79-1.38l-.67-.13V23.5h3.67v.62l-.48.11c-.52.13-.71.2-.71,1.33v5.68c0,2-1.25,3.54-4.08,3.54S72.52,33.79,72.52,31Z" transform="translate(0 -0.48)"/><path class="cls-13" d="M83.14,33.2a1.58,1.58,0,1,1,1.57,1.52A1.56,1.56,0,0,1,83.14,33.2Z" transform="translate(0 -0.48)"/><path class="cls-13" d="M88,34.3l-.19-3.1h.69a11.76,11.76,0,0,0,1.18,1.92,2,2,0,0,0,1.78.81,1.8,1.8,0,0,0,2-1.6c0-.88-.53-1.45-2.48-2.21-2.34-.88-3.06-1.89-3.06-3.5,0-1.94,1.62-3.32,4-3.32a9.24,9.24,0,0,1,2.86.33L95,26.41H94.3a7.23,7.23,0,0,0-1.09-1.71,1.77,1.77,0,0,0-1.46-.55,1.65,1.65,0,0,0-1.84,1.52c0,.76.35,1.17,2.24,1.89,2.55,1,3.49,1.92,3.49,3.51,0,2-1.52,3.71-4.29,3.71A11,11,0,0,1,88,34.3Z" transform="translate(0 -0.48)"/><path class="cls-13" d="M96.9,33.2a1.58,1.58,0,1,1,1.57,1.52A1.56,1.56,0,0,1,96.9,33.2Z" transform="translate(0 -0.48)"/><path class="cls-13" d="M105.73,34l.56-.11c.5-.11.64-.19.64-1.16V25.4c0-1-.14-1-.64-1.15l-.56-.13V23.5h5.51c3.41,0,5.71,1.57,5.71,5.36s-2.25,5.73-5.79,5.73h-5.43ZM114,29.23c0-3.76-1-4.88-3-4.88a3.63,3.63,0,0,0-1.17.14v7.75c0,1.26.19,1.5,1.2,1.5C113.13,33.74,114,32.32,114,29.23Z" transform="translate(0 -0.48)"/><path class="cls-13" d="M118.13,30.4a4.19,4.19,0,0,1,4.26-4.34c2.27,0,3.67,1.15,3.71,4.18h-5.45c.11,2.35,1.12,3.12,2.77,3.12a5.42,5.42,0,0,0,2.44-.61v.72a4.91,4.91,0,0,1-3.47,1.31C119.54,34.78,118.13,33.12,118.13,30.4Zm2.52-1,2.91-.15c0-1.9-.26-2.43-1.28-2.43S120.73,27.55,120.65,29.44Z" transform="translate(0 -0.48)"/><path class="cls-13" d="M126.89,37.49l.46-.13c.53-.13.59-.21.59-.91V28.33c0-.67-.08-.72-.54-1l-.56-.36v-.51l3.37-.37.23.15-.1.94h.07a4.58,4.58,0,0,1,2.83-1.09c1.57,0,3.23,1,3.23,3.93,0,3.31-2,4.78-4.77,4.78a6,6,0,0,1-1.31-.16,5.8,5.8,0,0,1,.08,1v.85c0,.72.05.8.55.91l.6.13v.6h-4.73Zm7-7c0-2.18-.74-3-2-3a3,3,0,0,0-1.38.37v5.49a1.75,1.75,0,0,0,1.33.58C133.16,34,133.88,33.31,133.88,30.54Z" transform="translate(0 -0.48)"/><path class="cls-13" d="M137.4,32.64c0-1.4.81-2.15,3.37-2.76l1.3-.28V28.4c0-1.3-.25-1.57-1.23-1.57-.51,0-.59.12-.64.59-.08,1-.47,1.42-1.33,1.42s-1.09-.36-1.09-1c0-1.07,1.39-1.77,3.6-1.77,2.05,0,3.22.64,3.22,2.19v4.27c0,.58.06.82.4,1a1.86,1.86,0,0,0,.77.16v.58a3.34,3.34,0,0,1-1.89.54c-.93,0-1.5-.37-1.68-1h-.08a2.77,2.77,0,0,1-2.24,1C138.36,34.78,137.4,34,137.4,32.64Zm4.67.43V30.56l-.8.08c-1,.06-1.41.48-1.41,1.63s.5,1.28,1.15,1.28A1.19,1.19,0,0,0,142.07,33.07Z" transform="translate(0 -0.48)"/><path class="cls-13" d="M146.29,34l.47-.12c.53-.14.59-.22.59-.91V28.33c0-.67-.08-.72-.54-1l-.56-.36v-.51l3.37-.37.23.16-.11,1.06h.08a3.8,3.8,0,0,1,2.46-1.22,1.11,1.11,0,0,1,1.23,1.19,1.08,1.08,0,0,1-1.1,1.22,1.18,1.18,0,0,1-1.27-.66.45.45,0,0,0-.43-.23,1.51,1.51,0,0,0-.83.48v4.87c0,.75.06.83.53.91L151,34v.62h-4.69Z" transform="translate(0 -0.48)"/><path class="cls-13" d="M155,32.6V27.42h-1v-.58a3.91,3.91,0,0,0,2.48-2.73h1.11v2.17h2.24l-.27,1.14h-2v5c0,.78.27,1.1,1.09,1.1a6.56,6.56,0,0,0,1.18-.17V34a3.46,3.46,0,0,1-2.54.83C155.86,34.78,155,34.16,155,32.6Z" transform="translate(0 -0.48)"/><path class="cls-13" d="M160.37,34l.47-.12c.53-.14.59-.22.59-.91V28.33c0-.67-.08-.72-.55-1l-.55-.36v-.51l3.37-.37.23.16-.12,1h.08A5.62,5.62,0,0,1,167,26.07a1.89,1.89,0,0,1,2,1.14H169a5.63,5.63,0,0,1,3.11-1.14,1.88,1.88,0,0,1,2,2.15v4.72c0,.71.08.79.57.91l.47.12v.62h-4.5V34l.42-.1c.46-.13.51-.18.51-.93v-4c0-1-.27-1.34-1.06-1.34a4.46,4.46,0,0,0-1.49.32c0,.13,0,.17,0,.42v4.62c0,.74.08.8.48.93l.41.1v.62h-4.35V34l.42-.1c.45-.13.51-.18.51-.93v-4c0-1-.29-1.34-1.06-1.34a4.45,4.45,0,0,0-1.5.3v5.06c0,.77.06.8.48.93l.41.1v.62h-4.48Z" transform="translate(0 -0.48)"/><path class="cls-13" d="M175.85,30.4a4.18,4.18,0,0,1,4.25-4.34c2.28,0,3.67,1.15,3.72,4.18h-5.46c.11,2.35,1.12,3.12,2.77,3.12a5.47,5.47,0,0,0,2.45-.61v.72a4.94,4.94,0,0,1-3.48,1.31C177.25,34.78,175.85,33.12,175.85,30.4Zm2.51-1,2.91-.15c0-1.9-.25-2.43-1.28-2.43C179.11,26.86,178.44,27.55,178.36,29.44Z" transform="translate(0 -0.48)"/><path class="cls-13" d="M184.6,34l.46-.12c.53-.14.59-.22.59-.91V28.33c0-.67-.08-.72-.54-1l-.56-.36v-.51l3.38-.37.22.15-.11,1h.08a5.84,5.84,0,0,1,3.18-1.12,1.91,1.91,0,0,1,2.18,2.13v4.74c0,.71.08.79.59.91l.43.12v.62H190V34l.43-.1c.47-.13.51-.18.51-.93v-4c0-1-.35-1.34-1.16-1.34a5.55,5.55,0,0,0-1.59.3v5.06c0,.77,0,.8.51.93l.44.1v.62H184.6Z" transform="translate(0 -0.48)"/><path class="cls-13" d="M196,32.6V27.42h-1v-.58a3.91,3.91,0,0,0,2.48-2.73h1.11v2.17h2.24l-.27,1.14h-2v5c0,.78.27,1.1,1.09,1.1a6.56,6.56,0,0,0,1.18-.17V34a3.46,3.46,0,0,1-2.54.83C196.82,34.78,196,34.16,196,32.6Z" transform="translate(0 -0.48)"/><path class="cls-13" d="M205.84,30.44a4.17,4.17,0,0,1,4.45-4.38,4.1,4.1,0,0,1,4.42,4.32,4.44,4.44,0,0,1-8.87.06Zm6.2,0c0-3-.64-3.55-1.83-3.55s-1.69.67-1.69,3.39c0,3,.57,3.69,1.82,3.69C211.37,34,212,33.36,212,30.44Z" transform="translate(0 -0.48)"/><path class="cls-13" d="M215.49,34l.47-.12c.53-.14.59-.22.59-.91V27.42h-1.17v-.59l1.17-.55v-.62c0-2.13,1.58-3.41,4.08-3.41,1.28,0,2,.45,2,1.33a.9.9,0,0,1-1,.94c-.74,0-1.17-.27-1.23-1.07,0-.42-.1-.47-.33-.47-.52,0-1,.34-1,1.57v1.73H221l-.29,1.14h-1.65v5.49c0,.75,0,.85.54.93l.66.13v.62h-4.79Z" transform="translate(0 -0.48)"/><path class="cls-13" d="M226,34l.56-.11c.49-.11.64-.19.64-1.16V25.4c0-1-.15-1-.64-1.15l-.56-.13V23.5h9.15l.18,3.2h-.71a7.73,7.73,0,0,0-.91-1.7c-.51-.65-.89-.64-2-.64a6.23,6.23,0,0,0-1.6.15V28.4h.31c1.18,0,1.45-.1,1.68-.47a3.52,3.52,0,0,0,.48-1.09h.7v4.05h-.7a4.89,4.89,0,0,0-.48-1.15c-.23-.42-.43-.46-1.68-.46H230v3c0,1.46,0,1.45,1.75,1.45,1.36,0,1.6-.07,2.14-.79A11,11,0,0,0,235,30.81h.71l-.24,3.78H226Z" transform="translate(0 -0.48)"/><path class="cls-13" d="M236.66,30.72c0-3.32,2.21-4.65,4.75-4.65a5.81,5.81,0,0,1,1.35.16,9.46,9.46,0,0,1-.08-1.15v-.53c0-.73-.1-.78-.51-1l-.68-.36v-.56l3.61-.3.22.16a13.1,13.1,0,0,0-.11,1.84v8.16c0,.79,0,.87.53,1.06l.48.21v.56l-3.33.46-.16-.13.06-.89h-.06a4.52,4.52,0,0,1-2.84,1C238.28,34.78,236.66,33.65,236.66,30.72Zm6,2.25V27.56a1.68,1.68,0,0,0-1.31-.65c-1.25,0-2.08.78-2.08,3.31,0,2.37.67,3.12,2,3.12A2.92,2.92,0,0,0,242.66,33Z" transform="translate(0 -0.48)"/><path class="cls-13" d="M247.86,32.65v-4.4c0-.67,0-.72-.51-1l-.59-.32v-.51l3.36-.36.27.18V32c0,1,.37,1.3,1.14,1.3a4.64,4.64,0,0,0,1.63-.4V28.25c0-.67,0-.74-.53-1l-.56-.32v-.51l3.36-.36.26.18v6.24c0,.79.05.87.54,1.06l.47.21v.56l-3.28.46-.23-.16.1-1h-.07a5.49,5.49,0,0,1-3.2,1.2A2,2,0,0,1,247.86,32.65Z" transform="translate(0 -0.48)"/><path class="cls-13" d="M257.48,30.51c0-3.35,2.7-4.45,5-4.45,1.63,0,2.59.53,2.59,1.49a1.22,1.22,0,0,1-1.13,1.28c-.84,0-1.09-.56-1.16-1.22s-.2-.72-.73-.72c-1,0-2,.56-2,2.9s.87,3.57,2.71,3.57a4.65,4.65,0,0,0,2.29-.63v.72a4.63,4.63,0,0,1-3.45,1.33C258.93,34.78,257.48,33.12,257.48,30.51Z" transform="translate(0 -0.48)"/><path class="cls-13" d="M265.88,32.64c0-1.4.81-2.15,3.37-2.76l1.3-.28V28.4c0-1.3-.26-1.57-1.23-1.57-.52,0-.6.12-.64.59-.08,1-.47,1.42-1.33,1.42s-1.09-.36-1.09-1c0-1.07,1.39-1.77,3.6-1.77,2.05,0,3.22.64,3.22,2.19v4.27c0,.58.06.82.4,1a1.86,1.86,0,0,0,.77.16v.58a3.34,3.34,0,0,1-1.89.54c-.93,0-1.51-.37-1.68-1h-.08a2.77,2.77,0,0,1-2.24,1C266.84,34.78,265.88,34,265.88,32.64Zm4.67.43V30.56l-.8.08c-1,.06-1.41.48-1.41,1.63s.5,1.28,1.15,1.28A1.19,1.19,0,0,0,270.55,33.07Z" transform="translate(0 -0.48)"/><path class="cls-13" d="M275.62,32.6V27.42h-1v-.58a3.91,3.91,0,0,0,2.48-2.73h1.11v2.17h2.24l-.28,1.14h-2v5c0,.78.27,1.1,1.08,1.1a6.54,6.54,0,0,0,1.19-.17V34a3.47,3.47,0,0,1-2.55.83C276.47,34.78,275.62,34.16,275.62,32.6Z" transform="translate(0 -0.48)"/><path class="cls-13" d="M281,34l.46-.12c.53-.14.6-.22.6-.91V28.33c0-.67-.08-.72-.55-1l-.56-.36v-.51l3.54-.37.22.15c0,.46-.13,1-.13,2.29v4.43c0,.72.07.79.58.91l.47.12v.62H281Zm.72-10.28a1.43,1.43,0,0,1,1.54-1.39,1.41,1.41,0,0,1,1.48,1.39,1.43,1.43,0,0,1-1.48,1.39A1.45,1.45,0,0,1,281.7,23.69Z" transform="translate(0 -0.48)"/><path class="cls-13" d="M286.34,30.44a4.17,4.17,0,0,1,4.45-4.38,4.1,4.1,0,0,1,4.42,4.32,4.16,4.16,0,0,1-4.42,4.4A4.12,4.12,0,0,1,286.34,30.44Zm6.19,0c0-3-.64-3.55-1.82-3.55s-1.7.67-1.7,3.39c0,3,.58,3.69,1.83,3.69C291.86,34,292.53,33.36,292.53,30.44Z" transform="translate(0 -0.48)"/><path class="cls-13" d="M296,34l.46-.12c.53-.14.59-.22.59-.91V28.33c0-.67-.08-.72-.54-1l-.56-.36v-.51l3.38-.37.22.15-.11,1h.08a5.84,5.84,0,0,1,3.18-1.12,1.91,1.91,0,0,1,2.18,2.13v4.74c0,.71.08.79.59.91l.44.12v.62h-4.52V34l.43-.1c.47-.13.52-.18.52-.93v-4c0-1-.36-1.34-1.17-1.34a5.55,5.55,0,0,0-1.59.3v5.06c0,.77.05.8.52.93l.43.1v.62H296Z" transform="translate(0 -0.48)"/></g></g></svg>