<svg xmlns="http://www.w3.org/2000/svg" xmlns:xlink="http://www.w3.org/1999/xlink" viewBox="0 0 50.32 50.32"><defs><clipPath id="clip-path" transform="translate(0 -0.42)"><rect width="50.56" height="51.06" style="fill:none"/></clipPath></defs><g id="Layer_2" data-name="Layer 2"><g id="header_footer" data-name="header/footer"><g style="clip-path:url(#clip-path)"><path d="M25.16,50.74A25.16,25.16,0,1,0,0,25.58,25.17,25.17,0,0,0,25.16,50.74" transform="translate(0 -0.42)" style="fill:#00539f"/><path d="M25.19,43.53a18,18,0,1,0-18-18,18,18,0,0,0,18,18" transform="translate(0 -0.42)" style="fill:#aab5da"/><polyline points="23.22 29.89 23.84 33.44 24.26 33.39 23.74 30.16" style="fill:#ffd520"/><polygon points="30.94 36.26 43.14 27.86 42.83 29.06 31.04 36.57 30.94 36.26" style="fill:#ffd520"/><polygon points="30.05 35.24 30.68 34.48 30.94 34.8 30.21 35.42 30.05 35.24" style="fill:#ffd520"/><polygon points="28.96 34.33 30.21 32.71 30.23 33.17 29.22 34.48 28.96 34.33" style="fill:#ffd520"/><polyline points="41.02 23.87 43.09 21.76 43.25 22.8 41.48 24.48" style="fill:#ffd520"/><polyline points="39.34 19.67 41.37 16.85 40.8 15.76 38.81 18.89" style="fill:#ffd520"/><polyline points="22.62 33.75 21.98 32.46 22.24 32.06 22.85 33.7 22.62 33.77" style="fill:#ffd520"/><polygon points="21.32 33.7 21.6 34.26 21.36 34.41 21.04 34 21.32 33.7" style="fill:#ffd520"/><polygon points="20.04 34.43 20.47 35.07 20.25 35.22 19.57 34.59 20.04 34.43" style="fill:#ffd520"/><polygon points="16.91 34.22 19.5 36.04 19.29 36.36 16.65 34.54 16.91 34.22" style="fill:#ffd520"/><polygon points="13.31 31.77 7.26 27.6 7.42 28.64 13.57 32.71 13.31 31.77" style="fill:#ffd520"/><polygon points="7.41 21.65 10.44 24.63 10.02 25.3 7.15 22.7 7.41 21.65" style="fill:#ffd520"/><polygon points="8.93 16.8 10.75 19.15 11.33 18.42 9.66 15.71 8.93 16.8" style="fill:#ffd520"/><polyline points="35.54 14.46 36.52 14.3 37.67 11.74 36.78 11.01 35.37 14.25" style="fill:#ffd520"/><polygon points="32.14 8.25 31.04 7.88 30.52 11.17 31.46 11.27 32.14 8.25" style="fill:#ffd520"/><polygon points="12.84 11.79 14.36 14.53 15.28 14.29 14.09 10.75 12.84 11.79" style="fill:#ffd520"/><polygon points="19.52 11.59 18.79 8.14 20.14 7.67 20.45 11.32 19.52 11.59" style="fill:#ffd520"/><polygon points="25.77 6.84 25.72 9.92 24.78 10.18 24.78 6.89 25.77 6.84" style="fill:#ffd520"/><polyline points="28.91 30.83 29.11 31.56 30.23 29.54 29.88 29.54 29.07 31.08" style="fill:#ffd520"/><path d="M25.36,42.6C28.69,42.6,32,42.31,32,40s-3.29-6.72-6.72-6.3-6.9,4.4-6.9,6.72,3.69,2.19,7,2.19" transform="translate(0 -0.42)" style="fill:#ffd520"/><path d="M11.77,18.34a2,2,0,0,0,0-.35c0-.26.44-.5.8-.36.15.06.23-.3.48-.4s-.09-.54.24-.68c.12-.06.35.07.38-.12s-.16-.13-.16-.2c0-.36-.18-.62-.19-.94S13.66,15,14,15a.14.14,0,0,0,.1-.19c.25,0,.61-.15.75.09.09-.26.26-.08.21-.3s0-.17-.1-.23c-.3-.42,0-1.34.49-1.28s.87.17,1,.7c.22-.4.67-.1.91.11s.2.48.2.8.13-.11.25-.1c0-.36,0-.6.3-.72s0-.55.13-.76a1,1,0,0,1,.59-.7c.28-.14.49.08.05-.05.5.15.17-.05.38-.39s.72-.28,1.15-.31c0,.11.07.06.15.09s.18.51.25.51c0,.8-.23.6.35.56.15,0,.33-.14.28-.2a.75.75,0,0,1-.17-.74c0-.26.25-.3.49-.36s-.14-.4,0-.57.37-.59.63-.83c.11-.1.32-.22.49-.11.39.28.48.8.79,1.08s.56-.41,1-.56c.2-.07.39-.15.51,0,.39-.42.93-.28,1.45-.19s.09.67.17,1.06.41-.16.59.21c.27-.17.35-.46.62-.59s.4.17.49.14c.38-.17.47-.82.87-.93.66-.17,1,.59,1.13,1.19.05-.08.15-.16.19-.09.3.44.51.28,1,.33.11,0,.21.17.31.28.29-.59,1.14-.35,1.38,0,.38.49.22,1.14-.2,1.18.13.14.08.24.18.41a.19.19,0,0,1,.21-.1c.28.05.38.33.62.42.08-.6.9-.84,1.15-.46s.44.91,0,1.31c0,0,.1.13.19.08s.16-.15.18-.09.26,0,.32.07a.69.69,0,0,1,1,0c.29.29.6,1,.05,1.31.07.07.17.13.19.21.05.33-.21.65.23.7.06,0,.13-.15.2-.16.44-.06.92.05,1,.5s-.3.49-.18.83a.76.76,0,0,0-.53.21l0,0Z" transform="translate(0 -0.42)"/><path d="M38,18.34c.2.17.44.44.17.7.45.19,1.23.12,1,.79,0,.14.27.31.28.48,0,.61.48.43.77.83.16.21,0,.43,0,.63-.13.47.4,1.13-.07,1.55.4.21,0,.85.31.85a1.5,1.5,0,0,1,.89.34c.2.23,0,.76-.13.93-.33.38,0,.74-.38,1.08a1,1,0,0,1-.21.17H9.5a1.86,1.86,0,0,1,.44-.83c.17-.18-.18-.66.69-.91.2-.06.24-.15.17-.27s-.58-.23-.57-.67c0,.17,0,0,.08-.05s-.33-.12-.51-.23c-.59-.37-.64-.74-.49-1.13a1,1,0,0,1,.7-.55c.28-.06.4.08.62.12s.08-.14.14-.3.48.1.7-.12a2.75,2.75,0,0,1-.6-.63c-.15-.28,0-.38.21-.57a.78.78,0,0,1-.31-1c.16-.25.24-.57.42-.68s.51-.08.57-.38a1.09,1.09,0,0,0,0-.18Z" transform="translate(0 -0.42)"/><path d="M40.64,26.69c-.29.19-.44.15-.64.52.57.24.63,1.26.35,1.68s0,.06,0,.68a.54.54,0,0,1-1,.35c-.16.46-.26,1.12-.79,1.28a.79.79,0,0,1-.82-.06c-.14.19-.51.29-.46.39.23.43,0,.72-.3.94s-.54-.15-.66,0c-.34.33-.73.33-.59.87a1,1,0,0,1,0,.74c-.12.21,0,.6-.2.52s-.65.15-.81,0-.32-.08-.43-.25c-.23.09-.13,0-.1.05a1.72,1.72,0,0,1-.65-.15.41.41,0,0,1-.31-.48.11.11,0,0,0-.18-.09c-.09,0-.2.13-.19.19.06.52-.4.63-.55.9a1.3,1.3,0,0,1-1,.75c-.43,0-.43-.37-.65-.69,0-.05-.25-.31-.26-.34-.28-.88-.48-1.4.05-2.11.07,0,.35-.34.23-.49-.29-.38.21-.81.5-1.16a.37.37,0,0,0,0-.38,1.27,1.27,0,0,0-2.1.41c-.21.78.38,1.73.11,2.48-.43,1.19-1.32,2.07-1.82,3.26a.93.93,0,0,0,.51,1.11c.32.17.77.1,1,.37.61.76,1.56.8,2.19,1.46.16.17.25.48.47.56,1.09.38,2.12,1.11,3.33,1-.3.54-.89.68-1.38.89a22.81,22.81,0,0,1-3.52,1.33,18.65,18.65,0,0,1-8.34.23,19.18,19.18,0,0,1-5.75-2.24s.07-.1.1-.09A3.47,3.47,0,0,0,17.08,41c1-.31,2-.84,3-1.22.76-.3,1.09-1.38,1.44-2.25a2,2,0,0,1,.64-.71,9.53,9.53,0,0,0,2.38-3.31,2.14,2.14,0,0,0,.06-1.82,4.54,4.54,0,0,0-3-2c-.1.58.26,1.09.25,1.67,0,.12.32.14.35.32.07.45.12,1-.39,1.25.17.1.12.29.08.4A2.83,2.83,0,0,1,20,34.94c-.25.06-.56.76-1.08.75a1,1,0,0,1-.68-.57c-.1-.37.2-.7-.25-.69s-.78-.09-1,.27c0,0,.05.06.09.1-.31.13-.41.57-.74.59s-.62-.26-.91-.43c-.12-.08.11-.45-.14-.56a4,4,0,0,0-.92-.29c-.22,0-.57-.22-.58-.47,0-.42-.26-.6-.45-1-.07-.13,0-.38,0-.47A1.19,1.19,0,0,1,12.84,31c0-.08.12-.14.19-.21-.2-.19-.21-.41-.44-.57-.33.51-1.27.63-1.55.2s-.43-1.12.32-1.3c-.32-.18-.14-.44-.36-.72-.59-.73,0-.92-.3-1.34,0-.08-.32.14-.38.18a.66.66,0,0,1-.71,0,.72.72,0,0,1-.12-.57Z" transform="translate(0 -0.42)"/><polygon points="45.84 30.91 46.76 30.91 46.76 30.92 46.02 31.47 46.31 32.34 46.3 32.35 45.57 31.81 44.84 32.35 44.83 32.34 45.12 31.47 44.37 30.92 44.37 30.91 45.29 30.91 45.56 30.05 45.57 30.05 45.84 30.91" style="fill:#fff"/><polygon points="5.07 30.91 5.99 30.91 5.99 30.92 5.25 31.47 5.53 32.34 5.53 32.35 4.8 31.81 4.07 32.35 4.06 32.34 4.35 31.47 3.6 30.92 3.6 30.91 4.52 30.91 4.79 30.05 4.8 30.05 5.07 30.91" style="fill:#fff"/><path d="M25.15,50.09A24.54,24.54,0,1,0,.61,25.55,24.54,24.54,0,0,0,25.15,50.09Z" transform="translate(0 -0.42)" style="fill:none;stroke:#ffd520;stroke-width:0.851753549744025px"/><polygon points="31.6 37.51 41.63 32.76 41.27 33.65 31.67 37.72 31.6 37.51" style="fill:#ffd520"/><polygon points="31.93 38.66 38.76 37.2 38.14 37.88 31.98 38.92 31.93 38.66" style="fill:#ffd520"/><polygon points="9.03 33.34 9.5 34.12 18.71 37.59 18.82 37.21 9.03 33.34" style="fill:#ffd520"/><polygon points="11.63 37.29 18.41 38.67 18.32 39.02 12.11 37.88 11.63 37.29" style="fill:#ffd520"/><path d="M21.39,25.26s.07.09.11.09.07-.06.1-.09Z" transform="translate(0 -0.42)" style="fill:#fff"/><path d="M16.18,23.69s-.1.07-.1.11.06.07.1.1Z" transform="translate(0 -0.42)" style="fill:#fff"/><path d="M32,26.58a.68.68,0,0,0,.41-.25c0-.07-.17-.35-.51-.6-.26.21-.74,1.32-.48,1.25s.4-.36.58-.4" transform="translate(0 -0.42)" style="fill:#009d57"/><path d="M12.21,18.06c.1,0,.15.05.22.09s.14,0,.1,0-.27-.18-.46-.07c-.6.35,2,1.63,1.6,1.32.05-.16-.31-.32-.42-.38-.66-.39-.79-.78-1-.92" transform="translate(0 -0.42)" style="fill:#009d57"/><path d="M18.18,40.54s-.29-5.81,6.29-6.83" transform="translate(0 -0.42)" style="fill:#ffd520"/><path d="M28.51,34.52a7.17,7.17,0,0,1,3.6,5.71" transform="translate(0 -0.42)" style="fill:#ffd520"/><path d="M21.67,29.31a1.85,1.85,0,0,1,1.39.17,3.41,3.41,0,0,1,2.58,2.61,3.1,3.1,0,0,1-.26,1.77,6.66,6.66,0,0,1-.94,1.52c-.54.66-1.12,1.22-1.67,1.82a6.17,6.17,0,0,0-.91,1.42c-.16.34-.51.61-.66.94M19.79,28.84a.84.84,0,0,1,.54-.07c.6.13,1.07.47,1.63.61a6.17,6.17,0,0,1,2.25,1.15,2.54,2.54,0,0,1,.82,3,8.37,8.37,0,0,1-2,2.83c-.29.26-.74.72-1,1a6.69,6.69,0,0,0-.66,1.25,1.69,1.69,0,0,0-.11.27,2.1,2.1,0,0,1-1.6,1.48" transform="translate(0 -0.42)" style="fill:none;stroke:#ffd520;stroke-width:0.15583461134476px"/><path d="M21.35,39.64c.24-.31.35-.31.55-.19,0,0,.35-.75.86-.12,0,0,.67-.67.94.2,0,0,.67-.59,1,.78,0,0-1.76-1.53-3.13-.55Z" transform="translate(0 -0.42)" style="fill:#ffd520"/><path d="M21.81,39.89s.86-.76,3,.66c0,0-.34.31-.49,0,0,0-.71.49-.84-.13,0,0-.75.33-1-.32,0,0-.23.54-.7-.16" transform="translate(0 -0.42)" style="fill:#ffd520"/><path d="M24.37,37.2c.16-.59.29-.73.8-.75.67,0,.72.86.72.86,0,.24-1.61.21-1.52-.11" transform="translate(0 -0.42)" style="fill:#ffd520"/><path d="M24.31,37.45a.74.74,0,0,0-.41.59c-.06.63.33,1.05,1.25,1.05s1.15-.5,1.15-1a.67.67,0,0,0-.35-.61,2.46,2.46,0,0,1-.78.1,2,2,0,0,1-.86-.18" transform="translate(0 -0.42)" style="fill:#ffd520"/><path d="M24.54,37.55s.1,1.35,1.24,1.52m-.89-1.44s.47,1,1.34,1.07m-.81-1.09a1.55,1.55,0,0,0,1,.66m-.61-.7a1.56,1.56,0,0,0,.57.35m-.19-.31a1.32,1.32,0,0,1-.75,1.46m.41-1.5S25.74,38.86,24.6,39m.8-1.41s-.56,1.09-1.43,1.11m.91-1.13a2.06,2.06,0,0,1-1.1.64m.7-.76a2.12,2.12,0,0,1-.6.35" transform="translate(0 -0.42)" style="fill:none;stroke:#000;stroke-width:0.156901973875192px"/><path d="M28.47,34a.6.6,0,0,0-.17.22,2.2,2.2,0,0,1-.18.28l0,0c-.14.31-.12.12-.29.47s-.61.9-.68,1.18-.29,1,0,1.32a3.9,3.9,0,0,0,1.25.69,1.83,1.83,0,0,1,.31.24c.31.26.73.43,1.35.87a6.86,6.86,0,0,1,1.06.86,1.08,1.08,0,0,0,.33.31,1.28,1.28,0,0,0,.42.17s0,0,0,0a2.87,2.87,0,0,1,.57.17,1.2,1.2,0,0,0,.33,0m-4.6-7.83a.28.28,0,0,1,.15.2.42.42,0,0,1-.14.42c0,.06-.11.13-.2.12s-.11,0-.16-.07m.39-4.06a2.31,2.31,0,0,0,.13,1.1c0,.09.06.26.08.35a4.49,4.49,0,0,0,.29.85,1.54,1.54,0,0,1,.15.87,3.49,3.49,0,0,1-.23.84,1.39,1.39,0,0,1-.46.53.56.56,0,0,1-.68-.13m.38.24a4.07,4.07,0,0,1-.52.83c-.7,1.22-1.26,2.37-.27,2.87a14.07,14.07,0,0,1,2.8,1.63c.61.31.82,1,1.46,1.27a4.87,4.87,0,0,0,.91.13m-4.4-11.15a8.9,8.9,0,0,0,.52,2.27,1.78,1.78,0,0,1,.07,1V33" transform="translate(0 -0.42)" style="fill:none;stroke:#ffd520;stroke-width:0.15583461134476px"/><path d="M29,39.66s0-.84-.62-.29c0,0-.36-1-.83-.16,0,0-1.09-.74-1.29.28,0,0-.88-.24-.8.9A3.2,3.2,0,0,1,29,39.66" transform="translate(0 -0.42)" style="fill:#ffd520"/><path d="M29.22,39.88a3.45,3.45,0,0,0-3.72.74s1.29.31,1.21-.39c0,0,.87.59.9,0,0,0,.53.43.85-.12,0,0,1.35.2.76-.19" transform="translate(0 -0.42)" style="fill:#ffd520"/><path d="M25.15,41.48C26,43,28,42,28,42l-.16-.23c-3.33,1.42-2.58-2.51-2.58-2.51h-.34a4.61,4.61,0,0,0,.26,2.27" transform="translate(0 -0.42)" style="fill:#ffd520"/><path d="M24.11,37.39a2.17,2.17,0,0,0,.76,1.78" transform="translate(0 -0.42)" style="fill:none;stroke:#000;stroke-width:0.156901973875192px"/><path d="M11.69,19.17a15.15,15.15,0,0,0,2.66,3.6s0-1.74-.55-1c0,0,.31-2-.47-1.41,0,0,0-1.79-.7-.71,0,0-.24-1.33-.94-.47" transform="translate(0 -0.42)" style="fill:#009d57"/><path d="M11.29,19.17a28.14,28.14,0,0,0,2.35,3.37s-.78-1-1.56-.47c0,0-1.33-1.49-.47-1.64a.74.74,0,0,1-.32-1.26" transform="translate(0 -0.42)" style="fill:#009d57"/><path d="M15,23.22s-.87-3.47.63-4.75a.37.37,0,0,0-.7.08s-1.18.31-.47,1.64a1.18,1.18,0,0,0,.07,1.64A7.6,7.6,0,0,1,15,23.22" transform="translate(0 -0.42)" style="fill:#009d57"/><path d="M15.21,23s-.63-3.29.62-4.38c0,0,.63.07.08,1.25a.77.77,0,0,1-.15,1.33s.78.16-.55,1.8" transform="translate(0 -0.42)" style="fill:#009d57"/><path d="M9.63,22.7A21.18,21.18,0,0,0,14,24.11s.07-.94-.55-.94c0,0-.55-1.18-1.49-.79,0,0-.78-.86-1.1,0,0,0-1.21-.37-1.19.32" transform="translate(0 -0.42)" style="fill:#009d57"/><path d="M9.61,22.85s.8.77,3.88,1.49c0,0-2,1.1-1.8.08,0,0-1.65.08-1.1-.63,0,0-1.37-.31-1-.94" transform="translate(0 -0.42)" style="fill:#009d57"/><path d="M11.71,25A3.07,3.07,0,0,0,9.93,26.9s1.4-1.6,2.42-1.74l.51-.06s-.74.51.18.18a.22.22,0,0,1,.17-.08c.12,0-1.11.47-1.15,1a.43.43,0,0,1-.49.41.89.89,0,0,1-1.12.16s-.39.54-.66.33c0,0-.41-.33.31-1.06A1.1,1.1,0,0,1,11.24,25s.37-.2.47.07" transform="translate(0 -0.42)" style="fill:#009d57"/><path d="M11.88,27.08l-.57.78s-.13.24.06.18c0,0,1.84-2.49,3.09-2.78,0,0,.42-.27.38,0,0,0,.09.53-.38.39,0,0,.34,1-.92,1.08,0,0,.42,1.05-1,1,0,0-.34.63-.73.26,0,0-.62.68-.8,0,0,0-.14-.82.41-1,0,0,.38-.28.45-.16a.15.15,0,0,1,0,.18" transform="translate(0 -0.42)" style="fill:#009d57"/><path d="M11.45,28.63a3.59,3.59,0,0,0,.31.29s.34-.08-.07.39c0,0-.38.45-.32.65l.12.07s.45-.8.76-.93c0,0-.11.27.59.31a.93.93,0,0,1-.18.57s-.19-.2-.25,0a1,1,0,0,1-1.1.51s-.54-.71.06-1.06c0,0,.3-.33.08-.37a.21.21,0,0,1-.18-.24Z" transform="translate(0 -0.42)" style="fill:#009d57"/><path d="M13,28.16s-.73,0-.63.35l.18,0s-.32.25-.06.51A1.2,1.2,0,0,0,13.74,29s.25-.37,0-.45c0,0,.94.47,1,.06a.68.68,0,0,0-.1-.49,1.15,1.15,0,0,0,.63-1s.56-.88.43-.94a22.52,22.52,0,0,0-2.58,2.68H13a1.8,1.8,0,0,1,.58-.76l-.54.08" transform="translate(0 -0.42)" style="fill:#009d57"/><path d="M13.86,30.6c.49-.08,0,1.18,0,1.18s.31.11.31.11a.58.58,0,0,1-.51.49.44.44,0,0,1-.25-.66c-.3-.08-.32-.34-.32-.57,0,0,.14-.37.26-.39s-.51-.37-.45-.51,0-.72.43-.74c0,0,.72.17.43,1.11" transform="translate(0 -0.42)" style="fill:#009d57"/><path d="M18.61,33.67s-.74.36-.17.73c0,0-.3.92.23.82,0,0,.06.35.28.29,0,0,.05-.21-.22-.33a.79.79,0,0,0-.19-.76s.33-.53.07-.75" transform="translate(0 -0.42)" style="fill:#009d57"/><path d="M20,29.35s-1.15,2-.51,2.47c0,0,0,1.31-.82.92,0,0-.23.93-.82.91,0,0-.08.61-.43.55,0,0,0-2,2.35-5,0,0,.23-.21.23.12" transform="translate(0 -0.42)" style="fill:#009d57"/><path d="M18.71,29.11s.65-.58.65.3A3.94,3.94,0,0,0,18.3,31s-.84-.56-.39-1a.64.64,0,0,1,.66-.11.89.89,0,0,1,0-.55c.12-.27.12-.24.12-.24" transform="translate(0 -0.42)" style="fill:#009d57"/><path d="M16.3,29.88a14.73,14.73,0,0,0-.25,4.68L16,34.5a2.43,2.43,0,0,1-.23-.92s.15-1.94-.65-1.28a.38.38,0,0,1,.31.49,1.71,1.71,0,0,1-.31.81s-.31.47.39.47c0,0,.16,1,.67,1a.65.65,0,0,0,.35-.56s.94-.34.35-1.61c0,0,.88,0,.51-.47,0,0-.84-1.27-.7-1.84,0,0,.23-.21-.34-.72" transform="translate(0 -0.42)" style="fill:#009d57"/><path d="M20.53,27.78s-4.3-2.11-3-.7c0,0-.16.55.7.39,0,0-.78.78,2.27.31" transform="translate(0 -0.42)" style="fill:#009d57"/><path d="M16.7,26.61a3.9,3.9,0,0,0-.4,3.05s.55-.15.32-.62c0,0,1.17,0,.15-1a.57.57,0,0,0,.08-.86Z" transform="translate(0 -0.42)" style="fill:#009d57"/><path d="M15.91,27.71A5,5,0,0,0,16,29.82s-.7.47-.55-.31c0,0-.86.07-.07-.94Z" transform="translate(0 -0.42)" style="fill:#009d57"/><path d="M14.66,29a1.37,1.37,0,0,0-.23,1.88s.86-.4.46-.87c0,0,.32-.15-.23-1" transform="translate(0 -0.42)" style="fill:#009d57"/><path d="M14.27,32.64s-.71.23-.08.7c0,0,.08.78.63.39a2.87,2.87,0,0,1,.23-2.34h-.39s-.39,1.17-.08,1.72Z" transform="translate(0 -0.42)" style="fill:#009d57"/><path d="M17.05,24.93a15.52,15.52,0,0,1,3.34,1.36,9.79,9.79,0,0,1,1.71,1.56,7.24,7.24,0,0,1,.58,1M17.05,25.4a12.73,12.73,0,0,1,2.79,1.06,7,7,0,0,1,2.22,2.15" transform="translate(0 -0.42)" style="fill:none;stroke:#ffd520;stroke-width:0.15583461134476px"/><path d="M15.36,23.56s.4,1.33,1-.24c0,0,1.18.32.79-1.25,0,0,.54-.63,1-.63,0,0-1.41-.31-2.82,2.12" transform="translate(0 -0.42)" style="fill:#009d57"/><path d="M20.22,24.11s-.08-3,2.27-2.51c0,0-2.59-1.17-2.74,2.35,0,0-.94-1.41-.16-1.57,0,0,.16-1.95,1-1,0,0,.78-1.33,1.49-.24,0,0,1.41-.08,1.25.78,0,0-.16.55-1.57.39,0,0,.94.71-.86.87,0,0,.55.47-.7.94" transform="translate(0 -0.42)" style="fill:#009d57"/><path d="M22.33,22.93a2.07,2.07,0,0,1,1.8,1.25c.55,1.26-.78-1.48-2.66-.62,0,0,.47.23-.47.78,0,0,1.88.47,1.57-.16,0,0,.62,1.65,1.33.71,0,0,1.72.47,1.09-.71,0,0,.94-1-1.41-1.25,0,0,.39-.63-.23-.47a1,1,0,0,1-1,.47" transform="translate(0 -0.42)" style="fill:#009d57"/><path d="M25.25,14.34a2.67,2.67,0,0,0,.21,1.33,3.73,3.73,0,0,0,.67,1,1.78,1.78,0,0,0,.35.38,3.78,3.78,0,0,1,.55.58,4.75,4.75,0,0,1,.7,1,1.45,1.45,0,0,1,.22.61m-.08-1.37c.1.28.31.49.41.75a1.79,1.79,0,0,1,.11.35,1.75,1.75,0,0,0,.19.39,2.57,2.57,0,0,1,.21.9A3.11,3.11,0,0,1,28,23a6.76,6.76,0,0,0-1.67,1.66c.08-.19,0-.39.06-.58a1.26,1.26,0,0,1,.15-.38,3.2,3.2,0,0,1,.87-.81c.33-.24.71-.47.76-.89m-10.8-1.21a3.19,3.19,0,0,0,1.49.3,12.2,12.2,0,0,1,1.52-.1m-4-1.06a.68.68,0,0,1,.31.08,4.88,4.88,0,0,0,3.41.52,1.48,1.48,0,0,1,.78.1m-.1-1.39c.78.55,1.24.79,1.49,1.57m-4.22-3.45c1,.22,1.44,1.27,2.13,1.94.44.42,1,.65,1.42,1.08.12.12,0-.06.12.12" transform="translate(0 -0.42)" style="fill:none;stroke:#ffd520;stroke-width:0.15583461134476px"/><path d="M23.84,19.78a.23.23,0,0,1-.07.17s0,.13,0,.18a1.79,1.79,0,0,0-.13.32,1.72,1.72,0,0,0,.17,1.42c.17.28.53.39.75.65m2.28-4a5.84,5.84,0,0,0-1.12.42.85.85,0,0,1-.33.16,1.28,1.28,0,0,0-.57.37A2.23,2.23,0,0,0,24,21.07a1.92,1.92,0,0,0,.27,1,4.45,4.45,0,0,0,.45.68" transform="translate(0 -0.42)" style="fill:none;stroke:#ffd520;stroke-width:0.156901973875192px"/><path d="M35.54,26.16c-.29,0-.33.22-.58.37-.53.35-1.36,1.4-1.89,1.77-.85.59-1.41.25-2.33.32a2.61,2.61,0,0,0-1.75.81c-.06.05-.29.32-.24.4a1.73,1.73,0,0,0,.14.2c.09-.07.1,0,.18-.13a2.87,2.87,0,0,1,1.36-.75c.63-.2,1.41.13,2.4-.21.76-.27,1.51-1.3,2.09-1.88a1.75,1.75,0,0,1,2.3-.31m-3.48-5.6c-.28.1-.58.21-.69.48a2.61,2.61,0,0,1-.26.53c-.12.2-.24.37-.36.57s-.18.33-.28.48a4.54,4.54,0,0,1-.58.58s-.25.54-.25.53c-.21,1.06-.09,2.07-.65,3,0,.08-.26.13-.45.11.1-.09.09-.1.1-.12s0-.18.07-.26a3.71,3.71,0,0,0,.41-2" transform="translate(0 -0.42)" style="fill:none;stroke:#ffd520;stroke-width:0.15583461134476px"/><path d="M31.33,30.92s-.62.66-.35.86l.16.19s-1.22,1.1-.59,1.33c0,0-.35,1.18.27,1,0,0-.19.86.4.78a17.11,17.11,0,0,1,.11-4.14" transform="translate(0 -0.42)" style="fill:#009d57"/><path d="M31.65,30.41a43.18,43.18,0,0,0-.12,4.81s.66-.59.43-.9c0,0,1-.16.19-1.33,0,0,1-.43-.23-1.37,0,0,.7-.24-.27-1.21" transform="translate(0 -0.42)" style="fill:#009d57"/><path d="M32.27,30.48a35.77,35.77,0,0,1,3,3.72s-.23.43-.66-.15c0,0-1.25.27-.9-.75,0,0-.9.51-1-.15,0,0,.59-.51-.19-1.45,0,0,.35-.28-.24-1.22" transform="translate(0 -0.42)" style="fill:#009d57"/><path d="M31.88,29.7a11.76,11.76,0,0,1,3.52,4.23s.25-.13-.11-.75a.67.67,0,0,0-.36-1.13A1.19,1.19,0,0,0,33.6,30.6s.35-.94-1.72-.9" transform="translate(0 -0.42)" style="fill:#009d57"/><path d="M35.75,28.25a10.43,10.43,0,0,0,.63,3.33c.33.51.16,0,.16,0s-.35-2.47-.35-3.6c0,0-.16-.67-.24-.94s.7.51.74.82-.11.31-.11.31,1.17,1.45.35,1.53c0,0,.82,1.14.08,1.45,0,0,0,1.52-.51,1a1.73,1.73,0,0,1-.35-.51s0,.82-.4.59a1.85,1.85,0,0,1-.31-1.77s-1.16.31-.23-1.72c0,0-.75-.23-.24-1.09a1.19,1.19,0,0,0,.43-.47c.16-.32.35,1.05.35,1.05" transform="translate(0 -0.42)" style="fill:#009d57"/><path d="M37.05,27.55a5.18,5.18,0,0,1,1.52,3.09l.12-.16a3.68,3.68,0,0,0-1.33-3s.23-.7.74-.12a.72.72,0,0,1,.16.63.75.75,0,0,1,.66,1s.16,1.8-.39,1.88c0,0-.5,0-.43-.59,0,0-.62.47-.39-.67,0,0-.12.79-.66-2.07" transform="translate(0 -0.42)" style="fill:#009d57"/><path d="M38,27a3.47,3.47,0,0,1,2,2.19s.2.67-.19.59c0,0-.63.16-.4-1.33,0,0-.54,0-.66-.78,0,0-.08.31-.71-.67" transform="translate(0 -0.42)" style="fill:#009d57"/><path d="M39.16,27.24s.82-.08.94.62l-.12.32s.31-.16.24.31l-.08.12Z" transform="translate(0 -0.42)" style="fill:#009d57"/><path d="M41,25.36a1.9,1.9,0,0,1-.51.74c.39.59-1.33.67-1.33.67,0,.86-2-.51-2-.51a4.43,4.43,0,0,0,3.56-1l-.7.16a3.23,3.23,0,0,1-2.19.51s.27-1,1.13-.55c0,0,.82-1.53,1.33-.71,0,0,.83-.31.9.2l0,.31Z" transform="translate(0 -0.42)" style="fill:#009d57"/><path d="M37.48,25.87l-1,0a5.57,5.57,0,0,0,2.93-3.14l-.15-.07a12.23,12.23,0,0,1-1.41,1.8c-.51.43-.59-.71-.2-.82,0,0-.08-1.26.51-1.06,0,0,1.1-2,1.65-1A3.12,3.12,0,0,1,40,22.89a2.84,2.84,0,0,1-.7.9s.43.12,0,.63c0,0-.35.35-.35.55,0,0-.9-.36-1.41.9" transform="translate(0 -0.42)" style="fill:#009d57"/><path d="M38,21.21s0-.24,0,.51c0,0,.55.19-.16.78l-.63.51s.63.2-.15.86c0,0,.31.2-.71,1a4.89,4.89,0,0,0-.27.82l-.12-.47s1.57-2.78,1.53-3.72h-.24a20.88,20.88,0,0,1-.94,2.27.62.62,0,0,1-.31-1s-1.09-1,0-1.48a.38.38,0,0,1,.43.23s1-.94,1.57-.35" transform="translate(0 -0.42)" style="fill:#009d57"/><path d="M34.74,20.58s2.5-1.17,3.79-.31l0-.2A3.8,3.8,0,0,0,35.75,20s.63-1.41,1-.67c0,0,1.29-.74,1.1.08,0,0,1.33-.08.86.51,0,0,1,1.09.59,1.13,0,0-1.26.36-1-.27a2.67,2.67,0,0,1-1.68-.08s0,.86-1.84-.08" transform="translate(0 -0.42)" style="fill:#009d57"/><path d="M34,20.94a6.88,6.88,0,0,1,1,4.53s1.1-1.33.63-1.68-.12,0-.12,0,.31-1.29-.43-1.29c0,0,.31-1.56-.31-1.13,0,0-.79-.32-.79-.43" transform="translate(0 -0.42)" style="fill:#009d57"/><path d="M33.84,21s1.13,2.63.86,3.33c0,0-1.49-1.1-.43-1.14,0,0-1.92-1.09-.55-1.52,0,0-.39-1.14.12-.67" transform="translate(0 -0.42)" style="fill:#009d57"/><path d="M32.31,23.75a3.31,3.31,0,0,1,1,3s-.86-.75-.39-.9c0,0-1.37-.59-.67-1,0,0-.94-.47-.39-.9Z" transform="translate(0 -0.42)" style="fill:#009d57"/><path d="M32.82,22.81s-.39.87.23,1.14l.32.08s-.59.65.58,1.21c0,0-.58.47.32.86a5.36,5.36,0,0,0-1.33-3.56Z" transform="translate(0 -0.42)" style="fill:#009d57"/><path d="M32.74,26.84s-1,.9-1.8.71,2,1.45,1.72-.12c0,0,.86,0,.08-.59" transform="translate(0 -0.42)" style="fill:#009d57"/><path d="M30,25.63a3.13,3.13,0,0,0-4.22,1.22l0-.2S27,24.18,29.38,25c0,0-.58-1.35-.9-.58,0,0-1.53-.86-1.45.19,0,0-1.53-.11-1.14.9,0,0-1.25.59-.43,1.26,0,0-.23.78.63.35a.8.8,0,0,0,1.17-.63s.9.28,1.14-.55c0,0,0,.55,1.6-.35" transform="translate(0 -0.42)" style="fill:#009d57"/><path d="M23.09,26c.07.08.2.43.29.57a2,2,0,0,1,.4.8s.07.05.09.09a5.09,5.09,0,0,0,1,1.27,3.35,3.35,0,0,1,.2.37,5.93,5.93,0,0,1,.16.73c.07.25.34.37.5.57a2.6,2.6,0,0,1,.57,1c.15-.09.11-.31.28-.39-.12-.1-.19-.4-.25-.5-.31-.45-.72-.52-.83-1s0-.69-.23-1-.59-.5-.8-.76a1.54,1.54,0,0,1-.23-.39,5.29,5.29,0,0,0-.53-1,4.86,4.86,0,0,1-.5-.85" transform="translate(0 -0.42)" style="fill:none;stroke:#ffd520;stroke-width:0.15583461134476px"/><path d="M27.89,26.92s-1.65.82-1.37,1.29c0,0,.74-.23.82.71a2.31,2.31,0,0,0,.43-1.06s.51.51.82-.39c0,0,1.49.08,1-.74,0,0,.59-.39.59-.86a5.06,5.06,0,0,1-2.31,1.05" transform="translate(0 -0.42)" style="fill:#009d57"/><path d="M29.53,21.13S31,19,34.62,20c0,0,.51.54-.74.47,0,0,.23.58-1.18.19,0,0,.12.75-1.68,0,0,0,.7.35-1.49.47" transform="translate(0 -0.42)" style="fill:#009d57"/><path d="M30.55,20a4.3,4.3,0,0,1,3.68-.44.63.63,0,0,0-.94-.35s-.35-1.37-1.29.08c0,0-.12,0-.12,0s-.67-1-1.33.67" transform="translate(0 -0.42)" style="fill:#009d57"/><path d="M30.2,21.68a4.19,4.19,0,0,0,.08,3.56.12.12,0,0,0,.11.08s1.33-2.62.35-2.39c0,0,1.77-1.41.32-1.64Z" transform="translate(0 -0.42)" style="fill:#009d57"/><path d="M29.61,21.91a4.51,4.51,0,0,0,.08,2.51S28,23.6,29,23.17c0,0-.2-2.31.66-1.26" transform="translate(0 -0.42)" style="fill:#009d57"/><path d="M25.42,23.13s-1.56-1.49-.39-1.61c0,0-1.09-1.64.39-1.64,0,0,1-1.45,1.45-.43,0,0,.71-.94.9-.12,0,0-2.15.63-2.31,2.11a1.2,1.2,0,0,0,0,1.45Z" transform="translate(0 -0.42)" style="fill:#009d57"/><path d="M26.05,20.7a4.3,4.3,0,0,1,1.8-1.17l.16.78s-.55.35-.79,0a.48.48,0,0,0-.7.51.89.89,0,0,1-.75.47Z" transform="translate(0 -0.42)" style="fill:#009d57"/><path d="M25.7,22.81a2.5,2.5,0,0,1,2.07-1.41v-.23s-1.49.23-1.92,1c0,0,0-.78.67-.82,0,0,.23-1.1,1.13-.55,0,0,.2-.24.36-.16a2.44,2.44,0,0,1-.2,1.33s-.27,1.26-2.11.86" transform="translate(0 -0.42)" style="fill:#009d57"/><path d="M22.25,25.63s.82,0,.71,1.06a3.61,3.61,0,0,1,1,2.15s-1.25-1.17-1.29-2.15l-.19,0A2,2,0,0,0,23,28.25s-1.41-1.05-1-1.56c0,0-1.65-.2-1.33-1.14s-.08-.15-.08-.15l.78-.28s.39.55.82.51" transform="translate(0 -0.42)" style="fill:#009d57"/><path d="M19.47,21.4s-.54.16-.23.75c0,0-.94.9.47,2.42,0,0-2.11-.62-1.45-1.91,0,0,.24-.36.35-.32s-.47-1,.86-.94" transform="translate(0 -0.42)" style="fill:#009d57"/><path d="M18.22,21.72s-.23.35.08.55c0,0-1.29.66.08,2,0,0-1.06-.29-1.29-.7l.27-.12s.55-.9.24-1.29c0,0,.27-.47.62-.47" transform="translate(0 -0.42)" style="fill:#009d57"/><path d="M18.69,20.15a9.17,9.17,0,0,0,1.8,0,1.37,1.37,0,0,0-1.25-.7s.34-1.34-1-.63c0,0-.35-1.91-1.17-.78,0,0-.47.7-.12,1.14a5.79,5.79,0,0,0,1.17,1.09c.24.12.28-.08.55-.08" transform="translate(0 -0.42)" style="fill:#009d57"/><path d="M17.13,17.49a12.13,12.13,0,0,0-4,.63v-.28A9.78,9.78,0,0,1,16,17.26s0-1-.55-1.06c0,0-.43-.16-.43.55,0,0-.9-.71-1,.35,0,0-.83-.27-.71.51,0,0-1.1.42-.19,1a.91.91,0,0,0,.82-.24s.58.71,1.33-.43c0,0,.74.55,1.29.08a5.13,5.13,0,0,1,.63-.51" transform="translate(0 -0.42)" style="fill:#009d57"/><path d="M18.53,15.65s.2-2.62,1.3-3.44l.27-.08s-2.15,3.33-.39,5.48a2.3,2.3,0,0,0-.08-1.33,1.26,1.26,0,0,0,.24-1.45.87.87,0,0,0,.27-1.33l-.08-.12a1.06,1.06,0,0,0,.12-1.45s-.75-.19-.86.28a.65.65,0,0,0-.12.58s-1-.58-.74,1.18c0,0-.83.43.07,1.68" transform="translate(0 -0.42)" style="fill:#009d57"/><path d="M18.14,17.06s-.93-.25-2.62-3.36c0,0-.08.19-.08.19A8.65,8.65,0,0,0,17,16.55s-.82-.82-1-.82-.7,0-.16-.39c0,0-1.13,0-.35-.67,0,0-.55-1.09-.19-1.33,0,0,.86,0,.93.75,0,0,.59-.51.75-.12a.57.57,0,0,1-.24.82s.55,0,.32.55c0,0,.15-.74,1.05,1.72" transform="translate(0 -0.42)" style="fill:#009d57"/><path d="M14,15.53a2,2,0,0,0,1.22.47s-.12-.82-.43-.62c0,0-.43-.63-.67-.24,0,0-.86,0-.31.75,0,0-.27.54.66.27,0,0,.08,0,.08,0l-.66-.47Z" transform="translate(0 -0.42)" style="fill:#009d57"/><path d="M21.47,16.43a3.21,3.21,0,0,0-.47,2l.12-.08s.7-2.85,2.07-3c0,0,.59-.16.71-.08s-.2,2.27-.63,1c0,0-.43,2-.9.82,0,0-.51,1.8-.9,1.1,0,0-.16,1.33-.55.74,0,0-.58-.74-.08-1.21,0,0-.74-.31.63-1.18" transform="translate(0 -0.42)" style="fill:#009d57"/><path d="M23.19,12.68s-2.74,1.68-2.82,3.95c0,0,2.51-1.49,1.18-1.84,0,0,2.11-.55,1.09-1.13,0,0,2-2.08-.07-1.26,0,0-.59-.35-1,.67a.91.91,0,0,0-.82,1.17A11.5,11.5,0,0,1,23,12.56c.66-.23.23.12.23.12" transform="translate(0 -0.42)" style="fill:#009d57"/><path d="M22.53,20.27s0-3.64,3-2.78c.08,0-.16,0-.16,0l.2-.16a3,3,0,0,0-1.76-.15s1.09-1.65,1.6-.59a.43.43,0,0,1-.11.35s1.13-.19,1,.59c0,0,.79.47-.15.51,0,0,0,.63-.83-.08,0,0,0,.71-1.13.12,0,0,.67.31-1.25,1.41,0,0-.24.08-.39.78" transform="translate(0 -0.42)" style="fill:#009d57"/><path d="M21.74,12.33s-.43-.75.28-.67c0,0-.35-1,.23-.82,0,0,.32-1.22.75-.16l.07.55a2.3,2.3,0,0,1,.71.2.6.6,0,0,0-.55.58s-.35-.15-.51,0c0,0-.11-1.09,0-1.17h-.19a4.82,4.82,0,0,0-.16,1.25.58.58,0,0,0-.67.2" transform="translate(0 -0.42)" style="fill:#009d57"/><path d="M23.58,12.05s.4.08.24.63c0,0,.78-1.49,1.92-1.65l.19.12a3,3,0,0,0-1.68,3.72l.23.55s.51-.75.24-.94.82-1.25,0-1.33c0,0,1.49-.32.82-1.18,0,0,1.1-.47,1-1.21,0,0-.47-.39-.78-.16A1.25,1.25,0,0,0,25,11s-.47-.36-.86.58a.88.88,0,0,0-.59.51" transform="translate(0 -0.42)" style="fill:#009d57"/><path d="M26.13,15.69a4.82,4.82,0,0,1-.67-1.6s.43-.63.12-.83c0,0,1.06-.58.63-1.17,0,0,.93-.59,1.13.12,0,0,.59-1.33,1-.86,0,0,.59,0,.27.74,0,0,.47.59-.54,1.1,0,0,1.05.54-.87,1.56,0,0,.55.59-.66,1.84a6.19,6.19,0,0,1,1.6-4.73h-.19a4.59,4.59,0,0,0-1.8,3.83" transform="translate(0 -0.42)" style="fill:#009d57"/><path d="M29.34,19.06a12.55,12.55,0,0,0-.47-4H29a7.16,7.16,0,0,1,.51,5.24s1.61-2.62.59-2.39c0,0,1.25-2.27-.16-1.41,0,0,.51-1.84-.27-1.21,0,0-.71-1.72-1.06-1,0,0-.23.24,0,.79,0,0-.39-.08-.19.58,0,0-1.14-.15-.32,1.1a3.18,3.18,0,0,0,.39.51s-1,.39.83,1.84" transform="translate(0 -0.42)" style="fill:#009d57"/><path d="M29,12.25s.27-.59,0-.94c0,0,0-.43.27-.43,0,0,.55-1,1,.66,0,0,.51.51.12.78A1.79,1.79,0,0,1,30,13.93s.55.2.12.74a7.68,7.68,0,0,0-.59-.54s.59-2.08.12-3.1h-.16A6.38,6.38,0,0,1,29.26,14a.42.42,0,0,0-.71-.08s.4-.43,0-.7c0,0,.79-.63.4-.94" transform="translate(0 -0.42)" style="fill:#009d57"/><path d="M30.78,13.85s-.31-1.29-.11-1.33c0,0,.51-1.09,1.21-.19,0,0,.12-.47.43-.43s.63-.12.78.15.16.86-.31,1c0,0,.6.5-.74.86,0,0,1.17.71-1.18,1.76a1.62,1.62,0,0,1-.35-.62s1.61-2.43,2.23-2.7l-.19-.12a7,7,0,0,0-1.77,1.64" transform="translate(0 -0.42)" style="fill:#009d57"/><path d="M34,14.6s-.39-1.26-.94-.2c0,0-.19.2,0,.66,0,0-1.13-.46-.86.94,0,0,.79.59.9.71a10.7,10.7,0,0,0,.28-1.92h.15a8.53,8.53,0,0,1-.43,3.33s1.49-1.37.75-1.92c0,0,1-1.17.11-1.17Z" transform="translate(0 -0.42)" style="fill:#009d57"/><path d="M34.35,14.24s.19-.7.51-.66.39.43.23,1L35,15h.28l-.59.54s.12-.66-.12-.74l.28-.47-.12-.12-.35.4Z" transform="translate(0 -0.42)" style="fill:#009d57"/><path d="M33.88,18.47s-.4-1.33.31-.94c0,0-.16-2.39.78-1.41,0,0,.2-1.52.94-.94,0,0,1.21-.58.78.71,0,0,.71,1.09-.62,1.17,0,0,.78.9-.71,1.25,0,0,.51.67-.62,1.18,0,0-.32-.79-.2-1s1-2.57,2-3l-.16-.16a7.43,7.43,0,0,0-2.19,3.48Z" transform="translate(0 -0.42)" style="fill:#009d57"/><path d="M36.58,17.92s-.28-.47,0-.62,1,0,1.09-.08,1.06-.51.28.74a.93.93,0,0,0-.32.67s-.58.07-1.45.27c0,0,.9-1.29,1.45-1.33l-.15-.12s-.9.24-.94.47" transform="translate(0 -0.42)" style="fill:#009d57"/><path d="M31.57,16.32a3.44,3.44,0,0,1,.11,2.35s1.22-.71.71-1.18c0,0,.63-.74-1-1.6,0,0-.43-.16-.47.23,0,0-.15.55.2.55,0,0-.82.86,0,1.33,0,0-.51.39.15.74,0,0,.59-.5.16-2.46Z" transform="translate(0 -0.42)" style="fill:#009d57"/><path d="M21.24,30s.58,1.17.07,1.13c0,0,1.33,1.53.16,1.49,0,0,.08,1.8-.86,1.17,0,0,.19.82-.63.82A1.85,1.85,0,0,0,20.41,33a1.94,1.94,0,0,0,.47-2s.39-.15.36-1" transform="translate(0 -0.42)" style="fill:#009d57"/><path d="M20.57,29.86s.39.74-.23,1c0,0,.82,1.48-.32,1.95,0,0,.24,1.33-.27,1.53,0,0,0,.86-.63.86,0,0-.62-1.53-.08-2,0,0,1.1-.08.63-2a3.14,3.14,0,0,1,.63-1.8Z" transform="translate(0 -0.42)" style="fill:#009d57"/><path d="M5.55,27.15a1,1,0,0,0,0-.39c0-.61-.38-1.06-1.74-1s-1.67.54-1.64,1.15a1.37,1.37,0,0,0,.06.39ZM2.29,28l0,.29H2.09L2,26.82a1.7,1.7,0,0,1,1.79-1.76,1.7,1.7,0,0,1,1.94,1.6l.06,1.43H5.64l-.06-.29Z" transform="translate(0 -0.42)" style="fill:#fff"/><path d="M6.06,22.26a1.16,1.16,0,0,0-.13.48l-.24,2-.17,0v-.3l-3.28-.38-.07.29-.17,0,.23-2a1.11,1.11,0,0,0,0-.5l1.1-.12,0,.2a1.23,1.23,0,0,0-1,1.23.82.82,0,0,0,0,.27l1.42.17,0-.21c0-.37-.11-.52-.52-.65l0-.17,1.35.16,0,.17c-.43,0-.62.14-.66.51l0,.21,1.7.2a.9.9,0,0,0,.07-.27,1.36,1.36,0,0,0-.83-1.5l.07-.2Z" transform="translate(0 -0.42)" style="fill:#fff"/><path d="M4.46,20.33a1.17,1.17,0,0,0,.11-.25A.82.82,0,0,0,4,19a.75.75,0,0,0-1,.59,1.61,1.61,0,0,0,0,.37Zm-1.7.2-.12.27-.17-.05.37-1.33c.2-.71.63-1.34,1.3-1.16.85.24.81,1.1.59,1.88l-.07.24,1.45.4.12-.27.16,0-.33,1.19L5.9,21.7l0-.29Z" transform="translate(0 -0.42)" style="fill:#fff"/><path d="M6.14,17.09l-1.81-.18h0l1.37,1.2Zm.47,2.47-.16-.07a.63.63,0,0,0-.26-.66L4,16.92H3.68l.25-.67,3.71.33.17-.25L8,16.4l-.5,1.17-.16-.07.06-.29-1-.09-.51,1.16.4.35a.75.75,0,0,0,.21.12c.17.08.27-.09.39-.23l.16.07Z" transform="translate(0 -0.42)" style="fill:#fff"/><path d="M6.8,14.52l.13-.2c.38-.58.29-1-.14-1.22a.73.73,0,0,0-1.1.3l-.17.3Zm-1.61-.26-.2.22-.14-.09.73-1.14c.38-.59.93-1.17,1.64-.72a1,1,0,0,1,.26,1.18l1.88.16.19-.22.15.09-.49.76-2.07-.19-.2.31,1.37.88.2-.23.14.1L8,16.4l-.14-.09L8,16Z" transform="translate(0 -0.42)" style="fill:#fff"/><path d="M8.36,9.67a1.08,1.08,0,0,0,.26-.43l1,.57L9.54,10c-.51-.17-1-.26-1.39.19l2.5,2.21.23-.19.13.11-.82.93-.13-.11.16-.25-2.5-2.22a1.17,1.17,0,0,0,0,1.41l-.14.1-.69-.92a1.24,1.24,0,0,0,.39-.32Z" transform="translate(0 -0.42)" style="fill:#fff"/><path d="M11.54,11.63l-.11-.14c.14-.22.23-.36,0-.66L9.75,8.56l-.26.15-.11-.13.76-.6L12,9.09,11.37,7l.75-.59.11.13-.2.22,2.14,2.51.26-.15.1.13-1,.78-.11-.13.2-.22L11.74,7.41h0l.77,2.53L12.4,10,10.15,8.69h0l1.51,2a.41.41,0,0,0,.64.11l.11.13Z" transform="translate(0 -0.42)" style="fill:#fff"/><path d="M17.05,8a1.26,1.26,0,0,0-.48.17l-1.8,1L14.69,9l.23-.17L13.36,5.9l-.27.1L13,5.85l1.77-.95a1.17,1.17,0,0,0,.4-.3l.72.83-.15.13a1.23,1.23,0,0,0-1.59-.13.69.69,0,0,0-.22.16l.67,1.26.19-.1c.32-.17.36-.39.23-.8l.15-.08.65,1.2-.15.08c-.28-.34-.48-.42-.8-.25l-.19.1.81,1.5a.8.8,0,0,0,.26-.09,1.37,1.37,0,0,0,.76-1.54l.19,0Z" transform="translate(0 -0.42)" style="fill:#fff"/><path d="M19.6,5.84h0l-.67-2c-.09-.29-.24-.3-.51-.24l-.05-.17,1-.33.06.16a.43.43,0,0,0-.24.56l1,3L20,6.93,17.09,4.69h0l.75,2.22a.45.45,0,0,0,.57.29l.06.16-1.08.36-.06-.16a.48.48,0,0,0,.27-.63L16.84,4.7a.5.5,0,0,0-.6-.35l0-.16.93-.31Z" transform="translate(0 -0.42)" style="fill:#fff"/><path d="M22.22,2.62a1.47,1.47,0,0,0,.48-.16l.41,1.07L23,3.6c-.28-.45-.6-.83-1.2-.73l.55,3.29h.29l0,.17-1.22.2,0-.17.28-.09L21.11,3c-.59.1-.77.56-.9,1.08H20l0-1.15a1.37,1.37,0,0,0,.5,0Z" transform="translate(0 -0.42)" style="fill:#fff"/><path d="M27.28,4.39c.07-1.31-.24-1.75-.77-1.78s-.9.46-1,1.68.23,1.74.77,1.77.89-.46,1-1.67m-2.44-.14c.05-.89.77-1.9,1.68-1.85a1.72,1.72,0,0,1,1.46,2c-.05.89-.77,1.91-1.68,1.86s-1.51-1-1.46-2" transform="translate(0 -0.42)" style="fill:#fff"/><path d="M28,6.33l0-.17.3,0L29,3l-.28-.1,0-.17,1.89.4a1.3,1.3,0,0,0,.51,0l0,1.17H31c-.2-.64-.37-1-1.08-1.18a.86.86,0,0,0-.28,0l-.3,1.45.3.06c.35.08.51-.15.62-.44l.17,0L30.16,5.5l-.17,0c0-.37,0-.64-.37-.71l-.31-.06L29,6.31l.28.1,0,.17Z" transform="translate(0 -0.42)" style="fill:#fff"/><path d="M34.07,8.35a1.26,1.26,0,0,0-.42-.28l-1.88-.82.07-.16.29.08,1.33-3L33.21,4l.07-.15,1.84.81a1.23,1.23,0,0,0,.48.13l-.21,1.08-.2,0a1.24,1.24,0,0,0-.87-1.34,1.19,1.19,0,0,0-.27-.07l-.57,1.31.19.08c.34.15.53,0,.78-.31l.15.07-.55,1.25-.15-.07c.09-.42,0-.63-.3-.78l-.19-.09-.69,1.56a.83.83,0,0,0,.23.15,1.36,1.36,0,0,0,1.68-.35l.17.12Z" transform="translate(0 -0.42)" style="fill:#fff"/><path d="M35.4,8.78a1.1,1.1,0,0,0,.31.25c.51.34,1.08.31,1.82-.83s.54-1.67,0-2A1.3,1.3,0,0,0,37.2,6Zm1.26-3.12-.22-.19.09-.14,1.2.78a1.69,1.69,0,0,1,.39,2.47,1.7,1.7,0,0,1-2.42.65l-1.2-.78.09-.14.27.12Z" transform="translate(0 -0.42)" style="fill:#fff"/><path d="M40.62,8.29l-.12.13-.24-.17-1.69,1.84a.86.86,0,0,0,0,1.2.83.83,0,0,0,1.25,0l1.4-1.53a.45.45,0,0,0,0-.64L41.35,9l.84.77-.12.12a.45.45,0,0,0-.64,0l-1.3,1.43a1.12,1.12,0,0,1-1.78.06c-.59-.54-.82-1.11-.26-1.71l1.69-1.85-.19-.23.12-.12Z" transform="translate(0 -0.42)" style="fill:#fff"/><path d="M42.14,14a1.5,1.5,0,0,1-1.71-.38,1.62,1.62,0,0,1,.5-2.33c.72-.58,1.92-.87,2.54-.09a1.32,1.32,0,0,1,.2.34,1.3,1.3,0,0,0,.15.27,1,1,0,0,0,.33.23l-.74.93-.17-.13c.21-.47.41-1.07.1-1.47s-1.17-.24-1.66.15c-.65.52-1.25,1.39-.74,2a1,1,0,0,0,1.14.26Z" transform="translate(0 -0.42)" style="fill:#fff"/><path d="M43.51,15.57l1.22-1.35h0L43,14.59Zm-2.26-1.11.15-.09a.64.64,0,0,0,.68.19L44.91,14l.2-.28.39.61L43,17.07l.09.28-.15.09-.63-1.11.15-.08.2.22.66-.74-.63-1.1-.51.12a.72.72,0,0,0-.22.08c-.17.09-.1.28-.06.45l-.15.09Z" transform="translate(0 -0.42)" style="fill:#fff"/><path d="M47.18,18.12a1.24,1.24,0,0,0,.25.43l-1,.62-.1-.14c.39-.37.7-.76.48-1.32L43.72,18.9l.06.29-.15.06-.45-1.15.16-.06.15.26,3.12-1.2c-.22-.56-.71-.65-1.24-.66l0-.18,1.13-.18a1.22,1.22,0,0,0,.11.49Z" transform="translate(0 -0.42)" style="fill:#fff"/><polygon points="43.94 19.84 44.11 19.8 44.22 20.07 47.42 19.26 47.39 18.96 47.56 18.92 47.86 20.12 47.69 20.16 47.58 19.89 44.38 20.7 44.41 20.99 44.25 21.03 43.94 19.84" style="fill:#fff"/><path d="M46.5,23.89c1.3-.16,1.68-.55,1.61-1.08s-.61-.8-1.82-.65-1.68.55-1.61,1.08.61.79,1.82.65m-.3-2.42a1.87,1.87,0,0,1,2.12,1.32c.12,1-.71,1.67-1.74,1.79a1.88,1.88,0,0,1-2.12-1.32c-.12-1,.71-1.67,1.74-1.79" transform="translate(0 -0.42)" style="fill:#fff"/><path d="M45.69,27.61h0l2.09.09c.3,0,.37-.13.41-.39h.18l0,1.06h-.17a.43.43,0,0,0-.44-.43l-3.18-.14,0-.25,3.13-1.87h0l-2.34-.11a.46.46,0,0,0-.48.44h-.17l.05-1.14h.18a.47.47,0,0,0,.49.47l2.35.11A.5.5,0,0,0,48.3,25h.17l0,1Z" transform="translate(0 -0.42)" style="fill:#fff"/><path d="M8,35.89l-.1.06-.13-.15-1.44.88a.58.58,0,0,0-.2.79.56.56,0,0,0,.82.21L8.1,37a.31.31,0,0,0,.1-.42l.1-.06.4.65-.1.06a.31.31,0,0,0-.42-.1l-1.12.68a.75.75,0,0,1-1.16-.29c-.28-.46-.32-.87.15-1.16l1.44-.88-.08-.19.1-.06Z" transform="translate(0 -0.42)" style="fill:#fff"/><path d="M8.38,39.63h0l1.11-.87c.16-.13.13-.23,0-.39l.09-.07.44.56L10,39a.28.28,0,0,0-.41,0l-1.7,1.32-.1-.13.79-2.34h0l-1.25,1a.3.3,0,0,0,0,.43l-.09.07-.47-.61.09-.07a.33.33,0,0,0,.46,0l1.25-1a.33.33,0,0,0,.09-.46l.09-.07.41.52Z" transform="translate(0 -0.42)" style="fill:#fff"/><polygon points="8.33 40.25 8.42 40.17 8.57 40.3 10.21 38.78 10.1 38.62 10.18 38.54 10.75 39.15 10.66 39.23 10.51 39.1 8.87 40.62 8.98 40.78 8.9 40.86 8.33 40.25" style="fill:#fff"/><path d="M12,40.75a.76.76,0,0,0,.28.19l-.4.67-.11-.06c.13-.34.2-.67-.1-.95l-1.54,1.66.13.16-.08.08-.61-.57.08-.08.16.11,1.54-1.65a.78.78,0,0,0-.95,0l-.07-.1.64-.45a.73.73,0,0,0,.21.27Z" transform="translate(0 -0.42)" style="fill:#fff"/><path d="M12.19,44.19A1,1,0,0,0,12,44l-1.11-.84.07-.09.18.1,1.34-1.78-.14-.14.07-.09,1.08.81a.8.8,0,0,0,.3.16l-.3.68-.13,0a.83.83,0,0,0-.36-1,.56.56,0,0,0-.17-.09l-.58.77.12.09c.19.15.33.11.55-.08l.1.07-.56.73-.09-.07c.13-.26.12-.41-.07-.56l-.12-.09-.69.92a.44.44,0,0,0,.13.14.93.93,0,0,0,1.16,0l.09.1Z" transform="translate(0 -0.42)" style="fill:#fff"/><path d="M13.31,44.69a1.11,1.11,0,0,0,.21.16c.36.21.74.18,1.21-.61s.33-1.14,0-1.35a.92.92,0,0,0-.24-.11Zm.77-2.14-.15-.13.06-.1.83.5a1.16,1.16,0,0,1,.32,1.67,1.14,1.14,0,0,1-1.62.49l-.83-.5.06-.1.19.08Z" transform="translate(0 -0.42)" style="fill:#fff"/><path d="M17.84,45.08l-.13,0c0-.3-.06-.72-.39-.85a.37.37,0,0,0-.53.18c-.28.65,1.1.86.71,1.77a.76.76,0,0,1-1,.39c-.24-.11-.38-.29-.5-.34a.56.56,0,0,0-.23,0l.17-.76.13,0a1,1,0,0,0,.51,1,.45.45,0,0,0,.59-.22c.26-.63-1.07-.87-.68-1.79a.67.67,0,0,1,.89-.34.75.75,0,0,1,.22.13.5.5,0,0,0,.17.11.51.51,0,0,0,.25,0Z" transform="translate(0 -0.42)" style="fill:#fff"/><path d="M19.78,45a.65.65,0,0,0,.34.05l-.08.78h-.12c0-.36-.11-.69-.5-.81l-.67,2.16.18.09,0,.11-.8-.25,0-.11.2,0L19,44.86c-.39-.12-.64.11-.87.38l-.1-.06.38-.68a.75.75,0,0,0,.3.15Z" transform="translate(0 -0.42)" style="fill:#fff"/><path d="M21,46.88l-.13-1.23h0l-.61,1.07Zm-1.58.64,0-.12a.43.43,0,0,0,.4-.26l1-1.69,0-.23.48.08.28,2.5.19.08,0,.11-.85-.17,0-.12h.2L21,47l-.84-.17-.18.31a.44.44,0,0,0-.05.15c0,.12.09.17.2.23l0,.11Z" transform="translate(0 -0.42)" style="fill:#fff"/><path d="M23.52,45.66a.87.87,0,0,0,.34,0l.07.77-.12,0c-.1-.35-.24-.65-.64-.7L22.92,48l.19.05v.11l-.83-.09v-.11h.2l.25-2.25c-.4,0-.61.22-.78.54l-.11,0,.24-.74a.72.72,0,0,0,.32.09Z" transform="translate(0 -0.42)" style="fill:#fff"/><path d="M25.8,48.29a.94.94,0,0,0-.34,0H24.08v-.12l.2,0V45.85l-.19,0v-.11h1.36a.87.87,0,0,0,.33,0l.16.73-.13,0a.83.83,0,0,0-.9-.6.63.63,0,0,0-.19,0v1h.14c.25,0,.34-.11.4-.4h.11v.92h-.12c-.05-.28-.14-.4-.39-.4h-.15v1.15l.18,0a.93.93,0,0,0,1-.67l.13,0Z" transform="translate(0 -0.42)" style="fill:#fff"/><path d="M27.79,46.26l-.12.05c-.16-.26-.39-.61-.74-.58s-.41.19-.39.41c.06.71,1.37.25,1.46,1.24a.74.74,0,0,1-.72.81,3.37,3.37,0,0,1-.6-.06,1,1,0,0,0-.22.08l-.2-.75.13,0a1,1,0,0,0,.9.62.44.44,0,0,0,.41-.47c-.06-.68-1.35-.27-1.43-1.27a.67.67,0,0,1,.63-.72.65.65,0,0,1,.25,0l.2,0a.46.46,0,0,0,.24-.1Z" transform="translate(0 -0.42)" style="fill:#fff"/><path d="M30.64,46.28c-.2-.86-.49-1.08-.84-1s-.49.47-.3,1.27.49,1.09.84,1,.49-.47.3-1.28m-1.6.38a1.26,1.26,0,0,1,.73-1.52c.66-.15,1.17.35,1.33,1a1.27,1.27,0,0,1-.73,1.52c-.66.15-1.17-.36-1.33-1" transform="translate(0 -0.42)" style="fill:#fff"/><path d="M31.76,47.28l0-.1.17-.1L31.18,45,31,45l0-.11,1.24-.42a1,1,0,0,0,.3-.16l.43.66-.12.08c-.33-.31-.57-.48-1-.31a.53.53,0,0,0-.17.08l.33,1,.2-.07c.22-.08.24-.26.2-.47l.11,0,.3.86-.11,0c-.11-.22-.24-.36-.46-.28l-.21.07.37,1,.19,0,0,.11Z" transform="translate(0 -0.42)" style="fill:#fff"/><path d="M35.17,44.86,34.3,44h0l.19,1.21Zm-.83,1.48-.05-.1a.43.43,0,0,0,.15-.45l-.3-1.93L34,43.71l.42-.24,1.79,1.77.19-.05,0,.1-.76.39-.06-.1.16-.13L35.28,45l-.77.38.06.36a.38.38,0,0,0,0,.15c.06.11.18.07.3.05L35,46Z" transform="translate(0 -0.42)" style="fill:#fff"/><path d="M36.56,45.22l-.06-.1a.31.31,0,0,0,0-.44l-1-1.63-.18.09-.06-.1.55-.36,1.2.86-.32-1.45.54-.36.07.1-.15.13,1.29,1.82.18-.09.07.1-.7.47-.07-.1L38.1,44,37,42.39h0l.37,1.74-.07,0-1.44-1h0l.9,1.43a.28.28,0,0,0,.43.11l.06.1Z" transform="translate(0 -0.42)" style="fill:#fff"/><path d="M40.41,42.44a.76.76,0,0,0-.29.17l-1,.9L39,43.42l.13-.15-1.44-1.7-.17.1-.07-.08,1-.88a.91.91,0,0,0,.22-.26l.59.45-.08.11a.83.83,0,0,0-1.07.13.53.53,0,0,0-.12.14l.62.74.11-.09c.19-.16.18-.31,0-.57l.09-.07.59.7-.08.08c-.23-.19-.38-.21-.57,0l-.11.09.75.88.16-.1a.91.91,0,0,0,.28-1.12L40,41.7Z" transform="translate(0 -0.42)" style="fill:#fff"/><path d="M40.29,40.58l.11-.11c.33-.34.32-.59.07-.83a.49.49,0,0,0-.77,0,1.57,1.57,0,0,0-.15.19Zm-1-.38-.15.12L39,40.25l.64-.67c.32-.34.76-.66,1.17-.26a.63.63,0,0,1,0,.81l1.22.35.16-.12.08.08-.42.44-1.35-.39-.17.17.8.76.16-.12.08.08-.58.61-.08-.08.12-.17Z" transform="translate(0 -0.42)" style="fill:#fff"/><polygon points="42.45 39.81 42.36 39.74 42.47 39.57 40.74 38.16 40.59 38.29 40.5 38.22 41.03 37.58 41.12 37.65 41.02 37.82 42.74 39.23 42.89 39.09 42.98 39.17 42.45 39.81" style="fill:#fff"/><path d="M43.77,37.32a1,1,0,0,1,.08,1.17,1.1,1.1,0,0,1-1.61.13c-.51-.36-.93-1.07-.54-1.63a.66.66,0,0,1,.18-.19l.15-.15a.89.89,0,0,0,.08-.26l.74.3-.05.13c-.34,0-.77-.06-1,.22s.06.81.41,1.05,1.15.54,1.46.09a.69.69,0,0,0-.05-.79Z" transform="translate(0 -0.42)" style="fill:#fff"/><path d="M44.26,35.91l-1.21-.24h0l.84.89Zm.15,1.69-.1-.06a.44.44,0,0,0-.13-.46l-1.34-1.42-.23,0,.22-.43,2.47.46.13-.15.1.06-.41.75-.1-.06,0-.19-.66-.13-.41.75.25.26a.38.38,0,0,0,.12.1c.11.06.19,0,.28-.13l.1.06Z" transform="translate(0 -0.42)" style="fill:#fff"/><circle cx="25.2" cy="25.1" r="18.29" style="fill:none;stroke:#ffd520;stroke-width:0.626540548875243px"/></g></g></g></svg>