<svg id="Layer_1" data-name="Layer 1" xmlns="http://www.w3.org/2000/svg" viewBox="0 0 597.01 113.14"><path d="M55.74,112.42A55.74,55.74,0,1,0,0,56.68a55.75,55.75,0,0,0,55.74,55.74" style="fill:#00539f"/><path d="M55.8,96.44A39.83,39.83,0,1,0,16,56.61,39.83,39.83,0,0,0,55.8,96.44" style="fill:#aab5da"/><polyline points="51.45 67.17 52.83 75.03 53.76 74.91 52.6 67.75" style="fill:#ffd520"/><polygon points="68.55 81.27 95.59 62.66 94.9 65.32 68.78 81.96 68.55 81.27" style="fill:#ffd520"/><polygon points="66.58 79.02 67.97 77.34 68.55 78.03 66.93 79.42 66.58 79.02" style="fill:#ffd520"/><polygon points="64.16 76.99 66.93 73.41 66.99 74.42 64.73 77.34 64.16 76.99" style="fill:#ffd520"/><polyline points="90.88 53.82 95.48 49.14 95.82 51.45 91.89 55.18" style="fill:#ffd520"/><polyline points="87.16 44.52 91.66 38.28 90.39 35.85 86 42.78" style="fill:#ffd520"/><polyline points="50.12 75.72 48.7 72.86 49.28 71.97 50.64 75.61 50.12 75.75" style="fill:#ffd520"/><polygon points="47.23 75.61 47.86 76.85 47.31 77.17 46.62 76.27 47.23 75.61" style="fill:#ffd520"/><polygon points="44.4 77.22 45.35 78.64 44.86 78.96 43.35 77.57 44.4 77.22" style="fill:#ffd520"/><polygon points="37.46 76.76 43.21 80.78 42.75 81.5 36.88 77.45 37.46 76.76" style="fill:#ffd520"/><polygon points="29.49 71.33 16.08 62.08 16.43 64.4 30.06 73.41 29.49 71.33" style="fill:#ffd520"/><polygon points="16.43 48.91 23.13 55.5 22.2 57 15.85 51.22 16.43 48.91" style="fill:#ffd520"/><polygon points="19.78 38.16 23.82 43.36 25.1 41.74 21.4 35.73 19.78 38.16" style="fill:#ffd520"/><polyline points="78.75 32.98 80.91 32.61 83.46 26.95 81.49 25.33 78.37 32.5" style="fill:#ffd520"/><polygon points="71.21 19.21 68.78 18.4 67.63 25.68 69.71 25.91 71.21 19.21" style="fill:#ffd520"/><polygon points="28.45 27.07 31.83 33.13 33.85 32.59 31.22 24.76 28.45 27.07" style="fill:#ffd520"/><polygon points="43.24 26.6 41.62 18.98 44.63 17.94 45.32 26.03 43.24 26.6" style="fill:#ffd520"/><polygon points="57.11 16.09 56.99 22.91 54.91 23.48 54.91 16.2 57.11 16.09" style="fill:#ffd520"/><polyline points="64.04 69.25 64.5 70.87 66.97 66.39 66.2 66.39 64.42 69.79" style="fill:#ffd520"/><path d="M56.19,94.39c7.37,0,14.64-.65,14.64-5.78s-7.29-14.89-14.9-14c-7.31.88-15.28,9.75-15.28,14.88s8.18,4.87,15.54,4.87" style="fill:#ffd520"/><path d="M26.08,40.63c0-.26,0-.52-.08-.77-.08-.57,1-1.12,1.76-.79.33.13.51-.68,1.07-.9s-.21-1.19.52-1.5c.28-.13.79.15.85-.27,0-.13-.35-.3-.35-.45,0-.79-.4-1.37-.43-2.08s.84-.69,1.53-.73a.31.31,0,0,0,.23-.43c.54,0,1.35-.33,1.65.21.21-.57.59-.17.48-.66-.19-.79-.12-.38-.22-.51-.68-.92,0-3,1.08-2.84s1.93.37,2.1,1.55c.5-.88,1.49-.21,2,.24s.44,1.08.44,1.78.28-.25.54-.23c0-.8,0-1.33.67-1.58s.13-1.22.29-1.68a2.28,2.28,0,0,1,1.31-1.56c.63-.32,1.1.18.11-.11,1.1.32.39-.11.85-.86s1.58-.63,2.55-.68c-.06.22.15.12.33.18s.39,1.15.54,1.15c-.07,1.76-.5,1.32.78,1.23.33,0,.74-.31.62-.44a1.71,1.71,0,0,1-.38-1.65c.11-.57.56-.66,1.09-.8s-.31-.88.06-1.26c.57-.58.83-1.31,1.4-1.83.26-.24.72-.49,1.08-.24.89.62,1.07,1.76,1.76,2.37.85.75,1.25-.89,2.21-1.23.45-.15.87-.33,1.14.09.86-.94,2.06-.62,3.21-.41s.19,1.48.39,2.35c.14.64.89-.36,1.29.46.6-.37.79-1,1.38-1.31.4-.2.88.38,1.08.3.85-.36,1-1.82,1.94-2,1.45-.38,2.24,1.3,2.5,2.63.12-.17.32-.36.42-.2.67,1,1.13.62,2.12.73.25,0,.47.39.7.62.63-1.29,2.51-.78,3.06-.07.83,1.09.48,2.54-.46,2.62.29.32.17.53.4.92.12-.16.23-.28.47-.24.62.11.84.75,1.38.93.17-1.32,2-1.85,2.55-1,.41.61,1,2,0,2.9,0,0,.21.29.4.16s.38-.31.42-.19c.1.34.56-.09.7.16a1.51,1.51,0,0,1,2.25-.06c.66.63,1.33,2.25.11,2.89.16.15.39.29.42.47.13.72-.46,1.45.51,1.55.14,0,.29-.34.47-.36.95-.12,2,.11,2.24,1.12.16.73-.66,1.08-.4,1.84a1.62,1.62,0,0,0-1.16.46l.07.06Z"/><path d="M84.18,40.63c.45.38,1,1,.4,1.56,1,.43,2.72.25,2.26,1.75-.1.31.59.69.6,1.05,0,1.37,1.08,1,1.73,1.85.34.46.09.94,0,1.4-.29,1,.89,2.5-.16,3.43.9.47.08,1.89.69,1.89a3.21,3.21,0,0,1,2,.75c.44.5,0,1.69-.28,2.06-.73.83-.12,1.63-.84,2.39a2.31,2.31,0,0,1-.47.38H21a4.32,4.32,0,0,1,1-1.85c.38-.38-.4-1.46,1.53-2,.44-.13.53-.32.38-.59-.3-.53-1.28-.51-1.28-1.49,0,.38.11,0,.19-.1s-.72-.27-1.12-.52c-1.31-.82-1.43-1.63-1.08-2.49a2.07,2.07,0,0,1,1.54-1.22c.63-.13.88.18,1.38.27.23,0,.18-.32.31-.67.23-.62,1.05.21,1.53-.26a6.54,6.54,0,0,1-1.32-1.42c-.32-.61-.09-.83.46-1.24a1.74,1.74,0,0,1-.68-2.15c.35-.56.53-1.27.94-1.52s1.12-.17,1.25-.85a2.38,2.38,0,0,0,0-.39Z"/><path d="M90,59.14c-.63.4-1,.32-1.42,1.14,1.28.55,1.41,2.8.79,3.72-.51.76.1.13,0,1.5a1.2,1.2,0,0,1-2.14.78c-.36,1-.57,2.49-1.76,2.86A1.82,1.82,0,0,1,83.65,69c-.29.42-1.13.64-1,.85.51,1,0,1.59-.65,2.09-.43.36-1.19-.34-1.47-.07-.76.74-1.61.73-1.31,1.93a2.21,2.21,0,0,1,0,1.64c-.26.46,0,1.34-.44,1.15s-1.45.32-1.81,0-.71-.17-.93-.56c-.51.2-.3-.11-.24.12a4.14,4.14,0,0,1-1.45-.32.92.92,0,0,1-.67-1.07.27.27,0,0,0-.41-.21c-.19.1-.43.3-.41.43.14,1.15-.89,1.38-1.23,2a2.85,2.85,0,0,1-2.3,1.67c-.95,0-.95-.81-1.44-1.52-.08-.12-.55-.69-.57-.75-.63-2-1.06-3.12.11-4.69.16,0,.78-.74.52-1.07-.66-.85.44-1.8,1.1-2.59a.78.78,0,0,0,0-.82c-1.54-1.41-4.13-1-4.66.9-.47,1.72.85,3.83.26,5.49-1,2.65-2.93,4.6-4,7.22a2,2,0,0,0,1.13,2.46c.7.38,1.7.22,2.19.82,1.36,1.69,3.45,1.77,4.85,3.25.35.37.55,1.05,1,1.22,2.42.86,4.7,2.48,7.37,2.16-.65,1.2-2,1.51-3.05,2a47.9,47.9,0,0,1-7.8,3,41.36,41.36,0,0,1-18.48.52,42.38,42.38,0,0,1-12.74-5c.08-.08.16-.21.23-.2a7.93,7.93,0,0,0,2.51-.17c2.3-.69,4.49-1.85,6.62-2.7,1.68-.67,2.4-3.06,3.2-5a4.39,4.39,0,0,1,1.41-1.58,21.3,21.3,0,0,0,5.27-7.32,4.73,4.73,0,0,0,.12-4c-1.25-2.56-4-3.61-6.64-4.42-.22,1.29.59,2.4.55,3.71,0,.26.72.29.78.7.15,1,.27,2.32-.87,2.76a.68.68,0,0,1,.18.9,6.27,6.27,0,0,1-4.26,3.59c-.56.14-1.24,1.68-2.39,1.66a2.09,2.09,0,0,1-1.51-1.26c-.23-.83.43-1.55-.57-1.53-.73,0-1.71-.2-2.28.59,0,0,.12.13.2.21-.68.3-.9,1.27-1.63,1.31s-1.37-.57-2-1c-.28-.17.23-1-.32-1.23a8.58,8.58,0,0,0-2-.64c-.49-.08-1.26-.5-1.3-1-.07-.94-.56-1.33-1-2.1-.16-.31.08-.87-.12-1.06a2.61,2.61,0,0,1-.82-2.6c0-.19.27-.32.42-.47-.44-.42-.47-.9-1-1.26-.73,1.12-2.81,1.39-3.42.43s-1-2.47.7-2.87c-.72-.41-.31-1-.8-1.59-1.3-1.64,0-2-.66-3-.12-.18-.72.3-.85.4a1.44,1.44,0,0,1-1.57,0A1.53,1.53,0,0,1,21,59.14Z"/><polygon points="101.56 69.42 103.6 69.42 103.6 69.44 101.96 70.65 102.59 72.59 102.58 72.6 100.96 71.4 99.34 72.6 99.33 72.59 99.97 70.65 98.31 69.44 98.31 69.42 100.34 69.42 100.95 67.52 100.97 67.52 101.56 69.42" style="fill:#fff"/><polygon points="11.23 69.42 13.27 69.42 13.27 69.44 11.63 70.65 12.26 72.59 12.25 72.6 10.63 71.4 9.01 72.6 8.99 72.59 9.64 70.65 7.98 69.44 7.98 69.42 10.01 69.42 10.62 67.52 10.64 67.52 11.23 69.42" style="fill:#fff"/><path d="M55.72,111A54.37,54.37,0,1,0,1.35,56.61,54.37,54.37,0,0,0,55.72,111Z" style="fill:none;stroke:#ffd520;stroke-width:1.8871244215711187px"/><polygon points="70.02 84.04 92.24 73.53 91.43 75.49 70.17 84.5 70.02 84.04" style="fill:#ffd520"/><polygon points="70.75 86.58 85.88 83.35 84.5 84.85 70.86 87.16 70.75 86.58" style="fill:#ffd520"/><polygon points="20.01 74.8 21.05 76.53 41.45 84.22 41.71 83.38 20.01 74.8" style="fill:#ffd520"/><polygon points="25.76 83.55 40.78 86.61 40.58 87.39 26.83 84.85 25.76 83.55" style="fill:#ffd520"/><path d="M47.4,56c.08.08.15.2.23.2s.16-.12.23-.2Z" style="fill:#fff"/><path d="M35.84,52.49c-.07.08-.2.16-.2.23s.13.16.2.23Z" style="fill:#fff"/><path d="M71,58.9a1.55,1.55,0,0,0,.92-.56c.07-.15-.38-.78-1.14-1.34-.58.48-1.64,2.94-1,2.77.87-.25.87-.79,1.27-.87" style="fill:#009d57"/><path d="M27.06,40c.22-.06.32.1.48.21s.31,0,.22-.1c-.36-.24-.61-.39-1-.15-1.33.78,4.38,3.61,3.55,2.93.09-.36-.7-.71-.94-.86-1.47-.85-1.75-1.71-2.3-2" style="fill:#009d57"/><path d="M40.28,89.83s-.64-12.89,13.93-15.15" style="fill:#ffd520"/><path d="M63.18,76.47a15.9,15.9,0,0,1,8,12.66" style="fill:#ffd520"/><path d="M48,64.94a4.08,4.08,0,0,1,3.08.38c3.2,1.15,4.73,2.33,5.74,5.78a6.88,6.88,0,0,1-.6,3.91,14,14,0,0,1-2.06,3.37c-1.21,1.48-2.5,2.72-3.71,4.05a13.91,13.91,0,0,0-2,3.14c-.35.74-1.12,1.35-1.47,2.09M43.84,63.9a1.81,1.81,0,0,1,1.21-.15c1.31.29,2.37,1,3.61,1.34a13.87,13.87,0,0,1,5,2.55,5.64,5.64,0,0,1,1.81,6.62,18.3,18.3,0,0,1-4.34,6.27c-.65.59-1.64,1.6-2.19,2.22a14.18,14.18,0,0,0-1.45,2.77,2.64,2.64,0,0,0-.26.59,4.62,4.62,0,0,1-3.54,3.28" style="fill:none;stroke:#ffd520;stroke-width:0.3452633697659603px"/><path d="M47.31,87.83c.52-.69.78-.69,1.21-.43,0,0,.78-1.65,1.91-.26,0,0,1.47-1.48,2.08.43,0,0,1.47-1.3,2.17,1.73,0,0-3.9-3.38-6.94-1.21Z" style="fill:#ffd520"/><path d="M48.33,88.37s1.9-1.66,6.65,1.48c0,0-.73.67-1.08-.11,0,0-1.56,1.08-1.87-.31,0,0-1.64.74-2.16-.69,0,0-.5,1.19-1.54-.37" style="fill:#ffd520"/><path d="M54,82.41c.36-1.29.65-1.6,1.77-1.65,1.48-.05,1.61,1.91,1.61,1.91,0,.52-3.59.46-3.38-.26" style="fill:#ffd520"/><path d="M53.85,83a1.6,1.6,0,0,0-.91,1.3c-.12,1.39.74,2.34,2.78,2.34s2.56-1.13,2.56-2.13a1.46,1.46,0,0,0-.78-1.34,5.61,5.61,0,0,1-1.74.22A4.71,4.71,0,0,1,53.85,83" style="fill:#ffd520"/><path d="M54.38,83.19s.21,3,2.73,3.38m-2-3.21s1,2.35,2.94,2.39m-1.77-2.43a3.44,3.44,0,0,0,2.16,1.48m-1.34-1.57a3.26,3.26,0,0,0,1.26.78M58,83.32a2.93,2.93,0,0,1-1.64,3.25m.91-3.34S57,86.1,54.51,86.49m1.77-3.13S55,85.79,53.12,85.84m2-2.52a4.55,4.55,0,0,1-2.43,1.43m1.57-1.69a4.33,4.33,0,0,1-1.35.78" style="fill:none;stroke:#000;stroke-width:0.347628192194294px"/><path d="M63.07,75.28a1.3,1.3,0,0,0-.37.48,5.58,5.58,0,0,1-.39.63s0,0,0,0c-.32.71-.27.28-.64,1-.48,1-1.35,2-1.52,2.62-.25.9-.63,2.17.05,2.91A8.52,8.52,0,0,0,63,84.46a3.28,3.28,0,0,1,.7.54c.67.56,1.6,1,3,1.93A13.53,13.53,0,0,1,69,88.82a3.44,3.44,0,0,0,.73.7,3.08,3.08,0,0,0,.94.37s0,0,0,0A6.27,6.27,0,0,1,72,90.3a2.22,2.22,0,0,0,.73,0M62.5,73a.64.64,0,0,1,.34.44,1,1,0,0,1-.31.94c-.12.12-.25.28-.46.27s-.23-.12-.35-.17m.87-9a5.43,5.43,0,0,0,.29,2.43c0,.2.13.58.18.77a10.48,10.48,0,0,0,.63,1.89A3.4,3.4,0,0,1,64,72.5a7.43,7.43,0,0,1-.51,1.86,3.25,3.25,0,0,1-1,1.17A1.26,1.26,0,0,1,61,75.24m.84.54a9,9,0,0,1-1.14,1.83c-1.55,2.71-2.81,5.24-.59,6.37a32.35,32.35,0,0,1,6.2,3.59c1.35.71,1.81,2.18,3.22,2.82a10.28,10.28,0,0,0,2,.3M61.79,66a20.56,20.56,0,0,0,1.15,5,3.81,3.81,0,0,1,.15,2.26v-.17" style="fill:none;stroke:#ffd520;stroke-width:0.3452633697659603px"/><path d="M64.3,87.87s-.08-1.86-1.38-.65c0,0-.79-2.25-1.83-.34,0,0-2.42-1.65-2.86.6,0,0-1.95-.52-1.77,2a7.08,7.08,0,0,1,7.84-1.61" style="fill:#ffd520"/><path d="M64.74,88.35A7.63,7.63,0,0,0,56.5,90s2.86.69,2.69-.87c0,0,1.91,1.3,2-.09,0,0,1.17,1,1.87-.26,0,0,3,.44,1.69-.43" style="fill:#ffd520"/><path d="M55.72,91.91c1.77,3.3,6.24,1,6.24,1l-.35-.52c-7.36,3.16-5.72-5.55-5.72-5.55h-.73s-.44,3.16.56,5" style="fill:#ffd520"/><path d="M53.42,82.85s-.13,2.81,1.69,3.94" style="fill:none;stroke:#000;stroke-width:0.347628192194294px"/><path d="M25.89,42.48s3.12,5.72,5.9,8c0,0-.08-3.88-1.22-2.26,0,0,.7-4.51-1-3.12,0,0,.07-3.95-1.56-1.56,0,0-.52-3-2.08-1" style="fill:#009d57"/><path d="M25,42.48a63,63,0,0,0,5.21,7.46s-1.74-2.26-3.47-1c0,0-3-3.3-1-3.64a1.62,1.62,0,0,1-.7-2.78" style="fill:#009d57"/><path d="M33.17,51.46s-1.93-7.69,1.39-10.54a.84.84,0,0,0-1.56.17s-2.6.7-1,3.65a2.61,2.61,0,0,0,.17,3.64,17.28,17.28,0,0,1,1,3.08" style="fill:#009d57"/><path d="M33.69,51s-1.38-7.28,1.39-9.71c0,0,1.39.17.18,2.77,0,0,1.9,1.74-.35,3,0,0,1.73.35-1.22,4" style="fill:#009d57"/><path d="M21.34,50.29s6.8,2.94,9.58,3.12c0,0,.17-2.08-1.21-2.08,0,0-1.22-2.61-3.3-1.74,0,0-1.73-1.91-2.43,0,0,0-2.68-.82-2.64.7" style="fill:#009d57"/><path d="M21.3,50.63s1.77,1.69,8.58,3.3c0,0-4.51,2.43-4,.17,0,0-3.64.17-2.43-1.39,0,0-3-.69-2.16-2.08" style="fill:#009d57"/><path d="M25.93,55.49s-2.34.56-3.94,4.12c0,0,3.12-3.56,5.37-3.86l1.13-.13s-1.65,1.13.39.39a.51.51,0,0,1,.39-.17c.26,0-2.47,1-2.56,2.16a1,1,0,0,1-1.08.91,1.94,1.94,0,0,1-2.47.35s-.87,1.21-1.48.74c0,0-.91-.74.7-2.34a2.46,2.46,0,0,1,2.51-2.34s.83-.44,1,.17" style="fill:#009d57"/><path d="M26.32,60l-1.25,1.73s-.31.52.13.39c0,0,4.07-5.5,6.85-6.15,0,0,.91-.61.82.08,0,0,.22,1.17-.82.87,0,0,.74,2.21-2,2.38,0,0,.91,2.35-2.17,2.22,0,0-.74,1.38-1.6.56,0,0-1.39,1.52-1.78,0,0,0-.3-1.82.91-2.17,0,0,.84-.62,1-.34a.33.33,0,0,1-.05.39" style="fill:#009d57"/><path d="M25.37,63.42a6.06,6.06,0,0,0,.69.65s.74-.17-.17.87c0,0-.82,1-.69,1.43l.26.17s1-1.77,1.69-2.08c0,0-.26.61,1.3.7,0,0,0,.91-.39,1.25,0,0-.44-.43-.57-.08a2.13,2.13,0,0,1-2.42,1.12s-1.22-1.56.13-2.34c0,0,.65-.73.17-.82a.44.44,0,0,1-.39-.52Z" style="fill:#009d57"/><path d="M28.8,62.38s-1.61,0-1.39.78l.39.09s-.7.56-.13,1.13a2.67,2.67,0,0,0,2.77-.18s.57-.82,0-1c0,0,2.08,1,2.21.13a1.52,1.52,0,0,0-.22-1.08A2.53,2.53,0,0,0,33.78,60s1.26-1.95,1-2.08c0,0-5.34,4.9-5.73,5.94h-.3A4.16,4.16,0,0,1,30,62.21s-1.08.17-1.21.17" style="fill:#009d57"/><path d="M30.7,67.8c1.09-.17.09,2.6.09,2.6.3-.3.69.26.69.26a1.27,1.27,0,0,1-1.12,1.09,1,1,0,0,1-.57-1.48c-.65-.17-.69-.74-.69-1.26,0,0,.3-.82.56-.86,0,0-1.13-.83-1-1.13,0,0-.08-1.6,1-1.65,0,0,1.6.39.95,2.47" style="fill:#009d57"/><path d="M41.24,74.61s-1.65.78-.39,1.6c0,0-.65,2,.52,1.82,0,0,.13.78.61.65,0,0,.13-.47-.48-.73a1.8,1.8,0,0,0-.43-1.69s.73-1.17.17-1.65" style="fill:#009d57"/><path d="M44.32,65s-2.56,4.55-1.13,5.46c0,0,0,2.9-1.82,2,0,0-.52,2.08-1.82,2,0,0-.18,1.35-1,1.22,0,0,0-4.34,5.21-11,0,0,.52-.48.52.26" style="fill:#009d57"/><path d="M41.46,64.51s1.43-1.3,1.43.65a9,9,0,0,0-2.35,3.47s-1.86-1.26-.86-2.13a1.43,1.43,0,0,1,1.47-.26A1.77,1.77,0,0,1,41.2,65c.26-.61.26-.52.26-.52" style="fill:#009d57"/><path d="M36.12,66.2a32.23,32.23,0,0,0-.56,10.36l-.22-.13a5.37,5.37,0,0,1-.52-2s.35-4.29-1.43-2.82a.84.84,0,0,1,.69,1.09,3.85,3.85,0,0,1-.69,1.77s-.69,1,.87,1c0,0,.34,2.22,1.47,2.26a1.49,1.49,0,0,0,.78-1.26s2.08-.74.78-3.55c0,0,2,0,1.13-1,0,0-1.86-2.82-1.56-4.08,0,0,.52-.48-.74-1.6" style="fill:#009d57"/><path d="M45.49,61.56S36,56.88,38.9,60c0,0-.35,1.21,1.56.86,0,0-1.74,1.74,5,.7" style="fill:#009d57"/><path d="M37,59a8.59,8.59,0,0,0-.87,6.76s1.22-.35.7-1.39c0,0,2.6,0,.34-2.25a1.27,1.27,0,0,0,.18-1.91Z" style="fill:#009d57"/><path d="M35.26,61.38a10.92,10.92,0,0,0,.17,4.69s-1.56,1-1.21-.7c0,0-1.91.18-.18-2.08Z" style="fill:#009d57"/><path d="M32.48,64.33A3,3,0,0,0,32,68.49s1.91-.86,1-1.9c0,0,.69-.35-.52-2.26" style="fill:#009d57"/><path d="M31.61,72.31s-1.56.52-.17,1.56c0,0,.17,1.73,1.39.87,0,0-1-3.12.52-5.2h-.87s-.87,2.6-.17,3.81Z" style="fill:#009d57"/><path d="M37.77,55.23c2.47,1.06,5.13,1.35,7.4,3A21.25,21.25,0,0,1,49,61.71a15.85,15.85,0,0,1,1.29,2.19M37.77,56.27A28.41,28.41,0,0,1,44,58.62a15.54,15.54,0,0,1,4.91,4.76" style="fill:none;stroke:#ffd520;stroke-width:0.3452633697659603px"/><path d="M34,52.19s.87,3,2.26-.52c0,0,2.6.7,1.73-2.77,0,0,1.21-1.39,2.25-1.39,0,0-3.12-.69-6.24,4.68" style="fill:#009d57"/><path d="M44.79,53.41s-.17-6.59,5-5.55c0,0-5.72-2.6-6.07,5.2,0,0-2.08-3.12-.34-3.47,0,0,.34-4.33,2.25-2.25,0,0,1.73-3,3.3-.52,0,0,3.12-.18,2.77,1.73,0,0-.35,1.22-3.47.87,0,0,2.08,1.56-1.91,1.91,0,0,1.22,1-1.56,2.08" style="fill:#009d57"/><path d="M49.48,50.81a4.59,4.59,0,0,1,4,2.77c1.21,2.78-1.74-3.29-5.9-1.39,0,0,1,.52-1,1.74,0,0,4.16,1,3.47-.35,0,0,1.38,3.64,3,1.56,0,0,3.81,1,2.42-1.56,0,0,2.08-2.25-3.12-2.77,0,0,.87-1.39-.52-1a2.09,2.09,0,0,1-2.25,1" style="fill:#009d57"/><path d="M55.94,31.77c-.27,1.05.22,2,.47,2.94A8,8,0,0,0,57.89,37a4,4,0,0,0,.79.86,9.9,9.9,0,0,1,1.22,1.28,11.25,11.25,0,0,1,1.54,2.17,3,3,0,0,1,.48,1.36m-.17-3c.21.61.69,1.08.91,1.67a4,4,0,0,1,.25.76c0,.31.29.56.41.86a5.46,5.46,0,0,1,.47,2c.05,2.1,0,4.52-1.82,5.94a14.7,14.7,0,0,0-3.69,3.69c.17-.43,0-.89.11-1.29a3.24,3.24,0,0,1,.35-.86,7.43,7.43,0,0,1,1.92-1.79c.73-.52,1.57-1,1.69-2M38.42,46a6.91,6.91,0,0,0,3.3.67,32.9,32.9,0,0,1,3.38-.23m-8.76-2.34a1.89,1.89,0,0,1,.69.17c2.33,1.49,4.91,1.52,7.55,1.15a3.43,3.43,0,0,1,1.73.24m-.21-3.08c1.7,1.21,2.73,1.75,3.29,3.47M40,38.41c2.18.47,3.2,2.79,4.74,4.28,1,.93,2.24,1.45,3.15,2.39.25.27.08-.12.27.26" style="fill:none;stroke:#ffd520;stroke-width:0.3452633697659603px"/><path d="M52.81,43.83a.47.47,0,0,1-.14.36c-.08.09,0,.29-.05.41a4.81,4.81,0,0,0-.29.71,3.89,3.89,0,0,0,.38,3.15c.38.62,1.18.85,1.67,1.44m5-8.9a13.62,13.62,0,0,0-2.48,1,1.87,1.87,0,0,1-.74.34,2.63,2.63,0,0,0-1.24.82,4.94,4.94,0,0,0-1.83,3.58,4.19,4.19,0,0,0,.6,2.22,8.55,8.55,0,0,0,1,1.51" style="fill:none;stroke:#ffd520;stroke-width:0.347628192194294px"/><path d="M78.74,58c-.63,0-.74.48-1.27.82-1.19.77-3,3.11-4.21,3.92-1.88,1.31-3.12.56-5.16.71-1.46.11-2.08.34-3.86,1.8-.14.11-.66.7-.55.87a5.2,5.2,0,0,0,.31.46c.21-.17.22-.1.41-.28a6.35,6.35,0,0,1,3-1.67c1.4-.46,3.13.29,5.31-.47,1.7-.6,3.36-2.88,4.63-4.16s3.63-2,5.11-.7m-7.72-12.4c-.61.21-1.29.45-1.52,1.06a6.46,6.46,0,0,1-.58,1.18c-.27.44-.54.83-.8,1.26a12.15,12.15,0,0,1-.63,1,9.32,9.32,0,0,1-1.28,1.31s-.55,1.19-.55,1.17c-.45,2.34-.2,4.57-1.43,6.6-.1.17-.57.28-1,.24.23-.21.21-.22.23-.27.1-.2.07-.4.16-.57a8.45,8.45,0,0,0,.91-4.45" style="fill:none;stroke:#ffd520;stroke-width:0.3452633697659603px"/><path d="M69.42,68.49S68,70,68.64,70.4l.35.44s-2.69,2.42-1.3,2.94c0,0-.78,2.61.6,2.17,0,0-.43,1.91.87,1.74,0,0-.52-5.73.26-9.2" style="fill:#009d57"/><path d="M70.11,67.37A97.86,97.86,0,0,0,69.85,78s1.48-1.3,1-2c0,0,2.25-.35.43-3,0,0,2.17-1-.52-3,0,0,1.56-.52-.61-2.69" style="fill:#009d57"/><path d="M71.5,67.54s5.64,6.24,6.68,8.24c0,0-.52,1-1.48-.35,0,0-2.77.61-2-1.65,0,0-2,1.13-2.26-.34,0,0,1.3-1.13-.43-3.21,0,0,.78-.61-.52-2.69" style="fill:#009d57"/><path d="M70.63,65.81a26,26,0,0,1,7.81,9.36s.54-.27-.26-1.65A1.49,1.49,0,0,0,77.4,71a2.64,2.64,0,0,0-3-3.21s.78-2.08-3.82-2" style="fill:#009d57"/><path d="M79.22,62.6s.26,5.63,1.39,7.37c.73,1.13.34.08.34.08s-.78-5.46-.78-8c0,0-.34-1.48-.52-2.08-.12-.42,1.56,1.13,1.65,1.82s-.26.69-.26.69,2.6,3.21.78,3.38c0,0,1.82,2.52.17,3.21,0,0,.08,3.37-1.12,2.17a4,4,0,0,1-.78-1.13s.08,1.82-.87,1.3a4,4,0,0,1-.7-3.9S76,68.22,78,63.73c0,0-1.64-.52-.52-2.43a2.73,2.73,0,0,0,1-1c.34-.7.78,2.34.78,2.34" style="fill:#009d57"/><path d="M82.08,61a11.58,11.58,0,0,1,3.38,6.85l.26-.35s.52-3.21-3-6.59c0,0,.52-1.56,1.65-.26a1.59,1.59,0,0,1,.35,1.39,1.67,1.67,0,0,1,1.47,2.17s.35,4-.87,4.16c0,0-1.12,0-1-1.3,0,0-1.39,1-.87-1.48,0,0-.26,1.74-1.47-4.59" style="fill:#009d57"/><path d="M84.25,59.74a7.64,7.64,0,0,1,4.33,4.85s.44,1.48-.43,1.3c0,0-1.39.35-.87-2.94,0,0-1.21.08-1.47-1.74,0,0-.17.7-1.56-1.47" style="fill:#009d57"/><path d="M86.76,60.34s1.82-.17,2.08,1.39l-.26.7s.7-.35.52.69l-.17.26Z" style="fill:#009d57"/><path d="M90.92,56.18a4.18,4.18,0,0,1-1.12,1.65c.86,1.3-3,1.47-3,1.47.08,1.91-4.42-1.12-4.42-1.12a9.84,9.84,0,0,0,7.89-2.26l-1.57.35s-1.47,1.3-4.85,1.13c0,0,.61-2.17,2.51-1.22,0,0,1.82-3.38,3-1.56,0,0,1.82-.69,2,.43l-.09.7Z" style="fill:#009d57"/><path d="M83,57.31s-2,.09-2.25.09,4.94-1.82,6.5-6.94l-.35-.17a26.89,26.89,0,0,1-3.12,4c-1.12,1-1.3-1.56-.43-1.82,0,0-.17-2.77,1.13-2.34,0,0,2.42-4.51,3.64-2.25a7,7,0,0,1,.43,2.86,6.08,6.08,0,0,1-1.56,2s1,.26-.09,1.39c0,0-.78.78-.78,1.22,0,0-2-.78-3.12,2" style="fill:#009d57"/><path d="M84.07,47S84,46.47,84,48.12c0,0,1.21.43-.35,1.73L82.25,51s1.39.43-.35,1.91c0,0,.7.43-1.56,2.25a11.34,11.34,0,0,0-.6,1.82l-.26-1s3.47-6.16,3.38-8.24h-.52a50.43,50.43,0,0,1-2.08,5,1.38,1.38,0,0,1-.7-2.17s-2.42-2.34.09-3.29a.83.83,0,0,1,.95.52s2.17-2.08,3.47-.78" style="fill:#009d57"/><path d="M77,45.6s5.55-2.6,8.41-.69l.09-.43s-2-1.31-6.24-.27c0,0,1.38-3.12,2.17-1.47,0,0,2.86-1.65,2.42.17,0,0,3-.17,1.91,1.13,0,0,2.17,2.43,1.3,2.52,0,0-2.77.78-2.25-.61A5.87,5.87,0,0,1,81,45.78s0,1.9-4.08-.18" style="fill:#009d57"/><path d="M75.32,46.38s3.29,5,2.25,10.06c0,0,2.43-2.95,1.39-3.73s-.26,0-.26,0,.69-2.86-1-2.86c0,0,.7-3.47-.69-2.51,0,0-1.73-.7-1.73-1" style="fill:#009d57"/><path d="M75,46.56s2.51,5.81,1.91,7.37c0,0-3.3-2.43-1-2.52,0,0-4.25-2.42-1.21-3.38,0,0-.87-2.51.26-1.47" style="fill:#009d57"/><path d="M71.59,52.63s2.69,2,2.25,6.59c0,0-1.91-1.65-.86-2,0,0-3-1.3-1.48-2.25,0,0-2.08-1-.87-2Z" style="fill:#009d57"/><path d="M72.71,50.55s-.86,1.9.52,2.51l.7.17s-1.3,1.44,1.3,2.69c0,0-1.3,1,.69,1.91,0,0,.44-3.47-3-7.89Z" style="fill:#009d57"/><path d="M72.54,59.48s-2.17,2-4,1.56,4.34,3.21,3.82-.26c0,0,1.9-.09.17-1.3" style="fill:#009d57"/><path d="M66.47,56.79s-5.29-3.12-9.36,2.69L57,59s2.69-5.46,8.06-3.55c0,0-1.27-3-2-1.3,0,0-3.38-1.91-3.21.43,0,0-3.38-.26-2.51,2,0,0-2.78,1.3-1,2.77,0,0-.52,1.73,1.39.78a1.77,1.77,0,0,0,2.6-1.39s2,.61,2.52-1.21c0,0,.08,1.21,3.55-.78" style="fill:#009d57"/><path d="M51.17,57.7c.15.16.44.95.63,1.25a4.52,4.52,0,0,1,.88,1.78s.15.12.2.19a10.75,10.75,0,0,0,2.22,2.81,6.2,6.2,0,0,1,.45.83,12.25,12.25,0,0,1,.34,1.62c.17.55.77.82,1.13,1.27a6,6,0,0,1,1.26,2.3c.32-.2.24-.69.6-.87-.25-.21-.42-.89-.55-1.1-.69-1-1.59-1.15-1.83-2.3s-.1-1.55-.52-2.29-1.3-1.11-1.76-1.69a3.15,3.15,0,0,1-.51-.86,11.29,11.29,0,0,0-1.18-2.29,9.28,9.28,0,0,1-1.1-1.86" style="fill:none;stroke:#ffd520;stroke-width:0.3452633697659603px"/><path d="M61.79,59.65s-3.64,1.82-3,2.86c0,0,1.65-.52,1.83,1.56a5.08,5.08,0,0,0,1-2.34s1.13,1.13,1.82-.87c0,0,3.29.18,2.25-1.64,0,0,1.3-.87,1.3-1.91a11.13,11.13,0,0,1-5.11,2.34" style="fill:#009d57"/><path d="M65.43,46.82s3.21-4.69,11.27-2.6c0,0,1.13,1.21-1.64,1,0,0,.52,1.3-2.61.43,0,0,.26,1.65-3.73.09,0,0,1.57.78-3.29,1" style="fill:#009d57"/><path d="M67.69,44.39s2.94-2.34,8.15-1a1.38,1.38,0,0,0-2.08-.78s-.77-3-2.87.17c0,.07-.26.09-.26.09s-1.47-2.26-2.94,1.47" style="fill:#009d57"/><path d="M66.9,48a9.36,9.36,0,0,0,.18,7.89.3.3,0,0,0,.26.18s3-5.82.78-5.29c0,0,3.9-3.13.69-3.65Z" style="fill:#009d57"/><path d="M65.6,48.55s-.86,3.56.18,5.55c0,0-3.73-1.82-1.65-2.77,0,0-.43-5.12,1.47-2.78" style="fill:#009d57"/><path d="M56.33,51.24s-3.47-3.29-.87-3.55c0,0-2.43-3.65.87-3.65,0,0,2.25-3.21,3.21-.95,0,0,1.56-2.08,2-.26,0,0-4.77,1.39-5.12,4.68a2.63,2.63,0,0,0,0,3.21Z" style="fill:#009d57"/><path d="M57.71,45.86a9.64,9.64,0,0,1,4-2.6L62.05,45s-1.22.78-1.74.08a1.08,1.08,0,0,0-1.56,1.13s-.6,1.13-1.64,1Z" style="fill:#009d57"/><path d="M56.93,50.55a5.59,5.59,0,0,1,4.6-3.13V46.9s-3.3.52-4.25,2.17c0,0-.09-1.73,1.47-1.82,0,0,.52-2.43,2.52-1.21,0,0,.43-.52.78-.35a5.33,5.33,0,0,1-.43,3s-.61,2.77-4.69,1.91" style="fill:#009d57"/><path d="M49.3,56.79s1.82-.09,1.56,2.34a8.09,8.09,0,0,1,2.26,4.77s-2.78-2.6-2.86-4.77l-.44.09A4.45,4.45,0,0,0,51,62.6s-3.13-2.34-2.17-3.47c0,0-3.64-.43-2.95-2.51s-.17-.35-.17-.35l1.73-.61s.87,1.22,1.82,1.13" style="fill:#009d57"/><path d="M43.15,47.42s-1.22.35-.52,1.65c0,0-2.09,2,1,5.38,0,0-4.69-1.39-3.21-4.25,0,0,.52-.78.78-.69,0,0-1-2.26,1.91-2.09" style="fill:#009d57"/><path d="M40.37,48.12s-.52.78.17,1.21c0,0-2.86,1.48.18,4.51,0,0-2.34-.65-2.86-1.56l.6-.26s1.22-2,.52-2.86c0,0,.61-1,1.39-1" style="fill:#009d57"/><path d="M41.41,44.65a20.82,20.82,0,0,0,4-.09s-1-1.82-2.77-1.56c0,0,.76-3-2.17-1.38,0,0-.78-4.25-2.6-1.74,0,0-1,1.56-.26,2.52a12.64,12.64,0,0,0,2.6,2.42c.52.26.6-.17,1.21-.17" style="fill:#009d57"/><path d="M37.94,38.75a27,27,0,0,0-8.75,1.39v-.61s4.16-1.47,6.15-1.3c0,0-.09-2.25-1.21-2.34,0,0-1-.35-1,1.21,0,0-2-1.56-2.25.79,0,0-1.82-.61-1.56,1.12,0,0-2.44.94-.43,2.17a2,2,0,0,0,1.82-.52s1.3,1.56,2.94-.95c0,0,1.65,1.21,2.87.17a11.72,11.72,0,0,1,1.38-1.13" style="fill:#009d57"/><path d="M41.07,34.68s.43-5.81,2.86-7.63l.6-.18S39.76,34.24,43.67,39a5,5,0,0,0-.18-2.94A2.79,2.79,0,0,0,44,32.86a1.93,1.93,0,0,0,.61-2.95l-.17-.26a2.34,2.34,0,0,0,.26-3.21s-1.65-.43-1.91.61a1.5,1.5,0,0,0-.26,1.3s-2.26-1.3-1.65,2.6c0,0-1.82.95.18,3.73" style="fill:#009d57"/><path d="M40.2,37.8s-2.07-.56-5.81-7.46c0-.07-.17.44-.17.44s1.56,4.16,3.46,5.89c0,0-1.82-1.82-2.16-1.82s-1.57,0-.35-.87c0,0-2.52-.08-.78-1.47,0,0-1.22-2.43-.44-2.95,0,0,1.91.09,2.09,1.65,0,0,1.3-1.13,1.64-.26a1.27,1.27,0,0,1-.52,1.82s1.22-.09.7,1.21c0,0,.34-1.64,2.34,3.82" style="fill:#009d57"/><path d="M31,34.42a4.3,4.3,0,0,0,2.69,1s-.26-1.82-1-1.39c0,0-1-1.39-1.47-.52,0,0-1.91,0-.7,1.65,0,0-.6,1.21,1.48.61,0,0,.17.08.17,0l-1.47-1Z" style="fill:#009d57"/><path d="M47.57,36.41a7.13,7.13,0,0,0-1,4.34l.26-.18s1.56-6.33,4.59-6.76c0,0,1.3-.35,1.56-.17s-.43,5-1.38,2.16c0,0-1,4.34-2,1.82,0,0-1.12,4-2,2.43,0,0-.35,3-1.21,1.65,0,0-1.31-1.65-.18-2.69,0,0-1.65-.69,1.39-2.6" style="fill:#009d57"/><path d="M51.38,28.09s-6.07,3.73-6.24,8.75c0,0,5.55-3.29,2.6-4.07,0,0,4.68-1.21,2.43-2.51,0,0,4.42-4.6-.17-2.78,0,0-1.31-.78-2.26,1.48,0,0-2.17.08-1.82,2.6,0,0,3.47-3.21,4.94-3.73s.52.26.52.26" style="fill:#009d57"/><path d="M49.91,44.91s0-8.06,6.59-6.16c.17,0-.35,0-.35,0l.44-.34a6.69,6.69,0,0,0-3.91-.35s2.43-3.64,3.56-1.3a1,1,0,0,1-.26.78s2.51-.43,2.25,1.3c0,0,1.74,1-.34,1.13,0,0,.08,1.39-1.82-.18,0,0,.08,1.57-2.52.26,0,0,1.47.7-2.77,3.13,0,0-.52.17-.87,1.73" style="fill:#009d57"/><path d="M48.18,27.31s-1-1.65.6-1.48c0,0-.78-2.16.52-1.82,0,0,.7-2.69,1.65-.34l.17,1.21a5.44,5.44,0,0,1,1.57.43,1.36,1.36,0,0,0-1.22,1.3s-.78-.34-1.13.09c0,0-.26-2.43.09-2.6H50a11,11,0,0,0-.35,2.77,1.29,1.29,0,0,0-1.47.44" style="fill:#009d57"/><path d="M52.25,26.7s.87.17.52,1.39c0,0,1.73-3.3,4.25-3.64l.43.26s-5.72,2.42-3.73,8.23l.52,1.22s1.13-1.65.52-2.08,1.83-2.78,0-2.95c0,0,3.3-.7,1.83-2.6,0,0,2.42-1,2.16-2.69,0,0-1-.87-1.73-.35a2.79,2.79,0,0,0-1.56.78s-1-.78-1.91,1.3a1.92,1.92,0,0,0-1.3,1.13" style="fill:#009d57"/><path d="M57.89,34.76a10.37,10.37,0,0,1-1.48-3.55s1-1.39.26-1.82c0,0,2.34-1.3,1.39-2.6,0,0,2.08-1.3,2.52.26,0,0,1.3-2.95,2.16-1.91,0,0,1.3-.09.61,1.65,0,0,1,1.3-1.21,2.42,0,0,2.34,1.22-1.91,3.47,0,0,1.21,1.3-1.48,4.08a13.74,13.74,0,0,1,3.56-10.49h-.43s-3.82,2.34-4,8.49" style="fill:#009d57"/><path d="M65,42.22s.26-5.63-1-8.93h.34s2.81,4.39,1.13,11.62c0,0,3.56-5.81,1.3-5.29,0,0,2.78-5-.34-3.12,0,0,1.12-4.08-.61-2.69,0,0-1.56-3.81-2.34-2.25,0,0-.52.52,0,1.73,0,0-.87-.17-.44,1.3,0,0-2.51-.35-.69,2.43a6.12,6.12,0,0,0,.87,1.13S60.92,39,65,42.22" style="fill:#009d57"/><path d="M64.13,27.13s.61-1.3-.09-2.08c0,0,0-.95.61-.95,0,0,1.21-2.17,2.17,1.47,0,0,1.12,1.13.26,1.74a3.93,3.93,0,0,1-.61,3.55s1.21.44.26,1.65c0,0-1-.95-1.3-1.21,0,0,1.3-4.6.26-6.85h-.35a14.17,14.17,0,0,1-.52,6.5.92.92,0,0,0-1.56-.17s.87-1,0-1.57c0,0,1.74-1.38.87-2.08" style="fill:#009d57"/><path d="M68.21,30.69s-.7-2.86-.26-3c0,0,1.12-2.43,2.68-.43,0,0,.26-1,1-1s1.39-.26,1.73.35.35,1.91-.69,2.17c0,0,1.33,1.12-1.65,1.91,0,0,2.6,1.56-2.6,3.9a3.57,3.57,0,0,1-.78-1.39s3.55-5.37,4.94-6l-.43-.26a15.61,15.61,0,0,0-3.9,3.64" style="fill:#009d57"/><path d="M75.32,32.34s-.87-2.78-2.09-.44c0,0-.43.44,0,1.48,0,0-2.51-1-1.9,2.08,0,0,1.73,1.3,2,1.56a23.75,23.75,0,0,0,.61-4.25h.35a19.08,19.08,0,0,1-1,7.37s3.3-3,1.65-4.25c0,0,2.34-2.6.26-2.6Z" style="fill:#009d57"/><path d="M76.1,31.56s.43-1.56,1.12-1.48.87,1,.52,2.26l-.26.86h.61l-1.3,1.22s.26-1.48-.26-1.65l.61-1-.26-.26-.78.87Z" style="fill:#009d57"/><path d="M75.06,40.92s-.87-3,.69-2.08c0,0-.35-5.29,1.73-3.12,0,0,.44-3.38,2.09-2.08,0,0,2.68-1.3,1.73,1.56,0,0,1.56,2.43-1.39,2.6,0,0,1.74,2-1.56,2.77,0,0,1.13,1.48-1.39,2.6,0,0-.69-1.73-.43-2.25s2.12-5.69,4.34-6.68l-.35-.34a16.47,16.47,0,0,0-4.86,7.71Z" style="fill:#009d57"/><path d="M81,39.71s-.61-1,.09-1.39,2.16.09,2.42-.17c0,0,2.34-1.13.61,1.64a2,2,0,0,0-.69,1.48s-1.3.17-3.21.61c0,0,2-2.87,3.21-3l-.35-.26s-2,.52-2.08,1" style="fill:#009d57"/><path d="M69.94,36.15s1.3,3.21.26,5.2c0,0,2.69-1.56,1.56-2.6,0,0,1.39-1.65-2.25-3.55,0,0-1-.35-1,.52,0,0-.35,1.21.43,1.21,0,0-1.82,1.91,0,3,0,0-1.13.87.35,1.65,0,0,1.3-1.13.34-5.47Z" style="fill:#009d57"/><path d="M47.05,66.41s1.3,2.6.17,2.52c0,0,3,3.38.35,3.29,0,0,.17,4-1.91,2.61,0,0,.44,1.82-1.39,1.82a4.2,4.2,0,0,0,1-3.65,4.34,4.34,0,0,0,1-4.42s.87-.35.78-2.17" style="fill:#009d57"/><path d="M45.57,66.15s.87,1.65-.52,2.17c0,0,1.82,3.3-.69,4.34,0,0,.52,3-.61,3.38,0,0,.09,1.91-1.39,1.91,0,0-1.38-3.38-.17-4.43,0,0,2.43-.17,1.39-4.42,0,0,.09-2.69,1.39-4Z" style="fill:#009d57"/><path d="M12.3,60.16a2.57,2.57,0,0,0,.06-.87c-.06-1.36-.83-2.34-3.85-2.21s-3.7,1.18-3.64,2.53a2.88,2.88,0,0,0,.13.87ZM5.06,61.92,5,62.57l-.38,0-.14-3.17c-.12-2.7,2.09-3.81,4-3.89s4.17.83,4.29,3.53l.14,3.17h-.38l-.12-.64Z" style="fill:#fff"/><path d="M13.43,49.31a2.59,2.59,0,0,0-.3,1.07l-.53,4.51-.37,0,0-.65L5,53.35,4.78,54l-.37-.05.51-4.43a2.53,2.53,0,0,0,0-1.11l2.44-.26,0,.44a2.74,2.74,0,0,0-2.26,2.73,2.09,2.09,0,0,0,0,.61l3.15.37.05-.47c.09-.81-.25-1.15-1.16-1.44l0-.38,3,.35,0,.38c-1,.07-1.36.32-1.46,1.13l0,.47,3.75.43a1.67,1.67,0,0,0,.16-.58c.2-1.7-.48-2.52-1.83-3.34l.14-.42Z" style="fill:#fff"/><path d="M9.88,45a2.16,2.16,0,0,0,.24-.55A1.82,1.82,0,0,0,8.85,42,1.65,1.65,0,0,0,6.61,43.3a3.25,3.25,0,0,0-.1.8Zm-3.78.44-.26.61L5.48,46,6.3,43c.43-1.57,1.38-3,2.88-2.57,1.87.52,1.78,2.44,1.3,4.17l-.15.53,3.2.89.27-.6.36.1-.73,2.64-.36-.1.08-.65Z" style="fill:#fff"/><path d="M13.61,37.85l-4-.38v0l3.05,2.65Zm1,5.48-.34-.15a1.45,1.45,0,0,0-.58-1.47L8.91,37.5H8.16L8.71,36l8.21.73.39-.54.35.15-1.12,2.58-.34-.15.12-.65-2.2-.2L13,40.5l.89.77a1.5,1.5,0,0,0,.45.27c.38.17.61-.19.87-.5l.35.15Z" style="fill:#fff"/><path d="M15.07,32.18l.28-.45c.84-1.3.65-2.1-.3-2.71a1.63,1.63,0,0,0-2.44.66c-.12.18-.24.44-.37.68Zm-3.58-.59-.43.5-.32-.21,1.63-2.53c.84-1.31,2-2.59,3.62-1.58a2.11,2.11,0,0,1,.59,2.61l4.15.35.43-.49.32.2L20.4,32.13l-4.58-.43-.44.68,3,1.95.43-.49.32.2-1.48,2.3-.32-.2.27-.6Z" style="fill:#fff"/><path d="M18.51,21.42a2.73,2.73,0,0,0,.6-.94l2.21,1.26-.17.35c-1.13-.38-2.21-.58-3.1.42l5.55,4.9.5-.43.29.26-1.81,2.05L22.29,29l.36-.55L17.1,23.58c-.88,1-.55,2.05,0,3.12l-.32.22-1.53-2a2.48,2.48,0,0,0,.86-.71Z" style="fill:#fff"/><path d="M25.56,25.76l-.23-.3c.31-.49.51-.79,0-1.47l-3.74-5L21,19.3,20.79,19l1.68-1.34,4.18,2.47L25.2,15.5l1.66-1.32.24.29-.45.48,4.74,5.56.57-.33.24.3L30,22.2l-.24-.3.45-.48-4.23-5,0,0L27.71,22l-.24.2-5-3h0l3.35,4.44a.92.92,0,0,0,1.42.24l.23.29Z" style="fill:#fff"/><path d="M37.77,17.73a2.7,2.7,0,0,0-1.05.36l-4,2.15-.18-.33.53-.39-3.46-6.45L29,13.3,28.82,13l3.92-2.1a2.57,2.57,0,0,0,.89-.68L35.24,12l-.34.28A2.74,2.74,0,0,0,31.37,12a1.72,1.72,0,0,0-.49.36l1.49,2.79.42-.23c.72-.38.8-.85.52-1.77l.33-.18,1.43,2.66-.34.18c-.61-.74-1-.94-1.76-.55l-.42.22,1.79,3.33a2.27,2.27,0,0,0,.57-.2c1.51-.81,1.8-1.84,1.69-3.41L37,15.1Z" style="fill:#fff"/><path d="M43.43,13h0L42,8.55c-.21-.63-.55-.65-1.13-.54l-.12-.36,2.21-.74.12.35a1,1,0,0,0-.54,1.25l2.25,6.67-.53.18-6.36-5h0l1.66,4.91a1,1,0,0,0,1.27.64l.12.35-2.39.81-.12-.36A1.06,1.06,0,0,0,39,15.36l-1.66-4.94A1.09,1.09,0,0,0,36,9.64l-.12-.35,2.05-.7Z" style="fill:#fff"/><path d="M49.24,5.8a2.63,2.63,0,0,0,1-.36l.92,2.38L50.85,8c-.63-1-1.34-1.85-2.66-1.63l1.21,7.31.65,0,.06.38-2.7.44-.06-.37.63-.2L46.77,6.58c-1.31.22-1.72,1.24-2,2.4l-.39,0L44.5,6.4a2.56,2.56,0,0,0,1.11,0Z" style="fill:#fff"/><path d="M60.44,9.72c.16-2.9-.53-3.87-1.71-3.94-1-.06-2,1-2.13,3.72-.16,2.9.53,3.87,1.7,3.93s2-1,2.14-3.71M55,9.41c.12-2,1.7-4.21,3.72-4.1C61,5.43,62.12,7.51,62,9.8c-.11,2-1.7,4.22-3.71,4.11-2.2-.13-3.36-2.2-3.24-4.5" style="fill:#fff"/><path d="M62.05,14l.08-.36.65,0,1.51-7.16-.62-.23.08-.36,4.19.88a2.71,2.71,0,0,0,1.11,0l.11,2.6h-.45c-.44-1.43-.82-2.29-2.4-2.62a1.78,1.78,0,0,0-.61,0L65,10l.68.15c.76.16,1.12-.33,1.37-1l.37.08-.62,2.92-.37-.08c.07-.82-.06-1.41-.82-1.57L65,10.41,64.19,14l.62.23-.08.37Z" style="fill:#fff"/><path d="M75.48,18.49a2.65,2.65,0,0,0-.93-.6l-4.16-1.84.16-.34.63.17,2.95-6.69-.56-.34.15-.35,4.08,1.8a2.63,2.63,0,0,0,1.08.28L78.41,13,78,12.9a2.73,2.73,0,0,0-1.94-3,1.83,1.83,0,0,0-.59-.16l-1.27,2.9.43.19c.74.33,1.17.1,1.72-.69l.35.16-1.22,2.76-.35-.16c.21-.93.09-1.4-.65-1.73L74,13l-1.52,3.45a1.78,1.78,0,0,0,.51.33c1.57.69,2.56.29,3.73-.76l.36.26Z" style="fill:#fff"/><path d="M78.44,19.46a3,3,0,0,0,.68.56c1.14.74,2.39.68,4-1.85s1.2-3.7.06-4.44a2.85,2.85,0,0,0-.78-.4Zm2.78-6.91-.49-.43.21-.32,2.65,1.73c2.27,1.47,1.89,3.91.87,5.48s-3.1,2.91-5.37,1.44l-2.66-1.73.21-.32.6.28Z" style="fill:#fff"/><path d="M90,18.37l-.26.28-.54-.37-3.74,4.08A1.91,1.91,0,0,0,85.54,25a1.85,1.85,0,0,0,2.77-.09l3.1-3.39a1,1,0,0,0-.06-1.41l.26-.28,1.85,1.71-.25.27a1,1,0,0,0-1.42.06L88.9,25.05A2.48,2.48,0,0,1,85,25.2c-1.3-1.2-1.8-2.47-.57-3.81l3.74-4.08-.41-.51.25-.28Z" style="fill:#fff"/><path d="M93.35,31a3.28,3.28,0,0,1-3.78-.84c-1.31-1.65-.63-3.77,1.12-5.16,1.59-1.28,4.24-1.93,5.62-.2a3.31,3.31,0,0,1,.45.75,2.49,2.49,0,0,0,.32.6,2.6,2.6,0,0,0,.73.52l-1.64,2.05-.36-.28c.46-1.05.91-2.38.21-3.25-.9-1.12-2.58-.55-3.68.33-1.44,1.14-2.77,3.08-1.64,4.5a2.29,2.29,0,0,0,2.52.59Z" style="fill:#fff"/><path d="M96.39,34.49l2.72-3v0l-3.94.85Zm-5-2.46.33-.19a1.43,1.43,0,0,0,1.52.42l6.26-1.32.45-.6.87,1.34-5.51,6.13.2.64-.33.19-1.4-2.45.33-.19.44.49L96,34.86l-1.39-2.44-1.15.25a1.79,1.79,0,0,0-.49.19c-.36.2-.21.61-.12,1l-.33.19Z" style="fill:#fff"/><path d="M104.53,40.14a2.49,2.49,0,0,0,.56,1l-2.15,1.38-.22-.31c.86-.83,1.54-1.69,1.06-2.94l-6.92,2.65.15.64-.35.14-1-2.56L96,40l.32.57,6.91-2.65c-.47-1.25-1.56-1.44-2.75-1.47l0-.39,2.52-.41a2.64,2.64,0,0,0,.23,1.09Z" style="fill:#fff"/><polygon points="97.36 44.88 97.73 44.79 97.98 45.4 105.07 43.6 105 42.95 105.36 42.86 106.04 45.51 105.67 45.61 105.42 45 98.33 46.79 98.4 47.44 98.03 47.54 97.36 44.88" style="fill:#fff"/><path d="M103,52.92c2.88-.35,3.72-1.2,3.57-2.37-.12-1-1.36-1.78-4-1.45-2.88.36-3.71,1.21-3.57,2.38.13,1,1.36,1.77,4,1.44m-.66-5.36c2-.24,4.45.93,4.7,2.93.27,2.19-1.57,3.69-3.85,4-1.95.24-4.45-.93-4.7-2.93-.26-2.19,1.57-3.7,3.85-4" style="fill:#fff"/><path d="M101.24,61.16v0l4.63.2c.66,0,.8-.28.91-.87l.38,0-.11,2.33h-.38a.94.94,0,0,0-1-1l-7-.32,0-.55,6.94-4.14v0l-5.18-.23a1,1,0,0,0-1,1l-.38,0,.12-2.52.37,0a1.08,1.08,0,0,0,1.09,1.05l5.21.23a1.09,1.09,0,0,0,1.2-1l.37,0-.09,2.16Z" style="fill:#fff"/><path d="M17.61,79.53l-.22.13-.29-.34-3.19,2A1.3,1.3,0,0,0,13.47,83a1.24,1.24,0,0,0,1.82.45l2.65-1.61a.66.66,0,0,0,.22-.93l.22-.14.89,1.46-.22.13a.66.66,0,0,0-.93-.22l-2.47,1.51A1.68,1.68,0,0,1,13.06,83c-.62-1-.71-1.93.34-2.58l3.2-2-.18-.41.22-.13Z" style="fill:#fff"/><path d="M18.57,87.8v0l2.47-1.93c.36-.28.29-.5.09-.85l.2-.15,1,1.24-.2.16a.65.65,0,0,0-.92-.07l-3.75,2.93-.23-.29L19,83.68h0l-2.77,2.16a.67.67,0,0,0-.11,1l-.21.16-1-1.35.2-.16a.73.73,0,0,0,1,.07l2.78-2.17a.74.74,0,0,0,.19-1l.21-.15.9,1.15Z" style="fill:#fff"/><polygon points="18.46 90.11 18.65 89.93 19 90.21 22.62 86.86 22.37 86.49 22.56 86.32 23.81 87.67 23.63 87.85 23.28 87.57 19.66 90.92 19.91 91.29 19.72 91.46 18.46 90.11" style="fill:#fff"/><path d="M26.54,90.29a1.76,1.76,0,0,0,.62.41l-.89,1.48L26,92.05c.28-.75.43-1.48-.23-2.09l-3.4,3.67.28.34-.18.19L21.16,92.9l.17-.18.36.25L25.1,89.3A1.74,1.74,0,0,0,23,89.23L22.85,89l1.4-1a1.77,1.77,0,0,0,.47.59Z" style="fill:#fff"/><path d="M27,97.91a1.59,1.59,0,0,0-.52-.54l-2.44-1.85.15-.2.39.21,3-3.94-.31-.32.16-.2,2.4,1.82a1.93,1.93,0,0,0,.66.35l-.68,1.51-.27-.13a1.84,1.84,0,0,0-.82-2.25,1.13,1.13,0,0,0-.36-.19l-1.28,1.7.25.19c.44.33.75.25,1.23-.18l.21.15-1.23,1.63-.2-.16c.28-.58.27-.9-.17-1.23l-.25-.2-1.54,2a1.14,1.14,0,0,0,.29.29,2,2,0,0,0,2.57.08l.2.23Z" style="fill:#fff"/><path d="M29.49,99a2.2,2.2,0,0,0,.47.36c.79.47,1.63.4,2.68-1.35s.72-2.53-.07-3a2.14,2.14,0,0,0-.54-.25Zm1.71-4.74L30.86,94l.13-.22,1.84,1.11A2.8,2.8,0,0,1,30,99.66l-1.84-1.1.13-.22.41.17Z" style="fill:#fff"/><path d="M39.52,99.88l-.29,0c0-.66-.13-1.58-.85-1.89a.83.83,0,0,0-1.18.4c-.61,1.44,2.43,1.91,1.57,3.94a1.67,1.67,0,0,1-2.26.85,10.14,10.14,0,0,1-1.09-.74,1.55,1.55,0,0,0-.53-.08l.38-1.68.3.08a2.24,2.24,0,0,0,1.12,2.14,1,1,0,0,0,1.3-.49c.58-1.39-2.37-1.93-1.5-4a1.48,1.48,0,0,1,2-.74,1.58,1.58,0,0,1,.49.29,1.51,1.51,0,0,0,.37.25,1.16,1.16,0,0,0,.57.06Z" style="fill:#fff"/><path d="M43.83,99.67a1.83,1.83,0,0,0,.74.1l-.17,1.72-.26,0c-.08-.8-.25-1.52-1.11-1.79l-1.49,4.78.4.19-.07.25-1.77-.55.08-.24.44.06L42.1,99.4c-.86-.27-1.41.22-1.93.84l-.23-.14.84-1.51a1.79,1.79,0,0,0,.67.34Z" style="fill:#fff"/><path d="M46.5,103.86l-.29-2.72h0l-1.34,2.37ZM43,105.28l.05-.25a1,1,0,0,0,.89-.58l2.15-3.75-.1-.51,1.06.17.63,5.54.41.18-.05.25-1.87-.39.06-.25h.44l-.16-1.49-1.86-.38-.38.69a1,1,0,0,0-.13.33c-.06.27.21.38.45.51l-.05.25Z" style="fill:#fff"/><path d="M52.11,101.15a1.57,1.57,0,0,0,.75,0l.16,1.72-.26,0c-.23-.77-.54-1.45-1.43-1.55l-.56,5,.43.11,0,.25-1.83-.2,0-.26h.45l.55-5c-.89-.1-1.35.5-1.74,1.2l-.24-.09.53-1.64a2,2,0,0,0,.73.2Z" style="fill:#fff"/><path d="M57.16,107a1.72,1.72,0,0,0-.74-.13l-3.07,0v-.25l.44-.07,0-4.94-.44-.06v-.26l3,0a1.71,1.71,0,0,0,.74-.12l.36,1.62-.3.06a1.83,1.83,0,0,0-2-1.32,1.4,1.4,0,0,0-.41.06l0,2.14h.32c.55,0,.75-.25.88-.89h.26l0,2.05H56c-.12-.64-.32-.89-.87-.9h-.32l0,2.55a1.18,1.18,0,0,0,.41.07,2,2,0,0,0,2.1-1.48l.3.07Z" style="fill:#fff"/><path d="M61.57,102.5l-.27.1c-.34-.57-.86-1.34-1.64-1.27a.83.83,0,0,0-.86.9c.14,1.56,3,.55,3.24,2.74a1.68,1.68,0,0,1-1.6,1.81,9,9,0,0,1-1.32-.14,1.37,1.37,0,0,0-.5.18l-.45-1.67.3-.06a2.24,2.24,0,0,0,2,1.37,1,1,0,0,0,.92-1c-.13-1.5-3-.59-3.19-2.81a1.49,1.49,0,0,1,1.4-1.59,1.9,1.9,0,0,1,.56,0,1.18,1.18,0,0,0,.45,0,1.08,1.08,0,0,0,.53-.21Z" style="fill:#fff"/><path d="M67.89,102.55c-.45-1.91-1.08-2.41-1.86-2.23s-1.09,1-.67,2.82,1.07,2.41,1.85,2.23,1.09-1,.68-2.82m-3.56.83c-.3-1.3.3-3.06,1.63-3.37s2.6.79,3,2.3c.3,1.29-.3,3.06-1.63,3.37s-2.6-.79-3-2.3" style="fill:#fff"/><path d="M70.37,104.76l-.08-.24.39-.2-1.61-4.67-.43.08-.08-.24,2.73-.95a1.72,1.72,0,0,0,.66-.35l1,1.47-.26.17c-.75-.68-1.27-1-2.3-.69a1.09,1.09,0,0,0-.37.19l.73,2.1.44-.16c.5-.17.53-.58.45-1l.24-.08.66,1.9-.24.09c-.25-.5-.53-.8-1-.63l-.44.16.8,2.33.44-.08.08.24Z" style="fill:#fff"/><path d="M77.92,99.39,76,97.45h0l.43,2.69Zm-1.84,3.29-.11-.23a1,1,0,0,0,.34-1l-.68-4.27-.39-.33.94-.53,3.95,3.93.43-.11.12.22-1.7.86-.12-.22.35-.29-1-1-1.7.85.13.79a1.23,1.23,0,0,0,.11.34c.13.24.4.16.68.11l.11.23Z" style="fill:#fff"/><path d="M81,100.19l-.15-.21A.7.7,0,0,0,81,99l-2.22-3.59-.4.19-.14-.21,1.21-.81,2.67,1.91-.71-3.21,1.2-.79.14.21-.33.29,2.87,4,.4-.19.14.21-1.55,1-.15-.21.34-.3-2.56-3.62h0l.82,3.87-.17.12-3.19-2.29h0l2,3.18a.61.61,0,0,0,.94.25l.15.21Z" style="fill:#fff"/><path d="M89.54,94a1.89,1.89,0,0,0-.65.39l-2.34,2-.16-.19.29-.33L83.49,92.1l-.38.23L83,92.14l2.3-2a1.79,1.79,0,0,0,.49-.57l1.32,1-.18.24a1.84,1.84,0,0,0-2.38.3,1.16,1.16,0,0,0-.27.31l1.38,1.63.24-.21c.42-.35.41-.67.1-1.24l.19-.17L87.46,93l-.2.16c-.5-.4-.82-.47-1.24-.11l-.25.2,1.65,1.95a1,1,0,0,0,.35-.22,2,2,0,0,0,.64-2.49l.27-.14Z" style="fill:#fff"/><path d="M89.26,89.92l.25-.26c.72-.76.71-1.31.15-1.84a1.1,1.1,0,0,0-1.7.12c-.11.11-.22.27-.34.41ZM87,89.07l-.35.27-.19-.17,1.41-1.47c.72-.76,1.69-1.46,2.61-.59a1.44,1.44,0,0,1,0,1.81l2.71.77.35-.27.19.17-.94,1-3-.87-.38.4,1.76,1.68.35-.27.19.17L90.47,93l-.18-.18.25-.36Z" style="fill:#fff"/><polygon points="94.06 89.14 93.86 88.98 94.09 88.6 90.26 85.48 89.93 85.78 89.74 85.62 90.91 84.19 91.1 84.35 90.88 84.73 94.71 87.85 95.03 87.55 95.23 87.71 94.06 89.14" style="fill:#fff"/><path d="M97,82.68a2.2,2.2,0,0,1,.18,2.61c-.81,1.17-2.31,1.14-3.55.27s-2.07-2.37-1.22-3.6a2.09,2.09,0,0,1,.4-.43,2.52,2.52,0,0,0,.33-.33,1.71,1.71,0,0,0,.19-.57l1.65.66-.12.29c-.76-.09-1.71-.13-2.14.5-.56.79.14,1.77.92,2.31,1,.71,2.54,1.2,3.24.19a1.56,1.56,0,0,0-.11-1.74Z" style="fill:#fff"/><path d="M98.06,79.55,95.38,79h0l1.88,2Zm.33,3.75-.22-.12a1,1,0,0,0-.29-1L94.93,79l-.51,0,.47-1,5.47,1,.3-.33.22.12L100,80.47l-.22-.13.13-.43-1.47-.28-.92,1.66.55.58a1.08,1.08,0,0,0,.28.21c.25.14.42-.09.62-.28l.23.12Z" style="fill:#fff"/><circle cx="55.84" cy="56.54" r="40.53" style="fill:none;stroke:#ffd520;stroke-width:1.3881479815873667px"/><rect width="112.01" height="113.14" style="fill:none"/><path d="M141.53,60.54v-11c0-1.91-.28-2-1.25-2.25l-1.15-.25V45.86h10.34v1.22l-1.06.25c-1.07.25-1.29.34-1.29,2.25V61.17c0,3.15,1.25,4.4,4.94,4.4,3.25,0,4.65-1.72,4.65-4.84V50c0-2.28-.22-2.41-1.53-2.69l-1.31-.25V45.86H161v1.22l-.93.22c-1,.25-1.38.37-1.38,2.59V61c0,3.84-2.43,6.9-8,6.9S141.53,66,141.53,60.54Z" style="fill:#576f7f"/><path d="M162.27,64.79a3.08,3.08,0,1,1,3.06,3A3,3,0,0,1,162.27,64.79Z" style="fill:#576f7f"/><path d="M171.73,67l-.38-6.06h1.35A22.52,22.52,0,0,0,175,64.63a4,4,0,0,0,3.47,1.6c2.28,0,3.87-1.47,3.87-3.13s-1-2.84-4.84-4.31c-4.56-1.71-6-3.68-6-6.84,0-3.78,3.16-6.46,7.87-6.46a18.51,18.51,0,0,1,5.59.62l.38,5.44H184a13.47,13.47,0,0,0-2.13-3.35,3.44,3.44,0,0,0-2.84-1.06c-2.12,0-3.59,1.28-3.59,3,0,1.47.68,2.28,4.37,3.69,5,1.87,6.81,3.74,6.81,6.84,0,4-3,7.24-8.37,7.24A22.18,22.18,0,0,1,171.73,67Z" style="fill:#576f7f"/><path d="M189.12,64.79a3.08,3.08,0,1,1,3.06,3A3,3,0,0,1,189.12,64.79Z" style="fill:#576f7f"/><path d="M206.36,66.26l1.09-.22c1-.22,1.25-.38,1.25-2.25V49.58c0-1.91-.28-2-1.25-2.25l-1.09-.25V45.86H217.1c6.66,0,11.16,3.06,11.16,10.47,0,7.12-4.41,11.18-11.31,11.18H206.36Zm16-9.22c0-7.34-1.87-9.52-5.84-9.52a7,7,0,0,0-2.28.28V62.92c0,2.46.38,2.93,2.35,2.93C220.79,65.85,222.41,63.07,222.41,57Z" style="fill:#576f7f"/><path d="M230.56,59.32a8.18,8.18,0,0,1,8.31-8.46c4.43,0,7.15,2.25,7.25,8.15H235.46c.22,4.59,2.19,6.09,5.41,6.09a10.58,10.58,0,0,0,4.78-1.18v1.4a9.59,9.59,0,0,1-6.78,2.56C233.31,67.88,230.56,64.63,230.56,59.32Zm4.9-1.87,5.69-.28c0-3.72-.5-4.75-2.5-4.75C236.93,52.42,235.62,53.76,235.46,57.45Z" style="fill:#576f7f"/><path d="M247.64,73.16l.91-.25c1-.25,1.15-.4,1.15-1.78V55.29c0-1.31-.15-1.4-1.06-2l-1.09-.69v-1l6.59-.72.44.28L254.39,53h.12A8.92,8.92,0,0,1,260,50.89c3.06,0,6.31,1.94,6.31,7.65,0,6.47-3.9,9.34-9.31,9.34a12.09,12.09,0,0,1-2.56-.31,10.91,10.91,0,0,1,.16,1.91v1.65c0,1.41.09,1.56,1.06,1.78l1.19.25v1.19h-9.25Zm13.65-13.55c0-4.25-1.43-5.91-4-5.91a5.81,5.81,0,0,0-2.69.72V65.13a3.4,3.4,0,0,0,2.59,1.13C259.89,66.26,261.29,65,261.29,59.61Z" style="fill:#576f7f"/><path d="M268.16,63.7c0-2.72,1.59-4.19,6.59-5.37l2.53-.57V55.42c0-2.53-.5-3.06-2.41-3.06-1,0-1.15.25-1.25,1.15-.15,2-.9,2.78-2.59,2.78-1.47,0-2.12-.71-2.12-2,0-2.1,2.71-3.47,7-3.47,4,0,6.27,1.25,6.27,4.28v8.34c0,1.12.13,1.59.78,1.9a3.93,3.93,0,0,0,1.5.32v1.12a6.39,6.39,0,0,1-3.68,1.06c-1.81,0-2.94-.72-3.28-1.9h-.16a5.41,5.41,0,0,1-4.37,1.9C270,67.88,268.16,66.32,268.16,63.7Zm9.12.84v-4.9l-1.56.15c-1.91.13-2.75.94-2.75,3.19,0,2,1,2.5,2.25,2.5A2.29,2.29,0,0,0,277.28,64.54Z" style="fill:#576f7f"/><path d="M285.52,66.29l.91-.22c1-.28,1.15-.44,1.15-1.78v-9c0-1.31-.15-1.4-1.06-2l-1.09-.69v-1l6.59-.72.43.31-.21,2.06h.15a7.41,7.41,0,0,1,4.81-2.37,2.16,2.16,0,0,1,2.41,2.31,2.11,2.11,0,0,1-2.16,2.38A2.3,2.3,0,0,1,295,54.3a.88.88,0,0,0-.84-.44,2.9,2.9,0,0,0-1.62.93v9.5c0,1.47.12,1.62,1,1.78l1.12.22v1.22h-9.15Z" style="fill:#576f7f"/><path d="M302.54,63.63V53.51h-2V52.39c2.5-.84,3.93-2.69,4.84-5.34h2.15V51.3h4.38l-.53,2.21H307.5V63.2c0,1.53.54,2.15,2.13,2.15a12.4,12.4,0,0,0,2.31-.34v1.25c-.72.78-2.34,1.62-5,1.62C304.19,67.88,302.54,66.66,302.54,63.63Z" style="fill:#576f7f"/><path d="M313,66.29l.91-.22c1-.28,1.15-.44,1.15-1.78v-9c0-1.31-.15-1.4-1.06-2l-1.09-.69v-1l6.59-.72.43.31-.22,1.88h.16a10.84,10.84,0,0,1,6-2.19c2.06,0,3.18.75,3.84,2.22h.12a10.9,10.9,0,0,1,6.06-2.22c2.56,0,4,1.38,4,4.19v9.21c0,1.37.16,1.53,1.13,1.78l.9.22v1.22h-8.77V66.29l.81-.19c.9-.25,1-.34,1-1.81V56.45c0-1.87-.53-2.62-2.06-2.62a8.76,8.76,0,0,0-2.91.62c0,.25,0,.34,0,.81v9c0,1.44.15,1.56.94,1.81l.81.19v1.22h-8.5V66.29l.81-.19c.88-.25,1-.34,1-1.81V56.45c0-1.87-.56-2.62-2.06-2.62a8.78,8.78,0,0,0-2.93.59v9.87c0,1.5.12,1.56.93,1.81l.81.19v1.22H313Z" style="fill:#576f7f"/><path d="M343.2,59.32a8.17,8.17,0,0,1,8.3-8.46c4.44,0,7.16,2.25,7.25,8.15H348.1c.22,4.59,2.19,6.09,5.4,6.09a10.55,10.55,0,0,0,4.78-1.18v1.4a9.57,9.57,0,0,1-6.78,2.56C346,67.88,343.2,64.63,343.2,59.32Zm4.9-1.87,5.68-.28c0-3.72-.5-4.75-2.49-4.75C349.57,52.42,348.26,53.76,348.1,57.45Z" style="fill:#576f7f"/><path d="M360.28,66.29l.9-.22c1-.28,1.16-.44,1.16-1.78v-9c0-1.31-.16-1.4-1.06-2l-1.1-.69v-1l6.59-.72.44.28L367,53.08h.16a11.36,11.36,0,0,1,6.22-2.19c2.78,0,4.24,1.38,4.24,4.15v9.25c0,1.37.16,1.53,1.16,1.78l.84.22v1.22H370.8V66.29l.85-.19c.9-.25,1-.34,1-1.81V56.45c0-1.94-.69-2.62-2.28-2.62a10.66,10.66,0,0,0-3.1.59v9.87c0,1.5.1,1.56,1,1.81l.85.19v1.22h-8.84Z" style="fill:#576f7f"/><path d="M382.48,63.63V53.51h-2V52.39c2.5-.84,3.94-2.69,4.84-5.34h2.16V51.3h4.37l-.53,2.21h-3.84V63.2c0,1.53.53,2.15,2.12,2.15a12.4,12.4,0,0,0,2.31-.34v1.25c-.72.78-2.34,1.62-5,1.62C384.14,67.88,382.48,66.66,382.48,63.63Z" style="fill:#576f7f"/><path d="M401.75,59.42c0-5.94,4.31-8.56,8.68-8.56,4.59,0,8.62,2.72,8.62,8.43,0,5.94-4.25,8.59-8.62,8.59C405.74,67.88,401.75,65.13,401.75,59.42Zm12.08,0c0-5.81-1.25-6.94-3.56-6.94-2.09,0-3.31,1.32-3.31,6.63,0,5.87,1.13,7.18,3.56,7.18C412.52,66.29,413.83,65.1,413.83,59.42Z" style="fill:#576f7f"/><path d="M420.58,66.29l.9-.22c1-.28,1.16-.44,1.16-1.78V53.51h-2.28V52.36l2.28-1.06V50.08c0-4.16,3.09-6.65,8-6.65,2.5,0,4,.87,4,2.59a1.77,1.77,0,0,1-1.91,1.84c-1.43,0-2.28-.53-2.4-2.09-.06-.81-.19-.91-.63-.91-1,0-2.06.66-2.06,3.06V51.3h3.78l-.56,2.21h-3.22V64.23c0,1.47.1,1.65,1.07,1.81l1.28.25v1.22h-9.34Z" style="fill:#576f7f"/><path d="M441,66.26l1.09-.22c1-.22,1.25-.38,1.25-2.25V49.58c0-1.91-.28-2-1.25-2.25L441,47.08V45.86h17.87l.34,6.25h-1.38a16,16,0,0,0-1.78-3.31c-1-1.28-1.75-1.25-4-1.25a12.73,12.73,0,0,0-3.13.28v7.59h.6c2.31,0,2.84-.19,3.28-.91a6.77,6.77,0,0,0,.93-2.12h1.38v7.9h-1.38a9.35,9.35,0,0,0-.93-2.25c-.44-.81-.85-.9-3.28-.9h-.6V63c0,2.84.1,2.81,3.41,2.81,2.65,0,3.12-.12,4.18-1.53a22.19,22.19,0,0,0,2.1-4.15H460l-.47,7.37H441Z" style="fill:#576f7f"/><path d="M461.89,60c0-6.47,4.31-9.06,9.28-9.06a11,11,0,0,1,2.62.31,18.21,18.21,0,0,1-.16-2.25v-1c0-1.43-.18-1.53-1-2l-1.31-.69V44.18l7-.6.44.31a25.26,25.26,0,0,0-.22,3.6V63.42c0,1.53.09,1.68,1,2.06l.94.4V67l-6.5.9-.31-.25.12-1.75h-.12a8.72,8.72,0,0,1-5.53,2C465,67.88,461.89,65.66,461.89,60Zm11.71,4.4V53.8A3.27,3.27,0,0,0,471,52.52c-2.43,0-4.06,1.53-4.06,6.46,0,4.62,1.31,6.09,3.84,6.09A5.78,5.78,0,0,0,473.6,64.35Z" style="fill:#576f7f"/><path d="M483.75,63.73V55.14c0-1.31-.06-1.41-1-1.94l-1.16-.62v-1l6.56-.69.53.34V62.48c0,1.84.72,2.53,2.22,2.53a9,9,0,0,0,3.19-.78V55.14c0-1.31-.1-1.44-1-1.94l-1.1-.62v-1l6.56-.69.5.34V63.42c0,1.53.1,1.68,1.06,2.06l.91.4V67l-6.4.9-.44-.31.19-2h-.13A10.81,10.81,0,0,1,488,67.88C485.4,67.88,483.75,66.48,483.75,63.73Z" style="fill:#576f7f"/><path d="M502.52,59.54c0-6.53,5.27-8.68,9.68-8.68,3.18,0,5.06,1,5.06,2.9a2.38,2.38,0,0,1-2.22,2.5c-1.62,0-2.12-1.09-2.25-2.37s-.4-1.41-1.43-1.41c-1.91,0-3.88,1.1-3.88,5.66s1.69,7,5.28,7a9.09,9.09,0,0,0,4.47-1.22v1.41a9,9,0,0,1-6.72,2.59C505.36,67.88,502.52,64.63,502.52,59.54Z" style="fill:#576f7f"/><path d="M518.91,63.7c0-2.72,1.59-4.19,6.59-5.37l2.53-.57V55.42c0-2.53-.5-3.06-2.41-3.06-1,0-1.15.25-1.25,1.15-.15,2-.9,2.78-2.59,2.78-1.47,0-2.12-.71-2.12-2,0-2.1,2.72-3.47,7-3.47,4,0,6.27,1.25,6.27,4.28v8.34c0,1.12.13,1.59.78,1.9a3.93,3.93,0,0,0,1.5.32v1.12a6.39,6.39,0,0,1-3.68,1.06c-1.81,0-2.94-.72-3.28-1.9h-.16a5.41,5.41,0,0,1-4.37,1.9C520.78,67.88,518.91,66.32,518.91,63.7Zm9.12.84v-4.9l-1.56.15c-1.91.13-2.75.94-2.75,3.19,0,2,1,2.5,2.25,2.5A2.29,2.29,0,0,0,528,64.54Z" style="fill:#576f7f"/><path d="M537.93,63.63V53.51h-2V52.39c2.5-.84,3.93-2.69,4.84-5.34h2.15V51.3h4.38l-.54,2.21h-3.84V63.2c0,1.53.53,2.15,2.13,2.15a12.4,12.4,0,0,0,2.31-.34v1.25c-.72.78-2.34,1.62-5,1.62S537.93,66.66,537.93,63.63Z" style="fill:#576f7f"/><path d="M548.39,66.29l.9-.22c1-.28,1.16-.44,1.16-1.78v-9c0-1.31-.16-1.4-1.06-2l-1.1-.69v-1l6.91-.72.43.28c0,.91-.25,2-.25,4.47v8.65c0,1.41.13,1.53,1.13,1.78l.9.22v1.22h-9Zm1.4-20.05a3,3,0,1,1,3,2.71A2.82,2.82,0,0,1,549.79,46.24Z" style="fill:#576f7f"/><path d="M558.85,59.42c0-5.94,4.31-8.56,8.68-8.56,4.59,0,8.62,2.72,8.62,8.43,0,5.94-4.25,8.59-8.62,8.59C562.85,67.88,558.85,65.13,558.85,59.42Zm12.09,0c0-5.81-1.25-6.94-3.57-6.94-2.09,0-3.31,1.32-3.31,6.63,0,5.87,1.13,7.18,3.56,7.18C569.62,66.29,570.94,65.1,570.94,59.42Z" style="fill:#576f7f"/><path d="M577.68,66.29l.9-.22c1-.28,1.16-.44,1.16-1.78v-9c0-1.31-.16-1.4-1.06-2l-1.1-.69v-1l6.59-.72.44.28-.22,1.91h.16a11.35,11.35,0,0,1,6.21-2.19c2.78,0,4.25,1.38,4.25,4.15v9.25c0,1.37.16,1.53,1.16,1.78l.84.22v1.22H588.2V66.29l.85-.19c.9-.25,1-.34,1-1.81V56.45c0-1.94-.69-2.62-2.28-2.62a10.66,10.66,0,0,0-3.1.59v9.87c0,1.5.1,1.56,1,1.81l.85.19v1.22h-8.84Z" style="fill:#576f7f"/></svg>