<svg xmlns="http://www.w3.org/2000/svg" width="452.29" height="338.67" viewBox="0 0 452.29 338.67"><defs><style>.cls-1{opacity:0.87;}.cls-2{fill:#e55e4f;}.cls-3{fill:#242953;}.cls-4{fill:#fbb03b;}.cls-5{fill:#f98d3d;}</style></defs><g id="Layer_2" data-name="Layer 2"><g id="Layer_1-2" data-name="Layer 1"><g id="Fall"><g id="Leaf-2"><g class="cls-1"><path class="cls-2" d="M33.47,303.49a3.36,3.36,0,0,1,1.13-3.63c.57-1.55.94-6.13,1.11-8.16a28.77,28.77,0,0,1,.53-4.4l0-.12a92.78,92.78,0,0,1,4.89-14.4c-1-.12-2-.28-3-.43s-1.92-.29-2.47-.33c-5.6-.34-11.31-2.74-16.51-6.94a60,60,0,0,1-11.89-13c-.21-.33-.43-.74-1-1.88a57,57,0,0,0-3.86-6.72,3.36,3.36,0,0,1-1.1-5.92A61.93,61.93,0,0,1,22.6,227.39a90.55,90.55,0,0,1,13-2c-.09-.24-.18-.47-.26-.71A47.46,47.46,0,0,1,33.17,218a58.46,58.46,0,0,1-1.31-14.43c0-.18,1.14-18.19,4.63-21.3a3.79,3.79,0,0,1,2.9-1,58.29,58.29,0,0,1,37.16,18.4,70.42,70.42,0,0,1,25.7-25.6,3.37,3.37,0,0,1,4.51,1.12c10.15,16,12.68,33.33,7.45,50.54,11.93-1,26.35,3.22,33.53,7.42a3.37,3.37,0,0,1,1.19,4.61,70.43,70.43,0,0,1-25.54,24.92,72,72,0,0,1-16.3,6.87,59.73,59.73,0,0,1-9.71,1.67c-.73.08-1.54.11-2.39.13-1.1,0-3.41.09-4,.45a6.91,6.91,0,0,0-1.39,2.4c-.31.69-.62,1.4-1,2.1A45.75,45.75,0,0,1,83.77,283,60.26,60.26,0,0,1,72.1,293.57a60.92,60.92,0,0,1-16.91,8.27,71.64,71.64,0,0,1-9.14,2,65.92,65.92,0,0,0-8.37,1.84,3.46,3.46,0,0,1-1,.15A3.37,3.37,0,0,1,33.47,303.49Z"/></g><path class="cls-3" d="M156.24,239a4.52,4.52,0,0,0-2.07-2.75c-7-4.09-20.72-8.21-32.57-7.67,4.72-17,2-34.14-8-49.93a4.48,4.48,0,0,0-6-1.48A71.43,71.43,0,0,0,82.2,201.89a59.37,59.37,0,0,0-36.85-17.68,5,5,0,0,0-3.74,1.26c-4,3.57-5,21.92-5,22.1a59.72,59.72,0,0,0,1.34,14.71,45.18,45.18,0,0,0,1.91,6.09,91.74,91.74,0,0,0-11.67,2,63.25,63.25,0,0,0-21.64,10.4h0A4.49,4.49,0,0,0,5.64,247a4.4,4.4,0,0,0,2,1.49,63.4,63.4,0,0,1,3.55,6.28c.62,1.19.85,1.62,1.09,2A61.33,61.33,0,0,0,24.37,270c5.38,4.34,11.31,6.83,17.14,7.19.5,0,1.45.18,2.37.32l1.49.23a101.83,101.83,0,0,0-4.31,13.19l0,.12a28.21,28.21,0,0,0-.56,4.6,55.42,55.42,0,0,1-1,7.62A4.48,4.48,0,0,0,42.54,311a4.71,4.71,0,0,0,1.33-.2A66.05,66.05,0,0,1,52.1,309a73.24,73.24,0,0,0,9.28-2.05,62.09,62.09,0,0,0,17.23-8.42A61.25,61.25,0,0,0,90.49,287.7a47,47,0,0,0,4.93-6.78c.08-.15.15-.3.23-.44.42.95.91,1.88,1.4,2.81a20.81,20.81,0,0,1,1.41,3,33.85,33.85,0,0,1,1.55,9.59,8.91,8.91,0,0,1-.41,3.38,1.85,1.85,0,0,1-1,1.09,3.36,3.36,0,0,0-.19,6.54l9.77,2.55a3.54,3.54,0,0,0,.85.11,3.36,3.36,0,0,0,3.19-2.32c2-6,1.18-13.12-2.2-20a51.82,51.82,0,0,0-7.15-10.84l.48,0a60.27,60.27,0,0,0,9.9-1.7,72.85,72.85,0,0,0,16.54-7,71.61,71.61,0,0,0,25.95-25.31A4.48,4.48,0,0,0,156.24,239ZM105.8,301.85a11.74,11.74,0,0,0,.74-2.69,16.71,16.71,0,0,1-.05,2.91l-.71-.19ZM125.34,260a64.45,64.45,0,0,1-14.51,6.12,52,52,0,0,1-8.46,1.42c-.41.05-1.05.07-1.73.08-2.71.08-6.08.17-8.54,2.06a13,13,0,0,0-3.8,5.46c-.23.53-.46,1-.66,1.39a39.49,39.49,0,0,1-4,5.45,52.58,52.58,0,0,1-10.15,9.24,53.34,53.34,0,0,1-14.75,7.22,67.26,67.26,0,0,1-8.19,1.78l-1.54.27c.14-1.28.25-2.65.37-4.08.09-1.11.22-2.64.28-3l0-.12c2.63-9.66,4.94-15.37,6.88-17a4.48,4.48,0,0,0-5.36-7.16c-1.2.25-4.52-.27-6-.49-1.22-.19-2.27-.35-3.18-.41-5-.31-9.32-3-12.06-5.22a52.4,52.4,0,0,1-10.25-11.14c-.13-.23-.35-.67-.64-1.22-1.17-2.26-2.16-4.09-3.05-5.55A54.24,54.24,0,0,1,30.44,239c2.08-.52,10.58-1.94,13.49-1.89a4.43,4.43,0,0,0,3.34.51,4.49,4.49,0,0,0,3.31-5.38l0-.07a53.69,53.69,0,0,0-2.06-6.24,41.66,41.66,0,0,1-1.82-5.59,50.66,50.66,0,0,1-1.13-12.51,121,121,0,0,1,2-14.34,50.3,50.3,0,0,1,31.94,18.93,4.47,4.47,0,0,0,7.59-.77,62.4,62.4,0,0,1,21.19-24.39c7.92,14.54,8.8,29.7,2.6,45.13a4.48,4.48,0,0,0,5.35,6c8.37-2.33,21,.19,29.17,3.54A63.36,63.36,0,0,1,125.34,260Z"/><path class="cls-3" d="M78,229.46a3.36,3.36,0,1,0-6.68.65,61.79,61.79,0,0,0,13.63,33,3.36,3.36,0,1,0,5.19-4.26A55.14,55.14,0,0,1,78,229.46Z"/><path class="cls-3" d="M98.8,234.52A3.35,3.35,0,0,0,94.29,236a33.11,33.11,0,0,0-3.1,20.06,3.36,3.36,0,0,0,3.31,2.82,4.9,4.9,0,0,0,.54,0A3.37,3.37,0,0,0,97.82,255,26.32,26.32,0,0,1,100.29,239,3.36,3.36,0,0,0,98.8,234.52Z"/></g><g id="Pumpkin"><path class="cls-4" d="M355.08,93.83C347.3,81.24,334.93,72,321,67.13c8.06-5.53,14.52-14.59,17.94-25.57,3.89-12.47,3.85-25.42,3.8-37.95a3.62,3.62,0,0,0-6.53-2.14c-5.15,7-13.17,11.47-21.06,15.32l-4,1.94c-7.21,3.43-14.67,7-21,12.32-6.55,5.5-10.89,12.37-12.45,19.37a240.39,240.39,0,0,1-15-25.25,3.59,3.59,0,0,0-1.53-1.53,2.8,2.8,0,0,0,.08-.77c0-5.25-4.15-10.1-9.81-11.55-4-1-8.44-.5-13.54,1.6a12.42,12.42,0,0,0-4.57,2.91,7.34,7.34,0,0,0-2,6,3.64,3.64,0,0,0-.42,1.82A82.64,82.64,0,0,1,215.47,75a55.21,55.21,0,0,0-45.58-4.41c-18.72,6.43-34.33,22.62-41.76,43.31A80.57,80.57,0,0,0,132,177.27,77.57,77.57,0,0,0,179.48,217a49.49,49.49,0,0,0,14.31,2.06c6.3,0,12.29-1.07,18.49-2.18a134.66,134.66,0,0,1,15.5-2.14c9.07-.57,19.82.15,31.21.92,28.58,1.93,61,4.11,80.63-13.53,16.54-14.85,22.73-35.7,25-50.57C368,129.73,364.59,109.23,355.08,93.83Z"/><path class="cls-3" d="M359.09,98.69C351.31,86.1,338.94,76.84,325,72c8.06-5.53,14.52-14.58,17.94-25.56,3.89-12.48,3.85-25.43,3.8-37.95a3.63,3.63,0,0,0-6.54-2.15c-5.14,7-13.16,11.48-21.05,15.33l-4,1.94c-7.21,3.43-14.67,7-21,12.32-6.54,5.49-10.88,12.37-12.44,19.36A239.24,239.24,0,0,1,266.7,30a3.61,3.61,0,0,0-1.53-1.54,3.16,3.16,0,0,0,.08-.76c0-5.25-4.15-10.11-9.81-11.55-4-1-8.44-.51-13.54,1.59a12.57,12.57,0,0,0-4.58,2.92,7.35,7.35,0,0,0-2,6,3.69,3.69,0,0,0-.42,1.82,82.62,82.62,0,0,1-15.42,51.41,55.25,55.25,0,0,0-45.58-4.4c-18.72,6.43-34.33,22.62-41.76,43.31A80.54,80.54,0,0,0,136,182.12a77.58,77.58,0,0,0,47.5,39.73,49.29,49.29,0,0,0,14.32,2.07c6.3,0,12.29-1.08,18.49-2.18a134.63,134.63,0,0,1,15.5-2.15c9.07-.57,19.82.16,31.21.93,28.57,1.93,61,4.11,80.63-13.54,16.54-14.85,22.73-35.69,25-50.57C372,134.59,368.59,114.09,359.09,98.69ZM298.76,41.46c5.66-4.74,12.38-7.94,19.49-11.33,1.37-.65,2.74-1.3,4.1-2,5.95-2.9,12-6.17,17.15-10.57-.14,9.05-.79,18.14-3.45,26.67-3.78,12.13-11.7,21.45-21.17,24.91l-.16.08a65.53,65.53,0,0,0-23-.2c-1.24-1.57-2.46-3.17-3.66-4.77a3.48,3.48,0,0,0,.25-1.67C287.63,55.43,291.54,47.53,298.76,41.46ZM242.64,25.62a6.2,6.2,0,0,1,2-1.14c3.55-1.47,6.58-1.9,9-1.28S258,25.86,258,27.77a3.65,3.65,0,0,0,.36,1.52,24.31,24.31,0,0,1-15.72-2.66,3.56,3.56,0,0,0-.12-.85A.83.83,0,0,1,242.64,25.62ZM361.48,155.31c-2.1,13.71-7.75,32.86-22.69,46.28-17.39,15.6-48.16,13.53-75.3,11.69-11.63-.78-22.61-1.52-32.15-.92A140.24,140.24,0,0,0,215,214.6c-10.22,1.83-19,3.41-29.46.3a70.35,70.35,0,0,1-43.1-36.05A73.25,73.25,0,0,1,139,121.24c6.7-18.64,20.63-33.19,37.29-38.91,17.39-6,37.76-1.11,49,11.54a58.91,58.91,0,0,0-4.8,4.28,3.62,3.62,0,1,0,5.12,5.13,53.28,53.28,0,0,1,74.06-1.11,3.62,3.62,0,1,0,5-5.28,60.37,60.37,0,0,0-73.38-7.21A46,46,0,0,0,225.42,84a90,90,0,0,0,16.76-49.56A31.25,31.25,0,0,0,261.65,36,248.18,248.18,0,0,0,284,70.92c-.79.25-1.57.5-2.34.78a3.63,3.63,0,0,0,2.46,6.82c24.75-9,55,1.58,68.8,24C361.52,116.43,364.56,135.19,361.48,155.31Z"/><path class="cls-3" d="M203.85,116.1a3.63,3.63,0,0,0-4.88,1.59,85.16,85.16,0,0,0-6.15,60,3.64,3.64,0,0,0,3.5,2.68,3.51,3.51,0,0,0,1-.13,3.63,3.63,0,0,0,2.55-4.45A77.73,77.73,0,0,1,205.44,121,3.62,3.62,0,0,0,203.85,116.1Z"/><path class="cls-3" d="M314.19,119.52a3.62,3.62,0,0,0-1,5,56.3,56.3,0,0,1,8,44.24,3.62,3.62,0,0,0,2.67,4.38,3.53,3.53,0,0,0,.85.1,3.62,3.62,0,0,0,3.52-2.77,63.62,63.62,0,0,0-9.08-50A3.63,3.63,0,0,0,314.19,119.52Z"/><path class="cls-3" d="M254.29,119.92a3.63,3.63,0,0,0-3.41,3.83,314.17,314.17,0,0,1-2.66,62.81,3.63,3.63,0,0,0,3.07,4.11l.52,0a3.63,3.63,0,0,0,3.59-3.11,322.7,322.7,0,0,0,2.72-64.26A3.62,3.62,0,0,0,254.29,119.92Z"/><path class="cls-3" d="M252.31,47.28a3.62,3.62,0,0,0-3.24,4,46.51,46.51,0,0,1,.31,10.38,13.09,13.09,0,0,1-3.48,7.86,3.63,3.63,0,0,0,2.51,6.24,3.57,3.57,0,0,0,2.51-1c3.88-3.71,5.21-8.68,5.65-12.19a52.2,52.2,0,0,0-.29-12A3.61,3.61,0,0,0,252.31,47.28Z"/></g><g id="Leaf"><g class="cls-1"><path class="cls-5" d="M422.78,259.83c12.15-21.17,16.43-45.14,20.16-71.94.64-.62,1.27-1.26,1.88-1.93a3.36,3.36,0,0,0-.2-4.74h0a3.34,3.34,0,0,0-4.74.21l-.28.28a3.33,3.33,0,0,0-3,2.84c-8.37,7.19-19.44,10.57-31.08,14.12-8.35,2.54-17,5.17-24.76,9.36a65.77,65.77,0,0,0-26.87,88.91,3.34,3.34,0,0,0,.68.89,3.39,3.39,0,0,0,1.18.7c.1.11.19.23.3.33a3.31,3.31,0,0,0,2.07.88C382.63,301.24,408,285.58,422.78,259.83Z"/></g><path class="cls-3" d="M450.83,185.16a7.84,7.84,0,0,0-9.73,3.54c-8.17,6.89-19,10.2-30.41,13.67-8.4,2.56-17.09,5.21-25,9.44a66.89,66.89,0,0,0-27.52,90.05,51,51,0,0,1-31.35,28.05,4.48,4.48,0,0,0,2.6,8.57,60.14,60.14,0,0,0,36.83-32.77l.56,0c23.86,0,48-15.62,62.37-40.58,12.19-21.24,16.51-45.2,20.24-72,.56-.55,1.12-1.11,1.65-1.69A4.48,4.48,0,0,0,450.83,185.16Zm-29.38,75.53c-12.88,22.46-34.4,36.42-55.31,36.08a3.86,3.86,0,0,0-.66-.37A57.93,57.93,0,0,1,390,219.7c7.1-3.82,15.35-6.33,23.33-8.76,8.89-2.71,18-5.5,26-10.14C435.93,223.06,431.53,243.12,421.45,260.69Z"/><path class="cls-3" d="M422.13,222.45a3.36,3.36,0,0,0-4.56-1.35,90.46,90.46,0,0,0-44.37,58.27,3.36,3.36,0,1,0,6.54,1.51,83.67,83.67,0,0,1,41-53.88A3.35,3.35,0,0,0,422.13,222.45Z"/></g></g></g></g></svg>