<svg xmlns="http://www.w3.org/2000/svg" width="280.53" height="237.81" viewBox="0 0 280.53 237.81"><defs><style>.cls-1{opacity:0.87;}.cls-2{fill:#e55e4f;}.cls-3{fill:#242953;}.cls-4{fill:#e2507d;}</style></defs><g id="Layer_2" data-name="Layer 2"><g id="Layer_1-2" data-name="Layer 1"><g id="flowers"><g id="flower-1"><g class="cls-1"><path class="cls-2" d="M4.92,112.46c-.25-6.26,2.28-13,7.77-16.08,4.39-2.43,9.77-2.07,14.68-1.06a63.92,63.92,0,0,1,31.54,16.73l5.65-7.27C58,99.52,51.38,94.13,46.89,87.05s-6.53-16.27-3.15-23.94c2.92-6.62,9.45-11.13,16.4-13.17,7.82-2.31,16.94-1.62,23.23,3.57,6.67,5.49,8.95,15,7.91,23.54s-4.9,16.52-8.7,24.27l5.69,3.86a52.24,52.24,0,0,1,11-12c3.61-2.9,7-6.39,10.86-8.93A27.06,27.06,0,0,1,135.89,82a26.49,26.49,0,0,1,12.52,12.64c2.8,5.85,2.13,11.22,2.61,17.4,1.22,15.93-8.74,25.45-24.45,26.05-4.36.16-8.46-.61-12.74-1.29-3-.46-7-.38-9.77-1.67,8.81,4.19,14,17.18,13.83,26.39A31.11,31.11,0,0,1,103.24,187c-5.83,3.54-12.69,5-19.48,5.63-8.16.73-16.92.08-23.61-4.65-14.12-10-14.69-34.15-7.1-48.15-2.86,9.92-20.48,10.21-28,7.51-6.41-2.31-12.94-7.67-15.42-14.18-.95-2.49-.92-5.19-1.64-7.75C6.8,121,5.11,117.06,4.92,112.46Z"/></g><path class="cls-3" d="M146,99.27c-2.55-10.09-8.26-17.44-15.65-20.17-5.31-2-11.55-1.62-17.57,1-5.46,2.35-10,6.2-13.36,9.3A119.81,119.81,0,0,0,88.16,101.3c-.34-.27-.67-.54-1-.8s-.7-.45-1-.67c3.4-5.83,6.69-11.9,8.51-18.74,2.48-9.29,1.46-18.5-2.8-25.25a27.29,27.29,0,0,0-19-12.05,32.82,32.82,0,0,0-21.6,4.63A28.54,28.54,0,0,0,39.75,60.6C36,68.71,37.09,79.27,42.61,88.15c4.42,7.12,10.91,12.47,17,16.8-.28.4-.55.8-.79,1.21l-.11-.09c-9.44-6.23-21.18-14-34.48-15-7.62-.6-14.17,1.39-18.45,5.58C.28,102-1.37,111,1.15,121.83c2.56,11,7.68,19,14.8,23A25.51,25.51,0,0,0,28.61,148a34.48,34.48,0,0,0,14.53-3.38c7.57-3.55,13.84-9.28,19.39-14.51.23.18.45.38.69.55-3.5,6-6.91,12.17-8.77,19.17-2.48,9.3-1.45,18.5,2.8,25.26a27.33,27.33,0,0,0,19,12.05,29.86,29.86,0,0,0,4.34.31,33.52,33.52,0,0,0,17.26-5,28.41,28.41,0,0,0,11.4-12.17c3.76-8.12,2.66-18.67-2.85-27.56A54,54,0,0,0,93.71,129.2c7.29,3.53,15.53,4.2,22.51,4.2l2.27,0c7.26-.13,15.49-1,21.49-6.37C146.64,121,148.89,110.67,146,99.27ZM86.3,117.79a13.94,13.94,0,0,1-9.11,8.15,11.18,11.18,0,0,1-10.88-3.2c-3.49-4.07-2.71-11.44,1.61-15.16a11.2,11.2,0,0,1,7.41-2.92,12.91,12.91,0,0,1,7.28,2.45c3,2.08,3.79,5.64,3.71,10.62ZM49.4,83.93c-4.11-6.62-5-14.27-2.39-20a20.89,20.89,0,0,1,8.27-8.69A24.87,24.87,0,0,1,71.59,51.7,19.24,19.24,0,0,1,85,60.1C88.08,65,88.75,71.88,86.84,79c-1.67,6.28-5,12.19-8.37,17.92a18.63,18.63,0,0,0-12.83,2.44C59.8,95.36,53.41,90.38,49.4,83.93Zm-9.66,53.46c-7.1,3.33-14.52,3.51-19.84.49-6.48-3.67-9.53-11.74-11-17.87-1.08-4.64-2.19-13.11,2.47-17.68,3.52-3.45,9.17-3.56,12.22-3.32,11.24.88,21.58,7.71,30.7,13.74a4,4,0,0,0,2,.64,19.12,19.12,0,0,0,1.3,10.35C52.14,128.93,46.44,134.24,39.74,137.39ZM99.62,147c4.11,6.62,5,14.27,2.39,20a20.8,20.8,0,0,1-8.27,8.68,24.73,24.73,0,0,1-16.3,3.57A19.17,19.17,0,0,1,64,170.83C61,166,60.27,159.05,62.18,151.9c1.68-6.32,5-12.27,8.44-18a19.63,19.63,0,0,0,3.9.4,19,19,0,0,0,4.62-.57,20,20,0,0,0,4.67-1.86C89.53,135.82,95.71,140.71,99.62,147Zm35-26c-4,3.63-10.51,4.22-16.3,4.33-7.7.14-16.51-.3-23.4-4.63a5.19,5.19,0,0,0-.71-.35c.24-4.26.15-8.76-1.41-12.72a4,4,0,0,0,1.29-1,112.26,112.26,0,0,1,10.74-11.39c3.06-2.83,6.78-6,11.09-7.83,4.07-1.75,8.31-2,11.64-.82,6.93,2.56,9.77,11.09,10.67,14.64C139.9,107.77,139.82,116.4,134.64,121.05Z"/></g><g id="flower-2"><g class="cls-1"><path class="cls-2" d="M231.12,113.52c-4.77,1.34-10.45.62-13.79-3-2.66-2.93-3.37-7.14-3.49-11.1A50.54,50.54,0,0,1,221,72.05l-6.62-3c-2.86,6-5.8,12.09-10.43,16.83s-11.34,8-17.86,6.78c-5.62-1-10.28-5.25-13.12-10.22-3.19-5.6-4.32-12.74-1.48-18.53,3-6.13,9.89-9.61,16.68-10.37s13.6.77,20.27,2.28l1.93-5.08a41.33,41.33,0,0,1-11.24-6.26c-2.89-2.26-6.2-4.24-8.85-6.73a21.43,21.43,0,0,1-6.41-19.44A20.94,20.94,0,0,1,191.3,6.34c4-3.22,8.25-3.69,12.92-5.18,12-3.84,21.18,2.1,24.5,14.07a51.55,51.55,0,0,1,1.33,10c.18,2.38,1,5.49.49,7.83,1.62-7.54,10.66-13.93,17.79-15.45a24.57,24.57,0,0,1,22.22,6.65c3.79,3.84,6.18,8.85,7.88,14,2.05,6.15,3.14,13,.72,19C274,70,255.54,74.8,243.39,71.51c8.15.4,11.58,13.91,10.87,20.15-.62,5.36-3.55,11.36-8.11,14.45-1.74,1.19-3.83,1.65-5.67,2.68C237.36,110.52,234.63,112.54,231.12,113.52Z"/></g><path class="cls-3" d="M251.79,69.45c7.46,0,14.21-2.53,18.61-7A22.42,22.42,0,0,0,276.45,45a26.81,26.81,0,0,0-7.74-16.3,23.35,23.35,0,0,0-11.87-6.79c-7.2-1.46-15.42,1.39-21.45,7.45a38.17,38.17,0,0,0-6.08,8.19,52,52,0,0,0-1.95-15.39c-1.46-5.72-3.69-12.07-9.15-15.86-6.07-4.22-14.78-4.09-23.3.36-7.55,3.93-12.34,9.89-13.13,16.36a19.58,19.58,0,0,0,4.11,13.94,39.46,39.46,0,0,0,9.79,8.79,96.8,96.8,0,0,0,10.61,6.18c0,.09-.08.17-.11.27a1.18,1.18,0,0,0-.07.2,59,59,0,0,0-15.42-3c-7.83-.21-15,2.34-19.55,7a22.44,22.44,0,0,0-6,17.49,26.81,26.81,0,0,0,7.74,16.29A23.31,23.31,0,0,0,184.7,97a18.85,18.85,0,0,0,3.83.38,25.45,25.45,0,0,0,17.62-7.82,41.42,41.42,0,0,0,7.31-10.46c-2.43,7.2-4.45,15.37-3.18,23.59,1,6.22,3.82,11.1,8,13.76a15.82,15.82,0,0,0,8.59,2.35,28.49,28.49,0,0,0,12.48-3.31c8.22-4.08,13.57-9.65,15.45-16.09,2-6.88,0-15-5.26-21.64a54.07,54.07,0,0,0-12.24-10.69,54.34,54.34,0,0,0,13.51,2.39ZM241.06,35c4.15-4.18,9.59-6.18,14.18-5.25A15.73,15.73,0,0,1,263,34.25a19.09,19.09,0,0,1,5.48,11.39,14.33,14.33,0,0,1-3.79,11.19c-3,3.09-8,4.77-13.61,4.61-4.87-.13-9.81-1.51-14.63-3a16.1,16.1,0,0,0-1.75-6.29,16.64,16.64,0,0,0-2-3C234.61,44.2,237.16,38.87,241.06,35ZM216.39,65.26c-4.55-3.29-3.67-7.83-2.74-10.25s3.17-3.46,6.71-4.24a10.13,10.13,0,0,1,7.24,5.07,8,8,0,0,1-.42,8.08C224.94,67,219.69,67.65,216.39,65.26ZM192.32,32.15a11.86,11.86,0,0,1-2.6-8.21c.67-5.41,6.43-9,8.88-10.24,4.51-2.35,10.83-3.81,15-.88,3.31,2.29,4.87,7,6,11.27,1.48,5.79,2.72,12.49.72,18.38,0,.05,0,.1,0,.15a24.9,24.9,0,0,0-8.77,3.05,4.08,4.08,0,0,0-.74-.48,88.26,88.26,0,0,1-10.63-6.13A31.55,31.55,0,0,1,192.32,32.15Zm8.16,51.75c-4.15,4.17-9.59,6.18-14.18,5.24a15.66,15.66,0,0,1-7.76-4.55,19.06,19.06,0,0,1-5.48-11.38A14.36,14.36,0,0,1,176.85,62c3-3.09,8-4.77,13.61-4.61,4.84.14,9.74,1.5,14.53,3a15.46,15.46,0,0,0,4,9C207.05,74.37,204.48,79.87,200.48,83.9Zm42.83-1.19c2.85,3.59,5.35,9.26,3.85,14.42-1.57,5.37-7,9-11.33,11.18-3.22,1.59-9.22,3.9-13.24,1.36-2.2-1.39-3.81-4.39-4.4-8.22-1.33-8.6,2-17.69,4.94-25.71a4,4,0,0,0,.23-1.22,15.92,15.92,0,0,0,6.86-2.61C235,75.07,239.87,78.37,243.31,82.71Z"/></g><g id="flower-3"><g class="cls-1"><path class="cls-4" d="M155.21,230.94c-4.14-2.7-7.34-7.42-6.78-12.33.45-3.92,3.14-7.21,6-9.9A50.3,50.3,0,0,1,179.6,196.1l-2.08-6.94c-6.36,1.79-12.86,3.59-19.45,3.24s-13.43-3.24-16.81-8.92c-2.91-4.9-2.82-11.15-1-16.53,2.09-6.08,6.7-11.61,12.9-13.29,6.57-1.77,13.7,1.1,18.72,5.69S180.29,170,183.53,176l5.07-1.88a41.18,41.18,0,0,1-2.69-12.54c-.21-3.64-.9-7.42-.78-11A21.35,21.35,0,0,1,195.49,133a20.9,20.9,0,0,1,13.83-2.26c5,.88,8.18,3.76,12.36,6.28,10.78,6.48,12.34,17.23,5.55,27.58a51,51,0,0,1-6.64,7.59c-1.66,1.7-3.46,4.35-5.54,5.51,6.71-3.74,17.43-1.16,23.25,3.18a24.47,24.47,0,0,1,9.62,21c-.39,5.35-2.57,10.44-5.28,15.07-3.27,5.57-7.68,10.89-13.78,13-12.86,4.5-28.62-6.17-34.14-17.44,5.06,6.37-2.8,17.81-7.95,21.38-4.41,3.06-10.83,4.8-16.15,3.42-2-.53-3.75-1.79-5.72-2.49C161.55,233.64,158.24,232.92,155.21,230.94Z"/></g><path class="cls-3" d="M239.41,186c-3.57-6.24-10.95-10.44-19.28-11a37.55,37.55,0,0,0-9.46.7,51.24,51.24,0,0,0,9.65-11c3.25-4.75,6.48-10.48,5.75-16.93-.81-7.18-6.52-13.5-15.27-16.9-7.75-3-15.21-2.68-20.48.91a19.13,19.13,0,0,0-7.6,12,38.24,38.24,0,0,0-.15,12.82,94.17,94.17,0,0,0,2.26,11.64l-.17.05-.1,0a57.33,57.33,0,0,0-7.7-13.09c-4.89-5.89-11.35-9.47-17.74-9.83a21.92,21.92,0,0,0-16.74,6.82,26.19,26.19,0,0,0-7,16.17,22.78,22.78,0,0,0,2.66,13.09c3.56,6.24,10.95,10.44,19.28,11q1,.06,2,.06a40.15,40.15,0,0,0,9-1.11c-6.46,2.79-13.18,6.47-18.07,12.31-3.94,4.71-5.69,10-4.93,14.78,1,6.21,6.05,11.49,14.28,14.87a34.31,34.31,0,0,0,12.91,2.83,20.79,20.79,0,0,0,8.85-1.86c6.34-3,11-9.61,12.5-17.79a51.31,51.31,0,0,0,.05-15.15,52.24,52.24,0,0,0,6.64,10.81c4.88,5.89,11.34,9.48,17.73,9.84q.54,0,1.08,0a22.06,22.06,0,0,0,15.67-6.86,26.14,26.14,0,0,0,7-16.17A22.82,22.82,0,0,0,239.41,186Zm-52-10.16a4.66,4.66,0,0,1,1.67-.31c1.72,0,3.5.92,5.61,2.47a9.77,9.77,0,0,1,.92,8.42,7.63,7.63,0,0,1-6.09,4.8c-3.56.33-7.41-3.1-7.77-6.93C181.27,178.92,185.1,176.68,187.43,175.82Zm3.11-30.33a11.38,11.38,0,0,1,4.29-7.09c4.33-3,10.58-1,13.07-.06,4.58,1.77,9.67,5.42,10.22,10.33.43,3.85-2,8-4.4,11.52-3.27,4.77-7.36,10-12.92,12.26l-.08,0a24.38,24.38,0,0,0-7.75-4.4,4.45,4.45,0,0,0-.13-.8,84.41,84.41,0,0,1-2.33-11.68A30.43,30.43,0,0,1,190.54,145.49Zm-32.7,39c-5.67-.35-10.59-3-12.83-6.94a15.13,15.13,0,0,1-1.64-8.53,18.44,18.44,0,0,1,4.78-11.23,13.8,13.8,0,0,1,10.53-4.37c4.17.23,8.55,2.76,12,7,3,3.59,5.11,8,7.09,12.42a15.22,15.22,0,0,0-3.94,8.67C168.93,183.21,163.3,184.83,157.84,184.49Zm28.21,30.65c-.79,4.35-3.31,9.78-8,12-4.89,2.28-11,.65-15.34-1.12-3.21-1.32-8.7-4.2-9.42-8.72-.39-2.47.76-5.53,3.17-8.4,5.41-6.46,14.18-9.85,21.91-12.83a4.19,4.19,0,0,0,1-.57,15.74,15.74,0,0,0,6.21,3.29C186.32,204.25,187,209.88,186.05,215.14Zm48-16.67a18.35,18.35,0,0,1-4.78,11.23,13.78,13.78,0,0,1-10.52,4.38c-4.17-.24-8.55-2.77-12-7-3-3.61-5.15-8.07-7.14-12.52a15.73,15.73,0,0,0,3.45-5.29,16.2,16.2,0,0,0,.91-3.41c4.83-1.7,10.32-3.23,15.64-2.9,5.67.36,10.59,3,12.83,6.94A15.2,15.2,0,0,1,234.09,198.47Z"/></g></g></g></g></svg>