<svg id="Layer_1" data-name="Layer 1" xmlns="http://www.w3.org/2000/svg" viewBox="0 0 1601.87 193.62"><rect width="1601.87" height="193.62" style="fill:#009a44"/><g style="opacity:0.2"><path d="M1073.73.93a1.23,1.23,0,0,0,.2.82,3.09,3.09,0,0,0,2,1.51,2.66,2.66,0,0,0,2.4-.47c.07-.09.26-.31,0-1a2.59,2.59,0,0,0-1-1.13H1074A.68.68,0,0,0,1073.73.93Z" style="fill:none"/><path d="M1534.71,1.37l24.46,38a37.43,37.43,0,0,1,5.17-1.53,40.49,40.49,0,0,1,32,6.62l6.74-5.9V.68H1534A2.45,2.45,0,0,1,1534.71,1.37Z" style="fill:none"/><path d="M1070.28,25.28h0a24.47,24.47,0,0,0,21.83-1.62c7.58-4.27,15-14.75,13.52-23h-24.41a3.94,3.94,0,0,1-.49,4.16,4.65,4.65,0,0,1-1.64,1.2,6.25,6.25,0,0,1-4,.32,6.41,6.41,0,0,1-4-3.08,4.57,4.57,0,0,1-.58-2.6h-20.13c.67,3.89,2.61,8.15,5.86,12.9A31.58,31.58,0,0,0,1070.28,25.28Zm-6.76-15.87a1.89,1.89,0,0,1,2.2,1.53c.56,3.11,3.71,5.1,6.4,5.64,3.52.7,7.27-.32,10.15-1.28a11.85,11.85,0,0,0,4.22-2.13A8.24,8.24,0,0,0,1088.68,9a28.6,28.6,0,0,0,.5-5.51,1.9,1.9,0,0,1,3.8.09,30.8,30.8,0,0,1-.6,6.27,11.76,11.76,0,0,1-3.32,6.11,11.72,11.72,0,0,1-3.25,2.05,23.84,23.84,0,0,1-2.34.89c-3.32,1.11-7.7,2.28-12.09,1.4-4-.8-8.52-3.8-9.4-8.68A1.9,1.9,0,0,1,1063.52,9.41Z" style="fill:none"/><path d="M722.46,22.1a3,3,0,0,0,2.66.6c.11-.05.41-.2.41-1a3.06,3.06,0,0,0-1-2.17,3.58,3.58,0,0,0-2.34-1,1.3,1.3,0,0,0-.91.18,1.33,1.33,0,0,0-.18.92A3.5,3.5,0,0,0,722.46,22.1Z" style="fill:none"/><path d="M1572.88,71.86a3,3,0,0,0,2.67.6c.11,0,.4-.2.4-1a3.06,3.06,0,0,0-1-2.17,3.62,3.62,0,0,0-2.34-1,1.36,1.36,0,0,0-.91.19,1.34,1.34,0,0,0-.17.92A3.52,3.52,0,0,0,1572.88,71.86Z" style="fill:none"/><path d="M1572.89,42a35,35,0,0,0-7.47.8,30.05,30.05,0,0,0-6.18,2h0a20.43,20.43,0,0,0-8.69,7c-3.36,5-4.15,12.12-2.39,21.66a35.36,35.36,0,0,0,9,18.33h0a27.32,27.32,0,0,0,23,8.26c8.44-.8,18.86-6.47,22.91-13.91V61.25a28.89,28.89,0,0,0-5.94-9.43C1591.1,45.53,1582.09,42,1572.89,42Zm-3.64,23.95a4.67,4.67,0,0,1,3.55-1.19,7.23,7.23,0,0,1,4.66,2,6.6,6.6,0,0,1,2.06,4.74,4.45,4.45,0,0,1-2.4,4.23,5,5,0,0,1-2.22.48,7,7,0,0,1-4.21-1.47,7.1,7.1,0,0,1-2.68-5A4.58,4.58,0,0,1,1569.25,65.94Zm-11.7-12.81a6.41,6.41,0,0,1,6-2.64,4.82,4.82,0,0,1,3,1.55,5.27,5.27,0,0,1,1.05,2.39,8.21,8.21,0,0,1-3,7.74c-2.44,1.94-6.12,0-7.48-2.45A6.42,6.42,0,0,1,1557.55,53.13ZM1590.21,80a34.44,34.44,0,0,1-3.46,6.14,12.09,12.09,0,0,1-10.42,5.36c-.94,0-1.88-.07-2.8-.16-3.9-.37-8.9-1.17-13-4.06-3.77-2.66-7-7.75-5.66-13.15a2.13,2.13,0,0,1,4.13,1c-.84,3.44,1.47,6.9,4,8.67,3.27,2.31,7.57,3,11,3.3a13.22,13.22,0,0,0,5.28-.26,9.18,9.18,0,0,0,4.14-3.26,31.84,31.84,0,0,0,3-5.41,2.12,2.12,0,1,1,3.84,1.82Zm0-15.33c-1.6,1.22-3.68,1.86-5.42.71a6.32,6.32,0,0,1-3.18-5.52,5.85,5.85,0,0,1,5.22-5.33,5.62,5.62,0,0,1,5.78,4.62A6,6,0,0,1,1590.22,64.62Z" style="fill:none"/><path d="M1600.83,48.29a28.68,28.68,0,0,1,2.27,2.64V45.3l-2.81,2.46C1600.47,47.93,1600.66,48.1,1600.83,48.29Z" style="fill:none"/><path d="M15,96.38c6,6.27,14,9.12,23,8.26,9.72-.92,22.09-8.3,24.29-17.42C65,75.93,62.15,63.83,55,56.39c-6.06-6.3-15.07-9.83-24.27-9.83a35.64,35.64,0,0,0-7.47.79,30.68,30.68,0,0,0-6.18,2h0a20.41,20.41,0,0,0-8.69,7C5,61.43,4.21,68.51,6,78.06a35.28,35.28,0,0,0,9,18.32ZM44.65,59a5.65,5.65,0,0,1,5.79,4.63A6.06,6.06,0,0,1,48,69.19c-1.6,1.22-3.69,1.86-5.43.71a6.33,6.33,0,0,1-3.17-5.52A5.85,5.85,0,0,1,44.65,59ZM27.07,70.51a4.64,4.64,0,0,1,3.55-1.2,7.23,7.23,0,0,1,4.66,2A6.61,6.61,0,0,1,37.34,76a4.46,4.46,0,0,1-2.4,4.23,5.16,5.16,0,0,1-2.23.48,7,7,0,0,1-4.21-1.48,7.08,7.08,0,0,1-2.67-5A4.58,4.58,0,0,1,27.07,70.51ZM15.37,57.7a6.42,6.42,0,0,1,6-2.65,4.78,4.78,0,0,1,3,1.56A5.28,5.28,0,0,1,25.48,59a8.19,8.19,0,0,1-3,7.74c-2.43,2-6.11,0-7.47-2.45A6.4,6.4,0,0,1,15.37,57.7Zm-2.67,21a2.13,2.13,0,0,1,4.13,1c-.84,3.43,1.47,6.9,4,8.67,3.27,2.31,7.57,3,11,3.3A13,13,0,0,0,37,91.36a9.09,9.09,0,0,0,4.13-3.26,31.11,31.11,0,0,0,3-5.4A2.12,2.12,0,1,1,48,84.52a34.65,34.65,0,0,1-3.45,6.13,13.08,13.08,0,0,1-6.18,4.74,13.13,13.13,0,0,1-4.24.62c-.95,0-1.88-.07-2.8-.15-3.9-.38-8.9-1.18-13-4.06C14.59,89.14,11.38,84,12.7,78.65Z" style="fill:none"/><path d="M880.66,116.11a2.66,2.66,0,0,0,2.4-.47c.07-.09.26-.31,0-1a2.75,2.75,0,0,0-1.57-1.42,3.26,3.26,0,0,0-2.26.06,1.16,1.16,0,0,0-.68.48,1.14,1.14,0,0,0,.19.82A3.14,3.14,0,0,0,880.66,116.11Z" style="fill:none"/><path d="M459.66,46.39A31.69,31.69,0,0,0,453,45.7a27.47,27.47,0,0,0-5.79.63h0a18.13,18.13,0,0,0-8.9,4.52c-3.88,3.78-5.88,9.83-6.12,18.51a31.62,31.62,0,0,0,4.48,17.7h0a24.46,24.46,0,0,0,18.62,11.5c8.67,1,20.86-3.17,24.47-10.73,4.48-9.38,4.22-20.5-.67-28.33A30.36,30.36,0,0,0,459.66,46.39Zm-4.3,19.89a6.47,6.47,0,0,1,3.71,2.57,5.92,5.92,0,0,1,.93,4.53,4,4,0,0,1-2.89,3.26,4.48,4.48,0,0,1-2,0,6.21,6.21,0,0,1-3.41-2.08,6.32,6.32,0,0,1-1.42-4.83A4.07,4.07,0,0,1,452,66.67,4.17,4.17,0,0,1,455.36,66.28Zm-11.18-13A5.73,5.73,0,0,1,450,52.1,4.3,4.3,0,0,1,452.3,54a4.68,4.68,0,0,1,.48,2.28,7.31,7.31,0,0,1-4,6.22c-2.49,1.25-5.35-1.1-6.09-3.53A5.73,5.73,0,0,1,444.18,53.29Zm23.58,29.52a31.13,31.13,0,0,1-4.16,4.73,10.79,10.79,0,0,1-10.11,2.75c-.82-.17-1.63-.41-2.41-.65-3.35-1-7.57-2.68-10.62-6-2.8-3-4.66-8.08-2.51-12.55a1.9,1.9,0,0,1,3.43,1.64c-1.38,2.85,0,6.31,1.87,8.32,2.43,2.63,6.07,4,9,4.92a11.72,11.72,0,0,0,4.67.75,8.2,8.2,0,0,0,4.23-2.08,28.07,28.07,0,0,0,3.63-4.17,1.9,1.9,0,1,1,3,2.3Zm2.86-13.4c-1.62.77-3.57.94-4.88-.39A5.66,5.66,0,0,1,464,63.6a5.24,5.24,0,0,1,5.55-3.7,5,5,0,0,1,4.2,5.12A5.43,5.43,0,0,1,470.62,69.41Z" style="fill:none"/><path d="M1155,166.61a35,35,0,0,0-7.48.8,31.09,31.09,0,0,0-6.18,2h0a20.36,20.36,0,0,0-8.68,7c-2.81,4.19-3.81,9.82-3.06,17.1h20.53a4.41,4.41,0,0,1,1.23-3,4.7,4.7,0,0,1,3.56-1.19,7.25,7.25,0,0,1,4.66,1.95,6.66,6.66,0,0,1,1.54,2.23h26.1a31,31,0,0,0-7.94-17.11C1173.18,170.15,1164.18,166.61,1155,166.61Zm-8.2,20.18c-2.43,1.94-6.11,0-7.47-2.45a6.27,6.27,0,0,1,6.37-9.23,4.8,4.8,0,0,1,3,1.55,5.07,5.07,0,0,1,1,2.39A8.18,8.18,0,0,1,1146.78,186.79Zm25.53,2.46c-1.6,1.21-3.69,1.85-5.43.7a6.29,6.29,0,0,1-3.17-5.52,5.83,5.83,0,0,1,5.21-5.33,5.64,5.64,0,0,1,5.79,4.62A6.11,6.11,0,0,1,1172.31,189.25Z" style="fill:none"/><path d="M456.33,73.54c.11,0,.39-.1.54-.81a2.78,2.78,0,0,0-.43-2.08,3.23,3.23,0,0,0-1.87-1.27,1.12,1.12,0,0,0-.83,0,1.19,1.19,0,0,0-.33.77,3.2,3.2,0,0,0,.7,2.38A2.66,2.66,0,0,0,456.33,73.54Z" style="fill:none"/><path d="M30.7,76.42a3,3,0,0,0,2.66.61c.11-.06.41-.2.41-1a3.06,3.06,0,0,0-1-2.16,3.62,3.62,0,0,0-2.34-1,1.37,1.37,0,0,0-.91.18,1.39,1.39,0,0,0-.17.93A3.45,3.45,0,0,0,30.7,76.42Z" style="fill:none"/><path d="M1381.15,119.06a3,3,0,0,0,2.66.6c.11,0,.41-.2.41-1a3.06,3.06,0,0,0-1-2.16,3.64,3.64,0,0,0-2.34-1,1.36,1.36,0,0,0-.91.19,1.33,1.33,0,0,0-.18.92A3.52,3.52,0,0,0,1381.15,119.06Z" style="fill:none"/><path d="M893.22,90.92a30.32,30.32,0,0,0-23.4.78A31.67,31.67,0,0,0,864,95.07a27.14,27.14,0,0,0-4.31,3.9h0a18.24,18.24,0,0,0-4.55,8.89c-.92,5.33,1,11.41,5.91,18.57a31.54,31.54,0,0,0,14,11.7h0a24.44,24.44,0,0,0,21.82-1.61c7.61-4.29,15-14.81,13.52-23.06C908.52,103.24,901.78,94.4,893.22,90.92Zm-7.47,5.92a5,5,0,0,1,6.4,1.68,5.41,5.41,0,0,1,.05,5.38c-.86,1.58-2.34,2.86-4.18,2.55a5.63,5.63,0,0,1-4.59-3.36A5.21,5.21,0,0,1,885.75,96.84ZM875.54,112.6a4.16,4.16,0,0,1,2.47-2.27,6.51,6.51,0,0,1,4.52-.1,5.93,5.93,0,0,1,3.4,3.13,4,4,0,0,1-.43,4.33,4.45,4.45,0,0,1-1.64,1.2,6.22,6.22,0,0,1-4,.32,6.36,6.36,0,0,1-4-3.08A4.11,4.11,0,0,1,875.54,112.6Zm-12.09-.72a5.61,5.61,0,0,1,1.86-9.86,4.28,4.28,0,0,1,3,.18,4.68,4.68,0,0,1,1.72,1.56,7.34,7.34,0,0,1,.39,7.41C869.17,113.64,865.47,113.41,863.45,111.88Zm33.71,10.82a10.72,10.72,0,0,1-6.57,8.16,23.84,23.84,0,0,1-2.34.89c-3.32,1.11-7.7,2.28-12.09,1.41-4-.81-8.52-3.81-9.4-8.69a1.9,1.9,0,1,1,3.74-.68c.56,3.11,3.71,5.11,6.4,5.64,3.51.7,7.27-.32,10.14-1.28a11.76,11.76,0,0,0,4.22-2.13,8.22,8.22,0,0,0,2.2-4.17,28.6,28.6,0,0,0,.5-5.51,1.9,1.9,0,1,1,3.79.1A30.75,30.75,0,0,1,897.16,122.7Z" style="fill:none"/><path d="M257.18,127.68a3,3,0,0,0,2.67.6c.11-.05.4-.2.4-1a3.06,3.06,0,0,0-1-2.17,3.62,3.62,0,0,0-2.34-1,1.36,1.36,0,0,0-.91.19,1.34,1.34,0,0,0-.17.92A3.52,3.52,0,0,0,257.18,127.68Z" style="fill:none"/><path d="M664,191.53a15.75,15.75,0,0,1-1.08,2h35.93l-33.12-6.94A37.36,37.36,0,0,1,664,191.53Z" style="fill:none"/><path d="M658.19,161.41A30.28,30.28,0,0,0,638.35,149a31.17,31.17,0,0,0-6.7-.46,26.85,26.85,0,0,0-5.76.81h0a18.15,18.15,0,0,0-8.74,4.82c-3.75,3.9-5.54,10-5.49,18.7a31.66,31.66,0,0,0,5.08,17.54h0a26.19,26.19,0,0,0,2.51,3.16h38a13.32,13.32,0,0,0,2.61-3.85C664,180.18,663.34,169.08,658.19,161.41ZM634.73,169a6.54,6.54,0,0,1,3.8,2.45,5.9,5.9,0,0,1,1.07,4.49,4,4,0,0,1-2.78,3.35,4.32,4.32,0,0,1-2,.08,6.18,6.18,0,0,1-3.47-2,6.35,6.35,0,0,1-1.59-4.78,3.86,3.86,0,0,1,5-3.63Zm-11.62-12.6a5.75,5.75,0,0,1,5.73-1.39,4.29,4.29,0,0,1,2.41,1.84,4.56,4.56,0,0,1,.56,2.26,7.36,7.36,0,0,1-3.82,6.36c-2.44,1.33-5.38-.93-6.2-3.32A5.74,5.74,0,0,1,623.11,156.39Zm24.57,28.71a30.72,30.72,0,0,1-4,4.86,11.84,11.84,0,0,1-6.18,3.21,12,12,0,0,1-3.83-.12c-.83-.15-1.64-.35-2.44-.57-3.37-.94-7.65-2.42-10.8-5.6-2.91-2.93-4.94-7.92-2.94-12.46A1.9,1.9,0,0,1,621,176c-1.28,2.9.22,6.31,2.15,8.26,2.53,2.54,6.21,3.8,9.13,4.61a11.71,11.71,0,0,0,4.69.59,8.17,8.17,0,0,0,4.15-2.23,28.33,28.33,0,0,0,3.5-4.29,1.9,1.9,0,0,1,3.09,2.21Zm2.4-13.5c-1.59.82-3.53,1.06-4.88-.22a5.65,5.65,0,0,1-1.94-5.36,5.22,5.22,0,0,1,5.42-3.88,5,5,0,0,1,4.38,5A5.44,5.44,0,0,1,650.08,171.6Z" style="fill:none"/><path d="M1153.83,193.12a.8.8,0,0,0-.16.43h3a3.65,3.65,0,0,0-1.89-.61A1.3,1.3,0,0,0,1153.83,193.12Z" style="fill:none"/><path d="M288.78,138.48c2.72-11.29-.15-23.4-7.32-30.84-6.06-6.29-15.07-9.83-24.27-9.83a35,35,0,0,0-7.47.8,30.67,30.67,0,0,0-6.18,2h0a20.33,20.33,0,0,0-8.69,7c-3.36,5-4.15,12.12-2.39,21.66a35.36,35.36,0,0,0,9,18.33h0a27.32,27.32,0,0,0,23,8.26C274.21,155,286.58,147.59,288.78,138.48Zm-35.23-16.72a4.67,4.67,0,0,1,3.55-1.19,7.23,7.23,0,0,1,4.66,2,6.6,6.6,0,0,1,2.06,4.74,4.45,4.45,0,0,1-2.4,4.23,5,5,0,0,1-2.22.48A7,7,0,0,1,255,130.5a7.1,7.1,0,0,1-2.68-5A4.58,4.58,0,0,1,253.55,121.76ZM241.85,109a6.41,6.41,0,0,1,6-2.64,4.82,4.82,0,0,1,3,1.55,5.27,5.27,0,0,1,1.05,2.39,8.21,8.21,0,0,1-3,7.74c-2.44,1.94-6.12,0-7.48-2.45A6.42,6.42,0,0,1,241.85,109Zm32.66,26.82a34.44,34.44,0,0,1-3.46,6.14,12.09,12.09,0,0,1-10.42,5.36c-.94,0-1.88-.07-2.8-.16-3.9-.37-8.9-1.17-13-4.06-3.77-2.66-7-7.75-5.66-13.15a2.13,2.13,0,0,1,4.13,1c-.84,3.43,1.47,6.89,4,8.66,3.27,2.31,7.57,3,11,3.3a13.22,13.22,0,0,0,5.28-.26,9.18,9.18,0,0,0,4.14-3.26,31.84,31.84,0,0,0,3-5.41,2.12,2.12,0,0,1,3.84,1.82Zm0-15.33c-1.6,1.22-3.68,1.86-5.42.71a6.32,6.32,0,0,1-3.18-5.52,5.85,5.85,0,0,1,5.22-5.33,5.62,5.62,0,0,1,5.78,4.62A6,6,0,0,1,274.52,120.44Z" style="fill:none"/><path d="M635.94,176.21c.11,0,.39-.11.52-.83a2.73,2.73,0,0,0-.51-2,3.22,3.22,0,0,0-1.91-1.22,1.17,1.17,0,0,0-.83,0,1.2,1.2,0,0,0-.3.79,3.12,3.12,0,0,0,.78,2.35A2.62,2.62,0,0,0,635.94,176.21Z" style="fill:none"/><path d="M611.32,190.22l-11.2,3.33h13.27c-.15-.2-.3-.41-.44-.62A30.87,30.87,0,0,1,611.32,190.22Z" style="fill:none"/><path d="M1381.16,89.19a35.57,35.57,0,0,0-7.47.79,31,31,0,0,0-6.19,2h0a20.51,20.51,0,0,0-8.68,7c-3.37,5-4.15,12.13-2.4,21.67a35.43,35.43,0,0,0,9,18.33h0c6,6.26,14,9.11,23,8.26,9.72-.93,22.08-8.31,24.28-17.42,2.73-11.3-.14-23.4-7.31-30.84C1399.37,92.73,1390.36,89.19,1381.16,89.19Zm-3.65,24a4.7,4.7,0,0,1,3.56-1.2,7.31,7.31,0,0,1,4.66,2,6.58,6.58,0,0,1,2.06,4.74,4.45,4.45,0,0,1-2.41,4.23,5,5,0,0,1-2.22.48,7,7,0,0,1-4.21-1.48,7.13,7.13,0,0,1-2.68-5A4.64,4.64,0,0,1,1377.51,113.14Zm-11.69-12.81a6.4,6.4,0,0,1,6-2.64,4.8,4.8,0,0,1,3,1.55,5.08,5.08,0,0,1,1.05,2.38,8.2,8.2,0,0,1-3,7.75c-2.43,1.94-6.11,0-7.47-2.45A6.4,6.4,0,0,1,1365.82,100.33Zm32.65,26.82a35.08,35.08,0,0,1-3.45,6.14,12,12,0,0,1-10.42,5.35c-.95,0-1.89-.06-2.8-.15-3.9-.37-8.9-1.17-13-4.06-3.77-2.66-7-7.75-5.66-13.15a2.12,2.12,0,0,1,4.12,1c-.84,3.44,1.48,6.9,4,8.67,3.27,2.31,7.57,3,10.94,3.3a13.21,13.21,0,0,0,5.28-.26,9.12,9.12,0,0,0,4.14-3.26,30.88,30.88,0,0,0,3-5.41,2.12,2.12,0,0,1,3.84,1.82Zm0-15.33c-1.6,1.22-3.69,1.86-5.43.71a6.29,6.29,0,0,1-3.17-5.52,5.84,5.84,0,0,1,5.21-5.34,5.65,5.65,0,0,1,5.79,4.63A6.09,6.09,0,0,1,1398.49,111.82Z" style="fill:none"/><path d="M1598,98.73a40.09,40.09,0,0,1-5,2.84l10,32.94a2.55,2.55,0,0,1-1.7,3.18,2.33,2.33,0,0,1-.74.11,2.56,2.56,0,0,1-2.44-1.81l-9.87-32.49a33.42,33.42,0,0,1-11,1.82,32.37,32.37,0,0,1-23.69-10c-.82-.85-1.59-1.75-2.33-2.68l-36.82,18.47a2.55,2.55,0,1,1-2.28-4.56l36.2-18.16a43.1,43.1,0,0,1-5.13-14,52.7,52.7,0,0,1-1-11.52l-38.71-3.47a2.55,2.55,0,0,1,.45-5.08l38.84,3.48A24.21,24.21,0,0,1,1546.3,49a24.49,24.49,0,0,1,8.22-7.48l-24.1-37.38a2.54,2.54,0,0,1,.68-3.45H1350.26l2.8,9.21a2.55,2.55,0,0,1-1.7,3.18,2.33,2.33,0,0,1-.74.11,2.54,2.54,0,0,1-2.43-1.81L1344.94.68H1110.21c.61,4.79-.8,10.22-4.08,15.43a37.68,37.68,0,0,1-3.07,4.15l20.14,23.28a2.28,2.28,0,0,1-.23,3.21,2.18,2.18,0,0,1-.57.36,2.27,2.27,0,0,1-2.65-.59l-19.87-23a30.75,30.75,0,0,1-5.54,4.09c-.92.51-1.85,1-2.79,1.4a28.93,28.93,0,0,1-23,.46,28.7,28.7,0,0,1-2.87-1.34l-23.38,28.46a2.21,2.21,0,0,1-.83.64,2.28,2.28,0,0,1-2.69-3.53l23-28a38.45,38.45,0,0,1-9.28-9.6,47.39,47.39,0,0,1-5-9.07l-32.9,11.22a2.28,2.28,0,0,1-1.47-4.31l33-11.26c-.15-.69-.27-1.38-.37-2H752.28a38,38,0,0,1,7.84,22.57l41.45,1.3a2.55,2.55,0,0,1-.08,5.1h-.08L760,28.34A40.66,40.66,0,0,1,759,34.1c-1.33,5.52-5.41,10.8-11.48,14.87a40,40,0,0,1-5,2.84l10,32.94a2.55,2.55,0,0,1-1.7,3.18,2.42,2.42,0,0,1-.74.11,2.53,2.53,0,0,1-2.44-1.8l-9.87-32.5a33.5,33.5,0,0,1-11,1.82,32.4,32.4,0,0,1-23.7-10,34.81,34.81,0,0,1-2.32-2.68L663.92,61.39a2.61,2.61,0,0,1-1.14.27,2.55,2.55,0,0,1-1.15-4.83l36.2-18.15a43,43,0,0,1-5.12-14,52.22,52.22,0,0,1-1-11.53L653,9.66a2.55,2.55,0,0,1,.46-5.08l38.84,3.48A24.57,24.57,0,0,1,695,.68H0V17.53L17,43.89a37.41,37.41,0,0,1,5.17-1.52,40.44,40.44,0,0,1,32,6.61L79.3,27a2.55,2.55,0,0,1,3.36,3.84L58.1,52.32c.18.18.38.35.55.53,6,6.27,9.46,15.3,9.72,24.72l41.44,1.31a2.55,2.55,0,0,1-.08,5.09h-.08L68.2,82.66a41.93,41.93,0,0,1-1,5.76c-1.33,5.52-5.41,10.8-11.48,14.87a40.58,40.58,0,0,1-5,2.85l10,32.94a2.55,2.55,0,0,1-1.7,3.18,2.71,2.71,0,0,1-.74.11,2.56,2.56,0,0,1-2.44-1.81L46,108.06a33.83,33.83,0,0,1-7.52,1.66c-1.17.11-2.34.17-3.49.17a32.34,32.34,0,0,1-23.69-10c-.82-.85-1.59-1.74-2.33-2.67l-9,4.5v91.8H284.24a2.54,2.54,0,0,1-1.88-1.74l-9.87-32.49a33.42,33.42,0,0,1-11,1.82,32.37,32.37,0,0,1-23.69-10c-.82-.85-1.59-1.75-2.33-2.68L198.64,167a2.55,2.55,0,0,1-2.28-4.56l36.2-18.15a43.24,43.24,0,0,1-5.13-14,52.7,52.7,0,0,1-1-11.52l-38.71-3.47a2.55,2.55,0,0,1,.45-5.08l38.84,3.48a24.21,24.21,0,0,1,3.54-8.83,24.49,24.49,0,0,1,8.22-7.48L214.72,60A2.55,2.55,0,0,1,219,57.19l24.46,38a36.08,36.08,0,0,1,5.17-1.52,40.44,40.44,0,0,1,32,6.61l25.13-22a2.54,2.54,0,1,1,3.35,3.83l-24.55,21.51c.18.18.37.34.54.53,6,6.26,9.46,15.3,9.72,24.71l41.44,1.31a2.55,2.55,0,0,1-.07,5.1h-.09l-41.45-1.31a41.79,41.79,0,0,1-.95,5.75c-1.33,5.53-5.41,10.81-11.47,14.88a40.09,40.09,0,0,1-5,2.84l10,32.94a2.55,2.55,0,0,1-1.7,3.18l-.18,0h298.8L609.42,186a38.43,38.43,0,0,1-2.32-13.14,46.27,46.27,0,0,1,1-10.3l-33.55-9.09a2.28,2.28,0,0,1,1.19-4.4l33.66,9.12a21.34,21.34,0,0,1,4.49-7.22,21.82,21.82,0,0,1,8.4-5.3L606.86,109a2.28,2.28,0,1,1,4.2-1.76l15.63,37.24a31.91,31.91,0,0,1,4.78-.54,36.17,36.17,0,0,1,27.17,10.81l25.55-15.45a2.28,2.28,0,0,1,2.36,3.9l-25,15.11c.14.18.28.36.4.55,4.34,6.46,5.94,14.95,4.7,23.28L703,189.76a2.29,2.29,0,0,1,1.77,2.7,2.22,2.22,0,0,1-.58,1.09h420.31a44.61,44.61,0,0,1-.19-6L1085.55,184A2.55,2.55,0,1,1,1086,179l38.84,3.48a24,24,0,0,1,3.54-8.83,24.42,24.42,0,0,1,8.21-7.47l-24.09-37.39a2.55,2.55,0,0,1,4.28-2.76l24.47,38a35.94,35.94,0,0,1,5.16-1.52,40.46,40.46,0,0,1,32,6.61l25.12-22a2.55,2.55,0,1,1,3.36,3.83l-24.56,21.51c.18.18.37.34.55.53a36.19,36.19,0,0,1,9.39,20.64H1603.1v-99A34.35,34.35,0,0,1,1598,98.73ZM524.53,92.1a2.28,2.28,0,0,1-2.69,1.68h-.07l-36-8.84a37.85,37.85,0,0,1-1.89,4.86c-2.19,4.59-6.74,8.45-12.8,10.88a36.53,36.53,0,0,1-4.92,1.56l2.64,30.67a2.28,2.28,0,0,1-2.08,2.47,2.4,2.4,0,0,1-.66,0,2.29,2.29,0,0,1-1.8-2L461.63,103a30.53,30.53,0,0,1-6.88.06c-1.05-.12-2.08-.29-3.09-.5a29,29,0,0,1-18.87-13.12,31.07,31.07,0,0,1-1.54-2.77L395.62,96a2.21,2.21,0,0,1-1.05,0,2.26,2.26,0,0,1-1.73-1.65,2.29,2.29,0,0,1,1.62-2.79l35-9.16a38.25,38.25,0,0,1-1.88-13.22A47.14,47.14,0,0,1,428.92,59L395.7,48.75A2.28,2.28,0,1,1,397,44.4l33.33,10.25a21.33,21.33,0,0,1,4.74-7.06,21.72,21.72,0,0,1,8.57-5L429.54,5.4a2.28,2.28,0,0,1,4.26-1.62l14.36,37.74a31.13,31.13,0,0,1,4.8-.37,36.17,36.17,0,0,1,26.78,11.72L505.8,38.29a2.28,2.28,0,0,1,2.23,4L482.55,56.52c.13.19.26.37.38.56,4.12,6.6,5.44,15.14,3.91,23.43l36,8.83A2.29,2.29,0,0,1,524.53,92.1ZM948,93.58l-.07,0-34.35,14a36,36,0,0,1,1.32,5c.92,5-.49,10.79-4,16.32a36.36,36.36,0,0,1-3.06,4.15L928,156.39a2.27,2.27,0,0,1-.23,3.21,2,2,0,0,1-.56.37,2.29,2.29,0,0,1-2.65-.6l-19.87-23a30.75,30.75,0,0,1-5.54,4.09c-.92.52-1.85,1-2.8,1.4a29,29,0,0,1-23,.47c-1-.4-1.93-.85-2.87-1.35L847.1,169.47a2.25,2.25,0,0,1-.84.64,2.28,2.28,0,0,1-2.69-3.53l23-28a38.27,38.27,0,0,1-9.28-9.6,46.31,46.31,0,0,1-5-9.07l-32.9,11.22a2.28,2.28,0,0,1-1.47-4.31l33-11.26a21.53,21.53,0,0,1-.31-8.5,21.81,21.81,0,0,1,4-9.09l-33.26-21.8a2.28,2.28,0,1,1,2.5-3.81l33.77,22.13a33.1,33.1,0,0,1,3.67-3.12,36.2,36.2,0,0,1,28.57-6.23l12.54-27.1A2.28,2.28,0,0,1,906.56,60L894.3,86.46c.21.09.43.15.64.24,7.21,2.93,13.28,9.07,16.91,16.67l34.34-14A2.28,2.28,0,0,1,948,93.58Zm512.2,33h-.08l-41.46-1.3a40.53,40.53,0,0,1-.94,5.75c-1.33,5.53-5.41,10.81-11.48,14.88a41.25,41.25,0,0,1-5,2.84l10,32.94a2.55,2.55,0,0,1-1.7,3.18,2.42,2.42,0,0,1-.74.11,2.54,2.54,0,0,1-2.44-1.81l-9.87-32.49a34.36,34.36,0,0,1-7.52,1.65c-1.17.11-2.34.17-3.49.17a32.4,32.4,0,0,1-23.7-10,34.81,34.81,0,0,1-2.32-2.68l-36.82,18.47a2.61,2.61,0,0,1-1.14.27,2.55,2.55,0,0,1-1.14-4.83l36.19-18.16a42.94,42.94,0,0,1-5.12-14,52.09,52.09,0,0,1-1-11.52l-38.72-3.48a2.55,2.55,0,1,1,.46-5.07L1351,105a24,24,0,0,1,3.54-8.83,24.45,24.45,0,0,1,8.21-7.48l-24.09-37.38a2.55,2.55,0,0,1,4.28-2.76l24.47,38A37.29,37.29,0,0,1,1372.6,85a40.54,40.54,0,0,1,32,6.61l25.12-22a2.55,2.55,0,0,1,3.36,3.84L1408.55,95l.55.53c6,6.27,9.45,15.31,9.71,24.72l41.45,1.31a2.55,2.55,0,0,1-.08,5.1Z" style="fill:none"/><path d="M1,79A56.34,56.34,0,0,1,0,70.47V96.05l6.08-3A42.73,42.73,0,0,1,1,79Z" style="fill:none"/><path d="M697.72,23.73a35.43,35.43,0,0,0,9,18.33h0a27.34,27.34,0,0,0,23,8.26c9.72-.92,22.08-8.3,24.28-17.42,2.73-11.29-.14-23.4-7.31-30.84-.46-.48-1-.94-1.44-1.38H712.41a4.85,4.85,0,0,1,.76,0,4.8,4.8,0,0,1,3,1.55,5.07,5.07,0,0,1,1.05,2.39,8.18,8.18,0,0,1-3,7.74c-2.43,1.94-6.11,0-7.47-2.45a6.4,6.4,0,0,1,.33-6.59A6.42,6.42,0,0,1,712.22.68H701.17c-.37.45-.73.91-1,1.39C696.75,7.1,696,14.19,697.72,23.73Zm38.69-19a5.64,5.64,0,0,1,5.79,4.62,6.11,6.11,0,0,1-2.4,5.53c-1.6,1.21-3.69,1.85-5.43.7a6.29,6.29,0,0,1-3.17-5.52A5.83,5.83,0,0,1,736.41,4.72ZM718.82,16.18A4.7,4.7,0,0,1,722.38,15a7.25,7.25,0,0,1,4.66,2,6.6,6.6,0,0,1,2.06,4.74,4.45,4.45,0,0,1-2.41,4.23,5,5,0,0,1-2.22.48,7,7,0,0,1-4.21-1.47,7.15,7.15,0,0,1-2.68-5A4.64,4.64,0,0,1,718.82,16.18Zm-14.36,8.15a2.12,2.12,0,1,1,4.12,1c-.84,3.43,1.48,6.89,4,8.66,3.27,2.31,7.57,3,10.94,3.3a13,13,0,0,0,5.28-.26,9.12,9.12,0,0,0,4.14-3.26,30.52,30.52,0,0,0,3-5.41,2.13,2.13,0,0,1,3.84,1.83,34.65,34.65,0,0,1-3.45,6.13,13.25,13.25,0,0,1-6.18,4.74,13.41,13.41,0,0,1-4.24.62c-.95,0-1.89-.07-2.8-.16-3.9-.37-8.9-1.17-13-4.06C706.35,34.82,703.14,29.72,704.46,24.33Z" style="fill:none"/><path d="M4.12,53.56a24.49,24.49,0,0,1,8.22-7.48L0,26.94V62.33l.58.06A24,24,0,0,1,4.12,53.56Z" style="fill:none"/><path d="M653.5,4.58A2.55,2.55,0,0,0,653,9.66l38.72,3.47a52.22,52.22,0,0,0,1,11.53,43,43,0,0,0,5.12,14l-36.2,18.15a2.55,2.55,0,0,0,1.15,4.83,2.61,2.61,0,0,0,1.14-.27l36.82-18.47a34.81,34.81,0,0,0,2.32,2.68,32.4,32.4,0,0,0,23.7,10,33.5,33.5,0,0,0,11-1.82l9.87,32.5a2.53,2.53,0,0,0,2.44,1.8,2.42,2.42,0,0,0,.74-.11,2.55,2.55,0,0,0,1.7-3.18l-10-32.94a40,40,0,0,0,5-2.84C753.6,44.9,757.68,39.62,759,34.1a40.66,40.66,0,0,0,.94-5.76l41.46,1.31h.08a2.55,2.55,0,0,0,.08-5.1l-41.45-1.3A38,38,0,0,0,752.28.68h-7c.49.44,1,.9,1.44,1.38,7.17,7.44,10,19.55,7.31,30.84-2.2,9.12-14.56,16.5-24.28,17.42a27.34,27.34,0,0,1-23-8.26h0a35.43,35.43,0,0,1-9-18.33c-1.75-9.54-1-16.63,2.4-21.66.32-.48.68-.94,1-1.39H695a24.57,24.57,0,0,0-2.68,7.38Z" style="fill:#fff"/><path d="M720.26,24.92a7,7,0,0,0,4.21,1.47,5,5,0,0,0,2.22-.48,4.45,4.45,0,0,0,2.41-4.23A6.6,6.6,0,0,0,727,16.94a7.25,7.25,0,0,0-4.66-2,4.7,4.7,0,0,0-3.56,1.19A4.64,4.64,0,0,0,717.58,20,7.15,7.15,0,0,0,720.26,24.92Zm1.06-6.18a1.3,1.3,0,0,1,.91-.18,3.58,3.58,0,0,1,2.34,1,3.06,3.06,0,0,1,1,2.17c0,.81-.3,1-.41,1a3,3,0,0,1-2.66-.6,3.5,3.5,0,0,1-1.32-2.44A1.33,1.33,0,0,1,721.32,18.74Z" style="fill:#fff"/><path d="M707.13,3.37A6.4,6.4,0,0,0,706.8,10c1.36,2.48,5,4.39,7.47,2.45a8.18,8.18,0,0,0,3-7.74,5.07,5.07,0,0,0-1.05-2.39,4.8,4.8,0,0,0-3-1.55,4.85,4.85,0,0,0-.76,0h-.19A6.42,6.42,0,0,0,707.13,3.37Z" style="fill:#fff"/><path d="M734.37,15.57c1.74,1.15,3.83.51,5.43-.7a6.11,6.11,0,0,0,2.4-5.53,5.64,5.64,0,0,0-5.79-4.62,5.83,5.83,0,0,0-5.21,5.33A6.29,6.29,0,0,0,734.37,15.57Z" style="fill:#fff"/><path d="M710.12,37.47c4.09,2.89,9.09,3.69,13,4.06.91.09,1.85.16,2.8.16a13.41,13.41,0,0,0,4.24-.62,13.25,13.25,0,0,0,6.18-4.74,34.65,34.65,0,0,0,3.45-6.13,2.13,2.13,0,0,0-3.84-1.83,30.52,30.52,0,0,1-3,5.41A9.12,9.12,0,0,1,728.79,37a13,13,0,0,1-5.28.26c-3.37-.32-7.67-1-10.94-3.3-2.51-1.77-4.83-5.23-4-8.66a2.12,2.12,0,1,0-4.12-1C703.14,29.72,706.35,34.82,710.12,37.47Z" style="fill:#fff"/><path d="M1530.42,4.13l24.1,37.38A24.49,24.49,0,0,0,1546.3,49a24.21,24.21,0,0,0-3.54,8.83l-38.84-3.48a2.55,2.55,0,0,0-.45,5.08l38.71,3.47a52.7,52.7,0,0,0,1,11.52,43.1,43.1,0,0,0,5.13,14l-36.2,18.16a2.55,2.55,0,1,0,2.28,4.56l36.82-18.47c.74.93,1.51,1.83,2.33,2.68a32.37,32.37,0,0,0,23.69,10,33.42,33.42,0,0,0,11-1.82l9.87,32.49a2.56,2.56,0,0,0,2.44,1.81,2.33,2.33,0,0,0,.74-.11,2.55,2.55,0,0,0,1.7-3.18l-10-32.94a40.09,40.09,0,0,0,5-2.84,34.35,34.35,0,0,0,5.14-4.2V86.17c-4,7.44-14.47,13.11-22.91,13.91a27.32,27.32,0,0,1-23-8.26h0a35.36,35.36,0,0,1-9-18.33c-1.76-9.54-1-16.63,2.39-21.66a20.43,20.43,0,0,1,8.69-7h0a30.05,30.05,0,0,1,6.18-2,35,35,0,0,1,7.47-.8c9.2,0,18.21,3.54,24.27,9.83a28.89,28.89,0,0,1,5.94,9.43V50.93a28.68,28.68,0,0,0-2.27-2.64c-.17-.19-.36-.36-.54-.53l2.81-2.46V38.52l-6.74,5.9a40.49,40.49,0,0,0-32-6.62,37.43,37.43,0,0,0-5.17,1.53l-24.46-38a2.45,2.45,0,0,0-.67-.69h-2.94A2.54,2.54,0,0,0,1530.42,4.13Z" style="fill:#fff"/><path d="M1570.69,74.68a7,7,0,0,0,4.21,1.47,5,5,0,0,0,2.22-.48,4.45,4.45,0,0,0,2.4-4.23,6.6,6.6,0,0,0-2.06-4.74,7.23,7.23,0,0,0-4.66-2,4.67,4.67,0,0,0-3.55,1.19,4.58,4.58,0,0,0-1.24,3.77A7.1,7.1,0,0,0,1570.69,74.68Zm1-6.18a1.36,1.36,0,0,1,.91-.19,3.62,3.62,0,0,1,2.34,1,3.06,3.06,0,0,1,1,2.17c0,.81-.29,1-.4,1a3,3,0,0,1-2.67-.6,3.52,3.52,0,0,1-1.31-2.44A1.34,1.34,0,0,1,1571.74,68.5Z" style="fill:#fff"/><path d="M1564.7,62.17a8.21,8.21,0,0,0,3-7.74,5.27,5.27,0,0,0-1.05-2.39,4.82,4.82,0,0,0-3-1.55,6.26,6.26,0,0,0-6.37,9.23C1558.58,62.2,1562.26,64.11,1564.7,62.17Z" style="fill:#fff"/><path d="M1586.84,54.48a5.85,5.85,0,0,0-5.22,5.33,6.32,6.32,0,0,0,3.18,5.52c1.74,1.15,3.82.51,5.42-.71a6,6,0,0,0,2.4-5.52A5.62,5.62,0,0,0,1586.84,54.48Z" style="fill:#fff"/><path d="M1589.2,77.12a2.13,2.13,0,0,0-2.83,1,31.84,31.84,0,0,1-3,5.41,9.18,9.18,0,0,1-4.14,3.26,13.22,13.22,0,0,1-5.28.26c-3.38-.32-7.68-1-11-3.3-2.51-1.77-4.82-5.23-4-8.67a2.13,2.13,0,0,0-4.13-1c-1.32,5.4,1.89,10.49,5.66,13.15,4.09,2.89,9.09,3.69,13,4.06.92.09,1.86.16,2.8.16a12.09,12.09,0,0,0,10.42-5.36,34.44,34.44,0,0,0,3.46-6.14A2.13,2.13,0,0,0,1589.2,77.12Z" style="fill:#fff"/><path d="M11.31,99.92a32.34,32.34,0,0,0,23.69,10c1.15,0,2.32-.06,3.49-.17A33.83,33.83,0,0,0,46,108.06l9.87,32.5a2.56,2.56,0,0,0,2.44,1.81,2.71,2.71,0,0,0,.74-.11,2.55,2.55,0,0,0,1.7-3.18l-10-32.94a40.58,40.58,0,0,0,5-2.85c6.07-4.07,10.15-9.35,11.48-14.87a41.93,41.93,0,0,0,1-5.76L109.65,84h.08a2.55,2.55,0,0,0,.08-5.09L68.37,77.57c-.26-9.42-3.68-18.45-9.72-24.72-.17-.18-.37-.35-.55-.53l24.56-21.5A2.55,2.55,0,0,0,79.3,27L54.18,49a40.44,40.44,0,0,0-32-6.61A37.41,37.41,0,0,0,17,43.89L0,17.53v9.41L12.34,46.08a24.49,24.49,0,0,0-8.22,7.48A24,24,0,0,0,.58,62.39L0,62.33v8.14A56.34,56.34,0,0,0,1,79,42.73,42.73,0,0,0,6.08,93L0,96.05v5.7l9-4.5C9.72,98.18,10.49,99.07,11.31,99.92ZM6,78.06C4.21,68.51,5,61.43,8.36,56.39a20.41,20.41,0,0,1,8.69-7h0a30.68,30.68,0,0,1,6.18-2,35.64,35.64,0,0,1,7.47-.79c9.2,0,18.21,3.53,24.27,9.83,7.17,7.44,10,19.54,7.32,30.83-2.2,9.12-14.57,16.5-24.29,17.42-9,.86-17-2-23-8.26h0A35.28,35.28,0,0,1,6,78.06Z" style="fill:#fff"/><path d="M28.5,79.24a7,7,0,0,0,4.21,1.48,5.16,5.16,0,0,0,2.23-.48A4.46,4.46,0,0,0,37.34,76a6.61,6.61,0,0,0-2.06-4.75,7.23,7.23,0,0,0-4.66-2,4.64,4.64,0,0,0-3.55,1.2,4.58,4.58,0,0,0-1.24,3.77A7.08,7.08,0,0,0,28.5,79.24Zm1.06-6.18a1.37,1.37,0,0,1,.91-.18,3.62,3.62,0,0,1,2.34,1,3.06,3.06,0,0,1,1,2.16c0,.82-.3,1-.41,1a3,3,0,0,1-2.66-.61A3.45,3.45,0,0,1,29.39,74,1.39,1.39,0,0,1,29.56,73.06Z" style="fill:#fff"/><path d="M22.51,66.73a8.19,8.19,0,0,0,3-7.74,5.28,5.28,0,0,0-1.05-2.38,4.78,4.78,0,0,0-3-1.56A6.27,6.27,0,0,0,15,64.28C16.4,66.76,20.08,68.68,22.51,66.73Z" style="fill:#fff"/><path d="M42.61,69.9c1.74,1.15,3.83.51,5.43-.71a6.06,6.06,0,0,0,2.4-5.52A5.65,5.65,0,0,0,44.65,59a5.85,5.85,0,0,0-5.21,5.34A6.33,6.33,0,0,0,42.61,69.9Z" style="fill:#fff"/><path d="M18.36,91.8c4.09,2.88,9.09,3.68,13,4.06.92.08,1.85.15,2.8.15a13.13,13.13,0,0,0,4.24-.62,13.08,13.08,0,0,0,6.18-4.74A34.65,34.65,0,0,0,48,84.52a2.12,2.12,0,1,0-3.83-1.82,31.11,31.11,0,0,1-3,5.4A9.09,9.09,0,0,1,37,91.36a13,13,0,0,1-5.28.27c-3.38-.33-7.68-1-11-3.3-2.51-1.77-4.82-5.24-4-8.67a2.13,2.13,0,0,0-4.13-1C11.38,84,14.59,89.14,18.36,91.8Z" style="fill:#fff"/><path d="M1350.62,13.18a2.33,2.33,0,0,0,.74-.11,2.55,2.55,0,0,0,1.7-3.18l-2.8-9.21h-5.32l3.25,10.69A2.54,2.54,0,0,0,1350.62,13.18Z" style="fill:#fff"/><path d="M1460.26,121.51l-41.45-1.31c-.26-9.41-3.67-18.45-9.71-24.72l-.55-.53,24.56-21.5a2.55,2.55,0,0,0-3.36-3.84l-25.12,22a40.54,40.54,0,0,0-32-6.61,37.29,37.29,0,0,0-5.16,1.53l-24.47-38a2.55,2.55,0,0,0-4.28,2.76l24.09,37.38a24.45,24.45,0,0,0-8.21,7.48A24,24,0,0,0,1351,105l-38.84-3.48a2.55,2.55,0,1,0-.46,5.07l38.72,3.48a52.09,52.09,0,0,0,1,11.52,42.94,42.94,0,0,0,5.12,14l-36.19,18.16a2.55,2.55,0,0,0,1.14,4.83,2.61,2.61,0,0,0,1.14-.27l36.82-18.47a34.81,34.81,0,0,0,2.32,2.68,32.4,32.4,0,0,0,23.7,10c1.15,0,2.32-.06,3.49-.17a34.36,34.36,0,0,0,7.52-1.65l9.87,32.49a2.54,2.54,0,0,0,2.44,1.81,2.42,2.42,0,0,0,.74-.11,2.55,2.55,0,0,0,1.7-3.18l-10-32.94a41.25,41.25,0,0,0,5-2.84c6.07-4.07,10.15-9.35,11.48-14.88a40.53,40.53,0,0,0,.94-5.75l41.46,1.3h.08a2.55,2.55,0,0,0,.08-5.1Zm-47.52,8.35c-2.2,9.11-14.56,16.49-24.28,17.42-9,.85-17-2-23-8.26h0a35.43,35.43,0,0,1-9-18.33c-1.75-9.54-1-16.63,2.4-21.67a20.51,20.51,0,0,1,8.68-7h0a31,31,0,0,1,6.19-2,35.57,35.57,0,0,1,7.47-.79c9.2,0,18.21,3.54,24.27,9.83C1412.6,106.46,1415.47,118.56,1412.74,129.86Z" style="fill:#fff"/><path d="M1379,121.87a7,7,0,0,0,4.21,1.48,5,5,0,0,0,2.22-.48,4.45,4.45,0,0,0,2.41-4.23,6.58,6.58,0,0,0-2.06-4.74,7.31,7.31,0,0,0-4.66-2,4.7,4.7,0,0,0-3.56,1.2,4.64,4.64,0,0,0-1.24,3.77A7.13,7.13,0,0,0,1379,121.87Zm1.06-6.17a1.36,1.36,0,0,1,.91-.19,3.64,3.64,0,0,1,2.34,1,3.06,3.06,0,0,1,1,2.16c0,.82-.3,1-.41,1a3,3,0,0,1-2.66-.6,3.52,3.52,0,0,1-1.32-2.44A1.33,1.33,0,0,1,1380,115.7Z" style="fill:#fff"/><path d="M1373,109.37a8.2,8.2,0,0,0,3-7.75,5.08,5.08,0,0,0-1.05-2.38,4.8,4.8,0,0,0-3-1.55,6.26,6.26,0,0,0-6.37,9.23C1366.85,109.4,1370.53,111.31,1373,109.37Z" style="fill:#fff"/><path d="M1395.1,101.67a5.84,5.84,0,0,0-5.21,5.34,6.29,6.29,0,0,0,3.17,5.52c1.74,1.15,3.83.51,5.43-.71a6.09,6.09,0,0,0,2.4-5.52A5.65,5.65,0,0,0,1395.1,101.67Z" style="fill:#fff"/><path d="M1397.46,124.32a2.13,2.13,0,0,0-2.83,1,30.88,30.88,0,0,1-3,5.41,9.12,9.12,0,0,1-4.14,3.26,13.21,13.21,0,0,1-5.28.26c-3.37-.32-7.67-1-10.94-3.3-2.51-1.77-4.83-5.23-4-8.67a2.12,2.12,0,0,0-4.12-1c-1.32,5.4,1.89,10.49,5.66,13.15,4.09,2.89,9.09,3.69,13,4.06.91.09,1.85.15,2.8.15a12,12,0,0,0,10.42-5.35,35.08,35.08,0,0,0,3.45-6.14A2.13,2.13,0,0,0,1397.46,124.32Z" style="fill:#fff"/><path d="M1182.37,172.38l24.56-21.51a2.55,2.55,0,1,0-3.36-3.83l-25.12,22a40.46,40.46,0,0,0-32-6.61,35.94,35.94,0,0,0-5.16,1.52l-24.47-38a2.55,2.55,0,0,0-4.28,2.76l24.09,37.39a24.42,24.42,0,0,0-8.21,7.47,24,24,0,0,0-3.54,8.83L1086,179a2.55,2.55,0,1,0-.46,5.08l38.72,3.47a44.61,44.61,0,0,0,.19,6h5.11c-.75-7.28.25-12.91,3.06-17.1a20.36,20.36,0,0,1,8.68-7h0a31.09,31.09,0,0,1,6.18-2,35,35,0,0,1,7.48-.8c9.2,0,18.2,3.54,24.27,9.83a31,31,0,0,1,7.94,17.11h5.12a36.19,36.19,0,0,0-9.39-20.64C1182.74,172.72,1182.55,172.56,1182.37,172.38Z" style="fill:#fff"/><path d="M1154.89,189.37a4.7,4.7,0,0,0-3.56,1.19,4.41,4.41,0,0,0-1.23,3h3.57a.8.8,0,0,1,.16-.43,1.3,1.3,0,0,1,.91-.18,3.65,3.65,0,0,1,1.89.61h4.46a6.66,6.66,0,0,0-1.54-2.23A7.25,7.25,0,0,0,1154.89,189.37Z" style="fill:#fff"/><path d="M1148.69,176.66a4.8,4.8,0,0,0-3-1.55,6.27,6.27,0,0,0-6.37,9.23c1.36,2.48,5,4.39,7.47,2.45a8.18,8.18,0,0,0,3-7.74A5.07,5.07,0,0,0,1148.69,176.66Z" style="fill:#fff"/><path d="M1168.92,179.1a5.83,5.83,0,0,0-5.21,5.33,6.29,6.29,0,0,0,3.17,5.52c1.74,1.15,3.83.51,5.43-.7a6.11,6.11,0,0,0,2.4-5.53A5.64,5.64,0,0,0,1168.92,179.1Z" style="fill:#fff"/><path d="M287.24,190.33l-10-32.94a40.09,40.09,0,0,0,5-2.84c6.06-4.07,10.14-9.35,11.47-14.88a41.79,41.79,0,0,0,.95-5.75l41.45,1.31h.09a2.55,2.55,0,0,0,.07-5.1l-41.44-1.31c-.26-9.41-3.68-18.45-9.72-24.71-.17-.19-.36-.35-.54-.53l24.55-21.51a2.54,2.54,0,1,0-3.35-3.83l-25.13,22a40.44,40.44,0,0,0-32-6.61,36.08,36.08,0,0,0-5.17,1.52L219,57.19A2.55,2.55,0,0,0,214.72,60l24.1,37.38a24.49,24.49,0,0,0-8.22,7.48,24.21,24.21,0,0,0-3.54,8.83l-38.84-3.48a2.55,2.55,0,0,0-.45,5.08l38.71,3.47a52.7,52.7,0,0,0,1,11.52,43.24,43.24,0,0,0,5.13,14l-36.2,18.15a2.55,2.55,0,1,0,2.28,4.56l36.82-18.47c.74.93,1.51,1.83,2.33,2.68a32.37,32.37,0,0,0,23.69,10,33.42,33.42,0,0,0,11-1.82l9.87,32.49a2.54,2.54,0,0,0,1.88,1.74h1.12l.18,0A2.55,2.55,0,0,0,287.24,190.33ZM264.49,155.9a27.32,27.32,0,0,1-23-8.26h0a35.36,35.36,0,0,1-9-18.33c-1.76-9.54-1-16.63,2.39-21.66a20.33,20.33,0,0,1,8.69-7h0a30.67,30.67,0,0,1,6.18-2,35,35,0,0,1,7.47-.8c9.2,0,18.21,3.54,24.27,9.83,7.17,7.44,10,19.55,7.32,30.84C286.58,147.59,274.21,155,264.49,155.9Z" style="fill:#fff"/><path d="M255,130.5A7,7,0,0,0,259.2,132a5,5,0,0,0,2.22-.48,4.45,4.45,0,0,0,2.4-4.23,6.6,6.6,0,0,0-2.06-4.74,7.23,7.23,0,0,0-4.66-2,4.67,4.67,0,0,0-3.55,1.19,4.58,4.58,0,0,0-1.24,3.77A7.1,7.1,0,0,0,255,130.5Zm1.05-6.18a1.36,1.36,0,0,1,.91-.19,3.62,3.62,0,0,1,2.34,1,3.06,3.06,0,0,1,1,2.17c0,.81-.29,1-.4,1a3,3,0,0,1-2.67-.6,3.52,3.52,0,0,1-1.31-2.44A1.34,1.34,0,0,1,256,124.32Z" style="fill:#fff"/><path d="M249,118a8.21,8.21,0,0,0,3-7.74,5.27,5.27,0,0,0-1.05-2.39,4.82,4.82,0,0,0-3-1.55,6.26,6.26,0,0,0-6.37,9.23C242.88,118,246.56,119.93,249,118Z" style="fill:#fff"/><path d="M271.14,110.3a5.85,5.85,0,0,0-5.22,5.33,6.32,6.32,0,0,0,3.18,5.52c1.74,1.15,3.82.51,5.42-.71a6,6,0,0,0,2.4-5.52A5.62,5.62,0,0,0,271.14,110.3Z" style="fill:#fff"/><path d="M273.5,132.94a2.13,2.13,0,0,0-2.83,1,31.84,31.84,0,0,1-3,5.41,9.18,9.18,0,0,1-4.14,3.26,13.22,13.22,0,0,1-5.28.26c-3.38-.32-7.68-1-11-3.3-2.51-1.77-4.82-5.23-4-8.66a2.13,2.13,0,0,0-4.13-1c-1.32,5.4,1.89,10.49,5.66,13.15,4.09,2.89,9.09,3.69,13,4.06.92.09,1.86.16,2.8.16a12.09,12.09,0,0,0,10.42-5.36,34.44,34.44,0,0,0,3.46-6.14A2.13,2.13,0,0,0,273.5,132.94Z" style="fill:#fff"/><path d="M946.19,89.39l-34.34,14c-3.63-7.6-9.7-13.74-16.91-16.67-.21-.09-.43-.15-.64-.24L906.56,60a2.28,2.28,0,0,0-4.14-1.91l-12.54,27.1a36.2,36.2,0,0,0-28.57,6.23,33.1,33.1,0,0,0-3.67,3.12L823.87,72.38a2.28,2.28,0,1,0-2.5,3.81L854.63,98a21.81,21.81,0,0,0-4,9.09,21.53,21.53,0,0,0,.31,8.5l-33,11.26a2.28,2.28,0,0,0,1.47,4.31l32.9-11.22a46.31,46.31,0,0,0,5,9.07,38.27,38.27,0,0,0,9.28,9.6l-23,28a2.28,2.28,0,0,0,2.69,3.53,2.25,2.25,0,0,0,.84-.64L870.47,141c.94.5,1.9,1,2.87,1.35a29,29,0,0,0,23-.47c.95-.42,1.88-.88,2.8-1.4a30.75,30.75,0,0,0,5.54-4.09l19.87,23a2.29,2.29,0,0,0,2.65.6,2,2,0,0,0,.56-.37,2.27,2.27,0,0,0,.23-3.21l-20.13-23.28A36.36,36.36,0,0,0,910.9,129c3.49-5.53,4.9-11.32,4-16.32a36,36,0,0,0-1.32-5l34.35-14,.07,0a2.28,2.28,0,0,0-1.79-4.19Zm-49.31,47.13a24.44,24.44,0,0,1-21.82,1.61h0a31.54,31.54,0,0,1-14-11.7c-4.9-7.16-6.83-13.24-5.91-18.57A18.24,18.24,0,0,1,859.68,99h0a27.14,27.14,0,0,1,4.31-3.9,31.67,31.67,0,0,1,5.82-3.37,30.32,30.32,0,0,1,23.4-.78c8.56,3.48,15.3,12.32,17.18,22.54C911.91,121.71,904.49,132.23,896.88,136.52Z" style="fill:#fff"/><path d="M879.89,119.21a6.22,6.22,0,0,0,4-.32,4.45,4.45,0,0,0,1.64-1.2,4,4,0,0,0,.43-4.33,5.93,5.93,0,0,0-3.4-3.13,6.51,6.51,0,0,0-4.52.1,4.16,4.16,0,0,0-2.47,2.27,4.11,4.11,0,0,0,.36,3.53A6.36,6.36,0,0,0,879.89,119.21Zm-1.38-5.43a1.16,1.16,0,0,1,.68-.48,3.26,3.26,0,0,1,2.26-.06,2.75,2.75,0,0,1,1.57,1.42c.3.67.11.89,0,1a2.66,2.66,0,0,1-2.4.47,3.14,3.14,0,0,1-2-1.51A1.14,1.14,0,0,1,878.51,113.78Z" style="fill:#fff"/><path d="M870.45,111.17a7.34,7.34,0,0,0-.39-7.41,4.68,4.68,0,0,0-1.72-1.56,4.28,4.28,0,0,0-3-.18,5.61,5.61,0,0,0-1.86,9.86C865.47,113.41,869.17,113.64,870.45,111.17Z" style="fill:#fff"/><path d="M888,106.45c1.84.31,3.32-1,4.18-2.55a5.41,5.41,0,0,0-.05-5.38,5,5,0,0,0-6.4-1.68,5.21,5.21,0,0,0-2.32,6.25A5.63,5.63,0,0,0,888,106.45Z" style="fill:#fff"/><path d="M895.9,114.49a1.88,1.88,0,0,0-1.94,1.85,28.6,28.6,0,0,1-.5,5.51,8.22,8.22,0,0,1-2.2,4.17,11.76,11.76,0,0,1-4.22,2.13c-2.87,1-6.63,2-10.14,1.28-2.69-.53-5.84-2.53-6.4-5.64a1.9,1.9,0,1,0-3.74.68c.88,4.88,5.35,7.88,9.4,8.69,4.39.87,8.77-.3,12.09-1.41a23.84,23.84,0,0,0,2.34-.89,10.72,10.72,0,0,0,6.57-8.16,30.75,30.75,0,0,0,.59-6.26A1.9,1.9,0,0,0,895.9,114.49Z" style="fill:#fff"/><path d="M522.86,89.34l-36-8.83c1.53-8.29.21-16.83-3.91-23.43-.12-.19-.25-.37-.38-.56L508,42.26a2.28,2.28,0,0,0-2.23-4L479.74,52.87A36.17,36.17,0,0,0,453,41.15a31.13,31.13,0,0,0-4.8.37L433.8,3.78a2.28,2.28,0,0,0-4.26,1.62l14.14,37.17a21.72,21.72,0,0,0-8.57,5,21.33,21.33,0,0,0-4.74,7.06L397,44.4a2.28,2.28,0,1,0-1.34,4.35L428.92,59a47.14,47.14,0,0,0-1.3,10.26,38.25,38.25,0,0,0,1.88,13.22l-35,9.16a2.29,2.29,0,0,0-1.62,2.79,2.26,2.26,0,0,0,1.73,1.65,2.21,2.21,0,0,0,1.05,0l35.63-9.32a31.07,31.07,0,0,0,1.54,2.77,29,29,0,0,0,18.87,13.12c1,.21,2,.38,3.09.5a30.53,30.53,0,0,0,6.88-.06l2.61,30.26a2.29,2.29,0,0,0,1.8,2,2.4,2.4,0,0,0,.66,0,2.28,2.28,0,0,0,2.08-2.47l-2.64-30.67a36.53,36.53,0,0,0,4.92-1.56c6.06-2.43,10.61-6.29,12.8-10.88a37.85,37.85,0,0,0,1.89-4.86l36,8.84h.07a2.28,2.28,0,0,0,1-4.44Zm-43.12-1.51c-3.61,7.56-15.8,11.73-24.47,10.73a24.46,24.46,0,0,1-18.62-11.5h0a31.62,31.62,0,0,1-4.48-17.7c.24-8.68,2.24-14.73,6.12-18.51a18.13,18.13,0,0,1,8.9-4.52h0A27.47,27.47,0,0,1,453,45.7a31.69,31.69,0,0,1,6.68.69A30.36,30.36,0,0,1,479.07,59.5C484,67.33,484.22,78.45,479.74,87.83Z" style="fill:#fff"/><path d="M450.25,69.74a6.32,6.32,0,0,0,1.42,4.83,6.21,6.21,0,0,0,3.41,2.08,4.48,4.48,0,0,0,2,0A4,4,0,0,0,460,73.38a5.92,5.92,0,0,0-.93-4.53,6.47,6.47,0,0,0-3.71-2.57,4.17,4.17,0,0,0-3.33.39A4.07,4.07,0,0,0,450.25,69.74Zm3.16.4a1.19,1.19,0,0,1,.33-.77,1.12,1.12,0,0,1,.83,0,3.23,3.23,0,0,1,1.87,1.27,2.78,2.78,0,0,1,.43,2.08c-.15.71-.43.78-.54.81a2.66,2.66,0,0,1-2.22-1A3.2,3.2,0,0,1,453.41,70.14Z" style="fill:#fff"/><path d="M448.75,62.52a7.31,7.31,0,0,0,4-6.22A4.68,4.68,0,0,0,452.3,54,4.3,4.3,0,0,0,450,52.1,5.61,5.61,0,0,0,442.66,59C443.4,61.42,446.26,63.77,448.75,62.52Z" style="fill:#fff"/><path d="M469.54,59.9A5.24,5.24,0,0,0,464,63.6,5.66,5.66,0,0,0,465.74,69c1.31,1.33,3.26,1.16,4.88.39A5.43,5.43,0,0,0,473.74,65,5,5,0,0,0,469.54,59.9Z" style="fill:#fff"/><path d="M467.41,80.15a1.9,1.9,0,0,0-2.67.36,28.07,28.07,0,0,1-3.63,4.17,8.2,8.2,0,0,1-4.23,2.08,11.72,11.72,0,0,1-4.67-.75c-2.89-.91-6.53-2.29-9-4.92-1.87-2-3.25-5.47-1.87-8.32A1.9,1.9,0,0,0,438,71.13c-2.15,4.47-.29,9.52,2.51,12.55,3.05,3.28,7.27,4.91,10.62,6,.78.24,1.59.48,2.41.65a10.79,10.79,0,0,0,10.11-2.75,31.13,31.13,0,0,0,4.16-4.73A1.9,1.9,0,0,0,467.41,80.15Z" style="fill:#fff"/><path d="M1013.17,14a2.28,2.28,0,0,0,1.47,4.31l32.9-11.22a47.39,47.39,0,0,0,5,9.07,38.45,38.45,0,0,0,9.28,9.6l-23,28a2.28,2.28,0,0,0,2.69,3.53,2.21,2.21,0,0,0,.83-.64l23.38-28.46a28.7,28.7,0,0,0,2.87,1.34,28.93,28.93,0,0,0,23-.46c.94-.42,1.87-.89,2.79-1.4a30.75,30.75,0,0,0,5.54-4.09l19.87,23a2.27,2.27,0,0,0,2.65.59,2.18,2.18,0,0,0,.57-.36,2.28,2.28,0,0,0,.23-3.21l-20.14-23.28a37.68,37.68,0,0,0,3.07-4.15c3.28-5.21,4.69-10.64,4.08-15.43h-4.58c1.46,8.23-5.94,18.71-13.52,23a24.47,24.47,0,0,1-21.83,1.62h0a31.58,31.58,0,0,1-14-11.7c-3.25-4.75-5.19-9-5.86-12.9h-4.61c.1.67.22,1.36.37,2.05Z" style="fill:#fff"/><path d="M1071.12,3.28a6.41,6.41,0,0,0,4,3.08,6.25,6.25,0,0,0,4-.32,4.65,4.65,0,0,0,1.64-1.2,3.94,3.94,0,0,0,.49-4.16h-4a2.59,2.59,0,0,1,1,1.13c.3.67.11.89,0,1a2.66,2.66,0,0,1-2.4.47,3.09,3.09,0,0,1-2-1.51,1.23,1.23,0,0,1-.2-.82.68.68,0,0,1,.24-.25h-3.43A4.57,4.57,0,0,0,1071.12,3.28Z" style="fill:#fff"/><path d="M1071.38,20.3c4.39.88,8.77-.29,12.09-1.4a23.84,23.84,0,0,0,2.34-.89,11.72,11.72,0,0,0,3.25-2.05,11.76,11.76,0,0,0,3.32-6.11,30.8,30.8,0,0,0,.6-6.27,1.9,1.9,0,0,0-3.8-.09,28.6,28.6,0,0,1-.5,5.51,8.24,8.24,0,0,1-2.19,4.17,11.85,11.85,0,0,1-4.22,2.13c-2.88,1-6.63,2-10.15,1.28-2.69-.54-5.84-2.53-6.4-5.64a1.9,1.9,0,0,0-3.74.68C1062.86,16.5,1067.34,19.5,1071.38,20.3Z" style="fill:#fff"/><path d="M703,189.76l-36.29-7.61c1.24-8.33-.36-16.82-4.7-23.28-.12-.19-.26-.37-.4-.55l25-15.11a2.28,2.28,0,0,0-2.36-3.9l-25.55,15.45A36.17,36.17,0,0,0,631.47,144a31.91,31.91,0,0,0-4.78.54l-15.63-37.24a2.28,2.28,0,1,0-4.2,1.76l15.39,36.68a21.82,21.82,0,0,0-8.4,5.3,21.34,21.34,0,0,0-4.49,7.22l-33.66-9.12a2.28,2.28,0,0,0-1.19,4.4l33.55,9.09a46.27,46.27,0,0,0-1,10.3A38.43,38.43,0,0,0,609.42,186l-25.26,7.53h16l11.2-3.33a30.87,30.87,0,0,0,1.63,2.71c.14.21.29.42.44.62h5.85a26.19,26.19,0,0,1-2.51-3.16h0a31.66,31.66,0,0,1-5.08-17.54c0-8.68,1.74-14.8,5.49-18.7a18.15,18.15,0,0,1,8.74-4.82h0a26.85,26.85,0,0,1,5.76-.81,31.17,31.17,0,0,1,6.7.46,30.28,30.28,0,0,1,19.84,12.44c5.15,7.67,5.79,18.77,1.63,28.29a13.32,13.32,0,0,1-2.61,3.85h5.71a15.75,15.75,0,0,0,1.08-2,37.36,37.36,0,0,0,1.73-4.92l33.12,6.94h5.3a2.22,2.22,0,0,0,.58-1.09A2.29,2.29,0,0,0,703,189.76Z" style="fill:#fff"/><path d="M629.73,172.62a6.35,6.35,0,0,0,1.59,4.78,6.18,6.18,0,0,0,3.47,2,4.32,4.32,0,0,0,2-.08,4,4,0,0,0,2.78-3.35,5.9,5.9,0,0,0-1.07-4.49,6.54,6.54,0,0,0-3.8-2.45,3.86,3.86,0,0,0-5,3.63Zm3.48-.49a1.17,1.17,0,0,1,.83,0,3.22,3.22,0,0,1,1.91,1.22,2.73,2.73,0,0,1,.51,2c-.13.72-.41.8-.52.83a2.62,2.62,0,0,1-2.25-.94,3.12,3.12,0,0,1-.78-2.35A1.2,1.2,0,0,1,633.21,172.13Z" style="fill:#fff"/><path d="M628,165.46a7.36,7.36,0,0,0,3.82-6.36,4.56,4.56,0,0,0-.56-2.26,4.29,4.29,0,0,0-2.41-1.84,5.61,5.61,0,0,0-7.05,7.14C622.61,164.53,625.55,166.79,628,165.46Z" style="fill:#fff"/><path d="M648.68,162.14a5.22,5.22,0,0,0-5.42,3.88,5.65,5.65,0,0,0,1.94,5.36c1.35,1.28,3.29,1,4.88.22a5.44,5.44,0,0,0,3-4.49A5,5,0,0,0,648.68,162.14Z" style="fill:#fff"/><path d="M647.23,182.45a1.89,1.89,0,0,0-2.64.44,28.33,28.33,0,0,1-3.5,4.29,8.17,8.17,0,0,1-4.15,2.23,11.71,11.71,0,0,1-4.69-.59c-2.92-.81-6.6-2.07-9.13-4.61-1.93-2-3.43-5.36-2.15-8.26a1.9,1.9,0,0,0-3.48-1.53c-2,4.54,0,9.53,2.94,12.46,3.15,3.18,7.43,4.66,10.8,5.6.8.22,1.61.42,2.44.57a12,12,0,0,0,3.83.12,11.84,11.84,0,0,0,6.18-3.21,30.72,30.72,0,0,0,4-4.86A1.89,1.89,0,0,0,647.23,182.45Z" style="fill:#fff"/></g></svg>