<svg xmlns="http://www.w3.org/2000/svg" width="73.62" height="81.47" viewBox="0 0 73.62 81.47"><g id="Layer_2" data-name="Layer 2"><g id="GRID"><path d="M66.45,25.63A568.84,568.84,0,0,1,30.78,80.39a2.64,2.64,0,0,1-3,.94,2.17,2.17,0,0,1-2.2-1.23A113.7,113.7,0,0,0,5.43,53a2.47,2.47,0,0,1-.63-1,1.84,1.84,0,0,1-.43-.3A2.64,2.64,0,0,1,3.63,50a2.74,2.74,0,0,1,.74-1.8,52.58,52.58,0,0,1,7.93-7.64,3.19,3.19,0,0,1,1.62-.7,2.43,2.43,0,0,1,.25-.2,2.6,2.6,0,0,1,3.38.8s.05,0,.08.1l.17.22.35.46.66.79c.49.58,1,1.16,1.49,1.73,1,1.09,2,2.13,3,3.14s2.19,2,3.33,3c.29.25.59.49.89.72l.44.35.06.05.39.29Q37.7,38.71,46.11,25.63Z" style="fill:#009a44"/><path d="M73.29,13.34Q70,19.52,66.45,25.63H46.11Q52.7,15.46,58.7,5a2.28,2.28,0,0,1,1.7-1.19,2.24,2.24,0,0,1,2,.23A75.83,75.83,0,0,0,72,9.76a.91.91,0,0,1,.13.08,2.5,2.5,0,0,1,1.19,3.5" style="fill:#009a44"/><path d="M24.85,71.36a118.13,118.13,0,0,0-19-25,51.67,51.67,0,0,1,5.35-5A65.35,65.35,0,0,0,23.69,53,2.54,2.54,0,0,0,27,52.39a2.64,2.64,0,0,0,1.29-1A485,485,0,0,0,58.16,6C60.07,7.25,62,8.43,64,9.5A570.12,570.12,0,0,1,24.85,71.36M68.46,6.2l-.12-.08A72.46,72.46,0,0,1,58.74.35a2.32,2.32,0,0,0-2-.23,2.28,2.28,0,0,0-1.68,1.2,485.55,485.55,0,0,1-30.27,46.3l-.39-.28-.06-.05-.45-.36L23,46.21q-1.73-1.43-3.33-3c-1.05-1-2.06-2-3-3.13-.51-.57-1-1.15-1.5-1.73l-.65-.8-.36-.45c-.06-.08-.47-.61-.17-.21A2.6,2.6,0,0,0,10.54,36l-.25.2a3.14,3.14,0,0,0-1.62.7A51.64,51.64,0,0,0,.74,44.53,2.72,2.72,0,0,0,0,46.32,2.54,2.54,0,0,0,.74,48.1a2.53,2.53,0,0,0,.42.31,2.63,2.63,0,0,0,.63,1A113.78,113.78,0,0,1,21.93,76.46a2.18,2.18,0,0,0,2.2,1.24,2.63,2.63,0,0,0,3-.94A570.7,570.7,0,0,0,69.67,9.71,2.51,2.51,0,0,0,68.46,6.2" style="fill:#141f47"/></g></g></svg>