<svg xmlns="http://www.w3.org/2000/svg" viewBox="0 0 73.4 47.79"><g id="Layer_2" data-name="Layer 2"><g id="header_footer" data-name="header/footer"><path d="M9.9,15.29v1.09h3.75v2.4H9.9v1.13H14v2.47H6.87V12.82h7.06v2.47Z" style="fill:#fbb03b"/><path d="M25.28,15.71H22.05c0-.55-.33-.84-.94-.84s-.86.22-.86.59.37.56,1.55.84c1.92.47,3.63,1.05,3.63,3.17,0,2-1.56,3.13-4.24,3.13s-4.26-1.23-4.26-3.29h3.33c0,.63.31.94,1,.94s.9-.24.9-.61-.41-.6-1.53-.9c-1.88-.51-3.53-1-3.53-3.06,0-1.88,1.46-3.07,4.14-3.07C23.74,12.61,25.28,13.66,25.28,15.71Z" style="fill:#fbb03b"/><rect x="50.74" width="3.03" height="15.28" style="fill:#fbb03b"/><rect x="45.84" y="7.86" width="3.03" height="8.4" transform="translate(-1.01 19.04) rotate(-22.5)" style="fill:#fbb03b"/><rect x="41.26" y="9.63" width="3.03" height="9.58" transform="translate(2.33 34.47) rotate(-45)" style="fill:#fbb03b"/><rect x="37.82" y="13.16" width="3.03" height="10.76" transform="translate(7.15 47.78) rotate(-67.5)" style="fill:#fbb03b"/><rect x="35.87" y="17.63" width="3.03" height="12.53" transform="translate(13.49 61.28) rotate(-90)" style="fill:#fbb03b"/><rect x="36.94" y="23.29" width="3.03" height="12.65" transform="translate(25.82 76.47) rotate(-112.5)" style="fill:#fbb03b"/><rect x="39.88" y="28.01" width="3.03" height="13.5" transform="translate(46.09 88.61) rotate(-135)" style="fill:#fbb03b"/><rect x="44.66" y="31.3" width="3.03" height="14.58" transform="translate(74.06 91.91) rotate(-157.5)" style="fill:#fbb03b"/><rect x="50.74" y="32.51" width="3.03" height="15.28" transform="translate(104.51 80.3) rotate(-180)" style="fill:#fbb03b"/><rect x="55.64" y="31.53" width="3.03" height="8.4" transform="translate(123.64 46.87) rotate(157.5)" style="fill:#fbb03b"/><rect x="60.22" y="28.58" width="3.03" height="9.58" transform="translate(128.98 13.32) rotate(135)" style="fill:#fbb03b"/><rect x="63.67" y="23.87" width="3.03" height="10.76" transform="matrix(-0.38, 0.92, -0.92, -0.38, 117.15, -19.78)" style="fill:#fbb03b"/><rect x="65.62" y="17.63" width="3.03" height="12.53" transform="translate(91.03 -43.24) rotate(90)" style="fill:#fbb03b"/><rect x="64.54" y="11.86" width="3.03" height="12.65" transform="translate(57.57 -49.8) rotate(67.5)" style="fill:#fbb03b"/><rect x="61.6" y="6.28" width="3.03" height="13.5" transform="translate(27.7 -40.81) rotate(45)" style="fill:#fbb03b"/><rect x="56.83" y="1.91" width="3.03" height="14.58" transform="translate(7.96 -21.63) rotate(22.5)" style="fill:#fbb03b"/><rect y="12.82" width="3.03" height="9.56" transform="translate(3.03 35.21) rotate(-180)" style="fill:#fbb03b"/></g></g></svg>