<svg id="Layer_1" data-name="Layer 1" xmlns="http://www.w3.org/2000/svg" viewBox="0 0 448.75 105.89"><path d="M21.94,33.89v2.4h8.29v5.33H21.94v2.5H31v5.47H15.22V28.41H30.86v5.48Z" style="fill:#fbb03b"/><path d="M56,34.81H48.85c0-1.22-.72-1.88-2.09-1.88s-1.9.51-1.9,1.31c0,1,.83,1.25,3.45,1.88,4.25,1,8,2.32,8,7,0,4.35-3.45,6.93-9.4,6.93s-9.42-2.7-9.42-7.28h7.37c0,1.39.68,2.08,2.32,2.08,1.31,0,2-.54,2-1.34,0-1.07-.89-1.34-3.39-2C41.65,40.4,38,39.24,38,34.75c0-4.16,3.24-6.81,9.19-6.81C52.59,27.94,56,30.26,56,34.81Z" style="fill:#fbb03b"/><rect x="112.42" width="6.71" height="33.86" style="fill:#fbb03b"/><rect x="101.56" y="17.42" width="6.71" height="18.61" transform="translate(-2.24 42.18) rotate(-22.5)" style="fill:#fbb03b"/><rect x="91.43" y="21.33" width="6.71" height="21.23" transform="translate(5.17 76.38) rotate(-45)" style="fill:#fbb03b"/><rect x="83.79" y="29.17" width="6.71" height="23.83" transform="translate(15.84 105.87) rotate(-67.5)" style="fill:#fbb03b"/><rect x="79.46" y="39.06" width="6.71" height="27.76" transform="translate(29.88 135.76) rotate(-90)" style="fill:#fbb03b"/><rect x="81.85" y="51.59" width="6.71" height="28.03" transform="translate(57.2 169.43) rotate(-112.5)" style="fill:#fbb03b"/><rect x="88.36" y="62.05" width="6.71" height="29.91" transform="translate(102.11 196.31) rotate(-135)" style="fill:#fbb03b"/><rect x="98.94" y="69.34" width="6.71" height="32.31" transform="translate(164.09 203.63) rotate(-157.5)" style="fill:#fbb03b"/><rect x="112.42" y="72.02" width="6.71" height="33.86" transform="translate(231.56 177.91) rotate(-180)" style="fill:#fbb03b"/><rect x="123.28" y="69.86" width="6.71" height="18.61" transform="translate(273.93 103.84) rotate(157.5)" style="fill:#fbb03b"/><rect x="133.42" y="63.32" width="6.71" height="21.23" transform="translate(285.77 29.51) rotate(135)" style="fill:#fbb03b"/><rect x="141.06" y="52.89" width="6.71" height="23.83" transform="translate(259.55 -43.82) rotate(112.5)" style="fill:#fbb03b"/><rect x="145.38" y="39.06" width="6.71" height="27.76" transform="translate(201.68 -95.79) rotate(90)" style="fill:#fbb03b"/><rect x="142.99" y="26.27" width="6.71" height="28.03" transform="translate(127.56 -110.34) rotate(67.5)" style="fill:#fbb03b"/><rect x="136.49" y="13.92" width="6.71" height="29.91" transform="translate(61.38 -90.43) rotate(45)" style="fill:#fbb03b"/><rect x="125.9" y="4.24" width="6.71" height="32.31" transform="translate(17.64 -47.91) rotate(22.5)" style="fill:#fbb03b"/><rect y="28.41" width="6.71" height="21.17" transform="translate(6.71 78) rotate(-180)" style="fill:#fbb03b"/><path d="M181.24,49.59V28.41h4.37V49.59Z" style="fill:#576f7f"/><path d="M203.72,40.31v9.28h-4.17V40.73c0-2.29-1-3.34-2.64-3.34s-3,1.37-3,4.11v8.09h-4.16V34.48h3.9v1.9h.06a5.38,5.38,0,0,1,4.43-2.26C201.55,34.12,203.72,36.21,203.72,40.31Z" style="fill:#576f7f"/><path d="M219.27,39.12h-4c0-1.55-.89-2.2-2.37-2.2s-2.06.53-2.06,1.4c0,1.07,1,1.33,3.24,1.93,2.71.71,5.68,1.4,5.68,5.08,0,2.83-2.55,4.73-6.66,4.73s-6.78-1.72-6.78-5.38h4.23c0,1.52.92,2.38,2.64,2.38,1.46,0,2.2-.57,2.2-1.46,0-1.31-1.13-1.57-3.48-2.2-2.52-.65-5.23-1.25-5.23-4.76,0-2.7,2.5-4.64,6.25-4.64C216.89,34,219.27,35.76,219.27,39.12Z" style="fill:#576f7f"/><path d="M230.45,46.32V49.5a8.36,8.36,0,0,1-2.2.3c-3.48,0-5-1.4-5-4.91V37.57h-2.44V34.48h2.44V30.56h4.17v3.92h2.88v3.09h-2.88v6.58c0,1.66.53,2.31,2,2.31A3.7,3.7,0,0,0,230.45,46.32Z" style="fill:#576f7f"/><path d="M232.92,32V28.41h4.16V32Zm0,17.61V34.48h4.16V49.59Z" style="fill:#576f7f"/><path d="M248.68,46.32V49.5a8.36,8.36,0,0,1-2.2.3c-3.48,0-5-1.4-5-4.91V37.57H239V34.48h2.44V30.56h4.16v3.92h2.89v3.09h-2.89v6.58c0,1.66.54,2.31,2,2.31A3.75,3.75,0,0,0,248.68,46.32Z" style="fill:#576f7f"/><path d="M251,43.76V34.48h4.16v8.86c0,2.29,1,3.33,2.65,3.33s3-1.37,3-4.1V34.48h4.16V49.59h-3.89V47.68H261a5.37,5.37,0,0,1-4.43,2.26C253.17,49.94,251,47.86,251,43.76Z" style="fill:#576f7f"/><path d="M276.54,46.32V49.5a8.3,8.3,0,0,1-2.2.3c-3.48,0-5-1.4-5-4.91V37.57h-2.43V34.48h2.43V30.56h4.17v3.92h2.88v3.09h-2.88v6.58c0,1.66.53,2.31,2,2.31A3.7,3.7,0,0,0,276.54,46.32Z" style="fill:#576f7f"/><path d="M288.11,45h4.25c-.59,2.76-3.21,5.05-7.23,5.05-4.75,0-7.52-3.33-7.52-8.15,0-4.46,2.77-7.91,7.49-7.91a7,7,0,0,1,7,5,12.43,12.43,0,0,1,.48,3.87H281.71c.12,3.12,1.64,4.22,3.42,4.22A2.74,2.74,0,0,0,288.11,45Zm-6.31-4.73h6.61C288.14,38,286.77,37,285.1,37S282.13,38,281.8,40.28Z" style="fill:#576f7f"/><path d="M316.36,42c0,4.91-3,8-7.73,8s-7.74-3.12-7.74-8,3-8,7.74-8S316.36,37.13,316.36,42Zm-11.09,0c0,2.95,1.3,4.82,3.36,4.82S312,45,312,42s-1.31-4.81-3.36-4.81S305.27,39.09,305.27,42Z" style="fill:#576f7f"/><path d="M324,33.62v.86h2.86v3.09H324v12h-4.1v-12h-2.5V34.48h2.5V33.11c0-3.3,1.75-4.93,5-4.93a10.56,10.56,0,0,1,2.05.23v2.95a2.58,2.58,0,0,0-.74-.09C324.74,31.27,324,31.89,324,33.62Z" style="fill:#576f7f"/><path d="M185.61,61.62v4.79h9.57v3.71h-9.57V75.3h10.52v3.75H181.24V57.87h14.63v3.75Z" style="fill:#576f7f"/><path d="M208.8,79.05v-2h-.06a5,5,0,0,1-4.34,2.38c-3.81,0-6.27-3.12-6.27-7.94s2.44-7.94,6.21-7.94a5,5,0,0,1,4.28,2.2h.06V57.87h4.17V79.05Zm-6.33-7.56c0,2.89,1.28,4.76,3.27,4.76s3.15-1.75,3.15-4.76-1.28-4.76-3.15-4.76S202.47,68.61,202.47,71.49Z" style="fill:#576f7f"/><path d="M216.44,73.22V63.94h4.17V72.8c0,2.29,1,3.33,2.64,3.33s3-1.37,3-4.1V63.94h4.16V79.05H226.5V77.14h-.06A5.38,5.38,0,0,1,222,79.4C218.62,79.4,216.44,77.32,216.44,73.22Z" style="fill:#576f7f"/><path d="M247.91,69.56h-4.35a2.79,2.79,0,0,0-2.82-2.89c-2,0-3.24,1.85-3.24,4.82s1.22,4.82,3.24,4.82c1.6,0,2.68-1.22,2.79-3.18h4.38a6.72,6.72,0,0,1-7.14,6.39c-4.61,0-7.61-3.15-7.61-8s3-8,7.61-8C244.84,63.46,247.58,66,247.91,69.56Z" style="fill:#576f7f"/><path d="M263,69.44v5.47a15.84,15.84,0,0,0,.42,4.14h-3.75a8.61,8.61,0,0,1-.21-2h-.06a5.66,5.66,0,0,1-4.9,2.38c-3.21,0-5.15-2-5.15-4.58,0-2.47,1.49-4.13,5.86-4.81,1.13-.18,2.83-.36,3.78-.42v-.54c0-1.9-1-2.67-2.47-2.67a2.24,2.24,0,0,0-2.5,2.29h-4c.15-2.89,2.23-5.21,6.54-5.21S263,65.48,263,69.44Zm-4,2.68c-.89.06-2.14.17-3,.32-1.72.3-2.43.87-2.43,2.09s.77,1.9,2.23,1.9a3.44,3.44,0,0,0,2.38-.86,3.63,3.63,0,0,0,.86-2.89Z" style="fill:#576f7f"/><path d="M274.07,75.77V79a8.68,8.68,0,0,1-2.2.29c-3.48,0-5-1.39-5-4.9V67h-2.44V63.94h2.44V60H271v3.93h2.89V67H271V73.6c0,1.67.54,2.32,2,2.32A3.63,3.63,0,0,0,274.07,75.77Z" style="fill:#576f7f"/><path d="M276.54,61.44V57.87h4.17v3.57Zm0,17.61V63.94h4.17V79.05Z" style="fill:#576f7f"/><path d="M298.93,71.49c0,4.91-3,8-7.73,8s-7.73-3.12-7.73-8,3-8,7.73-8S298.93,66.59,298.93,71.49Zm-11.09,0c0,3,1.31,4.82,3.36,4.82s3.36-1.87,3.36-4.82-1.31-4.82-3.36-4.82S287.84,68.55,287.84,71.49Z" style="fill:#576f7f"/><path d="M315.65,69.77v9.28h-4.17V70.18c0-2.29-1-3.33-2.64-3.33s-3,1.37-3,4.11v8.09H301.7V63.94h3.89v1.9h.06a5.38,5.38,0,0,1,4.43-2.26C313.47,63.58,315.65,65.66,315.65,69.77Z" style="fill:#576f7f"/><path d="M340.74,64.35h-4.43c0-2.2-1.28-3.47-3.69-3.47-1.93,0-3.24.95-3.24,2.32,0,1.63,1.28,2.17,4.61,3,4,1,7.44,2,7.44,6.63,0,4-3.33,6.69-8.27,6.69-5.26,0-8.56-2.62-8.56-7.43h4.52c0,2.55,1.39,3.89,4.1,3.89,2.23,0,3.66-1,3.66-2.7,0-1.88-1.37-2.23-4.37-3-4-1-7.62-2-7.62-6.6,0-3.72,3.18-6.27,7.82-6.27C338,57.4,340.74,59.81,340.74,64.35Z" style="fill:#576f7f"/><path d="M358,69.56h-4.34a2.8,2.8,0,0,0-2.83-2.89c-2,0-3.24,1.85-3.24,4.82s1.22,4.82,3.24,4.82c1.61,0,2.68-1.22,2.8-3.18H358a6.72,6.72,0,0,1-7.14,6.39c-4.61,0-7.61-3.15-7.61-8s3-8,7.61-8C354.93,63.46,357.66,66,358,69.56Z" style="fill:#576f7f"/><path d="M360.64,61.44V57.87h4.16v3.57Zm0,17.61V63.94h4.16V79.05Z" style="fill:#576f7f"/><path d="M378.06,74.47h4.25c-.59,2.76-3.21,5-7.22,5-4.76,0-7.53-3.33-7.53-8.15,0-4.46,2.77-7.91,7.5-7.91a7,7,0,0,1,7,5,12.75,12.75,0,0,1,.47,3.86H371.67c.12,3.13,1.63,4.23,3.42,4.23A2.75,2.75,0,0,0,378.06,74.47Zm-6.3-4.73h6.6c-.27-2.29-1.64-3.33-3.3-3.33S372.08,67.45,371.76,69.74Z" style="fill:#576f7f"/><path d="M399.23,69.77v9.28h-4.16V70.18c0-2.29-1-3.33-2.65-3.33s-3,1.37-3,4.11v8.09h-4.16V63.94h3.89v1.9h.06a5.37,5.37,0,0,1,4.43-2.26C397.06,63.58,399.23,65.66,399.23,69.77Z" style="fill:#576f7f"/><path d="M416.6,69.56h-4.34a2.8,2.8,0,0,0-2.83-2.89c-2,0-3.24,1.85-3.24,4.82s1.22,4.82,3.24,4.82c1.61,0,2.68-1.22,2.8-3.18h4.37a6.72,6.72,0,0,1-7.14,6.39c-4.61,0-7.61-3.15-7.61-8s3-8,7.61-8C413.54,63.46,416.27,66,416.6,69.56Z" style="fill:#576f7f"/><path d="M428.94,74.47h4.25c-.59,2.76-3.21,5-7.22,5-4.76,0-7.53-3.33-7.53-8.15,0-4.46,2.77-7.91,7.5-7.91a7,7,0,0,1,7,5,12.75,12.75,0,0,1,.47,3.86H422.55c.12,3.13,1.63,4.23,3.42,4.23A2.75,2.75,0,0,0,428.94,74.47Zm-6.3-4.73h6.6c-.27-2.29-1.64-3.33-3.3-3.33S423,67.45,422.64,69.74Z" style="fill:#576f7f"/><path d="M448.24,68.58h-4c0-1.55-.9-2.2-2.38-2.2s-2.06.53-2.06,1.39c0,1.08,1,1.34,3.25,1.94,2.7.71,5.68,1.4,5.68,5.08,0,2.83-2.56,4.73-6.67,4.73s-6.78-1.72-6.78-5.38h4.23c0,1.52.92,2.38,2.64,2.38,1.46,0,2.2-.57,2.2-1.46,0-1.31-1.13-1.58-3.48-2.2-2.52-.65-5.23-1.25-5.23-4.76,0-2.7,2.5-4.64,6.25-4.64C445.86,63.46,448.24,65.22,448.24,68.58Z" style="fill:#576f7f"/></svg>