<svg xmlns="http://www.w3.org/2000/svg" width="229.92" height="54.25" viewBox="0 0 229.92 54.25"><defs><style>.cls-1{fill:#fbb03b;}.cls-2{fill:#576f7f;}</style></defs><g id="Layer_2" data-name="Layer 2"><g id="Layer_1-2" data-name="Layer 1"><path class="cls-1" d="M11.24,17.36V18.6h4.25v2.72H11.24V22.6h4.65v2.81H7.8V14.56h8v2.8Z"/><path class="cls-1" d="M28.7,17.83H25c0-.62-.37-1-1.07-1s-1,.26-1,.68.42.63,1.76,1c2.18.53,4.12,1.18,4.12,3.59,0,2.23-1.77,3.55-4.82,3.55s-4.83-1.39-4.83-3.73H23c0,.71.35,1.06,1.19,1.06.67,0,1-.27,1-.68s-.46-.69-1.74-1c-2.13-.58-4-1.18-4-3.48,0-2.13,1.66-3.48,4.7-3.48C27,14.32,28.7,15.5,28.7,17.83Z"/><rect class="cls-1" x="57.6" width="3.44" height="17.35"/><rect class="cls-1" x="52.04" y="8.92" width="3.44" height="9.53" transform="translate(-1.15 21.61) rotate(-22.5)"/><rect class="cls-1" x="46.84" y="10.93" width="3.44" height="10.88" transform="translate(2.65 39.13) rotate(-45)"/><rect class="cls-1" x="42.93" y="14.94" width="3.44" height="12.21" transform="translate(8.12 54.25) rotate(-67.5)"/><rect class="cls-1" x="40.72" y="20.02" width="3.44" height="14.22" transform="translate(15.31 69.56) rotate(-90)"/><rect class="cls-1" x="41.94" y="26.44" width="3.44" height="14.36" transform="translate(29.31 86.81) rotate(-112.5)"/><rect class="cls-1" x="45.27" y="31.79" width="3.44" height="15.33" transform="translate(52.32 100.59) rotate(-135)"/><rect class="cls-1" x="50.69" y="35.53" width="3.44" height="16.55" transform="translate(84.07 104.33) rotate(-157.5)"/><rect class="cls-1" x="57.6" y="36.9" width="3.44" height="17.35" transform="translate(118.64 91.16) rotate(-180)"/><rect class="cls-1" x="63.17" y="35.79" width="3.44" height="9.53" transform="translate(140.36 53.21) rotate(157.5)"/><rect class="cls-1" x="68.36" y="32.45" width="3.44" height="10.88" transform="translate(146.42 15.12) rotate(135)"/><rect class="cls-1" x="72.27" y="27.1" width="3.44" height="12.21" transform="translate(132.99 -22.45) rotate(112.5)"/><rect class="cls-1" x="74.49" y="20.02" width="3.44" height="14.22" transform="translate(103.33 -49.08) rotate(90)"/><rect class="cls-1" x="73.27" y="13.46" width="3.44" height="14.36" transform="translate(65.36 -56.54) rotate(67.5)"/><rect class="cls-1" x="69.93" y="7.13" width="3.44" height="15.33" transform="translate(31.45 -46.33) rotate(45)"/><rect class="cls-1" x="64.51" y="2.17" width="3.44" height="16.55" transform="translate(9.04 -24.55) rotate(22.5)"/><rect class="cls-1" y="14.56" width="3.44" height="10.85" transform="translate(3.44 39.97) rotate(-180)"/><path class="cls-2" d="M92.86,25.41V14.56H95.1V25.41Z"/><path class="cls-2" d="M104.38,20.65v4.76h-2.13V20.87c0-1.18-.52-1.71-1.36-1.71s-1.52.7-1.52,2.1v4.15H97.23V17.67h2v1h0a2.77,2.77,0,0,1,2.27-1.16C103.27,17.48,104.38,18.55,104.38,20.65Z"/><path class="cls-2" d="M112.35,20h-2c0-.79-.46-1.12-1.22-1.12s-1,.27-1,.71.48.69,1.66,1c1.38.37,2.91.72,2.91,2.61,0,1.45-1.31,2.42-3.42,2.42s-3.47-.88-3.47-2.76h2.16c0,.78.48,1.22,1.36,1.22s1.13-.29,1.13-.74c0-.68-.58-.81-1.79-1.13s-2.68-.64-2.68-2.44c0-1.39,1.28-2.38,3.2-2.38S112.35,18.32,112.35,20Z"/><path class="cls-2" d="M118.08,23.73v1.63a4.41,4.41,0,0,1-1.13.15c-1.78,0-2.56-.71-2.56-2.51V19.25h-1.25V17.67h1.25v-2h2.13v2H118v1.58h-1.48v3.37c0,.85.28,1.19,1,1.19A1.77,1.77,0,0,0,118.08,23.73Z"/><path class="cls-2" d="M119.34,16.39V14.56h2.13v1.83Zm0,9V17.67h2.13v7.74Z"/><path class="cls-2" d="M127.42,23.73v1.63a4.41,4.41,0,0,1-1.13.15c-1.78,0-2.56-.71-2.56-2.51V19.25h-1.25V17.67h1.25v-2h2.13v2h1.48v1.58h-1.48v3.37c0,.85.28,1.19,1,1.19A1.77,1.77,0,0,0,127.42,23.73Z"/><path class="cls-2" d="M128.6,22.42V17.67h2.14v4.54c0,1.17.52,1.7,1.35,1.7s1.53-.7,1.53-2.1V17.67h2.13v7.74h-2v-1h0a2.74,2.74,0,0,1-2.27,1.16C129.72,25.59,128.6,24.52,128.6,22.42Z"/><path class="cls-2" d="M141.69,23.73v1.63a4.35,4.35,0,0,1-1.13.15c-1.78,0-2.56-.71-2.56-2.51V19.25h-1.24V17.67H138v-2h2.14v2h1.48v1.58h-1.48v3.37c0,.85.27,1.19,1,1.19A1.77,1.77,0,0,0,141.69,23.73Z"/><path class="cls-2" d="M147.62,23.06h2.18a3.53,3.53,0,0,1-3.7,2.59c-2.44,0-3.86-1.71-3.86-4.17a3.75,3.75,0,0,1,3.84-4.06A3.58,3.58,0,0,1,149.66,20a6.36,6.36,0,0,1,.24,2h-5.56c.06,1.6.84,2.16,1.76,2.16A1.4,1.4,0,0,0,147.62,23.06Zm-3.23-2.42h3.38a1.68,1.68,0,0,0-1.69-1.71C145.21,18.93,144.56,19.46,144.39,20.64Z"/><path class="cls-2" d="M162.09,21.54a4,4,0,1,1-7.92,0,4,4,0,1,1,7.92,0Zm-5.68,0c0,1.51.67,2.47,1.72,2.47s1.72-1,1.72-2.47-.67-2.47-1.72-2.47S156.41,20,156.41,21.54Z"/><path class="cls-2" d="M166,17.23v.44h1.46v1.58H166v6.16h-2.1V19.25h-1.28V17.67h1.28V17a2.26,2.26,0,0,1,2.56-2.53,5.24,5.24,0,0,1,1.05.12v1.51a1.4,1.4,0,0,0-.38-.05C166.39,16,166,16.34,166,17.23Z"/><path class="cls-2" d="M95.1,31.57V34H100v1.9H95.1v2.65h5.39V40.5H92.86V29.65h7.5v1.92Z"/><path class="cls-2" d="M107,40.5v-1h0a2.55,2.55,0,0,1-2.22,1.22c-2,0-3.22-1.6-3.22-4.07s1.25-4.07,3.19-4.07a2.58,2.58,0,0,1,2.19,1.13h0v-4h2.14V40.5Zm-3.24-3.87c0,1.48.65,2.44,1.68,2.44s1.61-.9,1.61-2.44-.65-2.44-1.61-2.44S103.74,35.15,103.74,36.63Z"/><path class="cls-2" d="M110.9,37.51V32.76H113V37.3c0,1.17.52,1.71,1.36,1.71s1.52-.7,1.52-2.11V32.76h2.14V40.5h-2v-1h0a2.76,2.76,0,0,1-2.27,1.15C112,40.68,110.9,39.62,110.9,37.51Z"/><path class="cls-2" d="M127,35.64H124.8a1.44,1.44,0,0,0-1.45-1.48c-1,0-1.66,1-1.66,2.47s.62,2.47,1.66,2.47c.82,0,1.37-.63,1.43-1.63H127a3.44,3.44,0,0,1-3.66,3.27,3.76,3.76,0,0,1-3.9-4.11,3.76,3.76,0,0,1,3.9-4.11A3.43,3.43,0,0,1,127,35.64Z"/><path class="cls-2" d="M134.73,35.58v2.8a8.48,8.48,0,0,0,.21,2.12H133a4.77,4.77,0,0,1-.1-1h0a2.9,2.9,0,0,1-2.52,1.22,2.36,2.36,0,0,1-2.63-2.34c0-1.27.76-2.12,3-2.47.58-.09,1.45-.18,1.93-.21v-.28c0-1-.52-1.37-1.26-1.37a1.15,1.15,0,0,0-1.28,1.17h-2.07c.07-1.47,1.14-2.66,3.35-2.66S134.73,33.55,134.73,35.58ZM132.67,37c-.45,0-1.09.09-1.55.17-.89.15-1.25.44-1.25,1.06s.4,1,1.14,1a1.76,1.76,0,0,0,1.22-.44,1.84,1.84,0,0,0,.44-1.48Z"/><path class="cls-2" d="M140.43,38.82v1.63a4,4,0,0,1-1.13.16c-1.78,0-2.56-.72-2.56-2.52V34.35h-1.25V32.76h1.25v-2h2.13v2h1.48v1.59h-1.48v3.36c0,.86.28,1.19,1,1.19A1.77,1.77,0,0,0,140.43,38.82Z"/><path class="cls-2" d="M141.69,31.48V29.65h2.14v1.83Zm0,9V32.76h2.14V40.5Z"/><path class="cls-2" d="M153.17,36.63a4,4,0,1,1-7.93,0,4,4,0,1,1,7.93,0Zm-5.69,0c0,1.51.67,2.47,1.72,2.47s1.73-1,1.73-2.47-.67-2.47-1.73-2.47S147.48,35.12,147.48,36.63Z"/><path class="cls-2" d="M161.73,35.75V40.5H159.6V36c0-1.17-.52-1.71-1.36-1.71s-1.52.7-1.52,2.11V40.5h-2.14V32.76h2v1h0a2.74,2.74,0,0,1,2.27-1.16C160.62,32.58,161.73,33.64,161.73,35.75Z"/><path class="cls-2" d="M174.59,33h-2.27a1.66,1.66,0,0,0-1.89-1.78c-1,0-1.66.49-1.66,1.19s.65,1.11,2.36,1.54c2,.5,3.81,1,3.81,3.4,0,2-1.71,3.42-4.24,3.42-2.69,0-4.39-1.34-4.39-3.8h2.32c0,1.31.72,2,2.1,2,1.15,0,1.88-.53,1.88-1.39s-.7-1.14-2.24-1.53c-2-.52-3.9-1-3.9-3.39,0-1.9,1.63-3.21,4-3.21C173.19,29.41,174.59,30.64,174.59,33Z"/><path class="cls-2" d="M183.42,35.64H181.2a1.44,1.44,0,0,0-1.45-1.48c-1,0-1.66,1-1.66,2.47s.63,2.47,1.66,2.47c.83,0,1.37-.63,1.43-1.63h2.24a3.43,3.43,0,0,1-3.65,3.27,3.76,3.76,0,0,1-3.9-4.11,3.76,3.76,0,0,1,3.9-4.11A3.42,3.42,0,0,1,183.42,35.64Z"/><path class="cls-2" d="M184.78,31.48V29.65h2.13v1.83Zm0,9V32.76h2.13V40.5Z"/><path class="cls-2" d="M193.71,38.15h2.18a3.53,3.53,0,0,1-3.71,2.59c-2.43,0-3.85-1.7-3.85-4.17a3.74,3.74,0,0,1,3.84-4,3.57,3.57,0,0,1,3.58,2.57,6.36,6.36,0,0,1,.24,2h-5.56c.06,1.6.84,2.17,1.75,2.17A1.41,1.41,0,0,0,193.71,38.15Zm-3.23-2.42h3.38a1.68,1.68,0,0,0-1.69-1.7C191.3,34,190.65,34.56,190.48,35.73Z"/><path class="cls-2" d="M204.56,35.75V40.5h-2.14V36c0-1.17-.51-1.71-1.35-1.71s-1.53.7-1.53,2.11V40.5h-2.13V32.76h2v1h0a2.74,2.74,0,0,1,2.27-1.16C203.44,32.58,204.56,33.64,204.56,35.75Z"/><path class="cls-2" d="M213.45,35.64h-2.22a1.44,1.44,0,0,0-1.45-1.48c-1,0-1.66,1-1.66,2.47s.63,2.47,1.66,2.47c.83,0,1.37-.63,1.43-1.63h2.24a3.43,3.43,0,0,1-3.65,3.27,3.76,3.76,0,0,1-3.9-4.11,3.76,3.76,0,0,1,3.9-4.11A3.41,3.41,0,0,1,213.45,35.64Z"/><path class="cls-2" d="M219.78,38.15H222a3.53,3.53,0,0,1-3.71,2.59c-2.43,0-3.85-1.7-3.85-4.17a3.74,3.74,0,0,1,3.84-4,3.57,3.57,0,0,1,3.58,2.57,6.36,6.36,0,0,1,.24,2H216.5c.06,1.6.84,2.17,1.75,2.17A1.41,1.41,0,0,0,219.78,38.15Zm-3.23-2.42h3.38a1.68,1.68,0,0,0-1.69-1.7C217.37,34,216.72,34.56,216.55,35.73Z"/><path class="cls-2" d="M229.67,35.14h-2c0-.79-.45-1.13-1.21-1.13s-1.06.27-1.06.72.49.68,1.66,1c1.39.36,2.91.71,2.91,2.6,0,1.45-1.31,2.42-3.41,2.42S223,39.86,223,38h2.16c0,.77.47,1.22,1.36,1.22.74,0,1.13-.29,1.13-.75,0-.67-.58-.81-1.79-1.13s-2.68-.64-2.68-2.44c0-1.38,1.28-2.37,3.2-2.37S229.67,33.42,229.67,35.14Z"/></g></g></svg>