<?xml version="1.0" encoding="utf-8"?>
<!-- Generator: Adobe Illustrator 24.3.0, SVG Export Plug-In . SVG Version: 6.00 Build 0)  -->
<svg version="1.1" id="Layer_1" xmlns="http://www.w3.org/2000/svg" xmlns:xlink="http://www.w3.org/1999/xlink" x="0px" y="0px"
	 viewBox="0 0 111 93" style="enable-background:new 0 0 111 93;" xml:space="preserve">
<style type="text/css">
	.st0{fill:#00539F;}
	.st1{fill:#071D49;}
	.st2{display:none;}
</style>
<g id="background">
</g>
<g id="Layer_1_1_">
	<g>
		<g>
			<path class="st0" d="M94.1,64.6c0.5-14.7,0.3-37.2,0.8-51.9c0-0.3-0.1-0.5-0.2-0.7c0-0.1,0.1-0.2,0.1-0.3
				c0.1-0.8-0.4-1.9-1.4-1.9c-2.1-0.1-4.2-0.3-6.4-0.4c-0.5,0-0.9,0-1.3,0.3c-0.1,0.1-0.3,0.3-0.4,0.4c-14.6,0-54.5-0.4-69.2-0.4
				c-1.6,0-1.8,1.9-0.9,2.8c-0.9,15-1,37.6-0.6,52.6c0,1.3,1.2,1.7,2.2,1.3c0.2,0,0.3,0.1,0.5,0.1c16.2-0.3,58.1,0,74.2-0.3
				c0.3,0.2,0.7,0.3,1,0.3C93.6,66.4,94.1,65.5,94.1,64.6"/>
		</g>
		<g>
			<path class="st1" d="M79.3,19.3c-16.4,0.5-32.8,1-49.2,1.5c-2.4,0.1-2.4,3.8,0,3.7c16.4-0.5,32.8-1,49.2-1.5
				C81.7,22.9,81.7,19.2,79.3,19.3"/>
		</g>
		<g>
			<path class="st1" d="M74.7,27.7c-16.4,0.5-28.2,0.5-44.6,1c-2.4,0.1-2.4,3.8,0,3.7c16.4-0.5,28.2-0.5,44.6-1
				C77.1,31.4,77.1,27.7,74.7,27.7"/>
		</g>
		<path class="st1" d="M96.3,13.1c0-0.1,0.1-0.2,0.1-0.3c0.1-0.8-0.4-1.9-1.4-1.9c-2.1-0.1-4.2-0.3-6.4-0.4c-0.5,0-0.9,0-1.3,0.3
			c-0.1,0.1-0.3,0.3-0.4,0.4c-14.6,0-54.5-0.4-69.2-0.4c-1.6,0-1.8,1.9-0.9,2.8c-0.9,15-1,37.6-0.6,52.6c0,1.3,1.2,1.7,2.2,1.3
			c0.2,0,0.3,0.1,0.5,0.1c6.6-0.1,17.3-0.1,28.9-0.1l-0.4,10.7c0,0.6,0.2,1.1,0.6,1.4c-4.2-0.1-8.5-0.1-13.1-0.2
			c-2.4,0-2.4,3.7,0,3.7c15.1,0.2,26.5,0.4,41.5,0.7c2.4,0,2.4-3.7,0-3.7c-5.3-0.1-10.1-0.2-14.8-0.2c0.5-0.3,0.9-0.9,0.9-1.6
			l-0.4-10.7c12.4,0,24.1,0,31.1-0.1c0.3,0.2,0.7,0.3,1,0.3c1-0.1,1.5-0.9,1.5-1.8c0.5-15,0.3-37.4,0.8-52.2
			C96.5,13.6,96.4,13.3,96.3,13.1z M58.9,78.3c0,0.6,0.3,1.1,0.8,1.4c-3.1,0-6.1-0.1-9.2-0.1c0.4-0.3,0.6-0.8,0.6-1.3l0.4-10.8
			c2.3,0,4.6,0,6.9,0L58.9,78.3z M93.2,14.2c-0.5,14-0.3,35.8-0.7,49.8c-15.7,0.3-57.1,0-72.8,0.3c-0.4-14.2-0.2-36,0.6-50.2
			c14.5,0,54.3,0.4,68.8,0.4c0.6,0,1-0.2,1.2-0.6C91.2,13.9,92.2,14,93.2,14.2C93.2,14.1,93.2,14.1,93.2,14.2z"/>
		<g>
			<path class="st1" d="M75.8,56.7c-14-1.1-28.3-1.1-42.3,0.2c-0.1-2.3-0.2-4.9-0.3-7.4c-0.1-3.2-0.2-6.5-0.3-9.3
				c0-0.9-0.8-1.6-1.7-1.6c-0.9,0-1.6,0.8-1.6,1.7c0.1,2.8,0.2,6,0.3,9.2c0.1,3.2,0.2,6.5,0.3,9.2c0,0.5,0.2,0.9,0.6,1.2
				c0.3,0.3,0.7,0.4,1.1,0.4c0.1,0,0.1,0,0.2,0c14.4-1.4,29-1.5,43.5-0.4c0.9,0.1,1.7-0.6,1.8-1.5C77.4,57.6,76.7,56.8,75.8,56.7z"
				/>
			<path class="st1" d="M77.7,36.3L69,34.6c-0.9-0.2-1.8,0.4-1.9,1.3c-0.2,0.9,0.4,1.8,1.3,1.9l4.9,0.9l-15.8,7.2l-2.1-3.5
				c-0.5-0.8-1.5-1-2.3-0.6l-16.8,10c-0.8,0.5-1.1,1.5-0.6,2.3c0.3,0.5,0.9,0.8,1.4,0.8c0.3,0,0.6-0.1,0.8-0.2l15.4-9.1l2,3.4
				c0.4,0.7,1.4,1,2.1,0.7l17.6-8l-0.7,4.5c-0.2,0.9,0.5,1.8,1.4,1.9c0.1,0,0.2,0,0.3,0c0.8,0,1.5-0.6,1.6-1.4l1.4-8.5
				C79.2,37.3,78.6,36.4,77.7,36.3z"/>
		</g>
	</g>
</g>
<g id="header_x2F_footer">
</g>
<g id="modal">
</g>
<g id="popup">
</g>
<g id="GRID" class="st2">
</g>
</svg>
