<?xml version="1.0" encoding="utf-8"?>
<!-- Generator: Adobe Illustrator 24.3.0, SVG Export Plug-In . SVG Version: 6.00 Build 0)  -->
<svg version="1.1" id="Layer_1" xmlns="http://www.w3.org/2000/svg" xmlns:xlink="http://www.w3.org/1999/xlink" x="0px" y="0px"
	 viewBox="0 0 111 93" style="enable-background:new 0 0 111 93;" xml:space="preserve">
<style type="text/css">
	.st0{fill:#00539F;}
	.st1{fill:#071D49;}
	.st2{fill:#242953;}
	.st3{display:none;}
</style>
<g id="background">
</g>
<g id="Layer_1_1_">
	<g>
		<path class="st0" d="M27.1,14L24,75.7c-0.1,2.5,1.9,4.6,4.4,4.6h54.3c2.6,0,4.6-2.2,4.4-4.7l-4.5-57.5c-0.2-2.3-2.1-4.1-4.4-4.1
			C78.2,14,27.1,14,27.1,14z"/>
		<g>
			<path class="st1" d="M81.3,75.1c-12.8,0.3-41,0.2-53.7-0.6c0-13,0.3-42.1,0.3-55.2c0-0.5-0.2-0.9-0.5-1.1
				c0.1-0.9,0.1-1.8,0.2-2.7h0.1c12.6,0.4,37.9,0.3,50.5,0.7C78.4,30.4,81,61,81.3,75.1 M79.7,13.4c-13.2-0.4-39.2-0.3-52.4-0.7
				c-0.3,0-0.5,0.1-0.7,0.2c-0.1,0-0.2-0.1-0.3-0.1c-0.7-0.1-1.7,0.4-1.7,1.2c-0.1,1.9-0.2,3.8-0.4,5.7c0,0.4,0,0.8,0.3,1.1
				c0.1,0.1,0.2,0.3,0.4,0.4c0,13.2-0.3,42.4-0.3,55.5c0,1.5,1.7,1.6,2.6,0.8c13.5,0.8,42.4,0.9,55.9,0.5c1.1,0,1.5-1.1,1.2-1.9
				c0-0.1,0.1-0.3,0.1-0.4c-0.3-14.5-2.9-45.6-3.2-60.1c0.2-0.3,0.3-0.6,0.2-0.9C81.3,13.8,80.5,13.4,79.7,13.4"/>
			<path class="st2" d="M34.4,67.4c13.1-0.2,26.1-0.4,39.2-0.6c2.1,0,2.1,3.2,0,3.2c-13.1,0.2-26.1,0.4-39.2,0.6
				C32.3,70.7,32.3,67.5,34.4,67.4"/>
			<path class="st2" d="M34.4,56.6c13.1-0.2,26.1-0.4,39.2-0.6c2.1,0,2.1,3.2,0,3.2c-13.1,0.2-26.1,0.4-39.2,0.6
				C32.3,59.8,32.3,56.6,34.4,56.6"/>
			<path class="st2" d="M34.4,45.8c13.1-0.2,26.1-0.4,39.2-0.6c2.1,0,2.1,3.2,0,3.2c-13.1,0.2-26.1,0.4-39.2,0.6
				C32.3,49,32.3,45.8,34.4,45.8"/>
			<path class="st2" d="M34.4,34.9c13.1-0.2,26.1-0.4,39.2-0.6c2.1,0,2.1,3.2,0,3.2c-13.1,0.2-26.1,0.4-39.2,0.6
				C32.3,38.2,32.3,35,34.4,34.9"/>
			<path class="st2" d="M34.4,24.1c13.1-0.2,26.1-0.4,39.2-0.6c2.1,0,2.1,3.2,0,3.2c-13.1,0.2-26.1,0.4-39.2,0.6
				C32.3,27.3,32.3,24.1,34.4,24.1"/>
		</g>
	</g>
</g>
<g id="header_x2F_footer">
</g>
<g id="modal">
</g>
<g id="popup">
</g>
<g id="GRID" class="st3">
</g>
</svg>
