<?xml version="1.0" encoding="utf-8"?>
<!-- Generator: Adobe Illustrator 24.3.0, SVG Export Plug-In . SVG Version: 6.00 Build 0)  -->
<svg version="1.1" id="Layer_1" xmlns="http://www.w3.org/2000/svg" xmlns:xlink="http://www.w3.org/1999/xlink" x="0px" y="0px"
	 viewBox="0 0 111 93" style="enable-background:new 0 0 111 93;" xml:space="preserve">
<style type="text/css">
	.st0{fill:#00539F;}
	.st1{fill:#071D49;}
	.st2{display:none;}
</style>
<g id="background">
</g>
<g id="Layer_1_1_">
	<g>
		<path class="st0" d="M101.9,30.5L101.9,30.5c0.1-0.2,0.2-0.5,0.2-0.8c0-0.1,0-0.2,0-0.2c-0.1-0.5-0.2-1.1-10.2-10.1
			c-3.6-3.2-10-8.9-11.3-9.7c-0.4-0.2-0.9-0.2-1.3,0s-0.7,0.7-0.6,1.2c0.1,2.3,0.2,4.2,0.3,6.2c0.1,1.6,0.2,3.2,0.2,5.1
			c-3.5,0.3-6.9,0.6-10.3,0.9c-8.2,0.7-15.9,1.4-24.4,1.2c-0.4,0-0.7,0.1-0.9,0.4c-0.3,0.2-0.4,0.6-0.4,0.9v15.9
			c0,0.7,0.6,1.3,1.3,1.3c0.6,0,1.2-0.5,1.3-1.1c11.5,0.5,20.6,0.2,32.7-1.1c0,1.7,0,3.2-0.1,4.7c0,2.1,0,4.2-0.1,6.7
			c0,0.5,0.3,1,0.8,1.2s1,0.1,1.4-0.2C84.8,49.2,98.7,35.3,101.9,30.5z"/>
		<path class="st1" d="M101.9,28.2L101.9,28.2c0.1-0.2,0.2-0.5,0.2-0.8c0-0.1,0-0.2,0-0.2c-0.1-0.5-0.2-1.1-10.2-10.1
			c-3.6-3.2-10-8.9-11.3-9.7c-0.4-0.2-0.9-0.2-1.3,0s-0.7,0.7-0.6,1.2c0.1,2.3,0.2,4.2,0.3,6.2c0.1,1.6,0.2,3.2,0.2,5.1
			c-3.5,0.3-6.9,0.6-10.3,0.9C60.7,21.5,53,22.2,44.5,22c-0.4,0-0.7,0.1-0.9,0.4c-0.3,0.2-0.4,0.6-0.4,0.9v15.9
			c0,0.7,0.6,1.3,1.3,1.3c0.6,0,1.2-0.5,1.3-1.1c11.5,0.5,20.6,0.2,32.7-1.1c0,1.7,0,3.2-0.1,4.7c0,2.1,0,4.2-0.1,6.7
			c0,0.5,0.3,1,0.8,1.2s1,0.1,1.4-0.2C84.8,46.9,98.7,33,101.9,28.2z M81.1,43c0-1.8,0-3.6,0.1-5.6c0.1-0.2,0.2-0.4,0.2-0.6v-0.1
			c0-0.2-0.1-0.3-0.2-0.5C81,35.5,80.5,35,79.8,35c-0.5,0-0.9,0.2-1.1,0.6c-12.3,1.3-21.4,1.6-32.9,1.1V24.5
			c8.1,0.1,15.5-0.6,23.3-1.3c3.4-0.3,7-0.6,10.7-0.9c0.3,0,0.5-0.1,0.7-0.3h0.1c0.7,0,1.3-0.6,1.3-1.4c-0.1-2.3-0.2-4.2-0.3-6.2
			c-0.1-1.1-0.1-2.2-0.2-3.3c4.7,4,15.3,13.6,17.8,16.2c-3.3,4.4-13,14.3-18.2,19.2C81,45.4,81,44.2,81.1,43z"/>
		<path class="st0" d="M9.1,62.5L9.1,62.5C9,62.7,8.9,63,8.9,63.3c0,0.1,0,0.2,0,0.2C9,64,9.1,64.6,19.1,73.6
			c3.6,3.2,10,8.9,11.3,9.7c0.4,0.2,0.9,0.2,1.3,0c0.4-0.2,0.7-0.7,0.6-1.2c-0.1-2.3-0.2-4.2-0.3-6.2c-0.1-1.6-0.2-3.2-0.2-5.1
			c3.5-0.3,6.9-0.6,10.3-0.9c8.2-0.7,15.9-1.4,24.4-1.2c0.4,0,0.7-0.1,0.9-0.4c0.3-0.2,0.4-0.6,0.4-0.9V51.5c0-0.7-0.6-1.3-1.3-1.3
			c-0.6,0-1.2,0.5-1.3,1.1c-11.5-0.5-20.6-0.2-32.7,1.1c0-1.7,0-3.2,0.1-4.7c0-2.1,0-4.2,0.1-6.7c0-0.5-0.3-1-0.8-1.2
			s-1-0.1-1.4,0.2C26.2,43.8,12.3,57.7,9.1,62.5z"/>
		<path class="st1" d="M9.1,64.8L9.1,64.8C9,65,8.9,65.3,8.9,65.6c0,0.1,0,0.2,0,0.2c0.1,0.5,0.2,1.1,10.2,10.1
			c3.6,3.2,10,8.9,11.3,9.7c0.4,0.2,0.9,0.2,1.3,0c0.4-0.2,0.7-0.7,0.6-1.2c-0.1-2.3-0.2-4.2-0.3-6.2c-0.1-1.6-0.2-3.2-0.2-5.1
			c3.5-0.3,6.9-0.6,10.3-0.9c8.2-0.7,15.9-1.4,24.4-1.2c0.4,0,0.7-0.1,0.9-0.4c0.3-0.2,0.4-0.6,0.4-0.9V53.8c0-0.7-0.6-1.3-1.3-1.3
			c-0.6,0-1.2,0.5-1.3,1.1c-11.5-0.5-20.6-0.2-32.7,1.1c0-1.7,0-3.2,0.1-4.7c0-2.1,0-4.2,0.1-6.7c0-0.5-0.3-1-0.8-1.2
			s-1-0.1-1.4,0.2C26.2,46.1,12.3,60,9.1,64.8z M29.9,50c0,1.8,0,3.6-0.1,5.6c-0.1,0.2-0.2,0.4-0.2,0.6v0.1c0,0.2,0.1,0.3,0.2,0.5
			c0.1,0.6,0.6,1.1,1.3,1.1c0.5,0,0.9-0.2,1.1-0.6c12.3-1.3,21.4-1.6,32.9-1.1v12.2C57,68.3,49.6,69,41.8,69.7
			c-3.4,0.3-7,0.6-10.7,0.9c-0.3,0-0.5,0.1-0.7,0.3h-0.1c-0.7,0-1.3,0.6-1.3,1.4c0.1,2.3,0.2,4.2,0.3,6.2c0.1,1.1,0.1,2.2,0.2,3.3
			c-4.7-4-15.3-13.6-17.8-16.2c3.3-4.4,13-14.3,18.2-19.2C30,47.6,30,48.8,29.9,50z"/>
	</g>
</g>
<g id="header_x2F_footer">
</g>
<g id="modal">
</g>
<g id="popup">
</g>
<g id="GRID" class="st2">
</g>
</svg>
