<?xml version="1.0" encoding="utf-8"?>
<!-- Generator: Adobe Illustrator 24.3.0, SVG Export Plug-In . SVG Version: 6.00 Build 0)  -->
<svg version="1.1" id="Layer_1" xmlns="http://www.w3.org/2000/svg" xmlns:xlink="http://www.w3.org/1999/xlink" x="0px" y="0px"
	 viewBox="0 0 111 93" style="enable-background:new 0 0 111 93;" xml:space="preserve">
<style type="text/css">
	.st0{fill:#00843D;}
	.st1{fill:#071D49;}
	.st2{display:none;}
</style>
<g id="background">
</g>
<g id="Layer_1_1_">
	<g>
		<path class="st0" d="M92.6,48.7c0-0.5-0.2-1-0.5-1.3c0-3-0.3-5.9-1-8.6c-2.7-10.7-10-19.7-19.6-24.9c-0.2-0.6-0.5-1.1-0.7-1.7
			c-0.4-0.8-1.3-1.2-2.1-0.9c-0.4,0.2-0.6,0.4-0.8,0.8c-3.3-1.4-6.7-2.3-10.3-2.8c-0.6-0.1-1.3-0.1-1.9-0.2
			c-0.3-0.3-0.7-0.5-1.2-0.5c-0.4,0-0.7,0.2-1,0.4c-3-0.1-5.9,0.2-8.7,0.9c-0.2-0.3-0.4-0.6-0.8-0.7c-0.8-0.4-1.8,0-2.2,0.8
			c-0.1,0.3-0.3,0.6-0.4,0.9c-7.8,2.6-14.3,8.1-18.7,15.9c-3.3,5.9-4.9,12.4-4.8,19c0,0.2-0.1,0.3-0.1,0.5s0,0.4,0.1,0.6
			c0.1,1.1,0.2,2.3,0.3,3.4c1.1,7.8,4.7,15.2,10.3,21.4c3.1,3.4,6.8,6.1,10.9,8.1c0.3,0.4,0.8,0.7,1.3,0.7h0.1
			c4.5,2,9.5,3.2,14.4,3.5c0.3,0.4,0.7,0.6,1.3,0.6c0,0,0,0,0.1,0c0.5,0,0.9-0.2,1.2-0.5c4.4,0,8.8-0.7,12.9-2.3
			c0.3,0,0.6-0.1,0.8-0.3c0.8-0.3,1.5-0.6,2.3-1c6.7-3.4,12.2-9.7,15.4-17.9c1.6-4,2.5-8.3,2.8-12.5C92.3,49.6,92.5,49.2,92.6,48.7z
			"/>
		<path class="st1" d="M93.3,49.4c0-0.5-0.2-1-0.5-1.3c0-2.9-0.3-5.7-1-8.4C89.1,29.3,82,20.5,72.6,15.4c-0.2-0.5-0.4-1.1-0.7-1.6
			c-0.3-0.8-1.3-1.2-2.1-0.8c-0.4,0.2-0.6,0.4-0.8,0.8c-3.2-1.3-6.6-2.3-10.1-2.8c-0.6-0.1-1.3-0.1-1.9-0.2
			c-0.3-0.3-0.7-0.5-1.2-0.5c-0.4,0-0.7,0.2-1,0.4c-3-0.1-5.8,0.2-8.6,0.8c-0.2-0.3-0.4-0.6-0.7-0.7c-0.8-0.4-1.7,0-2.1,0.8
			c-0.1,0.3-0.3,0.6-0.4,0.9c-7.6,2.6-14,7.9-18.3,15.6c-3.2,5.8-4.8,12.2-4.7,18.6c0,0.1-0.1,0.3-0.1,0.5s0,0.4,0.1,0.5
			c0.1,1.1,0.2,2.2,0.3,3.3c1.1,7.6,4.6,14.8,10.1,20.9c3,3.3,6.7,6,10.7,8c0.3,0.4,0.8,0.7,1.3,0.7h0.1c4.4,2,9.3,3.1,14.1,3.4
			c0.3,0.4,0.7,0.6,1.2,0.6l0,0c0.4,0,0.8-0.2,1.1-0.5c4.3,0,8.6-0.7,12.6-2.2c0.3,0,0.6-0.1,0.8-0.3c0.8-0.3,1.5-0.6,2.2-1
			c6.6-3.3,12-9.5,15.1-17.5c1.5-3.9,2.5-8.1,2.7-12.3C93,50.3,93.3,49.9,93.3,49.4z M85.5,65L80,64.9c1.1-4.6,1.5-9.6,1.3-14.8
			c2.8,0.2,5.5,0.4,8.3,0.6C89.2,55.9,87.7,60.8,85.5,65z M70.7,78.7c-3.5,1.3-7.2,2-11.1,2l-0.4-13.1L75.9,68
			C74.6,71.8,72.9,75.3,70.7,78.7z M59.1,64.4L58.6,49c6.5,0.2,13,0.6,19.5,1c0.2,5.3-0.2,10.2-1.3,14.9L59.1,64.4z M28.6,63.9
			c-3-4.9-4.8-10.1-5.3-15.4c4,0,8-0.1,12,0c0,5.1,0.5,10.3,1.4,15.3l-7.1-0.2C29.3,63.6,28.9,63.7,28.6,63.9z M55.3,45.6
			c-5.6-0.2-11.1-0.3-16.7-0.3c0.2-5.3,0.9-10.6,2-15.8c4.7,0.1,9.5,0.3,14.2,0.5L55.3,45.6z M58,30.2c5.6,0.3,11.2,0.7,16.8,1.1
			c1.6,5.5,2.5,10.6,3,15.4c-6.4-0.4-12.9-0.7-19.4-1L58,30.2z M38.6,48.5c5.6,0,11.2,0.2,16.8,0.3l0.5,15.4L40,63.9
			C39.1,58.8,38.6,53.6,38.6,48.5z M89.7,47.6c-2.9-0.2-5.7-0.4-8.6-0.6c-0.4-4.8-1.4-9.9-2.8-15.3c2.2,0.2,4.3,0.4,6.5,0.6
			c0.1,0,0.1,0,0.2,0c0.2,0,0.3,0,0.4-0.1c1.5,2.6,2.6,5.4,3.4,8.4C89.3,42.9,89.6,45.2,89.7,47.6z M83.3,28.8c-2-0.2-4-0.4-6-0.5
			c-0.8-2.6-1.7-5.3-2.7-8C77.9,22.6,80.9,25.5,83.3,28.8z M70.1,17.6c1.5,3.6,2.7,7.1,3.8,10.4c-5.3-0.4-10.6-0.8-16-1l-0.4-13.1
			c0.3,0,0.6,0.1,1,0.1C62.6,14.6,66.5,15.8,70.1,17.6z M54,13.7c0.1,0,0.2,0,0.4,0l0.4,13.1c-4.4-0.2-8.9-0.4-13.3-0.5
			c1-3.9,2.3-7.7,3.9-11.4C48.1,14.2,51,13.7,54,13.7z M41.3,16.4c-1.2,3.2-2.3,6.5-3.2,9.8c-2.9-0.1-5.7-0.1-8.5-0.1
			C32.7,21.8,36.7,18.6,41.3,16.4z M27.5,29.5c0,0,0-0.1,0.1-0.1c3.3,0,6.5,0,9.8,0.1c-1.1,5.2-1.8,10.4-2,15.7v0.1
			c-4.1,0-8.1,0-12.2,0.1C23.3,39.9,24.7,34.5,27.5,29.5z M32.9,69.6c-0.8-0.9-1.6-1.8-2.3-2.8l6.8,0.2c0.6,2.8,1.3,5.5,2.2,8.1
			C37.1,73.5,34.8,71.7,32.9,69.6z M43.7,77.3c-1.2-3.3-2.3-6.8-3-10.2L56,67.4l0.4,13.1c-1.5-0.1-3-0.3-4.5-0.6
			C49,79.4,46.3,78.5,43.7,77.3z M76,76c1.3-2.5,2.4-5.2,3.2-8l4.4,0.1C81.4,71.4,78.8,74.1,76,76z"/>
	</g>
</g>
<g id="header_x2F_footer">
</g>
<g id="modal">
</g>
<g id="popup">
</g>
<g id="GRID" class="st2">
</g>
</svg>
