<?xml version="1.0" encoding="utf-8"?>
<!-- Generator: Adobe Illustrator 24.3.0, SVG Export Plug-In . SVG Version: 6.00 Build 0)  -->
<svg version="1.1" id="Layer_1" xmlns="http://www.w3.org/2000/svg" xmlns:xlink="http://www.w3.org/1999/xlink" x="0px" y="0px"
	 viewBox="0 0 111 93" style="enable-background:new 0 0 111 93;" xml:space="preserve">
<style type="text/css">
	.st0{fill:#00843D;}
	.st1{fill:#071D49;}
	.st2{display:none;}
</style>
<g id="background">
</g>
<g id="Layer_1_1_">
	<g>
		<path class="st0" d="M78.5,58.5c-0.1-0.1-0.1-0.3-0.3-0.4c-0.3-1-0.9-4.8-1.1-6.1c-0.1-0.8-0.2-1.2-0.2-1.3
			c-1.7-8.4-5.1-17.1-7.9-23.9c2.7-2.4,3.8-5.5,3.2-9.4c-0.1-0.8-0.4-1.9-0.8-2.9c0.1-0.1,0.1-0.2,0.1-0.4c0.2-2.4,0.3-5-0.6-7.5
			c-0.9-2.3-3.1-4.5-5.8-4.5c-1.2-1.6-3.3-2-5-1.8s-3.2,1.1-4.6,2c-1.4-0.5-2.9-0.3-4.1,0.3c-1.2,0.6-2.1,1.7-2.5,2.9
			c-1,0-2,0.4-2.6,1.1c-0.7,0.7-1.2,1.9-1.1,3c-1.4,1-1.8,3-1.6,4.5c0.3,2.2,1.6,4,2.8,5.6c0.2,0.3,0.4,0.5,0.6,0.8
			c1,1.3,2,2.4,2.6,3.8c0.1,0.3,0.4,0.5,0.7,0.5c0.8,1,1.9,2,3,2.7c0.6,0.4,1.2,0.7,1.9,1c-0.2,0.2-0.3,0.5-0.3,0.7
			c0.2,5,0.3,10.3,0.3,16.8c0,1.2,0,2.5,0.1,3.8c0.1,4,0.2,8.1-0.8,11.7c-0.1,0.3,0,0.6,0.1,0.9c0.2,0.3,0.4,0.4,0.7,0.5
			c2,0.3,4,0.4,6,0.4c5.7,0,11.3-1.1,16.5-3.4C78.5,59.7,78.8,59.1,78.5,58.5z"/>
		<path class="st0" d="M52,60.9c-0.5-5.2-1.7-9.9-3.6-13.9c0.1-0.1,0.3-0.2,0.4-0.4c3.6-3.6,4.1-9.1,1.1-12.8
			c-2.3-2.8-6.5-3.6-9.3-3.4c-0.7,0-1.4,0.2-2,0.4c-0.2-0.7-0.2-1.4-0.2-2.1c0-0.5-0.4-0.9-0.8-0.9c-0.5,0-0.9,0.4-0.9,0.8
			c0,0.8,0.1,1.6,0.2,2.4c-0.5-0.5-1.2-0.9-1.9-1.1c-0.5-0.1-0.9,0.1-1.1,0.6c-0.1,0.5,0.1,0.9,0.6,1.1c0.5,0.1,1,0.4,1.3,0.8
			c-0.1,0.1-0.2,0.2-0.3,0.3c-1-0.1-2-0.1-3,0.1c-0.5,0.1-0.8,0.5-0.7,1c0.1,0.4,0.4,0.7,0.8,0.7h0.1c0.5-0.1,1-0.1,1.5-0.1
			c-0.3,0.5-0.5,1-0.7,1.5c-1.3,3.4-0.8,7.4,1.4,10.1c0.5,0.6,1,1.1,1.6,1.5c-0.1,0.2-0.2,0.4-0.2,0.6c0,0.3,0,1.1-0.1,2.2
			c-0.7,20-0.6,20.1-0.1,20.6c0.2,0.2,0.5,0.3,0.8,0.3c3.3-0.3,6.4-0.4,9.4-0.2c0.6,0,1.1,0.1,1.6,0.2s1.1,0.2,1.6,0.2
			c0.6,0,1.1-0.1,1.6-0.5c0.9-0.7,1-1.9,1.1-2.7C52.3,66,52.2,63.5,52,60.9z"/>
		<g>
			<path class="st1" d="M81.2,36c-2.2,0-4.2-1.6-5.7-2.7L75.1,33c-0.3-0.3-0.7-0.5-1-0.8c-1.6-1.2-3.2-2.5-4.8-3.6
				c-0.5-0.3-0.6-1-0.3-1.5c0.3-0.5,1-0.6,1.5-0.3c1.7,1.2,3.4,2.4,5,3.7l1.4,1.1c1.4,1.1,3.2,2.5,4.8,2.3c0.5-0.1,1-0.8,1.5-1.5
				c0.2-0.3,0.4-0.5,0.6-0.7l3.1-3.7c0.4-0.5,1-0.5,1.5-0.1s0.5,1,0.1,1.5L85.4,33c-0.2,0.2-0.3,0.4-0.5,0.6
				c-0.7,0.9-1.5,2.1-2.9,2.3C81.7,35.9,81.5,36,81.2,36z"/>
		</g>
		<g>
			<path class="st1" d="M50.1,52.4c-0.3,0-0.6-0.1-0.8-0.3c-0.4-0.4-0.4-1.1,0-1.5C51.9,48.1,53,43,54,38c0.8-3.7,1.5-7.2,2.8-9.7
				c0.3-0.5,0.9-0.7,1.4-0.5c0.5,0.3,0.7,0.9,0.5,1.4c-1.2,2.3-1.9,5.6-2.6,9.2c-1.1,5.3-2.2,10.7-5.2,13.7
				C50.6,52.3,50.4,52.4,50.1,52.4z"/>
		</g>
		<g>
			<path class="st1" d="M79.4,87L79.4,87h-4.9c-0.3,0-0.6-0.1-0.8-0.3c-0.2-0.2-0.3-0.5-0.3-0.8c0.2-4.8,0-9-0.3-13
				c-0.2-4.5-0.4-8.7-0.2-13.4c0-0.6,0.5-1,1.1-1s1,0.5,1,1.1c-0.3,4.6-0.1,8.8,0.2,13.2c0.2,3.8,0.4,7.7,0.3,12.1h3.8
				c0.6,0,1.1,0.5,1.1,1.1C80.4,86.6,79.9,87,79.4,87z"/>
		</g>
		<g>
			<path class="st1" d="M65,89.8c-0.1,0-0.2,0-0.3-0.1c-1.6-0.6-3.4-0.7-5-0.5c-0.3,0-0.6-0.1-0.9-0.3c-0.2-0.2-0.4-0.5-0.3-0.9
				c0.1-1.9,0.2-3.7,0.4-5.4c0.5-7.2,1-13.4,0-20.8c-0.1-0.6,0.3-1.1,0.9-1.2c0.6-0.1,1.1,0.3,1.2,0.9c1,7.6,0.5,14.2,0,21.2
				c-0.1,1.3-0.2,2.7-0.3,4.1c1.6-0.1,3.2,0.2,4.8,0.7c0.6,0.2,0.9,0.8,0.7,1.4C65.8,89.6,65.4,89.8,65,89.8z"/>
		</g>
		<g>
			<path class="st1" d="M56.2,67.8c-0.5,0-1-0.4-1.1-0.9c-0.9-6.7-3.3-13.2-6.9-18.9c-0.3-0.5-0.2-1.2,0.3-1.5s1.2-0.2,1.5,0.3
				c3.9,5.9,6.4,12.7,7.3,19.8c0.1,0.6-0.3,1.1-0.9,1.2C56.3,67.8,56.3,67.8,56.2,67.8z"/>
		</g>
		<g>
			<path class="st1" d="M55.5,92.1c-0.2,0-0.4-0.1-0.6-0.2c-0.9-0.7-1.9-1.1-2.7-1.1c-0.3,0-0.6-0.1-0.8-0.3
				c-0.2-0.2-0.3-0.5-0.3-0.8c0.3-6.3-0.3-12.6-2-18.8c-0.2-0.6,0.2-1.2,0.7-1.3c0.6-0.2,1.2,0.2,1.3,0.7c1.7,6,2.4,12.2,2.1,18.5
				c1.3,0.3,2.4,1,2.9,1.4s0.6,1,0.2,1.5C56.1,92,55.8,92.1,55.5,92.1z"/>
		</g>
		<g>
			<path class="st1" d="M41.7,92.8c-0.1,0-0.3,0-0.4-0.1l-2.8-1.1c-0.4-0.2-0.7-0.6-0.7-1.1c0.6-6.4,0.6-12.8-0.1-19.2
				c-0.1-0.6,0.4-1.1,1-1.2s1.1,0.4,1.2,1c0.6,6.2,0.7,12.6,0.2,18.8l2,0.8c0.6,0.2,0.8,0.8,0.6,1.4C42.6,92.5,42.2,92.8,41.7,92.8z
				"/>
		</g>
		<g>
			<path class="st1" d="M31.5,50.7c-1.1,0-2.3-0.2-3.3-0.9c-1.2-0.8-1.8-1.9-2.3-2.9c-0.1-0.2-0.3-0.5-0.4-0.7
				c-0.8-1.4-1.8-2.6-2.9-3.8c-0.4-0.4-0.4-1.1,0-1.5s1.1-0.4,1.5,0c1.2,1.3,2.2,2.6,3.1,4.1c0.2,0.3,0.3,0.5,0.5,0.8
				c0.5,0.9,0.9,1.6,1.6,2.1c1,0.6,2.4,0.6,3.5,0.4c1.5-0.2,3.1-0.3,4.6-0.3h0.1c0.6,0,1.1,0.4,1.1,1s-0.4,1.1-1,1.1h-0.1
				c-1.5,0.1-3,0.1-4.4,0.3C32.6,50.6,32,50.7,31.5,50.7z"/>
		</g>
		<g>
			<path class="st1" d="M64.3,24.7c2.1-0.5,3.9-2.2,4.5-4.3c0.1-0.5-0.1-0.9-0.6-1.1c-0.4-0.1-0.9,0.1-1.1,0.6
				c-0.5,1.5-1.8,2.8-3.3,3.2c-1.6,0.4-3.3-0.1-4.5-1.2c-0.3-0.3-0.9-0.3-1.2,0s-0.3,0.9,0,1.2c1.2,1.1,2.9,1.8,4.5,1.8
				C63.3,24.9,63.8,24.8,64.3,24.7z"/>
			<path class="st1" d="M79.8,58.6c-0.1-0.1-0.1-0.3-0.3-0.4c-0.3-1-0.9-4.8-1.1-6.1c-0.1-0.8-0.2-1.2-0.2-1.3
				c-1.7-8.4-5.1-17.1-7.9-23.9c2.7-2.4,3.8-5.5,3.2-9.4c-0.1-0.8-0.4-1.9-0.8-2.9c0.1-0.1,0.1-0.2,0.1-0.4c0.2-2.4,0.3-5-0.6-7.5
				c-0.9-2.3-3.1-4.5-5.8-4.5c-1.2-1.6-3.3-2-5-1.8s-3.2,1.1-4.6,2c-1.4-0.5-2.9-0.3-4.1,0.3c-1.2,0.6-2.1,1.7-2.5,2.9
				c-1,0-2,0.4-2.6,1.1c-0.7,0.7-1.2,1.9-1.1,3c-1.4,1-1.8,3-1.6,4.5c0.3,2.2,1.6,4,2.8,5.6c0.2,0.3,0.4,0.5,0.6,0.8
				c1,1.3,2,2.4,2.6,3.8c0.1,0.3,0.4,0.5,0.7,0.5c0.8,1,1.9,2,3,2.7c0.6,0.4,1.2,0.7,1.9,1c-0.2,0.2-0.3,0.5-0.3,0.7
				c0.2,5,0.3,10.3,0.3,16.8c0,1.2,0,2.5,0.1,3.8c0.1,4,0.2,8.1-0.8,11.7c-0.1,0.3,0,0.6,0.1,0.9c0.2,0.3,0.4,0.4,0.7,0.5
				c2,0.3,4,0.4,6,0.4c5.7,0,11.3-1.1,16.5-3.4C79.8,59.7,80.1,59.1,79.8,58.6z M49.1,18.6c-1.1-1.4-2.2-3-2.5-4.8
				c-0.2-1.2,0.2-2.6,1.2-3.1c0.4-0.2,0.6-0.6,0.5-1c-0.2-0.6,0.1-1.5,0.6-2c0.3-0.4,0.9-0.6,1.4-0.6c0.1,0,0.3,0,0.4,0.1
				c0.2,0.1,0.5,0,0.7-0.1s0.3-0.3,0.4-0.6c0.2-1,0.9-2,1.9-2.5c0.9-0.5,2.1-0.5,3.1-0.1C57.1,4,57.4,4,57.6,3.8
				c1.3-0.9,2.7-1.8,4.2-2C63,1.6,64.7,2,65.4,3.2c0.2,0.3,0.5,0.5,0.8,0.4c2-0.2,3.9,1.6,4.6,3.4c0.6,1.5,0.7,3.3,0.6,5
				c-1.5-1.2-3.2-1.9-4.9-2.7c-2.3-1-4.5-2-5.9-3.9C60.4,5.1,60,5,59.7,5.1C59.3,5.3,59,5.7,59,6c-0.1,1.5-0.9,3.1-2.5,4.9
				c-0.3,0.4-0.7,0.7-1,1.1c-1.1,1.2-2.2,2.4-3,3.9s-1.3,3.2-1.5,5c-0.4-0.5-0.8-1-1.2-1.5C49.5,19.1,49.3,18.9,49.1,18.6z
				 M52.7,22.6c0-0.1-0.1-0.1-0.1-0.2c0-2.1,0.5-4.1,1.3-5.7c0.7-1.3,1.7-2.4,2.8-3.5c0.4-0.4,0.7-0.8,1-1.1c0.9-1,2-2.5,2.6-4.2
				c1.6,1.4,3.5,2.3,5.4,3.1c1.7,0.7,3.3,1.5,4.6,2.5c0,0.1,0,0.2,0,0.3c0.1,0.2,0.1,0.4,0.2,0.7c0.3,1,0.8,2.4,0.9,3.1
				c0.6,4.4-1.2,7.5-5.9,9.7c-3,1.4-7,0.1-9.6-1.7C54.6,24.9,53.5,23.8,52.7,22.6z M58.2,60.9c0.8-3.6,0.7-7.4,0.6-11.1
				c0-1.3-0.1-2.5-0.1-3.7c0-6.4-0.1-11.8-0.3-16.8c1.4,0.5,2.8,0.8,4.3,0.8c1.3,0,2.5-0.2,3.7-0.8c0.8-0.4,1.5-0.8,2.2-1.2
				c2.7,6.6,5.9,15,7.6,23c0,0.1,0.1,0.7,0.2,1.2c0.5,3.2,0.8,5,1.1,6C71.3,60.8,64.7,61.7,58.2,60.9z"/>
			<path class="st1" d="M59.8,18.1c0.4-0.6,0.5-1.4,0.2-2.1c-0.1-0.2-0.2-0.4-0.3-0.6c-0.2-0.2-0.5-0.3-0.7-0.3
				c-0.5,0-1,0.4-1.1,0.9c-0.2,0.5-0.1,1.2,0.3,1.7C58.5,18.4,59.4,18.7,59.8,18.1z"/>
			<path class="st1" d="M64.9,17.2c0.4,0.2,0.8,0,1.1-0.4c0.3-0.4,0.4-1,0.2-1.5c-0.2-0.7-0.9-1.1-1.5-0.9c-0.6,0.2-0.9,0.9-0.8,1.6
				C64.1,16.6,64.5,17,64.9,17.2z"/>
		</g>
		<g>
			<path class="st1" d="M40.9,43.5c-0.3,0.4-0.2,0.9,0.2,1.2c0.7,0.5,1.2,0.6,1.7,0.6c0.2,0,0.3,0,0.5,0c0.1,0,0.2,0,0.3,0
				c1.5-0.1,2.9-1,3.6-2.4c0.2-0.4,0-0.9-0.4-1.1c-0.4-0.2-0.9,0-1.1,0.4c-0.4,0.8-1.2,1.3-2.1,1.4c-0.1,0-0.2,0-0.3,0
				c-0.6,0-0.8,0-1.2-0.2C41.7,43,41.2,43.1,40.9,43.5z"/>
			<path class="st1" d="M53.2,61.1c-0.5-5.2-1.7-9.9-3.6-13.9c0.1-0.1,0.3-0.2,0.4-0.4c3.6-3.6,4.1-9.1,1.1-12.8
				c-2.3-2.8-6.5-3.6-9.3-3.4c-0.7,0-1.4,0.2-2,0.4c-0.2-0.7-0.2-1.4-0.2-2.1c0-0.5-0.4-0.9-0.8-0.9c-0.5,0-0.9,0.4-0.9,0.8
				c0,0.8,0.1,1.6,0.2,2.4c-0.5-0.5-1.2-0.9-1.9-1.1c-0.5-0.1-0.9,0.1-1.1,0.6c-0.1,0.5,0.1,0.9,0.6,1.1c0.5,0.1,1,0.4,1.3,0.8
				c-0.1,0.1-0.2,0.2-0.3,0.3c-1-0.1-2-0.1-3,0.1c-0.5,0.1-0.8,0.5-0.7,1c0.1,0.4,0.4,0.7,0.8,0.7h0.1c0.5-0.1,1-0.1,1.5-0.1
				c-0.3,0.5-0.5,1-0.7,1.5c-1.3,3.4-0.8,7.4,1.4,10.1c0.5,0.6,1,1.1,1.6,1.5c-0.1,0.2-0.2,0.4-0.2,0.6c0,0.3,0,1.1-0.1,2.2
				c-0.7,20-0.6,20.1-0.1,20.6c0.2,0.2,0.5,0.3,0.8,0.3c3.3-0.3,6.4-0.4,9.4-0.2c0.6,0,1.1,0.1,1.6,0.2s1.1,0.2,1.6,0.2
				c0.6,0,1.1-0.1,1.6-0.5c0.9-0.7,1-1.9,1.1-2.7C53.5,66.2,53.4,63.7,53.2,61.1z M49,34.9C48.9,34.9,48.9,34.9,49,34.9
				c-0.1,0-0.2-0.1-0.2-0.1l-0.2-0.2C48.7,34.7,48.8,34.8,49,34.9z M42,32.8c0.8-0.1,1.6,0,2.5,0.1c-2,1.4-4.4,2.4-6.8,2.7
				c-0.2,0-0.3,0.1-0.5,0.2C38.3,34,40,32.9,42,32.8z M36.7,36.9c0.1-0.2,0.2-0.5,0.3-0.7l-0.9,3.9C36.1,39.1,36.2,38,36.7,36.9z
				 M36.5,42.7c0.2-0.1,0.4-0.2,0.6-0.4c0.4-0.5,0.6-1.1,0.7-1.5l0.8-3.6c2.7-0.4,5.3-1.6,7.4-3.2l1.5,1.9c0.2,0.3,0.6,0.7,1.1,0.9
				c0.1,0,0.3,0.1,0.4,0.1c0.3,0,0.6-0.1,0.9-0.3c0.1-0.1,0.2-0.1,0.2-0.2c1.8,3.1,0.6,6.8-1.6,9.1c-0.1,0.1-0.3,0.2-0.4,0.4
				c-0.1,0-0.2,0-0.4,0.1s-0.4,0.3-0.5,0.6c-1.3,0.8-2.9,1.3-4.5,1.2c-2-0.1-3.8-1-5-2.6C37.2,44.3,36.8,43.5,36.5,42.7z M51.2,68.5
				c0,1-0.3,1.1-0.3,1.1c-0.2,0.1-1,0-1.5-0.1c-0.6-0.1-1.2-0.2-1.9-0.3c-2.8-0.2-5.6-0.1-8.6,0.1c0-3.4,0.4-14.6,0.5-18.6
				c0-0.8,0.1-1.4,0.1-1.8c1,0.4,2,0.7,3.1,0.7c0.2,0,0.4,0,0.5,0c1.6,0,3.3-0.4,4.7-1.2c1.7,3.7,2.8,8,3.2,12.9
				C51.3,63.8,51.4,66.2,51.2,68.5z"/>
			<path class="st1" d="M41.3,40.7c0.3-0.5,0.4-1.2,0.2-1.8c-0.1-0.2-0.2-0.4-0.3-0.5c-0.2-0.2-0.4-0.2-0.6-0.2
				c-0.4,0-0.8,0.3-1,0.8s-0.1,1.1,0.2,1.5C40.2,40.9,40.9,41.2,41.3,40.7z"/>
			<path class="st1" d="M45.8,39.9c0.4,0.2,0.7,0,1-0.4c0.3-0.3,0.3-0.9,0.2-1.3c-0.2-0.6-0.8-0.9-1.3-0.8c-0.5,0.1-0.8,0.8-0.7,1.4
				C45.1,39.3,45.4,39.7,45.8,39.9z"/>
		</g>
	</g>
</g>
<g id="header_x2F_footer">
</g>
<g id="modal">
</g>
<g id="popup">
</g>
<g id="GRID" class="st2">
</g>
</svg>
