<?xml version="1.0" encoding="utf-8"?>
<!-- Generator: Adobe Illustrator 24.3.0, SVG Export Plug-In . SVG Version: 6.00 Build 0)  -->
<svg version="1.1" id="Layer_1" xmlns="http://www.w3.org/2000/svg" xmlns:xlink="http://www.w3.org/1999/xlink" x="0px" y="0px"
	 viewBox="0 0 111 93" style="enable-background:new 0 0 111 93;" xml:space="preserve">
<style type="text/css">
	.st0{fill:#00843D;}
	.st1{fill:#00013A;}
	.st2{display:none;}
</style>
<g id="background">
</g>
<g id="Layer_1_1_">
	<g>
		<path class="st0" d="M91.7,42.4c-0.3,0-0.5,0-0.8,0c-1.5-4.8-3.4-9.5-5.6-14.1c-0.4-0.9-1.3-1.1-2-0.7l0,0
			c-6.8,0.1-13.6,0.2-20.4,0.4c-0.1,0-0.2,0-0.3,0l-0.1-0.1c-0.9,0.2-1.9,0.3-2.9,0.3c-2.7,0.2-5.4,0-8.1,0.2
			c-1.6,0.1-3.2,0.2-4.8,0.1c-0.1,0.1-0.1,0.1-0.2,0.2c-0.1,0-0.2,0-0.3,0c-7.9,0-15.8-0.1-23.6-0.1c-1.2,0-1.8,1-1.7,2
			c-0.2,0.2-0.4,0.4-0.5,0.8c-1.3,4.3-3.3,8.1-6,11.7c-0.9,1.1,0,2.2,1.1,2.5c0.1,0.8,0.7,1.5,1.7,1.5c0.9,0,1.7,0,2.6,0
			c-1.2,11.7-2.2,23.4-0.2,35c-1,0.9-0.6,3.1,1.2,3.1c22.6-0.1,45.3-0.3,67.9-0.4c0.4,0,0.8-0.1,1-0.3c0.8,0,1.6-0.6,1.5-1.7
			c-1.4-12.1-2-24.3-1.8-36.5c0.8,0,1.6,0,2.3,0C93.9,45.9,93.9,42.4,91.7,42.4"/>
		<path class="st1" d="M62.7,47.2c-0.4,3-2.2,5.7-5.5,5.8c-2.7,0.1-5-1.8-5.5-4.4c-0.6-3.2,1.9-5.7,4.8-6.2c0.3-0.1,0.5-0.2,0.7-0.3
			C60.2,42.5,63.2,43.8,62.7,47.2 M54.7,38.3c-1.1,0-1.6,0.8-1.7,1.6c-3.2,1.7-5.3,5.1-4.8,8.9c0.6,4.8,5,8.3,9.8,7.7
			c4.9-0.6,7.8-4.8,8.2-9.5C66.9,40.5,60,38.4,54.7,38.3"/>
		<path class="st1" d="M59.4,47.2h-1.1c0.1-0.5,0.2-1,0.2-1.5c0.1-0.9-0.2-1.9-1.2-2.2c-0.8-0.2-2,0.3-2.2,1.2c-0.2,1-0.3,2-0.5,3
			c-0.1,0.5,0,0.9,0.2,1.3c0.1,0.9,0.8,1.6,1.7,1.6h2.8c0.9,0,1.8-0.8,1.8-1.8C61.1,48,60.4,47.2,59.4,47.2"/>
		<path class="st1" d="M66.1,83.1c0-0.1,0-0.2,0-0.2c-1.1-5.5-1.4-11-0.9-16.6c0.1-1.6-1.5-2-2.6-1.4c-2.9-0.1-5.7-0.3-8.6-0.4
			c-0.5,0-0.8,0.1-1.1,0.3c-1.1-0.5-2.6,0-2.5,1.5l0.9,17c-8.2,0.1-16.4,0.1-24.7,0.2c0-0.1,0-0.2,0-0.2c-1.9-11.4-0.8-23,0.3-34.4
			c4.7-0.1,9.3-0.4,14-0.8c1.7-0.1,2.1-2.2,1.3-3.1C47,38.4,52.6,32.6,59,27.5c5.9,5.9,11,12.4,15.4,19.5c0.2,0.3,0.4,0.5,0.7,0.6
			c0.3,0.2,0.6,0.4,1.1,0.4c4.4,0,8.7,0,13.1-0.1c-0.2,11.7,0.3,23.4,1.6,35C82.7,83,74.4,83.1,66.1,83.1 M60.9,83.2
			c0-0.2,0-0.4,0-0.6c-1.2-4.8-1.3-9.5-0.5-14.3c0.4,0,0.8,0,1.1,0.1c-0.3,5,0.1,9.9,1.1,14.9L60.9,83.2z M54.7,83.2
			c-0.3-5.1-0.5-10.2-0.8-15.3l0,0c1,0,1.9,0.1,2.9,0.1c-0.8,5.1-0.7,10.1,0.5,15.1L54.7,83.2z M22,45.3c2.4-3.4,4.1-7.1,5.4-11.1
			c0-0.1,0-0.1,0-0.2c6.4,0,12.8,0.1,19.2,0.1c-3,3.1-5.8,6.5-8.3,10c-0.1,0.2-0.2,0.3-0.3,0.5C32.7,45.1,27.4,45.3,22,45.3 M66,9.6
			c-0.6,0.5-1.1,1-1.6,1.5C64.1,11.4,64,11.7,64,12c-0.2,0.7,0,1.5,0.7,2l1.2,0.8c-1.8,0.2-3.6,0.3-5.4,0.5l0,0
			c-0.1-1.9-0.3-3.7-0.7-5.6L66,9.6z M86.2,33.1c1.7,3.7,3.2,7.5,4.5,11.4c-4.6,0-9.1,0.1-13.7,0.1c-2.4-3.9-5.1-7.6-8-11.1
			L86.2,33.1z M95.2,44.5c-0.3,0-0.5,0-0.8,0c-1.5-4.8-3.4-9.5-5.6-14.1c-0.4-0.9-1.3-1.1-2-0.7l0,0c-6.8,0-13.6,0.2-20.4,0.3
			c-0.1,0-0.2,0-0.3,0c-1.8-2-3.6-3.9-5.5-5.8c-0.1-0.1-0.1-0.1-0.2-0.2c0.2-1.8,0.2-3.5,0.2-5.3c3.4-0.3,6.8-0.6,10.2-0.9
			c1.9-0.2,2.2-2.8,0.8-3.4c-0.1-0.1-0.2-0.2-0.4-0.4c-1-0.6-1.9-1.3-2.9-1.9c1.2-1,2.5-1.9,4-2.6c0.3-0.2,0.6-0.4,0.7-0.8
			c0.7-1,0.3-2.9-1.3-2.8C67.4,5.9,63.1,6,58.8,6c-0.7,0-1.2,0.4-1.5,0.8c-0.8,0.3-1.4,1-1.2,2.1c1,5.1,1.2,10.1,0.7,15.3
			c0,0.1,0,0.3,0,0.4c-2.4,1.9-4.6,3.9-6.8,5.9c-0.1,0-0.2,0-0.3,0c-7.9,0-15.8-0.1-23.6-0.1c-1.2,0-1.8,1-1.7,2
			c-0.2,0.2-0.4,0.4-0.5,0.8c-1.3,4.3-3.3,8.1-6,11.7c-0.8,1.1,0,2.2,1.1,2.5c0.1,0.8,0.7,1.5,1.7,1.5c0.9,0,1.7,0,2.6,0
			c-1.2,11.7-2.2,23.4-0.3,35c-1,0.9-0.6,3.1,1.2,3.1c22.6-0.1,45.3-0.3,67.9-0.4c0.4,0,0.8-0.1,1-0.3c0.8,0,1.6-0.6,1.5-1.7
			c-1.4-12.1-2-24.3-1.8-36.5c0.8,0,1.6,0,2.3,0C97.4,48,97.4,44.5,95.2,44.5"/>
		<path class="st1" d="M37.9,70.3c0-0.5,0-1.1-0.1-1.6c0.9,0,1.8,0,2.7,0c0,0.5,0,1-0.1,1.6H37.9z M32.7,70.5c0-0.6-0.1-1.2-0.1-1.8
			c0.6,0,1.1,0,1.7,0c0,0.6,0,1.2,0.1,1.8H32.7z M34.5,63.3c-0.1,0.6-0.1,1.3-0.2,1.9c-0.6,0-1.1,0-1.7,0c0-0.6,0.1-1.3,0.1-1.9
			C33.4,63.2,34,63.3,34.5,63.3 M40.7,63.4c0,0.6,0,1.2-0.1,1.7c-0.9,0-1.8,0-2.8,0c0-0.6,0.1-1.2,0.1-1.8
			C38.9,63.3,39.8,63.3,40.7,63.4 M44,70.4l0.3-8.7c0-1.1-0.8-1.7-1.7-1.7c-0.2,0-0.3-0.1-0.5-0.1c-3.8-0.1-7.6-0.1-11.4-0.2
			c-1.7,0-2.1,1.9-1.3,2.9c-0.3,3-0.3,5.9-0.1,8.9c0,0.4,0.2,0.8,0.4,1.1c0.1,0.8,0.6,1.5,1.7,1.5c3.9-0.2,7.7-0.3,11.6-0.5
			C44.7,73.5,45.1,71.2,44,70.4"/>
		<path class="st1" d="M80,69.1c0.1-0.7,0.3-1.5,0.4-2.2c1.2,0,2.4,0,3.6-0.1c0,0.7-0.1,1.4-0.1,2.1C82.6,69,81.3,69.1,80,69.1
			 M76.4,69.3c-0.6,0-1.2,0-1.7,0v-2.5c0.7,0,1.4,0.1,2.1,0.1c-0.1,0.7-0.2,1.3-0.4,2C76.4,69,76.4,69.1,76.4,69.3 M77.8,61.4
			c-0.1,0.7-0.2,1.3-0.4,2c-0.9,0-1.8-0.1-2.7-0.1v-1.9C75.7,61.4,76.8,61.4,77.8,61.4 M84.2,61.1c0,0.7-0.1,1.5-0.1,2.2
			c-1,0-2.1,0.1-3.1,0.1c0.1-0.7,0.3-1.4,0.4-2.1C82.3,61.2,83.3,61.2,84.2,61.1 M87.4,68.8c0.1-3,0.3-6,0.4-9
			c0.3-0.6,0.2-1.4-0.1-1.9c-0.5-0.9-1.8-1.1-2.7-0.4c-3.8,0.3-7.7,0.4-11.5,0.3c-0.2,0-0.3,0-0.4,0c-0.9,0-1.8,0.5-1.8,1.7V70
			c-0.4,0.7-0.4,1.7,0.2,2.3c0.5,1,1.9,1.1,2.7,0.5c4.1,0,8.3-0.2,12.4-0.6C88.3,72,88.7,69.5,87.4,68.8"/>
	</g>
</g>
<g id="header_x2F_footer">
</g>
<g id="modal">
</g>
<g id="popup">
</g>
<g id="GRID" class="st2">
</g>
</svg>
