<?xml version="1.0" encoding="utf-8"?>
<!-- Generator: Adobe Illustrator 24.3.0, SVG Export Plug-In . SVG Version: 6.00 Build 0)  -->
<svg version="1.1" id="Layer_1" xmlns="http://www.w3.org/2000/svg" xmlns:xlink="http://www.w3.org/1999/xlink" x="0px" y="0px"
	 viewBox="0 0 111 93" style="enable-background:new 0 0 111 93;" xml:space="preserve">
<style type="text/css">
	.st0{fill:#00539F;}
	.st1{fill:#141F47;}
	.st2{display:none;}
</style>
<g id="background">
</g>
<g id="Layer_1_1_">
	<g>
		<path class="st0" d="M109.2,33.6C105,22.7,94.8,15.8,83.4,14.7c-9.7-1-19.9,2.3-26.8,9.1c-6.9-6.8-17.1-10.1-26.8-9.1
			C18.4,15.8,8.2,22.7,4,33.6c-4.4,11.3-0.1,24.8,10.6,30.8c0,2-0.1,4-0.3,6l0,0c-0.2,3-0.4,5.9-0.8,8.8c-0.2,1.3,1.8,2.1,2.6,1.1
			c3.3-4,7.2-7.3,11.6-9.9l0,0c0.2-0.1,0.4-0.2,0.6-0.4c10.2,1.4,20.9-1.2,28.3-8.4c7.4,7.2,18.1,9.8,28.3,8.4
			c0.2,0.1,0.4,0.2,0.6,0.4l0,0c4.4,2.6,8.3,6,11.6,9.9c0.8,1,2.8,0.2,2.6-1.1c-0.4-2.9-0.6-5.9-0.8-8.8l0,0c-0.1-2-0.2-4-0.3-6
			C109.3,58.4,113.6,44.8,109.2,33.6z"/>
		<path class="st1" d="M56.4,51.8c-0.6,1-1.3,2-2,2.9c-0.6,0.8-1.3,1.6-2.1,2.3c-6.7,6.6-16.7,9.1-26,7.7c-0.3,0-0.5,0-0.8,0.1
			c-0.3,0-0.5,0-0.8,0.2c-3.6,2.1-7,4.6-9.9,7.5c0.3-3.5,0.5-7,0.6-10.5c0-0.3-0.1-0.6-0.2-0.8c0-0.5-0.2-1-0.7-1.3
			c-8.7-4.6-13.1-15-10.8-24.4c2.4-10,10.7-17.3,20.6-19.4c9.8-2.1,20.8,0.7,28,7.8c0.1,0,0.1,0.1,0.2,0.2c0.7,0.7,1.3,1.4,1.9,2.1
			C60.2,33.5,61.2,43.5,56.4,51.8 M57.9,25.6c-0.4-0.6-0.9-1.2-1.4-1.8c-0.6-0.8-1.3-1.5-2.1-2.2c-6.9-6.8-17.1-10.1-26.8-9.1
			C16.2,13.6,6,20.5,1.8,31.4c-4.4,11.3-0.1,24.8,10.6,30.8c-0.1,4.9-0.5,9.9-1.1,14.8c-0.2,1.3,1.8,2.1,2.6,1.1
			c3.4-4.1,7.5-7.6,12.2-10.3c10.2,1.4,20.9-1.2,28.3-8.4c0.7-0.7,1.4-1.5,2.1-2.3c0.1-0.2,0.3-0.3,0.4-0.5
			C63.9,47.5,64.5,35.1,57.9,25.6"/>
		<path class="st1" d="M96.4,62.2c0.1,4.9,0.5,9.9,1.1,14.8c0.2,1.3-1.8,2.1-2.6,1.1c-3.4-4.1-7.5-7.6-12.2-10.3
			c-10.2,1.4-20.9-1.2-28.3-8.4c0.7-0.7,1.4-1.5,2.1-2.3c6.7,6.6,16.7,9.1,26.1,7.7c0.3,0,0.5,0,0.8,0.1c0.3,0,0.5,0,0.8,0.2
			c3.6,2.1,7,4.6,9.9,7.5c-0.3-3.5-0.5-7-0.6-10.5c0-0.3,0.1-0.6,0.2-0.8c0-0.5,0.2-1,0.7-1.3c8.7-4.6,13.1-14.9,10.8-24.4
			c-2.4-10-10.8-17.3-20.6-19.4s-20.8,0.7-28,7.8c-0.6-0.8-1.3-1.5-2.1-2.2c6.9-6.8,17.1-10.1,26.8-9.1c11.4,1.1,21.6,8,25.8,18.9
			C111.4,42.6,107.1,56.2,96.4,62.2"/>
		<path class="st1" d="M93.8,40c-0.1-0.2-0.2-0.4-0.3-0.5c-0.1-0.1-0.3-0.3-0.5-0.3c-0.2-0.1-0.4-0.1-0.6-0.1c-0.1,0-0.3,0-0.4,0.1
			c-0.3,0.1-0.5,0.2-0.7,0.4c-0.1,0.1-0.2,0.2-0.2,0.3c-0.1,0.2-0.2,0.5-0.2,0.8V41c0,0.2,0,0.4,0.1,0.6c0.1,0.2,0.2,0.4,0.3,0.5
			c0.1,0.2,0.3,0.3,0.5,0.3c0.2,0.1,0.4,0.1,0.6,0.1l0.4-0.1c0.3-0.1,0.5-0.2,0.7-0.4c0.1-0.1,0.2-0.2,0.2-0.3
			c0.1-0.2,0.2-0.5,0.2-0.8v-0.3C93.9,40.4,93.9,40.2,93.8,40"/>
		<path class="st1" d="M81.7,39c-0.1-0.2-0.2-0.4-0.3-0.5c-0.1-0.1-0.3-0.3-0.5-0.3c-0.2-0.1-0.4-0.1-0.6-0.1c-0.1,0-0.3,0-0.4,0.1
			c-0.3,0.1-0.5,0.2-0.7,0.4c-0.1,0.1-0.2,0.2-0.2,0.3c-0.1,0.2-0.2,0.5-0.2,0.8V40c0,0.2,0,0.4,0.1,0.6c0.1,0.2,0.2,0.4,0.3,0.5
			c0.1,0.2,0.3,0.3,0.5,0.3c0.2,0.1,0.4,0.1,0.6,0.1l0.4-0.1c0.3-0.1,0.5-0.2,0.7-0.4c0.1-0.1,0.2-0.2,0.2-0.3
			c0.1-0.2,0.2-0.5,0.2-0.8v-0.3C81.8,39.4,81.8,39.2,81.7,39"/>
		<path class="st1" d="M69.6,40c-0.1-0.2-0.2-0.4-0.3-0.5c-0.1-0.1-0.3-0.3-0.5-0.3c-0.2-0.1-0.4-0.1-0.6-0.1c-0.1,0-0.3,0-0.4,0.1
			c-0.3,0.1-0.5,0.2-0.7,0.4c-0.1,0.1-0.2,0.2-0.2,0.3c-0.1,0.2-0.2,0.5-0.2,0.8V41c0,0.2,0,0.4,0.1,0.6c0.1,0.2,0.2,0.4,0.3,0.5
			c0.1,0.2,0.3,0.3,0.5,0.3c0.2,0.1,0.4,0.1,0.6,0.1l0.4-0.1c0.3-0.1,0.5-0.2,0.7-0.4c0.1-0.1,0.2-0.2,0.2-0.3
			c0.1-0.2,0.2-0.5,0.2-0.8v-0.3C69.7,40.4,69.7,40.2,69.6,40"/>
		<path class="st1" d="M43.6,40c-0.1-0.2-0.2-0.4-0.3-0.5s-0.3-0.3-0.5-0.3c-0.2-0.1-0.4-0.1-0.6-0.1c-0.1,0-0.3,0-0.4,0.1
			c-0.3,0.1-0.5,0.2-0.7,0.4c-0.1,0.1-0.2,0.2-0.2,0.3c-0.1,0.2-0.2,0.5-0.2,0.8V41c0,0.2,0,0.4,0.1,0.6c0.1,0.2,0.2,0.4,0.3,0.5
			c0.1,0.2,0.3,0.3,0.5,0.3c0.2,0.1,0.4,0.1,0.6,0.1l0.4-0.1c0.3-0.1,0.5-0.2,0.7-0.4c0.1-0.1,0.2-0.2,0.2-0.3
			c0.1-0.2,0.2-0.5,0.2-0.8v-0.3C43.7,40.4,43.7,40.2,43.6,40"/>
		<path class="st1" d="M31.5,41c-0.1-0.2-0.2-0.4-0.3-0.5c-0.1-0.1-0.3-0.3-0.5-0.3c-0.2-0.1-0.4-0.1-0.6-0.1c-0.1,0-0.3,0-0.4,0.1
			c-0.3,0.1-0.5,0.2-0.7,0.4c-0.1,0.1-0.2,0.2-0.2,0.3c-0.1,0.2-0.2,0.5-0.2,0.8V42c0,0.2,0,0.4,0.1,0.6c0.1,0.2,0.2,0.4,0.3,0.5
			c0.1,0.2,0.3,0.3,0.5,0.3c0.2,0.1,0.4,0.1,0.6,0.1l0.4-0.1c0.3-0.1,0.5-0.2,0.7-0.4c0.1-0.1,0.2-0.2,0.2-0.3
			c0.1-0.2,0.2-0.5,0.2-0.8v-0.3C31.6,41.4,31.6,41.2,31.5,41"/>
		<path class="st1" d="M19.4,40c-0.1-0.2-0.2-0.4-0.3-0.5c-0.1-0.1-0.3-0.3-0.5-0.3c-0.2-0.1-0.4-0.1-0.6-0.1c-0.1,0-0.3,0-0.4,0.1
			c-0.3,0.1-0.5,0.2-0.7,0.4c-0.1,0.1-0.2,0.2-0.2,0.3c-0.1,0.2-0.2,0.5-0.2,0.8V41c0,0.2,0,0.4,0.1,0.6c0.1,0.2,0.2,0.4,0.3,0.5
			c0.1,0.2,0.3,0.3,0.5,0.3c0.2,0.1,0.4,0.1,0.6,0.1l0.4-0.1c0.3-0.1,0.5-0.2,0.7-0.4c0.1-0.1,0.2-0.2,0.2-0.3
			c0.1-0.2,0.2-0.5,0.2-0.8v-0.3C19.5,40.4,19.5,40.2,19.4,40"/>
	</g>
</g>
<g id="header_x2F_footer">
</g>
<g id="modal">
</g>
<g id="popup">
</g>
<g id="GRID" class="st2">
</g>
</svg>
