<svg xmlns="http://www.w3.org/2000/svg" width="96.19" height="142.47" viewBox="0 0 96.19 142.47"><g id="Layer_2" data-name="Layer 2"><g id="Layer_1-2" data-name="Layer 1"><path d="M75.43,50.87c-1.09,17.8-17.58,30.53-17.64,48.4a2.84,2.84,0,0,1-1.46,2.6,14.83,14.83,0,0,1-14.4,12.63c-8.13.08-14.26-6.18-15-13.93A3.34,3.34,0,0,1,26,97a3.31,3.31,0,0,1-.25-1.9C27,87.49,20.18,82.32,16.1,77A39.1,39.1,0,0,1,9.85,41.68c5-15.37,20.81-25.92,37-24.16s29.6,17,28.61,33.35" style="fill:#fbab18"/><path d="M52.73,21.28c-16.16-1.77-32,8.78-37,24.14A39.11,39.11,0,0,0,22,80.72c4.09,5.34,10.89,10.51,9.69,18.09a3.15,3.15,0,0,0,.25,1.9,3.32,3.32,0,0,0,.92,3.6c.71,7.75,6.84,14,15,13.93a14.84,14.84,0,0,0,14.4-12.63A2.85,2.85,0,0,0,63.7,103c0-17.86,16.55-30.6,17.63-48.4,1-16.4-12.46-31.58-28.6-33.34m-4.45,54a44.17,44.17,0,0,0-1.35-6.16c1.4-.11,2.7-.26,3.8-.43.25,0,.52-.08.78-.13l-.06.63C50.3,79.14,50.3,89.09,53.2,98.67l-9.63,0a35.66,35.66,0,0,0,4.71-23.4M48.14,112a8.49,8.49,0,0,1-8.86-7l16.71,0c-.77,3.78-3.55,6.87-7.85,7.06M72.87,63.81C68.8,74.53,61.38,83.67,58.59,94.61a65.12,65.12,0,0,1-1.35-20.87c.14-1.76.14-4.18.3-6.59,5.06-1.59,10.2-4.36,11.26-9.05,1.33-5.83-5.09-9.19-9.95-7.23-4.38,1.77-5.9,6.47-6.62,11.2h0a30.84,30.84,0,0,1-6.49.82,11.23,11.23,0,0,1-1.37-.15,13.19,13.19,0,0,0-5.86-5.93c-5-2.2-10.68,2.76-7.43,7.8,1.79,2.78,5.33,4,9.12,4.44a30.2,30.2,0,0,1,1.16,3.31A29.66,29.66,0,0,1,37.89,96c-.4-5.36-3.14-9.83-6.86-14.23C25,74.64,20.55,67.61,20.24,58,19.69,40.74,34.3,25.66,51.89,27.46c17.83,1.83,27,20.49,21,36.35m-13.44-4.4c1.53-2.15,4-2.29,0,0" style="fill:#242953"/><path d="M49,2.16C47.78-1.64,41.75,0,43,3.83a14.29,14.29,0,0,1,.41,7.91c-.91,3.91,5.11,5.58,6,1.66A20.75,20.75,0,0,0,49,2.16" style="fill:#242953"/><path d="M76,9.7l-8.49,8.58c-2.83,2.86,1.58,7.28,4.42,4.41l8.49-8.58C83.28,11.25,78.87,6.83,76,9.7" style="fill:#242953"/><path d="M95.77,30.57c-.78-1.33-2.92-2.14-4.28-1.12l-6.66,5a3.22,3.22,0,0,0-1.12,4.27c.78,1.33,2.92,2.14,4.27,1.12l6.67-5a3.23,3.23,0,0,0,1.12-4.27" style="fill:#242953"/><path d="M24.48,13.29,17.81,7c-2.93-2.74-7.36,1.66-4.42,4.42l6.67,6.24C23,20.45,27.42,16,24.48,13.29" style="fill:#242953"/><path d="M11.44,33.6a11.25,11.25,0,0,1-6.12-2.41,3.21,3.21,0,0,0-4.41,0c-1.1,1.1-1.32,3.35,0,4.42a18.64,18.64,0,0,0,10.53,4.24,3.15,3.15,0,0,0,3.13-3.12,3.2,3.2,0,0,0-3.13-3.13" style="fill:#242953"/><path d="M54.08,121l-9.74-1.87c-3.93-.76-5.61,5.26-1.66,6l1.8.35a20,20,0,0,0-2.11,2.43c-1.55,2.06.6,4.54,2.69,4.7,2.54.19,3.46,3.41,2.24,5.29-2.19,3.38,3.21,6.51,5.4,3.15a9.47,9.47,0,0,0-2.25-12.5A12.27,12.27,0,0,1,54.08,127c2.86-.74,3.1-5.43,0-6" style="fill:#242953"/></g></g></svg>