<svg xmlns="http://www.w3.org/2000/svg" width="353.82" height="305.18" viewBox="0 0 353.82 305.18"><defs><style>.cls-1{opacity:0.87;}.cls-2{fill:#f98d3d;}.cls-3{fill:#242953;}.cls-4{fill:#fbb03b;}.cls-5{fill:#e55e4f;}</style></defs><g id="Layer_2" data-name="Layer 2"><g id="Layer_1-2" data-name="Layer 1"><g id="Leaves"><g id="Leaf-3"><g class="cls-1"><path class="cls-2" d="M184.13,76.29C180.85,52.12,169.62,30.5,156.23,7c.13-.88.24-1.77.31-2.67a3.35,3.35,0,0,0-3-3.63h0a3.36,3.36,0,0,0-3.63,3.05c0,.14,0,.26,0,.39a3.37,3.37,0,0,0-.61,4.07c-2.24,10.8-9,20.23-16,30.14-5.06,7.11-10.29,14.46-13.91,22.52a65.79,65.79,0,0,0,32.93,86.85,3.4,3.4,0,0,0,2.45.12,3,3,0,0,0,.43.08,3.32,3.32,0,0,0,2.18-.56C177.57,133.6,188.12,105.71,184.13,76.29Z"/></g><path class="cls-3" d="M192.48,76.59C189.18,52.32,178,30.69,164.62,7.2c.11-.77.21-1.55.28-2.34A4.48,4.48,0,0,0,156,4.09a4.47,4.47,0,0,0-.71,4.67C153,19.2,146.41,28.44,139.5,38.14c-5.09,7.15-10.36,14.54-14,22.71A66.88,66.88,0,0,0,158.59,149a51,51,0,0,1-7.73,41.35,4.48,4.48,0,1,0,7.29,5.2,60.18,60.18,0,0,0,9.2-48.42C186.55,132.66,196.38,105.33,192.48,76.59Zm-60.13,32.17a58.37,58.37,0,0,1,1.3-44.25c3.3-7.35,8.3-14.38,13.14-21.17,5.4-7.57,10.9-15.32,14.43-23.9,10.91,19.7,19.66,38.28,22.38,58.36,3.48,25.65-5.06,49.83-21.83,62.32a4.82,4.82,0,0,0-.75.1A58.36,58.36,0,0,1,132.35,108.76Z"/><path class="cls-3" d="M161.2,123.68a3.35,3.35,0,0,0,1.66-4.45,83.66,83.66,0,0,1-.34-67.72,3.36,3.36,0,0,0-6.14-2.73,90.46,90.46,0,0,0,.37,73.24,3.37,3.37,0,0,0,3.06,2A3.27,3.27,0,0,0,161.2,123.68Z"/></g><g id="Leaf-2"><g class="cls-1"><path class="cls-4" d="M310.42,224.16a3.21,3.21,0,0,1-1-.16,65.17,65.17,0,0,0-8.37-1.83,75.23,75.23,0,0,1-9.14-2,61.16,61.16,0,0,1-28.58-18.9,46.15,46.15,0,0,1-4.81-6.61c-.4-.71-.72-1.42-1-2.1a7.24,7.24,0,0,0-1.39-2.41,14.32,14.32,0,0,0-4-.45c-.85,0-1.65,0-2.38-.12a60,60,0,0,1-9.72-1.67A71.92,71.92,0,0,1,223.72,181a70.43,70.43,0,0,1-25.54-24.92,3.36,3.36,0,0,1,1.19-4.62c7.17-4.2,21.59-8.43,33.52-7.42-5.23-17.2-2.69-34.56,7.46-50.54a3.35,3.35,0,0,1,4.5-1.12A70.22,70.22,0,0,1,270.55,118,58.3,58.3,0,0,1,307.72,99.6a3.85,3.85,0,0,1,2.89,1c3.5,3.11,4.63,21.12,4.64,21.3a58.9,58.9,0,0,1-1.32,14.43A48.8,48.8,0,0,1,311.8,143l-.27.71a93.48,93.48,0,0,1,13,2,61.87,61.87,0,0,1,21.26,10.22,3.36,3.36,0,0,1-1.1,5.92,56.11,56.11,0,0,0-3.85,6.71,21,21,0,0,1-1,1.88,59.74,59.74,0,0,1-11.89,13c-5.2,4.2-10.9,6.6-16.5,7-.55,0-1.49.18-2.47.33s-2,.3-3,.42a92.23,92.23,0,0,1,4.89,14.41l0,.11a26.66,26.66,0,0,1,.53,4.4c.17,2,.55,6.61,1.12,8.16a3.37,3.37,0,0,1-2.09,6Z"/></g><path class="cls-3" d="M352,160.2h0a63.06,63.06,0,0,0-21.64-10.4,89.77,89.77,0,0,0-11.67-2,44.88,44.88,0,0,0,1.92-6.1A60.61,60.61,0,0,0,322,127c0-.18-1-18.54-5-22.1a4.9,4.9,0,0,0-3.73-1.26,59.39,59.39,0,0,0-36.86,17.68A71.38,71.38,0,0,0,251,96.61a4.48,4.48,0,0,0-6,1.49C235,113.89,232.25,131,237,148c-11.85-.53-25.58,3.58-32.57,7.67a4.47,4.47,0,0,0-1.59,6.15,71.63,71.63,0,0,0,25.95,25.32,73.18,73.18,0,0,0,16.55,7,60.34,60.34,0,0,0,9.89,1.7l.48,0a51.56,51.56,0,0,0-7.15,10.84c-3.38,6.85-4.16,13.94-2.2,20a3.36,3.36,0,0,0,3.19,2.32,3.54,3.54,0,0,0,.85-.11l9.77-2.55a3.36,3.36,0,0,0-.19-6.55,1.78,1.78,0,0,1-1-1.09,8.86,8.86,0,0,1-.42-3.37,34,34,0,0,1,1.55-9.6,21.51,21.51,0,0,1,1.42-3c.49-.92,1-1.86,1.4-2.81.07.15.14.3.22.44a47.92,47.92,0,0,0,4.93,6.79,62.37,62.37,0,0,0,29.11,19.24,75.42,75.42,0,0,0,9.28,2,67.49,67.49,0,0,1,8.23,1.8,4.4,4.4,0,0,0,1.33.21,4.48,4.48,0,0,0,3.06-7.76,55.48,55.48,0,0,1-1-7.61,29.06,29.06,0,0,0-.57-4.6l0-.13a103.4,103.4,0,0,0-4.32-13.19l1.5-.22c.92-.15,1.87-.29,2.36-.32,5.83-.36,11.76-2.85,17.14-7.19a61.12,61.12,0,0,0,12.12-13.22c.25-.37.47-.8,1.09-2A63.37,63.37,0,0,1,351,168a4.37,4.37,0,0,0,2-1.49A4.46,4.46,0,0,0,352,160.2Zm-100,61.32a17.63,17.63,0,0,1,0-2.9,11.55,11.55,0,0,0,.75,2.69v0Zm87.38-51.41-.64,1.22a52.61,52.61,0,0,1-10.24,11.14c-2.74,2.21-7.06,4.91-12.07,5.22-.9.05-2,.22-3.18.4-1.45.23-4.78.74-6,.5a4.48,4.48,0,0,0-5.37,7.16c1.94,1.6,4.25,7.31,6.89,17v0c.08.42.21,1.94.3,3.06.12,1.42.23,2.79.37,4.08l-1.54-.27a65.42,65.42,0,0,1-8.19-1.79,53.39,53.39,0,0,1-14.74-7.21,52.32,52.32,0,0,1-10.15-9.24,38.27,38.27,0,0,1-4-5.46c-.2-.35-.42-.85-.66-1.39a13.1,13.1,0,0,0-3.79-5.46c-2.47-1.88-5.84-2-8.54-2.05-.69,0-1.33,0-1.74-.08a53.26,53.26,0,0,1-8.46-1.42,64.23,64.23,0,0,1-14.51-6.13,63.21,63.21,0,0,1-20-18c8.15-3.35,20.81-5.87,29.17-3.54a4.48,4.48,0,0,0,5.36-6c-6.2-15.43-5.32-30.59,2.6-45.12a62.46,62.46,0,0,1,21.18,24.39,4.48,4.48,0,0,0,7.6.77A50.27,50.27,0,0,1,311,113a120.1,120.1,0,0,1,2,14.34,50.7,50.7,0,0,1-1.13,12.51,41.09,41.09,0,0,1-1.82,5.58,56.34,56.34,0,0,0-2.06,6.24.19.19,0,0,1,0,.08,4.47,4.47,0,0,0,6.65,4.87c2.92-.09,11.41,1.36,13.48,1.88a54.4,54.4,0,0,1,14.4,6.11C341.61,166,340.62,167.85,339.45,170.11Z"/><path class="cls-3" d="M291.37,140.67a3.36,3.36,0,1,0-6.7.45c.38,5.65-3.56,11-7.87,16l-.49.57c-4.6,5.31-9.82,11.33-10.66,19.05a3.37,3.37,0,0,0,3,3.71l.37,0a3.37,3.37,0,0,0,3.34-3c.61-5.64,4.9-10.59,9.05-15.38l.5-.58C286.88,155.75,291.91,148.76,291.37,140.67Z"/><path class="cls-3" d="M308.69,169.62a119.37,119.37,0,0,0-22,2.33,3.36,3.36,0,0,0,.66,6.65,3.11,3.11,0,0,0,.67-.07,112,112,0,0,1,20.73-2.19,3.36,3.36,0,1,0-.08-6.72Z"/><path class="cls-3" d="M267.71,157.35a94,94,0,0,0-11-23.32,3.36,3.36,0,0,0-5.63,3.66,87.24,87.24,0,0,1,10.17,21.65,3.37,3.37,0,0,0,3.21,2.36,3.46,3.46,0,0,0,1-.15A3.36,3.36,0,0,0,267.71,157.35Z"/></g><g id="Leaf-1"><g class="cls-1"><path class="cls-5" d="M33.47,297.67A3.38,3.38,0,0,1,34.6,294c.57-1.54.94-6.12,1.11-8.16a28.76,28.76,0,0,1,.53-4.39l0-.12A92.78,92.78,0,0,1,41.16,267c-1-.12-2-.28-3-.43s-1.92-.29-2.47-.33c-5.6-.34-11.31-2.74-16.51-6.94a60,60,0,0,1-11.89-13c-.21-.33-.43-.74-1-1.89a55.69,55.69,0,0,0-3.86-6.71,3.3,3.3,0,0,1-1.77-1.22,3.36,3.36,0,0,1,.67-4.7A61.93,61.93,0,0,1,22.6,221.57a91.47,91.47,0,0,1,13-2c-.09-.23-.18-.47-.26-.7a47.46,47.46,0,0,1-2.14-6.65,58.46,58.46,0,0,1-1.31-14.43c0-.18,1.14-18.19,4.63-21.3a3.84,3.84,0,0,1,2.9-1,58.35,58.35,0,0,1,37.16,18.41,70.27,70.27,0,0,1,25.7-25.6,3.37,3.37,0,0,1,4.51,1.11c10.15,16,12.68,33.34,7.45,50.55,11.93-1,26.35,3.21,33.53,7.42a3.37,3.37,0,0,1,1.19,4.61,70.51,70.51,0,0,1-25.54,24.92,72,72,0,0,1-16.3,6.87,59.73,59.73,0,0,1-9.71,1.67c-.73.08-1.54.1-2.39.13-1.1,0-3.41.09-4,.44a7.07,7.07,0,0,0-1.39,2.41c-.31.69-.62,1.4-1,2.1a46.3,46.3,0,0,1-4.82,6.62A60.26,60.26,0,0,1,72.1,287.75,61.2,61.2,0,0,1,55.19,296a73.39,73.39,0,0,1-9.14,2,65.92,65.92,0,0,0-8.37,1.84,3.46,3.46,0,0,1-1,.15A3.37,3.37,0,0,1,33.47,297.67Z"/></g><path class="cls-3" d="M156.24,233.17a4.46,4.46,0,0,0-2.07-2.75c-7-4.09-20.72-8.21-32.57-7.67,4.72-17,2-34.14-8-49.93a4.47,4.47,0,0,0-6-1.48,71.24,71.24,0,0,0-25.35,24.73,59.39,59.39,0,0,0-36.86-17.68,4.91,4.91,0,0,0-3.74,1.26c-4,3.56-5,21.92-5,22.1a59.76,59.76,0,0,0,1.34,14.71,45.18,45.18,0,0,0,1.91,6.09,89.77,89.77,0,0,0-11.67,2,62.93,62.93,0,0,0-21.63,10.4h0a4.48,4.48,0,0,0-.89,6.27,4.58,4.58,0,0,0,2,1.49A62.27,62.27,0,0,1,11.17,249c.61,1.19.84,1.61,1.08,2a61.31,61.31,0,0,0,12.12,13.21c5.38,4.34,11.31,6.83,17.14,7.19.5,0,1.45.18,2.37.32l1.49.22a101.83,101.83,0,0,0-4.31,13.19l0,.13a28.21,28.21,0,0,0-.56,4.6,55.47,55.47,0,0,1-1,7.61,4.49,4.49,0,0,0,3.06,7.76,4.4,4.4,0,0,0,1.33-.21h0a67.91,67.91,0,0,1,8.23-1.8,75,75,0,0,0,9.28-2.05,62.23,62.23,0,0,0,29.11-19.24,47.15,47.15,0,0,0,4.93-6.79c.08-.14.15-.29.23-.44.42,1,.91,1.89,1.4,2.81a21.84,21.84,0,0,1,1.41,3,34,34,0,0,1,1.55,9.6,8.83,8.83,0,0,1-.41,3.37,1.85,1.85,0,0,1-1,1.1,3.36,3.36,0,0,0-.19,6.54l9.77,2.55a3.61,3.61,0,0,0,.85.11,3.36,3.36,0,0,0,3.19-2.32c2-6,1.18-13.12-2.2-20a51.56,51.56,0,0,0-7.15-10.84l.48,0a60.27,60.27,0,0,0,9.9-1.7,73.3,73.3,0,0,0,16.54-7,71.55,71.55,0,0,0,25.95-25.32A4.45,4.45,0,0,0,156.24,233.17ZM105.8,296a11.88,11.88,0,0,0,.74-2.69,16.59,16.59,0,0,1-.05,2.9l-.71-.18Zm19.54-41.9a64.45,64.45,0,0,1-14.51,6.12,53.07,53.07,0,0,1-8.46,1.42c-.41.05-1.05.06-1.73.08-2.71.08-6.08.17-8.54,2.06a12.92,12.92,0,0,0-3.8,5.46c-.23.53-.46,1-.66,1.38a39,39,0,0,1-4,5.46,53.28,53.28,0,0,1-24.9,16.45,65.42,65.42,0,0,1-8.19,1.79l-1.54.27c.14-1.29.25-2.65.37-4.08.09-1.12.22-2.64.28-3l0-.13c2.63-9.66,4.95-15.37,6.88-17a4.48,4.48,0,0,0-5.36-7.16c-1.19.25-4.52-.27-6-.49-1.22-.19-2.27-.36-3.18-.41-5-.31-9.33-3-12.06-5.22a52.64,52.64,0,0,1-10.25-11.14c-.13-.23-.35-.67-.63-1.21-1.18-2.27-2.17-4.1-3.06-5.56a53.92,53.92,0,0,1,14.38-6.1c2.08-.53,10.58-2,13.49-1.89a4.47,4.47,0,0,0,6.65-4.87s0,0,0-.07a54.5,54.5,0,0,0-2.06-6.25,41.09,41.09,0,0,1-1.82-5.58A50.66,50.66,0,0,1,45.55,202a120.71,120.71,0,0,1,2-14.34A50.3,50.3,0,0,1,79.48,206.6a4.47,4.47,0,0,0,7.59-.77,62.46,62.46,0,0,1,21.18-24.39c7.93,14.54,8.81,29.7,2.61,45.13a4.48,4.48,0,0,0,5.35,6c8.37-2.33,21,.19,29.17,3.54A63.36,63.36,0,0,1,125.34,254.13Z"/><path class="cls-3" d="M78,223.64a3.36,3.36,0,0,0-6.68.64A61.86,61.86,0,0,0,85,257.3,3.36,3.36,0,1,0,90.18,253,55.17,55.17,0,0,1,78,223.64Z"/><path class="cls-3" d="M98.8,228.69a3.36,3.36,0,0,0-4.51,1.49,33.08,33.08,0,0,0-3.1,20,3.37,3.37,0,0,0,3.31,2.83A3.29,3.29,0,0,0,95,253a3.35,3.35,0,0,0,2.78-3.85,26.32,26.32,0,0,1,2.47-15.95A3.37,3.37,0,0,0,98.8,228.69Z"/></g></g></g></g></svg>