<svg xmlns="http://www.w3.org/2000/svg" viewBox="0 0 120.9 161.72"><g id="specs"><path d="M90.5,72.83c-1.09,17.8-17.58,30.53-17.64,48.4a2.84,2.84,0,0,1-1.46,2.6A14.78,14.78,0,0,1,42,122.53a3.35,3.35,0,0,1-.93-3.61,3.31,3.31,0,0,1-.25-1.9c1.21-7.58-5.6-12.75-9.68-18.09a38.41,38.41,0,0,1-5.61-10.24,38.84,38.84,0,0,1-.64-25.06c5-15.37,20.82-25.91,37-24.15s29.6,17,28.61,33.35" style="fill:#f7893e"/><path d="M66.2,140.21l-9.74-1.88c-3.93-.75-5.61,5.27-1.66,6l1.8.34a21.71,21.71,0,0,0-2.12,2.43c-1.55,2.07.61,4.54,2.7,4.7,2.54.2,3.46,3.41,2.24,5.29-2.19,3.38,3.21,6.52,5.4,3.15a9.47,9.47,0,0,0-2.25-12.49,12.29,12.29,0,0,1,3.63-1.55c2.86-.74,3.09-5.43,0-6" style="fill:#242953"/><path d="M64.85,40.52c-16.16-1.77-32,8.78-37,24.14A39.08,39.08,0,0,0,34.12,100c4.09,5.35,10.89,10.51,9.69,18.09a3.13,3.13,0,0,0,.25,1.9,3.34,3.34,0,0,0,.92,3.61,14.78,14.78,0,0,0,29.37,1.3,2.84,2.84,0,0,0,1.47-2.6c.05-17.86,16.55-30.6,17.63-48.39,1-16.4-12.46-31.59-28.6-33.35m-4.45,54a44.29,44.29,0,0,0-1.35-6.17c1.4-.1,2.7-.26,3.8-.42l.78-.13-.06.62c-1.15,10-1.15,19.89,1.75,29.47l-9.63,0a35.67,35.67,0,0,0,4.71-23.4m-.14,36.66a8.48,8.48,0,0,1-8.86-7l16.71,0c-.77,3.78-3.55,6.87-7.85,7M85,83.06c-4.07,10.71-11.49,19.85-14.28,30.79A65.1,65.1,0,0,1,69.36,93c.14-1.76.14-4.17.3-6.59,5.06-1.59,10.2-4.35,11.26-9,1.33-5.84-5.09-9.2-10-7.24-4.39,1.77-5.9,6.47-6.62,11.2h0a30.27,30.27,0,0,1-6.49.82A11.23,11.23,0,0,1,56.44,82a13.24,13.24,0,0,0-5.86-5.93c-5-2.2-10.68,2.77-7.43,7.81,1.79,2.77,5.33,4,9.12,4.43a30.2,30.2,0,0,1,1.16,3.31A29.66,29.66,0,0,1,50,115.26c-.4-5.35-3.15-9.82-6.86-14.23-6-7.15-10.48-14.17-10.79-23.81C31.81,60,46.42,44.91,64,46.71,81.83,48.53,91,67.2,85,83.06M71.54,78.65c1.53-2.15,4-2.29,0,0" style="fill:#242953"/><path d="M61.42,26.81c-1.24-3.8-7.35-2.15-6,1.66.41,1.19.78,1.5.41,2.92-1,3.89,5.11,5.58,6,1.66.43-1.88.78-2.56-.42-6.24" style="fill:#242953"/><path d="M104.06,53.38c-.77-1.32-2.91-2.13-4.27-1.12-2.22,1.67-.34.17-2.56,1.84a3.21,3.21,0,0,0-1.12,4.27c.77,1.33,2.91,2.14,4.27,1.12,2.22-1.67.34-.17,2.56-1.83a3.23,3.23,0,0,0,1.12-4.28" style="fill:#242953"/><path d="M23.84,53.25c-2.2-.17-1.56.14-3-.56s-3.13-1.28-4.41,0c-1.1,1.09-1.32,3.35,0,4.41,3.1,2.52,3.41,2.08,7.4,2.4A3.15,3.15,0,0,0,27,56.38a3.19,3.19,0,0,0-3.13-3.13" style="fill:#242953"/></g></svg>