<svg xmlns="http://www.w3.org/2000/svg" viewBox="0 0 120.9 161.72"><g id="specs"><path d="M90.55,73.86C89.46,91.66,73,104.4,72.91,122.26a2.84,2.84,0,0,1-1.46,2.6,14.82,14.82,0,0,1-14.39,12.63c-8.14.08-14.27-6.18-15-13.93a3.34,3.34,0,0,1-.93-3.61,3.31,3.31,0,0,1-.25-1.9c1.21-7.57-5.6-12.74-9.68-18.09a38.36,38.36,0,0,1-5.61-10.23A38.84,38.84,0,0,1,25,64.67c5-15.37,20.82-25.92,37-24.15s29.6,16.95,28.61,33.34" style="fill:#fc7b75"/><path d="M64.2,40.52c-16.16-1.77-32,8.78-37,24.14A39.08,39.08,0,0,0,33.47,100c4.09,5.35,10.89,10.51,9.68,18.09a3.28,3.28,0,0,0,.25,1.9,3.36,3.36,0,0,0,.93,3.61,14.78,14.78,0,0,0,29.37,1.3,2.84,2.84,0,0,0,1.46-2.6c.06-17.86,16.56-30.6,17.64-48.39,1-16.4-12.46-31.59-28.6-33.35m-4.45,54a44.29,44.29,0,0,0-1.35-6.17c1.4-.1,2.7-.26,3.79-.42l.79-.13c0,.21,0,.42-.07.62-1.14,10-1.15,19.89,1.75,29.47l-9.63,0a35.68,35.68,0,0,0,4.72-23.4m-.14,36.66a8.5,8.5,0,0,1-8.87-7l16.72,0c-.77,3.78-3.55,6.87-7.85,7M84.34,83.06c-4.07,10.71-11.49,19.85-14.28,30.79A65.1,65.1,0,0,1,68.71,93c.14-1.76.14-4.17.3-6.59,5.06-1.59,10.19-4.35,11.26-9,1.33-5.84-5.09-9.2-10-7.24-4.39,1.77-5.9,6.47-6.62,11.2h-.06a30.18,30.18,0,0,1-6.48.82A11.23,11.23,0,0,1,55.79,82a13.24,13.24,0,0,0-5.86-5.93c-5-2.2-10.68,2.77-7.44,7.81,1.79,2.77,5.34,4,9.13,4.43a28.18,28.18,0,0,1,1.15,3.31,29.62,29.62,0,0,1-3.41,23.65c-.4-5.35-3.15-9.82-6.86-14.23-6-7.15-10.48-14.17-10.79-23.81C31.16,60,45.77,44.91,63.36,46.71c17.82,1.82,27,20.49,21,36.35M70.89,78.65c1.53-2.15,4-2.29,0,0" style="fill:#242953"/><path d="M65.55,140.21l-9.74-1.88c-3.93-.75-5.61,5.27-1.66,6l1.8.34a21.71,21.71,0,0,0-2.12,2.43c-1.55,2.07.61,4.54,2.7,4.7,2.54.2,3.46,3.41,2.24,5.29-2.19,3.38,3.21,6.52,5.39,3.15a9.45,9.45,0,0,0-2.24-12.49,12.29,12.29,0,0,1,3.63-1.55c2.86-.74,3.09-5.43,0-6" style="fill:#242953"/></g></svg>