<svg xmlns="http://www.w3.org/2000/svg" viewBox="0 0 120.9 161.72"><g id="specs"><path d="M88.85,70.11c-1.09,17.81-17.58,30.54-17.64,48.4a2.82,2.82,0,0,1-1.46,2.6,14.82,14.82,0,0,1-14.39,12.63c-8.14.08-14.27-6.18-15-13.93a3.34,3.34,0,0,1-.93-3.61,3.31,3.31,0,0,1-.25-1.9c1.21-7.57-5.6-12.74-9.68-18.09A38.2,38.2,0,0,1,23.91,86a38.84,38.84,0,0,1-.64-25.06c5-15.37,20.82-25.91,37-24.15s29.6,16.95,28.61,33.34" style="fill:#bed630"/><path d="M66.15,40.52c-16.15-1.77-32,8.78-37,24.14A39.08,39.08,0,0,0,35.42,100c4.09,5.35,10.89,10.51,9.69,18.09a3.13,3.13,0,0,0,.25,1.9,3.34,3.34,0,0,0,.92,3.61,14.78,14.78,0,0,0,29.38,1.3,2.84,2.84,0,0,0,1.46-2.6c0-17.86,16.55-30.6,17.64-48.39,1-16.4-12.47-31.59-28.61-33.35m-4.44,54a45.78,45.78,0,0,0-1.35-6.17c1.4-.1,2.7-.26,3.79-.42l.78-.13-.06.62c-1.14,10-1.15,19.89,1.75,29.47l-9.63,0a35.74,35.74,0,0,0,4.72-23.4m-.14,36.66a8.49,8.49,0,0,1-8.87-7l16.72,0c-.78,3.78-3.56,6.87-7.85,7M86.29,83.06C82.22,93.77,74.81,102.91,72,113.85A65.39,65.39,0,0,1,70.67,93c.14-1.76.14-4.17.29-6.59,5.06-1.59,10.2-4.35,11.27-9,1.32-5.84-5.09-9.2-10-7.24-4.38,1.77-5.9,6.47-6.62,11.2H65.6a30.19,30.19,0,0,1-6.49.82A11.43,11.43,0,0,1,57.74,82a13.19,13.19,0,0,0-5.86-5.93c-5-2.2-10.68,2.77-7.43,7.81,1.79,2.77,5.34,4,9.13,4.43a30.14,30.14,0,0,1,1.15,3.31,29.62,29.62,0,0,1-3.42,23.65c-.4-5.35-3.14-9.82-6.85-14.23-6-7.15-10.48-14.17-10.79-23.81-.55-17.23,14-32.31,31.65-30.51,17.82,1.82,27,20.49,21,36.35M72.85,78.65c1.53-2.15,4-2.29,0,0" style="fill:#242953"/><path d="M62.94,14.32c-1.24-3.8-7.27-2.18-6,1.66.86,2.63.55,12.3-.08,15-.92,3.91,5.11,5.58,6,1.66.87-3.76,1.28-14.65.08-18.33" style="fill:#242953"/><path d="M94.05,25.32C91.22,28.18,83.79,34.66,81,37.52s1.58,7.28,4.42,4.42S95.63,32.6,98.46,29.73s-1.58-7.28-4.41-4.41" style="fill:#242953"/><path d="M113.88,46.89c-.77-1.33-2.91-2.14-4.27-1.12-2.22,1.66-9.14,6.26-11.36,7.92A3.22,3.22,0,0,0,97.13,58c.78,1.33,2.92,2.14,4.27,1.12,2.23-1.66,9.14-6.25,11.36-7.92a3.22,3.22,0,0,0,1.12-4.27" style="fill:#242953"/><path d="M37.9,32.53C35.68,30.45,28.31,22.06,26.09,20c-2.93-2.74-7.36,1.67-4.42,4.42C23.9,26.47,31.26,34.86,33.48,37c2.93,2.74,7.36-1.67,4.42-4.42" style="fill:#242953"/><path d="M24.87,52.85c-2.2-.18-9.73-3.67-11.45-5.07a3.22,3.22,0,0,0-4.42,0c-1.09,1.1-1.31,3.35,0,4.42,3.1,2.51,11.88,6.58,15.87,6.89A3.14,3.14,0,0,0,28,56a3.18,3.18,0,0,0-3.12-3.12" style="fill:#242953"/><path d="M67.5,140.21l-9.74-1.88c-3.92-.75-5.61,5.27-1.66,6l1.8.34a21.64,21.64,0,0,0-2.11,2.43c-1.55,2.07.6,4.54,2.69,4.7,2.55.2,3.47,3.41,2.25,5.29-2.2,3.38,3.21,6.52,5.39,3.15a9.45,9.45,0,0,0-2.25-12.49,12.29,12.29,0,0,1,3.63-1.55c2.86-.74,3.1-5.43,0-6" style="fill:#242953"/></g></svg>