<svg xmlns="http://www.w3.org/2000/svg" viewBox="0 0 120.9 161.72"><g id="specs"><path d="M91.89,64.57c-1.22,19.92-19.66,34.16-19.73,54.14a3.19,3.19,0,0,1-1.64,2.91,16.57,16.57,0,0,1-16.09,14.12c-9.1.09-16-6.91-16.76-15.58a3.73,3.73,0,0,1-1-4,3.61,3.61,0,0,1-.28-2.12c1.35-8.47-6.26-14.25-10.83-20.23a42.75,42.75,0,0,1-6.28-11.45,43.42,43.42,0,0,1-.71-28c5.58-17.19,23.28-29,41.35-27s33.1,19,32,37.29" style="fill:#71d82e"/><path d="M64.2,40.52c-16.16-1.77-32,8.78-37,24.14A39.08,39.08,0,0,0,33.47,100c4.09,5.35,10.89,10.51,9.68,18.09a3.2,3.2,0,0,0,.26,1.9,3.34,3.34,0,0,0,.92,3.61,14.78,14.78,0,0,0,29.37,1.3,2.82,2.82,0,0,0,1.46-2.6c.06-17.86,16.56-30.6,17.64-48.39,1-16.4-12.46-31.59-28.6-33.35m-4.45,54a44.29,44.29,0,0,0-1.35-6.17c1.4-.1,2.7-.26,3.79-.42l.79-.13c0,.21,0,.42-.07.62-1.14,10-1.14,19.89,1.75,29.47l-9.63,0a35.68,35.68,0,0,0,4.72-23.4m-.14,36.66a8.5,8.5,0,0,1-8.87-7l16.72,0c-.77,3.78-3.55,6.87-7.85,7M84.34,83.06c-4.07,10.71-11.49,19.85-14.28,30.79A65.1,65.1,0,0,1,68.71,93c.14-1.76.14-4.17.3-6.59,5.06-1.59,10.2-4.35,11.26-9,1.33-5.84-5.09-9.2-10-7.24-4.39,1.77-5.9,6.47-6.62,11.2h-.06a30.1,30.1,0,0,1-6.48.82A11.23,11.23,0,0,1,55.79,82a13.24,13.24,0,0,0-5.86-5.93c-5-2.2-10.68,2.77-7.44,7.81,1.8,2.77,5.34,4,9.13,4.43a28.18,28.18,0,0,1,1.15,3.31,29.62,29.62,0,0,1-3.41,23.65c-.4-5.35-3.15-9.82-6.86-14.23-6-7.15-10.48-14.17-10.79-23.81C31.16,60,45.77,44.91,63.36,46.71c17.82,1.82,27,20.49,21,36.35M70.89,78.65c1.53-2.15,4-2.29,0,0" style="fill:#242953"/><path d="M58.94,2.16c-1.24-3.8-7.28-2.17-6,1.67.85,2.62,2.59,24.45,2,27.16-.91,3.91,5.11,5.58,6,1.66.87-3.76-.77-26.81-2-30.49" style="fill:#242953"/><path d="M98.54,11.75C95.71,14.61,81.84,34.66,79,37.52s1.58,7.28,4.41,4.42S100.13,19,103,16.17s-1.59-7.28-4.42-4.42" style="fill:#242953"/><path d="M120.48,39c-.77-1.33-2.91-2.14-4.27-1.12C114,39.53,98.52,52,96.3,53.69A3.22,3.22,0,0,0,95.18,58c.77,1.33,2.91,2.14,4.27,1.12,2.22-1.66,17.69-14.16,19.91-15.83A3.22,3.22,0,0,0,120.48,39" style="fill:#242953"/><path d="M35.94,32.53C33.72,30.45,19.07,15.11,16.85,13c-2.93-2.74-7.36,1.67-4.41,4.42C14.66,19.52,29.3,34.86,31.53,37c2.93,2.74,7.35-1.67,4.41-4.42" style="fill:#242953"/><path d="M22.91,52.85C20.71,52.67,7,49.18,5.32,47.78a3.21,3.21,0,0,0-4.41,0c-1.1,1.1-1.32,3.35,0,4.42,3.1,2.51,18,6.58,22,6.89A3.15,3.15,0,0,0,26,56a3.19,3.19,0,0,0-3.13-3.12" style="fill:#242953"/><path d="M65.55,140.21l-9.74-1.88c-3.93-.75-5.61,5.27-1.66,6l1.8.34a21.71,21.71,0,0,0-2.12,2.43c-1.55,2.07.61,4.54,2.7,4.7,2.54.2,3.46,3.41,2.24,5.29-2.19,3.38,3.21,6.52,5.39,3.15a9.45,9.45,0,0,0-2.24-12.49,12.29,12.29,0,0,1,3.63-1.55c2.86-.74,3.09-5.43,0-6" style="fill:#242953"/></g></svg>