<svg xmlns="http://www.w3.org/2000/svg" width="80.45" height="119.16" viewBox="0 0 80.45 119.16"><defs><style>.cls-1{fill:#fff;opacity:0.2;}</style></defs><g id="Layer_2" data-name="Layer 2"><g id="Layer_1-2" data-name="Layer 1"><g id="lightbulb-faded"><path class="cls-1" d="M44.1,17.8C30.59,16.32,17.35,25.14,13.18,38A32.71,32.71,0,0,0,18.4,67.51c3.42,4.47,9.11,8.8,8.1,15.13a2.8,2.8,0,0,0,.21,1.6,2.79,2.79,0,0,0,.78,3,12.36,12.36,0,0,0,24.56,1.09,2.4,2.4,0,0,0,1.23-2.17c0-14.94,13.84-25.6,14.75-40.48C68.86,32,57.6,19.27,44.1,17.8M40.39,63a38,38,0,0,0-1.13-5.16c1.17-.09,2.25-.22,3.17-.36l.66-.1-.06.52c-1,8.32-1,16.63,1.46,24.65l-8.05,0a29.92,29.92,0,0,0,4-19.57m-.12,30.66a7.11,7.11,0,0,1-7.42-5.85l14-.05a6.94,6.94,0,0,1-6.56,5.9M61,53.37C57.54,62.34,51.34,70,49,79.13a54.26,54.26,0,0,1-1.13-17.45c.12-1.48.12-3.5.25-5.52,4.23-1.32,8.53-3.64,9.42-7.56,1.11-4.88-4.26-7.69-8.33-6.05C45.56,44,44.29,48,43.69,51.91h0a24.85,24.85,0,0,1-5.43.69,8.69,8.69,0,0,1-1.14-.13,11.14,11.14,0,0,0-4.9-5C28,45.68,23.24,49.84,26,54.05c1.5,2.32,4.47,3.35,7.64,3.71a26.65,26.65,0,0,1,1,2.77,24.79,24.79,0,0,1-2.86,19.78c-.33-4.48-2.63-8.22-5.73-11.9-5-6-8.77-11.86-9-19.92-.46-14.41,11.76-27,26.48-25.52C58.31,24.5,66,40.11,61,53.37M49.7,49.69c1.28-1.8,3.38-1.91,0,0"/><path class="cls-1" d="M41,1.81C40-1.37,34.92,0,36,3.2a12,12,0,0,1,.34,6.62c-.76,3.27,4.28,4.67,5,1.39A17.26,17.26,0,0,0,41,1.81"/><path class="cls-1" d="M63.6,8.11l-7.11,7.18c-2.37,2.39,1.33,6.09,3.69,3.69l7.11-7.18C69.66,9.41,66,5.71,63.6,8.11"/><path class="cls-1" d="M80.1,25.57a2.63,2.63,0,0,0-3.57-.94L71,28.81A2.71,2.71,0,0,0,70,32.39a2.62,2.62,0,0,0,3.57.93q2.79-2.09,5.57-4.18a2.69,2.69,0,0,0,.94-3.57"/><path class="cls-1" d="M20.47,11.11,14.9,5.89c-2.46-2.3-6.16,1.39-3.7,3.69l5.58,5.23c2.45,2.29,6.15-1.39,3.69-3.7"/><path class="cls-1" d="M9.57,28.11a9.5,9.5,0,0,1-5.12-2,2.68,2.68,0,0,0-3.69,0,2.63,2.63,0,0,0,0,3.69,15.54,15.54,0,0,0,8.81,3.55,2.64,2.64,0,0,0,2.62-2.61,2.67,2.67,0,0,0-2.62-2.61"/><path class="cls-1" d="M45.24,101.17l-8.15-1.56c-3.29-.64-4.69,4.4-1.39,5l1.5.28a19.63,19.63,0,0,0-1.77,2c-1.29,1.72.51,3.79,2.26,3.93,2.13.16,2.9,2.85,1.88,4.42-1.84,2.83,2.68,5.45,4.51,2.64a7.92,7.92,0,0,0-1.88-10.45,10.23,10.23,0,0,1,3-1.3c2.39-.62,2.58-4.54,0-5"/></g></g></g></svg>