<svg xmlns="http://www.w3.org/2000/svg" viewBox="0 0 120.9 161.72"><g id="specs"><path d="M87.22,70.11c-1.09,17.81-17.58,30.54-17.64,48.4a2.82,2.82,0,0,1-1.46,2.6,14.82,14.82,0,0,1-14.39,12.63c-8.14.08-14.27-6.18-15-13.93a3.34,3.34,0,0,1-.93-3.61,3.31,3.31,0,0,1-.25-1.9c1.21-7.57-5.6-12.74-9.68-18.09A38.2,38.2,0,0,1,22.28,86a38.84,38.84,0,0,1-.64-25.06c5-15.37,20.82-25.91,37-24.15s29.6,16.95,28.61,33.34" style="fill:#fbab18"/><path d="M64.52,40.52c-16.15-1.77-32,8.78-37,24.14a38.94,38.94,0,0,0,.63,25.07A38.51,38.51,0,0,0,33.8,100c4.08,5.35,10.89,10.51,9.68,18.09a3.28,3.28,0,0,0,.25,1.9,3.33,3.33,0,0,0,.93,3.61A14.78,14.78,0,0,0,74,124.86a2.84,2.84,0,0,0,1.46-2.6c.06-17.86,16.56-30.6,17.64-48.39,1-16.4-12.47-31.59-28.61-33.35m-4.44,54a44.29,44.29,0,0,0-1.35-6.17c1.4-.1,2.7-.26,3.79-.42l.79-.13c0,.21-.05.42-.07.62-1.14,10-1.15,19.89,1.75,29.47l-9.63,0a35.74,35.74,0,0,0,4.72-23.4m-.14,36.66a8.49,8.49,0,0,1-8.87-7l16.72,0c-.78,3.78-3.56,6.87-7.85,7M84.66,83.06c-4.07,10.71-11.48,19.85-14.28,30.79A65.39,65.39,0,0,1,69,93c.14-1.76.14-4.17.3-6.59,5-1.59,10.19-4.35,11.26-9,1.32-5.84-5.09-9.2-10-7.24-4.38,1.77-5.9,6.47-6.61,11.2H64a30.19,30.19,0,0,1-6.49.82A11.43,11.43,0,0,1,56.11,82a13.14,13.14,0,0,0-5.86-5.93c-5-2.2-10.68,2.77-7.43,7.81,1.79,2.77,5.34,4,9.13,4.43a30.14,30.14,0,0,1,1.15,3.31,29.62,29.62,0,0,1-3.41,23.65c-.41-5.35-3.15-9.82-6.86-14.23-6-7.15-10.48-14.17-10.79-23.81C31.49,60,46.09,44.91,63.69,46.71c17.82,1.82,27,20.49,21,36.35M71.22,78.65c1.53-2.15,4-2.29,0,0" style="fill:#242953"/><path d="M65.88,140.21l-9.74-1.88c-3.93-.75-5.62,5.27-1.67,6l1.8.34a21.64,21.64,0,0,0-2.11,2.43c-1.55,2.07.61,4.54,2.7,4.7,2.54.2,3.46,3.41,2.24,5.29-2.2,3.38,3.21,6.52,5.39,3.15a9.45,9.45,0,0,0-2.25-12.49,12.35,12.35,0,0,1,3.64-1.55c2.85-.74,3.09-5.43,0-6" style="fill:#242953"/><path d="M60.41,22.34c-1.25-3.8-7.28-2.18-6,1.66a14.34,14.34,0,0,1,.42,7.92c-.91,3.91,5.11,5.58,6,1.66a20.65,20.65,0,0,0-.41-11.24" style="fill:#242953"/><path d="M87.42,29.87l-8.5,8.58c-2.83,2.86,1.59,7.28,4.42,4.42l8.49-8.58c2.84-2.86-1.58-7.28-4.41-4.42" style="fill:#242953"/><path d="M107.15,50.75c-.78-1.33-2.92-2.14-4.27-1.12l-6.67,5a3.24,3.24,0,0,0-1.12,4.28C95.87,60.23,98,61,99.37,60L106,55a3.22,3.22,0,0,0,1.12-4.27" style="fill:#242953"/><path d="M35.86,33.46l-6.67-6.24c-2.93-2.75-7.35,1.66-4.41,4.42l6.66,6.24c2.93,2.75,7.36-1.66,4.42-4.42" style="fill:#242953"/><path d="M22.83,53.78a11.18,11.18,0,0,1-6.12-2.42,3.22,3.22,0,0,0-4.42,0c-1.1,1.1-1.32,3.35,0,4.42A18.59,18.59,0,0,0,22.83,60a3.13,3.13,0,0,0,0-6.25" style="fill:#242953"/></g></svg>