<svg xmlns="http://www.w3.org/2000/svg" width="61.5" height="68.4" viewBox="0 0 61.5 68.4"><g id="Layer_2" data-name="Layer 2"><g id="Layer_1-2" data-name="Layer 1"><path d="M60.16,5.45l-.11-.07A64.4,64.4,0,0,1,51.61.31a2,2,0,0,0-1.73-.2,2,2,0,0,0-1.49,1A422.75,422.75,0,0,1,21.8,41.84l-.34-.24-.05-.05-.4-.31-.78-.64c-1-.83-2-1.71-2.92-2.62s-1.81-1.8-2.66-2.75c-.45-.5-.89-1-1.32-1.52L12.76,33l-.31-.39-.15-.19a2.29,2.29,0,0,0-3-.79L9,31.8a2.71,2.71,0,0,0-1.42.62,45.15,45.15,0,0,0-7,6.71A2.36,2.36,0,0,0,0,40.7a2.23,2.23,0,0,0,.65,1.56,2,2,0,0,0,.37.28,2.2,2.2,0,0,0,.55.86,100.31,100.31,0,0,1,17.7,23.79,1.93,1.93,0,0,0,1.94,1.08,2.31,2.31,0,0,0,2.64-.82A502.6,502.6,0,0,0,61.21,8.53a2.19,2.19,0,0,0-1.05-3.08" style="fill:#fc7b75"/></g></g></svg>