<svg xmlns="http://www.w3.org/2000/svg" width="75.72" height="81.9" viewBox="0 0 75.72 81.9"><g id="Layer_2" data-name="Layer 2"><g id="Layer_1-2" data-name="Layer 1"><path d="M16.29,81.9a2.23,2.23,0,0,1-1.54-.62C12.07,78.74,4.25,73,1.87,72.6A2.25,2.25,0,0,1,.39,69.12c2.76-4.07,5.78-8,8.7-11.73A162.35,162.35,0,0,0,20.34,41.61C16.62,37,14,34.11,11.57,31.52A112.69,112.69,0,0,1,1.14,18.78a2.25,2.25,0,0,1,.54-3.14c.7-.48,1.88-1.47,3.25-2.61C10,8.83,14.07,5.58,16.82,5.17a2.26,2.26,0,0,1,2.21,1C27.39,18.7,30,22.14,37.11,29.64c3.15-4.92,6-9,8.76-13C49,12.12,52.32,7.4,56.05,1.46A2.25,2.25,0,0,1,59.27.83c1.2.87,3.84,2.65,6.4,4.38s5.24,3.55,6.5,4.45a2.26,2.26,0,0,1,.64,2.95c-3.17,5.51-6.68,11-10.08,16.22-3.11,4.83-6.32,9.81-9.26,14.81a119.19,119.19,0,0,0,9.41,12c2.77,3.2,5.63,6.51,9.34,11.53a2.26,2.26,0,0,1-.56,3.2c-1.41,1-4.17,3-6.84,4.89-2.83,2.05-5.5,4-7,5a2.24,2.24,0,0,1-3-.47c-3.87-4.83-7.14-9-10.3-13C41.88,63.37,39.15,59.9,36,56l-1.23,1.57c-5.9,7.56-11.47,14.7-16.59,23.23a2.29,2.29,0,0,1-1.62,1.07Z" style="fill:#fc7b75"/><path d="M18.9,81.49a2.23,2.23,0,0,1-1.54-.62c-2.68-2.53-10.5-8.27-12.88-8.68A2.24,2.24,0,0,1,3,68.72c2.76-4.08,5.78-8,8.7-11.74A162.35,162.35,0,0,0,23,41.2c-3.72-4.6-6.39-7.5-8.77-10.09A112.69,112.69,0,0,1,3.75,18.37a2.25,2.25,0,0,1,.54-3.14c.7-.48,1.88-1.47,3.25-2.61,5.05-4.2,9.14-7.45,11.89-7.86a2.26,2.26,0,0,1,2.21,1C30,18.3,32.58,21.73,39.72,29.23c3.15-4.92,6-9,8.76-13C51.65,11.71,54.93,7,58.66,1.05a2.26,2.26,0,0,1,1.47-1,2.24,2.24,0,0,1,1.74.38c1.21.87,3.85,2.66,6.4,4.38,2.7,1.82,5.25,3.55,6.51,4.45a2.26,2.26,0,0,1,.64,2.95c-3.18,5.51-6.69,11-10.08,16.22-3.11,4.83-6.32,9.81-9.26,14.81a119.19,119.19,0,0,0,9.41,12c2.77,3.2,5.63,6.51,9.34,11.53a2.26,2.26,0,0,1-.56,3.2c-1.41,1-4.17,3-6.84,4.89-2.83,2-5.5,4-7,5a2.23,2.23,0,0,1-3-.47c-3.87-4.82-7.14-9-10.3-13-2.66-3.37-5.39-6.84-8.5-10.73l-1.23,1.57c-5.9,7.56-11.48,14.7-16.59,23.23a2.29,2.29,0,0,1-1.62,1.07ZM8.33,68.92a66,66,0,0,1,10,6.9A246.6,246.6,0,0,1,33.88,54.41c1-1.26,2-2.52,3-3.82a2.25,2.25,0,0,1,3.53,0c3.87,4.83,7.14,9,10.3,13,2.79,3.55,5.66,7.2,9,11.33,1.45-1,3.32-2.39,5.15-3.72s3.61-2.62,5-3.63c-2.95-3.88-5.38-6.68-7.73-9.41A121.67,121.67,0,0,1,51.56,44.57a2.25,2.25,0,0,1-.07-2.37c3.17-5.51,6.68-11,10.07-16.22,3-4.64,6.09-9.43,8.93-14.25L65.76,8.52C64.09,7.4,62.49,6.31,61.2,5.43c-3.26,5.11-6.19,9.32-9,13.4C49,23.39,45.71,28.1,42,34a2.29,2.29,0,0,1-1.68,1.05,2.26,2.26,0,0,1-1.85-.68c-8.64-9-11.09-12-19.58-24.71a73.05,73.05,0,0,0-8.47,6.38L8.67,17.52a108.83,108.83,0,0,0,8.82,10.55c2.63,2.86,5.6,6.1,9.94,11.53a2.24,2.24,0,0,1,.19,2.52A154.19,154.19,0,0,1,15.25,59.73C12.94,62.71,10.56,65.78,8.33,68.92Z" style="fill:#071d49"/></g></g></svg>