<svg id="Layer_1" data-name="Layer 1" xmlns="http://www.w3.org/2000/svg" viewBox="0 0 73.23 73.21"><path id="red-circle" d="M32.77,73.21a43.48,43.48,0,0,1-9.14-1c-8.5-1.85-15.33-6.07-19.22-11.9C0,53.76-1.08,44.86,1.07,33.14A43.41,43.41,0,0,1,12.18,10.65,34.93,34.93,0,0,1,41.25.18,42.34,42.34,0,0,1,59.78,7.07C66.24,11.41,70.58,17,72,22.85c3.35,13.9-.26,28.87-9.2,38.15C55.27,68.82,44.12,73.21,32.77,73.21ZM37.4,3.9A30.36,30.36,0,0,0,15,13.36h0A39.61,39.61,0,0,0,4.91,33.84C3,44.52,3.85,52.47,7.66,58.17c3.33,5,9.29,8.62,16.8,10.24C37.4,71.22,51.34,67.25,60,58.29,68,50,71.24,36.4,68.19,23.77c-2-8.45-13.5-18.39-27.31-19.7C39.71,4,38.54,3.9,37.4,3.9Z" style="fill:#fc7b75"/></svg>