<svg xmlns="http://www.w3.org/2000/svg" xmlns:xlink="http://www.w3.org/1999/xlink" width="155.66" height="209.54" viewBox="0 0 155.66 209.54"><defs><symbol id="parent-symbol" data-name="parent-symbol" viewBox="0 0 155.66 209.54"><path d="M131.93,130a2.55,2.55,0,0,0-.6-.86c-.81-2.34-2.15-11.33-2.61-14.41-.26-1.77-.4-2.71-.49-3.14-4-19.78-11.9-40.19-18.52-56.08a23.66,23.66,0,0,0,5-6.13,13.83,13.83,0,0,0,6.3,1.49c3.23,0,6.45-1.1,8.38-3.55a2,2,0,0,0-.2-2.69,5.71,5.71,0,0,0-3.08-1.26,4.21,4.21,0,0,1-1.21-.31c-.43-.26-.59-.65-1-1.69-.15-.42-.3-.85-.49-1.29a21.51,21.51,0,0,1-1.27-5.94c-.07-.6-.14-1.19-.23-1.78-1.28-9.13-3.62-15.57-7.57-20.89C111.12,7,105,3.55,100.79,1.93A16.25,16.25,0,0,0,87,2.67a2.56,2.56,0,0,0-.47-.23C79.4.23,71,2.54,65.25,8.35a34.49,34.49,0,0,0-9.32,21.41c-.32,7.17,1.34,13.33,3.92,20.37A19.94,19.94,0,0,0,61,52.56c.69,1.32,1.33,2.57,1.23,3.56C62.06,57.48,61,59,59.8,58.91a2,2,0,0,0-.44,4,35.67,35.67,0,0,0,5.43.54,16.51,16.51,0,0,0,2.42-.17,10.06,10.06,0,0,0,7.41-4.75c.06-.11.11-.22.16-.33.86.49,1.75,1,2.68,1.42a2.46,2.46,0,0,0-.61,1.73c.51,11.74.72,24.27.66,39.45,0,2.9.06,5.93.13,8.86.22,9.3.46,18.91-1.83,27.38a2.49,2.49,0,0,0,2.06,3.13,99.68,99.68,0,0,0,14,1,99.06,99.06,0,0,0,38.72-7.87A2.5,2.5,0,0,0,131.93,130Z" style="fill:#fbb03b"/><path d="M69.28,135.2a98.27,98.27,0,0,0-8.41-32.64c.31-.28.63-.54.92-.84,8.49-8.54,9.62-21.43,2.64-30C59,65.07,49.28,63.22,42.64,63.66a18.07,18.07,0,0,0-4.8,1,19.93,19.93,0,0,1-.54-4.87,2,2,0,1,0-4-.06,23.26,23.26,0,0,0,.57,5.52,10.52,10.52,0,0,0-4.42-2.58,2,2,0,0,0-1.09,3.85,6.59,6.59,0,0,1,3.08,2l-.8.77a29.68,29.68,0,0,0-7.11.21,2,2,0,0,0,.3,4,1.53,1.53,0,0,0,.3,0,27.38,27.38,0,0,1,3.5-.29,22.53,22.53,0,0,0-1.75,3.51c-3.16,8-1.9,17.37,3.2,23.78A21,21,0,0,0,32.73,104a2.48,2.48,0,0,0-.54,1.48c0,.61-.08,2.53-.18,5.27-1.66,47-1.44,47.19-.23,48.33a2.51,2.51,0,0,0,1.95.67,152.43,152.43,0,0,1,22-.48,31.74,31.74,0,0,1,3.86.55,22.28,22.28,0,0,0,3.83.48,5.82,5.82,0,0,0,3.77-1.18c2-1.61,2.4-4.39,2.49-6.34A122.91,122.91,0,0,0,69.28,135.2Z" style="fill:#009a44"/><path d="M138.16,76.23c-5.25,0-9.92-3.68-13.44-6.44l-3.34-2.61c-3.67-2.87-7.47-5.84-11.35-8.46a2.5,2.5,0,0,1,2.8-4.15c4,2.73,7.89,5.75,11.63,8.67l3.35,2.62c3.36,2.64,7.54,5.92,11.34,5.28,1.21-.2,2.41-1.82,3.57-3.4.45-.61.9-1.2,1.35-1.74l7.17-8.59a2.5,2.5,0,0,1,3.84,3.21l-7.17,8.58c-.39.47-.77,1-1.16,1.52-1.59,2.14-3.57,4.82-6.77,5.36A11.26,11.26,0,0,1,138.16,76.23Z" style="fill:#071d49"/><path d="M66.1,110.93a2.5,2.5,0,0,1-1.75-4.28c6-5.87,8.17-16.59,10.28-27,1.54-7.57,3.12-15.39,6.25-21.4a2.5,2.5,0,1,1,4.44,2.31C82.51,66,81.06,73.13,79.53,80.69c-2.26,11.1-4.59,22.59-11.69,29.53A2.44,2.44,0,0,1,66.1,110.93Z" style="fill:#071d49"/><path d="M133.77,196h0L122.37,196a2.45,2.45,0,0,1-1.78-.77,2.51,2.51,0,0,1-.7-1.82c.39-11.28-.1-21.09-.58-30.58-.53-10.45-1-20.33-.36-31.44a2.5,2.5,0,0,1,5,.31c-.67,10.83-.17,20.57.35,30.88.45,8.87.91,18,.67,28.44l8.82.07a2.5,2.5,0,0,1,0,5Z" style="fill:#071d49"/><path d="M100.07,202.55a2.36,2.36,0,0,1-.82-.14,25.12,25.12,0,0,0-11.82-1.12,2.51,2.51,0,0,1-2.86-2.63c.27-4.35.58-8.56.89-12.64,1.25-16.87,2.34-31.45.1-48.69a2.5,2.5,0,1,1,5-.64c2.3,17.74,1.15,33.27-.08,49.7-.23,3.14-.47,6.37-.69,9.67a30.14,30.14,0,0,1,11.14,1.63,2.5,2.5,0,0,1-.82,4.86Z" style="fill:#071d49"/><path d="M79.57,151a2.5,2.5,0,0,1-2.47-2.18,106,106,0,0,0-16.29-44.23A2.5,2.5,0,1,1,65,101.86a111.19,111.19,0,0,1,17.06,46.32A2.51,2.51,0,0,1,79.9,151Z" style="fill:#071d49"/><path d="M77.8,208a2.45,2.45,0,0,1-1.49-.5A12,12,0,0,0,70,204.91a2.49,2.49,0,0,1-1.79-.8,2.45,2.45,0,0,1-.67-1.84,137.18,137.18,0,0,0-4.71-44A2.5,2.5,0,0,1,67.6,157a142.13,142.13,0,0,1,5,43.28,19.1,19.1,0,0,1,6.7,3.24A2.5,2.5,0,0,1,77.8,208Z" style="fill:#071d49"/><path d="M45.54,209.54a2.34,2.34,0,0,1-.89-.17l-6.54-2.5a2.49,2.49,0,0,1-1.6-2.56,235.13,235.13,0,0,0-.21-45,2.5,2.5,0,1,1,5-.5,240.5,240.5,0,0,1,.39,44.09l4.78,1.82a2.5,2.5,0,0,1-.9,4.84Z" style="fill:#071d49"/><path d="M21.48,110.69a13.63,13.63,0,0,1-7.71-2.06c-2.7-1.8-4.14-4.4-5.41-6.7-.32-.57-.64-1.15-1-1.71A51.21,51.21,0,0,0,.68,91.38a2.5,2.5,0,1,1,3.64-3.44,56.52,56.52,0,0,1,7.35,9.7c.37.62.72,1.24,1.06,1.87,1.14,2.06,2.13,3.84,3.82,5,2.28,1.52,5.55,1.32,8.14,1,3.58-.47,7.22-.62,10.74-.76h.36a2.5,2.5,0,1,1,.2,5l-.36,0c-3.57.14-6.93.27-10.28.72A31.14,31.14,0,0,1,21.48,110.69Z" style="fill:#071d49"/><path d="M98.56,49.75a15.36,15.36,0,0,0,10.61-10.16,2,2,0,1,0-3.83-1.17,11.06,11.06,0,0,1-18.23,4.74,2,2,0,0,0-2.77,2.89,15.41,15.41,0,0,0,10.55,4.17A14.21,14.21,0,0,0,98.56,49.75Z" style="fill:#071d49"/><path d="M134.87,129.22a2.47,2.47,0,0,0-.6-.85c-.8-2.34-2.14-11.33-2.6-14.41-.26-1.77-.4-2.71-.49-3.14-4-19.78-11.9-40.19-18.52-56.08a23.66,23.66,0,0,0,5-6.13A13.83,13.83,0,0,0,124,50.1c3.23,0,6.45-1.1,8.37-3.55a2,2,0,0,0-.19-2.69,5.71,5.71,0,0,0-3.08-1.26,4.21,4.21,0,0,1-1.21-.31c-.43-.26-.6-.65-1-1.69-.14-.42-.29-.85-.48-1.29a21.51,21.51,0,0,1-1.27-5.94c-.07-.6-.15-1.19-.23-1.78-1.29-9.13-3.62-15.57-7.58-20.89-3.29-4.43-9.4-7.91-13.62-9.53A16.25,16.25,0,0,0,90,1.91a2.56,2.56,0,0,0-.47-.23C82.35-.53,74,1.78,68.19,7.58A34.59,34.59,0,0,0,58.88,29c-.32,7.16,1.33,13.33,3.91,20.37a20,20,0,0,0,1.14,2.43c.68,1.32,1.33,2.57,1.22,3.56-.14,1.36-1.22,2.87-2.4,2.79a2,2,0,0,0-.44,4,35.41,35.41,0,0,0,5.43.54,16.51,16.51,0,0,0,2.42-.17,10.06,10.06,0,0,0,7.41-4.75c.06-.11.1-.22.16-.33.85.49,1.75,1,2.67,1.42a2.46,2.46,0,0,0-.6,1.73c.51,11.74.72,24.27.66,39.44,0,2.91.06,5.94.13,8.87.22,9.3.45,18.91-1.84,27.38a2.55,2.55,0,0,0,.33,2,2.49,2.49,0,0,0,1.73,1.1,99.89,99.89,0,0,0,14,1,99.07,99.07,0,0,0,38.73-7.87A2.5,2.5,0,0,0,134.87,129.22ZM102.3,4.9c3.89,1.5,9.26,4.7,11.85,8.19,3.54,4.75,5.64,10.63,6.83,19.05.08.57.15,1.14.22,1.71a25,25,0,0,0,1.56,7c.15.34.27.69.38,1a6.39,6.39,0,0,0,2.65,3.79,3.14,3.14,0,0,0,.31.18,9.93,9.93,0,0,1-6.77-.94,26.4,26.4,0,0,0,.88-12.35,42,42,0,0,0-4.6-14.65,2.5,2.5,0,0,0-3.39-1,2.53,2.53,0,0,0-.81.71,15.79,15.79,0,0,1-10-1.16,35.52,35.52,0,0,1-10-7.35,1.9,1.9,0,0,0-.45-.31C91,7.92,91,7,91,6.05,93.88,3.81,98.29,3.35,102.3,4.9ZM74.07,55.82a6.08,6.08,0,0,1-4.52,2.71,11.74,11.74,0,0,1-1.33.13,7.9,7.9,0,0,0,.91-2.86c.24-2.2-.77-4.13-1.65-5.84a16.9,16.9,0,0,1-.93-2c-2.48-6.79-4-12.3-3.68-18.82A30.27,30.27,0,0,1,71,10.41,18.7,18.7,0,0,1,84,4.87a15.34,15.34,0,0,1,3,.29c.12,4.52-.36,7.48-2.65,10.92h0c-.84,1.25-1.75,2.44-2.73,3.69a44.38,44.38,0,0,0-4.42,6.52c-3.68,7.1-3.33,15.29-2.6,23.76C74.78,52.42,74.87,54.35,74.07,55.82Zm4.64-3.67c0-.87-.08-1.71-.15-2.45-.7-8.16-1-15.41,2.17-21.57a39.23,39.23,0,0,1,4-5.91c1-1.25,2-2.55,2.89-3.92A19.43,19.43,0,0,0,90,13.43a36.36,36.36,0,0,0,9.74,6.75,21.24,21.24,0,0,0,8.53,1.87,17.14,17.14,0,0,0,3.61-.39,39.11,39.11,0,0,1,3.35,11.64c1.5,10.41-2.92,17.65-13.91,22.79-7.09,3.31-16.33.15-22.61-3.92Zm5.54,82.63c1.76-8.39,1.55-17.34,1.34-26-.08-3-.15-5.89-.13-8.73.06-15.12-.15-27.64-.66-39.37a30.78,30.78,0,0,0,10,1.8,20.43,20.43,0,0,0,8.69-1.83,46.49,46.49,0,0,0,5.08-2.78c6.42,15.5,13.9,35.1,17.74,54,.07.31.25,1.56.45,2.88,1.13,7.59,1.86,11.78,2.49,14.17A94.27,94.27,0,0,1,84.25,134.78Z" style="fill:#071d49"/><path d="M87.86,34.32a5.46,5.46,0,0,0,.54-4.87,3.26,3.26,0,0,0-.81-1.31,2.3,2.3,0,0,0-1.68-.61,3.07,3.07,0,0,0-2.69,2.17,4.55,4.55,0,0,0,.62,3.93C84.82,35,86.88,35.72,87.86,34.32Z" style="fill:#071d49"/><path d="M99.93,32.34a2.09,2.09,0,0,0,2.61-1,4,4,0,0,0,.53-3.5,3,3,0,0,0-3.43-2.15,3.29,3.29,0,0,0-2,3.67A4,4,0,0,0,99.93,32.34Z" style="fill:#071d49"/><path d="M43.59,94a2,2,0,0,0,.46,2.79,6.41,6.41,0,0,0,4.09,1.37c.39,0,.77,0,1.17,0l.74,0a9.85,9.85,0,0,0,8.33-5.53,2,2,0,1,0-3.63-1.69A5.73,5.73,0,0,1,49.89,94l-.79,0c-1.5.08-1.77.09-2.71-.59A2,2,0,0,0,43.59,94Z" style="fill:#071d49"/><path d="M72.41,135.3A98.27,98.27,0,0,0,64,102.66c.31-.28.63-.55.92-.84,8.49-8.55,9.62-21.44,2.63-30-5.45-6.67-15.14-8.52-21.78-8.08a18,18,0,0,0-4.8,1,20,20,0,0,1-.55-4.87,2,2,0,1,0-4-.06A23.79,23.79,0,0,0,37,65.35a10.52,10.52,0,0,0-4.42-2.58,2,2,0,0,0-1.08,3.85,6.51,6.51,0,0,1,3.08,2c-.28.25-.54.51-.81.77a29.61,29.61,0,0,0-7.1.21,2,2,0,0,0,.3,4,1.51,1.51,0,0,0,.3,0,25.54,25.54,0,0,1,3.49-.29A22.53,22.53,0,0,0,29,76.73c-3.15,8-1.9,17.37,3.21,23.78a20.59,20.59,0,0,0,3.65,3.58,2.48,2.48,0,0,0-.54,1.49c0,.61-.09,2.52-.18,5.27-1.66,47-1.44,47.19-.24,48.32a2.49,2.49,0,0,0,2,.68,152.43,152.43,0,0,1,22-.48,29.74,29.74,0,0,1,3.85.54,21.45,21.45,0,0,0,3.84.48,5.83,5.83,0,0,0,3.77-1.17c2-1.61,2.39-4.39,2.49-6.34A124.39,124.39,0,0,0,72.41,135.3ZM60,71.88a5.35,5.35,0,0,1-4-.81,5.26,5.26,0,0,1-1.38-1.44A21.26,21.26,0,0,1,60,71.88ZM46.1,68.75c.52,0,1.06,0,1.6,0h.12A39.41,39.41,0,0,1,33,80.49a20,20,0,0,1,.64-1.94C35.92,72.78,40.58,69.12,46.1,68.75ZM32.3,85.12A43.24,43.24,0,0,0,50.94,71.21a9.14,9.14,0,0,0,2.81,3.15,9.42,9.42,0,0,0,8.86.9,2.06,2.06,0,0,0,.77-.59l.3.33c6.11,7.47,3.37,17.58-2.31,23.3-.29.29-.6.55-.91.82a2.49,2.49,0,0,0-.86.25,2.45,2.45,0,0,0-1.17,1.29,17.67,17.67,0,0,1-10.49,2.73,16,16,0,0,1-11.82-6A18.58,18.58,0,0,1,32.3,85.12Zm35.56,67.51c-.11,2.26-.6,2.67-.6,2.67-.38.3-2.39-.08-3.59-.3a34.21,34.21,0,0,0-4.5-.62,154.79,154.79,0,0,0-20.23.28c-.06-7.93.86-34.25,1.19-43.63.07-1.9.12-3.39.15-4.35a21.88,21.88,0,0,0,7.39,1.71q.63,0,1.26,0a22.74,22.74,0,0,0,10.94-2.81,94.14,94.14,0,0,1,7.56,30.16A118.73,118.73,0,0,1,67.86,152.63Z" style="fill:#071d49"/><path d="M44.56,87.32A4.75,4.75,0,0,0,45,83.07a2.93,2.93,0,0,0-.7-1.14,2,2,0,0,0-1.47-.54,2.67,2.67,0,0,0-2.35,1.9,4,4,0,0,0,.54,3.43C41.91,87.88,43.7,88.54,44.56,87.32Z" style="fill:#071d49"/><path d="M55.1,85.38a1.82,1.82,0,0,0,2.28-.85,3.48,3.48,0,0,0,.46-3.06,2.65,2.65,0,0,0-3-1.88,2.88,2.88,0,0,0-1.71,3.22A3.5,3.5,0,0,0,55.1,85.38Z" style="fill:#071d49"/></symbol></defs><g id="Layer_2" data-name="Layer 2"><g id="header_footer" data-name="header/footer"><use width="155.66" height="209.54" xlink:href="#parent-symbol"/></g></g></svg>