<svg id="Layer_1" data-name="Layer 1" xmlns="http://www.w3.org/2000/svg" viewBox="0 0 73.23 73.21"><path id="orange-circle" d="M40.45,73.21C29.1,73.21,18,68.82,10.43,61,1.49,51.72-2.12,36.75,1.23,22.85,2.64,17,7,11.41,13.45,7.07A42.3,42.3,0,0,1,32,.18,34.94,34.94,0,0,1,61.05,10.65,43.41,43.41,0,0,1,72.16,33.14c2.15,11.72,1.06,20.62-3.35,27.2-3.89,5.83-10.71,10-19.21,11.9A43.5,43.5,0,0,1,40.45,73.21ZM35.82,3.9c-1.14,0-2.3.06-3.48.17C18.54,5.38,7.08,15.32,5,23.77,2,36.4,5.21,50,13.25,58.29c8.63,9,22.57,12.93,35.52,10.12,7.5-1.62,13.47-5.26,16.79-10.24,3.81-5.7,4.71-13.66,2.75-24.33A39.54,39.54,0,0,0,58.23,13.36h0A30.33,30.33,0,0,0,35.82,3.9Z" style="fill:#fbb03b"/></svg>