<svg xmlns="http://www.w3.org/2000/svg" width="127.68" height="127.2" viewBox="0 0 127.68 127.2"><defs><style>.cls-1{fill:#fff;opacity:0.2;}</style></defs><g id="Layer_2" data-name="Layer 2"><g id="Layer_1-2" data-name="Layer 1"><g id="puzzle-big-faded"><path class="cls-1" d="M57.85,76.39c-1.14,3.75-1.35,7.44,2,10a12.76,12.76,0,0,0,4.83,2.44l-5.47,12.64a2.51,2.51,0,0,0-.13,1.71A2.44,2.44,0,0,0,60.36,106q6,3.28,12.36,6a12.57,12.57,0,0,0-1.49,6c0,3.51,3.14,6.85,6.26,8.16,4.87,2,10.05-1.64,11.2-6.23,4,2,8.39,3.2,12.1,5.81a2.68,2.68,0,0,0,1.24.47c1.14,1.3,3.34,1.59,4.06-.44a116.52,116.52,0,0,1,7.26-16.35,8.29,8.29,0,0,0,6,3.41c4.07.29,6.57-2.67,7.88-6.22,2-5.48-2.82-9.81-7.88-10.22a81.42,81.42,0,0,1,5.8-12.7c1.47-1,1.92-3.47-.18-4.37q-9.7-4.14-19.2-8.77a2.55,2.55,0,0,0-3.63,2.24,2.37,2.37,0,0,0,0,1.1c.29,1.63.4,3.4-.7,4.78a2.81,2.81,0,0,1-3.93.72c-3.3-2.3-.93-6.63,1.17-8.74a2.58,2.58,0,0,0-.78-4l-2.17-1.1,0,0L83.33,59.41a2.55,2.55,0,0,0-3.64,2.47,134.56,134.56,0,0,1-5.94,12.56,11.91,11.91,0,0,0-7.74-4c-4.49-.44-6.91,1.82-8.16,6m6.45-.88a4.89,4.89,0,0,1,2.48.26,7.05,7.05,0,0,1,4,3.3,2.26,2.26,0,0,0,3.28.77,2.53,2.53,0,0,0,3.17-1.15,135,135,0,0,0,6.51-13.36l9,4.46c-3,4.92-3,11.69,3.06,14.53,5.8,2.73,10.51-2.11,11.34-7.44q6.26,3,12.61,5.74c-2.53,4.51-4.24,9.51-6.2,14.27a2.53,2.53,0,0,0,0,1.91c-.45,1.82,1,4,3.14,3.07,1.86-.83,5.91-.46,5.87,2.39,0,1.37-1.51,3.54-2.92,3.46-1.61-.1-2.72-1.7-3.35-3a2.83,2.83,0,0,0-4.12-1.08,2.49,2.49,0,0,0-2.25,1.31,118.18,118.18,0,0,0-7.47,15.86c-4.7-2.72-10.16-3.92-14.52-7.19a2.74,2.74,0,0,0-4.33,2,2.61,2.61,0,0,0,.21,2c.58,1.12-.42,2.32-1.25,3-1.46,1.13-2.86,1.34-4.32.14-1.22-1-2.08-1.87-1.84-3.5.19-1.26.4-2.77,1.51-3.55A2.44,2.44,0,0,0,79,112a2.24,2.24,0,0,0-1.08-3.34q-6.92-2.85-13.5-6.34l6.3-14.56a2.45,2.45,0,0,0,0-2.07,2.34,2.34,0,0,0-3.22-1.93c-1.37.53-2.62-.07-3.79-.83-2-1.29-1.64-2.66-1.08-4.76.29-1.08.44-2.32,1.67-2.68"/><path class="cls-1" d="M.34,55.55A2.44,2.44,0,0,0,.8,58.61c2.43,2.33,4.38,5.09,6.73,7.5a33.76,33.76,0,0,0,5.15,3.7c-4.92,2.51-7.33,9.68-2.78,14C13,86.68,16.63,87.47,20.22,85a12.56,12.56,0,0,0,4.33-4.81,48.38,48.38,0,0,1,8.48,8,2.64,2.64,0,0,0,1.61.93,2.61,2.61,0,0,0,3.24-.32l8.73-8.29a2.34,2.34,0,0,0,.66-1.07,15.13,15.13,0,0,0,2.27-2.85,1.82,1.82,0,0,0,.2-1.31l0-.06a2.33,2.33,0,0,0-.51-2.6c-1.4-1.47-5-3.28-4.43-5.75.48-2.08,3.5-2.48,5.07-1.5.66.4,1.19,1,1.83,1.39s1.42.66,2.1,1.07c1.38.82,2.89,1.6,4.42.6a15.39,15.39,0,0,0,3.23-3.22,2.6,2.6,0,0,0,1-.7L69,57a2.81,2.81,0,0,0,.2-4.79A86.23,86.23,0,0,1,55.26,41a2.46,2.46,0,0,0-.81-.53C53,39,49.75,39.71,50,42.35c.15,1.36-.91,2.46-1.86,3.33-1.41,1.3-2.35,1-3.64-.39-2.8-2.91,0-5.62,3.12-6.28a2,2,0,0,0,1.58-1.24,2.67,2.67,0,0,0-.79-3.88,43.7,43.7,0,0,1-12-10.42A3.38,3.38,0,0,0,36,23a2.6,2.6,0,0,0-4.3-.87l-15,16.13C11.83,43.54,7.1,49,1.37,53.37a2.46,2.46,0,0,0-1,2.18M19.53,42.77l13.93-15a50.43,50.43,0,0,0,8.7,8,8.51,8.51,0,0,0-.54,13.72c2.8,2.42,6.19,2.95,9.2.57a13.34,13.34,0,0,0,3.09-3.35A92.46,92.46,0,0,0,64.1,54.89L58.63,61.1A2.44,2.44,0,0,0,58,62.44c-.55.63-1.1,1.24-1.69,1.82-.63-.37-1.23-.8-1.83-1.17a.67.67,0,0,0-.12-.06c-2.1-4.49-8.53-4.24-11.95-1.34a7.54,7.54,0,0,0,.72,12.09,2.28,2.28,0,0,0,.52.44c.32.19.71.39,1.1.59-.15.18-.3.35-.42.52l-1.05,1.39a2.45,2.45,0,0,0-.5.38l-6.94,6.59a55.6,55.6,0,0,0-11-9.43,2.37,2.37,0,0,0-1.08-.68,2,2,0,0,0-2.73.56,2.32,2.32,0,0,0-.69,1.94,4.79,4.79,0,0,1-2,4c-1.61,1.4-2.72,1.76-4.43.38-1.27-1-1.47-2-1-3.58.43-1.41,1.52-3.09,3.22-2.94a2.64,2.64,0,0,0,2.32-1,2.29,2.29,0,0,0,1.16-3.63c-2.13-2.76-5.31-3.88-7.82-6.22-2.2-2-4-4.48-6-6.71,5-4.08,9.36-8.89,13.78-13.63"/><path class="cls-1" d="M72.49,2.38a2.6,2.6,0,0,0-.36,1.28q-.27,9.69.11,19.38a2,2,0,0,0,.11,1.45c.58,2.4,4.23,2.25,4.9,0,.71-.68,2.26,0,2.94.36,1,.55,1.47,1.14,1.13,2.31-.67,2.39-2.95,3.66-5.14,2.39-1.68-1-3.15.23-3.48,1.73a2.4,2.4,0,0,0-1,2.14c.24,4.85.41,9.72.51,14.58a2.22,2.22,0,0,0,.84,1.8,2.17,2.17,0,0,0,1.46.68l16.72,1.63a5.54,5.54,0,0,0,.11,5.11,9.33,9.33,0,0,0,7.26,4.95c5.72.29,8.39-6.72,6.26-11.35l16.07.12a2.26,2.26,0,0,0,2.21-3,1.86,1.86,0,0,0,0-.33q.52-21.84-.1-43.67a2.22,2.22,0,0,0-1.59-2.17,2.76,2.76,0,0,0-1.38-.46Q110.57.79,101,.8a2.22,2.22,0,0,0-.65.09C97.73.81,97.12,5.18,100,6c.88.25.11,3.62-.14,4.15a2.57,2.57,0,0,1-3.21,1.4c-3.32-1.12-2.42-5.28-1-7.47a2,2,0,0,0-.21-2.65A2.05,2.05,0,0,0,93.66.34a112.31,112.31,0,0,0-19,.12,2.38,2.38,0,0,0-2.2,1.92M89.6,5.19a9.71,9.71,0,0,0,.82,7.21,8.26,8.26,0,0,0,8.45,4.28c4.62-.74,7.39-6.38,6.57-10.76q6.3.07,12.58.38.53,19.74.1,39.5l-15.77-.11c-1.94,0-2.6,1.76-2.14,3.22a2.59,2.59,0,0,0-.08,3.77c1.07,1.07.23,4.69-1.61,4.34A4.42,4.42,0,0,1,96,55c-.46-1.05.23-1.58,1-2.44a2.36,2.36,0,0,0,.15-3.08,2.1,2.1,0,0,0-2-2.16L77.25,45.61c-.08-3.5-.21-7-.36-10.5a9,9,0,0,0,9.66-9.37c-.35-4.47-5.21-7.06-9.32-6.44q-.18-7,0-13.92A107,107,0,0,1,89.6,5.19"/></g></g></g></svg>