<svg xmlns="http://www.w3.org/2000/svg" width="103.55" height="112.5" viewBox="0 0 103.55 112.5"><defs><style>.cls-1{fill:#fff;opacity:0.2;}</style></defs><g id="Layer_2" data-name="Layer 2"><g id="Layer_1-2" data-name="Layer 1"><g id="puzzle-small-faded"><path class="cls-1" d="M54.34,37.91c-2.3-2.23-4.9-3.76-8-2.31a10.32,10.32,0,0,0-3.57,2.6q-3.57-4.35-7.13-8.69a2,2,0,0,0-1.19-.74,2,2,0,0,0-2.47-.1q-4.65,3.16-9,6.72a10.18,10.18,0,0,0-3.76-3.31c-2.53-1.35-6.14-.28-8.26,1.49-3.3,2.77-2.56,7.9.34,10.45-2.93,2.19-5.46,4.89-8.73,6.6a2.34,2.34,0,0,0-.82.73C.36,51.69-.67,53.18.53,54.46A95,95,0,0,1,9.67,65.83,6.73,6.73,0,0,0,5,68.9c-1.74,2.84-.52,5.76,1.56,8C9.75,80.45,14.7,78.55,16.89,75a67.19,67.19,0,0,1,7,9c.18,1.44,1.8,2.69,3.24,1.5Q33.8,80,40.7,74.84a2.08,2.08,0,0,0-.27-3.47,1.94,1.94,0,0,0-.78-.43,4.67,4.67,0,0,1-3.2-2.29,2.28,2.28,0,0,1,.94-3.12c2.9-1.54,5.16,1.8,5.9,4.11a2.11,2.11,0,0,0,3.19.93l1.61-1.16,0,0,9-6.66a2.08,2.08,0,0,0-.43-3.56,107.29,107.29,0,0,1-6.89-9,9.65,9.65,0,0,0,5.79-4.11c2-3.09,1.26-5.7-1.26-8.14m-1.78,5a4,4,0,0,1-1.11,1.71,5.78,5.78,0,0,1-3.9,1.69,1.85,1.85,0,0,0-1.79,2.09,2.06,2.06,0,0,0-.35,2.72,109.22,109.22,0,0,0,7.27,9.72l-6.62,4.89c-2.46-4-7.37-6.52-11.68-3.21-4.15,3.19-2.4,8.41,1.16,11q-4.5,3.44-8.87,7a105.2,105.2,0,0,0-8-9.82A2,2,0,0,0,17.26,70c-1.16-1-3.29-.79-3.4,1.13-.1,1.66-1.88,4.46-3.93,3.36-1-.52-2-2.42-1.41-3.41s2.24-1.33,3.43-1.3a2.31,2.31,0,0,0,2.32-2.58A2.06,2.06,0,0,0,14.16,65,96.91,96.91,0,0,0,5.45,53.69c3.73-2.39,6.63-5.91,10.64-7.84A2.24,2.24,0,0,0,16.28,42a2.07,2.07,0,0,0-1.49-.57c-1,0-1.53-1.18-1.68-2a2.52,2.52,0,0,1,1.51-3.18c1.19-.51,2.13-.81,3.22,0,.84.6,1.86,1.32,2,2.42a2,2,0,0,0,.75,1.34,1.82,1.82,0,0,0,2.82.47q4.65-3.94,9.64-7.42,4.11,5,8.21,10a2,2,0,0,0,1.5.77,1.91,1.91,0,0,0,2.6-1.61,3.34,3.34,0,0,1,2-2.44c1.68-1,2.54-.2,3.85,1,.68.61,1.52,1.18,1.32,2.21"/><path class="cls-1" d="M90.94,4a2,2,0,0,0-2.39-.81c-2.6.89-5.33,1.27-8,2.08A26.71,26.71,0,0,0,76,7.61C76,3.1,71.7-1.33,66.88.37c-3.24,1.14-5.18,3.51-4.76,7A10.24,10.24,0,0,0,64,12.33a39.58,39.58,0,0,1-8.93,3.18,2.1,2.1,0,0,0-1.28.82,2.13,2.13,0,0,0-1,2.47q1.36,4.71,2.75,9.42a1.9,1.9,0,0,0,.52.88,12.61,12.61,0,0,0,1.22,2.71,1.45,1.45,0,0,0,.88.63l0,.05a1.9,1.9,0,0,0,2.08.6c1.59-.46,4.24-2.39,5.82-1.06,1.33,1.12.49,3.46-.81,4.24-.53.32-1.14.49-1.69.8s-1,.78-1.56,1.13c-1.11.69-2.24,1.49-2.08,3a12.2,12.2,0,0,0,1.13,3.55,2,2,0,0,0,.14,1l3,7.58A2.29,2.29,0,0,0,67.6,55.2a70.93,70.93,0,0,1,13.35-6,1.9,1.9,0,0,0,.69-.38c1.65-.5,2.33-3.12.3-3.9-1-.4-1.44-1.58-1.72-2.59-.41-1.51.19-2.06,1.65-2.49,3.15-1,4.07,2.1,3.38,4.6a1.64,1.64,0,0,0,.31,1.61,2.18,2.18,0,0,0,3.11.88,35.67,35.67,0,0,1,12-4.81,2.06,2.06,0,0,0,.46-.14,2.12,2.12,0,0,0,2.24-2.79q-3-8.46-6.08-16.93c-2-5.49-4.19-11-5.2-16.75A2,2,0,0,0,90.94,4M93,22.67l5.64,15.7a41.11,41.11,0,0,0-9.06,3.31,6.93,6.93,0,0,0-9.75-5.51c-2.8,1.12-4.45,3.38-3.86,6.45a11.19,11.19,0,0,0,1.28,3.49,75.89,75.89,0,0,0-9.69,4.36l-2.46-6.29a2,2,0,0,0-.74-1c-.25-.63-.48-1.26-.69-1.9.5-.32,1-.59,1.54-.89l.08-.07c4,.16,6.27-4.6,5.44-8.16a6.16,6.16,0,0,0-9-4,2.07,2.07,0,0,0-.52.22c-.26.16-.55.37-.84.57-.07-.17-.14-.34-.22-.5l-.61-1.27a2.38,2.38,0,0,0-.09-.51l-2.19-7.5a45.59,45.59,0,0,0,11-4.47,2,2,0,0,0,.9-.53A1.65,1.65,0,0,0,69.73,12a1.9,1.9,0,0,0-1.15-1.23,3.88,3.88,0,0,1-2.15-3c-.41-1.7-.26-2.63,1.38-3.35a2.31,2.31,0,0,1,3,.62c.86.84,1.66,2.25.93,3.43a2.14,2.14,0,0,0-.16,2.05,1.87,1.87,0,0,0,2.2,2.2c2.8-.51,4.8-2.4,7.43-3.34,2.31-.83,4.75-1.23,7.12-1.86A114.07,114.07,0,0,0,93,22.67"/><path class="cls-1" d="M102.54,76.17a2.16,2.16,0,0,0-.79-.73q-6.93-3.82-14.1-7.16a1.69,1.69,0,0,0-1.09-.47c-2-.47-3.22,2.23-1.82,3.57.22.76-.85,1.64-1.36,2a1.42,1.42,0,0,1-2.1,0c-1.48-1.38-1.55-3.51.19-4.62a1.89,1.89,0,0,0,0-3.17A1.94,1.94,0,0,0,80.34,64q-5.41-2.47-10.77-5.09A1.83,1.83,0,0,0,68,58.87a1.86,1.86,0,0,0-1,.81L59.49,71.19a4.49,4.49,0,0,0-3.75-1.82,7.6,7.6,0,0,0-6.3,3.41c-2.35,4,1.74,8.6,5.89,8.78q-3,5.81-6.1,11.61a1.86,1.86,0,0,0,1.35,2.72,1.34,1.34,0,0,0,.23.16q15.63,8.53,31.71,16.24a1.79,1.79,0,0,0,2.16-.35,2.15,2.15,0,0,0,.85-.82q3.94-6.74,7.5-13.67a2.16,2.16,0,0,0,.18-.5c1-1.88-1.91-4-3.59-2.14-.51.54-2.67-1.28-3-1.66a2.08,2.08,0,0,1,.19-2.84c2.05-2,4.73.21,5.81,2a2.13,2.13,0,0,0,3.45,0,92.52,92.52,0,0,0,7-13.79,2,2,0,0,0-.57-2.33M94.1,87.54a7.92,7.92,0,0,0-5.53-2.1A6.75,6.75,0,0,0,82.31,90c-1.19,3.63,1.87,7.75,5.35,8.79q-2.4,4.55-5,9-14.52-7-28.69-14.69l6-11.4a1.87,1.87,0,0,0-1.53-2.75,2.12,2.12,0,0,0-2.71-1.47c-1.18.37-3.48-1.58-2.54-2.79a3.59,3.59,0,0,1,2.38-1.08c.94,0,1.06.75,1.4,1.62a1.91,1.91,0,0,0,2.18,1.25,1.69,1.69,0,0,0,2.32-.65l7.94-12.3q3.86,1.86,7.75,3.66a7.3,7.3,0,0,0,3.18,10.51c3.38,1.41,7.07-1.15,8.16-4.36q5.11,2.47,10.11,5.17a87.14,87.14,0,0,1-4.51,9.08"/></g></g></g></svg>