<svg xmlns="http://www.w3.org/2000/svg" width="129.15" height="130.88" viewBox="0 0 129.15 130.88"><defs><style>.cls-1{fill:#fbab18;}.cls-2{fill:#3fa66c;}.cls-3{fill:#e55e4f;}.cls-4{fill:#242953;}</style></defs><g id="Layer_2" data-name="Layer 2"><g id="Layer_1-2" data-name="Layer 1"><g id="Puzzles"><path class="cls-1" d="M125.74,106.57c-1.3,3.55-3.81,6.51-7.88,6.22a8.25,8.25,0,0,1-6-3.41,116.57,116.57,0,0,0-7.27,16.35c-.71,2-2.91,1.74-4,.44a2.66,2.66,0,0,1-1.25-.48c-3.7-2.6-8.07-3.84-12.09-5.8-1.16,4.59-6.33,8.28-11.21,6.23-3.12-1.31-6.3-4.64-6.25-8.16a12.57,12.57,0,0,1,1.49-6q-6.31-2.75-12.36-6a2.44,2.44,0,0,1-1.28-2.75,2.45,2.45,0,0,1,.13-1.71l5.47-12.64a12.62,12.62,0,0,1-4.83-2.44c-3.35-2.61-3.15-6.3-2-10,1.25-4.12,3.68-6.39,8.16-6a11.92,11.92,0,0,1,7.73,4,133.32,133.32,0,0,0,6-12.56,2.55,2.55,0,0,1,3.63-2.47l12.32,6.08h0l2.17,1.11c1.41.73,6,3,7.9,3.91q9.5,4.61,19.2,8.76c2.1.89,1.65,3.36.17,4.37a83.75,83.75,0,0,0-5.8,12.7c5.07.41,9.91,4.74,7.89,10.22"/><path class="cls-2" d="M69,56.28q-3.3,3.73-6.59,7.49a2.64,2.64,0,0,1-1,.69,15.63,15.63,0,0,1-3.23,3.22c-2,1.34-4-.35-5.7-1.4L52.22,66a2.41,2.41,0,0,1-2.48-1.63c-.48-1.29-3.36-.13-4,.4a2.41,2.41,0,0,0,.16,4c1.67.91,4.54,3.64,3.85,5.7,0,0,0,0,0,0a1.76,1.76,0,0,1-.2,1.31,15.08,15.08,0,0,1-2.26,2.85,2.37,2.37,0,0,1-.67,1.07l-8.73,8.29a2.6,2.6,0,0,1-3.23.32A2.62,2.62,0,0,1,33,87.44a48.38,48.38,0,0,0-8.48-8,12.38,12.38,0,0,1-4.32,4.81c-3.6,2.43-7.26,1.64-10.32-1.25-4.56-4.29-2.16-11.46,2.77-14a33.57,33.57,0,0,1-5.15-3.7C5.18,63,3.23,60.2.8,57.87a2.45,2.45,0,0,1-.46-3.06,2.48,2.48,0,0,1,1-2.18c5.74-4.34,10.46-9.83,15.34-15.06l15-16.14c1.92-2.06,4.14.54,5.34,2a40.34,40.34,0,0,0,9.69,8.64c4.16,2.7,7.43,6.67,10.72,10.33s7.61,6.41,11.75,9.05a2.81,2.81,0,0,1-.2,4.79"/><path class="cls-3" d="M120.93,47.92a2.28,2.28,0,0,1-2.21,3l-16.07-.13c2.13,4.63-.53,11.64-6.26,11.35a9.35,9.35,0,0,1-7.26-4.95A5.54,5.54,0,0,1,89,52.09L72.3,50.46a2.19,2.19,0,0,1-1.46-.68A2.24,2.24,0,0,1,70,48q-.09-4.54-.26-9.08c-.09-2.27.33-14.83.29-15.86-.24-6.46-.29-12.91-.11-19.38a2.6,2.6,0,0,1,.36-1.28A2.4,2.4,0,0,1,72.49.46,110.32,110.32,0,0,1,84,0C86.38,0,98.69.8,100.4.8c1.91,0,3.82,0,5.74.07q5.88.1,11.77.43a2.76,2.76,0,0,1,1.37.46,2.2,2.2,0,0,1,1.59,2.17q.63,21.83.11,43.67a1.64,1.64,0,0,1,0,.32"/><path class="cls-4" d="M59.32,80.07c-1.14,3.75-1.35,7.44,2,10.05a12.69,12.69,0,0,0,4.83,2.44q-2.73,6.31-5.47,12.64a2.57,2.57,0,0,0-.13,1.71,2.46,2.46,0,0,0,1.28,2.75q6,3.28,12.36,6a12.57,12.57,0,0,0-1.49,6c0,3.51,3.14,6.85,6.26,8.16,4.87,2,10.05-1.64,11.2-6.23,4,2,8.39,3.2,12.1,5.81a2.72,2.72,0,0,0,1.24.47c1.14,1.3,3.34,1.59,4.06-.44a116.52,116.52,0,0,1,7.26-16.35,8.29,8.29,0,0,0,6,3.41c4.07.29,6.58-2.67,7.89-6.22,2-5.48-2.83-9.81-7.89-10.21a82,82,0,0,1,5.8-12.71c1.48-1,1.92-3.47-.17-4.37q-9.72-4.14-19.2-8.77a2.55,2.55,0,0,0-3.64,2.24,2.51,2.51,0,0,0,0,1.1c.29,1.63.4,3.4-.7,4.78a2.8,2.8,0,0,1-3.93.72c-3.3-2.3-.93-6.63,1.17-8.74a2.59,2.59,0,0,0-.77-4l-2.18-1.1,0,0L84.8,63.09a2.56,2.56,0,0,0-3.64,2.47,134.56,134.56,0,0,1-5.94,12.56,11.89,11.89,0,0,0-7.74-4C63,73.68,60.57,76,59.32,80.07m6.45-.88a4.89,4.89,0,0,1,2.48.26,7.05,7.05,0,0,1,4,3.3,2.28,2.28,0,0,0,3.29.78,2.53,2.53,0,0,0,3.16-1.16A130.74,130.74,0,0,0,85.24,69l9,4.46c-3,4.92-3,11.69,3.06,14.53,5.81,2.73,10.51-2.1,11.34-7.44q6.25,3,12.61,5.74c-2.53,4.51-4.24,9.51-6.2,14.27a2.53,2.53,0,0,0,0,1.91c-.45,1.82,1,4,3.14,3.07,1.87-.83,5.92-.46,5.87,2.39,0,1.37-1.51,3.55-2.92,3.46-1.6-.1-2.72-1.7-3.34-3a2.83,2.83,0,0,0-4.12-1.08,2.47,2.47,0,0,0-2.25,1.31A117,117,0,0,0,104,124.48c-4.69-2.72-10.16-3.91-14.51-7.19a2.75,2.75,0,0,0-4.34,2,2.59,2.59,0,0,0,.21,1.94c.58,1.12-.42,2.32-1.24,3-1.46,1.14-2.87,1.34-4.33.14-1.22-1-2.07-1.87-1.83-3.5.18-1.25.39-2.77,1.51-3.55a2.43,2.43,0,0,0,1-1.56,2.24,2.24,0,0,0-1.08-3.34q-6.9-2.85-13.5-6.34l6.3-14.56a2.49,2.49,0,0,0,0-2.07A2.35,2.35,0,0,0,69,87.46c-1.36.53-2.62-.07-3.79-.83-2-1.29-1.64-2.66-1.08-4.76.29-1.08.44-2.32,1.67-2.68"/><path class="cls-4" d="M1.81,59.23a2.46,2.46,0,0,0,.46,3.06C4.7,64.62,6.65,67.38,9,69.79a33.57,33.57,0,0,0,5.15,3.7c-4.92,2.51-7.33,9.68-2.78,14,3.07,2.89,6.73,3.68,10.33,1.25A12.45,12.45,0,0,0,26,83.91a47.69,47.69,0,0,1,8.48,8,2.66,2.66,0,0,0,1.62.93,2.61,2.61,0,0,0,3.24-.32l8.72-8.29a2.37,2.37,0,0,0,.67-1.07A15.08,15.08,0,0,0,51,80.26a1.77,1.77,0,0,0,.2-1.31l0-.06a2.31,2.31,0,0,0-.51-2.6c-1.4-1.47-5-3.28-4.42-5.75.47-2.08,3.49-2.48,5.07-1.5.65.4,1.18,1,1.82,1.39s1.42.66,2.11,1.07c1.38.82,2.89,1.61,4.41.6A15.39,15.39,0,0,0,63,68.88a2.6,2.6,0,0,0,1-.7l6.59-7.48a2.81,2.81,0,0,0,.21-4.79,86.3,86.3,0,0,1-14-11.21,2.53,2.53,0,0,0-.8-.53c-1.47-1.51-4.71-.78-4.42,1.86.15,1.36-.91,2.46-1.86,3.33-1.41,1.3-2.35,1-3.64-.39-2.79-2.91,0-5.62,3.12-6.28a2,2,0,0,0,1.58-1.24,2.67,2.67,0,0,0-.79-3.88,43.52,43.52,0,0,1-12-10.42,2.78,2.78,0,0,0-.42-.42,2.6,2.6,0,0,0-4.3-.88L18.18,42C13.3,47.22,8.58,52.71,2.84,57.05a2.5,2.5,0,0,0-1,2.18M21,46.46l13.93-15a50.49,50.49,0,0,0,8.71,8,8.5,8.5,0,0,0-.54,13.72c2.79,2.42,6.19,2.95,9.2.57a13.43,13.43,0,0,0,3.08-3.34,93.57,93.57,0,0,0,10.19,8.1c-1.82,2.07-3.65,4.14-5.47,6.22a2.38,2.38,0,0,0-.62,1.34c-.54.62-1.1,1.23-1.68,1.81-.63-.37-1.24-.8-1.84-1.17a.67.67,0,0,0-.12-.06c-2.1-4.49-8.53-4.24-12-1.34a7.55,7.55,0,0,0,.72,12.09,2.28,2.28,0,0,0,.52.44c.32.19.71.39,1.1.6a6.28,6.28,0,0,0-.42.51l-1,1.39a2.25,2.25,0,0,0-.51.38l-6.94,6.59a55.83,55.83,0,0,0-11-9.43,2.43,2.43,0,0,0-1.08-.68,2,2,0,0,0-2.74.56,2.32,2.32,0,0,0-.69,1.94,4.73,4.73,0,0,1-2,4c-1.61,1.41-2.71,1.76-4.42.38-1.28-1-1.48-2-1-3.58.43-1.41,1.52-3.09,3.22-2.94a2.66,2.66,0,0,0,2.32-1A2.29,2.29,0,0,0,21.05,73c-2.13-2.76-5.3-3.88-7.81-6.22-2.2-2.05-4-4.48-6-6.71,5-4.08,9.37-8.89,13.78-13.62"/><path class="cls-4" d="M74,6.06a2.6,2.6,0,0,0-.36,1.28c-.18,6.46-.13,12.92.11,19.39a2.07,2.07,0,0,0,.11,1.44c.58,2.4,4.23,2.25,4.91,0,.7-.67,2.26,0,2.93.36,1,.55,1.47,1.14,1.14,2.31-.68,2.39-3,3.66-5.14,2.39-1.69-1-3.16.24-3.49,1.73a2.37,2.37,0,0,0-1,2.14q.34,7.29.5,14.58a2.24,2.24,0,0,0,.84,1.8,2.19,2.19,0,0,0,1.47.68L92.7,55.77a5.51,5.51,0,0,0,.12,5.11,9.33,9.33,0,0,0,7.25,4.95c5.73.29,8.39-6.72,6.27-11.35l16.06.12a2.26,2.26,0,0,0,2.21-3c0-.11,0-.22,0-.33q.53-21.84-.11-43.67A2.21,2.21,0,0,0,123,5.44,2.73,2.73,0,0,0,121.58,5q-9.54-.51-19.09-.5a2.7,2.7,0,0,0-.66.09c-2.63-.08-3.24,4.3-.31,5.11.87.25.1,3.62-.15,4.15a2.56,2.56,0,0,1-3.2,1.4c-3.33-1.12-2.43-5.28-1.06-7.47a2,2,0,0,0-.21-2.65A2,2,0,0,0,95.13,4a113.24,113.24,0,0,0-19,.12A2.4,2.4,0,0,0,74,6.06M91.08,8.87a9.66,9.66,0,0,0,.82,7.21,8.25,8.25,0,0,0,8.44,4.28c4.63-.73,7.39-6.38,6.57-10.76q6.3.08,12.58.38.53,19.75.1,39.51l-15.77-.12c-1.94,0-2.6,1.76-2.14,3.22a2.6,2.6,0,0,0-.08,3.77c1.07,1.08.24,4.69-1.6,4.34a4.35,4.35,0,0,1-2.52-2c-.47-1.05.22-1.58,1-2.44a2.36,2.36,0,0,0,.14-3.08,2.07,2.07,0,0,0-2-2.15L78.73,49.29q-.14-5.25-.37-10.5A9,9,0,0,0,88,29.42C87.67,25,82.81,22.36,78.7,23q-.18-7,0-13.92a107.25,107.25,0,0,1,12.42-.19"/></g></g></g></svg>