<?xml version="1.0" encoding="utf-8"?>
<?xml-stylesheet type="text/css" href="/../css/landing.css" ?>
<!-- Generator: Adobe Illustrator 24.1.2, SVG Export Plug-In . SVG Version: 6.00 Build 0)  -->
<svg version="1.1" xmlns="http://www.w3.org/2000/svg" xmlns:xlink="http://www.w3.org/1999/xlink" x="0px" y="0px" width="219.1px"
	 height="135.2px" viewBox="0 0 219.1 135.2" style="enable-background:new 0 0 219.1 135.2;" xml:space="preserve">
<style type="text/css">

	.st132{
	fill:#D6D8DC;

	}
 .gold{
	fill:#fbb03b;

	}

.st79{
fill:#141F47;
}

.seventyFive{

 transform: scaleY(.75);


 }



</style>

	<path id="grey" class="st132" d="M215.8, 42c-8.4-21.4-28.5-35.1-51.1-37.3c-19.1-1.9-39.2,4.6-53,18C98,9.3,77.9,2.8,58.8,4.7
		C36.2,6.9,16.1,20.6,7.7,42C-1,64.3,7.6,91,28.7,102.9c-0.1,3.9-0.3,7.8-0.5,11.8l0,0c-0.3,5.8-0.9,11.7-1.6,17.4
		c-0.3,2.5,3.6,4.1,5.2,2.2c6.5-7.8,14.1-14.4,22.9-19.6h0c0.4-0.2,0.8-0.5,1.2-0.7c20.1,2.7,41.4-2.3,56-16.6
		c14.6,14.3,35.8,19.3,56,16.6c0.4,0.2,0.8,0.5,1.2,0.7h0c8.7,5.1,16.4,11.8,22.9,19.6c1.6,1.9,5.5,0.4,5.2-2.2
		c-0.7-5.8-1.2-11.6-1.6-17.4l0,0c-0.3-3.9-0.4-7.8-0.5-11.8C215.9,91,224.4,64.3,215.8,42z"/>


		<!-- <path class="gold seventyFive" d="M215.8, 42c-8.4-21.4-28.5-35.1-51.1-37.3c-19.1-1.9-39.2,4.6-53,18C98,9.3,77.9,2.8,58.8,4.7
			C36.2,6.9,16.1,20.6,7.7,42C-1,64.3,7.6,91,28.7,102.9c-0.1,3.9-0.3,7.8-0.5,11.8l0,0c-0.3,5.8-0.9,11.7-1.6,17.4
			c-0.3,2.5,3.6,4.1,5.2,2.2c6.5-7.8,14.1-14.4,22.9-19.6h0c0.4-0.2,0.8-0.5,1.2-0.7c20.1,2.7,41.4-2.3,56-16.6
			c14.6,14.3,35.8,19.3,56,16.6c0.4,0.2,0.8,0.5,1.2,0.7h0c8.7,5.1,16.4,11.8,22.9,19.6c1.6,1.9,5.5,0.4,5.2-2.2
			c-0.7-5.8-1.2-11.6-1.6-17.4l0,0c-0.3-3.9-0.4-7.8-0.5-11.8C215.9,91,224.4,64.3,215.8,42z"/> -->

		<path class="st79" d="M211.4,37.6c-8.4-21.4-28.5-35.1-51.1-37.3c-19.1-1.9-39.2,4.6-53,18c0,0,0,0,0,0
			c-13.7-13.4-33.9-19.9-53-18C31.8,2.5,11.7,16.2,3.4,37.6c-8.7,22.3-0.1,49,20.9,60.9c-0.2,9.8-0.9,19.5-2.1,29.2
			c-0.3,2.5,3.6,4.1,5.2,2.2c6.8-8.2,14.9-15.1,24.1-20.3c20.1,2.7,41.4-2.3,56-16.6c1.5-1.4,2.8-2.9,4.1-4.5
			c0.3-0.3,0.5-0.6,0.8-0.9c14-18,15.1-42.4,2-61.2c-0.9-1.2-1.8-2.4-2.8-3.6c14.2-14.1,36-19.5,55.4-15.4
			c19.5,4.2,36,18.6,40.8,38.4c4.5,18.7-4.1,39.1-21.3,48.2c-1.2,0.6-1.5,1.6-1.5,2.6c-0.3,0.5-0.5,1-0.5,1.6
			c0.2,7,0.5,13.9,1.2,20.8c-5.8-5.8-12.4-10.8-19.6-14.8c-0.5-0.3-1-0.4-1.5-0.4c-0.5-0.2-1-0.2-1.5-0.2
			c-18.5,2.8-38.3-2.1-51.5-15.1c-1.3,1.6-2.6,3.1-4.1,4.5c14.6,14.3,35.8,19.3,56,16.6c9.2,5.3,17.3,12.1,24.1,20.3
			c1.6,1.9,5.5,0.4,5.2-2.2c-1.2-9.7-1.9-19.5-2.1-29.2C211.5,86.7,220.1,59.9,211.4,37.6z M111.4,78.1c-1.2,2.1-2.5,4-4,5.8
			c-1.3,1.6-2.7,3.2-4.1,4.5c-13.2,13-33,17.9-51.5,15.1c-0.6-0.1-1.1,0-1.5,0.2c-0.5,0-1,0.1-1.5,0.4c-7.1,4.1-13.7,9.1-19.6,14.8
			c0.6-6.9,1-13.9,1.2-20.8c0-0.7-0.2-1.2-0.5-1.6c0.1-1-0.3-2-1.5-2.6C11.3,84.9,2.6,64.5,7.1,45.8C11.9,26,28.4,11.6,47.9,7.4
			c19.4-4.2,41.2,1.3,55.4,15.4c0.1,0.1,0.2,0.2,0.3,0.3c1.4,1.4,2.6,2.8,3.8,4.2C118.9,41.8,120.9,61.7,111.4,78.1z"/>
		<path class="st79" d="M181.3,59.3c0.4,0.2,0.7,0.3,1.2,0.3l0.8-0.1c0.5-0.1,1-0.4,1.3-0.8c0.2-0.2,0.3-0.4,0.5-0.6
			c0.3-0.5,0.4-1,0.4-1.5V56c0-0.4-0.1-0.8-0.3-1.2c-0.1-0.4-0.3-0.7-0.6-1c-0.3-0.3-0.6-0.5-1-0.6c-0.4-0.2-0.7-0.3-1.2-0.3
			c-0.3,0-0.5,0.1-0.8,0.1c-0.5,0.1-1,0.4-1.3,0.8c-0.2,0.2-0.3,0.4-0.5,0.6c-0.3,0.5-0.4,1-0.4,1.5v0.5c0,0.4,0.1,0.8,0.3,1.2
			c0.1,0.4,0.3,0.7,0.6,1C180.6,58.9,180.9,59.1,181.3,59.3z"/>
		<path class="st79" d="M157.4,57.3c0.4,0.2,0.7,0.3,1.2,0.3l0.8-0.1c0.5-0.1,1-0.4,1.3-0.8c0.2-0.2,0.3-0.4,0.5-0.6
			c0.3-0.5,0.4-1,0.4-1.5V54c0-0.4-0.1-0.8-0.3-1.2c-0.1-0.4-0.3-0.7-0.6-1c-0.3-0.3-0.6-0.5-1-0.6c-0.4-0.2-0.7-0.3-1.2-0.3
			c-0.3,0-0.5,0.1-0.8,0.1c-0.5,0.1-1,0.4-1.3,0.8c-0.2,0.2-0.3,0.4-0.5,0.6c-0.3,0.5-0.4,1-0.4,1.5v0.5c0,0.4,0.1,0.8,0.3,1.2
			c0.1,0.4,0.3,0.7,0.6,1C156.7,56.9,157,57.1,157.4,57.3z"/>
		<path class="st79" d="M133.5,59.3c0.4,0.2,0.7,0.3,1.2,0.3l0.8-0.1c0.5-0.1,1-0.4,1.3-0.8c0.2-0.2,0.3-0.4,0.5-0.6
			c0.3-0.5,0.4-1,0.4-1.5V56c0-0.4-0.1-0.8-0.3-1.2c-0.1-0.4-0.3-0.7-0.6-1c-0.3-0.3-0.6-0.5-1-0.6c-0.4-0.2-0.7-0.3-1.2-0.3
			c-0.3,0-0.5,0.1-0.8,0.1c-0.5,0.1-1,0.4-1.3,0.8c-0.2,0.2-0.3,0.4-0.5,0.6c-0.3,0.5-0.4,1-0.4,1.5v0.5c0,0.4,0.1,0.8,0.3,1.2
			c0.1,0.4,0.3,0.7,0.6,1C132.8,58.9,133.1,59.1,133.5,59.3z"/>
		<path class="st79" d="M85.3,53.8c-0.3-0.3-0.6-0.5-1-0.6c-0.4-0.2-0.7-0.3-1.2-0.3c-0.3,0-0.5,0.1-0.8,0.1c-0.5,0.1-1,0.4-1.3,0.8
			c-0.2,0.2-0.3,0.4-0.5,0.6c-0.3,0.5-0.4,1-0.4,1.5v0.5c0,0.4,0.1,0.8,0.3,1.2c0.1,0.4,0.3,0.7,0.6,1c0.3,0.3,0.6,0.5,1,0.6
			c0.4,0.2,0.7,0.3,1.2,0.3l0.8-0.1c0.5-0.1,1-0.4,1.3-0.8c0.2-0.2,0.3-0.4,0.5-0.6c0.3-0.5,0.4-1,0.4-1.5V56c0-0.4-0.1-0.8-0.3-1.2
			C85.8,54.4,85.6,54.1,85.3,53.8z"/>
		<path class="st79" d="M61.4,55.8c-0.3-0.3-0.6-0.5-1-0.6c-0.4-0.2-0.7-0.3-1.2-0.3C59,55,58.7,55,58.5,55c-0.5,0.1-1,0.4-1.3,0.8
			c-0.2,0.2-0.3,0.4-0.5,0.6c-0.3,0.5-0.4,1-0.4,1.5v0.5c0,0.4,0.1,0.8,0.3,1.2c0.1,0.4,0.3,0.7,0.6,1c0.3,0.3,0.6,0.5,1,0.6
			c0.4,0.2,0.7,0.3,1.2,0.3l0.8-0.1c0.5-0.1,1-0.4,1.3-0.8c0.2-0.2,0.3-0.4,0.5-0.6c0.3-0.5,0.4-1,0.4-1.5V58c0-0.4-0.1-0.8-0.3-1.2
			C61.9,56.4,61.7,56.1,61.4,55.8z"/>
		<path class="st79" d="M37.5,53.8c-0.3-0.3-0.6-0.5-1-0.6c-0.4-0.2-0.7-0.3-1.2-0.3c-0.3,0-0.5,0.1-0.8,0.1c-0.5,0.1-1,0.4-1.3,0.8
			c-0.2,0.2-0.3,0.4-0.5,0.6c-0.3,0.5-0.4,1-0.4,1.5v0.5c0,0.4,0.1,0.8,0.3,1.2c0.1,0.4,0.3,0.7,0.6,1c0.3,0.3,0.6,0.5,1,0.6
			c0.4,0.2,0.7,0.3,1.2,0.3l0.8-0.1c0.5-0.1,1-0.4,1.3-0.8c0.2-0.2,0.3-0.4,0.5-0.6c0.3-0.5,0.4-1,0.4-1.5V56c0-0.4-0.1-0.8-0.3-1.2
			C38,54.4,37.8,54.1,37.5,53.8z"/>




</svg>
