<svg xmlns="http://www.w3.org/2000/svg" width="83.63" height="173.78" viewBox="0 0 83.63 173.78"><defs><style>.cls-1{fill:#fbab18;}.cls-2{fill:#242953;}</style></defs><g id="Layer_2" data-name="Layer 2"><g id="Layer_1-2" data-name="Layer 1"><g id="Rocket"><path class="cls-1" d="M74,86.52c-2.4-7.67-6.32-18-14.91-19.85C59.23,42.73,56,18.89,39.84,1a2.68,2.68,0,0,0-4.18.09.91.91,0,0,0-.22.11l-1.21.9A4,4,0,0,0,33.08,3.3c-12.42,10-15.16,25.78-15.9,41.08q-.55,11.42-.83,22.86a4,4,0,0,0-.67.09C-2.4,72,.86,96.51.58,110.64.5,114.53-2.26,127.43,5,126.8c2.94-.25,4-3.17,5.26-5.36,4.88-8.32,14.37-11.54,23.52-12.14,7.81-.51,21.93-.43,28.21,4.94,4.52,3.88,6.79,10.39,12.24,13.2,1.94,1,4.63-.19,4.54-2.59-.46-12.84-.93-26-4.78-38.33"/><path class="cls-2" d="M78.85,91c-2.39-7.67-6.32-18-14.91-19.86.12-23.94-3.08-47.77-19.27-65.71a2.7,2.7,0,0,0-4.18.09,1.43,1.43,0,0,0-.21.12l-1.21.9a3.87,3.87,0,0,0-1.16,1.23C25.49,17.76,22.76,33.57,22,48.87q-.56,11.42-.83,22.86a4.07,4.07,0,0,0-.66.1C2.43,76.52,5.7,101,5.41,115.13,5.33,119,2.57,131.92,9.86,131.3c2.94-.25,4-3.17,5.26-5.37a22.32,22.32,0,0,1,10.43-9.52,2.94,2.94,0,0,0,1-.77h.08c.43,6.17.81,12.35.93,18.53.07,3.37.19,6.79-.06,10.14a16.85,16.85,0,0,1-1.32,6.28,3.76,3.76,0,0,1-3.52,2.79c-2.24,1.46-3.16.59-2.74-2.61,3.54-1.46,2-7.31-1.61-5.83-11.23,4.61-2.33,19.49,8,14,6.11-3.25,7.13-10.5,7.32-16.74.26-8.84-.32-17.71-.94-26.54h5.82a3.42,3.42,0,0,0,0,.46c0,9.55,0,19.11.3,28.66.28,7.42-.54,17.26,2.43,24.2,4.62,10.81,18.14.79,9.79-5.16-2.52-1.79-4.93,1.13-4.25,3.54-1.48-3.45-1.24-10.31-1.43-13.05-.3-4.37-.49-8.74-.61-13.12-.23-8.35-.21-16.71-.19-25.07a3.27,3.27,0,0,0,0-.45h5.69a67.94,67.94,0,0,0-1.37,17.71c.29,4.35.39,10.34,3.65,13.67a7,7,0,0,0,8.06,1.59c4.38-2.31,3.18-7.3,3-11.38-.13-3.88-6.17-3.9-6,0,0,1.44,1.18,6.5-1.64,3.56-1.41-1.48-1-6.42-1.08-8.52a61.73,61.73,0,0,1,1.24-15.22,3.13,3.13,0,0,0,0-1.4h1.8a3.56,3.56,0,0,0,.58-.06,2.61,2.61,0,0,0,1.9.52c8.18-.7,12,12.27,18.78,15.78,1.94,1,4.63-.2,4.54-2.6-.45-12.83-.93-26-4.78-38.32m-58,21a25.72,25.72,0,0,0-6.92,5.2,21.3,21.3,0,0,0-2.63,3.88l.12-6,.27-13.41c.18-8.38,0-20.39,9.32-23.69-.22,11.09-.28,22.19-.25,33.28a3.93,3.93,0,0,0,.09.72M42.3,12a57.41,57.41,0,0,1,4.49,6.46l-10.44-.59A28.34,28.34,0,0,1,42.3,12M33,23.42a3.25,3.25,0,0,0,1.26.33l15.11.86a3.57,3.57,0,0,0,.66,0c4.65,10.2,6.64,21.59,7.23,32.9.63,12,.22,24.15-.28,36.24a2.08,2.08,0,0,0-.36,0l-29.7-1.44q.16-17.1.76-34.19c.4-11.19.41-24.23,5.32-34.62M29.93,109.6a3.77,3.77,0,0,0-1.34,0H26.84c0-3.78,0-7.55,0-11.33l29.76,1.44h.1c-.14,3.32-.28,6.64-.39,10l-26.4-.05m32.42.49c.38-10.43,1.21-21.53,1.5-32.73,7.22,2.79,10,17.3,11.21,23.36a143.37,143.37,0,0,1,2.28,22.09c-4.54-5.14-7.46-12.24-15-12.72"/><path class="cls-2" d="M43.37,36.15a2.74,2.74,0,0,0-2.68-.58C35,37.13,30.17,42.24,30.53,48.41c.35,5.87,7.11,9.53,12.48,9.83C55.52,59,55,35.18,43.37,36.15M46,48.66A7.2,7.2,0,0,1,45,51.43c-1.14,1.37-2.68.64-4.08.14-2.44-.88-4.89-1.83-4.28-4.9a6.84,6.84,0,0,1,4-4.65,2.76,2.76,0,0,0,2.38.31c3.44-1,3.29,4.35,2.91,6.33"/></g></g></g></svg>