<svg xmlns="http://www.w3.org/2000/svg" width="472.01" height="244.57" viewBox="0 0 472.01 244.57"><defs><style>.cls-1{fill:#fbb03b;}.cls-2,.cls-4,.cls-5{opacity:0.87;}.cls-3{fill:#242953;}.cls-4{fill:#576f7f;}.cls-5{fill:#00013a;}.cls-6{fill:#009d57;}</style></defs><g id="Layer_2" data-name="Layer 2"><g id="Layer_1-2" data-name="Layer 1"><g id="School-day"><g id="sun"><path class="cls-1" d="M189.26,72.91,139.18,93.3C133.89,82.22,125,73.26,114.52,69l-.94-.34L131.46,30a3.32,3.32,0,0,0-6-2.79L107.14,66.75a52.78,52.78,0,0,0-41.66,9.08,48.87,48.87,0,0,0-5.35,4.55L10.88,48.11a3.32,3.32,0,1,0-3.64,5.56L55.75,85.45a31.79,31.79,0,0,0-5.83,13.26,31.27,31.27,0,0,0,.45,12.4L2.25,127.53a3.32,3.32,0,0,0,2.15,6.29l48-16.37a68.84,68.84,0,0,0,7.24,13.23,56.06,56.06,0,0,0,13.53,14L39.62,185.48a3.32,3.32,0,0,0,3.92,5.15,3.48,3.48,0,0,0,1.21-.93l34.09-41.5a45.35,45.35,0,0,0,4.19,2,42.18,42.18,0,0,0,33.51-.67c1.37-.61,2.73-1.3,4.08-2a44.78,44.78,0,0,0,8.08-6l29,33.5a3.32,3.32,0,0,0,3.86.86,3.24,3.24,0,0,0,.82-.52,3.33,3.33,0,0,0,.34-4.69l-29.36-34a52.75,52.75,0,0,0,4.47-6c5.08-8.06,7.14-16.51,5.8-23.8a54.12,54.12,0,0,0-1.92-7.36l50.09-20.39.1,0a3.32,3.32,0,0,0-2.61-6.11Z"/><g class="cls-2"><path class="cls-3" d="M194.6,71.55,144.52,91.94c-5.29-11.08-14.15-20-24.66-24.31l-.93-.34L136.8,28.66a3.32,3.32,0,0,0-6-2.79L112.48,65.39a52.74,52.74,0,0,0-41.66,9.08A48.71,48.71,0,0,0,65.47,79L16.22,46.75a3.32,3.32,0,1,0-3.64,5.55L61.09,84.09a31.87,31.87,0,0,0-5.83,13.26,31.41,31.41,0,0,0,.45,12.39L7.59,126.16a3.32,3.32,0,1,0,2.15,6.29l48-16.36A68.38,68.38,0,0,0,65,129.32a55.85,55.85,0,0,0,13.52,14L45,184.12a3.32,3.32,0,0,0,3.92,5.14,3.26,3.26,0,0,0,1.21-.93l34.09-41.5c1.37.72,2.77,1.38,4.19,2a42.22,42.22,0,0,0,33.51-.67c1.37-.62,2.73-1.3,4.08-2.06a44.24,44.24,0,0,0,8.08-5.95l29,33.5a3.32,3.32,0,0,0,3.86.86,3.34,3.34,0,0,0,1.16-5.21l-29.36-33.95a54.55,54.55,0,0,0,4.47-6.05c5.08-8.06,7.14-16.52,5.8-23.8A53.74,53.74,0,0,0,147,98.1l50.09-20.4.1,0a3.32,3.32,0,0,0-2.61-6.11Zm-52.2,35.11c2.21,12-8.61,27.37-19.71,33.61-10.3,5.8-21.31,6.63-31.82,2.36h0a46.1,46.1,0,0,1-20.44-17.06c-7.14-10.45-10-19.31-8.62-27.09a26.63,26.63,0,0,1,6.64-13h0a40.45,40.45,0,0,1,6.3-5.69,45.77,45.77,0,0,1,8.48-4.9c11-4.88,23.57-5.43,34.13-1.14C129.84,78.86,139.67,91.76,142.4,106.66Z"/></g></g><g id="School"><path class="cls-4" d="M300,156.3c-.55,0-1.09,0-1.63,0a220.41,220.41,0,0,0-11-28,2.88,2.88,0,0,0-4-1.46,0,0,0,0,1,0,0L243,127.6c-.2,0-.36,0-.53.05l-.16-.17c-1.85.3-3.74.52-5.65.64-5.35.35-10.67-.09-16,.32a81,81,0,0,1-9.49.21l-.42.38a3.51,3.51,0,0,0-.66-.07l-46.83-.29a3.3,3.3,0,0,0-3.31,3.92,3.37,3.37,0,0,0-.92,1.52,73.43,73.43,0,0,1-11.91,23.12c-1.68,2.22,0,4.39,2.16,4.89a3.22,3.22,0,0,0,3.32,2.89c1.73,0,3.44,0,5.16-.07-2.38,23.14-4.34,46.29-.48,69.39-2,1.86-1.23,6.09,2.28,6.06L294,239.51a3.42,3.42,0,0,0,2.06-.66,2.83,2.83,0,0,0,2.9-3.31,522.27,522.27,0,0,1-3.58-72.25q2.31,0,4.65,0c4.46,0,4.48-7,0-7"/><path class="cls-5" d="M242.62,165.88c-.84,5.85-4.4,11.22-10.8,11.56a10.69,10.69,0,0,1-10.89-8.79c-1.18-6.3,3.7-11.23,9.49-12.35a3.46,3.46,0,0,0,1.4-.61c5.8.92,11.76,3.53,10.8,10.19m-15.85-17.59a3.16,3.16,0,0,0-3.34,3.14,17.41,17.41,0,0,0,9.91,32.82c9.74-1.17,15.45-9.46,16.33-18.73,1.22-12.9-12.33-17-22.9-17.23"/><path class="cls-5" d="M236,165.84h-2.21c.15-1,.3-2,.46-3a3.58,3.58,0,0,0-2.43-4.27c-1.65-.46-4,.56-4.28,2.43s-.62,4-.92,6a4.31,4.31,0,0,0,.38,2.65,3.5,3.5,0,0,0,3.43,3.14H236a3.48,3.48,0,0,0,0-6.95"/><path class="cls-5" d="M249.47,237.07a4.36,4.36,0,0,0-.06-.49,112.07,112.07,0,0,1-1.83-32.94c.28-3.1-3-4-5.17-2.8l-17-.83a3.08,3.08,0,0,0-2.18.67c-2.11-1-5.18-.06-5,2.94l1.69,33.64-48.84.33a2.48,2.48,0,0,0,0-.47c-3.84-22.61-1.64-45.49.69-68.15q13.88-.37,27.71-1.52a3.74,3.74,0,0,0,2.5-6.09,185.49,185.49,0,0,1,33.4-34.42,208.81,208.81,0,0,1,30.55,38.63,3.44,3.44,0,0,0,1.36,1.28,3.23,3.23,0,0,0,2.22.79l26-.15a518.42,518.42,0,0,0,3.24,69.25l-49.15.33m-10.37.07a3.61,3.61,0,0,0-.08-1.21,66.65,66.65,0,0,1-.93-28.35l2.25.11a118.18,118.18,0,0,0,2.12,29.42Zm-12.29.08q-.75-15.14-1.52-30.27l.09,0,5.74.27a74.8,74.8,0,0,0,1.06,29.94Zm-64.76-75a79.43,79.43,0,0,0,10.63-22.08c0-.11,0-.2.06-.31l38.11.24a194.58,194.58,0,0,0-16.49,19.83,3.21,3.21,0,0,0-.5,1q-15.88,1.15-31.81,1.3m87.17-70.72a39.16,39.16,0,0,0-3.12,3.06,3.56,3.56,0,0,0-.87,1.76,3.43,3.43,0,0,0,1.42,3.92l2.37,1.59-10.67.89h0q-.39-5.55-1.31-11.1Zm40,46.53a213.78,213.78,0,0,1,8.81,22.51l-27.09.16a217.72,217.72,0,0,0-15.75-22.05ZM307,160.47h-1.61a223,223,0,0,0-11-28,2.89,2.89,0,0,0-4-1.47h0l-40.32.73a4.12,4.12,0,0,0-.52.06c-3.48-3.93-7.08-7.75-10.85-11.43a4.41,4.41,0,0,0-.43-.35q.47-5.23.43-10.42l20.17-1.69c3.82-.32,4.36-5.55,1.56-6.73a3.39,3.39,0,0,0-.76-.69l-5.69-3.82a32.46,32.46,0,0,1,8-5.13,2.76,2.76,0,0,0,1.4-1.51c1.48-2,.6-5.67-2.66-5.64l-25.49.25a3.18,3.18,0,0,0-2.89,1.65,3.55,3.55,0,0,0-2.44,4.11,105.19,105.19,0,0,1,1.38,30.26,3.66,3.66,0,0,0,0,.74c-4.69,3.73-9.16,7.67-13.46,11.78a3.53,3.53,0,0,0-.67-.07l-46.83-.3a3.33,3.33,0,0,0-3.32,3.93,3.6,3.6,0,0,0-.91,1.5,73.19,73.19,0,0,1-11.9,23.14c-1.68,2.21,0,4.38,2.16,4.88a3.21,3.21,0,0,0,3.31,2.89c1.73,0,3.45-.05,5.17-.07-2.38,23.15-4.34,46.28-.49,69.39-2,1.86-1.23,6.09,2.28,6.07l134.44-.89A3.32,3.32,0,0,0,303,243a2.81,2.81,0,0,0,2.9-3.3,520.78,520.78,0,0,1-3.57-72.26l4.63,0c4.48,0,4.49-7,0-7"/><path class="cls-5" d="M193.42,211.58c0-1.08-.09-2.17-.1-3.26l5.4,0c0,1-.06,2.07-.1,3.1Zm-10.27.42c-.06-1.2-.1-2.39-.13-3.59l3.35,0c0,1.16,0,2.32.12,3.48Zm3.69-14.3c-.12,1.24-.22,2.48-.3,3.73l-3.41,0c.07-1.27.15-2.54.26-3.81l3.45,0m12.23.19c0,1.14-.07,2.28-.11,3.43l-5.46.05c.07-1.19.17-2.38.29-3.56l5.28.08m6.49,13.88.58-17.3a3.17,3.17,0,0,0-3.44-3.34,3.64,3.64,0,0,0-1-.16l-22.6-.34c-3.31,0-4.16,3.74-2.57,5.75a99.37,99.37,0,0,0-.25,17.59,3.45,3.45,0,0,0,.88,2.12,3.07,3.07,0,0,0,3.33,3l22.95-.94c3.59-.14,4.3-4.69,2.09-6.35"/><path class="cls-5" d="M276.83,209.33c.25-1.47.51-2.94.78-4.4,2.38,0,4.77-.07,7.16-.18,0,1.37-.11,2.73-.17,4.09-2.59.21-5.18.36-7.77.49m-7,.23c-1.15,0-2.29,0-3.43,0v-4.92c1.4.07,2.79.13,4.19.17-.24,1.33-.47,2.66-.71,4a3.64,3.64,0,0,0-.05.73m2.69-15.62c-.24,1.33-.47,2.66-.71,4-1.8,0-3.6-.1-5.41-.2v-3.82c2,0,4.08,0,6.12,0m12.74-.52c-.06,1.46-.13,2.92-.19,4.38q-3.12.13-6.24.17l.75-4.23c1.9-.08,3.79-.18,5.68-.32m6.3,15.28q.38-8.88.76-17.76a3.79,3.79,0,0,0-.29-3.7c-1-1.81-3.62-2.11-5.25-.89a197.38,197.38,0,0,1-22.82.57,3.85,3.85,0,0,0-.85.07,3.3,3.3,0,0,0-3.66,3.34V211a3.79,3.79,0,0,0,.37,4.51,3.67,3.67,0,0,0,5.37,1,233.9,233.9,0,0,0,24.54-1.22c3.69-.38,4.31-5.28,1.83-6.62"/></g><g id="tree"><g class="cls-2"><path class="cls-6" d="M393.81,149c9.28,7.58,25,13.88,36.09,9.33A34,34,0,0,0,450.43,131c14.4-2.46,24.1-18.77,21-33s-17-24.76-31.61-25.82C454.54,66,461.51,47.07,456.29,32S435.64,6.72,419.71,5.33s-28.88.19-41,10.59c-9.28-15.28-32-18.43-49.42-14.2S298.16,22.23,297,40c-17,2.59-30.68,18.93-30.22,36s15.06,32.66,32.15,34.32A33.71,33.71,0,0,0,313,141.32c9.82,6.77,32,3.39,42.64-2,5.76-2.93,1.08-4.61,6.24-8.48C369.63,137.52,385.86,142.54,393.81,149Z"/></g><path class="cls-3" d="M470.13,97.19c-2.49-11.48-11.54-21-23-25.23a35.94,35.94,0,0,0,8.8-36.9C450.68,20,435.56,8.82,418.27,7.3c-13.63-1.19-28.12,3.38-40.4,12.63C367.51,6.62,349.31,0,332.81,4c-17,4.15-30.41,19.16-32.93,36.39-16.41,4.16-28.93,20.2-28.46,37.27.46,16.81,13.44,32,29.72,35.51A36.1,36.1,0,0,0,316.23,142c9.74,6.75,28.8,4.62,40.57-.08-.56,33.55-5.18,69.28-17.16,86.13a4,4,0,0,0,6.52,4.64c21.63-30.42,18.89-105.47,18.12-120.21a4,4,0,1,0-8,.42c.33,6.29.53,13,.56,19.79a4.78,4.78,0,0,0-.48.19c-9.75,5-28.35,7-35.34,2.19a27.32,27.32,0,0,1-11.31-25,4.22,4.22,0,0,0-3.78-4.68c-13.77-1.34-25.72-14.15-26.1-28s10.86-27.28,24.53-29.37a4.21,4.21,0,0,0,3.57-3.89c1-14.73,12.52-28.48,26.86-32s30.93,3.38,38.58,16a4.22,4.22,0,0,0,6.36,1c11.27-9.73,25-14.67,37.79-13.55,13.82,1.21,26.32,10.3,30.41,22.12,4.29,12.42-1.77,27.5-13,32.27a4.22,4.22,0,0,0,1.35,8.08c12.21.9,23.21,9.84,25.58,20.81a22.79,22.79,0,0,1-3.63,17.18,19.21,19.21,0,0,1-12.5,8.59,4.22,4.22,0,0,0-3.48,3.72,27.57,27.57,0,0,1-16.51,22.11c-8.42,3.46-21.37-1.58-29.29-8.09a4.25,4.25,0,0,0-2.17-.91c.56-10.62,1.47-20.32,2.69-28.08a4,4,0,1,0-7.9-1.25c-4.64,29.42-4.93,85.91,1.62,117.47a4,4,0,0,0,3.91,3.19,3.72,3.72,0,0,0,.81-.09,4,4,0,0,0,3.11-4.73c-4.15-20-5.47-50.3-4.64-77,8.83,6.35,18.06,8.91,25.56,8.91a25.15,25.15,0,0,0,9.5-1.67,36.33,36.33,0,0,0,21.24-26,28.12,28.12,0,0,0,15-11.46A31,31,0,0,0,470.13,97.19Z"/><path class="cls-3" d="M377.5,144.83a4,4,0,0,0-4.15,3.83c-.34,8.52-.63,32.14-.63,45.5a4,4,0,0,0,8,0c0-13,.29-36.9.62-45.18A4,4,0,0,0,377.5,144.83Z"/></g></g></g></g></svg>