<svg xmlns="http://www.w3.org/2000/svg" width="108.32" height="102.93" viewBox="0 0 108.32 102.93"><defs><style>.cls-1{fill:#3fa66c;}.cls-2{fill:#242953;}</style></defs><g id="Layer_2" data-name="Layer 2"><g id="Layer_1-2" data-name="Layer 1"><g id="Sprout"><path class="cls-1" d="M83,37.49c-9.2,5.73-24.9,8.51-33.27.15a29.23,29.23,0,0,0-3.23,5.06,28.38,28.38,0,0,0-2.45,7c.25.37.52.74.76,1.13a2.61,2.61,0,0,1-1.38,3.91c-.25,6,1.12,12,2.89,18l.71-.22a15.51,15.51,0,0,0,.6,2.74c.28.88.58,1.74.85,2.6-.92.25-1.82.52-2.74.85L43,79.7c-.1-.24-.18-.49-.29-.74s-.2-.59-.42-1.18a34,34,0,0,0-1.35-3.24c-2.31-7.88-3.85-15.68-2.83-23.43A32.08,32.08,0,0,0,33,45.85C26.4,50.52,17.85,51.4,10.66,47,1.72,41.57.39,31.36,0,21.77a2.51,2.51,0,0,1,2.59-2.7,2.83,2.83,0,0,1,4,.8c4.63,7,15.64,4.43,22.28,8.34,4,2.37,6.78,6.8,6.28,11.35a3,3,0,0,1,1.16,1.84,36.5,36.5,0,0,1,3.36,3,34.31,34.31,0,0,1,1.91-4.52A34.7,34.7,0,0,1,49.13,30a2.31,2.31,0,0,1-1.82-2.6c.78-9.45,7-16.76,15.7-20.28A43.93,43.93,0,0,1,78.49,4.28c5.07-.13,11.14.91,14.82-3.36A2.36,2.36,0,0,1,96.47.38a2.19,2.19,0,0,1,2.08,2.05C100.45,16.18,95,30,83,37.49"/><path class="cls-2" d="M106.32,96.24c-4.44-1.19-6.11-6.34-8.55-9.77a20.86,20.86,0,0,0-9.49-7.37,73.74,73.74,0,0,0-30.65-4.6,35.45,35.45,0,0,0-8,1.62c-1.77-6-3.13-12-2.88-18a2.62,2.62,0,0,0,1.37-3.92c-.24-.39-.5-.75-.76-1.13a28.73,28.73,0,0,1,2.45-7A30.07,30.07,0,0,1,53.07,41c8.38,8.35,24.08,5.58,33.28-.16,12-7.5,17.48-21.3,15.58-35.06a2.15,2.15,0,0,0-2.07-2,2.33,2.33,0,0,0-3.16.53C93,8.58,86.94,7.54,81.88,7.66A43.67,43.67,0,0,0,66.4,10.5C57.72,14,51.48,21.33,50.69,30.78a2.32,2.32,0,0,0,1.83,2.6,34.55,34.55,0,0,0-9.47,14.38,36.27,36.27,0,0,0-3.35-3A3.06,3.06,0,0,0,38.53,43c.51-4.55-2.23-9-6.27-11.36-6.64-3.9-17.65-1.3-22.28-8.34a2.85,2.85,0,0,0-4-.8,2.52,2.52,0,0,0-2.58,2.71C3.77,34.74,5.1,45,14,50.41c7.2,4.38,15.75,3.5,22.29-1.17a31.29,31.29,0,0,1,5.15,5.26c-1,7.76.53,15.58,2.85,23.48l-.81.31C38.34,80.24,33,79.57,27.68,80.85c-9.21,2.22-15,10.48-19.93,17.94-2,3,2.88,5.87,4.87,2.85,2.67-4.06,5.42-8.24,9.16-11.42,4.48-3.81,8.82-4.13,14.44-4.59,4.68-.38,8.52-1.95,12.87-3.53a36.22,36.22,0,0,1,14.42-2C72,80.54,86,81.59,92.07,88.26c4.39,4.84,5.7,11.54,12.75,13.42,3.51.94,5-4.5,1.5-5.44M81,13.34c5.34-.2,11.13.36,15.82-2A29,29,0,0,1,85.32,34.73C78.66,39.67,63.66,44.41,56.93,37A32.92,32.92,0,0,1,74.1,29.5c3.58-.49,2.06-5.93-1.5-5.44A37.59,37.59,0,0,0,56.39,30.3c1.32-12,14-16.58,24.56-17M15,44.12c-4-3.55-5.17-8.62-5.63-13.73a20.37,20.37,0,0,0,6.87,2.93c4.4,1.06,15.62,1.52,16.73,7.15a37,37,0,0,0-16.56-3.75c-3.63,0-3.64,5.68,0,5.65A31.45,31.45,0,0,1,31.1,45.84,14.1,14.1,0,0,1,15,44.12"/><path class="cls-2" d="M60.94,86.68H59.81a2.83,2.83,0,0,0,0,5.65h1.13a2.85,2.85,0,0,0,2.82-2.82,2.88,2.88,0,0,0-2.82-2.83"/><path class="cls-2" d="M74.79,84.12a2.88,2.88,0,0,0-4,0l-.57.57a2.82,2.82,0,1,0,4,4l.57-.57a2.86,2.86,0,0,0,0-4"/><path class="cls-2" d="M84.64,93.46h-.56a2.82,2.82,0,0,0,0,5.64h.56a2.82,2.82,0,1,0,0-5.64"/></g></g></g></svg>