<svg xmlns="http://www.w3.org/2000/svg" width="143.3" height="130.05" viewBox="0 0 143.3 130.05"><g id="Layer_2" data-name="Layer 2"><g id="Layer_1-2" data-name="Layer 1"><path d="M139.15,96.65c.82-25.71.56-65,1.39-90.68a2.17,2.17,0,0,0-.43-1.31,2.19,2.19,0,0,0,.14-.53c.18-1.44-.75-3.29-2.39-3.39L126.76,0a3.22,3.22,0,0,0-2.22.52,3,3,0,0,0-.69.73C98.26,1.24,28.61.62,3,.6.16.6-.18,4,1.46,5.58-.11,31.79-.33,71.24.4,97.48c.06,2.23,2.12,2.93,3.77,2.36A3.37,3.37,0,0,0,5,100c28.25-.51,101.44,0,129.7-.53a3.16,3.16,0,0,0,1.79.44,3,3,0,0,0,2.63-3.21" style="fill:#489fdf"/><path d="M108.2,123.59c-26.34-.38-46.24-.76-72.57-1.14-4.16-.06-4.17,6.4,0,6.46,26.33.38,46.23.76,72.57,1.14,4.16.06,4.16-6.41,0-6.46" style="fill:#071d49"/><path d="M113.23,17.42,27.31,20c-4.15.13-4.17,6.6,0,6.47l85.92-2.61c4.15-.13,4.17-6.59,0-6.47" style="fill:#071d49"/><path d="M105.19,32.24c-28.64.87-49.24.94-77.88,1.81-4.15.12-4.17,6.59,0,6.46,28.64-.87,49.24-.93,77.88-1.8,4.15-.13,4.17-6.6,0-6.47" style="fill:#071d49"/><path d="M93.52,50.92c-28.64.87-12.16,0-40.8.9-4.15.13-4.17,6.6,0,6.47,28.64-.87,12.16,0,40.8-.9,4.15-.13,4.17-6.6,0-6.47" style="fill:#071d49"/><path d="M93.52,74.24c-28.64.87-12.16,0-40.8.91-4.15.12-4.17,6.59,0,6.46,28.64-.87,12.16,0,40.8-.9,4.15-.12,4.17-6.59,0-6.47" style="fill:#071d49"/><line x1="61.59" y1="100.49" x2="60.79" y2="120.47" style="fill:none;stroke:#071d49;stroke-linecap:round;stroke-linejoin:round;stroke-width:6.42844816447752px"/><line x1="79.92" y1="100.49" x2="80.72" y2="120.47" style="fill:none;stroke:#071d49;stroke-linecap:round;stroke-linejoin:round;stroke-width:6.42844816447752px"/><path d="M9,96.09C8.34,71.26,8.54,33.24,10,8.45c25.36,0,94.77.64,120.13.66a2.39,2.39,0,0,0,2.11-1.06l5.22.34a1,1,0,0,0,0,.16c-.79,24.5-.49,62.56-1.28,87.05-27.43.5-99.8,0-127.23.49m133,2.57c.82-25.71.56-65,1.39-90.68a2.17,2.17,0,0,0-.43-1.31,2.19,2.19,0,0,0,.14-.53c.18-1.44-.75-3.29-2.39-3.39L129.52,2a3.22,3.22,0,0,0-2.22.52,3,3,0,0,0-.69.73C101,3.25,31.37,2.63,5.78,2.61c-2.86,0-3.19,3.36-1.56,5C2.66,33.8,2.43,73.25,3.16,99.49c.06,2.23,2.12,2.93,3.77,2.36a3.37,3.37,0,0,0,.86.11c28.25-.51,101.44,0,129.7-.53a3.16,3.16,0,0,0,1.79.44,3,3,0,0,0,2.63-3.21" style="fill:#071d49"/><path d="M26.15,63.57c.05-4.44.1-9.11.15-13.56" style="fill:none;stroke:#071d49;stroke-linecap:round;stroke-linejoin:round;stroke-width:3.40743751870085px"/><path d="M26.36,49.83,41.67,50" style="fill:none;stroke:#071d49;stroke-linecap:round;stroke-linejoin:round;stroke-width:3.40743751870085px"/><path d="M41.19,49.56l.78,14" style="fill:none;stroke:#071d49;stroke-linecap:round;stroke-linejoin:round;stroke-width:3.40743751870085px"/><path d="M25.87,63.52a72.26,72.26,0,0,0,16,.11" style="fill:none;stroke:#071d49;stroke-linecap:round;stroke-linejoin:round;stroke-width:3.40743751870085px"/><path d="M26.15,86.27c.05-4.44.1-9.11.15-13.55" style="fill:none;stroke:#071d49;stroke-linecap:round;stroke-linejoin:round;stroke-width:3.40743751870085px"/><path d="M26.36,72.54l15.31.11" style="fill:none;stroke:#071d49;stroke-linecap:round;stroke-linejoin:round;stroke-width:3.40743751870085px"/><path d="M41.19,72.26l.78,14" style="fill:none;stroke:#071d49;stroke-linecap:round;stroke-linejoin:round;stroke-width:3.40743751870085px"/><path d="M25.87,86.23a72.87,72.87,0,0,0,16,.1" style="fill:none;stroke:#071d49;stroke-linecap:round;stroke-linejoin:round;stroke-width:3.40743751870085px"/></g></g></svg>