<svg id="Layer_1" data-name="Layer 1" xmlns="http://www.w3.org/2000/svg" viewBox="0 0 75.26 67.99"><path id="white-square" d="M75.26,63.94,72,5.66A2,2,0,0,0,72,1.75h-.18a1.95,1.95,0,0,0-3.87,0c-10.66-.07-20.27-.15-29.87-.23L4.14,1.23h0A2,2,0,0,0,2.19,3a1.91,1.91,0,0,0-.27,1L1.28,62a2,2,0,0,0,.41,3.77l.89.11a2,2,0,0,0,.61.12h0l.15,0A266.81,266.81,0,0,0,37.1,68c13.41,0,25.91-.81,35.82-1.74a1.9,1.9,0,0,0,.87-.31A2,2,0,0,0,75.26,63.94ZM5.18,62.28,5.82,5.15,38,5.4c9.66.08,19.34.16,30.08.23l3.14,56.84C47.29,64.64,24,64.57,5.18,62.28Z" style="fill:#fff"/></svg>